<?xml version="1.0" encoding="UTF-8"?>
<svg id="illustration-builder" width="1000" height="880" viewBox="-10 -30 1070 940" version="1.1" xmlns="http://www.w3.org/2000/svg" xmlns:xlink="http://www.w3.org/1999/xlink" style="pointer-events: none;"><g transform="translate(288,56)">
<g><svg xmlns="http://www.w3.org/2000/svg" width="392" height="534" viewBox="0 0 392 534"><g id="Symbols--globalStyle1/animalsandobjects/books1" fill="none" fill-rule="evenodd" stroke="none" stroke-width="1"><g id="globalStyle1/animalsandobjects/books1--globalStyle1/animalsandobjects/books1"><g id="globalStyle1/objects/books/1--globalStyle1/animalsandobjects/books1" transform="translate(41.5 327)"><path id="Fill-1--globalStyle1/animalsandobjects/books1" fill="#FFF" d="M69.5983169,93.3859516 L299.052657,92.9856574 L298.96688,61.8806695 L69.5125396,62.2809636 C55.3497504,62.3047907 43.8865642,64.9061001 43.9125512,79.0688893 C43.936601,93.2316785 55.4355277,102.309779 69.5983169,102.286184"></path><g id="Group-5--globalStyle1/animalsandobjects/books1" transform="translate(20 51.5)"><path id="[color]color--globalStyle1/animalsandobjects/books1" fill="#ffac58" fill-rule="nonzero" d="M35.5904035,39.0700621 C29.1618696,39.0795929 23.8913296,33.8281146 23.8794161,27.3995807 C23.8698853,20.9686641 29.1213636,15.6981241 35.5498975,15.6885933 L283.739435,15.2549413 L283.713225,0.510772477 C283.713225,0.382106491 283.606004,0.274884837 283.474955,0.274884837 L25.6021107,0.725215786 C11.4965064,0.74904282 -0.0238647246,12.3099199 -7.45840647e-05,26.4131415 C0.0261720475,40.5187458 11.5846664,52.0367342 25.6902707,52.012944 L283.565498,51.5625762 C283.696546,51.5625762 283.801424,51.4553545 283.801424,51.3243059 L283.779941,38.6364101 L35.5904035,39.0700621 Z" opacity="1.00"></path><path id="shadow--globalStyle1/animalsandobjects/books1" fill="#000" fill-opacity=".08" d="M35.5904035,39.0700621 C29.1618696,39.0795929 23.8913296,33.8281146 23.8794161,27.3995807 C23.8698853,20.9686641 29.1213636,15.6981241 35.5498975,15.6885933 L283.739435,15.2549413 L283.713225,0.510772477 C283.713225,0.382106491 283.606004,0.274884837 283.474955,0.274884837 L25.6021107,0.725215786 C11.4965064,0.74904282 -0.0238647246,12.3099199 -7.45840647e-05,26.4131415 C0.0261720475,40.5187458 11.5846664,52.0367342 25.6902707,52.012944 L283.565498,51.5625762 C283.696546,51.5625762 283.801424,51.4553545 283.801424,51.3243059 L283.779941,38.6364101 L35.5904035,39.0700621 Z"></path></g><path id="Fill-6--globalStyle1/animalsandobjects/books1" fill="#FFF" d="M256.844019,201.476466 L25.0069753,201.881525 L24.9331115,159.883995 L254.387452,159.483608 C268.552624,159.459873 280.039637,164.010837 280.06588,178.173626 C280.087291,191.021163 269.691556,201.455021 256.844019,201.476466"></path><path id="Fill-6-Copy--globalStyle1/animalsandobjects/books1" fill="#FFF" d="M256.844019,48.1172704 L25.0069753,48.52233 L24.9331115,6.52479932 L254.387452,6.12441216 C268.552624,6.10067811 280.039637,10.6516417 280.06588,24.8144309 C280.087291,37.6619678 269.691556,48.0958261 256.844019,48.1172704"></path><g id="Group-10--globalStyle1/animalsandobjects/books1" fill="#FFAC58" fill-rule="nonzero" transform="translate(20 .5)"><path id="[color]color--globalStyle1/animalsandobjects/books1" d="M248.431821 190.413112C254.860355 190.401198 260.111833 185.133041 260.102302 178.702124 260.090389 172.271208 254.819849 167.01973 248.391315 167.031643L.199394587 167.465295.175567553 152.723509C.175567553 152.590078.282789207 152.485239.413837896 152.482856L258.286682 152.034863C272.392286 152.008698 283.953164 163.529069 283.977027 177.632291 284.000818 191.737895 272.480447 203.298772 258.377225 203.322599L.501997923 203.77293C.370949234 203.77293.26372758 203.665708.26372758 203.53466L.242283249 190.846764 248.431821 190.413112zM248.431821 38.6050048C254.860355 38.5930912 260.111833 33.324934 260.102302 26.8940174 260.090389 20.4631008 254.819849 15.2116225 248.391315 15.223536L.199394587 15.657188.175567553.915401879C.175567553.781970487.282789207.677131536.413837896.674748833L258.286682.226755954C272.392286.20059085 283.953164 11.7209619 283.977027 25.8241836 284.000818 39.9297879 272.480447 51.4906649 258.377225 51.5144919L.501997923 51.9648229C.370949234 51.9648229.26372758 51.8576012.26372758 51.7265526L.242283249 39.0386568 248.431821 38.6050048z" fill="#ffac58" opacity="1.00"></path></g><path id="Fill-11--globalStyle1/animalsandobjects/books1" fill="#FFF" d="M49.6186339,150.407607 L279.072974,150.007259 L278.994345,105.388755 L49.5400046,105.791432 C35.3772154,105.815259 23.9116465,114.219054 23.9354365,128.381843 C23.9593006,142.544632 35.4558447,150.43138 49.6186339,150.407607"></path><path id="[color]color--globalStyle1/animalsandobjects/books1" fill="#ffac58" fill-rule="nonzero" d="M107.10612,140.954892 C100.675203,140.966806 95.4070457,135.715327 95.3951322,129.284411 C95.3832187,122.855877 100.634697,117.585337 107.065614,117.573424 L283.764517,117.266055 L283.738308,102.524269 C283.735925,102.390837 283.628703,102.285998 283.497655,102.285998 L25.6248103,102.733947 C11.519206,102.760156 -0.00116510426,114.318651 0.025,128.424255 C0.0488716678,142.529859 11.6097487,154.047848 25.7129703,154.024058 L283.588197,153.57369 C283.719246,153.57369 283.826468,153.466468 283.826468,153.335419 L283.805023,140.647524 L107.10612,140.954892 Z" opacity="1.00"></path><path id="shadow--globalStyle1/animalsandobjects/books1" fill="#000" fill-opacity=".08" d="M268.805523,191.888427 C275.234057,191.876514 280.485535,186.608356 280.476005,180.17744 C280.464091,173.746523 275.193551,168.495045 268.765017,168.506958 L20.5730971,168.94061 L20.54927,154.198824 C20.54927,154.065393 20.6564917,153.960554 20.7875404,153.958171 L278.660385,153.510178 C292.765989,153.484013 304.326866,165.004384 304.35073,179.107606 C304.37452,193.21321 292.854149,204.774087 278.750927,204.797914 L20.8757004,205.248245 C20.7446517,205.248245 20.6374301,205.141024 20.6374301,205.009975 L20.6159857,192.322079 L268.805523,191.888427 Z"></path></g></g></g></svg></g></g></svg>