<?xml version="1.0" encoding="UTF-8"?>
<svg id="illustration-builder" width="1000" height="880" viewBox="-10 -30 1070 940" version="1.1" xmlns="http://www.w3.org/2000/svg" xmlns:xlink="http://www.w3.org/1999/xlink" style="pointer-events: none;"><g transform="translate(79,56)">
<g><svg xmlns="http://www.w3.org/2000/svg" width="842" height="766" viewBox="0 0 842 766"><g id="Symbols--globalStyle1/objects/builders/building" fill="none" fill-rule="evenodd" stroke="none" stroke-width="1"><g id="globalStyle1/objects/builders/building--globalStyle1/objects/builders/building"><g id="Group-34--globalStyle1/objects/builders/building" transform="translate(56.265 207)"><path id="Combined-Shape--globalStyle1/objects/builders/building" fill="#525252" d="M264.842314,24.1574154 L317.621302,26.8163915 C318.637168,26.8651326 319.528937,27.3488949 320.126975,28.0777458 L336.123143,28.8818031 C336.919388,28.920409 337.56121,29.3885046 337.927965,30.0303264 L337.927965,30.0303264 L337.961745,30.020675 L345.065217,40.4442475 C347.304355,43.735394 350.918825,45.82976 354.885574,46.1386066 L354.885574,46.1386066 L396.063511,49.3670186 C396.063511,49.3670186 400.971276,49.5600478 400.015782,50.3466414 C400.015782,50.3466414 399.094068,50.9257288 396.063511,50.8822972 L396.063511,50.8822972 L396.063511,50.887123 L348.718293,50.887123 C344.428221,50.887123 340.413215,48.7879313 337.95692,45.2748013 L337.95692,45.2748013 L329.415381,33.0464064 L320.03574,32.5746875 C319.36203,33.3311406 318.364292,33.7867327 317.273849,33.7316598 L264.490036,31.0775094 C262.579048,30.9809948 261.112026,29.3547245 261.208541,27.4437362 C261.305056,25.5327479 262.931326,24.0609008 264.842314,24.1574154 Z"></path><polyline id="Fill-83--globalStyle1/objects/builders/building" fill="#D7D7D7" points="729.120783 0.39070483 465.645683 0.39070483 465.645683 54.7139253 130.518174 54.7139253 130.518174 105.499887 63.0158906 105.499887 63.0158906 485.772082 729.130434 485.772082 729.120783 0.39070483"></polyline><polygon id="Fill-84--globalStyle1/objects/builders/building" fill="#F19B65" points="599.043283 268.537109 729.125608 268.537109 729.125608 217.741495 599.043283 217.741495"></polygon><polygon id="Fill-85--globalStyle1/objects/builders/building" fill="#F19B65" points="534.002121 322.850678 664.084446 322.850678 664.084446 272.055065 534.002121 272.055065"></polygon><polygon id="Fill-86--globalStyle1/objects/builders/building" fill="#F19B65" points="599.043283 377.164247 729.125608 377.164247 729.125608 326.368634 599.043283 326.368634"></polygon><polygon id="Fill-87--globalStyle1/objects/builders/building" fill="#F19B65" points="599.043283 485.796211 729.125608 485.796211 729.125608 435.000597 599.043283 435.000597"></polygon><polygon id="Fill-88--globalStyle1/objects/builders/building" fill="#F19B65" points="534.002121 431.482642 664.084446 431.482642 664.084446 380.687028 534.002121 380.687028"></polygon><polygon id="Fill-89--globalStyle1/objects/builders/building" fill="#F19B65" points="465.645683 268.537109 595.728008 268.537109 595.728008 217.741495 465.645683 217.741495"></polygon><polygon id="Fill-90--globalStyle1/objects/builders/building" fill="#F19B65" points="400.609347 322.850678 530.686846 322.850678 530.686846 272.055065 400.609347 272.055065"></polygon><polygon id="Fill-91--globalStyle1/objects/builders/building" fill="#F19B65" points="465.645683 377.164247 595.728008 377.164247 595.728008 326.368634 465.645683 326.368634"></polygon><polygon id="Fill-92--globalStyle1/objects/builders/building" fill="#F19B65" points="465.645683 485.796211 595.728008 485.796211 595.728008 435.000597 465.645683 435.000597"></polygon><polygon id="Fill-93--globalStyle1/objects/builders/building" fill="#F19B65" points="400.609347 431.482642 530.686846 431.482642 530.686846 380.687028 400.609347 380.687028"></polygon><polygon id="Fill-94--globalStyle1/objects/builders/building" fill="#F19B65" points="332.252909 268.537109 462.330408 268.537109 462.330408 217.741495 332.252909 217.741495"></polygon><polygon id="Fill-95--globalStyle1/objects/builders/building" fill="#F19B65" points="267.211747 322.850678 397.294072 322.850678 397.294072 272.055065 267.211747 272.055065"></polygon><polygon id="Fill-96--globalStyle1/objects/builders/building" fill="#F19B65" points="332.252909 377.164247 462.330408 377.164247 462.330408 326.368634 332.252909 326.368634"></polygon><polygon id="Fill-97--globalStyle1/objects/builders/building" fill="#F19B65" points="332.252909 485.796211 462.330408 485.796211 462.330408 435.000597 332.252909 435.000597"></polygon><polygon id="Fill-98--globalStyle1/objects/builders/building" fill="#F19B65" points="267.211747 431.482642 397.294072 431.482642 397.294072 380.687028 267.211747 380.687028"></polygon><polygon id="Fill-99--globalStyle1/objects/builders/building" fill="#F19B65" points="198.855309 268.537109 328.937634 268.537109 328.937634 217.741495 198.855309 217.741495"></polygon><polygon id="Fill-100--globalStyle1/objects/builders/building" fill="#F19B65" points="133.814147 322.850678 263.896471 322.850678 263.896471 272.055065 133.814147 272.055065"></polygon><polygon id="Fill-101--globalStyle1/objects/builders/building" fill="#F19B65" points="198.855309 377.164247 328.937634 377.164247 328.937634 326.368634 198.855309 326.368634"></polygon><polygon id="Fill-102--globalStyle1/objects/builders/building" fill="#F19B65" points="198.855309 485.796211 328.937634 485.796211 328.937634 435.000597 198.855309 435.000597"></polygon><polygon id="Fill-103--globalStyle1/objects/builders/building" fill="#F19B65" points="133.814147 431.482642 263.896471 431.482642 263.896471 380.687028 133.814147 380.687028"></polygon><polygon id="Fill-104--globalStyle1/objects/builders/building" fill="#F19B65" points="65.457709 268.537109 195.540034 268.537109 195.540034 217.741495 65.457709 217.741495"></polygon><polygon id="Fill-105--globalStyle1/objects/builders/building" fill="#F19B65" points="0.416546567 322.850678 130.498871 322.850678 130.498871 272.055065 0.416546567 272.055065"></polygon><polygon id="Fill-106--globalStyle1/objects/builders/building" fill="#F19B65" points="65.457709 377.164247 195.540034 377.164247 195.540034 326.368634 65.457709 326.368634"></polygon><polygon id="Fill-107--globalStyle1/objects/builders/building" fill="#F19B65" points="599.043283 159.909971 729.125608 159.909971 729.125608 109.114357 599.043283 109.114357"></polygon><polygon id="Fill-108--globalStyle1/objects/builders/building" fill="#F19B65" points="534.002121 214.22354 664.084446 214.22354 664.084446 163.427926 534.002121 163.427926"></polygon><polygon id="Fill-109--globalStyle1/objects/builders/building" fill="#F19B65" points="465.645683 159.909971 595.728008 159.909971 595.728008 109.114357 465.645683 109.114357"></polygon><polygon id="Fill-110--globalStyle1/objects/builders/building" fill="#F19B65" points="400.609347 214.22354 530.686846 214.22354 530.686846 163.427926 400.609347 163.427926"></polygon><polygon id="Fill-111--globalStyle1/objects/builders/building" fill="#F19B65" points="332.252909 159.909971 462.330408 159.909971 462.330408 109.114357 332.252909 109.114357"></polygon><polygon id="Fill-112--globalStyle1/objects/builders/building" fill="#F19B65" points="267.211747 214.22354 397.294072 214.22354 397.294072 163.427926 267.211747 163.427926"></polygon><polygon id="Fill-113--globalStyle1/objects/builders/building" fill="#F19B65" points="198.855309 159.909971 328.937634 159.909971 328.937634 109.114357 198.855309 109.114357"></polygon><polygon id="Fill-114--globalStyle1/objects/builders/building" fill="#F19B65" points="133.814147 214.22354 263.896471 214.22354 263.896471 163.427926 133.814147 163.427926"></polygon><polygon id="Fill-115--globalStyle1/objects/builders/building" fill="#F19B65" points="65.457709 159.909971 195.540034 159.909971 195.540034 109.114357 65.457709 109.114357"></polygon><polygon id="Fill-116--globalStyle1/objects/builders/building" fill="#F19B65" points="0.416546567 214.22354 130.498871 214.22354 130.498871 163.427926 0.416546567 163.427926"></polygon><polygon id="Fill-117--globalStyle1/objects/builders/building" fill="#F19B65" points="599.043283 51.1863181 729.125608 51.1863181 729.125608 0.39070483 599.043283 0.39070483"></polygon><polygon id="Fill-118--globalStyle1/objects/builders/building" fill="#F19B65" points="667.732696 105.499887 729.125608 105.499887 729.125608 54.7042739 667.732696 54.7042739"></polygon><polygon id="Fill-119--globalStyle1/objects/builders/building" fill="#F19B65" points="667.732696 214.22354 729.125608 214.22354 729.125608 163.427926 667.732696 163.427926"></polygon><polygon id="Fill-120--globalStyle1/objects/builders/building" fill="#F19B65" points="667.732696 322.947192 729.125608 322.947192 729.125608 272.151579 667.732696 272.151579"></polygon><polygon id="Fill-121--globalStyle1/objects/builders/building" fill="#F19B65" points="667.732696 431.670845 729.125608 431.670845 729.125608 380.875232 667.732696 380.875232"></polygon><polygon id="Fill-122--globalStyle1/objects/builders/building" fill="#F19B65" points="534.002121 105.499887 664.084446 105.499887 664.084446 54.7042739 534.002121 54.7042739"></polygon><polygon id="Fill-123--globalStyle1/objects/builders/building" fill="#F19B65" points="465.645683 51.1863181 595.728008 51.1863181 595.728008 0.39070483 465.645683 0.39070483"></polygon><polygon id="Fill-124--globalStyle1/objects/builders/building" fill="#F19B65" points="400.609347 105.499887 530.686846 105.499887 530.686846 54.7042739 400.609347 54.7042739"></polygon><polygon id="Fill-125--globalStyle1/objects/builders/building" fill="#F19B65" points="267.211747 105.499887 397.294072 105.499887 397.294072 54.7042739 267.211747 54.7042739"></polygon><polygon id="Fill-126--globalStyle1/objects/builders/building" fill="#F19B65" points="133.814147 105.499887 263.896471 105.499887 263.896471 54.7042739 133.814147 54.7042739"></polygon><polygon id="Fill-127--globalStyle1/objects/builders/building" fill="#F19B65" points="65.457709 485.796211 195.540034 485.796211 195.540034 435.000597 65.457709 435.000597"></polygon><polygon id="Fill-128--globalStyle1/objects/builders/building" fill="#F19B65" points="0.416546567 431.482642 130.498871 431.482642 130.498871 380.687028 0.416546567 380.687028"></polygon><path id="Fill-129--globalStyle1/objects/builders/building" fill="#D7D7D7" d="M423.295094,50.887123 L226.588768,50.887123 C222.255264,50.887123 218.100312,53.4206302 216.734631,57.5369762 C215.639191,60.823297 216.845623,64.0324061 226.043461,63.733211 C244.443962,63.129995 261.522213,48.952006 274.247658,59.6602965 C286.968277,70.3685871 284.671231,86.6361163 294.621882,82.0323717 C304.577359,77.4238014 297.826165,63.129995 323.465258,63.4291901 C349.099526,63.733211 356.65179,78.2103951 367.210483,70.9718031 C377.76435,63.733211 400.372886,53.7777341 413.643638,61.320347 C426.91439,68.8581342 438.187291,50.887123 423.295094,50.887123"></path></g></g></g></svg></g></g></svg>