<?xml version="1.0" encoding="UTF-8"?>
<svg id="illustration-builder" width="1000" height="880" viewBox="-10 -30 1070 940" version="1.1" xmlns="http://www.w3.org/2000/svg" xmlns:xlink="http://www.w3.org/1999/xlink" style="pointer-events: none;"><g transform="translate(79,56)">
<g><svg xmlns="http://www.w3.org/2000/svg" width="842" height="766" viewBox="0 0 842 766"><g id="Symbols--globalStyle1/objects/builders/building3" fill="none" fill-rule="evenodd" stroke="none" stroke-width="1"><g id="globalStyle1/objects/builders/building3--globalStyle1/objects/builders/building3"><polygon id="Path-170--globalStyle1/objects/builders/building3" fill="#FFE8DA" points="234.864585 90.3925642 606.686687 90.3925642 606.686687 471.762777 234.864585 471.762777"></polygon><path id="Combined-Shape--globalStyle1/objects/builders/building3" fill="#F1C1A4" d="M606.686687,90.3925642 L606.686687,471.762777 L234.864585,471.762777 L234.864585,90.3925642 L606.686687,90.3925642 Z M589.438688,108.083479 L252.112584,108.083479 L252.112584,454.071863 L589.438688,454.071863 L589.438688,108.083479 Z"></path><path id="[color:animals]stand--globalStyle1/objects/builders/building3" fill="#233a48" fill-rule="nonzero" d="M423.782542,347.120508 L423.782542,354.65613 L332.235301,354.65613 L332.235301,347.120508 L423.782542,347.120508 Z M548.669081,207.499212 L548.669081,302.444646 L541.50647,302.444646 L541.50647,214.593883 L514.764191,214.593212 L514.764606,327.68952 L514.678191,327.689212 L514.764606,327.786545 L503.452326,327.786545 L482.768673,347.120508 L462.46962,347.120508 L437.121544,327.786545 L328.390809,327.786545 L328.390809,322.337909 L388.083191,322.337212 L388.083191,276.288212 L370.375753,276.288241 L370.375191,257.217212 L326.786665,257.218015 L326.786665,250.40722 L337.683191,250.407212 L337.683191,214.593212 L298.525548,214.593883 L298.525548,329.677023 L292.882191,329.677023 L292.882191,207.499212 L548.669081,207.499212 Z M507.953191,214.593212 L437.121191,214.593212 L437.121191,322.337212 L441.938059,322.337909 L464.289003,339.151779 L480.627953,339.151779 L500.359349,322.337909 L507.953191,322.337212 L507.953191,214.593212 Z M430.310191,287.185212 L394.894615,287.185513 L394.894191,322.337212 L430.310191,322.337212 L430.310191,287.185212 Z M430.310191,257.217212 L394.894191,257.217212 L394.894615,283.099036 L430.310191,283.098212 L430.310191,257.217212 Z M388.083191,257.217212 L374.462191,257.217212 L374.462191,273.563212 L388.083191,273.563212 L388.083191,257.217212 Z M388.083191,214.593212 L341.770191,214.593212 L341.770191,250.407212 L388.083191,250.407212 L388.083191,214.593212 Z M409.878191,214.593212 L394.894191,214.593212 L394.894191,250.407212 L409.878191,250.407212 L409.878191,214.593212 Z M430.310191,214.593212 L413.964191,214.593212 L413.964191,250.407212 L430.310191,250.407212 L430.310191,214.593212 Z" opacity="1.00"></path><rect id="Rectangle--globalStyle1/objects/builders/building3" width="123.956" height="10.897" x="270.938" y="128.533" fill="#000" opacity=".161"></rect><rect id="Rectangle-Copy--globalStyle1/objects/builders/building3" width="198.194" height="10.897" x="270.938" y="147.603" fill="#000" opacity=".161"></rect><rect id="Rectangle-Copy-2--globalStyle1/objects/builders/building3" width="128.724" height="10.897" x="439.505" y="397.559" fill="#000" opacity=".161"></rect><rect id="Rectangle-Copy-3--globalStyle1/objects/builders/building3" width="128.724" height="10.897" x="439.505" y="420.035" fill="#000" opacity=".161"></rect><rect id="Rectangle-Copy-4--globalStyle1/objects/builders/building3" width="7.253" height="292.986" x="296.707" y="471.763" fill="#5A5A5A" fill-rule="nonzero"></rect><rect id="Rectangle-Copy-6--globalStyle1/objects/builders/building3" width="7.253" height="292.986" x="529.432" y="471.763" fill="#5A5A5A" fill-rule="nonzero"></rect><polygon id="Rectangle-Copy-5--globalStyle1/objects/builders/building3" fill="#5A5A5A" fill-rule="nonzero" points="297.589903 721.678924 303.739776 721.678924 303.739776 801.668232 297.589903 801.668232" transform="rotate(90 300.665 761.674)"></polygon><polygon id="Rectangle-Copy-7--globalStyle1/objects/builders/building3" fill="#5A5A5A" fill-rule="nonzero" points="530.315292 721.678924 536.465165 721.678924 536.465165 801.668232 530.315292 801.668232" transform="rotate(90 533.39 761.674)"></polygon></g></g></svg></g></g></svg>