<?xml version="1.0" encoding="UTF-8"?>
<svg id="illustration-builder" width="810" height="713" viewBox="-10 -30 880 773" version="1.1" xmlns="http://www.w3.org/2000/svg" xmlns:xlink="http://www.w3.org/1999/xlink" style="pointer-events: none;"><g transform="translate(27,83)">
<g><svg xmlns="http://www.w3.org/2000/svg" width="757" height="547" viewBox="0 0 757 547"><g id="Symbols--globalStyle1/bgelements/presentation/7" fill="none" fill-rule="evenodd" stroke="none" stroke-width="1"><g id="globalStyle1/bgelements/presentation/7--globalStyle1/bgelements/presentation/7"><g id="group--globalStyle1/bgelements/presentation/7" transform="translate(175.5 79)"><path id="[color:bgelement]screen--globalStyle1/bgelements/presentation/7" fill="#6161ae" d="M394.21912,19.4816 L394.21912,331.343733 C394.21912,341.2744 389.906607,349.336533 384.587491,349.336533 L11.1966166,349.336533 C5.13391582,349.336533 0.21912,340.150667 0.21912,328.821867 L0.21912,17.3595733 C0.21912,7.84965333 4.34696089,0.139013333 9.43803461,0.139013333 L383.864892,0.139013333 C389.583431,0.139013333 394.21912,8.7996 394.21912,19.4816" opacity="1.00"></path><path id="Fill-2--globalStyle1/bgelements/presentation/7" fill="#FFFFFE" d="M380.320062,4.28768 L15.3354551,4.28768 C10.0846425,4.28768 5.82741333,12.3485067 5.82741333,22.29224 L5.82741333,327.175467 C5.82741333,337.1192 10.0846425,345.181333 15.3354551,345.181333 L380.320062,345.181333 C385.570874,345.181333 389.827413,337.1192 389.827413,327.175467 L389.827413,22.29224 C389.827413,12.3485067 385.570874,4.28768 380.320062,4.28768"></path><path id="[color:bgelement]screen--globalStyle1/bgelements/presentation/7" fill="#6161ae" d="M390.893653,388.797867 L55.9100533,388.797867 C47.9511467,388.797867 41.5001333,382.342933 41.5001333,374.385333 L41.5001333,51.4544267 C41.5001333,43.49552 47.9511467,37.0432 55.9100533,37.0432 L390.893653,37.0432 C398.851253,37.0432 405.303573,43.49552 405.303573,51.4544267 L405.303573,374.385333 C405.303573,382.342933 398.851253,388.797867 390.893653,388.797867" opacity="1.00"></path><polyline id="Fill-43--globalStyle1/bgelements/presentation/7" fill="#FBD5CA" points="75.2265067 348.238933 72.7059467 345.573333 137.926907 284.028027 203.935787 298.333413 266.98768 226.43016 321.978747 229.533493 364.806053 170.457787 367.780027 172.615093 323.775413 233.314987 268.570053 230.2012 205.272507 302.382773 139.03888 288.030347 75.2265067 348.238933"></polyline><path id="Fill-44--globalStyle1/bgelements/presentation/7" fill="#FBD5CA" d="M214.18136,298.285067 C215.326,303.577067 211.967867,308.790667 206.677173,309.927467 C201.3904,311.077333 196.171573,307.7192 195.029547,302.4272 C193.8836,297.141733 197.24304,291.926827 202.529813,290.78088 C207.820507,289.63624 213.035413,292.99568 214.18136,298.285067"></path><path id="Fill-45--globalStyle1/bgelements/presentation/7" fill="#FBD5CA" d="M202.9192,292.57624 C198.629413,293.50528 195.89456,297.751947 196.8236,302.04304 C197.753947,306.334133 202.000613,309.065067 206.287787,308.137333 C210.57888,307.2096 213.313733,302.962933 212.386,298.674453 C211.45696,294.38336 207.210293,291.645893 202.9192,292.57624 Z M207.06656,311.730667 C200.79456,313.0896 194.590507,309.0912 193.231573,302.8192 C191.873947,296.549813 195.872347,290.34184 202.140427,288.986827 C208.412427,287.627893 214.6204,291.624987 215.975413,297.896987 C217.334347,304.165067 213.33856,310.371733 207.06656,311.730667 L207.06656,311.730667 Z"></path><path id="Fill-46--globalStyle1/bgelements/presentation/7" fill="#FBD5CA" d="M277.335173,226.86136 C278.479813,232.14944 275.12168,237.364347 269.8336,238.510293 C264.544213,239.654933 259.328,236.2968 258.18336,231.00872 C257.037413,225.718027 260.395547,220.50312 265.68624,219.357173 C270.97432,218.212533 276.189227,221.570667 277.335173,226.86136"></path><path id="Fill-47--globalStyle1/bgelements/presentation/7" fill="#FBD5CA" d="M266.075627,221.152533 C261.784533,222.08288 259.050987,226.32824 259.977413,230.619333 C260.90776,234.907813 265.15312,237.64528 269.444213,236.714933 C273.735307,235.785893 276.47016,231.539227 275.539813,227.248133 C274.610773,222.959653 270.364107,220.223493 266.075627,221.152533 Z M270.222987,240.30696 C263.950987,241.66328 257.74432,237.667493 256.388,231.398107 C255.030373,225.126107 259.02616,218.91944 265.296853,217.560507 C271.568853,216.204187 277.774213,220.20128 279.13184,226.471973 C280.490773,232.74136 276.492373,238.948027 270.222987,240.30696 L270.222987,240.30696 Z"></path><path id="Fill-48--globalStyle1/bgelements/presentation/7" fill="#FBD5CA" d="M331.925093,229.0448 C333.069733,234.335493 329.710293,239.551707 324.4196,240.696347 C319.132827,241.842293 313.914,238.482853 312.76936,233.193467 C311.623413,227.905387 314.985467,222.689173 320.273547,221.54192 C325.562933,220.398587 330.779147,223.758027 331.925093,229.0448"></path><path id="Fill-49--globalStyle1/bgelements/presentation/7" fill="#FBD5CA" d="M320.661627,223.338587 C316.370533,224.268933 313.636987,228.5156 314.566027,232.806693 C315.496373,237.093867 319.741733,239.82872 324.03152,238.902293 C328.322613,237.971947 331.057467,233.72528 330.12712,229.435493 C329.200693,225.1444 324.954027,222.409547 320.661627,223.338587 Z M324.808987,242.491707 C318.536987,243.849333 312.332933,239.854853 310.974,233.582853 C309.616373,227.309547 313.614773,221.105493 319.88416,219.747867 C326.15616,218.388933 332.36152,222.386027 333.719147,228.655413 C335.07808,234.927413 331.080987,241.135387 324.808987,242.491707 L324.808987,242.491707 Z"></path><path id="Fill-50--globalStyle1/bgelements/presentation/7" fill="#FBD5CA" d="M148.009147,284.864293 C149.153787,290.152373 145.794347,295.36728 140.50496,296.513227 C135.215573,297.657867 129.998053,294.299733 128.853413,289.00904 C127.708773,283.72096 131.068213,278.506053 136.3576,277.360107 C141.646987,276.215467 146.8632,279.5736 148.009147,284.864293"></path><path id="Fill-51--globalStyle1/bgelements/presentation/7" fill="#FBD5CA" d="M136.746987,279.155467 C132.455893,280.084507 129.722347,284.331173 130.65008,288.622267 C131.577813,292.910747 135.82448,295.648213 140.115573,294.717867 C144.406667,293.788827 147.14152,289.54216 146.211173,285.251067 C145.284747,280.962587 141.03808,278.22512 136.746987,279.155467 Z M140.89304,298.309893 C134.622347,299.666213 128.416987,295.66912 127.058053,289.398427 C125.700427,283.12904 129.698827,276.922373 135.968213,275.56344 C142.240213,274.20712 148.445573,278.202907 149.8032,284.474907 C151.162133,290.744293 147.16504,296.95096 140.89304,298.309893 L140.89304,298.309893 Z"></path><path id="Fill-52--globalStyle1/bgelements/presentation/7" fill="#FFFFFE" d="M165.31464,331.0824 L132.06128,331.0824 C130.166613,331.0824 128.63128,329.5536 128.63128,327.658933 L128.63128,326.783467 C128.63128,324.8888 130.166613,323.36 132.06128,323.36 L165.31464,323.36 C167.209307,323.36 168.745947,324.8888 168.745947,326.783467 L168.745947,327.658933 C168.745947,329.5536 167.209307,331.0824 165.31464,331.0824"></path><path id="Fill-53--globalStyle1/bgelements/presentation/7" fill="#FFFFFE" d="M193.211973,251.814773 L159.958613,251.814773 C158.065253,251.814773 156.528613,250.278133 156.528613,248.384773 L156.528613,247.521067 C156.528613,245.6264 158.065253,244.091067 159.958613,244.091067 L193.211973,244.091067 C195.107947,244.091067 196.641973,245.6264 196.641973,247.521067 L196.641973,248.384773 C196.641973,250.278133 195.107947,251.814773 193.211973,251.814773"></path><path id="Fill-54--globalStyle1/bgelements/presentation/7" fill="#FFFFFE" d="M276.421813,307.0528 L243.171067,307.0528 C241.2764,307.0528 239.73976,305.524 239.73976,303.629333 L239.73976,302.766933 C239.73976,300.864427 241.2764,299.327787 243.171067,299.327787 L276.421813,299.327787 C278.317787,299.327787 279.854427,300.864427 279.854427,302.766933 L279.854427,303.629333 C279.854427,305.524 278.317787,307.0528 276.421813,307.0528"></path><path id="Fill-55--globalStyle1/bgelements/presentation/7" fill="#FFFFFE" d="M312.4048,198.569413 L279.15144,198.569413 C277.25808,198.569413 275.72144,197.032773 275.72144,195.139413 L275.72144,194.275707 C275.72144,192.38104 277.25808,190.845707 279.15144,190.845707 L312.4048,190.845707 C314.299467,190.845707 315.836107,192.38104 315.836107,194.275707 L315.836107,195.139413 C315.836107,197.032773 314.299467,198.569413 312.4048,198.569413"></path><path id="Fill-56--globalStyle1/bgelements/presentation/7" fill="#FFFFFE" d="M370.66776,263.214133 L337.415707,263.214133 C335.52104,263.214133 333.9844,261.677493 333.9844,259.782827 L333.9844,258.917813 C333.9844,257.024453 335.52104,255.487813 337.415707,255.487813 L370.66776,255.487813 C372.562427,255.487813 374.099067,257.024453 374.099067,258.917813 L374.099067,259.782827 C374.099067,261.677493 372.562427,263.214133 370.66776,263.214133"></path><path id="Fill-57--globalStyle1/bgelements/presentation/7" fill="#F1B19E" d="M204.117413,77.9484 L75.2748533,77.9484 C71.4018933,77.9484 68.26328,74.8097867 68.26328,70.9381333 C68.26328,67.06648 71.4018933,63.9278667 75.2748533,63.9278667 L204.117413,63.9278667 C207.989067,63.9278667 211.12768,67.06648 211.12768,70.9381333 C211.12768,74.8097867 207.989067,77.9484 204.117413,77.9484"></path><path id="Fill-58--globalStyle1/bgelements/presentation/7" fill="#FFFFFE" d="M204.117413,115.673173 L75.2748533,115.673173 C71.4018933,115.673173 68.26328,112.53456 68.26328,108.662907 C68.26328,104.791253 71.4018933,101.65264 75.2748533,101.65264 L204.117413,101.65264 C207.989067,101.65264 211.12768,104.791253 211.12768,108.662907 C211.12768,112.53456 207.989067,115.673173 204.117413,115.673173"></path><path id="Fill-59--globalStyle1/bgelements/presentation/7" fill="#FFFFFE" d="M204.117413,153.397947 L75.2748533,153.397947 C71.4018933,153.397947 68.26328,150.259333 68.26328,146.38768 C68.26328,142.516027 71.4018933,139.377413 75.2748533,139.377413 L204.117413,139.377413 C207.989067,139.377413 211.12768,142.516027 211.12768,146.38768 C211.12768,150.259333 207.989067,153.397947 204.117413,153.397947"></path><path id="Fill-60--globalStyle1/bgelements/presentation/7" fill="#F1B19E" d="M257.122347,77.9484 L247.294907,77.9484 C243.423253,77.9484 240.285947,74.8097867 240.285947,70.9381333 C240.285947,67.06648 243.423253,63.9278667 247.294907,63.9278667 L257.122347,63.9278667 C260.992693,63.9278667 264.132613,67.06648 264.132613,70.9381333 C264.132613,74.8097867 260.992693,77.9484 257.122347,77.9484"></path><path id="Fill-61--globalStyle1/bgelements/presentation/7" fill="#FFFFFE" d="M257.122347,115.673173 L247.294907,115.673173 C243.423253,115.673173 240.285947,112.53456 240.285947,108.662907 C240.285947,104.791253 243.423253,101.65264 247.294907,101.65264 L257.122347,101.65264 C260.992693,101.65264 264.132613,104.791253 264.132613,108.662907 C264.132613,112.53456 260.992693,115.673173 257.122347,115.673173"></path><path id="Fill-62--globalStyle1/bgelements/presentation/7" fill="#FFFFFE" d="M257.122347,153.397947 L247.294907,153.397947 C243.423253,153.397947 240.285947,150.259333 240.285947,146.38768 C240.285947,142.516027 243.423253,139.377413 247.294907,139.377413 L257.122347,139.377413 C260.992693,139.377413 264.132613,142.516027 264.132613,146.38768 C264.132613,150.259333 260.992693,153.397947 257.122347,153.397947"></path></g></g></g></svg></g></g></svg>