<?xml version="1.0" encoding="UTF-8"?>
<svg id="illustration-builder" width="1000" height="880" viewBox="-10 -30 1070 940" version="1.1" xmlns="http://www.w3.org/2000/svg" xmlns:xlink="http://www.w3.org/1999/xlink" style="pointer-events: inherit;"><g transform="translate(0,0)">
<g><svg xmlns="http://www.w3.org/2000/svg" width="1000" height="880" viewBox="0 0 1000 880"><g id="Symbols--globalStyle1/education/bg3" fill="none" fill-rule="evenodd" stroke="none" stroke-width="1"><g id="globalStyle1/education/bg3--globalStyle1/education/bg3" fill="#DBF2FF"><path id="[color:background]background--globalStyle1/education/bg3" d="M159.781602,232.966557 C250.452253,220.279639 301.50753,284.539045 400.588932,163.141281 C475.635289,71.1920378 704.872699,56.4359734 839.119321,147.04137 C935.822923,212.308324 981.84182,334.121896 990.373314,409.703192 C1003.95675,530.04009 964.57606,636.805693 872.231251,730 L138.65904,730 C117.469899,732.129941 106.435485,732.129941 105.555801,730 C15.3403537,511.565285 -38.3270751,260.686537 159.781602,232.966557 Z" transform="matrix(-1 0 0 1 1017.533 0)" fill="#dbf2ff" opacity="1.00"></path></g></g></svg></g></g><g transform="translate(646,242)">
<g><svg xmlns="http://www.w3.org/2000/svg" width="246" height="252" viewBox="0 0 246 252"><g id="Symbols--globalStyle1/wallobjects2/picture1" fill="none" fill-rule="evenodd" stroke="none" stroke-width="1"><g id="globalStyle1/wallobjects2/picture1--globalStyle1/wallobjects2/picture1"><rect id="Rectangle--globalStyle1/wallobjects2/picture1" width="100" height="125" x="73" y="62" fill="#FFF" opacity=".704"></rect><path id="[color:objects]picture--globalStyle1/wallobjects2/picture1" fill="#c1c1c1" fill-rule="nonzero" d="M183,53.5 L183,198.5 L63,198.5 L63,53.5 L183,53.5 Z M178,57.75 L68,57.75 L68,193.75 L178,193.75 L178,57.75 Z M133.25,81.75 L133.250405,119.278437 C134.557255,119.094903 135.892545,119 137.25,119 C152.990115,119 165.75,131.759885 165.75,147.5 C165.75,163.240115 152.990115,176 137.25,176 C121.509885,176 108.75,163.240115 108.75,147.5 C108.75,145.442033 108.968126,143.435013 109.38252,141.500796 L84.25,141.5 L84.25,81.75 L133.25,81.75 Z" opacity="1.00"></path><circle id="Oval-Copy--globalStyle1/wallobjects2/picture1" cx="137.264" cy="147.504" r="28.5" fill="#FFF" opacity=".597"></circle><rect id="Rectangle--globalStyle1/wallobjects2/picture1" width="49" height="59.75" x="84.25" y="81.75" fill="#FFF" opacity=".346"></rect></g></g></svg></g></g><g transform="translate(480,357)">
<g transform="translate(336,0) scale(-1, 1)">
<g transform="translate(74.5,86)">

<g><svg xmlns="http://www.w3.org/2000/svg" width="120" height="150" viewBox="0 0 120 150"><g id="Symbols--globalStyle1/peoplechair/mansitting/head/1" fill="none" fill-rule="evenodd" stroke="none" stroke-width="1"><g id="globalStyle1/peoplechair/mansitting/head/1--globalStyle1/peoplechair/mansitting/head/1"><path id="[skin]neck--globalStyle1/peoplechair/mansitting/head/1" fill="#f0a19e" d="M73.5962896,31.8571569 C74.7871802,20.5940317 80.0362067,12.2615231 85.3203185,13.2459779 C90.6044303,14.2304327 93.9226418,24.159058 92.7317513,35.4221831 C91.9415604,42.895598 89.3646888,49.0787465 86.1764021,52.1059664 L88.2485,92.0485 L68.7515,92.0485 L73.7796309,42.1737448 C73.298852,39.0516383 73.2084581,35.5251647 73.5962896,31.8571569 Z" opacity="1.00"></path><polygon id="shadow--globalStyle1/peoplechair/mansitting/head/1" fill="#000" fill-opacity=".04" points="68.7515 92.0485 88.2485 92.0485 85.5739012 40.509 74.2565 37.4535"></polygon><path id="[hair]hair--globalStyle1/peoplechair/mansitting/head/1" fill="#2a4862" d="M80.9935363,7.69177273 C95.9863414,5.98062769 95.670895,5.48069524 95.7567405,6.97962248 C95.8905852,9.31665372 95.3836929,24.2441008 91.1232358,23.8521417 C88.4178228,23.6032456 81.5187993,19.718292 78.0049348,21.3428627 C77.266691,21.6841762 76.6877328,24.8960053 76.2680605,30.97835 L76.2910761,30.6426547 L78.5370248,39.1687717 L85.7988346,39.1687717 C88.8794649,37.7707387 90.8242658,38.0536568 91.6332373,40.017526 C92.8466944,42.9633298 87.6831727,58.4950302 80.0899892,54.410355 C75.0278669,51.6872381 72.6056863,45.5385085 72.8234475,35.9641661 L72.9215306,35.7665222 C68.3683495,18.1838598 71.059018,8.82561003 80.9935363,7.69177273 Z" transform="rotate(-2 83.275 30.59)" opacity="1.00"></path><path id="smile--globalStyle1/peoplechair/mansitting/head/1" fill="#FFF" fill-rule="nonzero" d="M89.2777577,44.8888747 C89.9340077,44.8888747 91.2777577,44.4523947 91.2777577,42.8888747 C91.2777577,42.8888747 87.2777577,42.8888747 87.2777577,42.8888747 C87.2777577,44.336656 88.6215077,44.8888747 89.2777577,44.8888747 Z" transform="rotate(-2 89.278 43.889)"></path></g></g></svg></g>
</g>
<g transform="translate(59,248)">

<g><svg xmlns="http://www.w3.org/2000/svg" width="251" height="180" viewBox="0 0 251 180"><g id="Symbols--globalStyle1/peoplechair/mansitting/bottom/1" fill="none" fill-rule="evenodd" stroke="none" stroke-width="1"><g id="globalStyle1/peoplechair/mansitting/bottom/1--globalStyle1/peoplechair/mansitting/bottom/1"><path id="[clothes]shoes--globalStyle1/peoplechair/mansitting/bottom/1" fill="#dcdbdb" d="M216.521486,178.790735 L216.521486,176.686761 C216.521486,176.686761 206.584974,176.678602 186.596707,176.695939 L186.596707,178.787675" opacity="1.00"></path><path id="Fill-6--globalStyle1/peoplechair/mansitting/bottom/1" fill="#E9E9E9" d="M205.915916,150.770389 L206.32896,176.718728 L236.253739,176.709549 C236.253739,176.709549 235.233878,174.649429 231.601131,174.581098 C226.15099,174.478092 213.167132,175.046155 213.684202,171.579645 C213.843301,170.51185 214.253285,164.903631 215.074273,151.740278"></path><path id="shadow--globalStyle1/peoplechair/mansitting/bottom/1" fill="#000" fill-opacity=".04" d="M205.915916,150.770389 L206.32896,176.718728 L236.253739,176.709549 C236.253739,176.709549 235.233878,174.649429 231.601131,174.581098 C226.15099,174.478092 213.167132,175.046155 213.684202,171.579645 C213.843301,170.51185 214.253285,164.903631 215.074273,151.740278"></path><path id="[clothes]shoes--globalStyle1/peoplechair/mansitting/bottom/1" fill="#dcdbdb" d="M236.253841,178.813626 L236.253841,176.709651 C236.253841,176.709651 226.31733,176.701492 206.329062,176.71883 L206.329062,178.810566" opacity="1.00"></path><path id="[clothes]pants--globalStyle1/peoplechair/mansitting/bottom/1" fill="#dcdbdb" d="M85.0808907,23.3799252 L205.999616,44.4069112 C205.999616,44.4069112 216.002739,46.0537877 219.114105,55.5243852 C220.049362,57.3666388 220.6591,59.3928076 220.870221,61.5322113 C220.948203,61.9567755 220.994845,62.3165167 221.017239,62.5944731 C223.14875,89.1047555 224.083963,162.141124 224.083963,162.141124 L193.283123,161.903496 L187.3115,77.7038528 L96.8924223,70.1284422 C96.8924223,70.1284422 76.7578384,67.9815919 73.9853208,46.5228786 C70.4393926,19.0702099 85.0808907,23.3799252 85.0808907,23.3799252 Z" opacity="1.00"></path><path id="Fill-1--globalStyle1/peoplechair/mansitting/bottom/1" fill="#E9E9E9" d="M186.184071,150.747499 L186.596095,176.695837 L216.521894,176.686659 C216.521894,176.686659 215.502032,174.626538 211.869285,174.558207 C206.419145,174.454182 193.435287,175.023264 193.952356,171.556755 C194.111455,170.48794 194.521439,164.880741 195.341408,151.717387"></path><path id="shadow--globalStyle1/peoplechair/mansitting/bottom/1" fill="#000" fill-opacity=".04" d="M85.0808907,23.3799252 L205.999616,44.4069112 C205.999616,44.4069112 217.425196,46.2879757 219.652537,57.5902666 C220.581705,59.7433338 220.940785,61.6455255 221.017239,62.5944731 C223.14875,89.1047555 224.083963,162.141124 224.083963,162.141124 L193.283123,161.903496 L187.3115,77.7038528 L96.8924223,70.1284422 C96.8924223,70.1284422 76.7578384,67.9815919 73.9853208,46.5228786 C70.4393926,19.0702099 85.0808907,23.3799252 85.0808907,23.3799252 Z"></path><path id="[clothes]pants--globalStyle1/peoplechair/mansitting/bottom/1" fill="#dcdbdb" d="M70.0905368,25.3733593 L191.009492,46.3993516 C191.009492,46.3993516 204.421785,48.6083277 205.01568,62.6150344 C205.132039,63.2092511 205.194674,63.7029239 205.218869,64.0607927 C207.016885,90.5955518 208.101351,163.020497 208.101351,163.020497 L173.990682,163.020497 L171.145667,79.5990293 L81.9020685,72.1218763 C81.9020685,72.1218763 60.3694268,70.1096617 58.994967,48.5163127 C57.1659672,19.779047 70.0905368,25.3733593 70.0905368,25.3733593 Z" opacity="1.00"></path></g></g></svg></g>
</g>
<g transform="translate(108,142)">

<g><svg xmlns="http://www.w3.org/2000/svg" width="193" height="178" viewBox="0 0 193 178"><g id="Symbols--globalStyle1/peoplechair/mansitting/top/6" fill="none" fill-rule="evenodd" stroke="none" stroke-width="1"><g id="globalStyle1/peoplechair/mansitting/top/6--globalStyle1/peoplechair/mansitting/top/6"><polygon id="Fill-18--globalStyle1/peoplechair/mansitting/top/6" fill="#757578" points="77.5 154.521173 77.5032884 156.487647 129.499779 159 129.499779 157.181504"></polygon><polygon id="Fill-20--globalStyle1/peoplechair/mansitting/top/6" fill="#B0B0B6" points="129.499779 157.181175 77.5 154.520844 117.469644 137.254449 156.971236 139.281211"></polygon><polygon id="Fill-22--globalStyle1/peoplechair/mansitting/top/6" fill="#8C8C92" points="130.370552 155.458811 104.057715 154.20373 133.428783 139.376247 154.267498 140.442791"></polygon><polyline id="Fill-24--globalStyle1/peoplechair/mansitting/top/6" fill="#8B8B8D" points="129.4966 157.181175 129.499888 158.999671 156.973538 140.859653 156.971346 139.281211"></polyline><polygon id="Fill-26--globalStyle1/peoplechair/mansitting/top/6" fill="#9D9DA3" points="109.775181 147.710965 99.3837746 147.196876 108.800712 143.10937 118.47305 143.588383"></polygon><path id="[skin]hand--globalStyle1/peoplechair/mansitting/top/6" fill="#f0a19e" d="M55.3353224,39.6596257 C55.3353224,39.6596257 68.3858484,39.5865277 75.5203027,40.7995475 C74.7303942,45.2363567 71.0360215,86.2741389 69.6656004,100.235327 C75.6446817,104.006947 87.2880875,112.054236 110.649314,127.678909 L109.922833,127.19278 L119.802765,130.91495 C123.567841,132.47371 126.197316,134.3298 127.668029,135.225471 L127.826672,135.320973 C130.449137,136.879427 135.836893,141.097946 136.277508,141.875512 C136.718281,142.652112 136.21399,143.039734 134.963632,142.115755 C134.337219,141.652587 134.105644,141.433961 133.714632,141.2009 C133.41894,141.024989 131.920377,139.97792 131.525447,139.757139 C129.796488,138.785847 128.431056,137.907702 128.562711,138.137819 C128.694207,138.368904 131.179429,139.621097 132.957894,140.922898 C133.379587,141.229989 134.317921,142.315357 134.548473,142.598218 C135.531097,143.802291 136.177695,144.809435 136.48795,145.621584 C136.606893,145.934957 136.385067,146.196303 135.99234,146.205689 C135.907322,146.207569 135.817549,146.197825 135.729838,146.175518 C135.116923,146.024484 134.310967,144.544246 133.444227,143.683789 C133.155314,143.39697 132.54103,142.7613 132.204963,142.49502 C130.047186,140.778673 126.651961,139.080444 127.172772,139.502724 C127.693584,139.925003 129.662524,141.382689 130.801355,142.156893 C131.715784,142.778949 132.134605,143.028144 133.489975,144.941963 C134.302794,146.090391 135.486542,148.336623 135.442907,148.567717 C135.399589,148.796877 134.999056,148.703035 134.96135,148.683409 C134.250296,148.324215 133.800973,148.034699 133.615711,147.812247 C132.264736,146.202238 131.726095,144.589448 129.730389,143.405058 C127.735929,142.218876 125.384787,140.532446 125.563612,140.817317 C125.678104,141.001226 127.040842,142.174174 128.148544,143.109064 C129.784552,144.490163 131.510892,146.295181 131.989291,146.952703 C132.317372,147.401034 132.605438,147.826414 132.854892,148.226086 C132.965533,148.404454 132.883402,148.580138 132.671421,148.619101 C132.593785,148.633995 132.506321,148.627576 132.419856,148.603478 C131.818017,148.43135 131.394144,148.207141 131.146991,147.932641 C130.34464,147.039418 130.193962,146.803423 128.872093,145.752621 C128.642395,145.568955 126.701077,144.215542 126.323977,143.909315 C123.663734,141.751695 120.534552,140.288252 120.33219,140.401991 C118.6047,141.36467 120.42426,141.85348 121.334791,143.798448 C123.27018,144.445614 124.519459,145.248568 125.758233,146.643318 C125.816976,146.708753 125.723035,147.01439 125.205693,146.855162 L125.205693,146.855162 L118.748545,144.675586 L114.407529,140.064095 L107.474563,134.500774 L107.490217,134.449998 C107.489214,134.449714 107.48821,134.449431 107.487207,134.449147 L107.444284,134.540734 C70.4761357,120.829754 52.2520745,114.819553 52.771658,107.090902 C52.7721553,106.981688 52.7738752,106.873314 52.7767976,106.765784 C50.6879579,94.1944119 54.7272159,51.4151432 55.3353224,39.6596257 Z" opacity="1.00"></path><path id="[clothes]tshirt--globalStyle1/peoplechair/mansitting/top/6" fill="#294b67" d="M60.9733946,28.5840669 L60.9733946,28.5840669 C68.8176735,27.4673233 76.1131027,33.3029182 77.2115714,41.5744927 L80.1773332,63.8918218 L52.1329787,67.8863207 L48.9759957,45.4232198 C47.8240341,37.2265872 53.1920417,29.6929884 60.9733946,28.5840669" opacity="1.00"></path><path id="shadow--globalStyle1/peoplechair/mansitting/top/6" fill="#000" fill-opacity=".04" d="M60.9733946,28.5840669 L60.9733946,28.5840669 C68.8176735,27.4673233 76.1131027,33.3029182 77.2115714,41.5744927 L80.1773332,63.8918218 L52.1329787,67.8863207 L48.9759957,45.4232198 C47.8240341,37.2265872 53.1920417,29.6929884 60.9733946,28.5840669"></path><path id="[clothes]tshirt--globalStyle1/peoplechair/mansitting/top/6" fill="#294b67" d="M53.3637103,28.1431761 C53.3637103,28.1431761 42.3370137,19 37.3210908,19 C10.0282601,19 2.28974629,39.7330122 3.05006595,69.3287657 C3.14318591,72.9403361 3.54446574,87.7172964 4.70606522,114.607858 C5.01710508,121.810083 5.35790493,144.575184 5.70734478,151.741551 C7.01774419,178.572352 76.4170734,167.046403 75.050994,140.162813 C74.7687541,134.607011 75.8141937,103.692469 77.1533931,69.9532706 C77.5066729,61.0448631 78.0922727,42.2200754 75.3159539,34.7011165 C71.5882756,24.6034606 59.4135059,21.3880007 53.9885483,20.5921803 C53.5719896,25.6261775 53.3637103,28.1431761 53.3637103,28.1431761 Z" opacity="1.00"></path><path id="[skin]hand--globalStyle1/peoplechair/mansitting/top/6" fill="#f0a19e" d="M19.2531129,40.3889402 C26.1364098,39.9087198 32.0661615,45.5501561 32.3672113,52.8546507 C33.0243739,68.8177421 34.4902357,94.9983047 34.8839342,104.899612 C38.7616741,108.736493 49.4420538,121.704714 72.6271477,148.771174 L72.3807605,148.483412 L72.43388,148.492896 C74.3426641,148.882784 75.6126402,150.610263 75.2932738,152.439175 C74.9632618,154.329051 73.0615308,155.609467 71.0462052,155.300148 C70.631565,155.236508 70.2443665,155.110546 69.8937438,154.934143 L69.8614202,155.008412 C44.4505655,139.069115 28.5934359,127.434982 21.7795439,119.283507 C21.4892776,119.019226 21.2110429,118.730181 20.9472002,118.417422 C20.3932914,117.760817 19.9381322,117.041588 19.5810172,116.282087 C19.3550659,115.914897 19.1522524,115.557191 18.972222,115.207973 C18.3622233,114.48118 17.930447,113.729416 17.7433934,113.025577 C15.8459344,105.888384 9.82083007,74.3263138 7.6426725,54.8394225 C6.81959097,47.4726749 11.9387959,40.9116631 18.9188357,40.412433 L18.9188357,40.412433 Z" opacity="1.00"></path><path id="[skin]hand--globalStyle1/peoplechair/mansitting/top/6" fill="#f0a19e" d="M69.8614202,154.993658 L73.2674342,148.771174 L77.1399465,149.158905 L86.955879,148.938581 L93.3803547,151.737026 C93.8856752,151.973792 93.7552346,152.262077 93.6653511,152.270846 C91.7821828,152.449517 90.287048,152.18754 88.3655149,151.344608 C86.368348,152.150271 84.6419278,151.270071 85.3313997,153.152143 C85.4125141,153.373563 88.797394,154.431338 92.2820226,154.659335 C92.7774778,154.693315 95.1736395,155.021061 95.4717896,155.04408 C97.1905369,155.172329 97.4623796,155.103272 98.6758064,154.993658 C99.0484939,154.960774 99.5231225,155.085734 100.10298,155.369634 C100.185191,155.410191 100.25644,155.466094 100.306863,155.528574 C100.444976,155.701764 100.390169,155.887012 100.186287,155.941819 C99.7281007,156.065683 99.2238763,156.179681 98.672518,156.287103 C97.8668552,156.442755 95.3347721,156.590734 93.1567422,156.489889 C91.6802418,156.421928 89.8496882,156.353967 89.6381332,156.40987 C89.3114836,156.497562 92.24585,156.862576 94.5707626,157.350358 C96.8967714,157.840333 98.3853293,157.024805 100.497591,156.762828 C100.788068,156.726655 101.327369,156.819827 102.114397,157.040151 C102.15605,157.052208 102.527642,157.25609 102.408163,157.454492 C102.287587,157.652893 99.8815602,158.493632 98.4905588,158.783013 C96.172223,159.265315 95.6844407,159.162278 94.5663781,158.994568 C93.1731843,158.787398 90.6860429,158.515555 90.004244,158.470613 C89.322445,158.426768 93.0679549,159.492216 95.8718806,159.703771 C96.3081443,159.736655 97.2047867,159.689521 97.6180314,159.676367 C98.8577656,159.633618 100.464707,159.096509 101.036892,159.403428 C101.119102,159.44837 101.194736,159.500985 101.259408,159.561273 C101.556462,159.835308 101.553174,160.179495 101.252831,160.326378 C100.473476,160.711123 99.3049907,161.009273 97.7473759,161.224117 C97.3801691,161.274539 95.9354567,161.430191 95.4060212,161.369903 C93.1698959,161.112311 90.4218732,160.338436 90.1675688,160.418454 C89.9121682,160.498472 91.548705,160.783469 93.5272375,161.249328 C93.9777509,161.355654 95.8291312,161.607766 96.1744152,161.681207 C96.6304094,161.776571 96.9548668,161.774379 97.7451837,161.860974 C99.3236251,162.033068 99.4540657,162.661156 98.5979805,162.931903 C97.7407991,163.201553 90.7835994,162.62608 87.7253692,161.983742 C86.0515636,161.631881 82.6951834,161.225213 78.6109662,159.752001 L69.8614202,154.993658 Z" opacity="1.00"></path><path id="[clothes]tshirt--globalStyle1/peoplechair/mansitting/top/6" fill="#294b67" d="M19.9819621,31.8695652 L19.9819621,31.8695652 C27.9053217,31.8554245 34.3175945,38.6495553 34.2541922,46.9935086 L34.0851196,69.5064013 L5.75776398,69.5590062 L5.75776398,46.8751475 C5.75776398,38.5979619 12.1220047,31.8847618 19.9819621,31.8695652" opacity="1.00"></path><path id="shadow--globalStyle1/peoplechair/mansitting/top/6" fill="#000" fill-opacity=".04" d="M19.9819621,31.8695652 L19.9819621,31.8695652 C27.9053217,31.8554245 34.3175945,38.6495553 34.2541922,46.9935086 L34.0851196,69.5064013 L5.75776398,69.5590062 L5.75776398,46.8751475 C5.75776398,38.5979619 12.1220047,31.8847618 19.9819621,31.8695652"></path><polygon id="Fill-35--globalStyle1/peoplechair/mansitting/top/6" fill="#818182" points="128.521884 157.412819 155.993342 139.512855 176.790403 99.0488519 149.008738 116.879759"></polygon><path id="Fill-38--globalStyle1/peoplechair/mansitting/top/6" fill="#BEBEBF" d="M155.59621,129.987948 C154.568031,132.136382 153.383104,133.529575 152.490846,133.103177 C151.599684,132.675682 151.710394,130.588632 152.738574,128.440198 C153.767849,126.29286 155.324368,124.896378 156.215529,125.323872 C157.107787,125.751367 156.624389,127.839513 155.59621,129.987948"></path></g></g></svg></g>
</g>
<g transform="translate(26,150)">

<g><svg xmlns="http://www.w3.org/2000/svg" width="198" height="277" viewBox="0 0 198 277"><g id="Symbols--globalStyle1/peoplechair/mansitting/chair/4" fill="none" fill-rule="evenodd" stroke="none" stroke-width="1"><g id="globalStyle1/peoplechair/mansitting/chair/4--globalStyle1/peoplechair/mansitting/chair/4" fill-rule="nonzero"><path id="Stroke-1--globalStyle1/peoplechair/mansitting/chair/4" fill="#1E3142" d="M132.980359,216.521908 L79.443203,276.948908 L95.2491933,171.419463 L132.943251,212.438009 L169.265974,171.440816 L188.556797,277 L132.980359,216.521908 Z M97.1072423,177.484904 L83.5162325,268.225927 L131.119291,214.4967 L97.1072423,177.484904 Z M184.162696,268.174835 L167.58531,177.463551 L134.80432,214.463217 L184.162696,268.174835 Z"></path><polygon id="[chair]chair--globalStyle1/peoplechair/mansitting/chair/4" fill="#7d9d79" points="180.215625 170.08192 81.9001302 170.08192 81.9001302 179.69392 180.215625 179.69392" opacity="1.00"></polygon></g></g></svg></g>
</g>
</g></g><g transform="translate(444,603)">
<g><svg xmlns="http://www.w3.org/2000/svg" width="440" height="187" viewBox="0 0 440 187"><g id="Symbols--globalStyle1/objects/table/dinner/1" fill="none" fill-rule="evenodd" stroke="none" stroke-width="1"><g id="globalStyle1/objects/table/dinner/1--globalStyle1/objects/table/dinner/1"><polygon id="Fill-1--globalStyle1/objects/table/dinner/1" fill="#587267" points="-4.54747351e-13 1.11279345 0.353 187.0127 8.353 186.999816 8 1.0999093"></polygon><polygon id="Fill-2--globalStyle1/objects/table/dinner/1" fill="#587267" points="439.0011 1.0999093 431.0011 1.11279352 431.3531 187.0127 439.3531 187.000736"></polygon><polygon id="[color:table]table--globalStyle1/objects/table/dinner/1" fill="#d1d4dd" points="439.002 0.0127 0.002 0.739612278 0.025 13.0592116 439.025 12.3341948" opacity="1.00"></polygon></g></g></svg></g></g><g transform="translate(452,484.4000000000001)">
<g><svg xmlns="http://www.w3.org/2000/svg" width="88" height="120" viewBox="0 0 88 120"><g id="Symbols--globalStyle1/animalsandobjects/plant" fill="none" fill-rule="evenodd" stroke="none" stroke-width="1"><g id="globalStyle1/animalsandobjects/plant--globalStyle1/animalsandobjects/plant"><g id="Group--globalStyle1/animalsandobjects/plant" transform="translate(26 30)"><path id="[color]color--globalStyle1/animalsandobjects/plant" fill="#587267" fill-rule="nonzero" d="M14.3750562,36.2939852 C14.3750562,36.2939852 9.44832457,35.0541357 7.6164758,28.92033 C5.78484103,22.7863031 5.65858042,16.0652933 2.94269341,16.5220567 C0.226592405,16.97882 0.668718523,28.9855503 2.37409269,34.4014903 C4.07946686,39.8176514 7.6164758,45.2338125 13.1749384,45.4946938 C18.733187,45.7557962 14.3750562,36.2939852 14.3750562,36.2939852" opacity="1.00"></path><path id="shadow--globalStyle1/animalsandobjects/plant" fill="#000" fill-opacity=".2" d="M3.19316498,19.2146717 C3.34129623,19.7821638 3.47629232,20.4536305 3.59463129,21.2371322 C3.63814229,21.5253458 3.81291113,22.7703155 3.82389785,22.846927 C3.93362669,23.6120769 4.03401403,24.2579228 4.14924934,24.9179595 C4.45870394,26.690432 4.83383661,28.3033709 5.32417908,29.8332648 C6.66627854,34.0206849 8.72181884,37.0966406 11.7562009,38.7235292 C14.6831877,40.2929687 17.2488892,40.4908057 19.2962202,39.872666 C19.6930795,39.7528444 19.9740529,39.6299402 20.1309851,39.5414346 L19.6987095,38.8265559 C19.6786494,38.8378692 19.6277269,38.8634201 19.547084,38.8986951 C19.4053774,38.9606808 19.2361253,39.0234481 19.0404382,39.0825308 C17.2108187,39.6349381 14.8878425,39.4558173 12.1722876,37.9997467 C9.3667215,36.4955381 7.42604205,33.5914627 6.14305575,29.5884788 C5.66520968,28.0975743 5.29811451,26.5191938 4.99452571,24.7803191 C4.88087542,24.1293609 4.78166854,23.4911096 4.67300051,22.7333568 C4.66255392,22.6605117 4.4871135,21.4107579 4.44286654,21.1176695 C4.3204669,20.3072826 4.17994187,19.6083152 4.02436841,19.012312 C3.81398442,18.2063292 3.58477577,17.6183182 3.34866072,17.2118097 C3.18871257,16.9364343 3.04520921,16.7758566 2.93027437,16.6991977 L2.63161707,16.5 L2.37897646,16.7516757 C2.19377442,16.9361703 1.95039836,17.3272958 1.71989452,17.9793654 C1.0738791,19.8068707 0.905381948,22.6615403 1.48730332,26.7779735 C1.78872532,28.9102887 2.7482401,32.1225752 3.99165768,34.8652569 C5.5868725,38.3839191 7.50835775,40.9397683 9.67039786,42.0085733 C12.7045367,43.508479 15.3938553,43.759147 17.5438353,43.2794723 C17.9021618,43.1995273 18.1565554,43.1175469 18.2986549,43.0586717 L17.9606878,42.2978817 C17.9415816,42.3057978 17.8940413,42.3233463 17.8191611,42.347477 C17.6879155,42.389772 17.5314637,42.43258 17.3508861,42.4728681 C15.3905387,42.9102345 12.9074545,42.6787894 10.0609865,41.2716575 C6.46710659,39.4950221 3.10036826,32.0688028 2.33663245,26.6659938 C1.77149283,22.6682725 1.93251487,19.9402456 2.53113117,18.2468272 C2.588396,18.0848314 2.64712299,17.9410251 2.70616271,17.8143923 C2.86898875,18.1464641 3.03445398,18.6066486 3.19316498,19.2146717 Z"></path><path id="[color]color--globalStyle1/animalsandobjects/plant" fill="#587267" fill-rule="nonzero" d="M24.1813275,24.8445266 C24.1813275,24.8445266 27.8063377,23.934905 29.1399138,19.4942035 C30.473702,15.0530715 30.550076,10.1919982 32.5512888,10.5152949 C34.5525015,10.8385916 34.2567641,19.5230462 33.0144126,23.4445789 C31.771849,27.3661115 29.1804344,31.2923796 25.0878452,31.49557 C20.995256,31.6987605 24.1813275,24.8445266 24.1813275,24.8445266" opacity="1.00"></path><path id="shadow--globalStyle1/animalsandobjects/plant" fill="#000" fill-opacity=".2" d="M32.9579372,11.8026227 C33.4019155,13.055427 33.5260655,15.0695781 33.1203524,18.0174633 C32.5699348,22.0153165 30.101032,27.5155326 27.4491045,28.8383063 C25.3444558,29.887973 23.5068993,30.0639012 22.0565854,29.7433345 C21.8326359,29.6938343 21.6822233,29.6458172 21.6117157,29.6168804 L21.3638967,30.1804937 C21.4677469,30.2231145 21.6535631,30.2824337 21.9152267,30.3402699 C23.5060639,30.6918969 25.4963761,30.5013438 27.7398655,29.3824321 C30.6317446,27.9399712 33.1731542,22.2782246 33.7486542,18.0981899 C34.1663944,15.0629169 34.0365036,12.9556305 33.5575972,11.604267 C33.3844111,11.1155756 33.2015967,10.8230317 33.0625698,10.6854714 L32.8751209,10.5 L32.6548529,10.6480206 C32.5714602,10.7040607 32.467554,10.8205609 32.3518947,11.0195114 C32.1814199,11.3127521 32.0160149,11.735966 31.864252,12.315157 C31.7460861,12.7661278 31.640017,13.2985751 31.5486129,13.9194584 C31.5167084,14.1361947 31.3906199,15.0589503 31.3825029,15.1170503 C31.3040518,15.6785932 31.2322143,16.1519195 31.1496901,16.6346116 C30.929287,17.9237699 30.661213,19.0941395 30.3106582,20.1996115 C29.372736,23.1573428 27.9467433,25.3058294 25.8795126,26.4238854 C23.872677,27.509212 22.153991,27.6460822 20.7999333,27.2401046 C20.5563923,27.1670854 20.3934367,27.0963225 20.317739,27.0539529 L20,27.5838116 C20.1151509,27.648264 20.3211856,27.7377339 20.6120696,27.8249476 C22.1274605,28.2792966 24.0259186,28.12811 26.1891207,26.9582181 C28.4250191,25.7489386 29.9355015,23.4731546 30.9166888,20.3789873 C31.2764286,19.2445503 31.5503818,18.0485135 31.7750505,16.7344052 C31.8587277,16.2449691 31.9314218,15.7659986 32.0106408,15.1989595 C32.0191452,15.1380857 32.1447555,14.2188305 32.1761318,14.005682 C32.2644826,13.4055388 32.366319,12.8943393 32.4787032,12.465434 C32.5914615,12.0351006 32.7089121,11.7079051 32.8245322,11.4702947 C32.8668547,11.5624652 32.9118989,11.6727131 32.9579372,11.8026227 Z"></path><path id="[color]color--globalStyle1/animalsandobjects/plant" fill="#587267" fill-rule="nonzero" d="M27.9973297,69.306763 C24.1319058,69.335838 12.5376365,69.5111556 12.5365239,69.5 C11.0167009,53.5605095 13.1284315,28.5603948 13.9110403,13.6918141 C14.2450453,7.3456645 16.547477,4.50543275 19.7898403,4.5 C23.0324262,4.49436692 25.0680544,7.35607941 25.7015736,13.6716352 C27.2116057,28.7279012 27.9973297,69.2850653 27.9973297,69.2850653 C27.9973297,69.2969991 28.0033378,69.306763 27.9973297,69.306763" opacity="1.00"></path><path id="shadow--globalStyle1/animalsandobjects/plant" fill="#000" fill-opacity=".3" d="M22.1156614,13.8456425 C22.2157499,15.6427994 22.3366749,17.6187442 22.5139508,20.3926258 C22.5156193,20.4187337 22.878942,26.0591466 22.9864915,27.7648198 C23.3648839,33.7659037 23.6246301,38.4099976 23.8191942,42.9469272 C24.2905622,53.938486 24.284351,62.6564205 23.6708188,69.4085389 L24.5134883,69.4827671 C25.131047,62.6863363 25.1372807,53.9368405 24.6644763,42.911786 C24.469634,38.3683706 24.2096098,33.7193057 23.830901,27.7132043 C23.7233099,26.0068713 23.3599533,20.365932 23.3583161,20.3403131 C23.1811712,17.5684816 23.060365,15.5944783 22.9604277,13.8000365 C22.7097217,9.29785611 21.7473018,6.42123958 19.8847226,4.75529359 L19.5992964,4.5 L19.3147671,4.7562622 C17.3133251,6.5588667 16.1081351,9.59607676 15.8883836,13.8123092 C15.7958587,15.5873382 15.6832354,17.5432671 15.5192174,20.2631562 C15.5003578,20.5759037 15.1768382,25.8910798 15.0792054,27.5290757 C14.714968,33.6399274 14.4689501,38.3243246 14.2881992,42.9164536 C13.8539293,53.9494519 13.8909291,62.7028965 14.5327919,69.5 L15.3751938,69.4228826 C14.7375151,62.6700878 14.7006487,53.948204 15.1335998,42.948712 C15.3140934,38.3631201 15.5598505,33.6836902 15.9237875,27.5778779 C16.0213834,25.9404998 16.3448779,20.625736 16.3637653,20.312528 C16.5279062,17.5905992 16.6406416,15.6327251 16.7333069,13.8550028 C16.9313003,10.0562296 17.9481716,7.31677852 19.5992769,5.64466162 C21.0811972,7.17783283 21.8899555,9.79241404 22.1156614,13.8456425 Z"></path><polygon id="shadow--globalStyle1/animalsandobjects/plant" fill="#000" fill-opacity=".3" points="19 5.50146801 19.1056536 62.5 20 62.498532 19.8943464 5.5"></polygon><g id="Group-17--globalStyle1/animalsandobjects/plant" fill="#E5E7ED" transform="translate(4 58.5)"><polygon id="Fill-15--globalStyle1/animalsandobjects/plant" points="27.7430536 30.6510664 3.86281587 30.6924907 0.103541886 0.21972006 31.6816592 0.164773948"></polygon></g><polygon id="Fill-18--globalStyle1/animalsandobjects/plant" fill="#D1D4DD" points="36 67.4415897 4.01486369 67.5 4 58.5584103 35.9853549 58.5"></polygon><path id="Fill-20--globalStyle1/animalsandobjects/plant" fill="#FF90D4" d="M22.4540749,2.83055596 C22.495618,2.70050184 22.5186976,2.56190251 22.5184877,2.41809267 C22.5172289,1.6731994 21.908139,1.07044861 21.1584738,1.07190755 C20.963137,1.07211597 20.7780811,1.11421682 20.61023,1.18820594 C20.3773365,0.77699317 19.9337898,0.498960819 19.4247812,0.5 C18.8872379,0.5008366 18.4243884,0.81284142 18.2053426,1.26344557 C18.0022427,1.14381246 17.7657824,1.07420017 17.5123272,1.07461701 C16.762662,1.07586753 16.1558801,1.68070252 16.1571389,2.42559579 C16.1573488,2.60838018 16.1946956,2.78241092 16.2614165,2.941227 C15.8101067,3.16090174 15.4991624,3.6208848 15.5,4.15360646 C15.5014704,4.89808289 16.109721,5.50062526 16.8589666,5.49979158 L16.8589666,5.5 L16.8600156,5.5 L16.8602255,5.5 L22.1448091,5.49082952 C22.8946841,5.48937058 23.501466,4.88453558 23.5,4.13985073 C23.4989483,3.50250221 23.0524642,2.97040581 22.4540749,2.83055596"></path><path id="Fill-22--globalStyle1/animalsandobjects/plant" fill="#E27FC1" d="M21.3757344,5.49273211 C21.4551362,5.25218846 21.5004183,4.99359231 21.5,4.72233597 C21.4978909,3.49289064 20.600883,2.49789332 19.4966302,2.5 C18.3919562,2.50211338 17.4981075,3.50062743 17.5,4.73007276 C17.5004242,5.0013291 17.5465489,5.25992524 17.626793,5.5 L21.3757344,5.49273211 Z"></path><g id="Group-26--globalStyle1/animalsandobjects/plant" fill="#FF90D4" transform="translate(0 13.5)"><path id="Fill-24--globalStyle1/animalsandobjects/plant" d="M4.85631588,2.35824627 C4.88128098,2.28210772 4.89486199,2.2012957 4.89466227,2.11717332 C4.89386339,1.68156734 4.53117047,1.32911012 4.08459483,1.32988903 C3.96815763,1.33008375 3.85791176,1.35481418 3.75805138,1.39804374 C3.61924544,1.15755497 3.35501487,0.995152026 3.05183874,0.995540783 C2.73148663,0.996125665 2.45587197,1.17858557 2.32545431,1.44205221 C2.20442352,1.37214495 2.06362038,1.33125212 1.91263148,1.33164158 C1.46585612,1.33222576 1.10456125,1.68585135 1.10536014,2.12145733 C1.10555986,2.22836286 1.12772886,2.33001074 1.16727357,2.42289588 C0.898649142,2.55141619 0.713308269,2.82033522 0.713905983,3.13189961 C0.714706314,3.56711613 1.07699979,3.91937863 1.5233757,3.9189895 L1.52397487,3.9189895 L4.67217333,3.91373153 C5.11874897,3.91295261 5.48024356,3.5591323 5.479446,3.12372105 C5.47884551,2.75101214 5.21281745,2.44003192 4.85631588,2.35824627"></path></g><path id="Fill-27--globalStyle1/animalsandobjects/plant" fill="#E27FC1" d="M4.62051896,17.4530385 C4.68008477,17.2926991 4.71415844,17.1201219 4.71390743,16.9393029 C4.71239165,16.1196236 4.03975228,15.4562878 3.21138365,15.4577838 C2.38301501,15.4592848 1.71264722,16.1248684 1.71390743,16.9445477 C1.71441401,17.1253666 1.74899246,17.2976941 1.80906307,17.4577838 L4.62051896,17.4530385 Z"></path></g></g></g></svg></g></g><g transform="translate(796,483)">
<g><svg xmlns="http://www.w3.org/2000/svg" width="88" height="120" viewBox="0 0 88 120"><g id="Symbols--globalStyle1/animalsandobjects/lamp" fill="none" fill-rule="evenodd" stroke="none" stroke-width="1"><g id="globalStyle1/animalsandobjects/lamp--globalStyle1/animalsandobjects/lamp"><path id="[color]color--globalStyle1/animalsandobjects/lamp" fill="#c996b9" fill-rule="nonzero" d="M5.60775111,43.1440346 L5.67226335,43.2829514 L32.4777628,106.572596 L32.528,106.707 L34.2036316,106.707127 L34.2036316,111.034343 L35.8528319,112.996344 L35.8528319,115.053517 L40.7166495,115.053517 L40.7166495,120 L20.7327929,120 L20.7327929,115.053517 L25.8822633,115.053517 L25.8822633,112.996344 L27.4956167,110.905359 L27.4956167,106.707127 L28.762,106.707 L2.69075161,45.1518067 C2.26653782,44.1502085 2.59007873,42.9198952 3.41340046,42.4038251 C4.1975164,41.9123297 5.15215899,42.2459304 5.60775111,43.1440346 Z M2.44659006,35.506264 C3.79780444,35.506264 4.89318012,36.8388248 4.89318012,38.482622 C4.89318012,40.1264191 3.79780444,41.45898 2.44659006,41.45898 C1.09537568,41.45898 -9.09494702e-13,40.1264191 -9.09494702e-13,38.482622 C-9.09494702e-13,36.8388248 1.09537568,35.506264 2.44659006,35.506264 Z M59.3966534,0.359950788 C61.0722065,-0.945241186 63.1209103,1.29906474 65.5427649,7.09286858 C70.863318,6.42470963 75.2748654,6.93101501 78.777407,8.61178471 C82.2799487,10.2925544 85.3541463,13.6546657 88,18.6981186 L88,18.6981186 L59.8850839,36.0307091 C57.3238383,31.7070157 56.2264443,27.0484423 56.5929018,22.0549889 C56.9593593,17.0615354 58.5034507,12.9145468 61.225176,9.61402313 C60.7062056,8.74191713 60.2606893,7.92701367 59.8886268,7.16931274 L7.28619146,37.3641143 C6.44856643,37.8449148 5.44914655,37.408619 5.05392469,36.3896204 C4.67950399,35.4242532 4.9816783,34.2822309 5.7267305,33.755882 L5.85496651,33.6739938 L58.555465,3.42298152 C58.3206243,2.00072881 58.6010205,0.979718563 59.3966534,0.359950788 Z" transform="matrix(-1 0 0 1 88 0)" opacity="1.00"></path><path id="shadow--globalStyle1/animalsandobjects/lamp" fill="#000" fill-opacity=".3" d="M29.00583,42.3796653 C29.8291517,41.8635951 30.8404791,42.2571934 31.2646929,43.2587916 L31.2646929,43.2587916 L58.0701923,106.548437 C58.085501,106.584581 58.1062862,106.639419 58.1325477,106.71295 L58.1325477,106.71295 L54.3707165,106.722129 L28.2831811,45.1276469 C27.8589673,44.1260487 28.1825082,42.8957354 29.00583,42.3796653 Z M84.1716289,3.41458676 C84.3923143,4.37258614 84.5818336,5.0764216 84.7401867,5.52609314 C84.8985397,5.97576469 85.149486,6.52270897 85.4930255,7.16692599 L85.4930255,7.16692599 L32.8876539,37.3638 C32.0500289,37.8446005 31.050609,37.4083047 30.6553871,36.3893061 C30.2601653,35.3703074 30.6188039,34.15448 31.4564289,33.6736795 L31.4564289,33.6736795 Z" transform="matrix(-1 0 0 1 113.59 0)"></path></g></g></svg></g></g><g transform="translate(91,317)">
<g><svg xmlns="http://www.w3.org/2000/svg" width="215" height="416" viewBox="0 0 215 416"><g id="Symbols--globalStyle1/objects/lamp/3" fill="none" fill-rule="evenodd" stroke="none" stroke-width="1"><g id="globalStyle1/objects/lamp/3--globalStyle1/objects/lamp/3"><path id="[color]color--globalStyle1/objects/lamp/3" fill="#7d9d79" fill-rule="nonzero" d="M120.744339,147.501155 C126.139289,153.980308 129.704548,159.903383 131.440116,165.270381 C133.175683,170.637379 134.519776,176.120995 135.472395,181.72123 L125.193765,193.297388 L134.326757,187.727631 C132.402329,199.082119 131.440116,207.162584 131.440116,211.969026 C131.440116,216.775468 131.24783,221.066959 130.86326,224.843498 L122.970675,222.534648 L129.949873,228.834671 C129.468196,232.285171 128.854361,235.427006 128.108367,238.260177 C127.362373,241.093348 126.720319,242.840232 126.182207,243.500828 L120.147532,241.078017 L125.193765,247.797088 C121.21337,257.024994 116.528512,260.982269 111.139192,259.668912 L110.964,259.622155 L110.962379,320.275201 C111.132467,318.078392 111.318614,315.886293 111.52082,313.698903 L111.765149,311.13754 C112.928572,299.307353 116.257676,285.845174 121.748355,270.745095 C124.712623,255.083488 128.378108,241.4874 132.744933,229.955379 C137.618791,217.084373 148.043969,201.90496 164.020468,184.41714 C164.282474,189.820041 164.043378,194.915203 163.303181,199.702624 C162.562985,204.490046 161.000331,211.801864 158.615219,221.63808 C157.704042,220.564661 156.660325,219.63983 155.484067,218.863588 C154.30781,218.087347 152.650286,217.366244 150.511496,216.70028 C155.002801,221.847895 157.248453,224.842584 157.248453,225.684348 C157.248453,226.946994 154.120531,232.401991 152.126428,235.851577 C151.249276,237.368958 149.610358,240.582568 147.209674,245.492407 C151.886881,241.426561 157.035705,238.48791 163.784748,234.812026 C173.256057,229.653451 190.341145,229.048875 215.04001,232.998296 C213.658924,235.725827 211.550934,238.741741 208.716041,242.04604 C205.881148,245.350339 201.073452,248.949174 194.292954,252.842544 L194.292954,252.842544 L188.379209,248.231289 L190.517966,254.395912 C184.591479,256.358518 179.964965,258.29471 176.638425,260.204488 C173.311885,262.114266 168.040513,266.380328 160.824308,273.002676 L160.824308,273.002676 L154.490083,265.610338 L157.317829,274.891467 C155.000687,276.865652 151.758678,279.327594 147.591801,282.277292 C143.608747,285.096864 136.023655,288.109186 124.836524,291.314257 C123.099544,295.508468 121.292965,300.15087 119.416117,305.241552 C115.862941,314.879036 113.160916,332.581104 111.328765,358.302317 L111.328765,358.302317 L111.135793,361.088844 L110.949483,363.93673 C110.882299,368.842235 110.630002,373.36357 110.192346,377.501155 L110.192346,377.501155 L108.544328,377.328959 C108.772349,372.632226 109.022537,368.138007 109.294965,363.84612 C109.383116,357.254883 109.133668,349.95021 108.546007,341.933156 L108.546007,341.933156 L108.496952,341.294221 C107.478572,328.59253 103.295885,307.868517 95.9499127,279.155732 L95.9499127,279.155732 L94.8048051,274.713856 L93.1670283,269.642759 C88.1683356,268.718722 83.4051794,267.565381 78.8775597,266.182736 C73.9785032,264.686661 68.3558369,260.771824 62.0095608,254.438226 L62.0095608,254.438226 L64.035543,241.516991 L57.1868119,251.960284 C50.5296147,245.77752 45.535477,241.089387 42.204399,237.895884 C38.873321,234.702382 34.0673081,233.376989 27.7863603,233.919704 L27.7863603,233.919704 L31.1158887,224.615246 L24.086781,232.051234 C20.697437,230.916803 17.224723,229.188703 13.6686392,226.866935 C10.1125553,224.545168 5.55634227,219.492217 1.42108547e-14,211.708084 C2.73850069,211.716745 7.29471375,211.136682 13.6686392,209.967896 C23.2295273,208.214718 44.6441316,209.967896 66.3943851,219.783856 C66.818184,219.975118 67.2375714,220.17505 67.6525473,220.383652 C66.2366822,216.953672 64.4014362,212.356044 62.1471677,206.593068 L68.0205636,196.312156 L60.4856577,200.524331 C58.1035712,194.6634 56.3940228,189.294336 55.3570124,184.41714 C54.3200021,179.539944 54.3200021,173.23342 55.3570124,165.497567 C68.3081744,177.003636 78.0305336,190.702136 84.5240903,206.593068 C90.5618733,221.368638 94.7786969,236.193879 97.1745612,251.068792 C100.982182,262.317462 103.389227,271.469416 104.394512,278.537533 C105.188322,284.118784 106.515457,296.626495 108.377463,316.073213 L108.377463,316.073213 L109.309,325.985155 L109.309137,258.967387 C102.968955,255.541505 102.503493,243.614056 102.503493,236.883963 C102.503493,231.999163 102.28184,227.216057 101.838534,222.534648 L107.882425,216.763033 L101.838534,217.532139 L101.838534,191.802103 L109.111833,190.854646 L101.838534,187.727631 C102.441021,178.770232 103.803859,172.464417 105.927049,168.810186 C108.050238,165.155954 112.989335,158.052944 120.744339,147.501155 Z M131.167045,266.925407 L131.065328,267.019244 C128.692514,269.212468 125.655504,271.944249 121.954297,275.214587 C117.304466,288.652467 114.457903,300.700743 113.409946,311.356816 C112.603845,319.553601 112.025142,327.817405 111.673846,336.148258 C113.325389,321.808057 115.396619,311.257211 117.894811,304.48122 C119.697893,299.590618 121.43763,295.108577 123.114302,291.034747 C122.295615,286.097315 124.979923,278.060461 131.167045,266.925407 Z M88.4897387,246.354278 C91.0372189,253.057887 93.0079834,260.894977 94.4020321,269.865547 L94.3900112,269.784071 C100.268762,292.133513 104.980122,310.69919 107.70306,324.639409 C106.112781,304.480946 105.330554,290.960803 104.394512,283.318503 L104.394512,283.318503 L104.017355,280.389339 L103.824346,279.049726 C102.8205,272.494904 99.7209465,263.402795 96.0960629,253.040825 Z M137.03343,246.874354 L139.146689,254.305028 C139.924516,253.261583 140.696455,252.284368 141.468276,251.363858 L141.227826,250.951772 C140.595876,249.901626 139.197744,248.542487 137.03343,246.874354 L137.03343,246.874354 Z M81.297767,226.329994 L80.0497807,230.801605 C80.4738198,231.346511 80.8898696,231.907119 81.2979299,232.48343 L81.297767,226.329994 Z" opacity="1.00"></path><path id="shadow--globalStyle1/objects/lamp/3" fill="#000" fill-opacity=".15" d="M131.275526,266.508556 L131.005455,266.757725 C128.378944,269.180625 124.938614,272.262091 120.684465,276.002125 C123.811004,258.024459 127.811202,242.6129 132.68506,229.767447 C137.558918,216.921995 147.984096,201.772719 163.960595,184.31962 C164.2226,189.711795 163.983505,194.79684 163.243308,199.574756 C162.503112,204.352673 160.940457,211.649975 158.555345,221.466662 C157.644168,220.395374 156.600451,219.472379 155.424194,218.697678 C154.247936,217.922978 152.590413,217.203307 150.451623,216.538665 C154.942928,221.67606 157.18858,224.664803 157.18858,225.504896 C157.18858,226.765036 154.060658,232.209202 152.066555,235.651939 C151.179343,237.183675 149.512791,240.447326 147.066901,245.442891 C151.779463,241.325296 156.962597,238.371214 163.777178,234.667003 C173.248488,229.51867 190.333575,228.915294 215.032441,232.856874 C191.350278,231.111878 172.045137,235.218826 157.117016,245.177717 C142.188895,255.136608 130.902238,270.577754 123.257044,291.501155 C122.019007,286.622537 124.691835,278.291671 131.275526,266.508556 Z M13.7222433,209.877363 C23.2831314,208.127665 44.6977357,209.877363 66.4479892,219.673834 C80.9481582,226.204814 90.2840405,242.865568 94.4556362,269.656093 C91.0690134,248.665814 81.7331311,233.471728 66.4479892,224.073836 C51.4987845,214.88249 30.0008901,210.70779 1.95430606,211.549736 L1.8466041,211.552155 L2.04165249,211.540284 C4.70047931,211.357995 8.40252947,210.838496 13.147803,209.981787 Z M120.760924,147.501155 C126.155875,153.967444 129.721134,159.87876 131.456701,165.235102 C133.192268,170.591444 134.536361,176.064173 135.48898,181.653289 L125.21035,193.206464 L134.343342,187.647765 C132.418915,198.97971 131.456701,207.044132 131.456701,211.841031 C131.456701,216.637931 131.264416,220.920901 130.879846,224.689942 L122.987261,222.385676 L129.966459,228.673192 C129.484782,232.116841 128.870946,235.252438 128.124952,238.079984 C127.378958,240.90753 126.736905,242.650945 126.198792,243.31023 L120.164117,240.892229 L125.21035,247.59796 C121.229955,256.807545 116.545097,260.756963 111.155778,259.446214 C111.155778,259.446214 114.357493,222.131194 120.760924,147.501155 Z M136.973556,246.652832 L139.112715,254.156677 C139.894947,253.108081 140.671161,252.12642 141.447221,251.202031 C141.355984,251.039454 141.262851,250.879539 141.167952,250.722154 C140.536002,249.674093 139.13787,248.317652 136.973556,246.652832 L136.973556,246.652832 Z"></path><polygon id="Rectangle--globalStyle1/objects/lamp/3" fill="#D8D8D8" points="82.1431871 369.981524 140.092379 369.981524 130.448298 416 91.0687113 416"></polygon></g></g></svg></g></g><g transform="translate(172,570.5)">
<g transform="translate(223,0) scale(-1, 1)">
<g><svg xmlns="http://www.w3.org/2000/svg" width="223" height="228" viewBox="0 0 223 228"><g id="Symbols--globalStyle1/animals/dogvscat/4" fill="none" fill-rule="evenodd" stroke="none" stroke-width="1"><g id="globalStyle1/animals/dogvscat/4--globalStyle1/animals/dogvscat/4"><path id="[color]color--globalStyle1/animals/dogvscat/4" fill="#545454" fill-rule="nonzero" d="M102.240579,172.048836 C110.16139,170.955052 110.960039,180.755322 111.119769,186.095322 C111.259902,190.763279 111.469606,198.39225 110.052781,203.417649 C109.945842,203.939089 109.780988,204.440896 109.564197,204.913965 C109.005405,206.523893 108.095089,208.199719 106.892201,209.834484 C103.71139,214.158538 100.145444,219.846376 95.2165254,224.917187 C94.5134407,225.778713 93.4380604,226.332359 92.2326606,226.334651 C91.459282,226.335824 90.738574,226.109929 90.1337139,225.719835 C89.5188737,226.135154 88.7767439,226.379104 87.9774443,226.380624 C85.8433903,226.383863 84.1098768,224.656836 84.1058182,222.521971 C84.1025795,220.387106 85.8296065,218.653592 87.9644714,218.650342 C88.4854807,218.649354 88.9826159,218.751594 89.4365388,218.937772 C90.983565,215.592552 93.8974613,211.28018 95.2392281,205.272052 C95.5873628,203.713269 95.9656469,202.044135 96.5154638,200.517055 C96.3894595,197.191616 96.3270842,192.608631 96.5024714,186.798295 C96.6476065,182.008836 95.3803092,172.996673 102.240579,172.048836 Z" opacity="1.00"></path><path id="shadow--globalStyle1/animals/dogvscat/4" fill="#000" fill-opacity=".08" d="M95.3171536,224.917187 C100.246073,219.846376 103.812019,214.158538 106.992829,209.834484 C111.525262,203.674754 111.90391,196.932052 104.956073,195.329079 C97.9806672,193.718808 96.4944509,200.102322 95.3398563,205.272052 C93.1693158,214.991241 86.8847212,220.272863 88.921478,224.203673 C90.0906672,226.46016 93.0841807,227.214214 95.3171536,224.917187"></path><path id="Fill-11-Copy--globalStyle1/animals/dogvscat/4" fill="#DBDBDB" d="M92.3236335,227.799376 L85.7828227,227.811553 C83.54012,227.815592 81.95012,226.98289 81.6995795,224.753971 C81.5957957,223.830457 84.2528227,219.655592 89.1168768,219.662071 C89.1168768,219.662071 98.4468768,227.1337 92.3236335,227.799376"></path><path id="[color]color--globalStyle1/animals/dogvscat/4" fill="#545454" fill-rule="nonzero" d="M135.913958,188.352052 L145.693147,193.997727 C153.025309,198.230971 155.560715,207.693944 151.327471,215.026106 C148.324265,220.227791 142.688953,223.015692 137.04966,222.684868 C137.157441,225.237509 134.912452,227.895439 128.232174,227.882612 C123.387579,227.872836 115.712444,227.373376 115.712444,227.373376 C112.834066,226.95743 111.695688,224.113106 112.543796,221.809592 C113.265417,219.850673 116.781904,219.8077 123.011363,219.570944 C123.289176,219.560351 123.568355,219.538915 123.848567,219.50872 C122.625125,217.908764 121.097277,216.102182 119.020147,214.164052 C118.801544,213.960004 118.577493,213.737635 118.350264,213.498805 C115.477012,211.096789 113.647911,207.767278 113.050463,204.211008 C112.644722,202.559614 112.565516,200.91928 112.993284,199.438035 C113.264997,197.567325 113.887149,195.717916 114.88639,193.987187 C119.118823,186.655025 128.581796,184.118808 135.913958,188.352052 Z" opacity="1.00"></path><path id="Fill-17-Copy--globalStyle1/animals/dogvscat/4" fill="#DBDBDB" d="M118.40539,227.987808 L111.864579,227.999175 C109.621877,228.003214 108.031877,227.170511 107.781336,224.941592 C107.677552,224.018079 110.334579,219.843214 115.198634,219.850502 C115.198634,219.850502 124.528634,227.321322 118.40539,227.987808"></path><path id="Combined-Shape-Copy--globalStyle1/animals/dogvscat/4" fill="#B9B6B4" fill-rule="nonzero" d="M111.934227,222.911845 C112.099624,222.85278 112.281586,222.938979 112.340651,223.104375 C112.399716,223.269772 112.313517,223.451734 112.148121,223.510799 C110.192386,224.209214 108.824488,225.682807 108.609666,227.618294 C108.590292,227.792848 108.433081,227.918647 108.258527,227.899273 C108.083972,227.879899 107.958173,227.722689 107.977547,227.548134 C108.221605,225.349243 109.765127,223.686455 111.934227,222.911845 Z M110.678718,221.753346 C110.843002,221.691254 111.026517,221.774096 111.088609,221.93838 C111.150702,222.102664 111.06786,222.286178 110.903576,222.348271 C109.006578,223.06526 107.693131,224.516535 107.482883,226.41155 C107.463517,226.586106 107.306312,226.711911 107.131756,226.692545 C106.957201,226.673178 106.831395,226.515973 106.850762,226.341418 C107.08965,224.188261 108.573042,222.549208 110.678718,221.753346 Z"></path><path id="[color]color--globalStyle1/animals/dogvscat/4" fill="#545454" fill-rule="nonzero" d="M106.885228,159.121106 C106.885228,159.121106 108.867661,167.371106 114.966579,169.84489 C129.305769,175.659214 134.720363,172.264349 145.101174,182.602187 C152.57685,190.04543 157.473336,212.482187 148.976039,224.019214 C146.356102,227.57752 138.271947,228.422775 132.268939,226.966366 C131.754698,227.091481 131.217899,227.158056 130.665661,227.159008 C127.797514,227.163939 125.339232,225.397806 124.326493,222.891632 C117.190788,217.768446 113.465429,212.192336 109.091444,208.598403 C94.9914443,197.011106 92.640093,191.470836 89.1560389,176.670295 C87.94712,171.534619 78.5482011,156.442187 92.6246876,151.257863 C104.72685,146.801646 105.692525,153.789214 106.885228,159.121106 Z" opacity="1.00"></path><path id="Fill-29-Copy--globalStyle1/animals/dogvscat/4" fill="#E7E7E7" d="M130.191758,198.280327 C98.7022984,210.427084 90.4733795,187.446273 91.3077038,175.066813 C91.5931092,170.832759 93.5366227,169.636813 94.7082444,166.102489 C96.8114876,159.755462 93.9574335,151.040057 92.2158119,151.681408 C78.1393254,156.865732 87.5382444,171.958165 88.7471633,177.09384 C92.2312173,191.89357 94.5825687,197.434651 108.682569,209.021949 C113.788244,213.217084 118.010136,220.11303 127.80392,225.835732 C127.80392,225.835732 144.380947,192.807354 130.191758,198.280327"></path><path id="[color]color--globalStyle1/animals/dogvscat/4" fill="#545454" fill-rule="nonzero" d="M83.6486065,148.896944 L88.5467146,139.550727 C88.7777957,139.108836 89.3242822,138.937754 89.7669849,139.169646 C89.9283362,139.253971 90.0596876,139.384511 90.1448227,139.544241 L96.4383362,151.3237 L83.6486065,148.896944 Z" opacity="1.00"></path><path id="shadow--globalStyle1/animals/dogvscat/4" fill="#000" fill-opacity=".08" d="M83.6486065,148.896944 L88.5467146,139.550727 C88.7777957,139.108836 89.3242822,138.937754 89.7669849,139.169646 C89.9283362,139.253971 90.0596876,139.384511 90.1448227,139.544241 L96.4383362,151.3237 L83.6486065,148.896944 Z"></path><path id="[color]color--globalStyle1/animals/dogvscat/4" fill="#545454" fill-rule="nonzero" d="M86.3763362,166.317052 L85.267147,165.364349 C81.7441741,164.948403 78.4425524,162.218403 76.9506606,158.048403 L76.4228227,156.147863 C76.0052551,155.547863 75.8884984,154.757322 76.2128227,154.102998 C76.5014714,153.520025 76.7357957,153.516781 77.6349849,153.040836 L81.2990389,150.888133 C81.003093,147.269484 85.5768768,145.672998 89.1728227,145.055971 C97.0498497,143.70516 105.344444,147.352187 106.706606,158.817052 C107.315525,163.939754 101.857147,167.752998 96.2990389,168.948133 C96.2722822,168.953808 96.2447146,168.959484 96.2179579,168.96516 C92.7209308,169.693268 89.086066,168.64489 86.3763362,166.317052" opacity="1.00"></path><path id="Stroke-35-Copy--globalStyle1/animals/dogvscat/4" fill="#444" fill-rule="nonzero" d="M86.1857865,151.853884 C86.8236032,150.998903 87.2127976,150.98955 87.9291724,151.82421 C88.2156715,152.158015 88.7185273,152.196363 89.0523321,151.909864 C89.3861369,151.623365 89.4244858,151.120509 89.1379866,150.786705 C87.7621367,149.183679 86.1616336,149.222144 84.90894,150.901355 C84.6459063,151.253946 84.7185072,151.753009 85.0710987,152.016043 C85.4236901,152.279076 85.9227529,152.206475 86.1857865,151.853884 Z"></path><path id="Fill-37-Copy--globalStyle1/animals/dogvscat/4" fill="#E7E7E7" d="M95.6520119,157.444511 C91.9733633,155.025052 89.8295795,157.116944 87.0995795,160.610727 C84.8276876,163.516673 79.173093,159.861538 77.5766065,158.265052 C77.1306606,157.819106 76.9612011,158.081808 76.9612011,158.081808 C78.4814714,162.339376 81.7466065,164.968025 85.267147,165.364511 L86.4193092,166.368295 C88.8639038,168.565592 91.9652551,169.196403 93.3395795,169.164781 C95.2839038,166.298565 98.9795795,159.634511 95.6520119,157.444511"></path><path id="Fill-39-Copy--globalStyle1/animals/dogvscat/4" fill="#1D3143" d="M78.1225254,153.905079 C78.1282011,153.360214 77.2452281,153.82643 76.753066,153.939944 C76.5973903,153.97643 76.4773903,153.895349 76.3752281,153.789944 C76.3192822,153.842646 76.2398227,153.973998 76.204147,154.04616 C75.8182011,154.824538 76.0127957,155.703457 76.5090119,156.416972 C76.5090119,156.416972 76.9046876,156.422646 76.9387416,155.76589 C76.9898227,154.753998 78.1168497,154.449944 78.1225254,153.905079"></path><path id="[color]color--globalStyle1/animals/dogvscat/4" fill="#545454" fill-rule="nonzero" d="M97.8448497,171.99816 C105.765661,170.903565 106.564309,180.704646 106.724039,186.043836 C106.864166,190.711588 107.073858,198.340744 105.657238,203.366286 C105.550173,203.888508 105.384935,204.391322 105.167559,204.86527 C104.608897,206.474498 103.698976,208.149608 102.496877,209.783808 C99.316066,214.107863 95.7493092,219.7957 90.8212011,224.866511 C88.5882281,227.163538 85.5947146,226.409484 84.4255254,224.152998 C82.3887687,220.222187 88.6733633,214.940565 90.8439038,205.221376 C91.1920304,203.662385 91.5702313,201.993195 92.1199466,200.466128 C91.9937425,197.141218 91.9313367,192.558546 92.1067416,186.747619 C92.2518768,181.95816 90.9845795,172.945998 97.8448497,171.99816 Z M97.9855254,139.125376 C98.12012,139.246998 98.2149849,139.406727 98.257147,139.582673 L101.393363,152.563754 L89.6220119,147.005646 L96.7084984,139.187808 C97.0433633,138.818079 97.6157957,138.7897 97.9855254,139.125376 Z" opacity="1.00"></path><polygon id="shadow--globalStyle1/animals/dogvscat/4" fill="#000" fill-opacity=".08" points="94.0236606 145.316403 96.2542011 142.067484 96.5412281 147.199917"></polygon><path id="Fill-53-Copy--globalStyle1/animals/dogvscat/4" fill="#E7E7E7" d="M87.9279038,227.7487 L81.387093,227.760066 C79.1443903,227.764106 77.5543903,226.932214 77.3038497,224.703295 C77.200066,223.779781 79.857093,219.604917 84.721147,219.611396 C84.721147,219.611396 94.051147,227.083025 87.9279038,227.7487"></path><path id="Combined-Shape-Copy-2--globalStyle1/animals/dogvscat/4" fill="#B9B6B4" fill-rule="nonzero" d="M81.5744263,222.933127 C81.739846,222.874127 81.9217741,222.960398 81.9807741,223.125817 C82.039774,223.291237 81.9535038,223.473165 81.788084,223.532165 C79.8325661,224.229636 78.4645817,225.703323 78.2497481,227.639606 C78.2303809,227.814161 78.0731756,227.939966 77.8986202,227.920599 C77.7240648,227.901232 77.5982598,227.744026 77.617627,227.569471 C77.861691,225.369735 79.4053944,223.706752 81.5744263,222.933127 Z M80.3404916,221.623499 C80.5047507,221.561341 80.6882982,221.64411 80.7504563,221.808369 C80.8126145,221.972628 80.7298453,222.156176 80.5655862,222.218334 C78.6679372,222.936433 77.3549886,224.386954 77.1447753,226.281659 C77.1254087,226.456214 76.9682039,226.58202 76.7936484,226.562653 C76.6190929,226.543286 76.4932874,226.386082 76.5126539,226.211526 C76.7515062,224.058692 78.2343205,222.420507 80.3404916,221.623499 Z"></path><path id="[color]color--globalStyle1/animals/dogvscat/4" fill="#545454" fill-rule="nonzero" d="M150.400634,141.200971 C153.012255,143.858808 143.124417,150.068808 148.262525,165.206646 C152.001985,176.225565 161.131715,185.976376 162.971444,207.616106 C165.009579,231.610479 142.238246,225.936279 141.326578,225.699713 L141.298471,225.692322 C141.298471,225.692322 138.860455,225.364695 138.908476,222.685616 C138.302431,222.721686 137.692943,222.72222 137.083351,222.68632 L137.082699,222.644005 C137.215977,225.209325 134.983129,227.89632 128.266228,227.883422 C123.421634,227.873646 115.746498,227.374187 115.746498,227.374187 C112.86812,226.958241 111.729742,224.113917 112.57785,221.811214 C113.299471,219.851484 116.815958,219.808511 123.045417,219.571754 C123.32323,219.561162 123.602409,219.539725 123.882621,219.509531 C122.659179,217.909575 121.131331,216.102993 119.054201,214.164863 C118.835598,213.960861 118.611547,213.738532 118.384318,213.499738 C115.511335,211.097825 113.682307,207.768712 113.084685,204.212818 C112.678706,202.560674 112.599479,200.919665 113.027627,199.437913 C113.299495,197.566818 113.921559,195.71811 114.920444,193.987998 C119.153688,186.655836 128.61585,184.12043 135.948823,188.352863 L145.727201,193.998538 C153.059363,198.231781 155.594769,207.694754 151.361525,215.026917 C149.923751,217.51748 147.882703,219.454622 145.526759,220.761085 C149.464029,221.625374 156.034269,221.754892 157.675228,213.6907 C159.109552,206.643944 155.205498,191.043944 145.316039,172.396106 C137.284147,157.252592 144.582255,135.281241 150.400634,141.200971 Z" opacity="1.00"></path><path id="Combined-Shape-Copy-3--globalStyle1/animals/dogvscat/4" fill="#E7E7E7" d="M115.232688,219.851314 C115.232688,219.851314 124.562688,227.322944 118.439444,227.988619 L111.898634,227.999985 C109.655931,228.004025 108.065931,227.171322 107.81539,224.943214 C107.711606,224.0197 110.368634,219.844836 115.232688,219.851314 Z M150.390114,141.198912 C151.349304,142.175128 150.622006,143.632155 149.573628,145.831885 C147.882277,145.093236 145.851195,144.876749 143.926331,144.908371 C145.647682,140.821074 148.128763,138.897831 150.390114,141.198912 Z"></path><path id="Combined-Shape-Copy-4--globalStyle1/animals/dogvscat/4" fill="#B9B6B4" fill-rule="nonzero" d="M111.968399,222.913344 C112.133819,222.854344 112.315747,222.940614 112.374747,223.106034 C112.433747,223.271453 112.347477,223.453382 112.182057,223.512381 C110.226656,224.209811 108.858555,225.683418 108.64372,227.619023 C108.624346,227.793578 108.467135,227.919377 108.292581,227.900003 C108.118026,227.880629 107.992227,227.723418 108.011601,227.548864 C108.255678,225.349801 109.7995,223.686921 111.968399,222.913344 Z M110.712654,221.754202 C110.876913,221.692044 111.06046,221.774813 111.122618,221.939072 C111.184777,222.103331 111.102007,222.286879 110.937748,222.349037 C109.040099,223.067136 107.727151,224.517657 107.516937,226.412361 C107.497571,226.586917 107.340366,226.712722 107.165811,226.693356 C106.991255,226.673989 106.86545,226.516784 106.884816,226.342229 C107.123668,224.189395 108.606483,222.551209 110.712654,221.754202 Z"></path></g></g></svg></g>
</g></g><g transform="translate(235,214)">
<g><svg xmlns="http://www.w3.org/2000/svg" width="382" height="281" viewBox="0 0 382 281"><g id="Symbols--globalStyle1/walleducation/think/14" fill="none" fill-rule="evenodd" stroke="none" stroke-width="1"><g id="globalStyle1/walleducation/think/14--globalStyle1/walleducation/think/14"><g id="Group--globalStyle1/walleducation/think/14" transform="matrix(-1 0 0 1 373 70)"><path id="Path-120--globalStyle1/walleducation/think/14" fill="#FFF" d="M66.0363887,158.060951 C39.7748823,117.442411 45.9954743,80.5792104 83.0258828,40.9134402 C120.056291,1.24766991 217.199367,-17.9188214 273.437696,26.7011996 C329.676026,71.3212206 321.23355,161.710038 246.749407,183.730652 C172.265263,205.751267 92.2978952,198.679492 66.0363887,158.060951 Z"></path><path id="Path-120-Copy--globalStyle1/walleducation/think/14" fill="#4D645A" d="M171.902018,1.2185326 C135.698071,5.41738241 101.971666,20.2278419 83.3010578,40.2099446 C45.5759693,80.584987 39.939594,117.952949 66.208075,158.547242 C91.7513324,198.020802 169.64152,207.795379 247.978136,184.655784 C283.577965,174.140068 306.337139,147.283273 311.095325,113.801314 C315.719976,81.2589917 302.450796,47.6477164 275.03114,25.9114626 C248.461259,4.84884693 211.127058,-3.33069644 171.902018,1.2185326 Z M273.525472,27.8129265 C300.267088,49.0116803 313.198692,81.7678625 308.694889,113.459805 C304.069131,146.009912 281.972513,172.084862 247.291636,182.329132 C169.866636,205.199448 93.0468397,195.559196 68.2433107,157.228783 C42.6155897,117.624696 48.0691173,81.4689749 85.0721887,41.8666669 C103.31484,22.342582 136.51008,7.76537604 172.181191,3.62832342 C210.811577,-0.851939162 247.507398,7.18774159 273.525472,27.8129265 Z" opacity=".6"></path><path id="Path-121--globalStyle1/walleducation/think/14" fill="#F8F8F8" d="M15.8420838,133.605056 C6.57479595,137.380264 11.8685244,150.387144 21.1544587,147.615961 C30.4403931,144.844779 25.1093717,129.829849 15.8420838,133.605056 Z"></path><path id="Path-121-Copy-2--globalStyle1/walleducation/think/14" fill="#F8F8F8" d="M3.29122236,154.161348 C0.819945586,155.16807 2.2316065,158.636572 4.70785566,157.89759 C7.18410482,157.158608 5.76249913,153.154626 3.29122236,154.161348 Z"></path><path id="Path-121-Copy--globalStyle1/walleducation/think/14" fill="#F8F8F8" d="M33.1333062,114.766405 C21.3947415,119.548334 28.1001309,136.023715 39.8623144,132.513551 C51.6244979,129.003386 44.8718708,109.984476 33.1333062,114.766405 Z"></path><path id="Path-121-Copy-3--globalStyle1/walleducation/think/14" fill="#4D645A" d="M33.0790013,112.872182 C26.8999739,115.394562 24.6335245,121.252293 26.8043918,126.793818 C28.9504512,132.272017 34.6023568,135.308973 40.8024079,133.454857 C47.0640213,131.582331 49.3798482,125.481594 47.1982873,119.519841 C45.0088643,113.536603 39.2697357,110.345024 33.0790013,112.872182 Z M44.904731,120.364544 C46.6351225,125.093345 44.8967923,129.672743 40.1044663,131.105881 C35.1614902,132.584071 30.7743508,130.226716 29.0783057,125.897259 C27.3835583,121.571114 29.0963996,117.144206 33.9998403,115.142541 C38.8093075,113.179239 43.1609831,115.599243 44.904731,120.364544 Z" opacity=".6"></path><path id="Path-121-Copy-4--globalStyle1/walleducation/think/14" fill="#4D645A" d="M15.8183106,133.593526 C11.6213727,135.306289 10.0676815,139.320706 11.5468394,143.095427 C13.0056551,146.818237 16.8608682,148.889172 21.0682831,147.631314 C25.3507134,146.35103 26.940222,142.164894 25.4583203,138.116335 C24.0045686,134.144683 20.2101805,131.966431 16.0932298,133.486676 L15.8183106,133.593526 Z M23.2159027,138.941965 C24.2566946,141.78541 23.2318064,144.48456 20.3859033,145.335377 C17.4075348,146.225796 14.7888877,144.819117 13.7700526,142.219112 C12.7563986,139.632328 13.7688253,137.016427 16.718618,135.812622 C19.5902231,134.640725 22.1655835,136.072491 23.2159027,138.941965 Z" opacity=".6"></path><path id="Path-121-Copy-5--globalStyle1/walleducation/think/14" fill="#4D645A" d="M2.23160683,151.274662 C0.305808733,152.059599 -0.43633676,153.974765 0.251920803,155.728972 C0.923691239,157.441158 2.72609108,158.408163 4.64890697,157.834029 C6.67415003,157.229311 7.43739899,155.221715 6.75713985,153.365557 C6.10257559,151.57951 4.34126186,150.548841 2.45031295,151.192867 L2.23160683,151.274662 Z M4.325955,154.259576 C4.52797151,154.810799 4.37687292,155.208238 3.90908428,155.347915 C3.31877617,155.524175 2.85703683,155.276447 2.66228466,154.78007 C2.47871727,154.312199 2.63403445,153.911391 3.20770224,153.677569 C3.71608213,153.470358 4.11863371,153.693878 4.325955,154.259576 Z" opacity=".6"></path></g><g id="Group-2--globalStyle1/walleducation/think/14" transform="translate(117 122)"><path id="[color:bgelement]monitor--globalStyle1/walleducation/think/14" fill="#cccaca" d="M5.83030303,0 C49.5003371,0 94.9468018,0 142.169697,0 C145.389684,0 148,2.59993018 148,5.8071066 L148,87.5532995 C148,87.8000054 147.799206,88 147.551515,88 L0.448484848,88 C0.200793506,88 0,87.8000054 0,87.5532995 L0,5.8071066 C0.237706889,2.08475697 2.18114123,0.149054771 5.83030303,0 Z" opacity="1.00"></path><rect id="Rectangle--globalStyle1/walleducation/think/14" width="135" height="75" x="6" y="7" fill="#ECECEC"></rect><path id="[color:bgelement]monitor--globalStyle1/walleducation/think/14" fill="#cccaca" d="M73.869878,89.5375497 C75.9362851,89.5375497 77.611439,91.2080761 77.611439,93.2687748 C77.611439,95.3294736 75.9362851,97 73.869878,97 C71.8034709,97 70.128317,95.3294736 70.128317,93.2687748 C70.128317,91.2080761 71.8034709,89.5375497 73.869878,89.5375497 Z M71.0831926,59.0734297 L71.2274662,59.0802647 C71.9396383,59.1480936 72.5060354,59.7129121 72.5740532,60.4228918 L72.5809072,60.566719 L72.5809072,74.9978191 L69.5857667,74.9978191 L69.5857667,60.566719 C69.5857667,59.741912 70.2563894,59.0734297 71.0831926,59.0734297 Z M51.2046975,57.3023257 C59.1779781,57.881274 59.7914406,74.9978191 59.7914406,74.9978191 L14,74.9978191 C14,74.9978191 16.1781528,65.8287863 20.0315635,67.1386893 C23.8849742,68.4485922 21.5610338,73.6015489 25.831599,73.6015489 C30.1027416,73.6015489 29.2271501,62.7411579 34.0436248,63.4991743 C38.8606768,64.2569028 36.120448,70.4577818 39.5486209,70.6305163 C42.9767938,70.8061296 43.2314168,56.7230895 51.2046975,57.3023257 Z M81.85877,57.0426483 L82.0029504,57.0494833 C82.7146995,57.1173122 83.281295,57.6821307 83.3493391,58.3921104 L83.3561959,58.5359376 L83.3561959,74.9920613 L80.361344,74.9920613 L80.361344,58.5359376 C80.361344,57.7111306 81.0316782,57.0426483 81.85877,57.0426483 Z M106.163247,51.8637403 C106.532093,51.8637403 106.830544,52.1467605 106.830544,52.4959198 L106.830544,52.7003999 C106.830544,53.0498348 106.532093,53.3325794 106.163247,53.3325794 L99.6546311,53.3325794 C99.2860762,53.3325794 98.9873343,53.0498348 98.9873343,52.7003999 L98.9873343,52.4959198 C98.9873343,52.1467605 99.2860762,51.8637403 99.6546311,51.8637403 L106.163247,51.8637403 Z M110.621395,51.8637403 C110.98995,51.8637403 111.288692,52.1467605 111.288692,52.4959198 L111.288692,52.7003999 C111.288692,53.0498348 110.98995,53.3325794 110.621395,53.3325794 L109.423228,53.3325794 C109.054673,53.3325794 108.755931,53.0498348 108.755931,52.7003999 L108.755931,52.4959198 C108.755931,52.1467605 109.054673,51.8637403 109.423228,51.8637403 L110.621395,51.8637403 Z M115.066162,51.8637403 C115.434717,51.8637403 115.733459,52.1467605 115.733459,52.4959198 L115.733459,52.7003999 C115.733459,53.0498348 115.434717,53.3325794 115.066162,53.3325794 L113.816507,53.3325794 C113.448243,53.3325794 113.149501,53.0498348 113.149501,52.7003999 L113.149501,52.4959198 C113.149501,52.1467605 113.448243,51.8637403 113.816507,51.8637403 L115.066162,51.8637403 Z M81.8737818,12.7017136 L82.5308362,13.1770213 L74.1611974,24.6900585 C74.3757958,24.9480289 74.5331333,25.2597692 74.6092308,25.6098716 C74.8621217,26.7755412 74.1199042,27.9248011 72.9510055,28.1769935 C71.7829729,28.4294736 70.629952,27.6893065 70.3770611,26.5239247 L70.356,26.412 L62.5624886,25.9748599 C62.4093219,26.8062021 61.7711754,27.5051535 60.8910541,27.6953522 C60.3067491,27.8214484 59.7264857,27.6995266 59.2606873,27.4004441 L48.1873539,39.9943418 C48.3815906,40.2424459 48.5242217,40.5369573 48.5955331,40.8652029 C48.848424,42.0311604 48.1064952,43.1798446 46.9375965,43.4303095 C45.7695639,43.6836534 44.616543,42.9437741 44.3642295,41.7778166 C44.327041,41.6067651 44.3113286,41.4360491 44.3152874,41.2684604 L33.9221251,39.022818 C33.6934863,39.7329912 33.1015499,40.3055025 32.3178465,40.474823 C31.6435956,40.6203299 30.9746303,40.4355838 30.480732,40.0293493 L17.8955592,51.8712666 L17.3386795,51.2839694 L29.9620448,39.4054422 C29.8635875,39.2267302 29.7890662,39.0309756 29.7436134,38.8214664 C29.4907225,37.6563725 30.23294,36.5074004 31.40155,36.2549202 C32.57016,36.0027279 33.7226035,36.7426072 33.9757831,37.9082769 C33.9980668,38.0109402 34.0126241,38.1134784 34.019844,38.2152891 L44.4871797,40.4775845 C44.7530205,39.8549764 45.3076904,39.366099 46.0213,39.2118462 C46.574336,39.0925276 47.1236238,39.1953465 47.5757281,39.4602377 L58.6723457,26.8428313 C58.5050404,26.6101333 58.3817182,26.3402292 58.3171097,26.0425714 C58.0639301,24.8769017 58.8058589,23.7279297 59.9747576,23.4754495 C61.143079,23.2232572 62.2952337,23.9631364 62.5484133,25.1288061 L62.554,25.162 L70.3779919,25.6036334 C70.5546314,24.8050456 71.1811829,24.141527 72.0349977,23.9568028 C72.5652676,23.8424984 73.0922088,23.9324607 73.5333144,24.1736751 L81.8737818,12.7017136 Z M109.555915,11.9824678 C113.129713,10.7078738 116.850054,10.7146071 120.212289,11.7645075 C125.063962,13.2792569 129.170916,16.966128 131.015207,22.1078967 C131.623886,23.8056929 131.940979,25.5351606 131.992494,27.244179 C132.205056,34.3032005 127.88879,41.0011161 120.86173,43.507161 C112.13217,46.6202029 102.524853,42.0874263 99.4019373,33.3824802 C96.9839782,26.6389276 99.1666183,19.3704248 104.330883,14.9897716 C105.561744,13.9451082 106.961904,13.0652867 108.509608,12.3949465 C108.850958,12.2473121 109.200811,12.1091541 109.555915,11.9824678 Z M118.959672,15.7638549 C116.439433,14.9770531 113.650115,14.9713173 110.97108,15.9269511 C110.704502,16.0224646 110.442675,16.1259583 110.18635,16.2369335 C109.025759,16.7384418 107.975701,17.3990561 107.052931,18.1818678 C103.181546,21.4659861 101.545316,26.9154928 103.358597,31.971474 C105.699284,38.4980638 112.902396,41.8966487 119.447315,39.5626777 C124.71636,37.6835805 127.952559,32.661266 127.792512,27.369369 C127.753251,26.0880417 127.515681,24.7910032 127.059297,23.5184042 C125.677392,19.6631999 122.597989,16.8995429 118.959672,15.7638549 Z" opacity="1.00"></path><path id="Combined-Shape--globalStyle1/walleducation/think/14" fill="#FFF" d="M76.0322346,55.5852389 L76.1756236,55.5921567 C76.8834516,55.6608072 77.4467228,56.2324597 77.5143667,56.9508201 L77.5211831,57.0963427 L77.5211831,76 L74.542999,76 L74.542999,57.0963427 C74.542999,56.2618264 75.2096666,55.5852389 76.0322346,55.5852389 Z M65.5737064,63.8246297 L65.7171431,63.8315505 C66.4251955,63.9002294 66.9884807,64.4721105 67.0561255,65.1904993 L67.062942,65.3360249 L67.062942,76 L64.0847578,76 L64.0847578,65.3360249 C64.0847578,64.5015086 64.7514255,63.8246297 65.5737064,63.8246297 Z M85.8219389,52.5930437 L85.9653757,52.5999616 C86.6734281,52.6686129 87.2367133,53.2402797 87.3043581,53.9588678 L87.3111746,54.1044388 L87.3111746,76 L84.3327033,76 L84.3327033,54.1044388 C84.3327033,53.2696312 84.9996581,52.5930437 85.8219389,52.5930437 Z M23.2796444,52.5930437 L23.2796444,76 L23,76 L23,52.5930437 L23.2796444,52.5930437 Z M32.388185,52.5930437 L32.388185,76 L32.1079664,76 L32.1079664,52.5930437 L32.388185,52.5930437 Z M41.4964385,52.5930437 L41.4964385,76 L41.2162199,76 L41.2162199,52.5930437 L41.4964385,52.5930437 Z M50.6044049,52.5930437 L50.6044049,76 L50.3241863,76 L50.3241863,52.5930437 L50.6044049,52.5930437 Z M59.7123712,52.5930437 L59.7123712,76 L59.4324397,76 L59.4324397,52.5930437 L59.7123712,52.5930437 Z M120.888929,73.4160767 C121.021344,73.4160767 121.132292,73.5046027 121.161289,73.6238671 L121.168679,73.6857932 L121.168679,75.7302835 C121.168679,75.8579496 121.076647,75.9649186 120.953067,75.9928757 L120.888929,76 L98.2670728,76 C98.1346575,76 98.0237092,75.911269 97.994712,75.7921218 L97.9873227,75.7302835 L97.9873227,73.6857932 C97.9873227,73.557888 98.0793545,73.4510898 98.2029341,73.4231863 L98.2670728,73.4160767 L120.888929,73.4160767 Z M126.672551,68.2607814 C126.804966,68.2607814 126.915915,68.3495124 126.944912,68.4686596 L126.952301,68.530498 L126.952301,70.5749882 C126.952301,70.7026543 126.860269,70.8096234 126.73669,70.8375805 L126.672551,70.8447048 L98.2670728,70.8447048 C98.1346575,70.8447048 98.0237092,70.7559738 97.994712,70.6368266 L97.9873227,70.5749882 L97.9873227,68.530498 C97.9873227,68.4028319 98.0793545,68.2958629 98.2029341,68.2679057 L98.2670728,68.2607814 L126.672551,68.2607814 Z M135.750246,62.989734 C135.868463,62.989734 135.967515,63.0782601 135.993403,63.1973488 L136,63.2591716 L136,65.3036619 C136,65.4315671 135.917836,65.5383653 135.807508,65.5662688 L135.750246,65.5733784 L98.2370765,65.5733784 C98.1188595,65.5733784 98.0198076,65.4848524 97.9939197,65.3655881 L97.9873227,65.3036619 L97.9873227,63.2591716 C97.9873227,63.1315055 98.0694864,63.0247414 98.1798151,62.9968429 L98.2370765,62.989734 L135.750246,62.989734 Z M135.313635,57.9911923 C135.650548,57.9911923 135.930818,58.0866177 135.98894,58.2122355 L136,58.26063 L136,60.3053992 C136,60.4377936 135.757165,60.5479295 135.436999,60.5707696 L135.313635,60.5751157 L98.6736874,60.5751157 C98.3367748,60.5751157 98.0565051,60.4796903 97.9983824,60.3538767 L97.9873227,60.3053992 L97.9873227,58.26063 C97.9873227,58.1284834 98.2301577,58.0183751 98.5503236,57.995538 L98.6736874,57.9911923 L135.313635,57.9911923 Z M37.7008544,47.0451425 C38.1171627,47.0451425 38.4548032,47.3860587 38.4548032,47.8085617 L38.4548032,48.0037872 C38.4548032,48.4262902 38.1171627,48.7672064 37.7008544,48.7672064 L30.3942113,48.7672064 C29.9779029,48.7672064 29.6405496,48.4262902 29.6405496,48.0037872 L29.6405496,47.8085617 C29.6405496,47.3860587 29.9779029,47.0451425 30.3942113,47.0451425 L37.7008544,47.0451425 Z M48.8323666,41.3669939 C49.1309603,42.7647503 48.2529802,44.1488118 46.8748559,44.4518484 C45.4967315,44.754885 44.1335368,43.863258 43.8349432,42.4646275 C43.5366367,41.0665797 44.415191,39.6822268 45.792454,39.3800644 C47.1705784,39.0770277 48.5346344,39.9683633 48.8323666,41.3669939 Z M45.9635711,40.180489 C45.0209915,40.3876611 44.4200719,41.3346506 44.6242065,42.291547 C44.8286283,43.2484434 45.7617333,43.8574304 46.7037388,43.6505496 C47.6466055,43.4436689 48.2475251,42.4966794 48.0436776,41.5403658 C47.8395429,40.5834694 46.9064379,39.9730254 45.9635711,40.180489 Z M62.11404,41.6860565 C62.5306355,41.6860565 62.868276,42.028721 62.868276,42.4529722 L62.868276,42.6452839 C62.868276,43.0677869 62.5306355,43.4087031 62.11404,43.4087031 L54.8079712,43.4087031 C54.3916628,43.4087031 54.0540224,43.0677869 54.0540224,42.6452839 L54.0540224,42.4529722 C54.0540224,42.028721 54.3916628,41.6860565 54.8079712,41.6860565 L62.11404,41.6860565 Z M34.2925806,38.3739245 C34.5911742,39.7719723 33.712907,41.1560338 32.3347827,41.4590704 C30.9569454,41.7615243 29.5934637,40.8701887 29.2948701,39.4718495 C28.9965636,38.0738017 29.8751178,36.6897402 31.252668,36.3867036 C32.6307923,36.0842498 33.9942741,36.975294 34.2925806,38.3739245 Z M31.4237851,37.187711 C30.4809183,37.3948831 29.8802858,38.3418726 30.0841334,39.298769 C30.2879809,40.2550826 31.2210859,40.8655266 32.1639527,40.658063 C33.1068194,40.4508909 33.7077391,39.5039014 33.5033173,38.547005 C33.2997568,37.5906914 32.3666518,36.9802475 31.4237851,37.187711 Z M82.8223681,31.9099203 C83.2386765,31.9099203 83.576317,32.2525848 83.576317,32.6747964 L83.576317,32.8676909 C83.576317,33.2901939 83.2386765,33.6328584 82.8223681,33.6328584 L75.5160122,33.6328584 C75.0997038,33.6328584 74.7620633,33.2901939 74.7620633,32.8676909 L74.7620633,32.6747964 C74.7620633,32.2525848 75.0997038,31.9099203 75.5160122,31.9099203 L82.8223681,31.9099203 Z M43.8306366,29.3684921 C44.2472321,29.3684921 44.5842983,29.7108652 44.5842983,30.1333682 L44.5842983,30.3259713 C44.5842983,30.7481829 44.2472321,31.0908473 43.8306366,31.0908473 L36.5239936,31.0908473 C36.1079723,31.0908473 35.7703318,30.7481829 35.7703318,30.3259713 L35.7703318,30.1333682 C35.7703318,29.7108652 36.1079723,29.3684921 36.5239936,29.3684921 L43.8306366,29.3684921 Z M74.7037801,25.926404 C75.0023738,27.3250346 74.1241066,28.7093875 72.7459822,29.0118413 C71.3678579,29.3145865 70.0046632,28.4238337 69.7060696,27.0252032 C69.4077631,25.6262812 70.2863174,24.2428025 71.6638675,23.9400573 C73.0419919,23.6370207 74.4054736,24.5283563 74.7037801,25.926404 Z M62.7095046,25.4395058 C63.0080982,26.8375536 62.1295439,28.221615 60.7519938,28.5246517 C59.3738695,28.8271055 58.0101006,27.9360613 57.7120812,26.5380135 C57.4137747,25.139383 58.2917547,23.7553215 59.669592,23.4522849 C61.0477163,23.149831 62.4111981,24.0411666 62.7095046,25.4395058 Z M71.8346975,24.7407733 C70.8918308,24.9482368 70.2911983,25.8952262 70.4953329,26.8521226 C70.6997547,27.8081449 71.6325726,28.4180061 72.5751523,28.2114167 C73.518019,28.0039532 74.1189386,27.0569637 73.9145169,26.1003587 C73.7109564,25.1434623 72.7778514,24.5336011 71.8346975,24.7407733 Z M119.663208,12 C124.488344,13.5331154 128.572835,17.2646889 130.407038,22.4688003 C131.012388,24.1871818 131.327746,25.9376189 131.378979,27.6673587 L127.20197,27.7940666 C127.162923,26.4972035 126.926653,25.1844388 126.472765,23.8964098 C125.098419,19.9944621 122.035859,17.1972964 118.417442,16.0478385 L119.663208,12 Z M59.8407091,24.2532923 C58.8978423,24.4607558 58.2972098,25.4074538 58.5007703,26.3643502 C58.705192,27.3206639 59.63801,27.9311078 60.5808767,27.7236443 C61.5237434,27.5164721 62.1246631,26.5694827 61.9202413,25.6125863 C61.7161066,24.6562727 60.7830016,24.0461201 59.8407091,24.2532923 Z M70.0204542,17.4949929 C70.4367626,17.4949929 70.7744031,17.837366 70.7744031,18.259869 L70.7744031,18.4524721 C70.7744031,18.8746837 70.4367626,19.2173482 70.0204542,19.2173482 L62.7138112,19.2173482 C62.2977899,19.2173482 61.9601495,18.8746837 61.9601495,18.4524721 L61.9601495,18.259869 C61.9601495,17.837366 62.2977899,17.4949929 62.7138112,17.4949929 L70.0204542,17.4949929 Z"></path><path id="Fill-41--globalStyle1/walleducation/think/14" fill="#CCC" d="M16,76 C16,76 20.1096536,60.5775638 25.5010062,62.2107845 C30.8929416,63.8437061 29.1663335,70.9606723 33.6090132,70.9606723 C37.3436846,70.9606723 37.3445587,58.944044 42.1179336,59.080719 C46.8907259,59.2167958 46.4694172,68.1075455 51.8062853,62.3920208 C57.1434447,56.676197 56.2597454,56 59,56 L59,76 L16,76" opacity=".384"></path><path id="Path-185--globalStyle1/walleducation/think/14" fill="#FFF" d="M34.9426936,87 L0,87 L0,5.35013755 C0,2.39533817 2.42038012,0 5.40607031,0 L70,0 L34.9426936,87 Z" opacity=".243"></path><path id="Combined-Shape--globalStyle1/walleducation/think/14" fill="#EFEFEF" d="M148,87 L148,96.2857143 C148,98.3370576 146.393652,100 144.412121,100 L3.58787879,100 C1.60634805,100 2.84217094e-14,98.3370576 2.84217094e-14,96.2857143 L2.84217094e-14,87 L148,87 Z"></path><path id="Fill-33--globalStyle1/walleducation/think/14" fill="#DFE2E7" d="M104,15.6903685 C105.261243,14.6072398 106.695964,13.6950226 108.281871,13 L110,16.9834518 C108.810762,17.503426 107.734785,18.1883646 106.789238,19 L104,15.6903685"></path></g></g></g></svg></g></g></svg>