<?xml version="1.0" encoding="UTF-8"?>
<svg id="illustration-builder" width="1252" height="1102" viewBox="-10 -30 1322 1162" version="1.1" xmlns="http://www.w3.org/2000/svg" xmlns:xlink="http://www.w3.org/1999/xlink" style="pointer-events: none;"><g transform="translate(127.5,0)">
<g><svg xmlns="http://www.w3.org/2000/svg" width="997" height="1102" viewBox="0 0 997 1102"><g id="Symbols--globalStyle1/objects/building2/car/6" fill="none" fill-rule="evenodd" stroke="none" stroke-width="1"><g id="globalStyle1/objects/building2/car/6--globalStyle1/objects/building2/car/6"><path id="Path-196--globalStyle1/objects/building2/car/6" fill="#AFA8A8" d="M705.542635,667.105126 L721.060051,652.862831 C724.380752,649.815003 728.724086,648.123942 733.231449,648.123942 L808.8288,648.123942 C816.093837,648.123942 822.787533,652.063602 826.314244,658.415222 L831.139277,667.105126 L831.139277,667.105126 L705.542635,667.105126 Z"></path><rect id="Rectangle--globalStyle1/objects/building2/car/6" width="126.715" height="11.913" x="564.676" y="755.538" fill="#423E3E"></rect><polygon id="Path-202--globalStyle1/objects/building2/car/6" fill="#979797" fill-rule="nonzero" points="304.69795 257.760287 308.613002 263.561512 108.303134 398.74392 104.388082 392.942695"></polygon><polygon id="Path-202-Copy-2--globalStyle1/objects/building2/car/6" fill="#979797" fill-rule="nonzero" points="546.90174 259.158103 549.74173 263.366329 384.830183 373.122923 381.990192 368.914697"></polygon><polygon id="Path-202-Copy--globalStyle1/objects/building2/car/6" fill="#423E3E" fill-rule="nonzero" points="303.564093 255.783871 309.436671 264.485709 207.267975 333.435933 201.395397 324.734096"></polygon><polygon id="Path-202-Copy-3--globalStyle1/objects/building2/car/6" fill="#423E3E" fill-rule="nonzero" points="532.606344 332.17917 536.86633 338.491509 462.752852 388.508209 458.492866 382.195869"></polygon><path id="[color:suitcase]car--globalStyle1/objects/building2/car/6" fill="#f78e4d" d="M364.263766,220 L402.424022,222.814415 C403.337354,222.881776 404.241011,223.04546 405.119942,223.30274 C412.010502,225.319742 415.961301,232.540749 413.944299,239.431309 L413.944299,239.431309 L400.763109,284.46114 C432.448871,311.178756 474.493213,351.957455 520.650097,392.592366 L523.70405,388.859789 L548.584402,416.731857 L548.253262,416.627539 C601.568933,465.435448 621.140592,527.503069 606.96824,602.830404 L637.680507,602.830336 L648.157604,660.276724 L845.269547,660.276724 C872.771411,660.276724 895.066076,682.57139 895.066076,710.073254 L895.066076,710.073254 L895.066076,729.869783 C895.066076,746.438326 881.634619,759.869783 865.066076,759.869783 L865.066076,759.869783 L529.441553,759.869783 C518.395858,759.869783 509.441553,750.915478 509.441553,739.869783 L509.441553,739.869783 L509.441553,681.35006 C509.441553,652.300197 515.08843,626.126956 526.382185,602.830336 L526.382185,602.830336 L546.903414,602.830679 C551.702605,562.412653 545.650793,527.873255 528.747977,499.212482 C511.128735,469.336924 425.475684,375.715553 377.492418,313.344244 L133.899113,433.759284 C129.838074,435.766638 124.928789,434.702397 122.063556,431.193558 C119.35474,427.876272 119.832767,422.994236 123.133592,420.265385 L123.133592,420.265385 L140.954837,405.531 L107.636837,405.531083 L107.637174,437.189433 L95.7238368,437.189433 L95.7238368,395.492752 C95.7238368,392.202975 98.3907282,389.536083 101.680505,389.536083 C104.970283,389.536083 107.637174,392.202975 107.637174,395.492752 L107.636837,395.784083 L152.744837,395.784 L306.856167,268.378685 L298.230289,256.596781 C297.966428,256.236379 297.743637,255.847639 297.566057,255.437789 C296.248638,252.397218 297.645528,248.864369 300.686098,247.54695 L300.686098,247.54695 L364.263766,220 Z" opacity="1.00"></path><path id="shadow--globalStyle1/objects/building2/car/6" fill="#000" fill-opacity=".08" d="M101.680505 389.536083C104.970283 389.536083 107.637174 392.202975 107.637174 395.492752L107.636837 395.784083 152.79607 395.784266 141.055495 405.531542 107.636837 405.531083 107.637174 437.189433 95.7238368 437.189433 95.7238368 395.492752C95.7238368 392.202975 98.3907282 389.536083 101.680505 389.536083zM346.256875 255.583943C363.83782 241.563212 435.224412 317.324367 520.721285 392.592394L523.774091 388.859789 548.654444 416.731857 548.327526 416.630197C601.327674 465.1502 620.981229 526.773594 607.28819 601.500381 607.235023 601.790528 607.148955 602.247341 607.029984 602.870818L607.029984 602.870818 546.908487 602.831001C546.967404 602.423748 547.006881 602.133554 547.026919 601.960418 551.668808 561.853071 545.622189 527.70297 528.819969 499.213042 502.714021 454.947665 327.251744 270.740457 346.256875 255.583943z"></path><rect id="Rectangle-Copy-44--globalStyle1/objects/building2/car/6" width="168.411" height="23.285" x="556.012" y="767.451" fill="#717070"></rect><path id="Path-201--globalStyle1/objects/building2/car/6" fill="#717070" d="M90.3086834,429.867274 C94.1625803,429.034743 98.7575524,429.034743 104.0936,429.867274 C109.429647,430.699806 113.293734,432.063496 115.685861,433.958346 L120.575714,429.867274 C119.693399,426.361917 120.361558,423.585983 122.580194,421.53947 C125.908146,418.469701 131.054611,418.361189 134.734293,422.037877 C138.413974,425.714565 137.1934,430.923144 134.734293,433.112094 C133.094887,434.571394 130.50357,435.066184 126.960339,434.596464 L122.580194,440.105135 C129.93593,447.563283 135.522207,454.37748 139.339023,460.547727 C143.155839,466.717973 145.976134,472.433518 147.799906,477.694361 L191.902526,477.694361 L204.114718,469.103813 C205.86171,467.874908 208.272511,468.28223 209.518792,470.01687 C210.693118,471.651361 210.320081,473.928357 208.685591,475.102684 C208.629817,475.142755 208.572922,475.181242 208.514974,475.218097 L139.339023,519.214905 L139.339023,519.214905 L118.328672,519.214905 C103.588572,519.214905 91.5725226,507.393146 91.332259,492.655005 L90.3086834,429.867274 L90.3086834,429.867274 Z"></path><path id="shadow--globalStyle1/objects/building2/car/6" fill="#000" fill-opacity=".2" d="M90.3086834,429.867274 C98.6563708,458.223994 124.684577,477.694361 154.244473,477.694361 L191.902526,477.694361 L191.902526,477.694361 L204.114718,469.103813 C205.86171,467.874908 208.272511,468.28223 209.518792,470.01687 C210.693118,471.651361 210.320081,473.928357 208.685591,475.102684 C208.629817,475.142755 208.572922,475.181242 208.514974,475.218097 L139.339023,519.214905 L139.339023,519.214905 L118.328672,519.214905 C103.588572,519.214905 91.5725226,507.393146 91.332259,492.655005 L90.3086834,429.867274 L90.3086834,429.867274 Z" opacity=".786"></path><path id="shadow--globalStyle1/objects/building2/car/6" fill="#000" fill-opacity=".15" d="M895.188648,728.849104 L895.188648,739.799624 L519.396708,739.799624 L519.396708,685.902959 C519.680105,664.507224 521.167862,648.795349 523.859979,638.767333 C526.552096,628.739318 530.850105,619.439813 536.754005,610.86882 L632.145194,610.86882 L640.217506,661.486349 L639.74066,728.849104 L895.188648,728.849104 Z M633.755969,665.674569 L536.290708,728.84882 L633.755969,728.849104 L633.755969,665.674569 Z"></path><path id="Path-204-Copy--globalStyle1/objects/building2/car/6" fill="#C7C7C7" d="M626.14396,614.701873 L633.290678,659.515452 L526.323537,728.849104 L526.323537,681.132384 C526.574438,662.189945 527.891605,648.279638 530.275036,639.401464 C532.658467,630.523289 536.463654,622.290092 541.690596,614.701873 L626.14396,614.701873 Z"></path><path id="Path-204-Copy-6--globalStyle1/objects/building2/car/6" fill="#FFF" d="M526.323537,728.849104 L526.323537,681.132384 C526.574438,662.189945 527.891605,648.279638 530.275036,639.401464 C532.658467,630.523289 536.463654,622.290092 541.690596,614.701873 L578.666818,614.701873 L526.323537,728.849104 Z" opacity=".339"></path><polygon id="Path-204-Copy-7--globalStyle1/objects/building2/car/6" fill="#FFF" points="626.14396 614.701873 583.278835 691.931984 582.685796 614.701873" opacity=".339"></polygon><polygon id="shadow--globalStyle1/objects/building2/car/6" fill="#000" fill-opacity=".15" points="583.367317 691.878221 578.52877 695.014457 578.56868 614.701873 582.971901 614.701873"></polygon><path id="Combined-Shape--globalStyle1/objects/building2/car/6" fill="#423E3E" d="M536.408749,472.738927 C540.057264,472.738927 543.014969,475.696632 543.014969,479.345147 C543.014969,482.234838 541.159619,484.69119 538.575178,485.587943 L538.574811,602.830336 L534.242688,602.830336 L534.242321,485.587943 C531.657879,484.69119 529.802529,482.234838 529.802529,479.345147 C529.802529,475.696632 532.760235,472.738927 536.408749,472.738927 Z"></path><g id="Group-Copy--globalStyle1/objects/building2/car/6" transform="translate(507.403 775.523)"><path id="Combined-Shape--globalStyle1/objects/building2/car/6" fill="#423E3E" d="M340.207368,0.772723092 C342.320742,0.772723092 344.033971,2.48595162 344.033971,4.59932611 C344.033971,4.8512027 344.009635,5.09739545 343.963188,5.33568144 L348.82678,5.33487161 C350.584248,5.33487161 352.319559,5.42973506 354.027873,5.61462081 L354.022671,5.42331372 C354.022671,3.30993922 355.7359,1.59671069 357.849274,1.59671069 C359.962649,1.59671069 361.675877,3.30993922 361.675877,5.42331372 C361.675877,5.9821387 361.556089,6.51298566 361.34079,6.99157786 C365.124269,8.0136525 368.722175,9.49066466 372.072036,11.358988 C372.700081,10.1081269 373.995408,9.24991674 375.491181,9.24991674 C377.604556,9.24991674 379.317784,10.9631453 379.317784,13.0765198 C379.317784,14.0310542 378.968285,14.9039589 378.390275,15.5742471 C381.300466,17.8675215 383.938472,20.4937574 386.246299,23.3944241 C386.938819,22.4297795 388.071965,21.8013988 389.351877,21.8013988 C391.465252,21.8013988 393.17848,23.5146273 393.17848,25.6280018 C393.17848,27.4189731 391.948099,28.9225734 390.286488,29.3396526 C392.024175,32.3598462 393.440666,35.5890363 394.489916,38.9795999 C394.636644,38.9614789 394.787384,38.9525192 394.940216,38.9525192 C397.053591,38.9525192 398.766819,40.6657478 398.766819,42.7791223 C398.766819,44.4698961 397.670257,45.904554 396.149519,46.4107092 C396.458744,48.6037204 396.618408,50.8464646 396.618408,53.1265004 C396.618408,54.239693 396.580349,55.3439963 396.50546,56.43818 C397.838233,57.0353373 398.766819,58.3743485 398.766819,59.9302427 C398.766819,61.8745334 397.316763,63.4801454 395.439111,63.7246188 C394.39939,68.3172304 392.698261,72.6588721 390.441177,76.6441883 C392.023807,77.1115119 393.17848,78.5768192 393.17848,80.311815 C393.17848,82.4251895 391.465252,84.138418 389.351877,84.138418 C388.14443,84.138418 387.0676,83.5791773 386.366276,82.7055837 C383.959156,85.7579428 381.18683,88.5092479 378.115855,90.8942546 C378.85625,91.5908961 379.317784,92.580008 379.317784,93.6769169 C379.317784,95.7902914 377.604556,97.5035199 375.491181,97.5035199 C373.839361,97.5035199 372.431991,96.4569028 371.896048,94.9906444 C368.528072,96.851561 364.911291,98.316956 361.108463,99.3252805 C361.46845,99.9078444 361.675877,100.59476 361.675877,101.330123 C361.675877,103.443497 359.962649,105.156726 357.849274,105.156726 C355.7359,105.156726 354.022671,103.443497 354.022671,101.330123 C354.022671,101.090893 354.044624,100.85679 354.086626,100.62972 C352.360172,100.821032 350.604815,100.918129 348.82678,100.918129 L343.82986,100.917822 C343.962179,101.305641 344.033971,101.721492 344.033971,102.154111 C344.033971,104.267485 342.320742,105.980714 340.207368,105.980714 C338.093993,105.980714 336.380765,104.267485 336.380765,102.154111 C336.380765,101.721492 336.452556,101.305641 336.584875,100.917822 L326.187954,100.917822 C326.320273,101.305641 326.392064,101.721492 326.392064,102.154111 C326.392064,104.267485 324.678836,105.980714 322.565461,105.980714 C320.452087,105.980714 318.738858,104.267485 318.738858,102.154111 C318.738858,101.721492 318.810649,101.305641 318.942969,100.917822 L308.546047,100.917822 C308.678366,101.305641 308.750157,101.721492 308.750157,102.154111 C308.750157,104.267485 307.036929,105.980714 304.923554,105.980714 C302.81018,105.980714 301.096951,104.267485 301.096951,102.154111 C301.096951,101.721492 301.168743,101.305641 301.301062,100.917822 L290.90414,100.917822 C291.036459,101.305641 291.108251,101.721492 291.108251,102.154111 C291.108251,104.267485 289.395022,105.980714 287.281648,105.980714 C285.168273,105.980714 283.455045,104.267485 283.455045,102.154111 C283.455045,101.721492 283.526836,101.305641 283.659155,100.917822 L273.262233,100.917822 C273.394553,101.305641 273.466344,101.721492 273.466344,102.154111 C273.466344,104.267485 271.753116,105.980714 269.639741,105.980714 C267.526367,105.980714 265.813138,104.267485 265.813138,102.154111 C265.813138,101.721492 265.884929,101.305641 266.017249,100.917822 L255.6236,100.917822 C255.755919,101.305641 255.82771,101.721492 255.82771,102.154111 C255.82771,104.267485 254.114482,105.980714 252.001107,105.980714 C249.887733,105.980714 248.174504,104.267485 248.174504,102.154111 C248.174504,101.721492 248.246295,101.305641 248.378615,100.917822 L237.981693,100.917822 C238.114012,101.305641 238.185803,101.721492 238.185803,102.154111 C238.185803,104.267485 236.472575,105.980714 234.3592,105.980714 C232.245826,105.980714 230.532597,104.267485 230.532597,102.154111 C230.532597,101.721492 230.604389,101.305641 230.736708,100.917822 L220.339786,100.917822 C220.472105,101.305641 220.543897,101.721492 220.543897,102.154111 C220.543897,104.267485 218.830668,105.980714 216.717294,105.980714 C214.603919,105.980714 212.890691,104.267485 212.890691,102.154111 C212.890691,101.721492 212.962482,101.305641 213.094801,100.917822 L202.697879,100.917822 C202.830199,101.305641 202.90199,101.721492 202.90199,102.154111 C202.90199,104.267485 201.188762,105.980714 199.075387,105.980714 C196.962013,105.980714 195.248784,104.267485 195.248784,102.154111 C195.248784,101.721492 195.320575,101.305641 195.452895,100.917822 L185.059246,100.917822 C185.191565,101.305641 185.263356,101.721492 185.263356,102.154111 C185.263356,104.267485 183.550128,105.980714 181.436753,105.980714 C179.323379,105.980714 177.61015,104.267485 177.61015,102.154111 C177.61015,101.721492 177.681941,101.305641 177.814261,100.917822 L167.417339,100.917822 C167.549658,101.305641 167.621449,101.721492 167.621449,102.154111 C167.621449,104.267485 165.908221,105.980714 163.794846,105.980714 C161.681472,105.980714 159.968243,104.267485 159.968243,102.154111 C159.968243,101.721492 160.040035,101.305641 160.172354,100.917822 L149.775432,100.917822 C149.907751,101.305641 149.979543,101.721492 149.979543,102.154111 C149.979543,104.267485 148.266314,105.980714 146.15294,105.980714 C144.039565,105.980714 142.326337,104.267485 142.326337,102.154111 C142.326337,101.721492 142.398128,101.305641 142.530447,100.917822 L132.133526,100.917822 C132.265845,101.305641 132.337636,101.721492 132.337636,102.154111 C132.337636,104.267485 130.624408,105.980714 128.511033,105.980714 C126.397659,105.980714 124.68443,104.267485 124.68443,102.154111 C124.68443,101.721492 124.756221,101.305641 124.888541,100.917822 L114.494892,100.917822 C114.627211,101.305641 114.699002,101.721492 114.699002,102.154111 C114.699002,104.267485 112.985774,105.980714 110.872399,105.980714 C108.759025,105.980714 107.045796,104.267485 107.045796,102.154111 C107.045796,101.721492 107.117588,101.305641 107.249907,100.917822 L96.8529849,100.917822 C96.9853041,101.305641 97.0570955,101.721492 97.0570955,102.154111 C97.0570955,104.267485 95.343867,105.980714 93.2304925,105.980714 C91.117118,105.980714 89.4038894,104.267485 89.4038894,102.154111 C89.4038894,101.721492 89.4756808,101.305641 89.608,100.917822 L79.2110782,100.917822 C79.3433974,101.305641 79.4151888,101.721492 79.4151888,102.154111 C79.4151888,104.267485 77.7019603,105.980714 75.5885858,105.980714 C73.4752113,105.980714 71.7619828,104.267485 71.7619828,102.154111 C71.7619828,101.721492 71.8337742,101.305641 71.9660934,100.917822 L61.5691715,100.917822 C61.7014907,101.305641 61.7732821,101.721492 61.7732821,102.154111 C61.7732821,104.267485 60.0600536,105.980714 57.9466791,105.980714 C55.8333046,105.980714 54.1200761,104.267485 54.1200761,102.154111 C54.1200761,101.721492 54.1918675,101.305641 54.3241867,100.917822 L51.0674171,100.918129 C48.6731254,100.918129 46.3199564,100.742062 44.0201511,100.402169 C44.0953152,100.698872 44.1346482,101.009904 44.1346482,101.330123 C44.1346482,103.443497 42.4214196,105.156726 40.3080452,105.156726 C38.1946707,105.156726 36.4814421,103.443497 36.4814421,101.330123 C36.4814421,100.415153 36.8025686,99.5751859 37.3382643,98.9167794 C33.490133,97.7648028 29.8446879,96.1402746 26.4704253,94.1108345 C26.2558196,96.0202675 24.6358315,97.5035199 22.6694112,97.5035199 C20.5560367,97.5035199 18.8428082,95.7902914 18.8428082,93.6769169 C18.8428082,92.1751402 19.7079217,90.8754216 20.9669776,90.2489322 C17.9309475,87.785263 15.2031982,84.9556563 12.850486,81.8279149 C12.2025844,82.3351449 11.3858593,82.6371103 10.4986064,82.6371103 C8.38523194,82.6371103 6.67200341,80.9238818 6.67200341,78.8105073 C6.67200341,77.3183368 7.5260848,76.0256478 8.77206032,75.3946273 C7.06022471,72.1545662 5.71133458,68.6914993 4.77814796,65.0616349 C4.55935368,65.1011712 4.33198012,65.1218537 4.09977591,65.1218537 C1.98640141,65.1218537 0.273172885,63.4086252 0.273172885,61.2952507 C0.273172885,59.3940567 1.65965802,57.8166938 3.47666347,57.5191266 C3.34318699,56.0734999 3.27578831,54.607871 3.27578831,53.1265004 C3.27578831,50.7363818 3.45124214,48.3872426 3.78997269,46.09126 C1.82114492,45.9348646 0.273172885,44.2875496 0.273172885,42.2786864 C0.273172885,40.1653119 1.98640141,38.4520833 4.09977591,38.4520833 C4.5894047,38.4520833 5.05755521,38.5440428 5.4878983,38.7116325 C6.37867351,35.8926051 7.52436606,33.18506 8.89768305,30.6175684 C7.58413205,30.0133276 6.67200341,28.6843223 6.67200341,27.142278 C6.67200341,25.0289035 8.38523194,23.3156749 10.4986064,23.3156749 C11.4507653,23.3156749 12.3217001,23.6634362 12.9913254,24.2388731 C15.2169439,21.3095743 17.7742453,18.6438162 20.6065665,16.2985301 C19.5454782,15.6193168 18.8428082,14.4299769 18.8428082,13.0765198 C18.8428082,10.9631453 20.5560367,9.24991674 22.6694112,9.24991674 C24.4779171,9.24991674 25.9933976,10.504508 26.3929992,12.1908371 C29.7020618,10.1898697 33.2752219,8.58012015 37.0468885,7.42444929 C36.688392,6.84401034 36.4814421,6.15782989 36.4814421,5.42331372 C36.4814421,3.30993922 38.1946707,1.59671069 40.3080452,1.59671069 C42.4214196,1.59671069 44.1346482,3.30993922 44.1346482,5.42331372 C44.1346482,5.56365499 44.1270932,5.70223171 44.1123678,5.83865934 C46.3820683,5.50632256 48.7047204,5.33487161 51.0674171,5.33487161 L54.1908593,5.33568144 C54.1444115,5.09739545 54.1200761,4.8512027 54.1200761,4.59932611 C54.1200761,2.48595162 55.8333046,0.772723092 57.9466791,0.772723092 C60.0600536,0.772723092 61.7732821,2.48595162 61.7732821,4.59932611 C61.7732821,4.8512027 61.7489468,5.09739545 61.702499,5.33568144 L71.8327659,5.33568144 C71.7863181,5.09739545 71.7619828,4.8512027 71.7619828,4.59932611 C71.7619828,2.48595162 73.4752113,0.772723092 75.5885858,0.772723092 C77.7019603,0.772723092 79.4151888,2.48595162 79.4151888,4.59932611 C79.4151888,4.8512027 79.3908534,5.09739545 79.3444056,5.33568144 L89.4746726,5.33568144 C89.4282248,5.09739545 89.4038894,4.8512027 89.4038894,4.59932611 C89.4038894,2.48595162 91.117118,0.772723092 93.2304925,0.772723092 C95.343867,0.772723092 97.0570955,2.48595162 97.0570955,4.59932611 C97.0570955,4.8512027 97.0327601,5.09739545 96.9863123,5.33568144 L107.116579,5.33568144 C107.070131,5.09739545 107.045796,4.8512027 107.045796,4.59932611 C107.045796,2.48595162 108.759025,0.772723092 110.872399,0.772723092 C112.985774,0.772723092 114.699002,2.48595162 114.699002,4.59932611 C114.699002,4.8512027 114.674667,5.09739545 114.628219,5.33568144 L124.755213,5.33568144 C124.708765,5.09739545 124.68443,4.8512027 124.68443,4.59932611 C124.68443,2.48595162 126.397659,0.772723092 128.511033,0.772723092 C130.624408,0.772723092 132.337636,2.48595162 132.337636,4.59932611 C132.337636,4.8512027 132.313301,5.09739545 132.266853,5.33568144 L142.39712,5.33568144 C142.350672,5.09739545 142.326337,4.8512027 142.326337,4.59932611 C142.326337,2.48595162 144.039565,0.772723092 146.15294,0.772723092 C148.266314,0.772723092 149.979543,2.48595162 149.979543,4.59932611 C149.979543,4.8512027 149.955207,5.09739545 149.90876,5.33568144 L160.039027,5.33568144 C159.992579,5.09739545 159.968243,4.8512027 159.968243,4.59932611 C159.968243,2.48595162 161.681472,0.772723092 163.794846,0.772723092 C165.908221,0.772723092 167.621449,2.48595162 167.621449,4.59932611 C167.621449,4.8512027 167.597114,5.09739545 167.550666,5.33568144 L177.680933,5.33568144 C177.634485,5.09739545 177.61015,4.8512027 177.61015,4.59932611 C177.61015,2.48595162 179.323379,0.772723092 181.436753,0.772723092 C183.550128,0.772723092 185.263356,2.48595162 185.263356,4.59932611 C185.263356,4.8512027 185.239021,5.09739545 185.192573,5.33568144 L195.319567,5.33568144 C195.273119,5.09739545 195.248784,4.8512027 195.248784,4.59932611 C195.248784,2.48595162 196.962013,0.772723092 199.075387,0.772723092 C201.188762,0.772723092 202.90199,2.48595162 202.90199,4.59932611 C202.90199,4.8512027 202.877655,5.09739545 202.831207,5.33568144 L212.961474,5.33568144 C212.915026,5.09739545 212.890691,4.8512027 212.890691,4.59932611 C212.890691,2.48595162 214.603919,0.772723092 216.717294,0.772723092 C218.830668,0.772723092 220.543897,2.48595162 220.543897,4.59932611 C220.543897,4.8512027 220.519561,5.09739545 220.473114,5.33568144 L230.603381,5.33568144 C230.556933,5.09739545 230.532597,4.8512027 230.532597,4.59932611 C230.532597,2.48595162 232.245826,0.772723092 234.3592,0.772723092 C236.472575,0.772723092 238.185803,2.48595162 238.185803,4.59932611 C238.185803,4.8512027 238.161468,5.09739545 238.11502,5.33568144 L248.245287,5.33568144 C248.198839,5.09739545 248.174504,4.8512027 248.174504,4.59932611 C248.174504,2.48595162 249.887733,0.772723092 252.001107,0.772723092 C254.114482,0.772723092 255.82771,2.48595162 255.82771,4.59932611 C255.82771,4.8512027 255.803375,5.09739545 255.756927,5.33568144 L265.883921,5.33568144 C265.837473,5.09739545 265.813138,4.8512027 265.813138,4.59932611 C265.813138,2.48595162 267.526367,0.772723092 269.639741,0.772723092 C271.753116,0.772723092 273.466344,2.48595162 273.466344,4.59932611 C273.466344,4.8512027 273.442009,5.09739545 273.395561,5.33568144 L283.525828,5.33568144 C283.47938,5.09739545 283.455045,4.8512027 283.455045,4.59932611 C283.455045,2.48595162 285.168273,0.772723092 287.281648,0.772723092 C289.395022,0.772723092 291.108251,2.48595162 291.108251,4.59932611 C291.108251,4.8512027 291.083915,5.09739545 291.037468,5.33568144 L301.167735,5.33568144 C301.121287,5.09739545 301.096951,4.8512027 301.096951,4.59932611 C301.096951,2.48595162 302.81018,0.772723092 304.923554,0.772723092 C307.036929,0.772723092 308.750157,2.48595162 308.750157,4.59932611 C308.750157,4.8512027 308.725822,5.09739545 308.679374,5.33568144 L318.809641,5.33568144 C318.763193,5.09739545 318.738858,4.8512027 318.738858,4.59932611 C318.738858,2.48595162 320.452087,0.772723092 322.565461,0.772723092 C324.678836,0.772723092 326.392064,2.48595162 326.392064,4.59932611 C326.392064,4.8512027 326.367729,5.09739545 326.321281,5.33568144 L336.451548,5.33568144 C336.4051,5.09739545 336.380765,4.8512027 336.380765,4.59932611 C336.380765,2.48595162 338.093993,0.772723092 340.207368,0.772723092 Z"></path><path id="Combined-Shape--globalStyle1/objects/building2/car/6" fill="#717070" d="M344.313686,13.0916281 C365.871569,13.0916281 383.347687,30.5677454 383.347687,52.1256286 C383.347687,73.6835118 365.871569,91.159629 344.313686,91.159629 L53.5787669,91.159629 C32.0208837,91.159629 14.5447664,73.6835118 14.5447664,52.1256286 C14.5447664,30.5677454 32.0208837,13.0916281 53.5787669,13.0916281 L344.313686,13.0916281 Z M107.339887,55.0681446 C100.673501,55.0681446 95.2693264,60.4723189 95.2693264,67.1387057 C95.2693264,73.8050925 100.673501,79.2092668 107.339887,79.2092668 C114.006274,79.2092668 119.410449,73.8050925 119.410449,67.1387057 C119.410449,60.4723189 114.006274,55.0681446 107.339887,55.0681446 Z M180.624959,55.0681446 C173.958572,55.0681446 168.554398,60.4723189 168.554398,67.1387057 C168.554398,73.8050925 173.958572,79.2092668 180.624959,79.2092668 C187.291346,79.2092668 192.69552,73.8050925 192.69552,67.1387057 C192.69552,60.4723189 187.291346,55.0681446 180.624959,55.0681446 Z M290.552566,55.0681446 C283.886179,55.0681446 278.482004,60.4723189 278.482004,67.1387057 C278.482004,73.8050925 283.886179,79.2092668 290.552566,79.2092668 C297.218952,79.2092668 302.623127,73.8050925 302.623127,67.1387057 C302.623127,60.4723189 297.218952,55.0681446 290.552566,55.0681446 Z M143.982423,55.0681446 C137.316036,55.0681446 131.911862,60.4723189 131.911862,67.1387057 C131.911862,73.8050925 137.316036,79.2092668 143.982423,79.2092668 C150.64881,79.2092668 156.052984,73.8050925 156.052984,67.1387057 C156.052984,60.4723189 150.64881,55.0681446 143.982423,55.0681446 Z M253.91003,55.0681446 C247.243643,55.0681446 241.839469,60.4723189 241.839469,67.1387057 C241.839469,73.8050925 247.243643,79.2092668 253.91003,79.2092668 C260.576417,79.2092668 265.980591,73.8050925 265.980591,67.1387057 C265.980591,60.4723189 260.576417,55.0681446 253.91003,55.0681446 Z M217.267494,55.0681446 C210.601108,55.0681446 205.196933,60.4723189 205.196933,67.1387057 C205.196933,73.8050925 210.601108,79.2092668 217.267494,79.2092668 C223.933881,79.2092668 229.338055,73.8050925 229.338055,67.1387057 C229.338055,60.4723189 223.933881,55.0681446 217.267494,55.0681446 Z M143.982423,14.2844925 C138.841697,14.2844925 134.674315,18.4518743 134.674315,23.5926003 C134.674315,28.7333263 138.841697,32.9007081 143.982423,32.9007081 C149.123149,32.9007081 153.290531,28.7333263 153.290531,23.5926003 C153.290531,18.4518743 149.123149,14.2844925 143.982423,14.2844925 Z M253.91003,14.2844925 C248.769304,14.2844925 244.601922,18.4518743 244.601922,23.5926003 C244.601922,28.7333263 248.769304,32.9007081 253.91003,32.9007081 C259.050756,32.9007081 263.218138,28.7333263 263.218138,23.5926003 C263.218138,18.4518743 259.050756,14.2844925 253.91003,14.2844925 Z"></path><path id="Combined-Shape--globalStyle1/objects/building2/car/6" fill="#B3B3B3" d="M341.296703,21.4052953 C358.263075,21.4052953 372.017036,35.159257 372.017036,52.1256286 C372.017036,69.0920002 358.263075,82.8459619 341.296703,82.8459619 C329.783397,82.8459619 319.749381,76.5123719 314.488761,67.1392993 L84.5512317,67.1392993 C79.2906116,76.5123719 69.256595,82.8459619 57.7432892,82.8459619 C40.7769176,82.8459619 27.0229559,69.0920002 27.0229559,52.1256286 C27.0229559,35.159257 40.7769176,21.4052953 57.7432892,21.4052953 C67.9793713,21.4052953 77.0461681,26.4116013 82.6287439,34.1092777 L316.411248,34.1092777 C321.993824,26.4116013 331.060621,21.4052953 341.296703,21.4052953 Z"></path><circle id="Oval-Copy-53--globalStyle1/objects/building2/car/6" cx="57.466" cy="52.126" r="23.601" fill="#D8D8D8" transform="matrix(-1 0 0 1 114.932 0)"></circle><circle id="Oval-Copy-54--globalStyle1/objects/building2/car/6" cx="341.151" cy="52.126" r="23.601" fill="#D8D8D8" transform="matrix(-1 0 0 1 682.302 0)"></circle><circle id="Oval-Copy-68--globalStyle1/objects/building2/car/6" cx="57.466" cy="52.126" r="16.858" fill="#B3B3B3" transform="matrix(-1 0 0 1 114.932 0)"></circle><circle id="Oval-Copy-118--globalStyle1/objects/building2/car/6" cx="341.151" cy="52.126" r="16.858" fill="#B3B3B3" transform="matrix(-1 0 0 1 682.302 0)"></circle><path id="shadow--globalStyle1/objects/building2/car/6" fill="#000" fill-opacity=".15" d="M57.7848185 82.8459619C74.7937086 82.8459619 88.5821383 69.0575321 88.5821383 52.0486421 88.5821383 44.3895367 85.7862556 37.3834447 81.1594244 31.9953005 80.9059995 31.7001763 80.5136813 31.2685897 79.9824698 30.7005407L35.6554368 73.4674876C36.1074957 73.9202062 36.3335252 74.1465656 36.3335252 74.1465656 41.8791239 79.5308856 49.4448324 82.8459619 57.7848185 82.8459619zM341.219717 82.8459619C358.228607 82.8459619 372.017036 69.0575321 372.017036 52.0486421 372.017036 44.3895367 369.221154 37.3834447 364.594323 31.9953005 364.340898 31.7001763 363.948579 31.2685897 363.417368 30.7005407L319.090335 73.4674876C319.542394 73.9202062 319.768423 74.1465656 319.768423 74.1465656 325.314022 79.5308856 332.879731 82.8459619 341.219717 82.8459619z"></path></g><circle id="Oval--globalStyle1/objects/building2/car/6" cx="364.675" cy="271.573" r="6.382" fill="#423E3E"></circle><path id="Path-204--globalStyle1/objects/building2/car/6" fill="#423E3E" fill-rule="nonzero" d="M829.968485,679.630975 C830.91791,679.630975 831.68757,680.400636 831.68757,681.35006 C831.68757,682.261507 830.978251,683.007284 830.081516,683.065488 L829.968485,683.069145 L777.042765,683.069145 C776.093341,683.069145 775.32368,682.299484 775.32368,681.35006 C775.32368,680.438612 776.033,679.692835 776.929735,679.634632 L777.042765,679.630975 L829.968485,679.630975 Z"></path><path id="Path-204-Copy-2--globalStyle1/objects/building2/car/6" fill="#423E3E" fill-rule="nonzero" d="M829.968485,686.559618 C830.91791,686.559618 831.68757,687.329278 831.68757,688.278703 C831.68757,689.19015 830.978251,689.935927 830.081516,689.994131 L829.968485,689.997788 L777.042765,689.997788 C776.093341,689.997788 775.32368,689.228127 775.32368,688.278703 C775.32368,687.367255 776.033,686.621478 776.929735,686.563275 L777.042765,686.559618 L829.968485,686.559618 Z"></path><path id="Path-204-Copy-3--globalStyle1/objects/building2/car/6" fill="#423E3E" fill-rule="nonzero" d="M829.968485,672.702332 C830.91791,672.702332 831.68757,673.471993 831.68757,674.421417 C831.68757,675.332864 830.978251,676.078641 830.081516,676.136845 L829.968485,676.140502 L777.042765,676.140502 C776.093341,676.140502 775.32368,675.370841 775.32368,674.421417 C775.32368,673.50997 776.033,672.764193 776.929735,672.705989 L777.042765,672.702332 L829.968485,672.702332 Z"></path><path id="Path-204-Copy-4--globalStyle1/objects/building2/car/6" fill="#423E3E" fill-rule="nonzero" d="M829.968485,693.488261 C830.91791,693.488261 831.68757,694.257921 831.68757,695.207346 C831.68757,696.118793 830.978251,696.86457 830.081516,696.922774 L829.968485,696.92643 L777.042765,696.92643 C776.093341,696.92643 775.32368,696.15677 775.32368,695.207346 C775.32368,694.295898 776.033,693.550121 776.929735,693.491917 L777.042765,693.488261 L829.968485,693.488261 Z"></path><path id="Path-204-Copy-5--globalStyle1/objects/building2/car/6" fill="#423E3E" fill-rule="nonzero" d="M829.968485,700.416904 C830.91791,700.416904 831.68757,701.186564 831.68757,702.135989 C831.68757,703.047436 830.978251,703.793213 830.081516,703.851417 L829.968485,703.855073 L777.042765,703.855073 C776.093341,703.855073 775.32368,703.085413 775.32368,702.135989 C775.32368,701.224541 776.033,700.478764 776.929735,700.42056 L777.042765,700.416904 L829.968485,700.416904 Z"></path><rect id="shadow--globalStyle1/objects/building2/car/6" width="16.601" height="3.543" x="611.432" y="698.593" fill="#000" fill-opacity=".3" rx="1.771"></rect></g></g></svg></g></g></svg>