<?xml version="1.0" encoding="UTF-8"?>
<svg id="illustration-builder" width="910" height="800" viewBox="-10 -30 980 860" version="1.1" xmlns="http://www.w3.org/2000/svg" xmlns:xlink="http://www.w3.org/1999/xlink" style="pointer-events: none;"><g transform="translate(68.5,60.5)">
<g><svg xmlns="http://www.w3.org/2000/svg" width="773" height="679" viewBox="0 0 773 679"><g id="Symbols--globalStyle1/bgelements/music/2" fill="none" fill-rule="evenodd" stroke="none" stroke-width="1"><g id="globalStyle1/bgelements/music/2--globalStyle1/bgelements/music/2"><path id="Combined-Shape--globalStyle1/bgelements/music/2" fill="#979797" fill-rule="nonzero" d="M772.788397,30.9435785 C773.427677,30.9435785 773.945916,31.4618175 773.945916,32.1010977 C773.945916,32.2808138 773.90496,32.4509641 773.831872,32.6027239 C774.066347,33.0877842 773.932004,33.6772102 773.505582,34.0129529 L773.4147,34.0777262 L723.592405,66.1315785 L772.788397,66.1321625 C773.427677,66.1321625 773.945916,66.6504015 773.945916,67.2896817 C773.945916,67.8913572 773.486853,68.3858128 772.899874,68.4419021 L772.788397,68.4472009 L1.10892408,68.4472009 C0.469643868,68.4472009 -0.0485951344,67.9289619 -0.0485951344,67.2896817 C-0.0485951344,66.6880062 0.410467788,66.1935506 0.99744725,66.1374613 L1.10892408,66.1321625 L42.1334049,66.1315785 L5.59283435,33.9732136 C5.37492137,33.7814337 5.24633896,33.5259271 5.21043501,33.2591797 L1.10892408,33.2586169 C0.469643868,33.2586169 -0.0485951344,32.7403779 -0.0485951344,32.1010977 C-0.0485951344,31.4994222 0.410467788,31.0049666 0.99744725,30.9488773 L1.10892408,30.9435785 L772.788397,30.9435785 Z M78.3586694,34.6862239 L45.8844049,66.1315785 L113.405405,66.1315785 L78.3586694,34.6862239 Z M148.19489,34.7626202 L117.093405,66.1315785 L178.263405,66.1315785 L148.19489,34.7626202 Z M213.255186,34.7278946 L181.807405,66.1315785 L245.613405,66.1315785 L213.255186,34.7278946 Z M281.795757,34.6877673 L249.260405,66.1315785 L316.621405,66.1315785 L281.795757,34.6877673 Z M355.248068,34.6561284 L320.416405,66.1315785 L390.891405,66.1315785 L355.248068,34.6561284 Z M429.888765,34.6653886 L394.722405,66.1315785 L464.180405,66.1315785 L429.888765,34.6653886 Z M506.547404,34.6345214 L468.076405,66.1315785 L540.998405,66.1315785 L506.547404,34.6345214 Z M587.907886,34.5720154 L545.044405,66.1315785 L626.054405,66.1315785 L587.907886,34.5720154 Z M674.905486,34.5257146 L630.278405,66.1315785 L719.011405,66.1315785 L674.905486,34.5257146 Z M627.635405,33.2585785 L589.952405,33.2585785 L627.635405,64.4345785 L627.635405,33.2585785 Z M770.408405,33.2585785 L722.011405,33.2585785 L722.011405,64.3965785 L770.408405,33.2585785 Z M720.468405,33.2585785 L677.112405,33.2585785 L720.468405,64.3265785 L720.468405,33.2585785 Z M585.786405,33.2585785 L543.676405,33.2585785 L543.676405,64.2635785 L585.786405,33.2585785 Z M76.5044049,33.2585785 L44.5784049,33.2585785 L44.5784049,64.1735785 L76.5044049,33.2585785 Z M427.989405,33.2585785 L393.507405,33.2585785 L393.507405,64.1125785 L427.989405,33.2585785 Z M504.573405,33.2585785 L466.894405,33.2585785 L466.894405,64.1065785 L504.573405,33.2585785 Z M672.688405,33.2585785 L629.178405,33.2585785 L629.178405,64.0725785 L672.688405,33.2585785 Z M465.350405,33.2585785 L431.779405,33.2585785 L465.350405,64.0635785 L465.350405,33.2585785 Z M353.341405,33.2585785 L319.271405,33.2585785 L319.271405,64.0455785 L353.341405,33.2585785 Z M114.545405,33.2585785 L80.2344049,33.2585785 L114.545405,64.0435785 L114.545405,33.2585785 Z M542.132405,33.2585785 L508.474405,33.2585785 L542.132405,64.0315785 L542.132405,33.2585785 Z M317.728405,33.2585785 L283.668405,33.2585785 L317.728405,64.0125785 L317.728405,33.2585785 Z M391.964405,33.2585785 L357.163405,33.2585785 L391.964405,63.9915785 L391.964405,33.2585785 Z M179.402405,33.2585785 L149.960405,33.2585785 L179.402405,63.9755785 L179.402405,33.2585785 Z M279.943405,33.2585785 L248.200405,33.2585785 L248.200405,63.9355785 L279.943405,33.2585785 Z M246.656405,33.2585785 L215.065405,33.2585785 L246.656405,63.9165785 L246.656405,33.2585785 Z M146.425405,33.2585785 L116.088405,33.2585785 L116.088405,63.8575785 L146.425405,33.2585785 Z M43.0354049,33.2585785 L8.28540487,33.2585785 L43.0354049,63.8415785 L43.0354049,33.2585785 Z M211.450405,33.2585785 L180.945405,33.2585785 L180.945405,63.7205785 L211.450405,33.2585785 Z"></path><g id="Group--globalStyle1/bgelements/music/2" transform="translate(-3.341 58)"><path id="[color:music2]lighter--globalStyle1/bgelements/music/2" fill="#737373" d="M12.1485407,44.2743287 L40.0354424,66.0619642 L40.0354424,66.0619642 L66.9661259,31.5922612 L39.0792242,9.80462575 C32.5511294,4.70431909 23.1244474,5.8617701 18.0241408,12.3898649 L9.56330156,23.2192453 C4.4629949,29.7473401 5.62044591,39.1740221 12.1485407,44.2743287 Z" opacity="1.00"></path><path id="shadow--globalStyle1/bgelements/music/2" fill="#000" fill-opacity=".08" d="M12.1485407,44.2743287 L40.0354424,66.0619642 L40.0354424,66.0619642 L66.9661259,31.5922612 L39.0792242,9.80462575 C32.5511294,4.70431909 23.1244474,5.8617701 18.0241408,12.3898649 L9.56330156,23.2192453 C4.4629949,29.7473401 5.62044591,39.1740221 12.1485407,44.2743287 Z"></path><polygon id="Path-101--globalStyle1/bgelements/music/2" fill="#D8D8D8" points="37.2526585 9.15767769 43.8112354 6.97185107 56.1449907 17.3932707 55.8114895 23.7568525"></polygon><polygon id="[color:music2]lighter--globalStyle1/bgelements/music/2" fill="#737373" points="45.0758557 56.0033196 56.1517189 95.7572307 98.4397035 43.1625401 56.1517189 40.2710618" opacity="1.00"></polygon><polygon id="[color:music2]lighter--globalStyle1/bgelements/music/2" fill="#737373" points="51.9577865 30.5922442 64.8459967 39.1208103 102.444557 40.2710618 71.3371247 13.6732211" opacity="1.00"></polygon><polygon id="[color:music2]lighter--globalStyle1/bgelements/music/2" fill="#737373" points="38.8579027 47.779196 46.9314814 60.9571977 46.7688614 98.5729967 21.2728571 66.5562634" opacity="1.00"></polygon><path id="shadow--globalStyle1/bgelements/music/2" fill="#000" fill-opacity=".2" d="M56.1517189,40.2710618 L98.4397035,43.1625401 L56.1517189,95.7572307 L46.9238571,62.6392211 L46.7688614,98.5729967 L21.2728571,66.5562634 L38.8579027,47.779196 L46.0578571,59.5312211 L45.0758557,56.0033196 L56.1517189,40.2710618 Z M71.3371247,13.6732211 L102.444557,40.2710618 L64.8459967,39.1208103 L51.9577865,30.5922442 L71.3371247,13.6732211 Z" opacity=".786"></path><path id="Path-96--globalStyle1/bgelements/music/2" fill="#FFF" d="M37.0510862,52.8651195 C36.6102886,57.2316232 37.6032589,60.4525236 40.0299969,62.5278207 C43.6701039,65.6407663 53.1493888,65.3893706 61.6436131,52.8651195 C70.1378374,40.3408684 66.2533892,34.4163954 64.8803326,32.2237376 C63.507276,30.0310798 58.176058,29.625127 55.0669223,30.9244323 C52.9941651,31.7906358 46.9888864,39.1041982 37.0510862,52.8651195 Z"></path><polygon id="[color:music2]lighter--globalStyle1/bgelements/music/2" fill="#737373" points="29.2560577 69.777709 69.0347223 21.2901609 50.1635994 24.8560446 29.2560577 49.7497255" opacity="1.00"></polygon></g><g id="Group-Copy-2--globalStyle1/bgelements/music/2" transform="matrix(-1 0 0 1 625 58)"><path id="[color:music2]lighter--globalStyle1/bgelements/music/2" fill="#737373" d="M12.194223,44.2743287 L40.0811246,66.0619642 L40.0811246,66.0619642 L67.0118081,31.5922612 L39.1249064,9.80462575 C32.5968116,4.70431909 23.1701297,5.8617701 18.069823,12.3898649 L9.60898378,23.2192453 C4.50867713,29.7473401 5.66612813,39.1740221 12.194223,44.2743287 Z" opacity="1.00"></path><path id="shadow--globalStyle1/bgelements/music/2" fill="#000" fill-opacity=".08" d="M12.194223,44.2743287 L40.0811246,66.0619642 L40.0811246,66.0619642 L67.0118081,31.5922612 L39.1249064,9.80462575 C32.5968116,4.70431909 23.1701297,5.8617701 18.069823,12.3898649 L9.60898378,23.2192453 C4.50867713,29.7473401 5.66612813,39.1740221 12.194223,44.2743287 Z"></path><polygon id="Path-101--globalStyle1/bgelements/music/2" fill="#D8D8D8" points="37.2983407 9.15767769 43.8569176 6.97185107 56.1906729 17.3932707 55.8571717 23.7568525"></polygon><polygon id="[color:music2]lighter--globalStyle1/bgelements/music/2" fill="#737373" points="45.1215379 56.0033196 56.1974011 95.7572307 98.4853857 43.1625401 56.1974011 40.2710618" opacity="1.00"></polygon><polygon id="[color:music2]lighter--globalStyle1/bgelements/music/2" fill="#737373" points="52.0034687 30.5922442 64.8916789 39.1208103 102.490239 40.2710618 71.3828069 13.6732211" opacity="1.00"></polygon><polygon id="[color:music2]lighter--globalStyle1/bgelements/music/2" fill="#737373" points="38.9035849 47.779196 46.9771636 60.9571977 46.8145436 98.5729967 21.3185393 66.5562634" opacity="1.00"></polygon><path id="shadow--globalStyle1/bgelements/music/2" fill="#000" fill-opacity=".2" d="M56.1974011,40.2710618 L98.4853857,43.1625401 L56.1974011,95.7572307 L46.9695393,62.6392211 L46.8145436,98.5729967 L21.3185393,66.5562634 L38.9035849,47.779196 L46.1035393,59.5312211 L45.1215379,56.0033196 L56.1974011,40.2710618 Z M71.3828069,13.6732211 L102.490239,40.2710618 L64.8916789,39.1208103 L52.0034687,30.5922442 L71.3828069,13.6732211 Z" opacity=".786"></path><path id="Path-96--globalStyle1/bgelements/music/2" fill="#FFF" d="M37.0967684,52.8651195 C36.6559709,57.2316232 37.6489411,60.4525236 40.0756791,62.5278207 C43.7157861,65.6407663 53.195071,65.3893706 61.6892953,52.8651195 C70.1835196,40.3408684 66.2990714,34.4163954 64.9260148,32.2237376 C63.5529583,30.0310798 58.2217402,29.625127 55.1126045,30.9244323 C53.0398473,31.7906358 47.0345686,39.1041982 37.0967684,52.8651195 Z"></path><polygon id="[color:music2]lighter--globalStyle1/bgelements/music/2" fill="#737373" points="29.3017399 69.777709 69.0804045 21.2901609 50.2092816 24.8560446 29.3017399 49.7497255" opacity="1.00"></polygon></g><g id="Group-Copy-4--globalStyle1/bgelements/music/2" transform="scale(-1 1) rotate(51 -227.098 -382.878)"><path id="[color:music2]lighter--globalStyle1/bgelements/music/2" fill="#737373" d="M11.9714929,23.8401305 L12.5891159,59.2237268 L12.5891159,59.2237268 L56.3251346,58.4603117 L55.7075116,23.0767155 C55.5629312,14.7937059 48.7310196,8.19620565 40.4480101,8.34078612 L26.7074223,8.58062898 C18.4244127,8.72520944 11.8269125,15.557121 11.9714929,23.8401305 Z" transform="rotate(-51 34.017 33.651)" opacity="1.00"></path><path id="shadow--globalStyle1/bgelements/music/2" fill="#000" fill-opacity=".08" d="M11.9714929,23.8401305 L12.5891159,59.2237268 L12.5891159,59.2237268 L56.3251346,58.4603117 L55.7075116,23.0767155 C55.5629312,14.7937059 48.7310196,8.19620565 40.4480101,8.34078612 L26.7074223,8.58062898 C18.4244127,8.72520944 11.8269125,15.557121 11.9714929,23.8401305 Z" transform="rotate(-51 34.017 33.651)"></path><polygon id="Path-101--globalStyle1/bgelements/music/2" fill="#D8D8D8" points="45.7174027 2.85336017 51.5435553 6.57474651 51.2064748 22.7182865 46.0511638 26.4638392" transform="rotate(-51 48.63 14.659)"></polygon><polygon id="[color:music2]lighter--globalStyle1/bgelements/music/2" fill="#737373" points="54.3698721 42.7156452 30.4455472 76.3411544 97.9319896 76.1061796 73.5663992 41.422577" transform="rotate(-51 64.189 58.882)" opacity="1.00"></polygon><polygon id="[color:music2]lighter--globalStyle1/bgelements/music/2" fill="#737373" points="65.2433532 12.6788034 66.726226 28.0620245 89.4938531 58.0054702 90.5877164 17.0918916" transform="rotate(-51 77.916 35.342)" opacity="1.00"></polygon><polygon id="[color:music2]lighter--globalStyle1/bgelements/music/2" fill="#737373" points="59.7127752 54.797613 54.552412 69.3651473 25.2171057 92.9111572 34.0536253 52.9482572" transform="rotate(-51 42.465 72.93)" opacity="1.00"></polygon><path id="Path-96--globalStyle1/bgelements/music/2" fill="#FFF" d="M39.4497695,38.849096 C35.7789559,41.2544618 33.9007426,44.0531229 33.8151296,47.2450793 C33.68671,52.0330138 39.8475884,59.2415934 54.9263482,57.9610789 C70.0051079,56.6805644 72.1647257,49.9333895 73.0046483,47.4864399 C73.844571,45.0394903 70.8050113,40.6408814 67.8386189,39.0423084 C65.861024,37.9765931 56.3980742,37.9121889 39.4497695,38.849096 Z" transform="rotate(-51 53.48 48.151)"></path><polygon id="[color:music2]lighter--globalStyle1/bgelements/music/2" fill="#737373" points="13.2602636 48.0056779 75.9756906 48.4053036 61.3284959 35.9837701 28.8249301 35.4016595" transform="rotate(-51 44.618 41.903)" opacity="1.00"></polygon></g><g id="Group-Copy--globalStyle1/bgelements/music/2" transform="translate(146 58)"><path id="[color:music2]lighter--globalStyle1/bgelements/music/2" fill="#737373" d="M12.0048263,44.2743287 L39.891728,66.0619642 L39.891728,66.0619642 L66.8224115,31.5922612 L38.9355098,9.80462575 C32.407415,4.70431909 22.980733,5.8617701 17.8804264,12.3898649 L9.41958715,23.2192453 C4.31928049,29.7473401 5.47673149,39.1740221 12.0048263,44.2743287 Z" opacity="1.00"></path><path id="shadow--globalStyle1/bgelements/music/2" fill="#000" fill-opacity=".08" d="M12.0048263,44.2743287 L39.891728,66.0619642 L39.891728,66.0619642 L66.8224115,31.5922612 L38.9355098,9.80462575 C32.407415,4.70431909 22.980733,5.8617701 17.8804264,12.3898649 L9.41958715,23.2192453 C4.31928049,29.7473401 5.47673149,39.1740221 12.0048263,44.2743287 Z"></path><polygon id="Path-101--globalStyle1/bgelements/music/2" fill="#D8D8D8" points="37.108944 9.15767769 43.667521 6.97185107 56.0012763 17.3932707 55.6677751 23.7568525"></polygon><polygon id="[color:music2]lighter--globalStyle1/bgelements/music/2" fill="#737373" points="44.9321413 56.0033196 56.0080045 95.7572307 98.2959891 43.1625401 56.0080045 40.2710618" opacity="1.00"></polygon><polygon id="[color:music2]lighter--globalStyle1/bgelements/music/2" fill="#737373" points="51.8140721 30.5922442 64.7022823 39.1208103 102.300842 40.2710618 71.1934102 13.6732211" opacity="1.00"></polygon><polygon id="[color:music2]lighter--globalStyle1/bgelements/music/2" fill="#737373" points="38.7141883 47.779196 46.787767 60.9571977 46.625147 98.5729967 21.1291427 66.5562634" opacity="1.00"></polygon><path id="shadow--globalStyle1/bgelements/music/2" fill="#000" fill-opacity=".2" d="M56.0080045,40.2710618 L98.2959891,43.1625401 L56.0080045,95.7572307 L46.7801427,62.6392211 L46.625147,98.5729967 L21.1291427,66.5562634 L38.7141883,47.779196 L45.9141427,59.5312211 L44.9321413,56.0033196 L56.0080045,40.2710618 Z M71.1934102,13.6732211 L102.300842,40.2710618 L64.7022823,39.1208103 L51.8140721,30.5922442 L71.1934102,13.6732211 Z" opacity=".786"></path><path id="Path-96--globalStyle1/bgelements/music/2" fill="#FFF" d="M36.9073718,52.8651195 C36.4665742,57.2316232 37.4595445,60.4525236 39.8862825,62.5278207 C43.5263894,65.6407663 53.0056744,65.3893706 61.4998987,52.8651195 C69.994123,40.3408684 66.1096748,34.4163954 64.7366182,32.2237376 C63.3635616,30.0310798 58.0323436,29.625127 54.9232078,30.9244323 C52.8504507,31.7906358 46.845172,39.1041982 36.9073718,52.8651195 Z"></path><polygon id="[color:music2]lighter--globalStyle1/bgelements/music/2" fill="#737373" points="29.1123433 69.777709 68.8910079 21.2901609 50.019885 24.8560446 29.1123433 49.7497255" opacity="1.00"></polygon></g><g id="Group-Copy-3--globalStyle1/bgelements/music/2" transform="matrix(-1 0 0 1 777.341 58)"><path id="[color:music2]lighter--globalStyle1/bgelements/music/2" fill="#737373" d="M12.2512195,44.2743287 L40.1381212,66.0619642 L40.1381212,66.0619642 L67.0688046,31.5922612 L39.181903,9.80462575 C32.6538081,4.70431909 23.2271262,5.8617701 18.1268195,12.3898649 L9.66598031,23.2192453 C4.56567365,29.7473401 5.72312465,39.1740221 12.2512195,44.2743287 Z" opacity="1.00"></path><path id="shadow--globalStyle1/bgelements/music/2" fill="#000" fill-opacity=".08" d="M12.2512195,44.2743287 L40.1381212,66.0619642 L40.1381212,66.0619642 L67.0688046,31.5922612 L39.181903,9.80462575 C32.6538081,4.70431909 23.2271262,5.8617701 18.1268195,12.3898649 L9.66598031,23.2192453 C4.56567365,29.7473401 5.72312465,39.1740221 12.2512195,44.2743287 Z"></path><polygon id="Path-101--globalStyle1/bgelements/music/2" fill="#D8D8D8" points="37.3553372 9.15767769 43.9139142 6.97185107 56.2476694 17.3932707 55.9141683 23.7568525"></polygon><polygon id="[color:music2]lighter--globalStyle1/bgelements/music/2" fill="#737373" points="45.1785345 56.0033196 56.2543976 95.7572307 98.5423822 43.1625401 56.2543976 40.2710618" opacity="1.00"></polygon><polygon id="[color:music2]lighter--globalStyle1/bgelements/music/2" fill="#737373" points="52.0604652 30.5922442 64.9486754 39.1208103 102.547235 40.2710618 71.4398034 13.6732211" opacity="1.00"></polygon><polygon id="[color:music2]lighter--globalStyle1/bgelements/music/2" fill="#737373" points="38.9605814 47.779196 47.0341601 60.9571977 46.8715402 98.5729967 21.3755358 66.5562634" opacity="1.00"></polygon><path id="shadow--globalStyle1/bgelements/music/2" fill="#000" fill-opacity=".2" d="M56.2543976,40.2710618 L98.5423822,43.1625401 L56.2543976,95.7572307 L47.0265358,62.6392211 L46.8715402,98.5729967 L21.3755358,66.5562634 L38.9605814,47.779196 L46.1605358,59.5312211 L45.1785345,56.0033196 L56.2543976,40.2710618 Z M71.4398034,13.6732211 L102.547235,40.2710618 L64.9486754,39.1208103 L52.0604652,30.5922442 L71.4398034,13.6732211 Z" opacity=".786"></path><path id="Path-96--globalStyle1/bgelements/music/2" fill="#FFF" d="M37.1537649,52.8651195 C36.7129674,57.2316232 37.7059376,60.4525236 40.1326756,62.5278207 C43.7727826,65.6407663 53.2520675,65.3893706 61.7462918,52.8651195 C70.2405161,40.3408684 66.3560679,34.4163954 64.9830113,32.2237376 C63.6099548,30.0310798 58.2787368,29.625127 55.169601,30.9244323 C53.0968438,31.7906358 47.0915651,39.1041982 37.1537649,52.8651195 Z"></path><polygon id="[color:music2]lighter--globalStyle1/bgelements/music/2" fill="#737373" points="29.3587365 69.777709 69.137401 21.2901609 50.2662781 24.8560446 29.3587365 49.7497255" opacity="1.00"></polygon></g></g></g></svg></g></g></svg>