<?xml version="1.0" encoding="utf-8"?>
<!-- Generator: Adobe Illustrator 26.0.1, SVG Export Plug-In . SVG Version: 6.00 Build 0)  -->
<svg version="1.1" id="illustration-builder" xmlns="http://www.w3.org/2000/svg" xmlns:xlink="http://www.w3.org/1999/xlink"
	 x="0px" y="0px" viewBox="0 0 1326 1166" style="enable-background:new 0 0 1326 1166;" xml:space="preserve">
<style type="text/css">
	.st0{fill:#DBF2FF;}
	.st1{opacity:0.549;fill:#FFFFFF;enable-background:new    ;}
	.st2{fill-rule:evenodd;clip-rule:evenodd;fill:#FFFFFF;}
	.st3{opacity:0.553;fill-rule:evenodd;clip-rule:evenodd;fill:#FFFFFF;enable-background:new    ;}
	.st4{fill-rule:evenodd;clip-rule:evenodd;fill:#6B8FFF;}
	.st5{fill-rule:evenodd;clip-rule:evenodd;fill-opacity:4.000000e-02;}
	.st6{fill-rule:evenodd;clip-rule:evenodd;fill:#E9E9E9;}
	.st7{fill:#FFFFFF;}
	.st8{fill-rule:evenodd;clip-rule:evenodd;fill:#C3786F;}
	.st9{fill-rule:evenodd;clip-rule:evenodd;fill:#FFDD38;}
	.st10{fill-rule:evenodd;clip-rule:evenodd;fill:#F0A19E;}
	.st11{fill-rule:evenodd;clip-rule:evenodd;fill:#ABABAB;}
	.st12{fill-rule:evenodd;clip-rule:evenodd;fill-opacity:2.000000e-02;}
	.st13{fill-rule:evenodd;clip-rule:evenodd;fill:#BBBBBB;}
	.st14{fill-rule:evenodd;clip-rule:evenodd;fill-opacity:0.2;}
	.st15{fill-rule:evenodd;clip-rule:evenodd;fill:#FF93D4;}
	.st16{fill-rule:evenodd;clip-rule:evenodd;fill:#B5C7FC;}
</style>
<g transform="translate(47,0)">
	<g>
		<g id="Symbols--globalStyle1_x2F_gym_x2F_bg1">
			<g id="globalStyle1_x2F_gym_x2F_bg1--globalStyle1_x2F_gym_x2F_bg1">
				<path id="_x5B_color:background_x5D_background--globalStyle1_x2F_gym_x2F_bg1" class="st0" d="M771.1,258.7
					c-19.7-69.7-155.3-153.6-215.4,0S447.3,370.2,335.7,326S-57.4,510.2,69.4,702.8S409.3,905.4,606,905.4
					c110.9,0,426.4,7,481.8-234.7c55.4-241.7-3.3-418-116.2-370.9S790.8,328.4,771.1,258.7z"/>
				<path id="shape--globalStyle1_x2F_gym_x2F_bg1" class="st1" d="M771.1,258.7c-19.7-69.7-155.3-153.6-215.4,0
					S447.3,370.2,335.7,326S-57.4,510.2,69.4,702.8S409.3,905.4,606,905.4c110.9,0,426.4,7,481.8-234.7
					c55.4-241.7-3.3-418-116.2-370.9S790.8,328.4,771.1,258.7z"/>
				
					<path id="_x5B_color:background_x5D_background--globalStyle1_x2F_gym_x2F_bg1_00000170972880191976211160000017635706221836576693_" class="st0" d="
					M809.5,171.3c-19.7-69.7-155.3-153.6-215.4,0C533.9,325,485.8,282.8,374.1,238.6S32.9,185.8,129.9,509.6S403.4,806,468.3,751.9
					c65-54,146.6-42.7,217.5,15.4c70.9,58.1,384.9,57.6,440.3-184s-3.3-418-116.2-370.9S829.2,241,809.5,171.3z"/>
				<polygon id="Rectangle--globalStyle1_x2F_gym_x2F_bg1" class="st2" points="369.1,236.6 374.8,238.8 374.8,785.1 369.1,785.1 
									"/>
				<polygon id="Rectangle-Copy--globalStyle1_x2F_gym_x2F_bg1" class="st2" points="879.2,236.5 884.9,237.3 884.9,793.3 
					879.2,794.2 				"/>
				<polygon id="Rectangle-Copy-2--globalStyle1_x2F_gym_x2F_bg1" class="st2" points="1138.5,317.5 1139.7,323.2 111.7,323.2 
					113.1,317.5 				"/>
				<path id="Combined-Shape--globalStyle1_x2F_gym_x2F_bg1" class="st3" d="M260.7,551.7c7.1,0,12.8,5.7,12.8,12.8l0,0l-43.1,0
					c2.3-3.2,6.1-5.2,10.3-5.2c2.8,0,5.4,0.9,7.5,2.4C249.4,556,254.6,551.7,260.7,551.7z M865.7,486.6c32.7,0,59.3,26,60.3,58.5
					c4.8-4.6,11.3-7.4,18.5-7.4c12.8,0,23.5,9,26.2,21c4.4-3.2,9.8-5.1,15.7-5.1c8.8,0,16.7,4.3,21.6,10.9l-372.2,0
					c-0.4-0.5-0.8-1-1.2-1.5c0,0.5,0.1,1,0.1,1.5l-68.6,0c0.9-18.2,15.9-32.7,34.3-32.7c10.6,0,20.1,4.8,26.4,12.4
					c-0.3-2.1-0.5-4.3-0.5-6.6c0-23.6,19.1-42.7,42.7-42.7c23.6,0,42.7,19.1,42.7,42.7c0,1.9-0.1,3.7-0.3,5.5
					c4-2.4,8.7-3.8,13.7-3.8c8.6,0,16.3,4.1,21.2,10.5c3.9-14.7,17.3-25.5,33.2-25.5c10.8,0,20.5,5,26.8,12.8
					C810.8,508.5,835.7,486.6,865.7,486.6z M444.8,352.1c20,0,36.2,16.2,36.2,36.2c0,1.9-0.1,3.7-0.4,5.6
					c5.3-6.4,13.4-10.5,22.4-10.5c15.6,0,28.3,12.3,29.1,27.7l0,0l-58.1,0c0-0.4,0.1-0.9,0.1-1.3c-0.3,0.4-0.7,0.9-1,1.3l0,0
					l-150.5,0c-0.3-1.6-0.4-3.3-0.4-4.9c0-16.1,13-29.1,29.1-29.1c13.5,0,24.8,9.2,28.1,21.6c4.2-5.4,10.7-8.9,18-8.9
					c4.3,0,8.2,1.2,11.6,3.2c-0.2-1.5-0.3-3.1-0.3-4.7C408.6,368.3,424.8,352.1,444.8,352.1z M211.4,388.2
					c12.5,0,22.7,10.2,22.7,22.7c0,0,0,0,0,0l-76.5,0c4.1-5.6,10.8-9.2,18.3-9.2c5,0,9.6,1.6,13.3,4.3
					C191.5,395.8,200.5,388.2,211.4,388.2z M822.4,361.1c18.4,0,33.2,14.9,33.2,33.2l0,0l-111.9,0c6.1-8.2,15.8-13.5,26.8-13.5
					c7.3,0,14,2.3,19.5,6.3C793.3,372.2,806.5,361.1,822.4,361.1z M943.9,275.8c17.2,0,31.7,12.1,35.2,28.3
					c5.9-4.3,13.3-6.8,21.2-6.8c11.9,0,22.5,5.8,29,14.7l-121.5,0C907.8,291.9,924,275.8,943.9,275.8z M635.7,223.7
					c7.1,0,12.8,5.7,12.8,12.8l0,0l-43.1,0c2.3-3.2,6.1-5.2,10.3-5.2c2.8,0,5.4,0.9,7.5,2.4C624.4,228,629.6,223.7,635.7,223.7z"/>
			</g>
		</g>
	</g>
</g>
<g transform="translate(198,521)">
	<g transform="translate(465,0) scale(-1, 1)">
		<g transform="translate(107,238)">
			<g>
				<g id="Symbols--globalStyle1_x2F_sportpeople_x2F_runningman_x2F_bottom_x2F_1">
					
						<g id="globalStyle1_x2F_sportpeople_x2F_runningman_x2F_bottom_x2F_1--globalStyle1_x2F_sportpeople_x2F_runningman_x2F_bottom_x2F_1">
						<path id="_x5B_clothes_x5D_shoes-copy--globalStyle1_x2F_sportpeople_x2F_runningman_x2F_bottom_x2F_1" class="st4" d="
							M226.2,154l24.4-10.6l-0.7-1.6c0,0-9.1,4.1-24.3,10.9L226.2,154z"/>
						<path id="_x5B_clothes_x5D_pants-copy--globalStyle1_x2F_sportpeople_x2F_runningman_x2F_bottom_x2F_1" class="st4" d="
							M165.4-64.4c11-3.8,23,2,26.8,13c0.3,0.9,0.6,1.8,0.7,2.7l0.1,0L211,40l-0.1,0l0,0l0.1,0l16.7,98.9l-4.1,5.5l-2.7-5.8
							c0,0-29.8-84.8-32.8-91.7l0.1,0c0,0,0,0,0,0l-0.1,0L153.4-35c-0.4-0.8-0.8-1.7-1.1-2.6C148.5-48.6,154.4-60.6,165.4-64.4z"/>
						<path id="shadow--globalStyle1_x2F_sportpeople_x2F_runningman_x2F_bottom_x2F_1" class="st5" d="M165.4-64.4
							c11-3.8,23,2,26.8,13c0.3,0.9,0.6,1.8,0.7,2.7l0.1,0L211,40l-0.1,0l0,0l0.1,0l16.7,98.9l-4.1,5.5l-2.7-5.8
							c0,0-29.8-84.8-32.8-91.7l0.1,0c0,0,0,0,0,0l-0.1,0L153.4-35c-0.4-0.8-0.8-1.7-1.1-2.6C148.5-48.6,154.4-60.6,165.4-64.4z"/>
						<path id="Fill-15-Copy--globalStyle1_x2F_sportpeople_x2F_runningman_x2F_bottom_x2F_1" class="st6" d="M216.8,130.1l8.7,22.6
							l24.4-10.8c-0.7-1.4-1.2-2.1-4-1c-4.2,1.8-14,6.7-15.7,2.7c-0.4-0.8-1-6.6-2.9-16.7L216.8,130.1z"/>
						<path id="_x5B_clothes_x5D_pants--globalStyle1_x2F_sportpeople_x2F_runningman_x2F_bottom_x2F_1" class="st4" d="M166.4-64.8
							c11.9,2.9,19.2,15,16.2,26.9c-0.3,1.3-0.8,2.6-1.3,3.8l-34.8,83.9c-0.5,1.2-1.1,2.3-1.9,3.3c-1.2,1.5-2.6,2.6-4.2,3.4l0,0
							l-96.2,44.4c-1.5-3.5-2.9-6.4-3.2-6.6c0,0,19.1-14.9,83-56.5l-0.1,0l15.2-85.1l0.1,0c0.1-0.5,0.2-1,0.3-1.4
							C142.4-60.5,154.5-67.8,166.4-64.8z"/>
						<path id="shape-copy--globalStyle1_x2F_sportpeople_x2F_runningman_x2F_bottom_x2F_1" class="st6" d="M47.7,88.8l-20.3,13.2
							l9.3,23.8c1.3-0.9,3.5-2.2,1.9-4.8c-2.4-3.9-4.7-13.4-1.1-15.7c0.8-0.5,5.2-3.2,15-6.7L47.7,88.8z"/>
						<path id="_x5B_clothes_x5D_shoes--globalStyle1_x2F_sportpeople_x2F_runningman_x2F_bottom_x2F_1" class="st4" d="M25.9,102.7
							l9.1,23.7l1.7-0.6c0,0-3.1-8.2-9.1-23.7L25.9,102.7z"/>
						<path id="Path-523-Copy--globalStyle1_x2F_sportpeople_x2F_runningman_x2F_bottom_x2F_1" class="st7" d="M50.8,93.6
							c-0.2,0.1-0.3,0.4-0.2,0.6s0.4,0.3,0.6,0.2l83.6-49l37.8-99.6c0.1-0.2,0-0.5-0.3-0.6c-0.2-0.1-0.5,0-0.6,0.3l-37.7,99.3
							L50.8,93.6z"/>
					</g>
				</g>
			</g>
		</g>
		<g transform="translate(173.5,110)">
			<g>
				<g id="Symbols--globalStyle1_x2F_sportpeople_x2F_runningman_x2F_head_x2F_4">
					
						<g id="globalStyle1_x2F_sportpeople_x2F_runningman_x2F_head_x2F_4--globalStyle1_x2F_sportpeople_x2F_runningman_x2F_head_x2F_4">
						<polygon id="_x5B_skin_x5D_neck--globalStyle1_x2F_sportpeople_x2F_runningman_x2F_head_x2F_4" class="st8" points="87.3,9.2 
							105.8,9.2 103.2,-39.7 92.5,-42.6 						"/>
						<polygon id="shadow--globalStyle1_x2F_sportpeople_x2F_runningman_x2F_head_x2F_4" class="st5" points="87.3,9.2 105.8,9.2 
							103.2,-39.7 92.5,-42.6 						"/>
						<path id="_x5B_skin_x5D_face--globalStyle1_x2F_sportpeople_x2F_runningman_x2F_head_x2F_4" class="st8" d="M98.3-28.8
							c4.8,1.2,10.2-5.9,11.9-16c1.8-10.1-0.7-19.2-5.5-20.5c-4.8-1.2-10.2,5.9-11.9,16C91-39.2,93.5-30,98.3-28.8"/>
						<path id="_x5B_hair_x5D_hair--globalStyle1_x2F_sportpeople_x2F_runningman_x2F_head_x2F_4" class="st9" d="M94.4-37.8
							c2.4-0.9,4.1-3.5,5.1-7.6c1.4-6.7,3.1-10,3.8-10.3c3.2-1.4,4-1.3,6.4-0.9c1.5,0.2,6.2-3.2,6-5.9c-0.1-1.8-3,0.4-5.6-0.4
							c-3.3-0.9-4.9-7.5-9.5-7.2c-9,0.7-13.9,12.8-10.7,29.4C90.5-37.9,92-36.9,94.4-37.8z"/>
						<path id="smile--globalStyle1_x2F_sportpeople_x2F_runningman_x2F_head_x2F_4" class="st2" d="M107.1-36.4
							c0.4,0,1.3-0.3,1.4-1.7l-2.6-0.1C105.8-37,106.6-36.5,107.1-36.4"/>
					</g>
				</g>
			</g>
		</g>
		<g transform="translate(165,139)">
			<g>
				<g id="Symbols--globalStyle1_x2F_sportpeople_x2F_runningman_x2F_top_x2F_1">
					
						<g id="globalStyle1_x2F_sportpeople_x2F_runningman_x2F_top_x2F_1--globalStyle1_x2F_sportpeople_x2F_runningman_x2F_top_x2F_1">
						<path id="_x5B_skin_x5D_hand--globalStyle1_x2F_sportpeople_x2F_runningman_x2F_top_x2F_1" class="st10" d="M89.1-42.3
							C84.5-39.9,38.8-13,36.8-11.8c-0.7,0.4-1.3,0.9-1.9,1.3c-0.7,0.3-1.3,0.8-1.9,1.4c-0.9,0.9-1.5,1.9-1.9,3
							c-2.2,4.4,0.5,8.3,3.8,9.7c5.4,4.6,18.5,14.4,40.3,29.6l-0.4-0.3l4.2,5.8c2.4,2.8,4.8,4.6,5.9,5.7l0.1,0.1
							c2.1,1.9,7.2,5.4,8,5.6c0.8,0.2,1-0.4-0.2-1.2c-0.6-0.4-0.8-0.6-1.1-0.8c-0.2-0.2-1.6-1.2-1.9-1.5c-1.3-1.2-2.5-2.2-2.2-2.1
							s2,1.9,3.6,3.1c0.4,0.3,1.6,0.8,1.9,0.9c1.3,0.5,2.3,0.8,3.1,0.9c0.3,0,0.5-0.2,0.3-0.6c0-0.1-0.1-0.1-0.1-0.2
							c-0.3-0.5-1.8-0.8-2.8-1.3c-0.3-0.2-1-0.5-1.4-0.8c-2.1-1.4-4.5-3.9-4-3.6c0.5,0.3,2.3,1.7,3.3,2.5c0.8,0.6,1.1,0.9,3.1,1.6
							c1.2,0.4,3.4,0.8,3.6,0.7c0.2-0.1,0-0.4,0-0.4c-0.5-0.5-0.9-0.8-1.1-0.9c-1.7-0.7-3.3-0.8-4.8-2.2c-1.6-1.4-3.7-3-3.4-2.9
							c0.2,0.1,1.6,0.9,2.7,1.6c1.6,1.1,3.7,2.1,4.4,2.3c0.5,0.2,0.9,0.3,1.3,0.4c0.2,0.1,0.3-0.1,0.3-0.3c0-0.1,0-0.1-0.1-0.2
							c-0.3-0.5-0.6-0.8-0.9-0.9c-1-0.5-1.2-0.5-2.5-1.4c-0.2-0.2-1.9-1.5-2.3-1.7c-2.6-1.7-4.7-4.1-4.7-4.3c0.3-1.7,1.2-0.3,3.1,0
							c1.1,1.5,2.2,2.4,3.7,3.1c0.1,0,0.3-0.1,0-0.5l0,0l-3.7-5L85,31.7l-5.8-3.6C69.5,16.5,60.7,6.2,53.7-1
							c16.4-7.1,38.9-19.5,45.8-23C99.5-24,92.5-35.5,89.1-42.3z"/>
						<path id="shape--globalStyle1_x2F_sportpeople_x2F_runningman_x2F_top_x2F_1" class="st11" d="M72.6,32l2.8-10.1l-21.1-23
							c36.9-14.2,55.6-22.2,56-23.9c1.5-5.5-5.6-21.2-16.1-22C88-47.6,34.1-12.9,30.8-8.2C24.4-1.2,38.3,12.2,72.6,32z"/>
						<path id="_x5B_clothes_x5D_tshirt--globalStyle1_x2F_sportpeople_x2F_runningman_x2F_top_x2F_1" class="st4" d="M79.4-30.4
							C78-19.6,77,10.4,76.5,59.8c1,7.4,8,11,21,11c13,0,26.8-3.7,41.5-11c-0.2-45.7-1.5-73.3-4.1-82.6c-3.8-14-9.7-23.6-18-24.7
							c-4.1-0.6-7.6-0.1-11.3,0C87.6-46.8,81.3-44,79.4-30.4z"/>
						<path id="shadow--globalStyle1_x2F_sportpeople_x2F_runningman_x2F_top_x2F_1" class="st12" d="M79.4-30.4
							C78-19.6,77,10.4,76.5,59.8c1,7.4,8,11,21,11c13,0,26.8-3.7,41.5-11c-0.2-45.7-1.5-73.3-4.1-82.6c-3.8-14-9.7-23.6-18-24.7
							c-4.1-0.6-7.6-0.1-11.3,0C87.6-46.8,81.3-44,79.4-30.4z"/>
						
							<path id="_x5B_skin_x5D_hand--globalStyle1_x2F_sportpeople_x2F_runningman_x2F_top_x2F_1_00000015316821060704206890000008758930106795727527_" class="st10" d="
							M186.7-6.9l2.2-5.1l4.7-3.9c0.4-0.3,0.5-0.1,0.5,0c-0.6,1.5-1.4,2.6-2.8,3.7c-0.2,1.9-1.5,2.8,0.2,3c0.2,0,2.3-2.2,3.9-4.8
							c0.2-0.4,1.4-2.1,1.6-2.3c0.8-1.3,0.8-1.5,1.2-2.5c0.1-0.3,0.4-0.6,0.9-1c0.1,0,0.1-0.1,0.2-0.1c0.2,0,0.3,0.1,0.3,0.3
							c-0.1,0.4-0.2,0.8-0.3,1.3c-0.2,0.7-1.1,2.7-2,4.3c-0.6,1.1-1.4,2.5-1.5,2.7c-0.1,0.3,1.4-1.8,2.7-3.4
							c1.3-1.6,1.3-3.1,1.9-4.8c0.1-0.2,0.4-0.6,0.9-1.1c0,0,0.3-0.2,0.4-0.1c0.1,0.2-0.2,2.4-0.5,3.5c-0.6,2-0.8,2.3-1.4,3.1
							c-0.7,1-1.9,2.8-2.2,3.3c-0.3,0.5,2-2,3.3-4.1c0.2-0.3,0.5-1,0.7-1.4c0.5-1,0.7-2.4,1.1-2.7c0.1,0,0.1-0.1,0.2-0.1
							c0.3-0.1,0.6,0,0.6,0.3c0,0.8-0.3,1.8-0.7,3.1c-0.1,0.3-0.6,1.5-0.8,1.9c-1.1,1.6-2.8,3.5-2.8,3.7c0,0.2,0.8-0.9,2-2.3
							c0.3-0.3,1.2-1.6,1.4-1.9c0.3-0.3,0.4-0.6,0.8-1.1c0.8-1.2,1.3-1,1.2-0.2c-0.1,0.8-3.3,5.9-5,8c-0.9,1.2-2.6,3.6-5.3,6.2
							L188,3.3c0,0,0,0.1-0.1,0.1c-0.2,0.2-0.3,0.3-0.5,0.5c-14.7,17-27.4,31.1-34.8,36.2c-0.6,0.6-1.3,1-2.1,1.3
							c-0.3,0.2-0.6,0.3-0.9,0.4c-3.1,1-6.2-0.7-8.1-3.4c-8.3-10.5-23.5-48-27.6-57.1c0,0,12.3-4.5,19-7.5
							c1.6,3.5,12.9,33.6,18.1,47.7c7-5.1,17.7-12.6,32.4-22.4l0,0L186.7-6.9z"/>
						
							<path id="shape--globalStyle1_x2F_sportpeople_x2F_runningman_x2F_top_x2F_1_00000140699295455546594440000002554469891806288300_" class="st13" d="
							M182.5-0.5l4.7,6.1c-19.4,27-33.6,39.1-42.4,36c-13.2-4.5-50-72.4-32.3-84.2c10.6-7,23.7,13.4,39.4,61.2L182.5-0.5z"/>
						<path id="Path-522--globalStyle1_x2F_sportpeople_x2F_runningman_x2F_top_x2F_1" class="st4" d="M107.7-50.6
							c-6.2,1.7-10,2.7-11.4,2.8c-2.4,0.2-4-1.1-5-1.5c-1.6-0.6-9.2-2.6-17.8,5.9S70.9-20,81.1-25.2c6.8-3.5,14-9.8,21.6-19.2
							L107.7-50.6z"/>
						
							<path id="shadow--globalStyle1_x2F_sportpeople_x2F_runningman_x2F_top_x2F_1_00000074441899561267285390000014239266502443759512_" class="st14" d="
							M107.7-50.6c-6.2,1.7-10,2.7-11.4,2.8c-2.4,0.2-4-1.1-5-1.5c-1.6-0.6-9.2-2.6-17.8,5.9S70.9-20,81.1-25.2
							c6.8-3.5,14-9.8,21.6-19.2L107.7-50.6z"/>
						<path id="Path-521--globalStyle1_x2F_sportpeople_x2F_runningman_x2F_top_x2F_1" class="st4" d="M108.2-50.6
							c2.1,0,5.3,1.4,9.7,4.1c-6.3-1.1-10.6,0.1-13,3.7C101.2-37.5,93-24.8,84.7-22c-8.2,2.8-13.2,7.9-18.7-2.7
							c-3.7-7,0-14.3,11.2-21.9c-7.4,6-8.9,9.9-4.5,11.7c6.6,2.7,11.9-0.7,19.7-6C100.2-46,105-50.6,108.2-50.6z"/>
						
							<path id="shadow--globalStyle1_x2F_sportpeople_x2F_runningman_x2F_top_x2F_1_00000180348109611776346650000006189344573683452605_" class="st12" d="
							M108.2-50.6c2.1,0,5.3,1.4,9.7,4.1c-6.3-1.1-10.6,0.1-13,3.7C101.2-37.5,93-24.8,84.7-22c-8.2,2.8-13.2,7.9-18.7-2.7
							c-3.7-7,0-14.3,11.2-21.9c-7.4,6-8.9,9.9-4.5,11.7c6.6,2.7,11.9-0.7,19.7-6C100.2-46,105-50.6,108.2-50.6z"/>
						<path id="Path-524--globalStyle1_x2F_sportpeople_x2F_runningman_x2F_top_x2F_1" class="st7" d="M113.3-42.8l2,4.6l1.8,4.3
							c19.6,45.4,30.9,66.7,34.8,65.5c3.8-1.2,14.8-10.6,33-28.6c0.2-0.2,0.2-0.5,0-0.7c-0.2-0.2-0.5-0.2-0.7,0l-2.7,2.6
							c-16.5,16.1-26.5,24.7-30,25.7c-3.3,1-16.2-24.2-37.4-73.8c-0.1-0.2-0.4-0.4-0.6-0.3C113.3-43.4,113.2-43.1,113.3-42.8z"/>
					</g>
				</g>
			</g>
		</g>
	</g>
</g>
<g transform="translate(793.5,609)">
	<g transform="translate(97,238)">
		<g>
			<g id="Symbols--globalStyle1_x2F_sportpeople_x2F_woman_x2F_bottom_x2F_1">
				<g id="globalStyle1_x2F_sportpeople_x2F_woman_x2F_bottom_x2F_1--globalStyle1_x2F_sportpeople_x2F_woman_x2F_bottom_x2F_1">
					<path id="_x5B_clothes_x5D_shoes--globalStyle1_x2F_sportpeople_x2F_woman_x2F_bottom_x2F_1" class="st4" d="M-336.2,113.7
						c-14.6-8-23.4-12.8-23.4-12.8l-0.9,1.6l23.5,12.5L-336.2,113.7z"/>
					<path id="_x5B_clothes_x5D_pants--globalStyle1_x2F_sportpeople_x2F_woman_x2F_bottom_x2F_1" class="st4" d="M-248-70.1
						c-0.4,0.9-0.8,1.7-1.3,2.5l-43.9,76.5c-0.2,0.8-0.6,1.6-1.1,2.4c-3.7,6.9-36.2,88.7-36.2,88.7l-3.2,5.6l-3.6-5.8l27.3-94.4l0,0
						l22.4-89.7l0.1,0c0.3-0.9,0.6-1.8,1-2.7c4.7-10.7,17.1-15.5,27.8-10.8C-248.1-93.2-243.3-80.8-248-70.1z"/>
					<path id="shadow--globalStyle1_x2F_sportpeople_x2F_woman_x2F_bottom_x2F_1" class="st5" d="M-248-70.1
						c-0.4,0.9-0.8,1.7-1.3,2.5l-43.9,76.5c-0.2,0.8-0.6,1.6-1.1,2.4c-3.7,6.9-36.2,88.7-36.2,88.7l-3.2,5.6l-3.6-5.8l27.3-94.4l0,0
						l22.4-89.7l0.1,0c0.3-0.9,0.6-1.8,1-2.7c4.7-10.7,17.1-15.5,27.8-10.8C-248.1-93.2-243.3-80.8-248-70.1z"/>
					<path id="Fill-15--globalStyle1_x2F_sportpeople_x2F_woman_x2F_bottom_x2F_1" class="st6" d="M-335.8,87.8
						c-2.7,10-3.8,15.6-4.2,16.5c-2.1,3.8-11.4-1.9-15.5-4c-2.7-1.4-3.2-0.7-4,0.6l23.4,12.8l10.5-21.8L-335.8,87.8z"/>
					
						<path id="_x5B_clothes_x5D_pants--globalStyle1_x2F_sportpeople_x2F_woman_x2F_bottom_x2F_1_00000152979273291779198950000011018754056769203342_" class="st4" d="
						M-234.3-80c0.1,0.5,0.1,1,0.2,1.5l0.1,0l5.3,87.1c58.8,45.4,80,63.4,80,63.4c-0.3,0.1,0.4,0.9-1.4,4.3l-92.3-55l0,0
						c-0.8-0.6-1.5-1.3-2.2-2.2c-0.3-0.5-0.6-0.9-0.8-1.4l0,0c-0.2-0.4-0.3-0.7-0.4-1.1l-31.2-84.8c-0.5-1.4-1-2.9-1.2-4.4
						c-2-12.1,6.2-23.5,18.3-25.5C-247.7-100.4-236.3-92.2-234.3-80z"/>
					<path id="shape--globalStyle1_x2F_sportpeople_x2F_woman_x2F_bottom_x2F_1" class="st6" d="M-159.5,73.6
						c9.4,4.3,13.7,7.3,14.4,7.8c3.4,2.6,0.4,12-2.3,15.6c-1.8,2.4,0.4,3.9,1.6,4.9l11.1-23l-19.2-14.8L-159.5,73.6z"/>
					
						<path id="_x5B_clothes_x5D_shoes--globalStyle1_x2F_sportpeople_x2F_woman_x2F_bottom_x2F_1_00000111896753904358489780000016052036841457966243_" class="st4" d="
						M-134.8,79.1c-7.2,15-11,22.9-11,22.9l1.6,0.8l11-22.9L-134.8,79.1z"/>
					<path id="Path-523--globalStyle1_x2F_sportpeople_x2F_woman_x2F_bottom_x2F_1" class="st7" d="M-266-88.6
						c-0.1-0.3-0.3-0.4-0.6-0.3c-0.3,0.1-0.4,0.3-0.3,0.6L-237.3,14l78.9,55.9c0.2,0.2,0.5,0.1,0.7-0.1s0.1-0.5-0.1-0.7l-78.7-55.7
						L-266-88.6z"/>
				</g>
			</g>
		</g>
	</g>
	<g transform="translate(183,96)">
		<g>
			<g id="Symbols--globalStyle1_x2F_sportpeople_x2F_woman_x2F_head_x2F_2">
				<g id="globalStyle1_x2F_sportpeople_x2F_woman_x2F_head_x2F_2--globalStyle1_x2F_sportpeople_x2F_woman_x2F_head_x2F_2">
					<path id="_x5B_hair_x5D_hair--globalStyle1_x2F_sportpeople_x2F_woman_x2F_head_x2F_2" class="st15" d="M-348.5-81.1
						c4.8,0.6,7,1.9,6.5,3.6c-0.7,2.7-2.4,14.2-4,17.9c-1.7,3.7-3.1,9.6-3.1,18.2c0,5.7-2,11.1-5.9,16.2c3.3-5,4.5-9.5,3.6-13.7
						c-1.3-6.3-1.9-9.2,2.2-18.4C-346.5-63.5-346.2-71.4-348.5-81.1"/>
					<g id="Group--globalStyle1_x2F_sportpeople_x2F_woman_x2F_head_x2F_2" transform="translate(34.9 24.817)">
						<polygon id="_x5B_skin_x5D_neck--globalStyle1_x2F_sportpeople_x2F_woman_x2F_head_x2F_2" class="st10" points="-379.4,-42 
							-383.3,-87.5 -372.9,-93.1 -353.6,-39.9 						"/>
						<polygon id="shadow--globalStyle1_x2F_sportpeople_x2F_woman_x2F_head_x2F_2" class="st5" points="-379.4,-42 -383.3,-87.5 
							-372.9,-93.1 -353.6,-39.9 						"/>
						
							<ellipse id="_x5B_skin_x5D_face--globalStyle1_x2F_sportpeople_x2F_woman_x2F_head_x2F_2" transform="matrix(0.2857 -0.9583 0.9583 0.2857 -183.6695 -431.4312)" class="st10" cx="-381.2" cy="-92.5" rx="16.6" ry="9.7"/>
						<path id="smile--globalStyle1_x2F_sportpeople_x2F_woman_x2F_head_x2F_2" class="st7" d="M-385.1-84.5l-3.9,0
							c0,1.6,1.3,2,1.9,2C-386.4-82.5-385.1-83-385.1-84.5z"/>
					</g>
					
						<path id="_x5B_hair_x5D_hair--globalStyle1_x2F_sportpeople_x2F_woman_x2F_head_x2F_2_00000082327752734902178220000015455651074987120802_" class="st15" d="
						M-322-76.3c2.7,6.7-2.9,20.6,5.9,26.3c6.1,4,28.7,27.5,10.1,26c-1.4-0.1-16.7-7.9-21.2-12.8c-6.3-6.9-8.3-11.5-9.3-15.7
						c-1.3-2.4-1.8-12.1-5.2-14.2c-1.5-1-2.7-3.4-3.5-7c-1.5-1.5-2.7-2.8-3.8-3.8c-5.4-2.5-6.2-4.9-2.2-7.1
						C-333.5-94.3-326.2-86.9-322-76.3z M-320.4-89.6c-2.2,3-6.2,3.8-8.9,1.7c-2.7-2-3.1-6.1-0.9-9.1c2.2-3,6.2-3.8,8.9-1.7
						C-318.6-96.7-318.2-92.6-320.4-89.6z"/>
				</g>
			</g>
		</g>
	</g>
	<g transform="translate(114,94)">
		<g>
			<g id="Symbols--globalStyle1_x2F_sportpeople_x2F_woman_x2F_top_x2F_1">
				<g id="globalStyle1_x2F_sportpeople_x2F_woman_x2F_top_x2F_1--globalStyle1_x2F_sportpeople_x2F_woman_x2F_top_x2F_1">
					<path id="_x5B_skin_x5D_hand--globalStyle1_x2F_sportpeople_x2F_woman_x2F_top_x2F_1" class="st10" d="M-264.2-9.9
						c6.2,3.8,26.3,17,41.1,25c-7.1,6.2-16.1,15.2-26.1,25.4l-5.7,2.9l-5,2l-3.9,4.4l0,0c-0.3,0.4-0.1,0.5,0,0.5
						c1.5-0.5,2.5-1.3,3.7-2.6c1.8-0.1,2.8-1.4,2.9,0.3c0,0.2-2.2,2.2-4.7,3.6c-0.4,0.2-2.1,1.3-2.3,1.4c-1.3,0.7-1.5,0.8-2.4,1.1
						c-0.3,0.1-0.6,0.4-0.9,0.8c0,0.1-0.1,0.1-0.1,0.2c0,0.2,0.1,0.3,0.2,0.3c0.4-0.1,0.8-0.2,1.3-0.3c0.7-0.2,2.6-1,4.3-1.8
						c1.1-0.6,2.5-1.3,2.6-1.3c0.3-0.1-1.8,1.3-3.4,2.5c-1.6,1.2-3,1.1-4.7,1.7c-0.2,0.1-0.6,0.3-1.1,0.8c0,0-0.2,0.3-0.1,0.4
						c0.2,0.1,2.3-0.1,3.4-0.4c1.9-0.5,2.3-0.7,3.1-1.3c1-0.7,2.8-1.8,3.3-2c0.5-0.3-2,1.9-4,3c-0.3,0.2-1,0.5-1.3,0.6
						c-1,0.4-2.4,0.6-2.7,1c0,0.1-0.1,0.1-0.1,0.2c-0.1,0.3,0,0.6,0.3,0.6c0.7,0,1.7-0.2,3-0.6c0.3-0.1,1.4-0.5,1.8-0.7
						c1.6-1,3.4-2.6,3.6-2.6c0.2,0-0.9,0.8-2.3,1.8c-0.3,0.2-1.6,1.1-1.9,1.3c-0.3,0.2-0.6,0.4-1.1,0.7c-1.1,0.7-1,1.2-0.3,1.1
						c0.7-0.1,5.8-3.1,7.9-4.6l0.1-0.1c1.2-0.9,3.5-2.4,6-4.9l4.4-5.2l-0.4,0.2c21.6-12.6,34.6-20.7,40-24.7c3.2-1.1,6-4.6,4.3-8.8
						c-0.3-1.1-0.8-2.1-1.6-2.9c-0.5-0.6-1.1-1.1-1.7-1.4c-0.5-0.5-1.1-0.9-1.7-1.4c-1.7-1.3-42.5-30-46.6-32.5
						C-256.8-20.2-264.2-9.9-264.2-9.9z"/>
					<path id="_x5B_clothes_x5D_tshirt--globalStyle1_x2F_sportpeople_x2F_woman_x2F_top_x2F_1" class="st16" d="M-200.8,10.3
						c-2.8-4.8-51.3-41.8-57.4-41.8c-10.1-0.1-18,14.3-17,19.6c0.3,1.7,17.5,10.7,51.4,27l-21.8,20.3l1.9,9.8
						C-209.5,29-195.2,17.4-200.8,10.3z"/>
					<path id="shadow--globalStyle1_x2F_sportpeople_x2F_woman_x2F_top_x2F_1" class="st5" d="M-200.8,10.3
						c-2.9-5.2-51.3-41.8-57.4-41.8c-10.1-0.1-18,14.3-17,19.6c0.3,1.7,17.5,10.7,51.4,27l-21.8,20.3l1.9,9.8
						C-209.5,29-195.2,17.4-200.8,10.3z"/>
					
						<path id="_x5B_clothes_x5D_tshirt--globalStyle1_x2F_sportpeople_x2F_woman_x2F_top_x2F_1_00000162329847294252380390000004565097050552016270_" class="st16" d="
						M-269.2-32.7c-3.7-0.4-7.1-1.1-11.2-0.9c-8.4,0.4-15,9.5-20,23.2c-3.3,9.1-6.9,36.5-10.7,82c14.1,8.5,27.6,13.3,40.5,14.3
						c12.9,1,20.2-2.1,21.8-9.3c3.5-49.3,4.9-79.3,4.3-90.1C-245.2-27.2-251.3-30.5-269.2-32.7z"/>
					
						<path id="shadow--globalStyle1_x2F_sportpeople_x2F_woman_x2F_top_x2F_1_00000044880568133487161730000012800065774129898906_" class="st12" d="
						M-269.2-32.7c-3.7-0.4-7.1-1.1-11.2-0.9c-8.4,0.4-15,9.5-20,23.2c-3.3,9.1-6.9,36.5-10.7,82c14.1,8.5,27.6,13.3,40.5,14.3
						c12.9,1,20.2-2.1,21.8-9.3c3.5-49.3,4.9-79.3,4.3-90.1C-245.2-27.2-251.3-30.5-269.2-32.7z"/>
					
						<path id="_x5B_skin_x5D_hand--globalStyle1_x2F_sportpeople_x2F_woman_x2F_top_x2F_1_00000093872218485576119510000011042424710416632499_" class="st10" d="
						M-273.6-7.4c-4.6,8.4-22.2,43.4-31,52.9c-2,2.4-5.2,3.9-8.1,2.7c-0.3-0.1-0.5-0.3-0.8-0.4c-0.7-0.3-1.3-0.8-1.9-1.4
						c-6.7-5.5-17.8-20.1-30.7-37.6c-0.2-0.1-0.3-0.3-0.5-0.5c0,0,0-0.1-0.1-0.1l-5.2-5c-2.4-2.7-3.8-5.2-4.6-6.4
						c-1.5-2.2-4.2-7.4-4.2-8.1c-0.1-0.7,0.5-0.8,1.1,0.3c0.3,0.6,0.4,0.8,0.6,1.2c0.2,0.2,1,1.6,1.2,1.9c1,1.4,1.7,2.6,1.7,2.3
						c0-0.2-1.5-2.1-2.4-3.8c-0.2-0.4-0.6-1.6-0.6-1.9c-0.3-1.3-0.5-2.3-0.4-3c0-0.3,0.3-0.4,0.6-0.2c0.1,0,0.1,0.1,0.2,0.1
						c0.4,0.3,0.5,1.8,0.9,2.7c0.1,0.3,0.4,1,0.5,1.4c1.1,2.1,3.1,4.7,2.8,4.2c-0.3-0.5-1.3-2.4-1.9-3.4c-0.5-0.8-0.7-1.2-1.1-3.1
						c-0.2-1.2-0.4-3.3-0.2-3.5c0.1-0.2,0.4,0.1,0.4,0.1c0.4,0.5,0.7,0.9,0.7,1.2c0.5,1.7,0.3,3.1,1.5,4.8c1.1,1.7,2.3,3.8,2.3,3.5
						c0-0.2-0.7-1.6-1.2-2.7c-0.8-1.7-1.5-3.7-1.6-4.3c-0.1-0.5-0.2-0.9-0.2-1.3c0-0.2,0.1-0.3,0.3-0.2c0.1,0,0.1,0.1,0.2,0.1
						c0.4,0.4,0.7,0.7,0.7,1c0.3,1,0.3,1.2,1,2.5c0.1,0.2,1.1,2,1.3,2.4c1.3,2.6,3.2,4.9,3.4,4.9c1.7-0.1,0.4-1.1,0.4-2.9
						c-1.3-1.2-1.9-2.3-2.4-3.8c0-0.1,0.2-0.3,0.5,0.1l4.2,4.1l1.7,5.1l2.6,5.9l0,0c13.4,10.6,23.1,18.7,29.5,24.2
						c6.2-13.2,19.4-41.3,21.2-44.6C-285.1-12.7-273.6-7.4-273.6-7.4z"/>
					
						<path id="_x5B_clothes_x5D_tshirt--globalStyle1_x2F_sportpeople_x2F_woman_x2F_top_x2F_1_00000011026793837915714380000007569516996257434275_" class="st16" d="
						M-313,26c18.8-44.9,33.1-63.6,42.8-56c16.1,12.7-24.6,75.4-37.7,78.7c-8.7,2.2-21.4-10.5-38.1-38.1l5-5.6L-313,26z"/>
					
						<path id="shadow--globalStyle1_x2F_sportpeople_x2F_woman_x2F_top_x2F_1_00000172411968477525430560000009597585903881970843_" class="st5" d="
						M-313,26c18.8-44.9,33.1-63.6,42.8-56c16.1,12.7-24.6,75.4-37.7,78.7c-8.7,2.2-21.4-10.5-38.1-38.1l5-5.6L-313,26z"/>
					<path id="Path-522--globalStyle1_x2F_sportpeople_x2F_woman_x2F_top_x2F_1" class="st4" d="M-266.6-29.4
						c6.8,9.9,13.5,16.9,20,20.9c9.7,6,17.1-8.4,9.1-17.5s-15.7-7.8-17.3-7.3c-1,0.3-2.7,1.5-5.1,1.1c-1.4-0.2-5.2-1.5-11.2-3.7
						L-266.6-29.4z"/>
					
						<path id="shadow--globalStyle1_x2F_sportpeople_x2F_woman_x2F_top_x2F_1_00000045593212972551089450000000817514615894779810_" class="st14" d="
						M-266.6-29.4c6.8,9.9,13.5,16.9,20,20.9c9.7,6,17.1-8.4,9.1-17.5s-15.7-7.8-17.3-7.3c-1,0.3-2.7,1.5-5.1,1.1
						c-1.4-0.2-5.2-1.5-11.2-3.7L-266.6-29.4z"/>
					<path id="Path-521--globalStyle1_x2F_sportpeople_x2F_woman_x2F_top_x2F_1" class="st4" d="M-256.6-24.9
						c7.4,5.9,12.4,9.7,19.2,7.6c4.5-1.4,3.3-5.5-3.6-12.1c10.5,8.4,13.6,16,9.4,22.7c-6.3,10-10.9,4.6-18.9,1.2
						c-8-3.4-15.1-16.8-18.4-22.4c-2.2-3.7-6.4-5.3-12.7-4.7c4.5-2.3,7.9-3.4,10-3.3C-268.4-35.7-264-30.8-256.6-24.9z"/>
					
						<path id="shadow--globalStyle1_x2F_sportpeople_x2F_woman_x2F_top_x2F_1_00000106867872805118457030000001432167572333242549_" class="st12" d="
						M-256.6-24.9c7.4,5.9,12.4,9.7,19.2,7.6c4.5-1.4,3.3-5.5-3.6-12.1c10.5,8.4,13.6,16,9.4,22.7c-6.3,10-10.9,4.6-18.9,1.2
						c-8-3.4-15.1-16.8-18.4-22.4c-2.2-3.7-6.4-5.3-12.7-4.7c4.5-2.3,7.9-3.4,10-3.3C-268.4-35.7-264-30.8-256.6-24.9z"/>
					<path id="Path-524--globalStyle1_x2F_sportpeople_x2F_woman_x2F_top_x2F_1" class="st7" d="M-271.3-31.1
						c-0.2-0.1-0.5,0-0.6,0.2c-24.3,46.2-38.7,69.5-41.8,68.3C-317,36.1-326,27-340.6,10.2l-2.4-2.7c-0.2-0.2-0.5-0.2-0.7,0
						c-0.2,0.2-0.2,0.5,0,0.7c16.2,18.7,26,28.7,29.6,30.1c3.7,1.5,16.2-18.3,38.6-60.5l2.1-4l2.2-4.2
						C-271-30.7-271.1-31-271.3-31.1z"/>
				</g>
			</g>
		</g>
	</g>
</g>
</svg>
