<?xml version="1.0" encoding="utf-8"?>
<!-- Generator: Adobe Illustrator 26.0.1, SVG Export Plug-In . SVG Version: 6.00 Build 0)  -->
<svg version="1.1" id="illustration-builder" xmlns="http://www.w3.org/2000/svg" xmlns:xlink="http://www.w3.org/1999/xlink"
	 x="0px" y="0px" viewBox="0 0 1000 880" style="enable-background:new 0 0 1000 880;" xml:space="preserve">
<style type="text/css">
	.st0{fill-rule:evenodd;clip-rule:evenodd;fill:#FFE978;}
	.st1{fill-rule:evenodd;clip-rule:evenodd;fill:#DBF2FF;}
	.st2{fill-rule:evenodd;clip-rule:evenodd;fill:#FBFBFB;fill-opacity:0.91;}
	.st3{fill-rule:evenodd;clip-rule:evenodd;fill:#E2E2E2;}
	.st4{fill-rule:evenodd;clip-rule:evenodd;fill:#EFEFEF;}
	.st5{fill-rule:evenodd;clip-rule:evenodd;fill:#F1F3F6;}
	.st6{fill-rule:evenodd;clip-rule:evenodd;fill:#D8D8D8;}
	.st7{fill-rule:evenodd;clip-rule:evenodd;fill:#FFFFFF;}
	.st8{opacity:0.243;fill-rule:evenodd;clip-rule:evenodd;fill:#FFFFFF;enable-background:new    ;}
	.st9{fill-rule:evenodd;clip-rule:evenodd;fill:#F0A19E;}
	.st10{fill-rule:evenodd;clip-rule:evenodd;fill:#294B67;}
	.st11{fill-rule:evenodd;clip-rule:evenodd;fill-opacity:4.000000e-02;}
	.st12{fill-rule:evenodd;clip-rule:evenodd;fill:#E9E9E9;}
	.st13{fill-rule:evenodd;clip-rule:evenodd;fill-opacity:2.000000e-02;}
	.st14{fill-rule:evenodd;clip-rule:evenodd;fill:#FFDD38;}
	.st15{fill-rule:evenodd;clip-rule:evenodd;fill-opacity:0.2;}
	.st16{fill:#FFFFFF;}
	.st17{fill-rule:evenodd;clip-rule:evenodd;fill:#FAFAFA;}
	.st18{fill-rule:evenodd;clip-rule:evenodd;fill:#FFBCBA;}
	.st19{fill-rule:evenodd;clip-rule:evenodd;fill:#C9C8C8;}
	.st20{fill-rule:evenodd;clip-rule:evenodd;fill:#FEA770;}
	.st21{fill:#EDEDED;}
	.st22{fill-rule:evenodd;clip-rule:evenodd;fill:#2A4862;}
	.st23{fill-rule:evenodd;clip-rule:evenodd;fill:#6B8FFF;}
	.st24{fill-rule:evenodd;clip-rule:evenodd;fill-opacity:8.000000e-02;}
	.st25{fill:#233A48;}
	.st26{fill-rule:evenodd;clip-rule:evenodd;fill:#D8D5D5;}
	.st27{fill-rule:evenodd;clip-rule:evenodd;fill:#E7E7E7;}
	.st28{fill-rule:evenodd;clip-rule:evenodd;}
	.st29{fill:#B9B6B4;}
	.st30{fill-rule:evenodd;clip-rule:evenodd;fill:#FFF4BD;}
	.st31{fill:#FFE978;}
	.st32{fill-rule:evenodd;clip-rule:evenodd;fill:#EDF3F7;}
	.st33{fill:#BEDEF4;}
	.st34{fill-rule:evenodd;clip-rule:evenodd;fill-opacity:0.3;}
	.st35{fill-rule:evenodd;clip-rule:evenodd;fill:#ECF2F9;}
	.st36{fill-rule:evenodd;clip-rule:evenodd;fill:#EDEDED;}
	.st37{fill-rule:evenodd;clip-rule:evenodd;fill:#C3786F;}
	.st38{fill-rule:evenodd;clip-rule:evenodd;fill:#E8E8E8;}
</style>
<path id="Combined-Shape-Copy-2--globalStyle1_x2F_bgelements_x2F_phone_x2F_4_00000106841175795203624990000015502515988091337123_" class="st0" d="
	M176,454.9c17.8,2.2,35.4,11.3,52.7,27.2c-31.2-5-52.7-7.3-64.5-6.9c-11.8,0.4-31.5-7.1-59-22.6C134.6,452,158.2,452.7,176,454.9z
	 M222,168.1c-2,31.5-6.4,52.1-13.1,61.8c-6.5,9.3-15.8,27.5-27.9,54.6c5.3,19,9.3,35.7,11.7,50c-0.2-14.4,2.5-27.2,7.9-38.3
	c7.9-16.2,20.1-36.4,36.6-60.5c-2,31.5-6.4,52.1-13.1,61.8c-6.6,9.4-16.1,28-28.4,55.6c2.4,13.3,5.9,26.6,10.1,39
	c-1-16.7,1.6-31.4,7.7-43.9c7.9-16.2,20.1-36.4,36.6-60.5c-2,31.5-6.4,52.1-13.1,61.8c-6.4,9.2-15.5,26.9-27.3,53.2
	c5.4,13.8,11.5,25.7,17.7,33.7l0.1,9.5c-1.4-1.4-2.9-3-4.3-4.8c-24.8-16-42.4-26.2-52.9-30.4c-11-4.4-25.8-19.3-44.7-44.7
	c27,11.3,48.3,21.6,63.7,30.8c6.1,3.7,11.8,8.3,16.9,14c-3.1-7.3-6-15.3-8.6-23.6c-20.1-19.9-34.7-33-43.9-39.2
	c-9.8-6.6-21.3-24.3-34.4-53c24.1,16.7,42.7,31.1,55.9,43.4c5.9,5.5,10.9,12,15,19.6c-0.8-3.8-1.4-7.7-2-11.5l-0.4-2.5
	c-0.8-5.7-1.9-11.9-3.2-18.5c-20-19.9-34.6-32.9-43.8-39.1c-9.8-6.6-21.3-24.3-34.4-53c24.1,16.7,42.7,31.1,55.9,43.4
	c6.2,5.8,11.5,12.8,15.8,21.1c-4-15.1-8.9-31.8-14.9-50.3c-14.4-20.9-26.3-40.2-35.7-58c-11.1-20.9-20.4-42.9-27.9-65.8
	c34,27.7,54,54.8,60,81c3.4,14.9,6.1,27.1,8.1,36.6l-0.6-1.7c3.9,11.9,7.5,23.1,10.6,33.7c-1.1-17.1,1.4-32.1,7.6-44.8
	C193.2,212.5,205.4,192.3,222,168.1z"/>
<path id="Combined-Shape-Copy-2--globalStyle1_x2F_bgelements_x2F_phone_x2F_4_00000067220937134884022090000011216154333445362062_" class="st0" d="
	M925.1,443.8c-27.5,15.5-47.1,23-59,22.6s-33.3,1.9-64.5,6.9c17.3-15.9,34.9-25,52.7-27.2C872.2,443.8,895.8,443.1,925.1,443.8z
	 M845.1,219.8c6.2,12.7,8.7,27.7,7.6,44.8c3.1-10.6,6.7-21.8,10.6-33.7l-0.6,1.7c2-9.6,4.7-21.8,8.1-36.6c6-26.3,26-53.3,60-81
	c-7.5,23-16.8,44.9-27.9,65.8c-9.4,17.8-21.3,37.1-35.7,58c-6,18.4-11,35.2-14.9,50.3c4.3-8.2,9.6-15.2,15.8-21.1
	c13.1-12.3,31.8-26.7,55.9-43.4c-13.1,28.7-24.6,46.3-34.4,53c-9.1,6.2-23.7,19.2-43.8,39.1c-1.3,6.6-2.4,12.8-3.2,18.5l-0.4,2.5
	c-0.6,3.8-1.2,7.7-2,11.5c4.2-7.6,9.2-14.1,15-19.6c13.1-12.3,31.8-26.7,55.9-43.4c-13.1,28.7-24.6,46.3-34.4,53
	c-9.2,6.2-23.8,19.2-43.9,39.2c-2.6,8.3-5.4,16.2-8.6,23.6c5.2-5.6,10.8-10.3,16.9-14c15.4-9.3,36.6-19.6,63.7-30.8
	c-18.8,25.3-33.7,40.2-44.7,44.7c-10.5,4.3-28.2,14.4-52.9,30.4c-1.4,1.8-2.9,3.4-4.3,4.8l0.1-9.5c6.2-8,12.3-19.9,17.7-33.7
	c-11.8-26.3-20.9-44.1-27.3-53.2c-6.8-9.7-11.2-30.3-13.1-61.8c16.5,24.2,28.7,44.4,36.6,60.5c6.1,12.5,8.7,27.2,7.7,43.9
	c4.2-12.3,7.7-25.7,10.1-39c-12.3-27.6-21.8-46.2-28.4-55.6c-6.8-9.7-11.2-30.3-13.1-61.8c16.5,24.2,28.7,44.4,36.6,60.5
	c5.4,11.1,8,23.9,7.9,38.3c2.5-14.3,6.4-31,11.7-50c-12.1-27.1-21.4-45.2-27.9-54.6c-6.8-9.7-11.2-30.3-13.1-61.8
	C825,183.4,837.2,203.6,845.1,219.8z"/>
<g transform="translate(0,0)">
	<g>
		<g id="Symbols--globalStyle1_x2F_ecommerse_x2F_bg3">
			<g id="globalStyle1_x2F_ecommerse_x2F_bg3--globalStyle1_x2F_ecommerse_x2F_bg3">
				<path id="_x5B_color:background_x5D_background--globalStyle1_x2F_ecommerse_x2F_bg3" class="st1" d="M62.3,671.1h888.5
					C915.3,502.3,837,423.5,716.1,435c-181.4,17.2-275.3,174.5-341.5,174.5s-75.8-146.6-174.5-125.8
					C134.4,497.6,88.4,560.1,62.3,671.1z"/>
				<path id="shape--globalStyle1_x2F_ecommerse_x2F_bg3" class="st2" d="M62.3,671.1h888.5C915.3,502.3,837,423.5,716.1,435
					c-181.4,17.2-275.3,174.5-341.5,174.5s-75.8-146.6-174.5-125.8C134.4,497.6,88.4,560.1,62.3,671.1z"/>
				
					<path id="_x5B_color:background_x5D_background--globalStyle1_x2F_ecommerse_x2F_bg3_00000167395506898878729920000008895105174696379823_" class="st1" d="
					M950.8,671.1c-14.6-20.9-45-31.4-91.3-31.4c-69.4,0-131.4,22.1-169.9-12.5c-38.5-34.6-95-30.7-144.6,0s-61.7-31.1-143.9,9.7
					s-102.9-25.5-139-25.5s-17.3,64.3-73.1,15.8c-37.2-32.3-79.5-17.7-126.7,43.9H950.8z"/>
			</g>
		</g>
	</g>
</g>
<g transform="translate(132,212)">
	<g>
		<g id="Symbols--globalStyle1_x2F_bgelements_x2F_ecommerse_x2F_2">
			<g id="globalStyle1_x2F_bgelements_x2F_ecommerse_x2F_2--globalStyle1_x2F_bgelements_x2F_ecommerse_x2F_2">
				<path id="_x5B_color:bgelement_x5D_monitor--globalStyle1_x2F_bgelements_x2F_ecommerse_x2F_2" class="st3" d="M107.2,9.9
					c174.9,0,357,0,546.2,0c12.9,0,23.4,10.5,23.4,23.4V362c0,1-0.8,1.8-1.8,1.8H85.6c-1,0-1.8-0.8-1.8-1.8V33.2
					C84.8,18.3,92.6,10.5,107.2,9.9z"/>
				<path id="Combined-Shape--globalStyle1_x2F_bgelements_x2F_ecommerse_x2F_2" class="st4" d="M676.7,360.5v35.9
					c0,7.9-6.4,14.4-14.4,14.4H98.2c-7.9,0-14.4-6.4-14.4-14.4v-35.9H676.7z"/>
				
					<rect id="Rectangle--globalStyle1_x2F_bgelements_x2F_ecommerse_x2F_2" x="109" y="35.5" class="st5" width="541.7" height="302.7"/>
				
					<rect id="Rectangle-Copy-12--globalStyle1_x2F_bgelements_x2F_ecommerse_x2F_2" x="232.3" y="53.4" class="st6" width="295" height="8.4"/>
				
					<rect id="Rectangle-Copy-13--globalStyle1_x2F_bgelements_x2F_ecommerse_x2F_2" x="262.4" y="66.7" class="st6" width="234.9" height="2.2"/>
				
					<rect id="_x5B_color:bgelement_x5D_monitor--globalStyle1_x2F_bgelements_x2F_ecommerse_x2F_2_00000080191175021184934400000009385889260161514404_" x="121.4" y="53.4" class="st3" width="26.5" height="2.9"/>
				
					<rect id="_x5B_color:bgelement_x5D_monitor--globalStyle1_x2F_bgelements_x2F_ecommerse_x2F_2_00000106145922121282023480000012878501205826916494_" x="121.4" y="61.3" class="st3" width="26.5" height="2.9"/>
				
					<rect id="_x5B_color:bgelement_x5D_monitor--globalStyle1_x2F_bgelements_x2F_ecommerse_x2F_2_00000176724582882364954890000008113277688958174343_" x="121.4" y="69.2" class="st3" width="26.5" height="2.9"/>
				
					<rect id="Rectangle--globalStyle1_x2F_bgelements_x2F_ecommerse_x2F_2_00000163046376748176385630000008865741783232563357_" x="200.7" y="294.2" class="st6" width="87.9" height="6.4"/>
				
					<rect id="Rectangle-Copy-2--globalStyle1_x2F_bgelements_x2F_ecommerse_x2F_2" x="349.4" y="294.2" class="st6" width="87.9" height="6.4"/>
				
					<rect id="Rectangle-Copy-7--globalStyle1_x2F_bgelements_x2F_ecommerse_x2F_2" x="498.2" y="294.2" class="st6" width="87.9" height="6.4"/>
				
					<rect id="_x5B_color:bgelement_x5D_monitor--globalStyle1_x2F_bgelements_x2F_ecommerse_x2F_2_00000052090356269117503290000007227040052127113903_" x="167.9" y="294.2" class="st3" width="24.6" height="18.7"/>
				
					<rect id="_x5B_color:bgelement_x5D_monitor--globalStyle1_x2F_bgelements_x2F_ecommerse_x2F_2_00000111158850108665337050000000171506453291755424_" x="316.6" y="294.2" class="st3" width="24.6" height="18.7"/>
				
					<rect id="_x5B_color:bgelement_x5D_monitor--globalStyle1_x2F_bgelements_x2F_ecommerse_x2F_2_00000173122749990506561140000010048115803365077652_" x="465.3" y="294.2" class="st3" width="24.6" height="18.7"/>
				
					<rect id="_x5B_color:bgelement_x5D_monitor--globalStyle1_x2F_bgelements_x2F_ecommerse_x2F_2_00000155122914465330619320000003360724141343185855_" x="610.1" y="53.4" class="st3" width="24.6" height="18.7"/>
				
					<rect id="Rectangle-Copy--globalStyle1_x2F_bgelements_x2F_ecommerse_x2F_2" x="200.7" y="306.4" class="st6" width="62.1" height="6.4"/>
				
					<rect id="Rectangle-Copy-3--globalStyle1_x2F_bgelements_x2F_ecommerse_x2F_2" x="349.4" y="306.4" class="st6" width="62.1" height="6.4"/>
				
					<rect id="Rectangle-Copy-8--globalStyle1_x2F_bgelements_x2F_ecommerse_x2F_2" x="498.2" y="306.4" class="st6" width="62.1" height="6.4"/>
				
					<rect id="Rectangle-Copy-4--globalStyle1_x2F_bgelements_x2F_ecommerse_x2F_2" x="167.9" y="91" class="st7" width="122.8" height="181.3"/>
				
					<rect id="Rectangle-Copy-5--globalStyle1_x2F_bgelements_x2F_ecommerse_x2F_2" x="316.6" y="91" class="st7" width="122.8" height="181.3"/>
				
					<rect id="Rectangle-Copy-6--globalStyle1_x2F_bgelements_x2F_ecommerse_x2F_2" x="465.3" y="91" class="st7" width="122.8" height="181.3"/>
				<path id="Path-185--globalStyle1_x2F_bgelements_x2F_ecommerse_x2F_2" class="st8" d="M224.5,362.1H85.1v-329
					c0-11.9,9.7-21.6,21.6-21.6h257.6L224.5,362.1z"/>
				
					<circle id="_x5B_color:bgelement_x5D_monitor--globalStyle1_x2F_bgelements_x2F_ecommerse_x2F_2_00000034793208876883533790000014023077248427228088_" class="st3" cx="378" cy="385.6" r="15"/>
				
					<polygon id="_x5B_color:bgelement_x5D_monitor--globalStyle1_x2F_bgelements_x2F_ecommerse_x2F_2_00000021803515871117060900000011561934733996868262_" class="st3" points="
					611,166.4 611,199.8 634.7,183.1 				"/>
			</g>
		</g>
	</g>
</g>
<g transform="translate(668.5,344)">
	<g transform="translate(336,0) scale(-1, 1)">
		<g transform="translate(24.5,177.0000000000018)">
			<g>
				<g id="Symbols--globalStyle1_x2F_people_x2F_woman_x2F_bottom_x2F_3">
					<g id="globalStyle1_x2F_people_x2F_woman_x2F_bottom_x2F_3--globalStyle1_x2F_people_x2F_woman_x2F_bottom_x2F_3">
						<path id="_x5B_skin_x5D_leg---globalStyle1_x2F_people_x2F_woman_x2F_bottom_x2F_3" class="st9" d="M125.8-7.2
							c11.4,1.6,19.3,12.1,17.7,23.4c-0.2,1.5-0.5,2.9-1,4.2l-27.3,80c-0.1,0.3-0.2,0.7-0.3,1l0,0c-0.1,0.2-0.2,0.4-0.3,0.6l0,0
							l-54.5,84.5c-2.9-2.1-2.6-3-2.9-3c0,0,10.5-24.5,41.8-88.7l-0.2,0.5c0.1-0.2,0.2-0.5,0.3-0.7l0.1-0.1l3.1-82.7l0.1,0
							c0-0.5,0.1-0.9,0.1-1.4C103.9-0.9,114.4-8.8,125.8-7.2z"/>
						<path id="_x5B_clothes_x5D_shoes--globalStyle1_x2F_people_x2F_woman_x2F_bottom_x2F_3" class="st10" d="M150.7,195.6h23.8
							v-1.7c0,0-8.2,0-23.8,0V195.6z"/>
						
							<path id="_x5B_skin_x5D_leg---globalStyle1_x2F_people_x2F_woman_x2F_bottom_x2F_3_00000165917883081561433560000008001080972499254433_" class="st9" d="
							M131.1-8.6c10.5-3,21.4,3,24.4,13.5c0.2,0.9,0.4,1.7,0.6,2.6l0,0l9.5,84.4c0.2,0.9,0.2,1.8,0.1,2.7l-8.9,92.3l-5.1,3.8
							l-0.8-5.9c0,0-0.1-82.3-0.9-89.6c0,0,0,0,0,0l0,0l-31.4-76.8c-0.3-0.8-0.6-1.6-0.9-2.4C114.6,5.3,120.7-5.6,131.1-8.6z"/>
						<path id="shadow--globalStyle1_x2F_people_x2F_woman_x2F_bottom_x2F_3" class="st11" d="M131.1-8.6c10.5-3,21.4,3,24.4,13.5
							c0.2,0.9,0.4,1.7,0.6,2.6l0,0l9.5,84.4c0.2,0.9,0.2,1.8,0.1,2.7l-8.9,92.3l-5.1,3.8l-0.8-5.9c0,0-0.1-82.3-0.9-89.6
							c0,0,0,0,0,0l0,0l-31.4-76.8c-0.3-0.8-0.6-1.6-0.9-2.4C114.6,5.3,120.7-5.6,131.1-8.6z"/>
						<path id="Fill-15--globalStyle1_x2F_people_x2F_woman_x2F_bottom_x2F_3" class="st12" d="M150.7,171.4V194l23.8,0
							c-0.1-1.5-0.2-2.3-3-2.3c-4.2-0.1-14.5,0.4-14.5-3.7c0-0.9,1.7-6,3.9-15.4L150.7,171.4z"/>
						
							<path id="shadow--globalStyle1_x2F_people_x2F_woman_x2F_bottom_x2F_3_00000172434656995111844160000007104118768806322324_" class="st13" d="
							M150.7,171.4V194l23.8,0c-0.1-1.5-0.2-2.3-3-2.3c-4.2-0.1-14.5,0.4-14.5-3.7c0-0.9,1.7-6,3.9-15.4L150.7,171.4z"/>
						<path id="shape--globalStyle1_x2F_people_x2F_woman_x2F_bottom_x2F_3" class="st12" d="M65,163.4L55.8,184l21.7,9.7
							c0.5-1.4,0.7-2.2-1.8-3.4c-3.8-1.8-11.9-5.2-10.3-8.9c0.4-0.8,2.5-5.1,8.4-12.9L65,163.4z"/>
						
							<path id="_x5B_clothes_x5D_shoes--globalStyle1_x2F_people_x2F_woman_x2F_bottom_x2F_3_00000104664383622390497920000007334829328931222944_" class="st10" d="
							M55.1,185.5l21.7,9.7l0.7-1.5c0,0-7.5-3.4-21.7-9.7L55.1,185.5z"/>
						<path id="_x5B_clothes_x5D_skirt--globalStyle1_x2F_people_x2F_woman_x2F_bottom_x2F_3" class="st10" d="M155.1-17
							c2.6,14.6,4.4,26.3,5.3,35c0.9,8.7,2.2,21.8,3.9,39.4c-11.6,2.7-23.6,3.8-35.9,3.1c-12.3-0.7-22.6-1.7-30.7-3.1
							c-2.7-18.4-4-32.1-3.7-41.1c0.3-9,2.8-20.1,7.7-33.3L155.1-17z"/>
					</g>
				</g>
			</g>
		</g>
		<g transform="translate(105.5,30)">
			<g>
				<g id="Symbols--globalStyle1_x2F_people_x2F_woman_x2F_head_x2F_1">
					<g id="globalStyle1_x2F_people_x2F_woman_x2F_head_x2F_1--globalStyle1_x2F_people_x2F_woman_x2F_head_x2F_1">
						<g id="Group-2--globalStyle1_x2F_people_x2F_woman_x2F_head_x2F_1" transform="translate(34.473 8.004)">
							<path id="_x5B_hair_x5D_hair--globalStyle1_x2F_people_x2F_woman_x2F_head_x2F_1" class="st14" d="M47.1,39.5
								c-30.5-1-45.6-4-45.4-9.2C2.5,14.9,18.6,26,13.3,14.6C8.4,4.1,17-8,35,2.8c4.9,2.9,5.1,4,0.7,3.1L47.1,39.5z"/>
							<path id="shadow--globalStyle1_x2F_people_x2F_woman_x2F_head_x2F_1" class="st15" d="M47.1,39.5c-30.5-1-45.6-4-45.4-9.2
								C2.6,14.9,18.6,26,13.4,14.6C8.5,4.1,17.1-8,35.1,2.8c4.9,2.9,5.1,4,0.7,3.1L47.1,39.5z"/>
							<g id="Group--globalStyle1_x2F_people_x2F_woman_x2F_head_x2F_1" transform="translate(.427 12.816)">
								<polygon id="_x5B_skin_x5D_skin--globalStyle1_x2F_people_x2F_woman_x2F_head_x2F_1" class="st9" points="-1.5,54.5 
									19.7,6.4 29,12.4 21.9,54.5 								"/>
								
									<polygon id="shadow--globalStyle1_x2F_people_x2F_woman_x2F_head_x2F_1_00000098916963811505926880000004174387201735954861_" class="st11" points="
									-1.5,54.5 19.7,6.4 29,12.4 21.9,54.5 								"/>
								
									<ellipse id="_x5B_skin_x5D_skin--globalStyle1_x2F_people_x2F_woman_x2F_head_x2F_1_00000163066275209620039040000009068871934086984078_" transform="matrix(0.2079 -0.9781 0.9781 0.2079 17.6188 31.5917)" class="st9" cx="28.3" cy="4.9" rx="15.6" ry="-9.1"/>
								<path id="smile--globalStyle1_x2F_people_x2F_woman_x2F_head_x2F_1" class="st16" d="M33,14.7c0.6,0,1.9-0.3,2-1.7l-3.7-0.3
									C31.2,14.1,32.4,14.7,33,14.7z"/>
							</g>
							
								<path id="_x5B_hair_x5D_hair--globalStyle1_x2F_people_x2F_woman_x2F_head_x2F_1_00000174571468300602719320000013384831513379330994_" class="st14" d="
								M5.8-10.4c1.9-1.3,5.1,0.2,7.2,3.2c1.4,2.1,1.9,4.4,1.5,6c2-0.7,4-1.1,6-1c15.7,0.5,24.5,5.4,24.9,6.7c0.8,2.3-6,4.8-9.9,5.4
								c-2.5,0.3-9.4-1.2-12.3,0.7c-0.6,0.4,0.1,10.5,2,30.3l0,0l-36.3-11.1C-3.9,15.1,3.2,5.5,10.4,1C8.9,0.5,7.3-0.7,6.1-2.5
								C4-5.6,3.9-9.1,5.8-10.4z"/>
						</g>
					</g>
				</g>
			</g>
		</g>
		<g transform="translate(118.5,97)">
			<g>
				<g id="Symbols--globalStyle1_x2F_people_x2F_woman_x2F_top_x2F_1">
					<g id="globalStyle1_x2F_people_x2F_woman_x2F_top_x2F_1--globalStyle1_x2F_people_x2F_woman_x2F_top_x2F_1">
						<path id="_x5B_skin_x5D_hand--globalStyle1_x2F_people_x2F_woman_x2F_top_x2F_1" class="st9" d="M73.7,4.8
							c0.3,3.9,1.3,39.3,1.5,50.1c7,1.7,19.1,5,37.6,9.7l0,0l5.9-1.4l4.8-1.6l5.4,0.8c0.4,0.1,0.4,0.3,0.3,0.3
							c-1.4,0.5-2.6,0.6-4.2,0.4c-1.4,1-2.8,0.7-1.9,2c0.1,0.1,2.9,0.3,5.6-0.3c0.4-0.1,2.3-0.3,2.5-0.4c1.3-0.2,1.5-0.4,2.4-0.7
							c0.3-0.1,0.7-0.1,1.2,0c0.1,0,0.1,0,0.2,0.1c0.1,0.1,0.1,0.3,0,0.3c-0.3,0.2-0.7,0.4-1.1,0.6c-0.6,0.3-2.5,0.9-4.2,1.3
							c-1.1,0.2-2.5,0.6-2.7,0.7c-0.2,0.1,2.1-0.2,3.9-0.3c1.9-0.1,2.8-1,4.4-1.6c0.2-0.1,0.6-0.1,1.3-0.1c0,0,0.4,0.1,0.3,0.2
							c-0.1,0.2-1.7,1.3-2.7,1.8c-1.7,0.8-2.1,0.8-2.9,0.9c-1.1,0.1-3,0.4-3.6,0.5c-0.5,0.1,2.5,0.1,4.7-0.3c0.3-0.1,1-0.3,1.3-0.4
							c0.9-0.3,2-1,2.5-0.9c0.1,0,0.1,0,0.2,0.1c0.3,0.1,0.3,0.4,0.1,0.6c-0.5,0.4-1.3,0.9-2.5,1.4c-0.3,0.1-1.3,0.5-1.7,0.6
							c-1.8,0.3-4,0.2-4.2,0.3s1.1,0,2.7-0.1c0.4,0,1.8-0.2,2.1-0.2c0.4,0,0.6-0.1,1.2-0.2c1.2-0.2,1.5,0.3,0.9,0.6
							c-0.6,0.4-6,1.3-8.5,1.5c-1.3,0.1-4,0.4-7.4,0.2l-6.7-1.1c0,0-0.1,0-0.1,0c-0.2,0-0.4,0-0.6-0.1l-0.4,0
							c-23.2,0.4-40.2,0.6-46.3-3.3l0,0c-0.8-0.4-1.5-1-2-1.7c-0.1-0.1-0.1-0.2-0.2-0.3c-0.8-1-1.2-2.1-1.3-3.2
							C57.9,49.4,56,14.3,55.2,5.6C55.2,5.6,67.1,5.4,73.7,4.8z"/>
						<path id="shadow--globalStyle1_x2F_people_x2F_woman_x2F_top_x2F_1" class="st11" d="M73.7,4.8c0.3,3.9,1.3,39.3,1.5,50.1
							c7,1.7,19.1,5,37.6,9.7l0,0l5.9-1.4l4.8-1.6l5.4,0.8c0.4,0.1,0.4,0.3,0.3,0.3c-1.4,0.5-2.6,0.6-4.2,0.4c-1.4,1-2.8,0.7-1.9,2
							c0.1,0.1,2.9,0.3,5.6-0.3c0.4-0.1,2.3-0.3,2.5-0.4c1.3-0.2,1.5-0.4,2.4-0.7c0.3-0.1,0.7-0.1,1.2,0c0.1,0,0.1,0,0.2,0.1
							c0.1,0.1,0.1,0.3,0,0.3c-0.3,0.2-0.7,0.4-1.1,0.6c-0.6,0.3-2.5,0.9-4.2,1.3c-1.1,0.2-2.5,0.6-2.7,0.7
							c-0.2,0.1,2.1-0.2,3.9-0.3c1.9-0.1,2.8-1,4.4-1.6c0.2-0.1,0.6-0.1,1.3-0.1c0,0,0.4,0.1,0.3,0.2c-0.1,0.2-1.7,1.3-2.7,1.8
							c-1.7,0.8-2.1,0.8-2.9,0.9c-1.1,0.1-3,0.4-3.6,0.5c-0.5,0.1,2.5,0.1,4.7-0.3c0.3-0.1,1-0.3,1.3-0.4c0.9-0.3,2-1,2.5-0.9
							c0.1,0,0.1,0,0.2,0.1c0.3,0.1,0.3,0.4,0.1,0.6c-0.5,0.4-1.3,0.9-2.5,1.4c-0.3,0.1-1.3,0.5-1.7,0.6c-1.8,0.3-4,0.2-4.2,0.3
							s1.1,0,2.7-0.1c0.4,0,1.8-0.2,2.1-0.2c0.4,0,0.6-0.1,1.2-0.2c1.2-0.2,1.5,0.3,0.9,0.6c-0.6,0.4-6,1.3-8.5,1.5
							c-1.3,0.1-4,0.4-7.4,0.2l-6.7-1.1c0,0-0.1,0-0.1,0c-0.2,0-0.4,0-0.6-0.1l-0.4,0c-23.2,0.4-40.2,0.6-46.3-3.3l0,0
							c-0.8-0.4-1.5-1-2-1.7c-0.1-0.1-0.1-0.2-0.2-0.3c-0.8-1-1.2-2.1-1.3-3.2C57.9,49.4,56,14.3,55.2,5.6
							C55.2,5.6,67.1,5.4,73.7,4.8z"/>
						<path id="_x5B_clothes_x5D_tshirt--globalStyle1_x2F_people_x2F_woman_x2F_top_x2F_1" class="st17" d="M28.4-10.3
							C2-10.7-2.2,9-2.2,36.1c0,7.1-1.3,48.7,1.5,53.4c10.4,17.3,67.3,12.3,69.6,0c0.8-4.5,0.4,7-1.4-65.2c4.9-13.2,7-20.7,6.3-22.4
							C70.2-6.6,53.6-9.3,47.1-10.3c-1.7,1.2-4.3,4.1-6,4.1C40.3-6.5,29.6-9.6,28.4-10.3z"/>
						
							<path id="_x5B_skin_x5D_hand--globalStyle1_x2F_people_x2F_woman_x2F_top_x2F_1_00000168078089673803907070000007470145816889913224_" class="st9" d="
							M26.6,5.7l0,50.9c4.2,3.6,11.4,12.5,32.2,25.2l0,0l5.8,0.7l5.1,0.2l4.8,2.7c0.4,0.2,0.3,0.4,0.2,0.4c-1.5,0-2.6-0.4-4.1-1.2
							c-1.6,0.4-2.9-0.4-2.5,1.1c0,0.2,2.6,1.3,5.3,1.8c0.4,0.1,2.2,0.5,2.5,0.6c1.3,0.3,1.6,0.2,2.5,0.2c0.3,0,0.7,0.1,1.1,0.4
							c0.1,0,0.1,0.1,0.1,0.1c0.1,0.1,0,0.3-0.1,0.3c-0.4,0.1-0.8,0.1-1.2,0.1c-0.6,0-2.6-0.1-4.3-0.3c-1.2-0.2-2.6-0.4-2.7-0.4
							c-0.3,0,2,0.6,3.8,1.2c1.8,0.6,3,0.1,4.7,0.1c0.2,0,0.6,0.1,1.2,0.4c0,0,0.3,0.2,0.2,0.3c-0.1,0.1-2.1,0.6-3.2,0.7
							c-1.9,0.2-2.2,0-3.1-0.2c-1.1-0.3-3-0.7-3.5-0.8c-0.5-0.1,2.3,1.1,4.5,1.5c0.3,0.1,1,0.1,1.4,0.1c1,0.1,2.3-0.2,2.7,0.1
							c0.1,0,0.1,0.1,0.2,0.1c0.2,0.2,0.2,0.5-0.1,0.6c-0.6,0.2-1.6,0.4-2.8,0.4c-0.3,0-1.4,0-1.8-0.1c-1.7-0.4-3.8-1.2-4-1.2
							c-0.2,0,1.1,0.4,2.6,0.9c0.3,0.1,1.8,0.5,2,0.6c0.3,0.1,0.6,0.1,1.2,0.3c1.2,0.3,1.3,0.8,0.6,0.9c-0.7,0.1-6.1-0.9-8.4-1.7
							c-1.3-0.4-3.9-1-6.9-2.5l-6-3.3c0,0,0,0,0,0l-0.9-0.3c-22-7.6-35.5-13.7-41-19.1c-0.6-0.5-1.2-1.1-1.7-1.8
							c-0.2-0.3-0.4-0.6-0.5-0.8l0,0l0,0c-0.1-0.1-0.1-0.2-0.2-0.3c-0.4-0.8-0.6-1.7-0.6-2.5c0-0.1,0-0.1,0-0.2
							C8.9,49.8,8.2,14.6,8.2,5.7l0,0H26.6z"/>
						
							<path id="_x5B_clothes_x5D_tshirt--globalStyle1_x2F_people_x2F_woman_x2F_top_x2F_1_00000008127995819990674640000006982284286127520159_" class="st17" d="
							M3.8,26.1h26.6c-0.2-12.2-1.1-20.2-2.8-24C25-3.6,12.4-3.6,7.8,1C4.7,4.1,3.4,12.4,3.8,26.1z M50,26.1h26.6
							c-0.2-12.2-1.1-20.2-2.8-24C71.2-3.6,58.6-3.6,54,1C50.9,4.1,49.6,12.4,50,26.1z"/>
					</g>
				</g>
			</g>
		</g>
	</g>
</g>
<g transform="translate(577,344)">
	<g transform="translate(336,0) scale(-1, 1)">
		<g transform="translate(101,223)">
			<g>
				<g id="Symbols--globalStyle1_x2F_people_x2F_youngboy_x2F_bottom_x2F_1">
					<g id="globalStyle1_x2F_people_x2F_youngboy_x2F_bottom_x2F_1--globalStyle1_x2F_people_x2F_youngboy_x2F_bottom_x2F_1">
						<path id="_x5B_skin_x5D_leg--globalStyle1_x2F_people_x2F_youngboy_x2F_bottom_x2F_1" class="st18" d="M70.5,141
							c-3.1-0.2-4.7-0.3-4.7-0.3l0,0c0-0.9-1-23.1-2.9-66.8c0,0-0.9-24.1-2.7-72.2l27.1-1.9l-7.6,72.9L70.5,141z"/>
						<path id="shadow--globalStyle1_x2F_people_x2F_youngboy_x2F_bottom_x2F_1" class="st11" d="M70.5,141
							c-3.1-0.2-4.7-0.3-4.7-0.3l0,0c0-0.9-1-23.1-2.9-66.8c0,0-0.9-24.1-2.7-72.2l27.1-1.9l-7.6,72.9L70.5,141z"/>
						
							<path id="_x5B_skin_x5D_leg--globalStyle1_x2F_people_x2F_youngboy_x2F_bottom_x2F_1_00000101785995039251402950000014051174851923899310_" class="st18" d="
							M62,1.6l-7.6,72.9l0,0l-0.2,1.7c0,0.4-0.1,0.8-0.2,1.3l-9.5,65.4c-2.7-0.2-4-0.3-4-0.3l0,0c0-0.9-1-23.1-2.9-66.8l0,0
							c0,0-0.9-24.1-2.7-72.2L62,1.6z"/>
						<path id="shape--globalStyle1_x2F_people_x2F_youngboy_x2F_bottom_x2F_1" class="st19" d="M39.6,136.9l1.3,14.5h18.6
							c0.9-1,0.2-1.6-2.1-1.6c-3.4-0.1-11.5,0.3-11.5-2.9c0-0.7,0.9-4,2.7-10H39.6z"/>
						<path id="_x5B_clothes_x5D_clothes--globalStyle1_x2F_people_x2F_youngboy_x2F_bottom_x2F_1" class="st20" d="M40.9,151.8
							h19.2c-0.2-0.9-0.2-1.3-0.3-1.3c0,0,0,0-0.2,0c-0.1,0-6.4,0-18.8,0V151.8z"/>
						
							<path id="shape--globalStyle1_x2F_people_x2F_youngboy_x2F_bottom_x2F_1_00000035525777547423263050000016787102951661126820_" class="st19" d="
							M64.9,136.8l1,14.5h18.6c0.9-1,0.2-1.6-2.1-1.6c-3.4-0.1-11.5,0.3-11.5-2.9c0-0.7,0.9-4,2.6-10H64.9z"/>
						
							<path id="shadow--globalStyle1_x2F_people_x2F_youngboy_x2F_bottom_x2F_1_00000120522245096533364240000008858295177573823669_" class="st11" d="
							M64.9,136.8l1,14.5h18.6c0.9-1,0.2-1.6-2.1-1.6c-3.4-0.1-11.5,0.3-11.5-2.9c0-0.7,0.9-4,2.6-10H64.9z"/>
						
							<path id="_x5B_clothes_x5D_clothes--globalStyle1_x2F_people_x2F_youngboy_x2F_bottom_x2F_1_00000056415242347284096850000010033775325420565410_" class="st20" d="
							M66,151.7h19.2c-0.2-0.9-0.2-1.3-0.3-1.3c0,0,0,0-0.2,0c-0.1,0-6.4,0-18.8,0V151.7z"/>
						
							<polygon id="_x5B_clothes_x5D_clothes--globalStyle1_x2F_people_x2F_youngboy_x2F_bottom_x2F_1_00000150802621074373943820000003094656976235080067_" class="st20" points="
							58.3,71 36.8,-19 89.6,-20.8 89.6,70.8 						"/>
						
							<polygon id="shadow--globalStyle1_x2F_people_x2F_youngboy_x2F_bottom_x2F_1_00000064316173953850315070000005772109623904237972_" class="st11" points="
							58.3,71 36.8,-19 89.6,-20.8 89.6,70.8 						"/>
						
							<polygon id="_x5B_clothes_x5D_clothes--globalStyle1_x2F_people_x2F_youngboy_x2F_bottom_x2F_1_00000076597323917684018710000006178964022395655083_" class="st20" points="
							29.4,71.7 29.6,-19.4 68.3,-19.4 67.7,7.4 63.3,16.4 62.1,71.7 						"/>
					</g>
				</g>
			</g>
		</g>
		<g transform="translate(114.2099996092002,81.26029103520654)">
			<g>
				<g id="Symbols--globalStyle1_x2F_people_x2F_youngboy_x2F_head_x2F_1">
					<g id="globalStyle1_x2F_people_x2F_youngboy_x2F_head_x2F_1--globalStyle1_x2F_people_x2F_youngboy_x2F_head_x2F_1">
						<g id="head--globalStyle1_x2F_people_x2F_youngboy_x2F_head_x2F_1" transform="rotate(-8 216.108 -165.66)">
							<polygon id="_x5B_skin_x5D_head--globalStyle1_x2F_people_x2F_youngboy_x2F_head_x2F_1" class="st18" points="-4,60 
								22.1,13.5 31.3,19.6 20.3,60 							"/>
							<polygon id="shadow--globalStyle1_x2F_people_x2F_youngboy_x2F_head_x2F_1" class="st11" points="-4,60 22.1,13.5 31.3,19.6 
								20.3,60 							"/>
							
								<ellipse id="_x5B_skin_x5D_head--globalStyle1_x2F_people_x2F_youngboy_x2F_head_x2F_1_00000163795385360419564220000011088018587389723806_" transform="matrix(0.9848 -0.1737 0.1737 0.9848 -0.7949 5.7049)" class="st18" cx="32.2" cy="7.4" rx="9.7" ry="-16.3"/>
							<path id="Path-Copy--globalStyle1_x2F_people_x2F_youngboy_x2F_head_x2F_1" class="st21" d="M34.5,15.8l4,0.6
								c-0.4,1.3-1.4,2.1-2.4,2C35.1,18.3,34.4,17.2,34.5,15.8z"/>
							<path id="_x5B_hair_x5D_hair--globalStyle1_x2F_people_x2F_youngboy_x2F_head_x2F_1" class="st22" d="M21.1,13.2
								c0.4,1.7-1.8,3.3-0.8,3c2.8-0.8,3.7-7.2,8.1-8.8c1.9-0.7,3.8-2.8,5.6-6.5c3.2-3.9,5.5-4.7,7.1-2.5c2.3,3.3-3-5.6,3.4-4.7
								c5.9,0.8-2.8-14.4-5.5-10.4c-2,3-2.5-0.9-6.8-1c-1.3,0-2.8,4.5-7.6,3.3s-7.7,4.2-8,6.5C15.8-2.6,18.1-3,19,1.6
								C20.1,6.6,20.8,11.9,21.1,13.2z"/>
						</g>
					</g>
				</g>
			</g>
		</g>
		<g transform="translate(105,154.5821037033605)">
			<g>
				<g id="Symbols--globalStyle1_x2F_people_x2F_youngboy_x2F_top_x2F_1">
					<g id="globalStyle1_x2F_people_x2F_youngboy_x2F_top_x2F_1--globalStyle1_x2F_people_x2F_youngboy_x2F_top_x2F_1">
						<path id="_x5B_skin_x5D_hand--globalStyle1_x2F_people_x2F_youngboy_x2F_top_x2F_1" class="st18" d="M105.7,40.7l7.2,0.2
							l5.7-3.1l4.6-0.3c0.4,0,0.4,0.2,0.3,0.2c-1.1,0.7-2,1-3.4,1.1c-0.9,1.1-2.2,1.1-1.3,2c0.1,0.1,2.4-0.3,4.5-1.2
							c0.3-0.1,1.8-0.7,2-0.7c1-0.4,1.2-0.6,1.9-1c0.2-0.1,0.5-0.2,0.9-0.2c0.1,0,0.1,0,0.2,0c0.1,0.1,0.2,0.2,0.1,0.3
							c-0.2,0.2-0.5,0.4-0.8,0.7c-0.4,0.3-1.9,1.2-3.2,1.8c-0.9,0.4-2,0.9-2.1,1c-0.2,0.2,1.7-0.5,3.2-0.9c1.5-0.4,2.1-1.3,3.3-2.1
							c0.2-0.1,0.5-0.2,1-0.3c0,0,0.3,0,0.3,0.2c0,0.2-1.2,1.4-1.9,2c-1.2,1-1.5,1.1-2.2,1.3c-0.9,0.3-2.4,0.9-2.8,1.1
							c-0.4,0.2,2.1-0.3,3.8-1.1c0.3-0.1,0.8-0.4,1-0.5c0.7-0.4,1.5-1.2,1.9-1.2c0.1,0,0.1,0,0.2,0c0.3,0.1,0.4,0.3,0.2,0.4
							c-0.3,0.5-0.9,1-1.8,1.6c-0.2,0.1-1,0.7-1.3,0.8c-1.4,0.5-3.2,0.9-3.3,1c-0.1,0.1,0.9-0.2,2.2-0.5c0.3-0.1,1.5-0.5,1.7-0.6
							c0.3-0.1,0.5-0.2,1-0.4c1-0.4,1.2-0.1,0.8,0.4c-0.4,0.4-4.4,2.1-6.5,2.7l-0.2,0.1c-1.1,0.3-3.2,1.1-6,1.5l-6.4,0.5
							c-0.4,0.1-0.8,0.2-1.3,0.1l-3.7,0.3L105.7,40.7z"/>
						<path id="shadow--globalStyle1_x2F_people_x2F_youngboy_x2F_top_x2F_1" class="st11" d="M105.7,40.7l7.2,0.2l5.7-3.1l4.6-0.3
							c0.4,0,0.4,0.2,0.3,0.2c-1.1,0.7-2,1-3.4,1.1c-0.9,1.1-2.2,1.1-1.3,2c0.1,0.1,2.4-0.3,4.5-1.2c0.3-0.1,1.8-0.7,2-0.7
							c1-0.4,1.2-0.6,1.9-1c0.2-0.1,0.5-0.2,0.9-0.2c0.1,0,0.1,0,0.2,0c0.1,0.1,0.2,0.2,0.1,0.3c-0.2,0.2-0.5,0.4-0.8,0.7
							c-0.4,0.3-1.9,1.2-3.2,1.8c-0.9,0.4-2,0.9-2.1,1c-0.2,0.2,1.7-0.5,3.2-0.9c1.5-0.4,2.1-1.3,3.3-2.1c0.2-0.1,0.5-0.2,1-0.3
							c0,0,0.3,0,0.3,0.2c0,0.2-1.2,1.4-1.9,2c-1.2,1-1.5,1.1-2.2,1.3c-0.9,0.3-2.4,0.9-2.8,1.1c-0.4,0.2,2.1-0.3,3.8-1.1
							c0.3-0.1,0.8-0.4,1-0.5c0.7-0.4,1.5-1.2,1.9-1.2c0.1,0,0.1,0,0.2,0c0.3,0.1,0.4,0.3,0.2,0.4c-0.3,0.5-0.9,1-1.8,1.6
							c-0.2,0.1-1,0.7-1.3,0.8c-1.4,0.5-3.2,0.9-3.3,1c-0.1,0.1,0.9-0.2,2.2-0.5c0.3-0.1,1.5-0.5,1.7-0.6c0.3-0.1,0.5-0.2,1-0.4
							c1-0.4,1.2-0.1,0.8,0.4c-0.4,0.4-4.4,2.1-6.5,2.7l-0.2,0.1c-1.1,0.3-3.2,1.1-6,1.5l-6.4,0.5c-0.4,0.1-0.8,0.2-1.3,0.1
							l-3.7,0.3L105.7,40.7z"/>
						<path id="_x5B_clothes_x5D_clothes--globalStyle1_x2F_people_x2F_youngboy_x2F_top_x2F_1" class="st23" d="M70.3-15.6
							c4-8,15.5-5.9,16.4,3.8c0.7,7.1-3.1,30.8-5.7,44.3c4.6,0.8,12.7,2.6,29.4,7.4l0,0l0.4,8.3c-18.4,0.1-29.8-0.5-36.7-1.9
							c-3.1,0.7-6.4-1.2-7.7-3.1c-1.2-1-1.8-2.1-2.1-3.3c-0.6-2.4-0.3-4.3,0.6-5.7C64.4,19.2,67.1-9.2,70.3-15.6z"/>
						
							<path id="shadow--globalStyle1_x2F_people_x2F_youngboy_x2F_top_x2F_1_00000016792563032420462430000016594381142632635308_" class="st24" d="
							M70.3-15.6c4-8,15.5-5.9,16.4,3.8c0.7,7.1-3.1,30.8-5.7,44.3c4.6,0.8,12.7,2.6,29.4,7.4l0,0l0.4,8.3
							c-18.4,0.1-29.8-0.5-36.7-1.9c-3.1,0.7-6.4-1.2-7.7-3.1c-1.2-1-1.8-2.1-2.1-3.3c-0.6-2.4-0.3-4.3,0.6-5.7
							C64.4,19.2,67.1-9.2,70.3-15.6z"/>
						
							<path id="_x5B_clothes_x5D_clothes--globalStyle1_x2F_people_x2F_youngboy_x2F_top_x2F_1_00000034788098840937248380000010718801455517744057_" class="st23" d="
							M59.5-14.8c-2.1-0.2-5.8-5.9-7.7-6c-4.8-0.3-15.8-0.6-20.3-0.6c-13.1,0-10.8,28.7-10.8,28.7c0.1,6.2,1.1,40.9,3.6,45
							c9.2,15.2,62,11.6,62,0c0-1.3-1.8-15.3-1.3-24.7c0.4-6.5,2.1-48.4-7.6-48.4c-2.6-0.4-6-0.8-10.2-1
							C63.9-16.9,61.4-14.6,59.5-14.8z"/>
						
							<path id="_x5B_skin_x5D_hand--globalStyle1_x2F_people_x2F_youngboy_x2F_top_x2F_1_00000144312778247997657660000002022046431103240621_" class="st18" d="
							M42,66.9l1.9,6.9l4.6,4.5l1.6,4.3c0.1,0.3-0.1,0.4-0.1,0.4c-1-0.8-1.5-1.6-2-2.9c-1.3-0.6-1.7-1.8-2.3-0.6
							c-0.1,0.1,1,2.2,2.5,4c0.2,0.2,1.2,1.5,1.3,1.7c0.7,0.9,0.9,1,1.5,1.5c0.2,0.2,0.3,0.4,0.5,0.8c0,0.1,0,0.1,0,0.2
							c0,0.1-0.1,0.2-0.3,0.1c-0.3-0.2-0.6-0.3-0.9-0.6c-0.4-0.3-1.7-1.4-2.6-2.5c-0.6-0.7-1.5-1.6-1.6-1.7c-0.2-0.1,1,1.4,1.8,2.7
							c0.8,1.3,1.9,1.7,3,2.5c0.2,0.1,0.4,0.4,0.6,0.9c0,0,0.1,0.3-0.1,0.3c-0.1,0-1.7-0.7-2.4-1.3c-1.3-0.9-1.5-1.2-1.9-1.8
							c-0.5-0.8-1.6-2-1.9-2.4c-0.3-0.3,0.9,1.9,2.1,3.3c0.2,0.2,0.6,0.6,0.8,0.8c0.6,0.6,1.6,1.1,1.7,1.5c0,0.1,0,0.1,0,0.2
							c0,0.3-0.2,0.4-0.4,0.3c-0.5-0.2-1.2-0.6-2-1.2c-0.2-0.2-0.9-0.8-1.1-1c-0.9-1.2-1.8-2.8-2-2.9c-0.2-0.1,0.5,0.8,1.2,2
							c0.2,0.3,0.9,1.2,1,1.4c0.2,0.3,0.3,0.4,0.6,0.8c0.6,0.8,0.4,1.2-0.1,0.9c-0.5-0.3-3.3-3.6-4.5-5.4l-0.1-0.2
							c-0.6-0.9-2-2.7-3.2-5.3l-2.4-5.9c-0.2-0.4-0.4-0.8-0.5-1.2l-1.4-3.5L42,66.9z"/>
						
							<path id="_x5B_clothes_x5D_clothes--globalStyle1_x2F_people_x2F_youngboy_x2F_top_x2F_1_00000095311773841946096640000014316981825455323031_" class="st23" d="
							M22.9-16c3.5-8.3,15-7,16.6,2.6c1.3,8-1.6,38.4-3.3,49.8c1.2,3.5,3.5,10.1,7.9,33l0,0l-7.2,4.1C29.3,59,24.8,49.1,22.7,42.3
							c0-0.1-0.1-0.1-0.1-0.2C19.1,35.5,19.4-7.7,22.9-16z"/>
						
							<path id="shadow--globalStyle1_x2F_people_x2F_youngboy_x2F_top_x2F_1_00000142883075609478405050000008401339406220683939_" class="st11" d="
							M22.9-16c3.5-8.3,15-7,16.6,2.6c1.3,8-1.6,38.4-3.3,49.8c1.2,3.5,3.5,10.1,7.9,33l0,0l-7.2,4.1C29.3,59,24.8,49.1,22.7,42.3
							c0-0.1-0.1-0.1-0.1-0.2C19.1,35.5,19.4-7.7,22.9-16z"/>
					</g>
				</g>
			</g>
		</g>
	</g>
</g>
<g transform="translate(557,546.5)">
	<g>
		<g id="Symbols--globalStyle1_x2F_animals_x2F_dogvscat_x2F_5">
			<g id="globalStyle1_x2F_animals_x2F_dogvscat_x2F_5--globalStyle1_x2F_animals_x2F_dogvscat_x2F_5">
				<path id="_x5B_color_x5D_color--globalStyle1_x2F_animals_x2F_dogvscat_x2F_5" class="st25" d="M83.6,87.1
					c0.4-0.2,0.9-0.2,1.6,0.1l-0.1,0c1.4,0.4,2.5,1.7,2.5,3.3c0,0.1,0,0.2,0,0.2c0.9,3.2,1.2,8,3.8,13.2c0.3,0.7,0.7,1.4,1,2.1
					c1.1,0.9,1.8,2.1,2.1,3.5c1.7,2.1,3.9,4.7,6.3,7.9c2.6,3.4,8.5,8.9,4.3,13.4c-4.9,5.2-10.9-1.1-14-4.7c-2.6-3-6.4-7.9-8.3-12
					c-0.8-1.6-1.3-3.8-1.4-6.3c-0.2-4.2,0-9.2,0.4-14.6c-0.7-0.6-1.2-1.6-1.2-2.6C80.7,88.8,81.9,87.4,83.6,87.1L83.6,87.1z"/>
				<path id="shadow--globalStyle1_x2F_animals_x2F_dogvscat_x2F_5" class="st11" d="M83.6,87.1c0.4-0.2,0.9-0.2,1.6,0.1l-0.1,0
					c1.4,0.4,2.5,1.7,2.5,3.3c0,0.1,0,0.2,0,0.2c0.9,3.2,1.2,8,3.8,13.2c0.3,0.6,0.6,1.2,0.8,1.9c1.2,0.9,2,2.2,2.3,3.7
					c1.7,2.1,3.9,4.7,6.3,7.9c2.6,3.4,8.5,8.9,4.3,13.4c-4.9,5.2-10.9-1.1-14-4.7c-3-3.5-7.7-9.5-9-14c0-0.1,0-0.1-0.1-0.2
					c-0.3-0.9-0.4-1.9-0.5-3c-0.2-4.2-0.1-10.1,0.3-15.7c-0.7-0.6-1.2-1.6-1.2-2.6C80.7,88.8,81.9,87.4,83.6,87.1L83.6,87.1z"/>
				<path id="Fill-11-Copy--globalStyle1_x2F_animals_x2F_dogvscat_x2F_5" class="st26" d="M79.7,91.7c-1.5-1.3-1.7-3.2-0.5-4.8
					c0.5-0.7,4.6-2.2,7.4,1c1.4,1.6,1.9,3.1,1,4.7c-0.8,1.3-2.5,2.9-4.5,1.4C81.8,93.3,80.7,92.6,79.7,91.7z"/>
				
					<path id="_x5B_color_x5D_color--globalStyle1_x2F_animals_x2F_dogvscat_x2F_5_00000000933664900321227390000001720406098356203684_" class="st25" d="
					M145.2,170.1c-3.4,3.4-16.9-0.7-22.4-3.9c-8.6-5.1-11.7-10.1-15.4-14.7c-10.1-12.7-8.9-22-9.2-35.5c-0.1-4.7,0.6-12.6,7.2-13.2
					c11.4-1.2,12.7,2.3,12.7,8c0,5.7-2.6,8.5,0.4,13.8c7.5,13.2,14.2,10.5,24.5,21.3C153.2,156.5,148.6,166.7,145.2,170.1z"/>
				<path id="Fill-29-Copy--globalStyle1_x2F_animals_x2F_dogvscat_x2F_5" class="st27" d="M100.8,125.3c1-3.6,1.9-3.8,3.5-6.7
					c3-5.1,3.2-13.7,1.6-13.5c-7.6,0.9-9.1,15.9-9.1,21c0,7.3-1.4,16.5,7,27.3c8.4,10.7,12.4,16.1,23.2,16.1c0,0,14-21.8,0.7-23
					C98.1,151.2,97.8,135.9,100.8,125.3z"/>
				
					<path id="_x5B_color_x5D_color--globalStyle1_x2F_animals_x2F_dogvscat_x2F_5_00000039814617192385783350000001068100034531049142_" class="st25" d="
					M98.5,100.9l4.4-8.3c0.2-0.4,0.7-0.5,1.1-0.3c0.1,0.1,0.3,0.2,0.3,0.3l5.6,10.5L98.5,100.9z"/>
				
					<path id="shadow--globalStyle1_x2F_animals_x2F_dogvscat_x2F_5_00000178198999760108640330000015296130543331850401_" class="st24" d="
					M98.5,100.9l4.4-8.3c0.2-0.4,0.7-0.5,1.1-0.3c0.1,0.1,0.3,0.2,0.3,0.3l5.6,10.5L98.5,100.9z"/>
				
					<path id="_x5B_color_x5D_color--globalStyle1_x2F_animals_x2F_dogvscat_x2F_5_00000157299121647777609670000006829892547784985744_" class="st25" d="
					M100,115.5c-3.1-0.4-6.1-2.8-7.4-6.5l-0.5-1.7c-0.4-0.5-0.5-1.2-0.2-1.8c0.3-0.5,0.5-0.5,1.3-0.9l3.3-1.9
					c-0.3-3.2,3.8-4.6,7-5.2c7-1.2,13.4,1.8,14.6,12c0.5,4.6-3.3,8.2-8.3,9.2c0,0,0,0-0.1,0c-3.1,0.6-6.3-0.3-8.7-2.4L100,115.5z"/>
				<path id="Stroke-35-Copy--globalStyle1_x2F_animals_x2F_dogvscat_x2F_5" d="M100.8,103.5c0.6-0.8,0.9-0.8,1.5,0
					c0.3,0.3,0.7,0.3,1,0.1c0.3-0.3,0.3-0.7,0.1-1c-1.2-1.4-2.6-1.4-3.8,0.1c-0.2,0.3-0.2,0.8,0.1,1
					C100.1,103.9,100.5,103.8,100.8,103.5z"/>
				<path id="Fill-37-Copy--globalStyle1_x2F_animals_x2F_dogvscat_x2F_5" class="st27" d="M101.6,111.3c-2,2.6-7-0.7-8.5-2.1
					c-0.4-0.4-0.5-0.2-0.5-0.2c1.4,3.8,4.3,6.1,7.4,6.5l1,0.9c2.2,2,2.2,2.2,3.4,2.2c2.5-2.2,7.8-8.2,4.8-10.1
					C105.9,106.3,104,108.2,101.6,111.3z"/>
				<path id="Fill-39-Copy--globalStyle1_x2F_animals_x2F_dogvscat_x2F_5" class="st28" d="M93.6,105.3c0-0.5-0.8-0.1-1.2,0
					c-0.1,0-0.2,0-0.3-0.1c0,0-0.1,0.2-0.2,0.2c-0.3,0.7-0.2,1.5,0.3,2.1c0,0,0.4,0,0.4-0.6C92.6,106.1,93.6,105.8,93.6,105.3"/>
				
					<path id="_x5B_color_x5D_color--globalStyle1_x2F_animals_x2F_dogvscat_x2F_5_00000183240275831629688800000006306716397309199008_" class="st25" d="
					M104,125.3c7.1-1.6,8.6,7,9.1,11.7c0.5,4,1.2,10.6,0.4,15.2c0.1,1,0.1,2.1,0,3.2c-0.4,4.7-0.6,10.7-2,16.8
					c-0.6,2.8-3.2,3.2-5.1,2c-3.3-2.1-1.1-8.6-3.9-17c-0.6-1.7-1.1-3.5-1.4-5.2c0-0.1,0-0.1,0-0.2c-0.4-3-1.7-6.7-1.7-12.4
					C99.5,134.3,99.6,126.3,104,125.3z M111.3,92.2c0.1,0.1,0.2,0.2,0.2,0.4l2.8,11.5l-10.5-4.9l6.3-6.9
					C110.4,91.9,110.9,91.9,111.3,92.2z"/>
				
					<polygon id="shadow--globalStyle1_x2F_animals_x2F_dogvscat_x2F_5_00000083800506744344811830000013087523430843827880_" class="st24" points="
					108.4,96.7 110.4,93.8 110.6,98.4 				"/>
				<path id="Fill-53-Copy--globalStyle1_x2F_animals_x2F_dogvscat_x2F_5" class="st27" d="M103.3,175.1c-2,0-3.4-1-3.6-3
					c-0.1-0.8,0.3-3.3,4.6-4c0,0,10.3,6.4,4.9,6.9L103.3,175.1z"/>
				<path id="Combined-Shape-Copy-2--globalStyle1_x2F_animals_x2F_dogvscat_x2F_5" class="st29" d="M103.4,170.5
					c0.1-0.1,0.3,0,0.4,0.2c0.1,0.1,0,0.3-0.2,0.4c-1.7,0.6-3,1.9-3.1,3.6c0,0.2-0.2,0.3-0.3,0.2c-0.2,0-0.3-0.2-0.2-0.3
					C100.1,172.7,101.5,171.2,103.4,170.5z M102.3,169.3c0.1-0.1,0.3,0,0.4,0.2c0.1,0.1,0,0.3-0.2,0.4c-1.7,0.6-2.9,1.9-3,3.6
					c0,0.2-0.2,0.3-0.3,0.2c-0.2,0-0.3-0.2-0.2-0.3C99.2,171.5,100.5,170.1,102.3,169.3z"/>
				<path id="Combined-Shape-Copy-5--globalStyle1_x2F_animals_x2F_dogvscat_x2F_5" class="st29" d="M84.6,88.6
					c0.1,0.1,0.1,0.3,0,0.4c-0.1,0.1-0.3,0.1-0.4,0c-1.3-1.3-3.1-1.8-4.7-1.1c-0.1,0.1-0.3,0-0.4-0.2c-0.1-0.1,0-0.3,0.2-0.4
					C81.2,86.7,83.2,87.2,84.6,88.6z M85.2,87.1c0.1,0.1,0.1,0.3,0,0.4c-0.1,0.1-0.3,0.1-0.4,0c-1.3-1.2-3-1.7-4.6-1.1
					c-0.1,0.1-0.3,0-0.4-0.2c-0.1-0.1,0-0.3,0.2-0.4C81.8,85.3,83.7,85.8,85.2,87.1z"/>
				
					<path id="_x5B_color_x5D_color--globalStyle1_x2F_animals_x2F_dogvscat_x2F_5_00000025432026908831457760000014489155532128052108_" class="st25" d="
					M179.3,105.7c1.1,3.1-9.3,4.2-11.1,18.3c-1.3,10.3,2.2,21.6-4.8,39.6c-5.3,13.6-14.4,11.7-19.9,8.9c-0.2,0.1-0.3,0.3-0.5,0.4
					c-3.3,2.2-7.2,2.8-10.8,2c-0.8,0.1-1.6,0.1-2.6,0.1c-4.6-0.1-10.6,0-11,0l0,0l0-0.1c-2.5-0.5-3-2.7-2.2-4.8
					c0.7-1.6,2.6-1.2,7.5-1.1l-5.5-8.1c-4.2-6.2-2.5-14.8,3.7-19c6.2-4.2,14.8-2.5,19,3.7l5.6,8.3c3.1,4.6,3,10.6,0.2,15
					c2.8,1.4,6.6,1.8,9.9-2.5c3.9-5.1,6.8-19,6.2-37.8C162.6,113.4,177,98.7,179.3,105.7z"/>
				<path id="Combined-Shape-Copy-3--globalStyle1_x2F_animals_x2F_dogvscat_x2F_5" class="st27" d="M120.1,168.9
					c0,0,7.6,5.5,2.1,6.1l-5.8,0c-2,0-3.4-0.7-3.6-2.7C112.7,171.5,114.6,168.1,120.1,168.9z M179.3,105.7c0.4,1.2-0.8,2-2.5,3.4
					c-1.1-1.2-2.6-2.2-4.2-2.9C175.7,103.6,178.4,103,179.3,105.7z"/>
				<path id="Combined-Shape-Copy-4--globalStyle1_x2F_animals_x2F_dogvscat_x2F_5" class="st29" d="M116.1,170.5
					c0.1-0.1,0.3,0,0.4,0.2c0.1,0.1,0,0.3-0.2,0.4c-1.7,0.6-3,1.9-3.1,3.6c0,0.2-0.2,0.3-0.3,0.2c-0.2,0-0.3-0.2-0.2-0.3
					C112.8,172.7,114.2,171.2,116.1,170.5z M115,169.5c0.1-0.1,0.3,0,0.4,0.2c0.1,0.1,0,0.3-0.2,0.4c-1.7,0.6-2.9,1.9-3,3.6
					c0,0.2-0.2,0.3-0.3,0.2c-0.2,0-0.3-0.2-0.2-0.3C111.8,171.7,113.2,170.2,115,169.5z"/>
			</g>
		</g>
	</g>
</g>
<g transform="translate(121.5,166.5)">
	<g>
		<g id="Symbols--globalStyle1_x2F_bgelements_x2F_phone_x2F_4">
			<g id="globalStyle1_x2F_bgelements_x2F_phone_x2F_4--globalStyle1_x2F_bgelements_x2F_phone_x2F_4">
				<g id="Group-13--globalStyle1_x2F_bgelements_x2F_phone_x2F_4" transform="translate(72.5)">
					<g id="Group-4--globalStyle1_x2F_bgelements_x2F_phone_x2F_4" transform="translate(369.081 174.577)">
						<path id="Path-68-Copy-3--globalStyle1_x2F_bgelements_x2F_phone_x2F_4" class="st30" d="M-242.6,346.4
							c17.6-27.8,32.2-44.1,43.9-48.8c17.5-7.1,26.6-35,23.9-57.8s36.6-22.8,52.3-40.8s9.4,32.6-8.1,45.6c-17.5,13-20.1,18-9.4,44.4
							C-132.8,306.7-167,325.8-242.6,346.4z"/>
						<path id="Path-79-Copy-3--globalStyle1_x2F_bgelements_x2F_phone_x2F_4" class="st31" d="M-123.5,213.1c0.3-0.3,0.3-0.9,0-1.2
							c-0.3-0.3-0.9-0.3-1.2,0c-23.9,24.5-34.8,42.8-32.6,55.1c4,21.6-3.6,46.4-22.4,61.7c-0.4,0.3-0.4,0.8-0.1,1.2
							c0.3,0.4,0.8,0.4,1.2,0.1c19.2-15.6,26.9-40.6,23.2-62.6l-0.1-0.7C-157.7,255.1-147.1,237.2-123.5,213.1z"/>
					</g>
					<g id="Group-3--globalStyle1_x2F_bgelements_x2F_phone_x2F_4" transform="translate(394.144 284.055)">
						<path id="Path-67-Copy-3--globalStyle1_x2F_bgelements_x2F_phone_x2F_4" class="st32" d="M-217.2,291.8
							c11.8-4.5,18.2-10.7,19.2-18.6c1.5-11.9-2.1-18.1,6.9-24.7c9-6.7,19.2,10.7,30,0c10.9-10.7,0-32.7,12-38
							c12-5.3,40-10.1,31.1-37.2s-37.7,14.2-46.9,13.1c-9.2-1.1-23.2-17.1-38.8-4.8c-15.6,12.3-7.2,60.7-19.1,59.3
							s-19.3,7.4-21.2,22.5C-245.3,273.5-236.3,282.9-217.2,291.8z"/>
						<path id="Combined-Shape-Copy-3--globalStyle1_x2F_bgelements_x2F_phone_x2F_4" class="st33" d="M-202.8,256.6L-202.8,256.6
							l-27.9-6.4c-0.3-0.1-0.7,0.1-0.8,0.5c-0.1,0.3,0.1,0.6,0.4,0.7l0.1,0l27.9,6.4c0.3,0.1,0.7-0.1,0.8-0.5
							C-202.3,257-202.5,256.7-202.8,256.6z M-123.1,181.3l-2.5,1.2c-26.4,12.5-41.8,20.9-46.5,25.3l-0.3,0.3
							c-1.7,1.6-4.6,4.1-8.9,7.5l1.4-27.4c0-0.4-0.3-0.6-0.6-0.7c-0.3,0-0.6,0.2-0.7,0.5l0,0.1l-1.5,28.5
							c-6.9,5.5-16.7,13-29.6,22.6l-4.4,3.3c-0.3,0.2-0.3,0.6-0.1,0.9c0.2,0.3,0.6,0.3,0.9,0.1l5-3.7c5.6-4.1,10.5-7.9,15-11.2
							l27.3,7.3c0.3,0.1,0.7-0.1,0.8-0.4c0.1-0.3-0.1-0.6-0.4-0.8l-0.1,0l-26.4-7.1c12-9.2,19.7-15.3,22.9-18.4l0.4-0.4
							c3.2-3,12-8.2,26.2-15.4l0,0l0,0l0,0l18.6,4.1c0.2,0.1,0.5-0.2,0.6-0.5c0.1-0.3,0-0.6-0.2-0.7l0,0l-17.2-3.8
							c5.3-2.7,11.4-5.6,18.2-8.8l2.5-1.2c0.3-0.1,0.5-0.5,0.3-0.8C-122.4,181.3-122.8,181.2-123.1,181.3z"/>
					</g>
					<g id="Group-2--globalStyle1_x2F_bgelements_x2F_phone_x2F_4" transform="rotate(-13 931.799 -89.127)">
						<path id="Path-68-Copy-2--globalStyle1_x2F_bgelements_x2F_phone_x2F_4" class="st30" d="M-69.2,306
							c-10.9-31.1-21.5-50.2-31.8-57.4c-15.5-10.8-18-40-10.3-61.7s-30.5-30.4-41.8-51.5s-16.5,29.6-2.4,46.3s15.5,22-0.8,45.4
							C-167.2,242.6-138.2,268.9-69.2,306z"/>
						<path id="Path-79-Copy-2--globalStyle1_x2F_bgelements_x2F_phone_x2F_4" class="st31" d="M-155.3,149.2
							c-0.2-0.4-0.1-0.9,0.3-1.1c0.4-0.2,0.9-0.1,1.1,0.3c17.8,29.2,24.3,49.5,19.3,61.1c-8.7,20.2-7,46,8,65.2
							c0.3,0.4,0.2,0.9-0.1,1.2c-0.4,0.3-0.9,0.2-1.2-0.1c-15.2-19.5-17.1-45.7-8.5-66.2l0.3-0.6
							C-131.3,197.9-137.7,178-155.3,149.2z"/>
					</g>
					<g id="Group--globalStyle1_x2F_bgelements_x2F_phone_x2F_4" transform="rotate(-10 1762.996 153.626)">
						<path id="Path-67-Copy-2--globalStyle1_x2F_bgelements_x2F_phone_x2F_4" class="st32" d="M-51.6,262.4
							c-10.9-6.5-16.1-13.7-15.7-21.7c0.6-12,5.2-17.4-2.5-25.6c-7.7-8.1-20.7,7.2-29.6-5.2s5.7-32.2-5.2-39.5
							c-11-7.3-37.6-16.9-24.2-42s34.7,20.5,44,21c9.3,0.5,25.8-12.8,39.1,2s-3.5,61,8.6,61.7s17.8,10.6,17,25.9
							C-20.8,249.2-31.2,257-51.6,262.4z"/>
						<path id="Combined-Shape-Copy-2--globalStyle1_x2F_bgelements_x2F_phone_x2F_4" class="st33" d="M-59.7,225.2L-59.7,225.2
							l28.6-1.5c0.4,0,0.6,0.3,0.7,0.6c0,0.3-0.2,0.6-0.5,0.7l-0.1,0l-28.5,1.5c-0.4,0-0.6-0.3-0.7-0.6
							C-60.2,225.5-60,225.3-59.7,225.2z M-125,137.3l2.3,1.6c23.8,16.9,37.6,27.8,41.4,33l0.2,0.3c1.4,1.9,3.8,4.9,7.4,8.9
							l3.3-27.2c0-0.3,0.4-0.6,0.7-0.6c0.3,0,0.6,0.3,0.6,0.6l0,0.1l-3.5,28.3c5.8,6.6,14.2,15.7,25.2,27.4l3.8,4
							c0.2,0.3,0.2,0.7,0,0.9c-0.3,0.2-0.7,0.2-0.9,0l-4.3-4.6c-4.7-5-9-9.6-12.8-13.7l-28.2,2.5c-0.3,0-0.7-0.2-0.7-0.6
							c0-0.3,0.2-0.6,0.5-0.7l0.1,0l27.2-2.4c-10.3-11.1-16.7-18.5-19.4-22.1l-0.3-0.5c-2.6-3.6-10.4-10.1-23.2-19.7l0,0l0,0l0,0
							l-19,0.8c-0.2,0-0.5-0.3-0.5-0.6c0-0.3,0.1-0.6,0.3-0.6l0,0l17.6-0.8c-4.8-3.5-10.2-7.5-16.4-11.8l-2.2-1.6
							c-0.3-0.2-0.4-0.6-0.2-0.9S-125.3,137.1-125,137.3z"/>
					</g>
				</g>
			</g>
		</g>
	</g>
</g>
<g transform="translate(121.5,166.5)">
	<g>
		<g id="Symbols--globalStyle1_x2F_bgelements_x2F_phone_x2F_1">
			<g id="globalStyle1_x2F_bgelements_x2F_phone_x2F_1--globalStyle1_x2F_bgelements_x2F_phone_x2F_1">
				<g id="Group-13--globalStyle1_x2F_bgelements_x2F_phone_x2F_1" transform="translate(228)">
					<path id="_x5B_color:bgelement_x5D_phone--globalStyle1_x2F_bgelements_x2F_phone_x2F_1" class="st3" d="M11.9,572.8h-149
						c-13.2,0-23.8-10.7-23.8-23.8V247.5c0-13.2,10.7-23.8,23.8-23.8h149c13.2,0,23.8,10.7,23.8,23.8V549
						C35.7,562.1,25,572.8,11.9,572.8"/>
					<path id="shadow--globalStyle1_x2F_bgelements_x2F_phone_x2F_1" class="st34" d="M10.2,564.2h-145.7c-9.5,0-17.2-7.7-17.2-17.2
						V248.5c0-9.5,7.7-17.2,17.2-17.2H10.2c9.5,0,17.2,7.7,17.2,17.2V547C27.4,556.5,19.7,564.2,10.2,564.2"/>
					<path id="Fill-9--globalStyle1_x2F_bgelements_x2F_phone_x2F_1" class="st35" d="M7.4,562.1h-140c-9.5,0-17.2-7.7-17.2-17.2
						V250.6c0-9.5,7.7-17.2,17.2-17.2h140c9.5,0,17.2,7.7,17.2,17.2v294.3C24.6,554.4,16.9,562.1,7.4,562.1"/>
					
						<path id="_x5B_color:bgelement_x5D_phone--globalStyle1_x2F_bgelements_x2F_phone_x2F_1_00000063595321492043462810000003233174091001494685_" class="st3" d="
						M-39,248.5h-45.6c-3.9,0-7.3-1.6-8.8-4.1l-8.5-14.1h80.2l-8.5,14.1C-31.7,246.9-35.2,248.5-39,248.5"/>
				</g>
				
					<rect id="Rectangle-Copy-2--globalStyle1_x2F_bgelements_x2F_phone_x2F_1" x="90.4" y="426.1" transform="matrix(-0.9613 -0.2756 0.2756 -0.9613 112.2806 967.4177)" class="st7" width="67.3" height="99.4"/>
				
					<rect id="Rectangle-Copy-4--globalStyle1_x2F_bgelements_x2F_phone_x2F_1" x="90.4" y="292.7" transform="matrix(-0.9613 -0.2756 0.2756 -0.9613 149.048 705.8018)" class="st7" width="67.3" height="99.4"/>
				<path id="shape--globalStyle1_x2F_bgelements_x2F_phone_x2F_1" class="st21" d="M114.5,306.8c2.5,2.3,5.4,3.4,8.6,3.4
					c3.2,0,6-1.1,8.4-3.4c6.9,2.2,11.3,4.4,13.2,6.5c1.9,2.2,4.6,6.4,8.2,12.6l-6.8,6.8l-6.3-6.8l3,51.5h-37.4l2.9-51.5l-6.3,6.8
					l-6.7-6.8c2.8-5.5,5.4-9.7,7.9-12.6C105.7,310.4,109.5,308.2,114.5,306.8z"/>
				
					<rect id="Rectangle-Copy-3--globalStyle1_x2F_bgelements_x2F_phone_x2F_1" x="171.5" y="426.1" transform="matrix(-0.9613 -0.2756 0.2756 -0.9613 271.3021 989.7665)" class="st7" width="67.3" height="99.4"/>
				
					<rect id="Rectangle-Copy-5--globalStyle1_x2F_bgelements_x2F_phone_x2F_1" x="171.5" y="292.7" transform="matrix(-0.9613 -0.2756 0.2756 -0.9613 308.0694 728.1506)" class="st7" width="67.3" height="99.4"/>
				
					<rect id="Rectangle--globalStyle1_x2F_bgelements_x2F_phone_x2F_1" x="108.8" y="401.7" transform="matrix(-0.9613 -0.2756 0.2756 -0.9613 150.1817 828.0092)" class="st6" width="49" height="3.6"/>
				
					<rect id="Rectangle-Copy-12--globalStyle1_x2F_bgelements_x2F_phone_x2F_1" x="115.8" y="263.3" transform="matrix(-0.9613 -0.2756 0.2756 -0.9613 250.7931 568.0738)" class="st6" width="99.1" height="6.2"/>
				
					<rect id="Rectangle-Copy-13--globalStyle1_x2F_bgelements_x2F_phone_x2F_1" x="125.9" y="273.1" transform="matrix(-0.9613 -0.2756 0.2756 -0.9613 248.7205 582.8218)" class="st6" width="78.9" height="1.6"/>
				
					<rect id="Rectangle-Copy-10--globalStyle1_x2F_bgelements_x2F_phone_x2F_1" x="108.8" y="535" transform="matrix(-0.9613 -0.2756 0.2756 -0.9613 113.4143 1089.6251)" class="st6" width="49" height="3.6"/>
				
					<rect id="Rectangle-Copy-6--globalStyle1_x2F_bgelements_x2F_phone_x2F_1" x="189.8" y="401.7" transform="matrix(-0.9613 -0.2756 0.2756 -0.9613 309.2031 850.358)" class="st6" width="49" height="3.6"/>
				
					<rect id="Rectangle-Copy-8--globalStyle1_x2F_bgelements_x2F_phone_x2F_1" x="189.8" y="535" transform="matrix(-0.9613 -0.2756 0.2756 -0.9613 272.4358 1111.9739)" class="st6" width="49" height="3.6"/>
				
					<rect id="_x5B_color:bgelement_x5D_phone--globalStyle1_x2F_bgelements_x2F_phone_x2F_1_00000129178393126430953420000016556435814461533597_" x="90.4" y="401.7" transform="matrix(-0.9613 -0.2756 0.2756 -0.9613 78.7086 824.7805)" class="st3" width="13.7" height="10.4"/>
				
					<rect id="_x5B_color:bgelement_x5D_phone--globalStyle1_x2F_bgelements_x2F_phone_x2F_1_00000137111904934199051930000016575838402266529197_" x="90.4" y="535" transform="matrix(-0.9613 -0.2756 0.2756 -0.9613 41.9412 1086.3964)" class="st3" width="13.7" height="10.4"/>
				
					<rect id="_x5B_color:bgelement_x5D_phone--globalStyle1_x2F_bgelements_x2F_phone_x2F_1_00000060003526094263690440000002703312503419698573_" x="171.5" y="401.7" transform="matrix(-0.9613 -0.2756 0.2756 -0.9613 237.73 847.1292)" class="st3" width="13.7" height="10.4"/>
				
					<rect id="_x5B_color:bgelement_x5D_phone--globalStyle1_x2F_bgelements_x2F_phone_x2F_1_00000083081769173651020120000011557826064468770460_" x="171.5" y="535" transform="matrix(-0.9613 -0.2756 0.2756 -0.9613 200.9627 1108.7451)" class="st3" width="13.7" height="10.4"/>
				
					<rect id="Rectangle-Copy--globalStyle1_x2F_bgelements_x2F_phone_x2F_1" x="108.8" y="408.5" transform="matrix(-0.9613 -0.2756 0.2756 -0.9613 134.1962 839.3947)" class="st6" width="34.7" height="3.6"/>
				
					<rect id="Rectangle-Copy-11--globalStyle1_x2F_bgelements_x2F_phone_x2F_1" x="108.8" y="541.9" transform="matrix(-0.9613 -0.2756 0.2756 -0.9613 97.4288 1101.0106)" class="st6" width="34.7" height="3.6"/>
				
					<rect id="Rectangle-Copy-7--globalStyle1_x2F_bgelements_x2F_phone_x2F_1" x="189.8" y="408.5" transform="matrix(-0.9613 -0.2756 0.2756 -0.9613 293.2177 861.7435)" class="st6" width="34.7" height="3.6"/>
				
					<rect id="Rectangle-Copy-9--globalStyle1_x2F_bgelements_x2F_phone_x2F_1" x="189.8" y="541.9" transform="matrix(-0.9613 -0.2756 0.2756 -0.9613 256.4503 1123.3594)" class="st6" width="34.7" height="3.6"/>
				
					<rect id="_x5B_color:bgelement_x5D_phone--globalStyle1_x2F_bgelements_x2F_phone_x2F_1_00000093152558608349287200000006730861937558274995_" x="228.3" y="263.3" transform="matrix(-0.9613 -0.2756 0.2756 -0.9613 384.6469 586.8855)" class="st3" width="10.6" height="6.2"/>
				
					<rect id="_x5B_color:bgelement_x5D_phone--globalStyle1_x2F_bgelements_x2F_phone_x2F_1_00000022542987676079740270000000281565614779203476_" x="90.4" y="263.3" transform="matrix(-0.9613 -0.2756 0.2756 -0.9613 115.0983 543.752)" class="st3" width="10.6" height="1"/>
				
					<rect id="_x5B_color:bgelement_x5D_phone--globalStyle1_x2F_bgelements_x2F_phone_x2F_1_00000011008367460475384770000012768317564378779033_" x="90.4" y="265.9" transform="matrix(-0.9613 -0.2756 0.2756 -0.9613 114.373 548.9125)" class="st3" width="10.6" height="1"/>
				
					<rect id="_x5B_color:bgelement_x5D_phone--globalStyle1_x2F_bgelements_x2F_phone_x2F_1_00000145022443003398020840000000714216578954400652_" x="90.4" y="268.6" transform="matrix(-0.9613 -0.2756 0.2756 -0.9613 113.6477 554.073)" class="st3" width="10.6" height="1"/>
				<polygon id="Path-176--globalStyle1_x2F_bgelements_x2F_phone_x2F_1" class="st36" points="189.4,308.2 220.3,308.2 
					230.1,377.5 214,377.5 205.2,323.2 199.1,377.5 181.5,377.5 				"/>
				<path id="Path-176-Copy--globalStyle1_x2F_bgelements_x2F_phone_x2F_1" class="st36" d="M107.7,441.2h30.9
					c2.2,14.5,3.9,26.8,4.8,36.9c1,10.1,1,20.9,0,32.4h-7.6c-2.7-9.6-5-18.7-7-27.3c-1.9-8.6-3.7-17.6-5.4-27.1
					c-0.9,8.7-2.2,17.7-3.8,27.1c-1.6,9.4-3.5,18.5-5.5,27.3h-6.4c-3.3-9.3-4.5-20.1-3.5-32.4C105.1,465.8,106.3,453.5,107.7,441.2z
					"/>
				<path id="Path-177--globalStyle1_x2F_bgelements_x2F_phone_x2F_1" class="st36" d="M186.9,472.4c0.3-8.8,1.1-18.2,2-22.5
					c0.6-2.9,0.9-6.5,1-10.8h5.5c0.5,12.3,4.3,18.5,11.2,18.5s10.2-6.2,9.9-18.5h5.5c0.2,4.6,0.4,8.2,0.8,10.8
					c0.5,3.9,3.3,12.8,3.5,22.5c0.1,6.5,0.1,20,0,40.6h-39.2C186.7,491.9,186.7,478.3,186.9,472.4z"/>
			</g>
		</g>
	</g>
	<path id="Combined-Shape-Copy-4--globalStyle1_x2F_bgelements_x2F_phone_x2F_4" class="st0" d="M274.5,439.7
		c-6.1,0.8-12.2,3.9-18.2,9.4c10.7-1.7,18.1-2.5,22.2-2.4c4.1,0.1,10.8-2.5,20.3-7.8C288.7,438.7,280.6,439,274.5,439.7z M258.7,341
		c0.7,10.8,2.2,17.9,4.5,21.3c2.2,3.2,5.4,9.5,9.6,18.8c-1.8,6.5-3.2,12.3-4,17.2c0.1-5-0.8-9.4-2.7-13.2
		c-2.7-5.6-6.9-12.5-12.6-20.8c0.7,10.8,2.2,17.9,4.5,21.3c2.3,3.3,5.5,9.6,9.8,19.1c-0.8,4.6-2,9.2-3.5,13.4
		c0.3-5.8-0.5-10.8-2.6-15.1c-2.7-5.6-6.9-12.5-12.6-20.8c0.7,10.8,2.2,17.9,4.5,21.3c2.2,3.2,5.3,9.3,9.4,18.3
		c-1.8,4.8-4,8.8-6.1,11.6l0,3.3c0.5-0.5,1-1,1.5-1.7c8.5-5.5,14.6-9,18.2-10.5c3.8-1.5,8.9-6.7,15.4-15.4
		c-9.3,3.9-16.6,7.4-21.9,10.6c-2.1,1.3-4,2.9-5.8,4.8c1.1-2.5,2.1-5.3,2.9-8.1c6.9-6.9,11.9-11.4,15.1-13.5
		c3.4-2.3,7.3-8.4,11.8-18.2c-8.3,5.7-14.7,10.7-19.2,14.9c-2,1.9-3.7,4.1-5.2,6.7c0.3-1.3,0.5-2.7,0.7-4l0.1-0.8
		c0.3-2,0.6-4.1,1.1-6.4c6.9-6.8,11.9-11.3,15.1-13.5c3.4-2.3,7.3-8.4,11.8-18.2c-8.3,5.7-14.7,10.7-19.2,14.9c-2.1,2-4,4.4-5.4,7.2
		c1.4-5.2,3.1-11,5.1-17.3c5-7.2,9-13.8,12.3-20c3.8-7.2,7-14.8,9.6-22.7c-11.7,9.6-18.6,18.8-20.7,27.9c-1.2,5.1-2.1,9.3-2.8,12.6
		l0.2-0.6c-1.4,4.1-2.6,8-3.6,11.6c0.4-5.9-0.5-11-2.6-15.4C268.5,356.3,264.3,349.3,258.7,341z"/>
</g>
<path id="Combined-Shape-Copy-2--globalStyle1_x2F_bgelements_x2F_phone_x2F_4_00000088099525060452674640000005923596060857910673_" class="st0" d="
	M163.8,606.2c6.1,0.8,12.2,3.9,18.2,9.4c-10.7-1.7-18.1-2.5-22.2-2.4c-4.1,0.1-10.8-2.5-20.3-7.8
	C149.6,605.2,157.7,605.5,163.8,606.2z M179.7,507.5c-0.7,10.8-2.2,17.9-4.5,21.3c-2.2,3.2-5.4,9.5-9.6,18.8
	c1.8,6.5,3.2,12.3,4,17.2c-0.1-5,0.8-9.4,2.7-13.2c2.7-5.6,6.9-12.5,12.6-20.8c-0.7,10.8-2.2,17.9-4.5,21.3
	c-2.3,3.3-5.5,9.6-9.8,19.1c0.8,4.6,2,9.2,3.5,13.4c-0.3-5.8,0.5-10.8,2.6-15.1c2.7-5.6,6.9-12.5,12.6-20.8
	c-0.7,10.8-2.2,17.9-4.5,21.3c-2.2,3.2-5.3,9.3-9.4,18.3c1.8,4.8,4,8.8,6.1,11.6l0,3.3c-0.5-0.5-1-1-1.5-1.7
	c-8.5-5.5-14.6-9-18.2-10.5c-3.8-1.5-8.9-6.7-15.4-15.4c9.3,3.9,16.6,7.4,21.9,10.6c2.1,1.3,4,2.9,5.8,4.8c-1.1-2.5-2.1-5.3-2.9-8.1
	c-6.9-6.9-11.9-11.4-15.1-13.5c-3.4-2.3-7.3-8.4-11.8-18.2c8.3,5.7,14.7,10.7,19.2,14.9c2,1.9,3.7,4.1,5.2,6.7
	c-0.3-1.3-0.5-2.7-0.7-4l-0.1-0.8c-0.3-2-0.6-4.1-1.1-6.4c-6.9-6.8-11.9-11.3-15.1-13.5c-3.4-2.3-7.3-8.4-11.8-18.2
	c8.3,5.7,14.7,10.7,19.2,14.9c2.1,2,4,4.4,5.4,7.2c-1.4-5.2-3.1-11-5.1-17.3c-5-7.2-9-13.8-12.3-20c-3.8-7.2-7-14.8-9.6-22.7
	c11.7,9.6,18.6,18.8,20.7,27.9c1.2,5.1,2.1,9.3,2.8,12.6l-0.2-0.6c1.4,4.1,2.6,8,3.6,11.6c-0.4-5.9,0.5-11,2.6-15.4
	C169.8,522.8,174,515.8,179.7,507.5z"/>
<g transform="translate(30,344)">
	<g transform="translate(30.25,179)">
		<g>
			<g id="Symbols--globalStyle1_x2F_people_x2F_man_x2F_bottom_x2F_2">
				<g id="globalStyle1_x2F_people_x2F_man_x2F_bottom_x2F_2--globalStyle1_x2F_people_x2F_man_x2F_bottom_x2F_2">
					<path id="Fill-1--globalStyle1_x2F_people_x2F_man_x2F_bottom_x2F_2" class="st12" d="M27.1,180.6l-3.3,21.1l25,0
						c0.1-1.8-1.1-1.7-4.2-1.8c-4.6-0.1-14.3,0.9-13.9-2.2c0.1-0.9,1.9-7.1,5.1-16.9L27.1,180.6z"/>
					<path id="shadow--globalStyle1_x2F_people_x2F_man_x2F_bottom_x2F_2" class="st11" d="M27.1,180.6l-3.3,21.1l25,0
						c0.1-1.8-1.1-1.7-4.2-1.8c-4.6-0.1-14.3,0.9-13.9-2.2c0.1-0.9,1.9-7.1,5.1-16.9L27.1,180.6z"/>
					<path id="_x5B_clothes_x5D_shoes--globalStyle1_x2F_people_x2F_man_x2F_bottom_x2F_2" class="st10" d="M23.8,203.4l25,0l0-1.8
						c0,0-8.2,0-25,0V203.4z"/>
					<path id="Fill-5--globalStyle1_x2F_people_x2F_man_x2F_bottom_x2F_2" class="st12" d="M8.2,179.7l0.3,21.9l25.2,0
						c0,0-0.9-1.7-3.9-1.8c-4.6-0.1-15.6,0.4-15.1-2.5c0.1-0.9,0.5-5.6,1.2-16.7L8.2,179.7z"/>
					
						<path id="_x5B_clothes_x5D_shoes--globalStyle1_x2F_people_x2F_man_x2F_bottom_x2F_2_00000013193584149897890390000001184256178514983053_" class="st10" d="
						M8.5,203.4l25.2,0v-1.8c0,0-8.4,0-25.2,0V203.4z"/>
					<path id="_x5B_clothes_x5D_pants--globalStyle1_x2F_people_x2F_man_x2F_bottom_x2F_2" class="st10" d="M54.1-3.5l5.1,107.7
						c0,0.4,0.1,0.9,0.1,1.4c0,0,0,0,0,0l0,0c0,1.9-0.4,3.6-1,5.3l-14.6,78l-27.2,0L28,105.7l0.1,0l0-0.1l-0.1,0L18.8-3.5H54.1z"/>
					
						<path id="shadow--globalStyle1_x2F_people_x2F_man_x2F_bottom_x2F_2_00000058577318653332483590000006663843184106636433_" class="st11" d="
						M54.1-2.6l5.1,106.8c0,0.5,0.1,0.9,0.1,1.4c0,0,0,0,0,0l0,0c0,1.9-0.4,3.6-1,5.3l-14.6,78l-27.2,0L28,105.7l0.1,0l0-0.1l-0.1,0
						L18.8-2.6H54.1z"/>
					
						<path id="_x5B_clothes_x5D_pants--globalStyle1_x2F_people_x2F_man_x2F_bottom_x2F_2_00000059307182758474273930000001433934485580986527_" class="st10" d="
						M30.3-3.1l-3.1,107.8c0,0.3,0,0.6,0,0.9c0,0.7,0,1.3-0.1,2l-3.1,81.3H-2.6l-1.4-83.3l0.1,0l0,0l-0.1,0L-4.3-3.1H30.3z"/>
				</g>
			</g>
		</g>
	</g>
	<g transform="translate(83.75,15)">
		<g>
			<g id="Symbols--globalStyle1_x2F_people_x2F_man_x2F_head_x2F_5">
				<g id="globalStyle1_x2F_people_x2F_man_x2F_head_x2F_5--globalStyle1_x2F_people_x2F_man_x2F_head_x2F_5">
					<polygon id="_x5B_skin_x5D_neck--globalStyle1_x2F_people_x2F_man_x2F_head_x2F_5" class="st37" points="-30.7,81.8 
						-13.4,81.8 -15.7,36 -25.8,33.3 					"/>
					<polygon id="shadow--globalStyle1_x2F_people_x2F_man_x2F_head_x2F_5" class="st11" points="-30.7,81.8 -13.4,81.8 -15.7,36 
						-25.8,33.3 					"/>
					<path id="_x5B_skin_x5D_face--globalStyle1_x2F_people_x2F_man_x2F_head_x2F_5" class="st37" d="M-18.4,44.7
						c4.8,0.9,7.7-5.9,8.7-15.9s-2-18.8-6.8-19.7c-4.8-0.9-9.6,6.5-10.6,16.5S-23.2,43.8-18.4,44.7z"/>
					<path id="_x5B_hair_x5D_hair--globalStyle1_x2F_people_x2F_man_x2F_head_x2F_5" class="st22" d="M-26.7,28.3l2.2-3.6
						c0.4-5.3,0.9-8.2,1.6-8.5c3.4-1.4,12.2,0.3,12.7,1.3C-9.9,18-1.6,11-4.7,7.9c-1.5-1.5-10.5-1-15.3-0.3
						C-29.8,8.9-32,15.8-26.7,28.3z"/>
					<path id="smile--globalStyle1_x2F_people_x2F_man_x2F_head_x2F_5" class="st16" d="M-12.7,37.2c0.6,0,1.8-0.4,1.7-1.8l-3.6,0.1
						C-14.5,36.8-13.3,37.2-12.7,37.2z"/>
				</g>
			</g>
		</g>
	</g>
	<g transform="translate(112.75,82)">
		<g>
			<g id="Symbols--globalStyle1_x2F_people_x2F_man_x2F_top_x2F_3">
				<g id="globalStyle1_x2F_people_x2F_man_x2F_top_x2F_3--globalStyle1_x2F_people_x2F_man_x2F_top_x2F_3">
					<path id="Path-5--globalStyle1_x2F_people_x2F_man_x2F_top_x2F_3" class="st38" d="M-59.9-4.3c-8.9,1.4-15,3.3-18.4,5.8
						c-5.1,3.7-8.3,10.9-9.3,13.6c-0.9,2.7-2.9,7-5.5-2.2C-95.6,3.7-86-5.5-82.6-7C-80.3-8-72.8-7.1-59.9-4.3z"/>
					<path id="Path-6--globalStyle1_x2F_people_x2F_man_x2F_top_x2F_3" class="st38" d="M-56.1-1.5c-8.8-2-14.4-3-16.8-3.2
						c-3.6-0.2-5,0.2-5.4,0.3s1.1,3.2,11.7,3.8C-59.6-0.1-56.1-0.5-56.1-1.5z"/>
					<path id="Path-6-Copy--globalStyle1_x2F_people_x2F_man_x2F_top_x2F_3" class="st24" d="M-59.6-4.2c-8.8-2-14.4-3-16.8-3.2
						c-3.6-0.2-5,0.2-5.4,0.3s1.1,3.2,11.7,3.8C-63.2-2.8-59.6-3.1-59.6-4.2z"/>
					<path id="_x5B_skin_x5D_hand--globalStyle1_x2F_people_x2F_man_x2F_top_x2F_3" class="st37" d="M7.3,98.9l4.7,1.6l9.1-0.6
						l6.2,3.4c0.5,0.3,0.3,0.5,0.2,0.5c-1.9,0-3.4-0.4-5.2-1.4c-2.1,0.6-3.7-0.4-3.2,1.5c0.1,0.2,3.4,1.6,6.8,2.1
						c0.5,0.1,2.9,0.6,3.2,0.7c1.7,0.3,2,0.2,3.2,0.3c0.4,0,0.8,0.2,1.4,0.5c0.1,0,0.1,0.1,0.2,0.2c0.1,0.2,0.1,0.4-0.2,0.4
						c-0.5,0.1-1,0.1-1.5,0.2c-0.8,0.1-3.4,0-5.5-0.3c-1.5-0.2-3.3-0.4-3.5-0.4c-0.3,0.1,2.6,0.7,4.9,1.4c2.3,0.7,3.8,0,6,0
						c0.3,0,0.8,0.1,1.6,0.4c0,0,0.4,0.3,0.3,0.4c-0.1,0.2-2.6,0.8-4,0.9c-2.4,0.3-2.8,0.1-3.9-0.2c-1.4-0.3-3.8-0.8-4.5-0.9
						c-0.7-0.1,3,1.3,5.8,1.8c0.4,0.1,1.3,0.1,1.8,0.1c1.2,0.1,2.9-0.3,3.4,0.1c0.1,0.1,0.2,0.1,0.2,0.2c0.3,0.3,0.2,0.6-0.1,0.7
						c-0.8,0.3-2,0.5-3.6,0.5c-0.4,0-1.8,0-2.4-0.1c-2.2-0.5-4.9-1.5-5.2-1.4c-0.3,0.1,1.4,0.5,3.3,1.1c0.4,0.1,2.1,0.5,2.5,0.7
						l0.1,0c0.4,0.1,0.8,0.2,1.6,0.3c1.6,0.3,1.6,0.9,0.8,1.1c-0.9,0.2-7.8-1-10.8-2c-1.6-0.5-4.4-0.9-8.8-2.5l-6.7-3l0.3-1.4
						c-0.3-0.5-0.5-1.2-0.5-1.8c0-1.3,0.6-2.4,1.7-3.1L7.3,98.9z"/>
					<path id="shadow--globalStyle1_x2F_people_x2F_man_x2F_top_x2F_3" class="st11" d="M5.2,107.3l2-8.3l4.7,1.6l9.1-0.6l6.2,3.4
						c0.5,0.3,0.3,0.5,0.2,0.5c-1.9,0-3.4-0.4-5.2-1.4c-2.1,0.6-3.7-0.4-3.2,1.5c0.1,0.2,3.4,1.6,6.8,2.1c0.5,0.1,2.9,0.6,3.2,0.7
						c1.7,0.3,2,0.2,3.2,0.3c0.4,0,0.8,0.2,1.4,0.5c0.1,0,0.1,0.1,0.2,0.2c0.1,0.2,0.1,0.4-0.2,0.4c-0.5,0.1-1,0.1-1.5,0.2
						c-0.8,0.1-3.4,0-5.5-0.3c-1.5-0.2-3.3-0.4-3.5-0.4c-0.3,0.1,2.6,0.7,4.9,1.4c2.3,0.7,3.8,0,6,0c0.3,0,0.8,0.1,1.6,0.4
						c0,0,0.4,0.3,0.3,0.4c-0.1,0.2-2.6,0.8-4,0.9c-2.4,0.3-2.8,0.1-3.9-0.2c-1.4-0.3-3.8-0.8-4.5-0.9c-0.7-0.1,3,1.3,5.8,1.8
						c0.4,0.1,1.3,0.1,1.8,0.1c1.2,0.1,2.9-0.3,3.4,0.1c0.1,0.1,0.2,0.1,0.2,0.2c0.3,0.3,0.2,0.6-0.1,0.7c-0.8,0.3-2,0.5-3.6,0.5
						c-0.4,0-1.8,0-2.4-0.1c-2.2-0.5-4.9-1.5-5.2-1.4c-0.3,0.1,1.4,0.5,3.3,1.1c0.4,0.1,2.3,0.6,2.6,0.7c0.4,0.1,0.8,0.2,1.6,0.3
						c1.6,0.3,1.6,0.9,0.8,1.1c-0.9,0.2-7.8-1-10.8-2c-1.6-0.5-4.4-0.9-8.8-2.5L5.2,107.3z"/>
					<path id="Combined-Shape--globalStyle1_x2F_people_x2F_man_x2F_top_x2F_3" class="st38" d="M-38.4-2.1
						c6.5-0.7,13.6,3.5,13.3,11.2c-0.6,16.4-4.1,64.1-4.7,66.6c-0.1,0.5-0.2,1-0.3,1.4c9,4.1,23.5,11.4,42.3,21.6l0,0L8,109.8
						c-41-8.7-61.1-17.9-61.5-26.2c-0.3-4.6,1-7.4,3-9.1c-1.3-19.7,1.1-55.7,1.8-65.9c0.4-4,8.3,4.5,10.7,2.7
						c1.1-0.8,1.4-6.2,0.9-9.9C-37.4-0.6-39.2-2-38.4-2.1z"/>
					
						<path id="shadow--globalStyle1_x2F_people_x2F_man_x2F_top_x2F_3_00000065765232812312849220000007568794366585807519_" class="st24" d="
						M-38.4-2.1c6.5-0.7,13.6,3.5,13.3,11.2c-0.6,16.4-4.1,64.1-4.7,66.6c-0.1,0.5-0.2,1-0.3,1.4c9,4.1,23.5,11.4,42.3,21.6l0,0
						L8,109.8c-41-8.7-61.1-17.9-61.5-26.2c-0.3-4.6,1-7.4,3-9.1c-1.3-19.7,1.1-55.7,1.8-65.9c0.4-4,8.3,4.5,10.7,2.7
						c1.1-0.8,1.4-6.2,0.9-9.9C-37.4-0.6-39.2-2-38.4-2.1z"/>
					<path id="_x5B_clothes_x5D_tshirt--globalStyle1_x2F_people_x2F_man_x2F_top_x2F_3" class="st23" d="M-59-7.8
						c-38.1,1.7-32,31.7-32,65.5c0,9.1-1.7,54.7,2.7,60.1c16.3,20,51.9,12,63.4,3.2c4.5-3.4,1.5-12.3,1.1-42.9
						c-0.3-20.8-1.5-36.8-1.5-46.3c0-8,1-38.4-16.4-38.4c-2.5,0-2.6,1.4-5.4,1.4C-49.9-5.3-57.8-7.9-59-7.8z"/>
					
						<path id="_x5B_skin_x5D_hand--globalStyle1_x2F_people_x2F_man_x2F_top_x2F_3_00000011003465726578556120000009880526923008651917_" class="st37" d="
						M-39.8,122.9l6.1,8.1l8.5,3.5l4.4,4.8c0.3,0.4,0.1,0.6,0,0.6c-1.7-0.6-2.9-1.3-4.2-2.8c-2-0.1-3.2-1.5-3.3,0.4
						c0,0.2,2.5,2.4,5.4,3.9c0.4,0.2,2.3,1.4,2.6,1.5c1.4,0.8,1.7,0.8,2.8,1.2c0.3,0.1,0.7,0.4,1.1,0.8c0.1,0.1,0.1,0.1,0.1,0.2
						c0.1,0.2-0.1,0.3-0.3,0.3c-0.4-0.1-0.9-0.2-1.4-0.3c-0.7-0.2-3-1-4.8-1.9c-1.2-0.6-2.8-1.4-3-1.4c-0.3,0,2.1,1.4,3.9,2.6
						c1.8,1.3,3.4,1.2,5.3,1.7c0.3,0.1,0.7,0.4,1.3,0.8c0,0,0.3,0.3,0.1,0.5c-0.2,0.1-2.6-0.1-3.9-0.3c-2.2-0.5-2.5-0.7-3.4-1.3
						c-1.1-0.7-3.1-1.9-3.7-2.1c-0.6-0.3,2.2,2,4.5,3.2c0.4,0.2,1.1,0.5,1.5,0.6c1.1,0.4,2.7,0.6,3,1c0.1,0.1,0.1,0.1,0.1,0.2
						c0.1,0.3,0,0.6-0.3,0.6c-0.8,0-1.9-0.2-3.3-0.6c-0.3-0.1-1.6-0.5-2.1-0.8c-1.8-1.1-3.9-2.7-4.1-2.8c-0.2,0,1,0.8,2.6,2
						c0.3,0.3,1.8,1.2,2.1,1.4c0.4,0.3,0.6,0.4,1.3,0.7c1.3,0.7,1.2,1.3,0.3,1.2c-0.8-0.1-6.6-3.2-8.9-4.9c-1.3-0.9-4-2.5-6.9-5.3
						l-6.2-6.5c-0.5-0.3-0.9-0.8-1.2-1.3l-3.7-3.8L-39.8,122.9z"/>
					
						<path id="Combined-Shape--globalStyle1_x2F_people_x2F_man_x2F_top_x2F_3_00000165196062542061983030000000812203525824194494_" class="st38" d="
						M-85,12.9c2.8-12.3,19.2-13.4,23.8-0.4c3.8,10.9,7.2,53.8,7.7,70.2c2.5,4.6,7.3,13.2,19.1,44.1l0,0l-9,7.5
						c-14.2-18.5-22.9-31.2-27.6-40.1c-0.1-0.1-0.1-0.1-0.2-0.2C-77.6,85.5-87.8,25.3-85,12.9z"/>
				</g>
			</g>
		</g>
	</g>
</g>
</svg>
