<?xml version="1.0" encoding="UTF-8"?>
<svg id="illustration-builder" width="910" height="800" viewBox="-10 -30 980 860" version="1.1" xmlns="http://www.w3.org/2000/svg" xmlns:xlink="http://www.w3.org/1999/xlink" style="pointer-events: none;"><g transform="translate(68.5,60.5)">
<g><svg xmlns="http://www.w3.org/2000/svg" width="773" height="679" viewBox="0 0 773 679"><g id="Symbols--globalStyle1/bgelements/music/1" fill="none" fill-rule="evenodd" stroke="none" stroke-width="1"><g id="globalStyle1/bgelements/music/1--globalStyle1/bgelements/music/1"><path id="[color:music]curtaine--globalStyle1/bgelements/music/1" fill="#d5cf95" d="M247.380351,13.118551 C213.629206,182.608154 176.079296,288.572484 134.730619,331.011542 C93.3819432,373.4506 65.7680062,396.031136 51.8888083,398.75315 C64.1390759,474.729331 70.2642097,528.241447 70.2642097,559.289498 L70.2642097,648.904533 L70.2642097,648.904533 C58.410465,649.271438 49.2125884,647.315108 42.6705799,643.035542 C36.1285715,638.755977 24.1944513,640.712307 6.86821946,648.904533 L25.1870055,13.118551 L247.380351,13.118551 Z M750.009185,13.118551 L768.327971,648.904533 C751.001739,640.712307 739.067619,638.755977 732.525611,643.035542 C725.983602,647.315108 716.785726,649.271438 704.931981,648.904533 L704.931981,648.904533 L704.931981,559.289498 C704.931981,528.241447 711.057115,474.729331 723.307382,398.75315 C709.428184,396.031136 681.814247,373.4506 640.465571,331.011542 C599.116895,288.572484 561.566984,182.608154 527.81584,13.118551 L527.81584,13.118551 L750.009185,13.118551 Z" opacity="1.00"></path><path id="shadow--globalStyle1/bgelements/music/1" fill="#000" fill-opacity=".08" d="M247.380351,13.118551 C213.629206,182.608154 176.079296,288.572484 134.730619,331.011542 C93.3819432,373.4506 65.7680062,396.031136 51.8888083,398.75315 C64.1390759,474.729331 70.2642097,528.241447 70.2642097,559.289498 L70.2642097,648.904533 L70.2642097,648.904533 C58.410465,649.271438 49.2125884,647.315108 42.6705799,643.035542 C36.1285715,638.755977 24.1944513,640.712307 6.86821946,648.904533 L25.1870055,13.118551 L247.380351,13.118551 Z M750.009185,13.118551 L768.327971,648.904533 C751.001739,640.712307 739.067619,638.755977 732.525611,643.035542 C725.983602,647.315108 716.785726,649.271438 704.931981,648.904533 L704.931981,648.904533 L704.931981,559.289498 C704.931981,528.241447 711.057115,474.729331 723.307382,398.75315 C709.428184,396.031136 681.814247,373.4506 640.465571,331.011542 C599.116895,288.572484 561.566984,182.608154 527.81584,13.118551 L527.81584,13.118551 L750.009185,13.118551 Z" opacity=".541"></path><path id="shadow--globalStyle1/bgelements/music/1" fill="#000" fill-opacity=".08" d="M40.2331787,410.964926 L40.2331787,411.46472 C47.1166079,486.422349 50.5583225,534.699546 50.5583225,556.296311 C50.5583225,577.893076 49.067727,607.422201 46.0865358,644.883687 C44.4303152,644.069179 43.2916633,643.453131 42.6705799,643.035542 C41.0421123,641.940634 39.5659447,641.531502 38.1917073,641.212622 C36.811057,640.892255 35.450392,640.82338 34.1553178,640.82338 C28.8177636,640.82338 24.1298679,642.184218 19.2904909,643.763023 L19.302866,643.65893 C19.7043853,640.275562 29.7423685,555.249588 29.7423685,511.072065 L29.7423685,411.46472 L29.7423685,411.46472 C31.9183339,412.290662 33.8215148,412.547889 35.451911,412.236399 C37.0823072,411.92491 38.6760631,411.501086 40.2331787,410.964926 Z M205.930797,50.2873664 C176.048496,191.0244 149.779659,276.326658 127.124285,306.19414 C104.468911,336.061622 73.4399618,367.953748 34.0374367,401.870517 C76.9897737,345.677441 103.183189,302.887155 112.617683,273.499659 C122.052177,244.112164 138.669564,169.708066 162.469844,50.2873664 L205.930797,50.2873664 Z M88.0742405,56.7233107 L110.854761,71.5495966 C108.877437,156.96076 104.441819,213.185748 97.5479056,240.22456 C90.6539924,267.263372 69.1446551,316.299305 33.0198935,387.33236 C69.7227915,287.929322 88.0742405,219.922981 88.0742405,183.313339 L88.0742405,56.7233107 L88.0742405,56.7233107 Z M62.6977973,39.8847972 L25.1870055,380.981409 L40.8144618,39.8847972 L62.6977973,39.8847972 Z"></path><path id="shadow--globalStyle1/bgelements/music/1" fill="#000" fill-opacity=".08" d="M589.795323,410.964926 L589.795323,411.46472 C596.678753,486.422349 600.120467,534.699546 600.120467,556.296311 C600.120467,577.893076 598.629872,607.422201 595.64868,644.883687 C593.99246,644.069179 592.853808,643.453131 592.232725,643.035542 C590.604257,641.940634 589.128089,641.531502 587.753852,641.212622 C586.373202,640.892255 585.012537,640.82338 583.717462,640.82338 C578.379908,640.82338 573.692013,642.184218 568.852636,643.763023 L568.865011,643.65893 C569.26653,640.275562 579.304513,555.249588 579.304513,511.072065 L579.304513,411.46472 L579.304513,411.46472 C581.480479,412.290662 583.383659,412.547889 585.014056,412.236399 C586.644452,411.92491 588.238208,411.501086 589.795323,410.964926 Z M755.492941,50.2873664 C725.610641,191.0244 699.341804,276.326658 676.68643,306.19414 C654.031056,336.061622 623.002106,367.953748 583.599581,401.870517 C626.551918,345.677441 652.745334,302.887155 662.179828,273.499659 C671.614322,244.112164 688.231709,169.708066 712.031989,50.2873664 L755.492941,50.2873664 Z M637.636385,56.7233107 L660.416906,71.5495966 C658.439582,156.96076 654.003963,213.185748 647.11005,240.22456 C640.216137,267.263372 618.7068,316.299305 582.582038,387.33236 C619.284936,287.929322 637.636385,219.922981 637.636385,183.313339 L637.636385,56.7233107 L637.636385,56.7233107 Z M612.259942,39.8847972 L574.74915,380.981409 L590.376606,39.8847972 L612.259942,39.8847972 Z" transform="matrix(-1 0 0 1 1324.346 0)"></path><path id="[color:music]curtaine--globalStyle1/bgelements/music/1" fill="#d5cf95" d="M20.0824036,13.118551 C41.5755586,78.1607531 85.0961492,110.681854 150.644175,110.681854 C216.192201,110.681854 294.982807,78.1607531 387.015993,13.118551 C488.803094,78.1607531 563.959073,110.681854 612.48393,110.681854 C661.008787,110.681854 708.678457,78.1607531 755.492941,13.118551 L20.0824036,13.118551 Z" opacity="1.00"></path><path id="shadow--globalStyle1/bgelements/music/1" fill="#000" fill-opacity=".04" d="M331.636495,13.118551 C247.832696,68.8584158 181.278421,94.8543566 131.97367,91.1063732 C82.6689191,87.3583898 53.3251628,63.934714 43.9424014,20.8353458 C72.6294295,54.3842299 101.973186,73.1165061 131.97367,77.0321744 C161.974155,80.9478426 228.52843,59.6433015 331.636495,13.118551 Z M338.612019,5.40175631 C254.80822,49.3253661 188.253945,69.8104455 138.949194,66.8569945 C89.6444429,63.9035435 60.3006866,45.4454364 50.9179252,11.4826731 C79.6049532,37.9195528 108.948709,52.6807868 138.949194,55.7663753 C168.949678,58.8519638 235.503953,42.0637574 338.612019,5.40175631 Z"></path><path id="shadow-copy--globalStyle1/bgelements/music/1" fill="#000" fill-opacity=".04" d="M716.075222,13.118551 C632.271424,68.8584158 565.717149,94.8543566 516.412398,91.1063732 C467.107647,87.3583898 437.763891,63.934714 428.381129,20.8353458 C457.068157,54.3842299 486.411913,73.1165061 516.412398,77.0321744 C546.412882,80.9478426 612.967157,59.6433015 716.075222,13.118551 Z M723.050746,5.40175631 C639.246948,49.3253661 572.692673,69.8104455 523.387922,66.8569945 C474.083171,63.9035435 444.739414,45.4454364 435.356653,11.4826731 C464.043681,37.9195528 493.387437,52.6807868 523.387922,55.7663753 C553.388406,58.8519638 619.942681,42.0637574 723.050746,5.40175631 Z" transform="matrix(-1 0 0 1 1151.432 0)"></path><circle id="Oval--globalStyle1/bgelements/music/1" cx="760.256" cy="13.119" r="12.214" fill="#AEAEAE"></circle><circle id="Oval-Copy--globalStyle1/bgelements/music/1" cx="12.973" cy="13.119" r="12.214" fill="#AEAEAE"></circle><rect id="Rectangle--globalStyle1/bgelements/music/1" width="752.387" height="15.434" x="10.822" y="5.402" fill="#AEAEAE"></rect><path id="Path-91--globalStyle1/bgelements/music/1" fill="#272727" fill-rule="nonzero" d="M14.659124,380.981409 L13.9037921,381.139384 C18.1578837,401.830037 24.6192623,412.236399 33.3987434,412.236399 C42.0816208,412.236399 48.2071924,408.000607 51.7151882,399.579521 L52.1359949,398.569357 L51.1746694,399.092197 C41.245673,404.492323 33.271658,405.519594 27.2298665,402.224699 C21.1676786,398.918681 16.9702973,391.8476 14.659124,380.981409 Z M17.5165509,392.276315 L17.669905,392.594066 C20.0239501,397.405559 23.0859076,400.843761 26.8604004,402.902183 L27.1282166,403.044933 C33.135013,406.173171 40.8548621,405.292355 50.2686398,400.445081 L50.5583225,400.294065 L50.5534242,400.306552 C47.1068448,407.760091 41.406234,411.46472 33.3987434,411.46472 C26.8658926,411.46472 21.5725868,405.149104 17.5734622,392.457686 L17.5165509,392.276315 Z"></path><path id="Path-91-Copy--globalStyle1/bgelements/music/1" fill="#272727" fill-rule="nonzero" d="M723.806078,380.981409 L723.050746,381.139384 C727.304838,401.830037 733.766216,412.236399 742.545697,412.236399 C751.228575,412.236399 757.354147,408.000607 760.862142,399.579521 L761.282949,398.569357 L760.321623,399.092197 C750.392627,404.492323 742.418612,405.519594 736.376821,402.224699 C730.314633,398.918681 726.117251,391.8476 723.806078,380.981409 Z M726.663505,392.276315 L726.816859,392.594066 C729.170904,397.405559 732.232862,400.843761 736.007355,402.902183 L736.275171,403.044933 C742.281967,406.173171 750.001816,405.292355 759.415594,400.445081 L759.705277,400.294065 L759.700378,400.306552 C756.253799,407.760091 750.553188,411.46472 742.545697,411.46472 C736.012847,411.46472 730.719541,405.149104 726.720416,392.457686 L726.663505,392.276315 Z" transform="matrix(-1 0 0 1 1484.334 0)"></path></g></g></svg></g></g></svg>