<?xml version="1.0" encoding="UTF-8"?>
<svg id="illustration-builder" width="1000" height="880" viewBox="-10 -30 1070 940" version="1.1" xmlns="http://www.w3.org/2000/svg" xmlns:xlink="http://www.w3.org/1999/xlink" style="pointer-events: none;"><g transform="translate(223.5,159)">
<g><svg xmlns="http://www.w3.org/2000/svg" width="553" height="562" viewBox="0 0 553 562"><g id="Symbols--globalStyle1/objects/bubbles1/11" fill="none" fill-rule="evenodd" stroke="none" stroke-width="1"><g id="globalStyle1/objects/bubbles1/11--globalStyle1/objects/bubbles1/11"><g id="Group-19--globalStyle1/objects/bubbles1/11" transform="translate(171 76)"><path id="[color:objects]bubbles--globalStyle1/objects/bubbles1/11" fill="#c1c1c1" fill-rule="nonzero" d="M269,399.22216 C269,404.622536 264.910277,409 259.868636,409 L9.13136363,409 C4.08972271,409 0,404.622536 0,399.22216 L0,58.782854 C0,53.3824779 4.08972271,49 9.13136363,49 L259.868636,49 C264.910277,49 269,53.3824779 269,58.782854 L269,399.22216 Z" opacity="1.00"></path><polygon id="Fill-4--globalStyle1/objects/bubbles1/11" fill="#FFF" points="11 388 258 388 258 70 11 70" opacity=".832"></polygon><path id="Fill-6--globalStyle1/objects/bubbles1/11" fill="#636363" d="M112,28 L160,28 L160,6 L112,6 L112,28 Z M169.397525,24.8356371 L169.397525,-1 L99.6123043,-1 L99.6123043,24.8356371 L67,36.3058557 L67,79 L134.5,79 L202,79 L202,36.3058557 L169.397525,24.8356371 Z"></path><path id="Combined-Shape--globalStyle1/objects/bubbles1/11" fill="#FEFEFE" d="M83,317 L83,362 L32,362 L32,317 L83,317 Z M83,251 L83,296 L32,296 L32,251 L83,251 Z M83,186 L83,231 L32,231 L32,186 L83,186 Z M83,112 L83,157 L32,157 L32,112 L83,112 Z"></path><path id="Path-512--globalStyle1/objects/bubbles1/11" fill="#636363" fill-rule="nonzero" d="M58.8161427,128.730045 L34.6098886,113.239761 C32.2897197,111.755017 29.2246757,112.463152 27.7639212,114.821423 C26.3031667,117.179695 27,120.295074 29.3200286,121.779817 L62.4802424,143 L87.3953338,96.4584475 C88.7057336,94.0106123 87.8157212,90.9465157 85.4074355,89.6145962 C82.9991498,88.2826767 79.9845596,89.1873051 78.6741599,91.6351403 L58.8161427,128.730045 Z"></path><path id="Path-512-Copy--globalStyle1/objects/bubbles1/11" fill="#636363" fill-rule="nonzero" d="M58.8161427,203.730045 L34.6098886,188.239761 C32.2897197,186.755017 29.2246757,187.463152 27.7639212,189.821423 C26.3031667,192.179695 27,195.295074 29.3200286,196.779817 L62.4802424,218 L87.3953338,171.458448 C88.7057336,169.010612 87.8157212,165.946516 85.4074355,164.614596 C82.9991498,163.282677 79.9845596,164.187305 78.6741599,166.63514 L58.8161427,203.730045 Z"></path><path id="Combined-Shape--globalStyle1/objects/bubbles1/11" fill="#636363" d="M236.441746,342.003 C237.854436,342.003 239,342.675 239,343.5 C239,344.325 237.854436,344.997 236.441746,344.997 L116.563391,344.997 C115.145564,344.997 114,344.325 114,343.5 C114,342.675 115.145564,342.003 116.563391,342.003 L236.441746,342.003 Z M236.441746,328.003 C237.854436,328.003 239,328.678 239,329.5 C239,330.328 237.854436,330.997 236.441746,330.997 L116.563391,330.997 C115.145564,330.997 114,330.328 114,329.5 C114,328.678 115.145564,328.003 116.563391,328.003 L236.441746,328.003 Z M236.441746,275.003 C237.854436,275.003 239,275.675 239,276.5 C239,277.325 237.854436,277.997 236.441746,277.997 L116.563391,277.997 C115.145564,277.997 114,277.325 114,276.5 C114,275.675 115.145564,275.003 116.563391,275.003 L236.441746,275.003 Z M236.441746,263.003 C237.854436,263.003 239,263.678 239,264.5 C239,265.328 237.854436,265.997 236.441746,265.997 L116.563391,265.997 C115.145564,265.997 114,265.328 114,264.5 C114,263.678 115.145564,263.003 116.563391,263.003 L236.441746,263.003 Z M236.441746,209.0045 C237.854436,209.0045 239,209.6735 239,210.4985 C239,211.3265 237.854436,211.9955 236.441746,211.9955 L116.563391,211.9955 C115.145564,211.9955 114,211.3265 114,210.4985 C114,209.6735 115.145564,209.0045 116.563391,209.0045 L236.441746,209.0045 Z M236.441746,191.0015 C237.854436,191.0015 239,191.6705 239,192.4985 C239,193.3265 237.854436,193.9985 236.441746,193.9985 L116.563391,193.9985 C115.145564,193.9985 114,193.3265 114,192.4985 C114,191.6705 115.145564,191.0015 116.563391,191.0015 L236.441746,191.0015 Z M236.441746,134.003 C237.854436,134.003 239,134.675 239,135.5 C239,136.325 237.854436,136.997 236.441746,136.997 L116.563391,136.997 C115.145564,136.997 114,136.325 114,135.5 C114,134.675 115.145564,134.003 116.563391,134.003 L236.441746,134.003 Z M236.441746,119.003 C237.854436,119.003 239,119.678 239,120.5 C239,121.328 237.854436,121.997 236.441746,121.997 L116.563391,121.997 C115.145564,121.997 114,121.328 114,120.5 C114,119.678 115.145564,119.003 116.563391,119.003 L236.441746,119.003 Z"></path></g></g></g></svg></g></g></svg>