<?xml version="1.0" encoding="UTF-8"?>
<svg id="illustration-builder" width="1000" height="880" viewBox="-10 -30 1070 940" version="1.1" xmlns="http://www.w3.org/2000/svg" xmlns:xlink="http://www.w3.org/1999/xlink" style="pointer-events: none;"><g transform="translate(223.5,159)">
<g><svg xmlns="http://www.w3.org/2000/svg" width="553" height="562" viewBox="0 0 553 562"><g id="Symbols--globalStyle1/objects/bubbles1/10" fill="none" fill-rule="evenodd" stroke="none" stroke-width="1"><g id="globalStyle1/objects/bubbles1/10--globalStyle1/objects/bubbles1/10"><g id="Group-10--globalStyle1/objects/bubbles1/10" transform="translate(90 96)"><g id="Group-3--globalStyle1/objects/bubbles1/10" fill="#636363" transform="translate(0 .03)"><path id="Fill-1--globalStyle1/objects/bubbles1/10" d="M351,179.470058 C351,268.663243 276.679322,340.970058 185.000359,340.970058 C93.3228308,340.970058 19,268.663243 19,179.470058 C19,90.2782699 93.3228308,17.9700583 185.000359,17.9700583 C276.679322,17.9700583 351,90.2782699 351,179.470058 M0,179.970058 C0,279.385009 82.6043649,359.970058 184.49353,359.970058 C286.394916,359.970058 369,279.385009 369,179.970058 C369,80.5558088 286.394916,-0.0299417476 184.49353,-0.0299417476 C82.6043649,-0.0299417476 0,80.5558088 0,179.970058"></path></g><path id="[color:objects]bubbles--globalStyle1/objects/bubbles1/10" fill="#58c2b3" fill-rule="nonzero" d="M184.50036,18 C276.455465,18 351,90.5320761 351,180 C351,269.469325 276.455465,342 184.50036,342 C92.5466948,342 18,269.469325 18,180 C18,90.5320761 92.5466948,18 184.50036,18 Z" opacity="1.00"></path><path id="Fill-6-Copy--globalStyle1/objects/bubbles1/10" fill="#FFF" d="M325,179.999649 C325,255.540462 262.198292,317 184.995339,317 C107.803859,317 45,255.541164 45,180.00035 C45,104.460239 107.803859,43 184.995339,43 C262.198292,43 325,104.459538 325,179.999649 M18,180 C18,269.469325 92.5466948,342 184.50036,342 C276.455465,342 351,269.469325 351,180 C351,90.5320761 276.455465,18 184.50036,18 C92.5466948,18 18,90.5320761 18,180" opacity=".484"></path><path id="Fill-8--globalStyle1/objects/bubbles1/10" fill="#636363" d="M183.396253,88 C177.655698,88 173,92.5203333 173,98.1027024 L173,189.06008 C173,191.676486 174.035645,194.176138 175.903569,196.071626 L248.11501,268.902657 C252.09041,272.926436 258.670482,273.04319 262.815956,269.174144 C266.950575,265.300176 267.075778,258.899125 263.090246,254.887303 L193.793954,184.980738 L193.793954,98.1027024 C193.793954,92.5203333 189.136085,88 183.396253,88"></path></g></g></g></svg></g></g></svg>