<?xml version="1.0" encoding="UTF-8"?>
<svg id="illustration-builder" width="1000" height="880" viewBox="-10 -30 1070 940" version="1.1" xmlns="http://www.w3.org/2000/svg" xmlns:xlink="http://www.w3.org/1999/xlink" style="pointer-events: none;"><g transform="translate(223.5,159)">
<g><svg xmlns="http://www.w3.org/2000/svg" width="553" height="562" viewBox="0 0 553 562"><g id="Symbols--globalStyle1/objects/bubbles1/7" fill="none" fill-rule="evenodd" stroke="none" stroke-width="1"><g id="globalStyle1/objects/bubbles1/7--globalStyle1/objects/bubbles1/7"><path id="[color:objects]bubbles--globalStyle1/objects/bubbles1/7" fill="#f0a44b" d="M488,285.002733 C488,402.09037 392.412104,497 274.5,497 C156.587896,497 61,402.09037 61,285.002733 C61,167.915095 156.587896,73 274.5,73 C392.412104,73 488,167.915095 488,285.002733" opacity="1.00"></path><path id="Fill-4--globalStyle1/objects/bubbles1/7" fill="#FFF" d="M434,285 C434,372.811487 362.587624,444 274.5,444 C186.412376,444 115,372.811487 115,285 C115,197.188513 186.412376,126 274.5,126 C362.587624,126 434,197.188513 434,285" opacity=".763"></path><path id="[color:objects]bubbles--globalStyle1/objects/bubbles1/7" fill="#f0a44b" d="M387,285 C387,346.85296 336.633372,397 274.497241,397 C212.366628,397 162,346.85296 162,285 C162,223.141547 212.366628,173 274.497241,173 C336.633372,173 387,223.141547 387,285" opacity="1.00"></path><path id="Fill-8--globalStyle1/objects/bubbles1/7" fill="#FFF" d="M337,285 C337,320.343453 309.016913,349 274.497226,349 C239.983087,349 212,320.343453 212,285 C212,249.656547 239.983087,221 274.497226,221 C309.016913,221 337,249.656547 337,285" opacity=".763"></path><path id="[color:objects]bubbles--globalStyle1/objects/bubbles1/7" fill="#f0a44b" d="M417.567234,61 L446.505,71.227 L446.698355,71 L447.293,71.505 L448,71.755515 L447.825,71.956 L453.365,76.657 L453.949395,76 L470,103.708193 L417.920141,163 L405.68,135.944 L288.351,273.681 L294.382461,272.595921 C297.367169,272.058724 300.223554,273.992671 300.867669,276.941235 L300.910821,277.158773 C301.458829,280.229067 299.424479,283.164138 296.366973,283.714437 L296.366973,283.714437 L276.804,287.235 L275.301645,289 L273.849,287.767 L267,289 L267,257.647847 C267,254.528627 269.518096,252 272.624324,252 C275.730553,252 278.248649,254.528627 278.248649,257.647847 L278.248649,257.647847 L278.248,268.75 L398.324,127.788 L366,119.753928 L417.567234,61 Z" opacity="1.00"></path><path id="shadow--globalStyle1/objects/bubbles1/7" fill="#000" fill-opacity=".2" d="M417.567234,61 L446.505,71.227 L446.698355,71 L447.293,71.505 L448,71.755515 L447.825,71.956 L453.365,76.657 L453.949395,76 L470,103.708193 L417.920141,163 L405.68,135.944 L288.351,273.681 L294.382461,272.595921 C297.367169,272.058724 300.223554,273.992671 300.867669,276.941235 L300.910821,277.158773 C301.458829,280.229067 299.424479,283.164138 296.366973,283.714437 L296.366973,283.714437 L276.804,287.235 L275.301645,289 L273.849,287.767 L267,289 L267,257.647847 C267,254.528627 269.518096,252 272.624324,252 C275.730553,252 278.248649,254.528627 278.248649,257.647847 L278.248649,257.647847 L278.248,268.75 L398.324,127.788 L366,119.753928 L417.567234,61 Z"></path><path id="shadow--globalStyle1/objects/bubbles1/7" fill="#000" fill-opacity=".2" d="M458.706204,76 L475,104.663648 L422.131052,166 L408,134.169859 L458.706204,76 Z M420.711578,60 L453,71.0765751 L401.200146,129 L366,120.507777 L420.711578,60 Z"></path></g></g></svg></g></g></svg>