<?xml version="1.0" encoding="UTF-8"?>
<svg id="illustration-builder" width="1000" height="880" viewBox="-10 -30 1070 940" version="1.1" xmlns="http://www.w3.org/2000/svg" xmlns:xlink="http://www.w3.org/1999/xlink" style="pointer-events: none;"><g transform="translate(223.5,159)">
<g><svg xmlns="http://www.w3.org/2000/svg" width="553" height="562" viewBox="0 0 553 562"><g id="Symbols--globalStyle1/objects/bubbles1/5" fill="none" fill-rule="evenodd" stroke="none" stroke-width="1"><g id="globalStyle1/objects/bubbles1/5--globalStyle1/objects/bubbles1/5"><g id="Group-9--globalStyle1/objects/bubbles1/5" transform="translate(57 63)"><path id="[color:objects]bubbles--globalStyle1/objects/bubbles1/5" fill="#58c2b3" fill-rule="nonzero" d="M213.507532,320 C154.129832,320 106,272.095147 106,213 C106,153.904853 154.129832,106 213.507532,106 C272.87519,106 321,153.904853 321,213 C321,272.095147 272.87519,320 213.507532,320 M432.318968,229.195349 C432.722543,223.8451 433,218.459947 433,212.995014 C433,207.545039 432.722543,202.149914 432.318968,196.794678 C395.442359,176.306165 389.086062,153.763316 410.758007,118.480591 C406.177438,109.320844 400.961239,100.510136 395.159857,92.1382171 C353.52107,93.6689967 337.231799,77.5584137 338.765382,36.4018827 C330.295364,30.6577194 321.391504,25.5119064 312.109294,20.9843888 C276.428274,42.4003448 253.616232,36.1226525 232.887642,-0.326855865 C227.469656,-0.730742346 222.021402,-1 216.492433,-1 C210.973553,-1 205.520254,-0.730742346 200.102268,-0.326855865 C179.378724,36.1226525 156.566682,42.4003448 120.875572,20.9843888 C111.603451,25.5119064 102.699591,30.6577194 94.224529,36.4018827 C95.768201,77.5584137 79.47893,93.6689967 37.8350984,92.1382171 C32.028672,100.510136 26.8175177,109.320844 22.2419932,118.490563 C43.9088929,153.763316 37.5525963,176.306165 0.675987091,196.789692 C0.267368029,202.149914 0,207.545039 0,212.995014 C0,218.459947 0.267368029,223.8451 0.675987091,229.200336 C37.5525963,249.688849 43.9088929,272.226711 22.2369485,307.50445 C26.8175177,316.684142 32.028672,325.474906 37.8350984,333.846824 C79.47893,332.326017 95.768201,348.431614 94.224529,389.588145 C102.699591,395.322336 111.603451,400.473135 120.875572,405.005639 C156.566682,383.584696 179.378724,389.867375 200.102268,426.32187 C205.520254,426.72077 210.973553,427 216.492433,427 C222.021402,427 227.469656,426.72077 232.887642,426.32187 C253.616232,389.867375 276.428274,383.584696 312.109294,405.005639 C321.391504,400.473135 330.295364,395.322336 338.765382,389.588145 C337.231799,348.431614 353.52107,332.326017 395.159857,333.846824 C400.966283,325.474906 406.177438,316.684142 410.758007,307.50445 C389.086062,272.226711 395.442359,249.688849 432.318968,229.195349" opacity="1.00"></path><path id="shadow--globalStyle1/objects/bubbles1/5" fill="#000" fill-opacity=".2" d="M218.007567,320 C158.353691,320 110,272.095147 110,213 C110,153.904853 158.353691,106 218.007567,106 C277.651353,106 326,153.904853 326,213 C326,272.095147 277.651353,320 218.007567,320 M216.505022,73 C138.350339,73 75,135.676556 75,212.995032 C75,290.308539 138.350339,353 216.505022,353 C294.649661,353 358,290.308539 358,212.995032 C358,135.676556 294.649661,73 216.505022,73"></path><path id="[color:objects]bubbles--globalStyle1/objects/bubbles1/5" fill="#58c2b3" fill-rule="nonzero" d="M217.497473,397 C113.942172,397 30,314.170432 30,211.995013 C30,109.824581 113.942172,27 217.497473,27 C321.052773,27 405,109.824581 405,211.995013 C405,314.170432 321.052773,397 217.497473,397 M432.318976,229.195349 C432.722546,223.8451 433,218.459947 433,212.995014 C433,207.545039 432.722546,202.149914 432.318976,196.794678 C395.442797,176.311151 389.086574,153.763316 410.758266,118.480591 C406.17775,109.320844 400.961612,100.515122 395.160298,92.1382171 C353.521996,93.6739829 337.232915,77.5584137 338.766479,36.4018827 C330.296561,30.6627056 321.392805,25.5168927 312.110702,20.9843888 C276.430098,42.4003448 253.618321,36.1276388 232.889974,-0.326855865 C227.472051,-0.730742346 222.02386,-1 216.494955,-1 C210.97614,-1 205.522905,-0.730742346 200.104982,-0.326855865 C179.381679,36.1276388 156.569902,42.4003448 120.879209,20.9843888 C111.607195,25.5168927 102.703439,30.6627056 94.2284759,36.4018827 C95.7721299,77.5584137 79.4830487,93.6739829 37.8397022,92.1382171 C32.0333434,100.515122 26.8222499,109.320844 22.2467787,118.490563 C43.9134259,153.763316 37.5572034,176.311151 0.681023837,196.789692 C0.272409535,202.149914 0,207.545039 0,212.995014 C0,218.459947 0.272409535,223.8451 0.681023837,229.200336 C37.5572034,249.693835 43.9134259,272.226711 22.241734,307.50445 C26.8222499,316.684142 32.0333434,325.479892 37.8346576,333.85181 C79.4830487,332.331003 95.7721299,348.431614 94.2284759,389.588145 C102.703439,395.327322 111.607195,400.478121 120.879209,405.005639 C156.569902,383.584696 179.381679,389.867375 200.104982,426.32187 C205.522905,426.725756 210.97614,427 216.494955,427 C222.02386,427 227.472051,426.725756 232.889974,426.32187 C253.618321,389.867375 276.430098,383.584696 312.110702,405.005639 C321.392805,400.478121 330.296561,395.327322 338.766479,389.588145 C337.232915,348.431614 353.521996,332.331003 395.160298,333.85181 C400.966657,325.479892 406.17775,316.684142 410.758266,307.50445 C389.086574,272.226711 395.442797,249.693835 432.318976,229.195349" opacity="1.00"></path><path id="shadow--globalStyle1/objects/bubbles1/5" fill="#000" fill-opacity=".04" d="M217.497473,397 C113.942172,397 30,314.170432 30,211.995013 C30,109.824581 113.942172,27 217.497473,27 C321.052773,27 405,109.824581 405,211.995013 C405,314.170432 321.052773,397 217.497473,397 M432.318976,229.195349 C432.722546,223.8451 433,218.459947 433,212.995014 C433,207.545039 432.722546,202.149914 432.318976,196.794678 C395.442797,176.311151 389.086574,153.763316 410.758266,118.480591 C406.17775,109.320844 400.961612,100.515122 395.160298,92.1382171 C353.521996,93.6739829 337.232915,77.5584137 338.766479,36.4018827 C330.296561,30.6627056 321.392805,25.5168927 312.110702,20.9843888 C276.430098,42.4003448 253.618321,36.1276388 232.889974,-0.326855865 C227.472051,-0.730742346 222.02386,-1 216.494955,-1 C210.97614,-1 205.522905,-0.730742346 200.104982,-0.326855865 C179.381679,36.1276388 156.569902,42.4003448 120.879209,20.9843888 C111.607195,25.5168927 102.703439,30.6627056 94.2284759,36.4018827 C95.7721299,77.5584137 79.4830487,93.6739829 37.8397022,92.1382171 C32.0333434,100.515122 26.8222499,109.320844 22.2467787,118.490563 C43.9134259,153.763316 37.5572034,176.311151 0.681023837,196.789692 C0.272409535,202.149914 0,207.545039 0,212.995014 C0,218.459947 0.272409535,223.8451 0.681023837,229.200336 C37.5572034,249.693835 43.9134259,272.226711 22.241734,307.50445 C26.8222499,316.684142 32.0333434,325.479892 37.8346576,333.85181 C79.4830487,332.331003 95.7721299,348.431614 94.2284759,389.588145 C102.703439,395.327322 111.607195,400.478121 120.879209,405.005639 C156.569902,383.584696 179.381679,389.867375 200.104982,426.32187 C205.522905,426.725756 210.97614,427 216.494955,427 C222.02386,427 227.472051,426.725756 232.889974,426.32187 C253.618321,389.867375 276.430098,383.584696 312.110702,405.005639 C321.392805,400.478121 330.296561,395.327322 338.766479,389.588145 C337.232915,348.431614 353.521996,332.331003 395.160298,333.85181 C400.966657,325.479892 406.17775,316.684142 410.758266,307.50445 C389.086574,272.226711 395.442797,249.693835 432.318976,229.195349"></path></g></g></g></svg></g></g></svg>