<?xml version="1.0" encoding="UTF-8"?>
<svg id="illustration-builder" width="1370" height="1206" viewBox="-10 -30 1440 1266" version="1.1" xmlns="http://www.w3.org/2000/svg" xmlns:xlink="http://www.w3.org/1999/xlink" style="pointer-events: inherit;"><g transform="translate(0,110)">
<g><svg xmlns="http://www.w3.org/2000/svg" width="1370" height="1096" viewBox="0 0 1370 1096"><g id="Symbols--globalStyle1/bigdashboards/bg1" fill="none" fill-rule="evenodd" stroke="none" stroke-width="1"><g id="globalStyle1/bigdashboards/bg1--globalStyle1/bigdashboards/bg1" fill="#EEF9FF"><path id="[color:background]background--globalStyle1/bigdashboards/bg1" d="M1370,759 C1370,759 1331.39101,114 685,114 C38.6089944,114 -6.01269072,759 1.7114643e-12,759 C-1.05915277e-12,759 1370,759 1370,759 Z" fill="#e6eecb" opacity="1.00"></path></g></g></svg></g></g><g transform="translate(34,254.5)">
<g><svg xmlns="http://www.w3.org/2000/svg" width="1302" height="745" viewBox="0 0 1302 745"><g id="Symbols--globalStyle1/bgelements/bigdashboard2/4" fill="none" fill-rule="evenodd" stroke="none" stroke-width="1"><g id="globalStyle1/bgelements/bigdashboard2/4--globalStyle1/bgelements/bigdashboard2/4"><path id="[color:objects]monitor--globalStyle1/bgelements/bigdashboard2/4" fill="#ffeb92" fill-rule="nonzero" d="M300.250931,686.598097 L300.250931,692.219499 L274.617338,692.219499 L274.617338,686.598097 L300.250931,686.598097 Z M334.204199,677.491426 L334.204199,683.112828 L274.617338,683.112828 L274.617338,677.491426 L334.204199,677.491426 Z M334.204199,665.103005 L334.204199,670.724407 L318.464274,670.724407 L318.464274,665.103005 L334.204199,665.103005 Z M290.357264,665.103005 L290.357264,670.724407 L274.617338,670.724407 L274.617338,665.103005 L290.357264,665.103005 Z M224.586861,665.103005 L224.586861,670.724407 L208.846935,670.724407 L208.846935,665.103005 L224.586861,665.103005 Z M312.280731,665.103005 L312.280731,670.724407 L296.540806,670.724407 L296.540806,665.103005 L312.280731,665.103005 Z M246.510328,665.103005 L246.510328,670.724407 L230.770403,670.724407 L230.770403,665.103005 L246.510328,665.103005 Z M268.433796,665.103005 L268.433796,670.724407 L252.693871,670.724407 L252.693871,665.103005 L268.433796,665.103005 Z M202.663393,665.103005 L202.663393,670.724407 L186.923468,670.724407 L186.923468,665.103005 L202.663393,665.103005 Z M180.739925,665.103005 L180.739925,670.724407 L165,670.724407 L165,665.103005 L180.739925,665.103005 Z M334.150819,508.849367 L334.150819,653.881538 L318.410893,653.881538 L318.410893,508.849367 L334.150819,508.849367 Z M290.303883,521.778592 L290.303883,653.881538 L274.563958,653.881538 L274.563958,521.778592 L290.303883,521.778592 Z M268.433796,533.021396 L268.433796,653.881538 L252.693871,653.881538 L252.693871,533.021396 L268.433796,533.021396 Z M246.510328,545.38848 L246.510328,653.881538 L230.770403,653.881538 L230.770403,545.38848 L246.510328,545.38848 Z M224.586861,591.483976 L224.586861,653.881538 L208.846935,653.881538 L208.846935,591.483976 L224.586861,591.483976 Z M202.663393,581.365453 L202.663393,653.881538 L186.923468,653.881538 L186.923468,581.365453 L202.663393,581.365453 Z M180.739925,622.401687 L180.739925,653.881538 L165,653.881538 L165,622.401687 L180.739925,622.401687 Z M312.280731,480.742357 L312.280731,653.881538 L296.540806,653.881538 L296.540806,480.742357 L312.280731,480.742357 Z M834.46858,433.242127 L834.46858,564.782933 L820.977216,564.782933 L820.977216,433.242127 L834.46858,433.242127 Z M863.13773,477.089062 L863.13773,564.782933 L849.646366,564.782933 L849.646366,477.089062 L863.13773,477.089062 Z M891.80688,450.106333 L891.80688,564.782933 L878.315516,564.782933 L878.315516,450.106333 L891.80688,450.106333 Z M920.47603,436.614968 L920.47603,564.782933 L906.984666,564.782933 L906.984666,436.614968 L920.47603,436.614968 Z M949.14518,477.089062 L949.14518,564.782933 L935.653816,564.782933 L935.653816,477.089062 L949.14518,477.089062 Z M977.81433,496.201829 L977.81433,564.782933 L964.322966,564.782933 L964.322966,496.201829 L977.81433,496.201829 Z M1006.48348,446.733491 L1006.48348,564.782933 L992.992116,564.782933 L992.992116,446.733491 L1006.48348,446.733491 Z M1035.15263,466.970538 L1035.15263,564.782933 L1021.66127,564.782933 L1021.66127,466.970538 L1035.15263,466.970538 Z M1063.82178,450.106333 L1063.82178,564.782933 L1050.33042,564.782933 L1050.33042,450.106333 L1063.82178,450.106333 Z M1092.49093,486.083305 L1092.49093,564.782933 L1078.99957,564.782933 L1078.99957,486.083305 L1092.49093,486.083305 Z M1121.16008,471.46766 L1121.16008,564.782933 L1107.66872,564.782933 L1107.66872,471.46766 L1121.16008,471.46766 Z M232.771528,398.56214 C236.921873,398.56214 240.286393,401.92666 240.286393,406.077005 L240.286393,493.356791 C240.286393,497.507136 236.921873,500.871656 232.771528,500.871656 L137.762167,500.871656 C133.611821,500.871656 130.247302,497.507136 130.247302,493.356791 L130.247302,406.077005 C130.247302,401.18989 132.875052,398.56214 137.762167,398.56214 L232.771528,398.56214 Z M232.771528,400.709244 L137.762167,400.709244 C134.060865,400.709244 132.394406,402.375703 132.394406,406.077005 L132.394406,493.356791 C132.394406,496.321323 134.797634,498.724552 137.762167,498.724552 L232.771528,498.724552 C235.73606,498.724552 238.139289,496.321323 238.139289,493.356791 L238.139289,406.077005 C238.139289,403.112473 235.73606,400.709244 232.771528,400.709244 Z M186.641997,475.448149 L186.641997,479.742357 L157.086104,479.742357 L157.086104,475.448149 L186.641997,475.448149 Z M221.763173,466.505776 L221.763173,470.799984 L157.086104,470.799984 L157.086104,466.505776 L221.763173,466.505776 Z M221.763173,457.855388 L221.763173,462.149597 L157.086104,462.149597 L157.086104,457.855388 L221.763173,457.855388 Z M221.763173,449.205001 L221.763173,453.499209 L157.086104,453.499209 L157.086104,449.205001 L221.763173,449.205001 Z M221.763173,440.554613 L221.763173,444.848822 L157.086104,444.848822 L157.086104,440.554613 L221.763173,440.554613 Z M221.763173,431.904226 L221.763173,436.198434 L157.086104,436.198434 L157.086104,431.904226 L221.763173,431.904226 Z M206.469501,423.253839 L206.469501,427.548047 L157.086104,427.548047 L157.086104,423.253839 L206.469501,423.253839 Z M377.21402,281.2 C408.260165,281.2 433.428039,306.367874 433.428039,337.41402 C433.428039,368.460165 408.260165,393.628039 377.21402,393.628039 C346.167874,393.628039 321,368.460165 321,337.41402 C321,306.367874 346.167874,281.2 377.21402,281.2 Z M1171.7527,374.779546 L1171.7527,380.400948 L1063.82178,380.400948 L1063.82178,374.779546 L1171.7527,374.779546 Z M1133.29958,361.850322 L1133.29958,367.471724 L1063.82178,367.471724 L1063.82178,361.850322 L1133.29958,361.850322 Z M1161.91908,239.042379 C1166.06942,239.042379 1169.43394,242.406898 1169.43394,246.557244 L1169.43394,333.83703 C1169.43394,337.987375 1166.06942,341.351895 1161.91908,341.351895 L1066.90972,341.351895 C1062.75937,341.351895 1059.39485,337.987375 1059.39485,333.83703 L1059.39485,246.557244 C1059.39485,241.670129 1062.0226,239.042379 1066.90972,239.042379 L1161.91908,239.042379 Z M1161.91908,241.189483 L1066.90972,241.189483 C1063.20842,241.189483 1061.54196,242.855942 1061.54196,246.557244 L1061.54196,333.83703 C1061.54196,336.801562 1063.94519,339.20479 1066.90972,339.20479 L1161.91908,339.20479 C1164.88361,339.20479 1167.28684,336.801562 1167.28684,333.83703 L1167.28684,246.557244 C1167.28684,243.592711 1164.88361,241.189483 1161.91908,241.189483 Z M1115.78955,315.636402 L1115.78955,319.93061 L1086.23366,319.93061 L1086.23366,315.636402 L1115.78955,315.636402 Z M1150.91072,306.986014 L1150.91072,311.280223 L1086.23366,311.280223 L1086.23366,306.986014 L1150.91072,306.986014 Z M1150.91072,298.335627 L1150.91072,302.629835 L1086.23366,302.629835 L1086.23366,298.335627 L1150.91072,298.335627 Z M1041.97853,128 C1050.13247,128 1056.74254,133.536932 1056.74254,140.367084 L1056.74254,284.703571 C1056.74254,291.533723 1050.13247,297.070655 1041.97853,297.070655 L616.506551,297.070655 C608.352612,297.070655 601.742539,291.533723 601.742539,284.703571 L601.742539,140.367084 C601.742539,132.122361 606.663876,128 616.506551,128 L1041.97853,128 L1041.97853,128 Z M1150.91072,289.68524 L1150.91072,293.979448 L1086.23366,293.979448 L1086.23366,289.68524 L1150.91072,289.68524 Z M1150.91072,281.034852 L1150.91072,285.329061 L1086.23366,285.329061 L1086.23366,281.034852 L1150.91072,281.034852 Z M1150.91072,272.384465 L1150.91072,276.678673 L1086.23366,276.678673 L1086.23366,272.384465 L1150.91072,272.384465 Z M1135.61705,263.734077 L1135.61705,268.028286 L1086.23366,268.028286 L1086.23366,263.734077 L1135.61705,263.734077 Z" opacity="1.00"></path><path id="Rectangle-Copy--globalStyle1/bgelements/bigdashboard2/4" fill="#FFF" fill-rule="nonzero" d="M616.386867,128 C616.386867,128 758.366709,128 1042.32639,128 C1050.48929,128 1057.10663,133.536932 1057.10663,140.367084 L1057.10663,284.703571 C1057.10663,291.533723 1050.48929,297.070655 1042.32639,297.070655 L616.386867,297.070655 C608.223968,297.070655 601.606631,291.533723 601.606631,284.703571 L601.606631,140.367084 C601.606631,132.122361 606.533376,128 616.386867,128 Z" opacity=".575"></path><path id="[color:objects]monitor---globalStyle1/bgelements/bigdashboard2/4" fill="#ffeb92" fill-rule="nonzero" d="M801.431675,160.171839 L801.431675,257.803939 L800.131675,257.803939 L800.131675,160.171839 L801.431675,160.171839 Z M837.587942,232.973842 C842.371865,228.18992 850.128135,228.18992 854.912058,232.973842 C859.695981,237.757765 859.695981,245.514036 854.912058,250.297959 C850.128135,255.081881 842.371865,255.081881 837.587942,250.297959 C832.804019,245.514036 832.804019,237.757765 837.587942,232.973842 Z M1027.1859,243.81399 L1027.1859,248.108198 L886.185901,248.108198 L886.185901,243.81399 L1027.1859,243.81399 Z M733.555892,237.341692 L733.555892,241.635901 L704,241.635901 L704,237.341692 L733.555892,237.341692 Z M651,184.035327 C666.740115,184.035327 679.5,196.795212 679.5,212.535327 C679.5,228.275443 666.740115,241.035327 651,241.035327 C635.259885,241.035327 622.5,228.275443 622.5,212.535327 C622.5,196.795212 635.259885,184.035327 651,184.035327 Z M994.185901,235.163603 L994.185901,239.457811 L886.185901,239.457811 L886.185901,235.163603 L994.185901,235.163603 Z M768.677068,228.691305 L768.677068,232.985513 L704,232.985513 L704,228.691305 L768.677068,228.691305 Z M768.677068,220.040917 L768.677068,224.335126 L704,224.335126 L704,220.040917 L768.677068,220.040917 Z M768.677068,211.39053 L768.677068,215.684738 L704,215.684738 L704,211.39053 L768.677068,211.39053 Z M768.677068,202.740142 L768.677068,207.034351 L704,207.034351 L704,202.740142 L768.677068,202.740142 Z M768.677068,194.089755 L768.677068,198.383963 L704,198.383963 L704,194.089755 L768.677068,194.089755 Z M753.383397,185.439368 L753.383397,189.733576 L704,189.733576 L704,185.439368 L753.383397,185.439368 Z M834.599558,168.664542 C836.690208,162.23018 843.601097,158.708907 850.035458,160.799558 C856.46982,162.890208 859.991093,169.801097 857.900442,176.235458 C855.809792,182.66982 848.898903,186.191093 842.464542,184.100442 C836.03018,182.009792 832.508907,175.098903 834.599558,168.664542 Z M1027.1859,174.628089 L1027.1859,178.922298 L886.185901,178.922298 L886.185901,174.628089 L1027.1859,174.628089 Z M994.185901,165.977702 L994.185901,170.271911 L886.185901,170.271911 L886.185901,165.977702 L994.185901,165.977702 Z" opacity="1.00"></path><path id="Path-106--globalStyle1/bgelements/bigdashboard2/4" fill="#FFF" d="M634.63148,189.186054 L651,212.535327 L651,184.035327 C649.610004,184.068402 648.580696,184.122092 647.912075,184.196399 C643.374628,184.700662 639.285442,186.230364 636.147024,188.140315 C635.734452,188.391394 635.229271,188.739974 634.63148,189.186054 Z"></path><path id="Path-106-Copy--globalStyle1/bgelements/bigdashboard2/4" fill="#FFF" d="M849.644484,167.086015 L856.680076,177.122106 L856.680076,164.872106 C856.082622,164.886322 855.6402,164.9094 855.35281,164.941339 C853.402504,165.158084 851.644871,165.815587 850.295902,166.636531 C850.118569,166.744451 849.901429,166.894279 849.644484,167.086015 Z" transform="rotate(108 853.162 170.997)"></path><path id="Path-106-Copy-2--globalStyle1/bgelements/bigdashboard2/4" fill="#FFF" d="M840.888632,244.543296 L847.924224,254.579387 L847.924224,242.329387 C847.32677,242.343603 846.884348,242.366681 846.596958,242.398619 C844.646652,242.615364 842.88902,243.272868 841.540051,244.093811 C841.362717,244.201731 841.145578,244.35156 840.888632,244.543296 Z" transform="rotate(-135 844.406 248.454)"></path><path id="Oval--globalStyle1/bgelements/bigdashboard2/4" fill="#979797" fill-rule="nonzero" d="M304.410769,453.534772 C309.688613,453.534772 313.967152,457.81331 313.967152,463.091155 C313.967152,468.369 309.688613,472.647539 304.410769,472.647539 C299.132924,472.647539 294.854385,468.369 294.854385,463.091155 C294.854385,457.81331 299.132924,453.534772 304.410769,453.534772 Z M304.410769,456.907613 C300.995693,456.907613 298.227227,459.676079 298.227227,463.091155 C298.227227,466.506231 300.995693,469.274697 304.410769,469.274697 C307.825845,469.274697 310.594311,466.506231 310.594311,463.091155 C310.594311,459.676079 307.825845,456.907613 304.410769,456.907613 Z"></path><path id="Oval-Copy-35--globalStyle1/bgelements/bigdashboard2/4" fill="#979797" fill-rule="nonzero" d="M213.180215,529.675319 C215.606072,529.675319 217.572617,531.641865 217.572617,534.067722 C217.572617,536.493579 215.606072,538.460125 213.180215,538.460125 C210.754357,538.460125 208.787812,536.493579 208.787812,534.067722 C208.787812,531.641865 210.754357,529.675319 213.180215,529.675319 Z"></path><path id="Path-144--globalStyle1/bgelements/bigdashboard2/4" fill="#979797" fill-rule="nonzero" d="M313.967152,340.444698 C314.898536,340.444698 315.653573,339.946949 315.653573,339.332945 C315.653573,338.718941 314.898536,338.221192 313.967152,338.221192 L302.724348,338.221192 L302.724348,454.10944 C302.724348,454.723444 303.479384,455.221192 304.410769,455.221192 C305.342153,455.221192 306.097189,454.723444 306.097189,454.10944 L306.097189,340.444698 L313.967152,340.444698 Z"></path><polygon id="Path-145--globalStyle1/bgelements/bigdashboard2/4" fill="#979797" fill-rule="nonzero" points="214.304495 531.909047 214.304495 499.2 212.055934 499.2 212.055934 531.909047"></polygon><path id="Path-146--globalStyle1/bgelements/bigdashboard2/4" fill="#979797" fill-rule="nonzero" d="M429.871068,271.79721 L429.871068,262.802967 C429.871068,261.561121 428.864353,260.554406 427.622508,260.554406 C426.380662,260.554406 425.373947,261.561121 425.373947,262.802967 L425.373947,271.79721 C425.373947,273.039056 426.380662,274.045771 427.622508,274.045771 C428.864353,274.045771 429.871068,273.039056 429.871068,271.79721 Z M429.871068,253.808724 L429.871068,244.814481 C429.871068,243.572635 428.864353,242.56592 427.622508,242.56592 C426.380662,242.56592 425.373947,243.572635 425.373947,244.814481 L425.373947,253.808724 C425.373947,255.05057 426.380662,256.057285 427.622508,256.057285 C428.864353,256.057285 429.871068,255.05057 429.871068,253.808724 Z M429.871068,235.820238 L429.871068,226.825994 C429.871068,225.584149 428.864353,224.577434 427.622508,224.577434 C426.380662,224.577434 425.373947,225.584149 425.373947,226.825994 L425.373947,235.820238 C425.373947,237.062083 426.380662,238.068798 427.622508,238.068798 C428.864353,238.068798 429.871068,237.062083 429.871068,235.820238 Z M429.871068,217.831751 L429.871068,210.72309 L427.622508,210.72309 L427.622508,212.971651 L429.50809,212.971651 C430.749936,212.971651 431.756651,211.964936 431.756651,210.72309 C431.756651,209.481244 430.749936,208.47453 429.50809,208.47453 L425.373947,208.47453 L425.373947,217.831751 C425.373947,219.073597 426.380662,220.080312 427.622508,220.080312 C428.864353,220.080312 429.871068,219.073597 429.871068,217.831751 Z M438.502333,212.971651 L447.496576,212.971651 C448.738422,212.971651 449.745137,211.964936 449.745137,210.72309 C449.745137,209.481244 448.738422,208.47453 447.496576,208.47453 L438.502333,208.47453 C437.260487,208.47453 436.253772,209.481244 436.253772,210.72309 C436.253772,211.964936 437.260487,212.971651 438.502333,212.971651 Z M456.490819,212.971651 L465.485062,212.971651 C466.726908,212.971651 467.733623,211.964936 467.733623,210.72309 C467.733623,209.481244 466.726908,208.47453 465.485062,208.47453 L456.490819,208.47453 C455.248973,208.47453 454.242258,209.481244 454.242258,210.72309 C454.242258,211.964936 455.248973,212.971651 456.490819,212.971651 Z M474.479306,212.971651 L483.473549,212.971651 C484.715395,212.971651 485.722109,211.964936 485.722109,210.72309 C485.722109,209.481244 484.715395,208.47453 483.473549,208.47453 L474.479306,208.47453 C473.23746,208.47453 472.230745,209.481244 472.230745,210.72309 C472.230745,211.964936 473.23746,212.971651 474.479306,212.971651 Z M492.467792,212.971651 L501.462035,212.971651 C502.703881,212.971651 503.710596,211.964936 503.710596,210.72309 C503.710596,209.481244 502.703881,208.47453 501.462035,208.47453 L492.467792,208.47453 C491.225946,208.47453 490.219231,209.481244 490.219231,210.72309 C490.219231,211.964936 491.225946,212.971651 492.467792,212.971651 Z M510.456278,212.971651 L519.450521,212.971651 C520.692367,212.971651 521.699082,211.964936 521.699082,210.72309 C521.699082,209.481244 520.692367,208.47453 519.450521,208.47453 L510.456278,208.47453 C509.214432,208.47453 508.207717,209.481244 508.207717,210.72309 C508.207717,211.964936 509.214432,212.971651 510.456278,212.971651 Z M528.444764,212.971651 L537.439008,212.971651 C538.680853,212.971651 539.687568,211.964936 539.687568,210.72309 C539.687568,209.481244 538.680853,208.47453 537.439008,208.47453 L528.444764,208.47453 C527.202919,208.47453 526.196204,209.481244 526.196204,210.72309 C526.196204,211.964936 527.202919,212.971651 528.444764,212.971651 Z M546.433251,212.971651 L555.427494,212.971651 C556.66934,212.971651 557.676055,211.964936 557.676055,210.72309 C557.676055,209.481244 556.66934,208.47453 555.427494,208.47453 L546.433251,208.47453 C545.191405,208.47453 544.18469,209.481244 544.18469,210.72309 C544.18469,211.964936 545.191405,212.971651 546.433251,212.971651 Z M564.421737,212.971651 L573.41598,212.971651 C574.657826,212.971651 575.664541,211.964936 575.664541,210.72309 C575.664541,209.481244 574.657826,208.47453 573.41598,208.47453 L564.421737,208.47453 C563.179891,208.47453 562.173176,209.481244 562.173176,210.72309 C562.173176,211.964936 563.179891,212.971651 564.421737,212.971651 Z M582.410223,212.971651 L589.400522,212.971651 C590.642367,212.971651 591.649082,211.964936 591.649082,210.72309 C591.649082,209.481244 590.642367,208.47453 589.400522,208.47453 L582.410223,208.47453 C581.168377,208.47453 580.161662,209.481244 580.161662,210.72309 C580.161662,211.964936 581.168377,212.971651 582.410223,212.971651 Z"></path><path id="Path-146-Copy--globalStyle1/bgelements/bigdashboard2/4" fill="#979797" fill-rule="nonzero" d="M842.338543,370.282425 L851.332786,370.282425 C852.574632,370.282425 853.581347,369.27571 853.581347,368.033864 C853.581347,366.792018 852.574632,365.785303 851.332786,365.785303 L842.338543,365.785303 C841.096697,365.785303 840.089982,366.792018 840.089982,368.033864 C840.089982,369.27571 841.096697,370.282425 842.338543,370.282425 Z M860.327029,370.282425 L869.321273,370.282425 C870.563118,370.282425 871.569833,369.27571 871.569833,368.033864 C871.569833,366.792018 870.563118,365.785303 869.321273,365.785303 L860.327029,365.785303 C859.085184,365.785303 858.078469,366.792018 858.078469,368.033864 C858.078469,369.27571 859.085184,370.282425 860.327029,370.282425 Z M878.315516,370.282425 L887.309759,370.282425 C888.551605,370.282425 889.55832,369.27571 889.55832,368.033864 C889.55832,366.792018 888.551605,365.785303 887.309759,365.785303 L878.315516,365.785303 C877.07367,365.785303 876.066955,366.792018 876.066955,368.033864 C876.066955,369.27571 877.07367,370.282425 878.315516,370.282425 Z M896.304002,370.282425 L905.298245,370.282425 C906.540091,370.282425 907.546806,369.27571 907.546806,368.033864 C907.546806,366.792018 906.540091,365.785303 905.298245,365.785303 L896.304002,365.785303 C895.062156,365.785303 894.055441,366.792018 894.055441,368.033864 C894.055441,369.27571 895.062156,370.282425 896.304002,370.282425 Z M914.292488,370.282425 L923.286731,370.282425 C924.528577,370.282425 925.535292,369.27571 925.535292,368.033864 C925.535292,366.792018 924.528577,365.785303 923.286731,365.785303 L914.292488,365.785303 C913.050642,365.785303 912.043927,366.792018 912.043927,368.033864 C912.043927,369.27571 913.050642,370.282425 914.292488,370.282425 Z M932.280975,370.282425 L941.275218,370.282425 C942.517063,370.282425 943.523778,369.27571 943.523778,368.033864 C943.523778,366.792018 942.517063,365.785303 941.275218,365.785303 L932.280975,365.785303 C931.039129,365.785303 930.032414,366.792018 930.032414,368.033864 C930.032414,369.27571 931.039129,370.282425 932.280975,370.282425 Z" transform="rotate(-90 891.807 368.034)"></path><path id="Path-146-Copy-2--globalStyle1/bgelements/bigdashboard2/4" fill="#979797" fill-rule="nonzero" d="M1034.59049,416.377921 L1043.58473,416.377921 C1044.82658,416.377921 1045.83329,415.371206 1045.83329,414.12936 C1045.83329,412.887514 1044.82658,411.880799 1043.58473,411.880799 L1034.59049,411.880799 C1033.34864,411.880799 1032.34193,412.887514 1032.34193,414.12936 C1032.34193,415.371206 1033.34864,416.377921 1034.59049,416.377921 Z M1052.57898,416.377921 L1061.57322,416.377921 C1062.81507,416.377921 1063.82178,415.371206 1063.82178,414.12936 C1063.82178,412.887514 1062.81507,411.880799 1061.57322,411.880799 L1052.57898,411.880799 C1051.33713,411.880799 1050.33042,412.887514 1050.33042,414.12936 C1050.33042,415.371206 1051.33713,416.377921 1052.57898,416.377921 Z M1070.56746,416.377921 L1079.56171,416.377921 C1080.80355,416.377921 1081.81027,415.371206 1081.81027,414.12936 C1081.81027,412.887514 1080.80355,411.880799 1079.56171,411.880799 L1070.56746,411.880799 C1069.32562,411.880799 1068.3189,412.887514 1068.3189,414.12936 C1068.3189,415.371206 1069.32562,416.377921 1070.56746,416.377921 Z" transform="rotate(-90 1057.076 414.13)"></path><path id="Path-147--globalStyle1/bgelements/bigdashboard2/4" fill="#D8D8D8" d="M374.987796,338.408494 L359.227707,275.986726 C329.054004,288.435542 313.967152,308.991318 313.967152,337.654053 C313.967152,366.316789 329.054004,387.341087 359.227707,400.726947 L374.987796,338.408494 Z" opacity=".645"></path><path id="Path-148--globalStyle1/bgelements/bigdashboard2/4" fill="#D8D8D8" d="M379.719625,333.655379 L365.112481,274.58116 C390.760319,272.286815 409.593266,277.366576 421.61132,289.820445 C433.629374,302.274313 439.995434,316.885958 440.709501,333.655379 L379.719625,333.655379 Z" opacity=".477"></path><line id="Path-149--globalStyle1/bgelements/bigdashboard2/4" x1="804.272" x2="804.272" y1="404.425" y2="572.337" stroke="#979797" stroke-linecap="round" stroke-width="3"></line><line id="Path-149-Copy--globalStyle1/bgelements/bigdashboard2/4" x1="1121.16" x2="815.918" y1="575.464" y2="575.464" stroke="#979797" stroke-linecap="round" stroke-width="3"></line><path id="Path-149-Copy-2--globalStyle1/bgelements/bigdashboard2/4" fill="#979797" fill-rule="nonzero" d="M841.318978,586.7064 L815.917954,586.7064 C814.986569,586.7064 814.231533,587.461436 814.231533,588.392821 C814.231533,589.324205 814.986569,590.079241 815.917954,590.079241 L841.318978,590.079241 C842.250363,590.079241 843.005399,589.324205 843.005399,588.392821 C843.005399,587.461436 842.250363,586.7064 841.318978,586.7064 Z"></path><path id="Path-149-Copy-3--globalStyle1/bgelements/bigdashboard2/4" fill="#979797" fill-rule="nonzero" d="M896.507477,586.7064 L871.106453,586.7064 C870.175069,586.7064 869.420032,587.461436 869.420032,588.392821 C869.420032,589.324205 870.175069,590.079241 871.106453,590.079241 L896.507477,590.079241 C897.438862,590.079241 898.193898,589.324205 898.193898,588.392821 C898.193898,587.461436 897.438862,586.7064 896.507477,586.7064 Z"></path><path id="Path-149-Copy-4--globalStyle1/bgelements/bigdashboard2/4" fill="#979797" fill-rule="nonzero" d="M951.695976,586.7064 L926.294952,586.7064 C925.363568,586.7064 924.608531,587.461436 924.608531,588.392821 C924.608531,589.324205 925.363568,590.079241 926.294952,590.079241 L951.695976,590.079241 C952.627361,590.079241 953.382397,589.324205 953.382397,588.392821 C953.382397,587.461436 952.627361,586.7064 951.695976,586.7064 Z"></path><path id="Path-149-Copy-5--globalStyle1/bgelements/bigdashboard2/4" fill="#979797" fill-rule="nonzero" d="M1009.82513,586.7064 L984.424104,586.7064 C983.49272,586.7064 982.737684,587.461436 982.737684,588.392821 C982.737684,589.324205 983.49272,590.079241 984.424104,590.079241 L1009.82513,590.079241 C1010.75651,590.079241 1011.51155,589.324205 1011.51155,588.392821 C1011.51155,587.461436 1010.75651,586.7064 1009.82513,586.7064 Z"></path><path id="Path-149-Copy-6--globalStyle1/bgelements/bigdashboard2/4" fill="#979797" fill-rule="nonzero" d="M1067.95428,586.7064 L1042.55326,586.7064 C1041.62187,586.7064 1040.86684,587.461436 1040.86684,588.392821 C1040.86684,589.324205 1041.62187,590.079241 1042.55326,590.079241 L1067.95428,590.079241 C1068.88567,590.079241 1069.6407,589.324205 1069.6407,588.392821 C1069.6407,587.461436 1068.88567,586.7064 1067.95428,586.7064 Z"></path><path id="Path-149-Copy-9--globalStyle1/bgelements/bigdashboard2/4" fill="#979797" fill-rule="nonzero" d="M1121.16008,586.7064 L1095.75906,586.7064 C1094.82767,586.7064 1094.07264,587.461436 1094.07264,588.392821 C1094.07264,589.324205 1094.82767,590.079241 1095.75906,590.079241 L1121.16008,590.079241 C1122.09146,590.079241 1122.8465,589.324205 1122.8465,588.392821 C1122.8465,587.461436 1122.09146,586.7064 1121.16008,586.7064 Z"></path></g></g></svg></g></g><g transform="translate(0,658)">
<g transform="translate(30.25,179)">

<g><svg xmlns="http://www.w3.org/2000/svg" width="251" height="250" viewBox="0 0 251 250"><g id="Symbols--globalStyle1/people/man/bottom/2" fill="none" fill-rule="evenodd" stroke="none" stroke-width="1"><g id="globalStyle1/people/man/bottom/2--globalStyle1/people/man/bottom/2"><path id="Fill-1--globalStyle1/people/man/bottom/2" fill="#E9E9E9" d="M127.4056,223.8179 L123.6646,247.5249 L151.8426,247.5289 C151.9246,245.5429 150.5936,245.6079 147.1436,245.5429 C141.9686,245.4439 131.0006,246.5969 131.5346,243.0979 C131.6886,242.0849 133.6986,235.1189 137.2276,224.0469 L127.4056,223.8179 Z"></path><path id="shadow--globalStyle1/people/man/bottom/2" fill="#000" fill-opacity=".04" d="M127.405848,223.8179 L123.664848,247.5249 L151.842848,247.5289 C151.924848,245.5429 150.593848,245.6079 147.143848,245.5429 C141.968848,245.4439 131.000848,246.5969 131.534848,243.0979 C131.688848,242.0849 133.698848,235.1189 137.227848,224.0469 L127.405848,223.8179 Z"></path><path id="[clothes]shoes--globalStyle1/people/man/bottom/2" fill="#294b67" d="M123.6644,249.5269 L151.8464,249.5289 L151.8424,247.5289 C151.8424,247.5289 142.6464,247.5239 123.6644,247.5409 L123.6644,249.5269 Z" opacity="1.00"></path><path id="Fill-5--globalStyle1/people/man/bottom/2" fill="#E9E9E9" d="M106.1136,222.897 L106.5066,247.539 L134.9246,247.529 C134.9246,247.529 133.9556,245.574 130.5056,245.508 C125.3306,245.411 113.0006,245.95 113.4906,242.659 C113.6416,241.644 114.0316,236.319 114.8106,223.818 L106.1136,222.897 Z"></path><path id="[clothes]shoes--globalStyle1/people/man/bottom/2" fill="#294b67" d="M106.5061,249.5249 L134.9241,249.5279 L134.9241,247.5289 C134.9241,247.5289 125.4871,247.5219 106.5061,247.5389 L106.5061,249.5249 Z" opacity="1.00"></path><path id="[clothes]pants--globalStyle1/people/man/bottom/2" fill="#294b67" d="M157.810092,16.6362677 L163.50789,137.904519 C163.553638,138.406771 163.577,138.915282 163.577,139.4291 C163.577,139.447433 163.57697,139.46576 163.576911,139.48408 L163.5775,139.4839 C163.569755,141.575972 163.176569,143.576387 162.463116,145.4243 L145.9995,233.1879 L115.4355,233.1929 L128.4565,139.6059 L128.5345,139.605268 L128.5335,139.527268 L128.4562,139.527861 L118,16.6362677 L157.810092,16.6362677 Z" opacity="1.00"></path><path id="shadow--globalStyle1/people/man/bottom/2" fill="#000" fill-opacity=".04" d="M157.809592,17.6362677 L163.506018,137.889533 C163.552671,138.396656 163.5765,138.910171 163.5765,139.4291 C163.5765,139.447433 163.57647,139.46576 163.576411,139.48408 L163.577,139.4839 C163.568635,141.57728 163.176209,143.574255 162.464544,145.419304 L145.999,233.1879 L115.435,233.1929 L128.456,139.6059 L128.534,139.605268 L128.533,139.527268 L128.4557,139.527861 L117.9995,17.6362677 L157.809592,17.6362677 Z"></path><path id="[clothes]pants--globalStyle1/people/man/bottom/2" fill="#294b67" d="M131.0003,17.0745 L127.543204,138.361534 C127.565624,138.71459 127.577,139.070553 127.577,139.4291 C127.577,140.185026 127.526445,140.92946 127.428445,141.659375 L123.9671,233.1927 L94.0081,233.1927 L92.4751,139.4837 L92.5333,139.4835 L92.5323,139.4725 L92.4753,139.472726 L92.0003,17.0745 L131.0003,17.0745 Z" opacity="1.00"></path></g></g></svg></g>
</g>
<g transform="translate(83.75,15)">

<g><svg xmlns="http://www.w3.org/2000/svg" width="120" height="150" viewBox="0 0 120 150"><g id="Symbols--globalStyle1/people/man/head/5" fill="none" fill-rule="evenodd" stroke="none" stroke-width="1"><g id="globalStyle1/people/man/head/5--globalStyle1/people/man/head/5"><polygon id="[skin]neck--globalStyle1/people/man/head/5" fill="#c3786f" points="69.0765532 92.0485 88.5735532 92.0485 85.8989543 40.509 74.5815532 37.4535" opacity="1.00"></polygon><polygon id="shadow--globalStyle1/people/man/head/5" fill="#000" fill-opacity=".04" points="69.0765532 92.0485 88.5735532 92.0485 85.8989543 40.509 74.5815532 37.4535"></polygon><path id="[skin]face--globalStyle1/people/man/head/5" fill="#c3786f" d="M85.7290118,50.1722562 C91.2372406,50.4117241 93.3515741,42.3634794 92.9533352,31.0442262 C92.5550963,19.7249731 87.7669582,10.3547783 82.2587294,10.1153103 C76.7505006,9.87584241 72.6080353,18.857783 73.0062742,30.1770361 C73.4045131,41.4962892 80.220783,49.9327882 85.7290118,50.1722562 Z" transform="rotate(8 82.99 30.144)" opacity="1.00"></path><path id="[hair]hair--globalStyle1/people/man/head/5" fill="#2a4862" d="M73.1826731,31.4808543 L75.7935539,27.4671609 C76.4129057,21.476275 77.1351275,18.3259871 77.9602192,18.0162973 C81.8874589,16.5422477 91.6144251,18.8871472 92.1490318,19.9764738 C92.4283264,20.5455707 102.094114,12.9859766 98.6726795,9.38685301 C97.0135463,7.64155455 86.8447053,7.89113216 81.4279763,8.41586026 C70.3699687,9.487069 67.6215343,17.1754003 73.1826731,31.4808543 Z" transform="rotate(-2 84.898 19.754)" opacity="1.00"></path><path id="smile--globalStyle1/people/man/head/5" fill="#FFF" fill-rule="nonzero" d="M89.2777577,41.8888747 C89.9340077,41.8888747 91.2777577,41.4523947 91.2777577,39.8888747 C91.2777577,39.8888747 87.2777577,39.8888747 87.2777577,39.8888747 C87.2777577,41.336656 88.6215077,41.8888747 89.2777577,41.8888747 Z" transform="rotate(-2 89.278 40.889)"></path></g></g></svg></g>
</g>
<g transform="translate(112.75,82)">

<g><svg xmlns="http://www.w3.org/2000/svg" width="193" height="193" viewBox="0 0 193 193"><g id="Symbols--globalStyle1/people/man/top/3" fill="none" fill-rule="evenodd" stroke="none" stroke-width="1"><g id="globalStyle1/people/man/top/3--globalStyle1/people/man/top/3"><path id="Path-5--globalStyle1/people/man/top/3" fill="#E8E8E8" d="M39.8249382,3.59640122 C29.8243664,5.1239655 22.9073035,7.28525775 19.0737497,10.080278 C13.3234188,14.2728083 9.70341891,22.3432957 8.63449167,25.3764563 C7.56556444,28.4096169 5.32080122,33.2482569 2.47177223,22.935438 C-0.377256772,12.6226191 10.4506899,2.17937532 14.2729893,0.487148339 C16.8211889,-0.641002984 25.3385052,0.395414643 39.8249382,3.59640122 Z"></path><path id="Path-6--globalStyle1/people/man/top/3" fill="#E8E8E8" d="M44.1076995,6.74159201 C34.1648756,4.52768836 27.8607192,3.34427548 25.1952304,3.19135338 C21.1969972,2.96197023 19.5981469,3.36631128 19.0769487,3.49932521 C18.5557505,3.63233913 20.2921933,7.1498711 32.1999464,7.81479702 C40.1384485,8.25808096 44.1076995,7.90034596 44.1076995,6.74159201 Z"></path><path id="Path-6-Copy--globalStyle1/people/man/top/3" fill="#000" fill-opacity=".08" d="M40.1330619,3.71699868 C30.1902379,1.50309503 23.8860816,0.319682156 21.2205928,0.166760054 C17.2223596,-0.0626230974 15.6235093,0.341717958 15.1023111,0.47473188 C14.5811129,0.607745801 16.3175557,4.12527777 28.2253088,4.79020369 C36.1638109,5.23348763 40.1330619,4.87575263 40.1330619,3.71699868 Z"></path><path id="[skin]hand--globalStyle1/people/man/top/3" fill="#c3786f" d="M115.411325,119.763905 L120.745099,121.565089 L130.994684,120.846791 L137.959602,124.620032 C138.504862,124.933666 138.329982,125.237346 138.227643,125.238073 C136.088585,125.232297 134.427999,124.783514 132.345432,123.649374 C130.016618,124.32374 128.156483,123.168104 128.748884,125.31644 C128.816485,125.569004 132.528822,127.096463 136.432757,127.722594 C136.987576,127.811889 139.656153,128.430723 139.99044,128.487184 C141.913783,128.81368 142.22843,128.765192 143.605889,128.774854 C144.029004,128.778413 144.552484,128.967588 145.177622,129.340468 C145.267469,129.395292 145.342485,129.463781 145.392122,129.538846 C145.529906,129.74544 145.450882,129.942555 145.215204,129.98156 C144.687024,130.067255 144.107263,130.140526 143.474649,130.199127 C142.551565,130.284931 139.683564,130.177095 137.23838,129.832124 C135.579832,129.598793 133.525623,129.327529 133.280957,129.367445 C132.904648,129.428706 136.174518,130.144437 138.74786,130.932809 C141.320243,131.720536 143.079027,130.981406 145.484072,130.919891 C145.816468,130.911134 146.414211,131.070983 147.279555,131.398169 C147.32565,131.416638 147.723616,131.679933 147.57044,131.885599 C147.415659,132.091575 144.619463,132.761824 143.02418,132.92967 C140.363219,133.212598 139.824216,133.046354 138.580513,132.744298 C137.031181,132.366117 134.255178,131.798807 133.489774,131.676412 C132.725328,131.554662 136.842892,133.130654 139.982224,133.664122 C140.46907,133.746658 141.485119,133.791451 141.952366,133.8205 C143.354753,133.906691 145.218309,133.486812 145.832072,133.886801 C145.920938,133.945136 146.001417,134.011736 146.067111,134.083691 C146.374865,134.41842 146.336886,134.796037 145.984903,134.926473 C145.068136,135.266749 143.721595,135.471097 141.945279,135.539516 C141.526868,135.555801 139.883001,135.572831 139.291789,135.450737 C136.796885,134.927774 133.7767,133.77931 133.481232,133.840688 C133.18641,133.90111 135.002365,134.390366 137.185958,135.115585 C137.653682,135.270937 139.493593,135.699733 140.037103,135.848976 L140.127729,135.874934 C140.631837,136.028847 140.997057,136.060223 141.880518,136.241109 C143.642,136.600616 143.727346,137.307173 142.735924,137.512476 C141.743856,137.718734 133.958495,136.338415 130.575512,135.303388 C128.723412,134.735623 125.671363,134.256645 120.643955,132.514009 L113.147157,129.153441 L113.537294,127.532081 C113.194915,126.924137 113.001417,126.236739 113,125.508687 C112.997239,124.08452 113.729622,122.81364 114.875117,121.987102 L115.411325,119.763905 Z" opacity="1.00"></path><path id="shadow--globalStyle1/people/man/top/3" fill="#000" fill-opacity=".04" d="M115.789294,120.5114 L112.415812,129.561786 L117.844921,131.051145 L125.940545,137.378136 L133.824693,138.144711 C134.452116,138.189602 134.47695,137.840048 134.392513,137.782218 C132.615924,136.590861 130.988279,136.03433 128.62755,135.810019 C127.073977,133.948688 124.885631,133.866579 126.578088,132.416795 C126.775364,132.245211 130.707175,133.054803 134.293812,134.718769 C134.80371,134.954991 137.362108,135.934204 137.670818,136.074326 C139.447916,136.879169 139.681655,137.095316 140.829024,137.857571 C141.181792,138.091223 141.721562,138.227116 142.448337,138.267557 C142.55348,138.272348 142.65397,138.257516 142.737097,138.223042 C142.966851,138.128815 143.011563,137.92121 142.837988,137.757083 C142.448027,137.390684 142.008355,137.005742 141.516665,136.603406 C140.799374,136.016089 138.361392,134.501724 136.141337,133.420389 C134.635862,132.68638 132.781157,131.762569 132.60064,131.592662 C132.322923,131.331445 135.433999,132.566565 138.008248,133.35197 C140.581342,134.137372 141.626124,135.733639 143.585598,137.129521 C143.856269,137.322654 144.441207,137.524388 145.34157,137.737032 C145.390112,137.747497 145.867274,137.751754 145.855292,137.495595 C145.842153,137.238281 143.898801,135.119006 142.670109,134.087784 C140.622283,132.365236 140.082467,132.201652 138.882484,131.756598 C137.386553,131.203749 134.767906,130.121749 134.064915,129.79521 C133.36308,129.468673 137.657978,130.464629 140.558914,131.777856 C141.00868,131.981672 141.876071,132.512704 142.27968,132.749902 C143.490509,133.462651 144.800674,134.852834 145.533178,134.864441 C145.639471,134.865772 145.743434,134.855561 145.838134,134.832644 C146.280452,134.727234 146.460126,134.392938 146.241257,134.087975 C145.671503,133.293224 144.66944,132.370836 143.235067,131.32081 C142.897295,131.073338 141.54399,130.139979 140.985579,129.910599 C138.624773,128.949022 135.478714,128.212276 135.268081,127.996168 C135.05745,127.781213 136.836534,128.39107 139.052351,129.010886 C139.558626,129.152492 141.533207,129.909205 141.915812,130.026376 C142.419804,130.180669 142.74013,130.358886 143.573703,130.702949 C145.235071,131.389913 145.700928,130.851875 144.993806,130.127276 C144.286683,129.401522 137.060461,126.19234 133.677061,125.158677 C131.824111,124.593694 129.026006,123.2841 123.883627,121.91752 L115.789294,120.5114 Z" transform="scale(1 -1) rotate(-34 -293.84 0)"></path><path id="Combined-Shape--globalStyle1/people/man/top/3" fill="#E8E8E8" d="M63.9842878,6.08093934 C71.3031709,5.31437854 79.3129062,10.0298774 78.9905819,18.6490609 C78.2966365,37.1575949 74.3290795,90.7497992 73.7233279,93.5783961 C73.6033565,94.1384829 73.4793723,94.6823233 73.3515857,95.2102912 C83.4493895,99.8671444 99.7463899,108.005834 121,119.480561 L121,119.480561 L116.284742,132 C70.1774019,122.187652 47.5343631,111.906198 47.0444056,102.472568 C46.7253342,97.3328831 48.1543129,94.1182971 50.4117207,92.2424256 C48.9760501,70.1100108 51.7013163,29.4974375 52.4535551,18.0363726 C52.9197733,13.5855879 61.8433337,23.0680654 64.5,21.1169471 C65.7158302,20.2240128 66.1228846,14.1641625 65.4994106,10.028792 C65.1532144,7.73254633 63.1579709,6.16748563 63.9842878,6.08093934 Z"></path><path id="shadow--globalStyle1/people/man/top/3" fill="#000" fill-opacity=".08" d="M63.9842878,6.08093934 C71.3031709,5.31437854 79.3129062,10.0298774 78.9905819,18.6490609 C78.2966365,37.1575949 74.3290795,90.7497992 73.7233279,93.5783961 C73.6033565,94.1384829 73.4793723,94.6823233 73.3515857,95.2102912 C83.4493895,99.8671444 99.7463899,108.005834 121,119.480561 L121,119.480561 L116.284742,132 C70.1774019,122.187652 47.5343631,111.906198 47.0444056,102.472568 C46.7253342,97.3328831 48.1543129,94.1182971 50.4117207,92.2424256 C48.9760501,70.1100108 51.7013163,29.4974375 52.4535551,18.0363726 C52.9197733,13.5855879 61.8433337,23.0680654 64.5,21.1169471 C65.7158302,20.2240128 66.1228846,14.1641625 65.4994106,10.028792 C65.1532144,7.73254633 63.1579709,6.16748563 63.9842878,6.08093934 Z"></path><path id="[clothes]tshirt--globalStyle1/people/man/top/3" fill="#6b8fff" d="M40.8028549,-0.374306687 C-2.05077381,1.48631696 4.83439378,35.359387 4.83439378,73.3100925 C4.83439378,83.5435226 2.93326542,134.861401 7.90329141,140.952398 C26.2781408,163.469647 66.351142,154.408896 79.2618807,144.551319 C84.2914514,140.711153 81,130.673476 80.4871462,96.2511719 C80.1379673,72.8145811 78.8332649,54.8405359 78.8332649,44.1472372 C78.8332649,35.1822768 79.9079226,0.924167531 60.3817587,0.924167531 C57.5748037,0.924167531 57.4762526,2.44953826 54.2972612,2.44953826 C51.1182697,2.44953826 42.2473855,-0.436790317 40.8028549,-0.374306687 Z" opacity="1.00"></path><path id="[skin]hand--globalStyle1/people/man/top/3" fill="#c3786f" d="M62.4243756,146.693537 L69.3235375,155.820612 L78.8645284,159.742567 L83.8482031,165.090405 C84.2330612,165.52678 83.9840055,165.744338 83.8937467,165.714806 C82.0048805,165.091292 80.6782544,164.214615 79.1901989,162.609497 C76.9229725,162.530554 75.6386571,160.972312 75.4957635,163.041062 C75.4789525,163.284444 78.2832379,165.70832 81.5390587,167.389988 C82.0013116,167.63057 84.1668815,168.948519 84.44395,169.095723 C86.0430744,169.940107 86.3342776,169.989226 87.5490137,170.3962 C87.9217682,170.521936 88.3249955,170.839734 88.7613907,171.352016 C88.82313,171.424935 88.8677451,171.507745 88.8894991,171.588007 C88.9482081,171.809793 88.8160891,171.9618 88.5963951,171.92781 C88.1023762,171.852079 87.5682788,171.747655 86.9916388,171.617183 C86.1495977,171.425289 83.6493842,170.499731 81.5965169,169.487996 C80.2046924,168.802514 78.4721368,167.968061 78.2445889,167.931878 C77.8926565,167.877308 80.5602112,169.456934 82.5886411,170.896146 C84.6171866,172.337891 86.3991686,172.193508 88.5442028,172.834686 C88.8392492,172.922723 89.3183357,173.237692 89.981347,173.777061 C90.0162666,173.805982 90.2865176,174.155011 90.0865238,174.292238 C89.8854751,174.429003 87.2097433,174.211176 85.7470884,173.899374 C83.3093303,173.379704 82.8840508,173.077089 81.8799171,172.448157 C80.6279127,171.666168 78.3508334,170.362769 77.713945,170.033422 C77.0765869,169.705111 80.2246452,172.287978 82.8324211,173.667693 C83.2381793,173.882333 84.1212795,174.215062 84.524611,174.376509 C85.7360147,174.857742 87.5126293,175.026289 87.9317772,175.557096 C87.9916378,175.634159 88.0418815,175.715706 88.0782885,175.799892 C88.2467477,176.183857 88.0961067,176.507747 87.7441297,176.520186 C86.8292451,176.555865 85.5769766,176.345976 83.9859151,175.893628 C83.6109204,175.786773 82.1538753,175.325991 81.6701928,175.04625 C79.6285787,173.861936 77.315543,171.974325 77.0365214,171.942944 C76.756445,171.911102 78.2092895,172.86903 79.9137659,174.14178 C80.3017699,174.431822 81.975464,175.44907 82.2762882,175.663758 C82.6742633,175.945747 82.9874517,176.080194 83.7109273,176.494566 C85.1562384,177.321351 85.0126502,177.969808 84.0727686,177.865468 C83.1323017,177.759631 76.6834579,174.288456 74.0155265,172.39463 C72.5554654,171.357831 69.4996234,169.561273 66.2003196,166.450535 L59.1802382,159.114107 C58.6290304,158.730394 58.1570915,158.237336 57.7947133,157.66563 L53.6863625,153.37041 L62.4243756,146.693537 Z" opacity="1.00"></path><path id="Combined-Shape--globalStyle1/people/man/top/3" fill="#E8E8E8" d="M11.5288744,22.9422015 C14.6621527,9.04281516 33.1610465,7.83386962 38.3050227,22.4993089 C42.6011926,34.7448398 46.3706242,83.0547921 46.9288838,101.453909 C49.760411,106.652386 55.1845285,116.339775 68.4809712,151.06537 L68.4809712,151.06537 L58.3039175,159.472591 C42.3477093,138.628441 32.5717605,124.371356 27.2742372,114.301508 C27.2131176,114.230629 27.1548392,114.15855 27.0993491,114.086233 C19.8961247,104.700631 8.39678026,36.8415878 11.5288744,22.9422015 Z"></path></g></g></svg></g>
</g></g><g transform="translate(202,658)">
<g transform="translate(336,0) scale(-1, 1)">
<g transform="translate(102.7853336471289,19)">

<g><svg xmlns="http://www.w3.org/2000/svg" width="120" height="156" viewBox="0 0 120 156"><g id="Symbols--globalStyle1/people/womandress/head/2" fill="none" fill-rule="evenodd" stroke="none" stroke-width="1"><g id="globalStyle1/people/womandress/head/2--globalStyle1/people/womandress/head/2"><path id="[hair]hair--globalStyle1/people/womandress/head/2" fill="#ff93d4" d="M93.0540717,73.6463918 C86.1176963,118.672304 66.5098558,139.292691 54.2034762,125.518032 C53.8966675,125.174617 42.1261951,102.246693 51.3489613,58.5646643 C56.6947611,33.2452125 61.6664326,22.7346159 78.0682835,22.7346159 C95.0633366,22.7346159 95.0633366,60.6037025 93.0540717,73.6463918 Z" opacity="1.00"></path><path id="shadow--globalStyle1/people/womandress/head/2" fill="#000" fill-opacity=".2" d="M93.0540717,73.6463918 C86.1176963,118.672304 66.5098558,139.292691 54.2034762,125.518032 C53.8966675,125.174617 42.1261951,102.246693 51.3489613,58.5646643 C56.6947611,33.2452125 61.6664326,22.7346159 78.0682835,22.7346159 C95.0633366,22.7346159 95.0633366,60.6037025 93.0540717,73.6463918 Z"></path><polygon id="[skin]skin--globalStyle1/people/womandress/head/2" fill="#f0a19e" points="39.7863555 85.1301371 73.8142567 34.4024331 83.2012263 45.9275933 65.5473995 90.6058161" transform="rotate(-12 61.494 62.504)" opacity="1.00"></polygon><polygon id="shadow--globalStyle1/people/womandress/head/2" fill="#000" fill-opacity=".04" points="39.7863555 85.1301371 73.8142567 34.4024331 83.2012263 45.9275933 65.5473995 90.6058161" transform="rotate(-12 61.494 62.504)"></polygon><ellipse id="[skin]skin--globalStyle1/people/womandress/head/2" cx="79.543" cy="33.3" fill="#f0a19e" rx="10.236" ry="17.511" transform="rotate(-12 79.543 33.3)" opacity="1.00"></ellipse><path id="smile--globalStyle1/people/womandress/head/2" fill="#FFF" fill-rule="nonzero" d="M84.8780975,44.3107385 C85.5560927,44.3103801 86.9446116,43.8499853 86.9454828,42.2034266 C86.9454828,42.2034266 82.8129409,42.2056096 82.8129409,42.2056096 C82.8121344,43.7302827 84.2001024,44.3110964 84.8780975,44.3107385 Z" transform="rotate(4 84.88 43.257)"></path><path id="[hair]hair--globalStyle1/people/womandress/head/2" fill="#ff93d4" d="M47.8269456,102.189973 C45.4339456,135.080573 13.6487474,172.25258 6.79465594,111.67372 C3.79837481,85.1915385 20.4614205,69.1463918 35.9734762,47.1463918 C44.7378733,34.7162703 48.2556389,26.463705 52.2496389,19.0608613 C58.5546389,7.37346785 68.0176389,-0.180373203 87.1016389,13.4232958 C92.3146389,17.1386253 89.5826389,20.2062557 78.9056389,22.6251935 C78.5616389,24.1907976 75.4096394,24.5341987 73.5508546,30.258276 C73.2253771,30.7641865 68.3434196,44.6731706 58.9107807,58.8336977 C48.0932933,75.0731959 48.0932933,98.5255191 47.8269456,102.189973 Z" opacity="1.00"></path></g></g></svg></g>
</g>
<g transform="translate(97,91.3159999999998)">

<g><svg xmlns="http://www.w3.org/2000/svg" xmlns:xlink="http://www.w3.org/1999/xlink" width="184" height="335" viewBox="0 0 184 335"><defs><path id="path-1--globalStyle1/people/womandress/body/3" d="M69.0493194,53.2558671 C63.440193,64.0406875 51.6776305,67.1902212 33.7616319,62.7044683 C32.8996319,102.020073 32.4686319,130.368495 32.4686319,147.749733 C32.4686319,176.971748 25.8455206,204.762041 12.5992978,231.120612 L110.389951,231.120612 C111.319645,205.035186 111.784492,179.692622 111.784492,155.092922 C111.784492,128.5161 110.087355,69.0046694 110.319607,55.2118478 C110.55186,41.4190262 112.153652,40.6516536 106.62391,25.3442523 C102.937415,15.1393181 98.7368371,7.78992306 94.0221755,3.29606703 C98.047144,16.1675207 100.300824,25.6900705 100.783216,31.8637163 C101.265608,38.0373622 100.364115,45.8200727 98.0787349,55.2118478 C94.7765219,43.2928073 91.7380259,35.5100968 88.963247,31.8637163 C81.381375,21.9002598 69.7394738,11.7072189 54.0375434,1.28459357 C69.6545205,25.1472888 74.6584459,42.4710467 69.0493194,53.2558671 Z"></path></defs><g id="Symbols--globalStyle1/people/womandress/body/3" fill="none" fill-rule="evenodd" stroke="none" stroke-width="1"><g id="globalStyle1/people/womandress/body/3--globalStyle1/people/womandress/body/3"><path id="[skin]hand--globalStyle1/people/womandress/body/3" fill="#f0a19e" d="M89.8122845,20.7642473 C92.066498,31.7284202 100.338037,80.1218534 106.673217,86.8516123 C110.470123,90.8850835 120.913672,90.7161088 119.335357,77.1077106 C119.075958,74.8671978 111.606364,22.4567342 110.575162,17.4359029 C103.170417,18.9585017 89.8122845,20.7642473 89.8122845,20.7642473" opacity="1.00"></path><path id="shadow--globalStyle1/people/womandress/body/3" fill="#000" fill-opacity=".04" d="M89.8122845,20.7642473 C92.066498,31.7284202 100.338037,80.1218534 106.673217,86.8516123 C110.470123,90.8850835 120.913672,90.7161088 119.335357,77.1077106 C119.075958,74.8671978 111.606364,22.4567342 110.575162,17.4359029 C103.170417,18.9585017 89.8122845,20.7642473 89.8122845,20.7642473"></path><path id="Fill-12-Copy--globalStyle1/people/womandress/body/3" fill="#F6F6F6" d="M103.154396,56.1678164 C108.184153,59.04444 119.996685,63.3020358 122.394982,50.9294614 C124.793278,38.556887 113.72963,9.30456908 103.154396,10.810077 C102.013649,10.9724757 98.1246107,26.0229023 98.1246107,33.7217782 C98.1246107,41.4206541 98.1246107,53.2911927 103.154396,56.1678164 Z"></path><path id="[skin]leg--globalStyle1/people/womandress/body/3" fill="#f0a19e" d="M57.1522319,101.010765 C70.0722319,100.9888 80.5652319,111.4438 80.5872666,124.3638 C80.5900171,125.981624 80.4284919,127.561378 80.1184218,129.087272 L62.1440985,223.318526 C62.0127867,223.966323 61.8183397,224.592033 61.5662333,225.187443 L61.5716319,225.188878 L61.5342406,225.262125 C61.3370295,225.717192 61.1060193,226.154233 60.8443727,226.570073 L8.74763193,325.2266 C5.29163193,323.1736 3.75563193,322.2576 3.36563193,322.3116 C3.36563193,322.3116 14.5656319,293.5986 43.3036319,218.6016 L43.3036319,218.6016 L33.7616319,125.9907 L33.8534336,125.994781 C33.8190441,125.482801 33.8011222,124.9663 33.8001941,124.4458 C33.7772319,111.5258 44.2332319,101.0338 57.1522319,101.010765 Z" opacity="1.00"></path><path id="[skin]hand--globalStyle1/people/womandress/body/3" fill="#f0a19e" d="M82.7501319,103.391667 C94.9991319,103.3707 104.947132,113.2827 104.968165,125.5317 C104.972561,128.099895 104.540307,130.566894 103.741414,132.862439 L88.9459565,222.680972 C88.8966789,223.479817 88.7432066,224.25051 88.4989481,224.979614 L64.3780319,326.002 L58.0660319,329.398 L58.0660319,322.639 C58.0660319,322.639 70.7352169,230.138598 70.9572169,222.117598 L70.9572169,222.1326 C70.956335,221.644726 70.9942999,221.16583 71.0681951,220.69884 L62.08956,133.550305 C61.1390508,131.085907 60.6159026,128.408823 60.6110954,125.6097 C60.5891319,113.3607 70.5011319,103.4127 82.7501319,103.391667 Z" opacity="1.00"></path><path id="shadow--globalStyle1/people/womandress/body/3" fill="#000" fill-opacity=".04" d="M61.5716319,128.5161 L104.115507,130.589899 L88.9459065,222.681781 C88.8965301,223.481069 88.7428429,224.252168 88.4982769,224.981616 L64.3780319,326.002 L58.0660319,329.398 L58.0660319,322.639 C58.0660319,322.639 70.7352169,230.138598 70.9572169,222.117598 L70.9572169,222.1326 C70.9563354,221.644899 70.994273,221.166169 71.0681166,220.699336 L61.5716319,128.5161 Z"></path><path id="Fill-15--globalStyle1/people/womandress/body/3" fill="#E9E9E9" d="M57.4564319,307.4463 L57.4564319,332.9123 L84.2154319,332.8943 C84.1374319,331.2553 83.9794319,330.3263 80.7954319,330.2633 C76.0184319,330.1713 64.4994319,330.6903 64.4964319,326.1303 C64.4954319,325.1573 66.3764319,319.3993 68.8694319,308.7823 L57.4564319,307.4463 Z"></path><path id="shadow--globalStyle1/people/womandress/body/3" fill="#000" fill-opacity=".04" d="M57.4564319,307.4463 L57.4564319,332.9123 L84.2154319,332.8943 C84.1374319,331.2553 83.9794319,330.3263 80.7954319,330.2633 C76.0184319,330.1713 64.4994319,330.6903 64.4964319,326.1303 C64.4954319,325.1573 66.3764319,319.3993 68.8694319,308.7823 L57.4564319,307.4463 Z"></path><path id="[clothes]shoes--globalStyle1/people/womandress/body/3" fill="#b5c7fc" d="M57.4564319,334.7236 L84.2154319,334.7236 L84.2154319,332.8396 C84.2154319,332.8396 74.9774319,332.8246 57.4564319,332.8396 L57.4564319,334.7236 Z" opacity="1.00"></path><polygon id="[clothes]shoes--globalStyle1/people/womandress/body/3" fill="#b5c7fc" points="1.00773193 330.7891 10.1027319 332.8021 24.1777319 332.8891 24.1777319 334.7236 10.1027319 334.7236 0.735998182 332.75635" opacity="1.00"></polygon><path id="Fill-21--globalStyle1/people/womandress/body/3" fill="#E9E9E9" d="M9.67513193,306.04 C3.14413193,321.881 0.295131933,330.53 1.14713193,331.021 C2.01713193,331.522 8.31113193,332.452 10.1021319,332.802 C11.7791319,333.13 19.7081319,333.98 24.1481319,332.889 C24.1481319,332.889 24.4841319,329.344 23.4221319,329.063 C21.8291319,328.644 16.6681319,328.762 14.5291319,328.566 C12.0701319,328.342 7.60513193,325.067 8.74713193,325.726 C8.74713193,325.726 13.8251319,319.416 20.6381319,307.796 L9.67513193,306.04 Z"></path><path id="Fill-5--globalStyle1/people/womandress/body/3" fill="#F6F6F6" d="M59.2393534,1.09139372 C38.7929507,0.598171243 33.6344947,12.1207771 30.5399103,26.0102985 C26.7868546,42.8552574 28.0257168,62.7044683 33.8001941,62.7044683 C39.0772075,62.7044683 34.3999173,106.955241 37.5647673,112.247345 C49.3062237,131.873069 104.081511,127.9795 106.616131,114.04868 C107.548688,108.923724 107.09474,121.924726 105.056084,40.2661168 C110.515149,26.1907576 112.560366,18.1737828 111.191733,16.2151925 C104.677801,6.89338956 94.1226593,1.68472621 79.5263093,0.589202434 L77.7202277,6.31155586 C65.3996448,2.83144776 59.2393534,1.09139372 59.2393534,1.09139372 Z"></path><path id="Fill-12-Copy-2--globalStyle1/people/womandress/body/3" fill="#F6F6F6" d="M36.2113398,62.7044683 C46.0513928,68.3651337 65.6056322,64.8270487 68.0039285,52.4544743 C70.4022249,40.0818999 66.7647891,6.24851881 43.323431,11.4432567 C28.3987894,14.750642 26.3712868,57.0438029 36.2113398,62.7044683 Z"></path><mask id="mask-2--globalStyle1/people/womandress/body/3" fill="#fff"><use xlink:href="#path-1--globalStyle1/people/womandress/body/3"></use></mask><use id="[clothes]dress--globalStyle1/people/womandress/body/3" fill="#b5c7fc" xlink:href="#path-1--globalStyle1/people/womandress/body/3" opacity="1.00"></use><path id="Combined-Shape--globalStyle1/people/womandress/body/3" fill="#5BE8CB" d="M136.207217,224.4811 L136.207217,226.119217 L5.70721687,226.119217 L5.70721687,224.4811 L136.207217,224.4811 Z M136.207217,218.6016 L136.207217,220.239717 L5.70721687,220.239717 L5.70721687,218.6016 L136.207217,218.6016 Z" mask="url(#mask-2--globalStyle1/people/womandress/body/3)"></path><path id="[skin]hand--globalStyle1/people/womandress/body/3" fill="#f0a19e" d="M58.493879,19.2206408 L58.493879,80.4168741 C58.493879,80.9591305 58.4762988,81.4769571 58.4422817,81.9712055 C58.4763343,82.2838437 58.4939704,82.602638 58.4939704,82.9255543 C58.4939704,87.7180414 54.6093796,91.6026321 49.8168925,91.6026321 C46.8089706,91.6026321 44.1586898,90.0724029 42.6020049,87.7478992 C42.3646683,87.4388772 42.1786723,87.1244413 42.0531,86.8105104 C42.0496547,86.8018973 42.0462119,86.7932447 42.0427715,86.7845527 C41.5391313,85.7711787 41.2277802,84.6467394 41.1558597,83.4576537 C38.4333722,69.652594 37.5647673,29.3739106 37.5647673,19.2206408 L37.5647673,19.2206408 L58.493879,19.2206408 Z" mask="url(#mask-2--globalStyle1/people/womandress/body/3)" opacity="1.00"></path><path id="[skin]hand--globalStyle1/people/womandress/body/3" fill="#f0a19e" d="M62.3590492,71.1358115 L62.3621204,71.1169647 C94.718487,72.458715 110.578359,72.4970768 114.246479,73.5812548 C121.01186,75.5806362 122.378271,86.4388574 113.505731,89.0538547 C105.586755,91.3875319 86.7584098,85.4907725 61.2341002,77.4201767 L61.2419064,77.3783743 C60.8428123,77.3595172 60.4405915,77.265082 60.0553877,77.0876163 C58.4533251,76.3468679 57.7527653,74.4479579 58.4926003,72.8449819 C59.1754102,71.3655606 60.845502,70.6555813 62.3590492,71.1358115 Z" mask="url(#mask-2--globalStyle1/people/womandress/body/3)" opacity="1.00"></path><path id="shadow--globalStyle1/people/womandress/body/3" fill="#000" fill-opacity=".04" d="M62.3590492,71.1358115 L62.3621204,71.1169647 C94.718487,72.458715 110.578359,72.4970768 114.246479,73.5812548 C121.01186,75.5806362 122.378271,86.4388574 113.505731,89.0538547 C105.586755,91.3875319 86.7584098,85.4907725 61.2341002,77.4201767 L61.2419064,77.3783743 C60.8428123,77.3595172 60.4405915,77.265082 60.0553877,77.0876163 C58.4533251,76.3468679 57.7527653,74.4479579 58.4926003,72.8449819 C59.1754102,71.3655606 60.845502,70.6555813 62.3590492,71.1358115 Z" mask="url(#mask-2--globalStyle1/people/womandress/body/3)"></path><path id="[skin]hand--globalStyle1/people/womandress/body/3" fill="#f0a19e" d="M61.0614721,77.3868385 L62.2890502,71.1028074 L56.390464,67.6027482 L51.7413771,64.228735 L45.5605575,63.2322411 C45.0673341,63.1655646 45.0298857,63.4404909 45.0938221,63.4898133 C46.4337455,64.5201021 47.6878116,65.0398134 49.539226,65.3330073 C50.6690729,66.8811807 52.8648303,67.1013044 51.234453,67.7790299 C50.6462385,68.0238148 49.4086132,67.7762897 46.4757609,66.4217522 C46.0729618,66.2363368 43.3118243,65.3932901 43.0752597,65.2672442 C41.715242,64.5420231 40.8849826,63.7711333 40.0181882,63.1125887 C39.7523956,62.9098191 39.3340691,62.7755528 38.7622954,62.7088763 C38.6810048,62.6988291 38.6006277,62.7061361 38.5321244,62.7289706 C38.346709,62.7919935 38.3010402,62.9536612 38.4289129,63.0915811 C38.7175399,63.4012157 39.0445287,63.7272912 39.4107927,64.0688941 C39.9460314,64.5675977 40.4018064,65.290992 42.1454423,66.3687764 C42.1454423,66.3687764 46.0510407,68.3261425 46.1843937,68.4677158 C46.3899035,68.688753 43.3364854,67.8246987 41.3946468,66.959731 C40.2410521,66.4455 40.4127669,66.1961482 38.9394904,64.9959713 C38.7367208,64.8306501 37.5073159,64.483567 37.6096141,64.7776743 C37.6872511,65.0005382 38.0754361,65.616154 38.5083767,66.045441 C39.9387244,67.4657417 40.0309755,67.4986232 40.9553126,67.9096427 C42.1070805,68.4202202 44.3978291,69.5235792 44.9348945,69.8158597 C45.47196,70.1081402 42.8030735,69.5427601 40.519632,68.6376039 C40.1561081,68.4942038 39.6510108,67.8438796 39.0490956,67.5123239 C38.7522482,67.3479161 37.4068445,66.7039856 37.8260843,67.3296486 C38.0105864,67.6045749 39.5240514,69.2632669 39.9451181,69.4870441 C42.103427,70.6351585 43.7365444,70.9959423 43.8918184,71.1767909 C44.0470925,71.3576394 42.0860729,70.8269676 40.3707516,70.2277926 C40.1159195,70.1382817 39.416273,69.3326835 38.8554598,69.0860718 C38.5522187,68.9527188 38.0626489,68.6741389 38.0526017,68.9463252 C38.0297673,69.5509805 40.1113526,71.2306801 40.3460904,71.3548993 C42.1993316,72.3303855 43.602278,72.9724893 44.9997443,73.4976809 C46.4319188,74.0365731 49.1620015,75.3353946 52.9461208,76.194882 L61.0614721,77.3868385 Z" opacity="1.00"></path><path id="shadow--globalStyle1/people/womandress/body/3" fill="#000" fill-opacity=".04" d="M61.0614721,77.3868385 L62.2890502,71.1028074 L56.390464,67.6027482 L51.7413771,64.228735 L45.5605575,63.2322411 C45.0673341,63.1655646 45.0298857,63.4404909 45.0938221,63.4898133 C46.4337455,64.5201021 47.6878116,65.0398134 49.539226,65.3330073 C50.6690729,66.8811807 52.8648303,67.1013044 51.234453,67.7790299 C50.6462385,68.0238148 49.4086132,67.7762897 46.4757609,66.4217522 C46.0729618,66.2363368 43.3118243,65.3932901 43.0752597,65.2672442 C41.715242,64.5420231 40.8849826,63.7711333 40.0181882,63.1125887 C39.7523956,62.9098191 39.3340691,62.7755528 38.7622954,62.7088763 C38.6810048,62.6988291 38.6006277,62.7061361 38.5321244,62.7289706 C38.346709,62.7919935 38.3010402,62.9536612 38.4289129,63.0915811 C38.7175399,63.4012157 39.0445287,63.7272912 39.4107927,64.0688941 C39.9460314,64.5675977 40.4018064,65.290992 42.1454423,66.3687764 C42.1454423,66.3687764 46.0510407,68.3261425 46.1843937,68.4677158 C46.3899035,68.688753 43.3364854,67.8246987 41.3946468,66.959731 C40.2410521,66.4455 40.4127669,66.1961482 38.9394904,64.9959713 C38.7367208,64.8306501 37.5073159,64.483567 37.6096141,64.7776743 C37.6872511,65.0005382 38.0754361,65.616154 38.5083767,66.045441 C39.9387244,67.4657417 40.0309755,67.4986232 40.9553126,67.9096427 C42.1070805,68.4202202 44.3978291,69.5235792 44.9348945,69.8158597 C45.47196,70.1081402 42.8030735,69.5427601 40.519632,68.6376039 C40.1561081,68.4942038 39.6510108,67.8438796 39.0490956,67.5123239 C38.7522482,67.3479161 37.4068445,66.7039856 37.8260843,67.3296486 C38.0105864,67.6045749 39.5240514,69.2632669 39.9451181,69.4870441 C42.103427,70.6351585 43.7365444,70.9959423 43.8918184,71.1767909 C44.0470925,71.3576394 42.0860729,70.8269676 40.3707516,70.2277926 C40.1159195,70.1382817 39.416273,69.3326835 38.8554598,69.0860718 C38.5522187,68.9527188 38.0626489,68.6741389 38.0526017,68.9463252 C38.0297673,69.5509805 40.1113526,71.2306801 40.3460904,71.3548993 C42.1993316,72.3303855 43.602278,72.9724893 44.9997443,73.4976809 C46.4319188,74.0365731 49.1620015,75.3353946 52.9461208,76.194882 L61.0614721,77.3868385 Z"></path><path id="[skin]hand--globalStyle1/people/womandress/body/3" fill="#f0a19e" d="M116.114243,71.7094721 C114.955168,72.6876985 113.860943,73.1653944 112.236046,73.401959 C111.27426,74.8971565 109.344295,75.0515172 110.794737,75.766691 C111.318102,76.0251766 112.403194,75.8169268 114.958821,74.563774 C115.309558,74.3920592 117.962917,73.6175159 118.730153,73.0146873 C119.282746,72.5808334 119.610649,73.5435324 119.317455,73.9929137 C118.954844,74.54916 118.773082,74.6350174 118.773082,74.6350174 C118.773082,74.6350174 115.373494,76.4544636 115.258409,76.5914701 C115.082127,76.8024601 117.118044,76.3439451 118.719193,75.3757659 C119.181362,75.0962726 119.175881,75.0277694 119.423406,74.9546992 C119.866394,74.8240864 119.952251,75.4935914 119.877355,75.8817765 C119.806111,76.2453004 119.659057,76.426149 119.355816,76.5996905 C118.393118,77.1504566 116.854991,77.6829552 116.388256,77.9569682 C115.92152,78.2300678 117.341821,77.9341338 119.335722,77.1075279 C119.652664,76.9760017 119.903842,76.884664 119.956818,77.4509575 C119.985133,77.7578521 119.838993,78.0757071 119.496476,78.3204921 C118.629682,78.9406748 117.46878,79.1553183 117.335427,79.3288598 C117.202988,79.5033148 118.686311,79.0950354 119.475469,78.824676 C119.699246,78.7479523 119.976913,78.7068504 119.99244,78.9753831 C120.025322,79.5727314 119.86274,79.9362553 119.659057,80.0513407 C118.046034,80.9610639 117.629535,81.1090309 116.410177,81.5867268 C115.158851,82.0781235 112.781332,83.2828672 109.464861,84.0227023 L101.844324,85.0115447 C101.842993,85.0117842 101.841662,85.0120229 101.84033,85.0122607 L100.775926,85.260403 C65.7508336,93.4273602 47.0035464,94.6456285 43.0646646,88.3692789 C37.0966618,78.8592016 46.9319012,76.3090541 52.6679063,76.1939686 C57.992892,76.0880169 69.1981963,79.0336565 100.78276,78.7066677 C100.781019,78.7065537 100.782355,78.7063464 100.78369,78.7061399 L106.248862,75.4460959 L110.272286,72.2492777 L115.69683,71.4418528 C116.130684,71.3897903 116.169045,71.6628899 116.114243,71.7094721 Z" opacity="1.00"></path></g></g></svg></g>
</g>
</g></g><g transform="translate(881,65)">
<g transform="translate(74.5,86)">

<g><svg xmlns="http://www.w3.org/2000/svg" width="120" height="150" viewBox="0 0 120 150"><g id="Symbols--globalStyle1/sittingpeople/mansitting/head/7" fill="none" fill-rule="evenodd" stroke="none" stroke-width="1"><g id="globalStyle1/sittingpeople/mansitting/head/7--globalStyle1/sittingpeople/mansitting/head/7"><polygon id="[skin]neck--globalStyle1/sittingpeople/mansitting/head/7" fill="#f0a19e" points="69.0765532 92.0485 88.5735532 92.0485 85.8989543 40.509 74.5815532 37.4535" opacity="1.00"></polygon><polygon id="shadow--globalStyle1/sittingpeople/mansitting/head/7" fill="#000" fill-opacity=".04" points="69.0765532 92.0485 88.5735532 92.0485 85.8989543 40.509 74.5815532 37.4535"></polygon><path id="[skin]face--globalStyle1/sittingpeople/mansitting/head/7" fill="#f0a19e" d="M80.6841,52.0354 C85.7561,53.3414 91.3721,45.8074 93.2281,35.2094 C95.0841,24.6094 92.4771,14.9594 87.4041,13.6534 C82.3321,12.3474 76.7161,19.8814 74.8601,30.4794 C73.0041,41.0784 75.6111,50.7284 80.6841,52.0354" opacity="1.00"></path><path id="[hair]hair--globalStyle1/sittingpeople/mansitting/head/7" fill="#ffdd38" d="M73.9756,35.8665 L76.6746,32.3365 C78.1286,25.3325 79.2126,21.6795 79.9246,21.3805 C83.3126,19.9515 90.1826,22.3305 92.7436,22.6545 C94.3196,22.8535 99.2466,19.2495 99.1116,16.4515 C99.0176,14.5125 95.9406,16.8385 93.1996,16.0435 C89.7766,15.0515 88.0346,8.1305 83.2026,8.5155 C73.6756,9.2755 70.6006,18.3925 73.9756,35.8665" opacity="1.00"></path><path id="hat--globalStyle1/sittingpeople/mansitting/head/7" fill="#B5C7FC" d="M76.1592954,9.89349181 C80.1828383,8.54467425 87.4152692,7.90157865 90.5848662,9.2076654 C93.2742212,10.3158602 94.0552948,12.1878307 92.928087,14.8235769 C87.7579171,19.6184403 83.9566887,22.7028345 81.5244019,24.0767595 C77.8759716,26.1376469 69.01182,28.2893045 67.5345869,24.0767595 C66.0573539,19.8642145 71.5260165,13.2182073 73.7308491,11.1293208 C73.7987797,11.0649625 73.8746938,11.0011678 73.9581528,10.9380119 C73.5056459,10.0826967 73.3774768,9.12132478 74.4228888,9.12132478 C75.1145797,9.12132478 75.5976379,9.50444672 75.9047089,9.98091895 Z" transform="rotate(-12 80.356 17.495)"></path><path id="shadow--globalStyle1/sittingpeople/mansitting/head/7" fill="#000" fill-opacity=".2" d="M75.0172406,12.629275 C75.0172406,11.866667 74.4626887,10.3986978 73.1087407,10.3986978 C71.7547927,10.3986978 72.369375,12.0112749 73.1087407,12.9186001 C73.8481064,13.8259253 75.0172406,13.391883 75.0172406,12.629275 Z" transform="rotate(-12 73.662 11.914)"></path><path id="smile--globalStyle1/sittingpeople/mansitting/head/7" fill="#FFF" d="M89.3697,43.9573 C89.9927,43.9783 91.2827,43.6063 91.3327,42.1223 L87.5357,41.9933 C87.4887,43.3683 88.7467,43.9363 89.3697,43.9573"></path></g></g></svg></g>
</g>
<g transform="translate(59,248)">

<g><svg xmlns="http://www.w3.org/2000/svg" width="251" height="180" viewBox="0 0 251 180"><g id="Symbols--globalStyle1/sittingpeople/mansitting/bottom/1" fill="none" fill-rule="evenodd" stroke="none" stroke-width="1"><g id="globalStyle1/sittingpeople/mansitting/bottom/1--globalStyle1/sittingpeople/mansitting/bottom/1"><path id="[clothes]shoes--globalStyle1/sittingpeople/mansitting/bottom/1" fill="#dcdbdb" d="M216.521486,178.790735 L216.521486,176.686761 C216.521486,176.686761 206.584974,176.678602 186.596707,176.695939 L186.596707,178.787675" opacity="1.00"></path><path id="Fill-6--globalStyle1/sittingpeople/mansitting/bottom/1" fill="#E9E9E9" d="M205.915916,150.770389 L206.32896,176.718728 L236.253739,176.709549 C236.253739,176.709549 235.233878,174.649429 231.601131,174.581098 C226.15099,174.478092 213.167132,175.046155 213.684202,171.579645 C213.843301,170.51185 214.253285,164.903631 215.074273,151.740278"></path><path id="shadow--globalStyle1/sittingpeople/mansitting/bottom/1" fill="#000" fill-opacity=".04" d="M205.915916,150.770389 L206.32896,176.718728 L236.253739,176.709549 C236.253739,176.709549 235.233878,174.649429 231.601131,174.581098 C226.15099,174.478092 213.167132,175.046155 213.684202,171.579645 C213.843301,170.51185 214.253285,164.903631 215.074273,151.740278"></path><path id="[clothes]shoes--globalStyle1/sittingpeople/mansitting/bottom/1" fill="#dcdbdb" d="M236.253841,178.813626 L236.253841,176.709651 C236.253841,176.709651 226.31733,176.701492 206.329062,176.71883 L206.329062,178.810566" opacity="1.00"></path><path id="[clothes]pants--globalStyle1/sittingpeople/mansitting/bottom/1" fill="#dcdbdb" d="M85.0808907,23.3799252 L205.999616,44.4069112 C205.999616,44.4069112 216.002739,46.0537877 219.114105,55.5243852 C220.049362,57.3666388 220.6591,59.3928076 220.870221,61.5322113 C220.948203,61.9567755 220.994845,62.3165167 221.017239,62.5944731 C223.14875,89.1047555 224.083963,162.141124 224.083963,162.141124 L193.283123,161.903496 L187.3115,77.7038528 L96.8924223,70.1284422 C96.8924223,70.1284422 76.7578384,67.9815919 73.9853208,46.5228786 C70.4393926,19.0702099 85.0808907,23.3799252 85.0808907,23.3799252 Z" opacity="1.00"></path><path id="Fill-1--globalStyle1/sittingpeople/mansitting/bottom/1" fill="#E9E9E9" d="M186.184071,150.747499 L186.596095,176.695837 L216.521894,176.686659 C216.521894,176.686659 215.502032,174.626538 211.869285,174.558207 C206.419145,174.454182 193.435287,175.023264 193.952356,171.556755 C194.111455,170.48794 194.521439,164.880741 195.341408,151.717387"></path><path id="shadow--globalStyle1/sittingpeople/mansitting/bottom/1" fill="#000" fill-opacity=".04" d="M85.0808907,23.3799252 L205.999616,44.4069112 C205.999616,44.4069112 217.425196,46.2879757 219.652537,57.5902666 C220.581705,59.7433338 220.940785,61.6455255 221.017239,62.5944731 C223.14875,89.1047555 224.083963,162.141124 224.083963,162.141124 L193.283123,161.903496 L187.3115,77.7038528 L96.8924223,70.1284422 C96.8924223,70.1284422 76.7578384,67.9815919 73.9853208,46.5228786 C70.4393926,19.0702099 85.0808907,23.3799252 85.0808907,23.3799252 Z"></path><path id="[clothes]pants--globalStyle1/sittingpeople/mansitting/bottom/1" fill="#dcdbdb" d="M70.0905368,25.3733593 L191.009492,46.3993516 C191.009492,46.3993516 204.421785,48.6083277 205.01568,62.6150344 C205.132039,63.2092511 205.194674,63.7029239 205.218869,64.0607927 C207.016885,90.5955518 208.101351,163.020497 208.101351,163.020497 L173.990682,163.020497 L171.145667,79.5990293 L81.9020685,72.1218763 C81.9020685,72.1218763 60.3694268,70.1096617 58.994967,48.5163127 C57.1659672,19.779047 70.0905368,25.3733593 70.0905368,25.3733593 Z" opacity="1.00"></path></g></g></svg></g>
</g>
<g transform="translate(108,142)">

<g><svg xmlns="http://www.w3.org/2000/svg" width="193" height="178" viewBox="0 0 193 178"><g id="Symbols--globalStyle1/sittingpeople/mansitting/top/5" fill="none" fill-rule="evenodd" stroke="none" stroke-width="1"><g id="globalStyle1/sittingpeople/mansitting/top/5--globalStyle1/sittingpeople/mansitting/top/5"><path id="Path-5--globalStyle1/sittingpeople/mansitting/top/5" fill="#E9E9E9" d="M36.9237045,16.0947202 C27.5943782,17.2387932 21.0040669,19.200982 17.1527706,21.9812867 C11.375826,26.1517437 7.73907195,34.1797408 6.66519749,37.1969321 C5.59132304,40.2141234 3.33617059,45.0272884 0.473955687,34.7687656 C-2.38825922,24.5102427 7.5068119,16.0881201 12.3297912,12.438664 C15.5451108,10.0056933 23.7430819,11.2243787 36.9237045,16.0947202 Z"></path><path id="shadow--globalStyle1/sittingpeople/mansitting/top/5" fill="#000" fill-opacity=".2" d="M37.3017207,16.24048 C27.8685602,13.6174998 21.8251526,12.2276123 19.171498,12.0708172 C15.1910161,11.8356246 13.5992644,12.2502061 13.0803802,12.3865888 C12.561496,12.5229715 14.2902293,16.1295893 26.1451147,16.8113553 C34.0483716,17.265866 37.7672402,17.0755742 37.3017207,16.24048 Z"></path><g id="mac2--globalStyle1/sittingpeople/mansitting/top/5" transform="translate(77 136)"><polygon id="Fill-18--globalStyle1/sittingpeople/mansitting/top/5" fill="#888889" points="-2.80664381e-13 17.2667239 0.00328841958 19.2331988 51.9997789 21.7455514 51.9997789 19.9270554"></polygon><polygon id="Fill-20--globalStyle1/sittingpeople/mansitting/top/5" fill="#C7C7C9" points="51.9997789 19.9267265 -9.9475983e-14 17.2663951 39.9696439 -1.43884904e-13 79.4712361 2.0267626"></polygon><polygon id="Fill-22--globalStyle1/sittingpeople/mansitting/top/5" fill="#B4B4B5" points="52.8705524 18.204362 26.557715 16.9492818 55.9287826 2.12179793 76.7674975 3.18834201"></polygon><polyline id="Fill-24--globalStyle1/sittingpeople/mansitting/top/5" fill="#939396" points="51.9966001 19.9267265 51.9998885 21.7452226 79.473538 3.605204 79.4713457 2.0267626"></polyline><polygon id="Fill-26--globalStyle1/sittingpeople/mansitting/top/5" fill="#B4B4B5" points="32.2751805 10.4565166 21.8837746 9.942427 31.3007122 5.85492146 40.9730503 6.33393457"></polygon></g><path id="[skin]hand--globalStyle1/sittingpeople/mansitting/top/5" fill="#f0a19e" d="M109.536937,126.000007 C110.057442,125.999102 110.557703,126.085407 111.023758,126.245088 L111.027887,126.236941 L118.708961,127.554906 C123.588045,128.840113 126.241985,130.075091 127.999947,130.606863 C131.209899,131.579777 138.064084,134.605528 138.73415,135.291263 C139.404215,135.975906 138.96116,136.485839 137.385246,135.838322 C136.594547,135.514018 136.29077,135.34586 135.812622,135.200632 C135.449624,135.090347 133.576512,134.377314 133.096171,134.244098 C130.993855,133.661005 129.30608,133.086647 129.505674,133.289747 C129.705268,133.493939 132.690403,134.186225 134.929802,135.092531 C135.459494,135.308734 136.742597,136.189925 137.062825,136.423599 C138.422695,137.415076 139.372411,138.28644 139.911973,139.037691 C140.119243,139.325961 139.948163,139.642622 139.528138,139.74308 C139.438211,139.764919 139.339511,139.774746 139.238618,139.773654 C138.543329,139.763827 137.301899,138.45023 136.153686,137.777598 C135.770948,137.553751 134.948446,137.052553 134.521841,136.860373 C131.770297,135.622119 127.695073,134.686331 128.360751,134.994257 C129.027526,135.302182 131.511483,136.322049 132.930574,136.842902 C134.068917,137.262205 134.581061,137.416168 136.522167,139.04315 C137.68683,140.017156 139.528138,142.019764 139.540202,142.263265 C139.551168,142.505675 139.098244,142.502399 139.052184,142.492572 C138.197878,142.292748 137.642963,142.102751 137.386343,141.920398 C135.528584,140.602433 134.539388,139.093379 132.098201,138.354139 C129.655918,137.6149 126.70478,136.450897 126.967981,136.697675 C127.139061,136.858189 128.898119,137.729553 130.325983,138.421839 C132.431589,139.441706 134.743369,140.871049 135.423304,141.425751 C135.889388,141.805745 136.306123,142.169359 136.675701,142.515502 C136.840201,142.670557 136.797431,142.867105 136.579194,142.956644 C136.500233,142.989402 136.404823,143.003597 136.305026,142.999229 C135.615221,142.962103 135.103076,142.834347 134.768592,142.613776 C133.680696,141.894191 133.459168,141.69 131.773587,140.931105 C131.480776,140.798981 129.053846,139.876296 128.570215,139.653542 C125.168346,138.084432 121.437475,137.324445 121.249945,137.487143 C119.64113,138.861889 121.718223,138.936141 123.189953,140.695247 C125.43045,140.903807 126.974561,141.427935 128.659045,142.552628 C128.739102,142.607225 128.714975,142.938081 128.119484,142.896587 L128.119484,142.896587 L120.636906,142.183554 L112.962412,136.208488 L107.811354,134.807536 L107.842914,134.72225 C106.178612,134.052832 105.003343,132.430485 105.000007,130.533727 C104.995627,128.034288 107.02666,126.004382 109.536937,126.000007 Z" opacity="1.00"></path><path id="shadow--globalStyle1/sittingpeople/mansitting/top/5" fill="#000" fill-opacity=".04" d="M111.041884,126.172383 L107.826905,134.775985 L112.975474,136.182332 L120.646261,142.18041 L128.125223,142.896189 C128.720427,142.937842 128.744542,142.605712 128.664524,142.550905 C126.980853,141.421881 125.437488,140.895734 123.198075,140.686371 C121.727055,138.92049 119.650966,138.845952 121.259003,137.465912 C121.446443,137.302587 125.175511,138.065501 128.575737,139.640654 C129.059135,139.864266 131.484892,140.790504 131.777561,140.923137 C133.462328,141.684955 133.683749,141.889933 134.771119,142.612289 C135.105442,142.833709 135.617339,142.961957 136.306811,142.999226 C136.40656,143.003611 136.501924,142.989361 136.580846,142.956477 C136.798978,142.866593 136.841728,142.669288 136.677307,142.513636 C136.307907,142.16616 135.891374,141.801145 135.425515,141.419689 C134.745908,140.86285 132.435245,139.428003 130.330657,138.404208 C128.903483,137.709255 127.145274,136.834536 126.974277,136.673403 C126.711203,136.425676 129.660915,137.594161 132.102019,138.336247 C134.542026,139.078334 135.530744,140.593199 137.387605,141.91624 C137.644102,142.099295 138.198749,142.290024 139.052642,142.490617 C139.09868,142.500483 139.551385,142.503771 139.540424,142.260428 C139.528366,142.015989 137.687948,140.005668 136.523847,139.027912 C134.583679,137.394663 134.071782,137.240107 132.933989,136.81919 C131.515584,136.296331 129.032827,135.272536 128.366374,134.963425 C127.701017,134.654313 131.774273,135.593705 134.524488,136.836728 C134.950886,137.029649 135.772991,137.532777 136.155544,137.757485 C137.303202,138.432708 138.544033,139.751364 139.238985,139.761229 C139.33983,139.762325 139.438483,139.75246 139.528366,139.730537 C139.948188,139.629692 140.119186,139.311812 139.912015,139.022431 C139.372715,138.268287 138.423457,137.393567 137.064244,136.398272 C136.744171,136.163698 135.461687,135.279113 134.932252,135.062078 C132.693934,134.152281 129.710242,133.457329 129.510744,133.252351 C129.311247,133.048469 130.998206,133.625038 133.099506,134.210377 C133.579615,134.344106 135.451822,135.059885 135.814645,135.170595 C136.292562,135.316382 136.596192,135.485188 137.386509,135.810741 C138.961662,136.460752 139.404503,135.948855 138.734761,135.261575 C138.06502,134.573199 131.214146,131.535796 128.005744,130.559135 C126.248632,130.025315 123.595973,128.785581 118.719247,127.495424 L111.041884,126.172383 Z"></path><path id="2--globalStyle1/sittingpeople/mansitting/top/5" fill="#E9E9E9" d="M58.2387556,18.858093 C65.1520763,18.1353504 72.7179669,22.5813013 72.4135036,30.7077938 C71.7580119,48.1583404 68.0103097,98.6870996 67.4381247,101.354008 C67.4073911,101.497223 67.3763786,101.639311 67.3450913,101.780279 C76.6055717,106.044437 92.6699805,114.159627 114.09477,125.95325 L114.09477,125.95325 L109.664173,137.947212 C77.2579463,130.915642 57.1875284,123.63262 48.9372901,116.626163 C47.585765,115.801065 46.4002439,114.644669 45.5079834,113.187386 C43.3398576,109.646298 43.4960661,105.294714 45.5557425,101.992008 C43.8999992,81.6391556 46.6142902,41.2726347 47.3469772,30.1301281 C47.7873608,25.9337598 56.2164386,34.8741986 58.7258906,33.0346104 C59.8743478,32.1927181 60.2588461,26.4792618 59.6699207,22.580278 C59.3429083,20.4152906 57.4582275,18.9396921 58.2387556,18.858093 Z"></path><path id="shadow--globalStyle1/sittingpeople/mansitting/top/5" fill="#000" fill-opacity=".04" d="M58.2387556,18.858093 C65.1520763,18.1353504 72.7179669,22.5813013 72.4135036,30.7077938 C71.7580119,48.1583404 68.0103097,98.6870996 67.4381247,101.354008 C67.4073911,101.497223 67.3763786,101.639311 67.3450913,101.780279 C76.6055717,106.044437 92.6699805,114.159627 114.09477,125.95325 L114.09477,125.95325 L109.664173,137.947212 C77.2579463,130.915642 57.1875284,123.63262 48.9372901,116.626163 C47.585765,115.801065 46.4002439,114.644669 45.5079834,113.187386 C43.3398576,109.646298 43.4960661,105.294714 45.5557425,101.992008 C43.8999992,81.6391556 46.6142902,41.2726347 47.3469772,30.1301281 C47.7873608,25.9337598 56.2164386,34.8741986 58.7258906,33.0346104 C59.8743478,32.1927181 60.2588461,26.4792618 59.6699207,22.580278 C59.3429083,20.4152906 57.4582275,18.9396921 58.2387556,18.858093 Z"></path><path id="[clothes]tshirt--globalStyle1/sittingpeople/mansitting/top/5" fill="#6b8fff" d="M36.7247243,16.0965783 C-3.50032021,17.8591712 2.96252041,49.9475695 2.96252041,85.8987647 C2.96252041,95.5930256 1.17800472,134.733988 5.84317597,140.504068 C23.0909367,161.83495 57.6368806,154.36366 69.2537708,142.853096 C73.7271176,138.420306 74.1392553,146.627418 73.9748343,107.631147 C73.8816624,85.4211607 72.4223998,68.4023144 72.4223998,58.2724139 C72.4223998,49.7797907 71.6044062,19.8763486 57.0160602,17.5 C56.695021,17.4477048 54.2189474,18.7817803 51.234951,18.7817803 C48.2509547,18.7817803 38.0806493,16.0373868 36.7247243,16.0965783 Z" opacity="1.00"></path><path id="[skin]hand--globalStyle1/sittingpeople/mansitting/top/5" fill="#f0a19e" d="M76.0044578,142.946925 L85.575951,148.343222 L95.3918835,148.122898 L101.816359,150.921343 C102.32168,151.158109 102.191239,151.446394 102.101356,151.455163 C100.218187,151.633834 98.7230525,151.371856 96.8015193,150.528925 C94.8043525,151.334588 93.0779322,150.454387 93.7674042,152.336459 C93.8485186,152.55788 97.2333984,153.615655 100.718027,153.843652 C101.213482,153.877632 103.609644,154.205378 103.907794,154.228397 C105.626541,154.356645 105.898384,154.287588 107.111811,154.177974 C107.484498,154.14509 107.959127,154.27005 108.538985,154.55395 C108.621195,154.594507 108.692445,154.650411 108.742867,154.712891 C108.880981,154.886081 108.826174,155.071328 108.622292,155.126135 C108.164105,155.249999 107.659881,155.363998 107.108522,155.471419 C106.30286,155.627071 103.770777,155.77505 101.592747,155.674205 C100.116246,155.606245 98.2856927,155.538284 98.0741377,155.594187 C97.747488,155.681878 100.681854,156.046893 103.006767,156.534675 C105.332776,157.02465 106.821334,156.209121 108.933595,155.947144 C109.224072,155.910971 109.763373,156.004143 110.550402,156.224467 C110.592055,156.236525 110.963646,156.440407 110.844167,156.638808 C110.723592,156.83721 108.317565,157.677949 106.926563,157.96733 C104.608227,158.449631 104.120445,158.346594 103.002383,158.178885 C101.609189,157.971714 99.1220474,157.699872 98.4402484,157.65493 C97.7584494,157.611084 101.503959,158.676532 104.307885,158.888087 C104.744149,158.920972 105.640791,158.873837 106.054036,158.860684 C107.29377,158.817934 108.900711,158.280826 109.472896,158.587745 C109.555107,158.632687 109.63074,158.685301 109.695413,158.745589 C109.992466,159.019624 109.989178,159.363812 109.688836,159.510695 C108.90948,159.89544 107.740995,160.19359 106.18338,160.408433 C105.816174,160.458856 104.371461,160.614508 103.842026,160.55422 C101.6059,160.296627 98.8578777,159.522752 98.6035733,159.602771 C98.3481727,159.682789 99.9847095,159.967785 101.963242,160.433645 C102.413755,160.53997 104.265136,160.792082 104.61042,160.865524 C105.066414,160.960888 105.390871,160.958696 106.181188,161.045291 C107.75963,161.217385 107.89007,161.845473 107.033985,162.116219 C106.176804,162.38587 99.2196039,161.810396 96.1613737,161.168058 C94.4875681,160.816197 91.1311878,160.409529 87.0469707,158.936317 L71.0520979,152.21698 L76.0044578,142.946925 Z" opacity="1.00"></path><path id="Combined-Shape--globalStyle1/sittingpeople/mansitting/top/5" fill="#E9E9E9" d="M8.03999067,33.3426948 C11.0650589,20.2361505 28.9250803,19.096165 33.8914055,32.9250655 C38.1048803,44.6549282 41.7935759,91.4775099 42.2406958,108.178655 C46.2901298,111.71017 52.2653319,114.542742 82.5293814,144.93061 L82.5293814,144.93061 L76.970847,156.15837 C43.8691216,138.061609 28.8497658,127.613544 23.5938554,119.863948 C23.4005644,119.675261 23.2256755,119.482415 23.0727279,119.287733 C16.118272,110.4375 5.01606567,46.4492391 8.03999067,33.3426948 Z"></path><path id="shadow--globalStyle1/sittingpeople/mansitting/top/5" fill="#000" fill-opacity=".04" d="M8.03999067,33.3426948 C11.0650589,20.2361505 28.9250803,19.096165 33.8914055,32.9250655 C38.1048803,44.6549282 41.7935759,91.4775099 42.2406958,108.178655 C46.2901298,111.71017 52.2653319,114.542742 82.5293814,144.93061 L82.5293814,144.93061 L76.970847,156.15837 C43.8691216,138.061609 28.8497658,127.613544 23.5938554,119.863948 C23.4005644,119.675261 23.2256755,119.482415 23.0727279,119.287733 C16.118272,110.4375 5.01606567,46.4492391 8.03999067,33.3426948 Z"></path><g id="mac--globalStyle1/sittingpeople/mansitting/top/5" transform="translate(128.022 97.794)"><polygon id="Fill-35--globalStyle1/sittingpeople/mansitting/top/5" fill="#9F9FA0" points="-4.61852778e-14 58.3639669 27.4714572 40.464003 48.2685188 2.0250468e-13 20.486854 17.8309071"></polygon><path id="Fill-38--globalStyle1/sittingpeople/mansitting/top/5" fill="#BEBEBF" d="M27.0743257,30.9390957 C26.0461465,33.0875298 24.8612194,34.4807235 23.9689615,34.0543251 C23.0777998,33.6268306 23.1885099,31.5397803 24.2166891,29.3913462 C25.2459644,27.2440082 26.802483,25.847526 27.6936448,26.2750205 C28.5859026,26.7025151 28.1025049,28.7906615 27.0743257,30.9390957"></path></g></g></g></svg></g>
</g></g><g transform="translate(747,160)">
<g transform="translate(223,0) scale(-1, 1)">
<g><svg xmlns="http://www.w3.org/2000/svg" width="223" height="228" viewBox="0 0 223 228"><g id="Symbols--globalStyle1/animals/dashboard/5" fill="none" fill-rule="evenodd" stroke="none" stroke-width="1"><g id="globalStyle1/animals/dashboard/5--globalStyle1/animals/dashboard/5"><path id="[color]color-copy--globalStyle1/animals/dashboard/5" fill="#233a48" fill-rule="nonzero" d="M50.2380571,172.048836 C58.1588679,170.955052 58.9575165,180.755322 59.1172463,186.095322 C59.2573794,190.763279 59.4670839,198.39225 58.0502587,203.417649 C57.9427292,203.942011 57.7766222,204.4465 57.5580374,204.921888 L57.503393,205.077719 C56.9409074,206.63732 56.0518409,208.255066 54.8896787,209.834484 C51.7088679,214.158538 48.1429219,219.846376 43.214003,224.917187 C42.5109183,225.778713 41.435538,226.332359 40.2301381,226.334651 L40.2301381,226.334651 C38.0952758,226.33789 36.3617623,224.610863 36.3577037,222.475998 C36.3569245,221.962372 36.4562988,221.471977 36.6374103,221.023321 C37.6153125,217.41701 41.598202,212.608901 43.2367057,205.272052 C43.5849931,203.712585 43.9634564,202.04267 44.5136651,200.515045 C44.3869118,197.189752 44.3245975,192.60745 44.499949,186.798295 C44.6450841,182.008836 43.3777868,172.996673 50.2380571,172.048836 Z" opacity="1.00"></path><path id="shadow-copy--globalStyle1/animals/dashboard/5" fill="#000" fill-opacity=".08" d="M43.3146312,224.917187 C48.2435502,219.846376 51.8094961,214.158538 54.9903069,209.834484 C59.5227393,203.674754 59.901388,196.932052 52.9535502,195.329079 C45.9781447,193.718808 44.4919285,200.102322 43.3373339,205.272052 C41.1667934,214.991241 34.8821988,220.272863 36.9189556,224.203673 C38.0881447,226.46016 41.0816583,227.214214 43.3146312,224.917187"></path><path id="Fill-11-Copy-2--globalStyle1/animals/dashboard/5" fill="#E7E7E7" d="M40.3211111,227.799376 L33.7803003,227.811553 C31.5375976,227.815592 29.9475976,226.98289 29.6970571,224.753971 C29.5932733,223.830457 32.2503003,219.655592 37.1143544,219.662071 C37.1143544,219.662071 46.4443544,227.1337 40.3211111,227.799376"></path><path id="[color]color-copy-2--globalStyle1/animals/dashboard/5" fill="#233a48" fill-rule="nonzero" d="M83.9114354,188.352052 L93.6906246,193.997727 C101.022787,198.230971 103.558192,207.693944 99.324949,215.026106 C96.3217424,220.227791 90.686431,223.015692 85.0471373,222.684868 C85.1549186,225.237509 82.9099294,227.895439 76.2296517,227.882612 C71.3850571,227.872836 63.7099219,227.373376 63.7099219,227.373376 C60.8315436,226.95743 59.6931652,224.113106 60.5412733,221.809592 C61.2628949,219.850673 64.7793814,219.8077 71.0088409,219.570944 C71.2866539,219.560351 71.5658324,219.538915 71.8460441,219.50872 C70.622603,217.908764 69.0947545,216.102182 67.0176246,214.164052 C66.799022,213.960004 66.5749702,213.737635 66.3477418,213.498805 C63.4744895,211.096789 61.6453882,207.767278 61.0479408,204.211008 C60.6421998,202.559614 60.5629935,200.91928 60.990762,199.438035 C61.2624747,197.567325 61.8846266,195.717916 62.8838679,193.987187 C67.1163003,186.655025 76.5792733,184.118808 83.9114354,188.352052 Z" opacity="1.00"></path><path id="Fill-17-Copy-2--globalStyle1/animals/dashboard/5" fill="#DBDBDB" d="M66.4028679,227.987808 L59.8620571,227.999175 C57.6193544,228.003214 56.0293544,227.170511 55.7788138,224.941592 C55.67503,224.018079 58.3320571,219.843214 63.1961111,219.850502 C63.1961111,219.850502 72.5261111,227.321322 66.4028679,227.987808"></path><path id="Combined-Shape-Copy-5--globalStyle1/animals/dashboard/5" fill="#B9B6B4" fill-rule="nonzero" d="M59.9317051,222.911845 C60.0971016,222.85278 60.2790636,222.938979 60.3381286,223.104375 C60.3971936,223.269772 60.3109948,223.451734 60.1455982,223.510799 C58.1898631,224.209214 56.8219656,225.682807 56.6071433,227.618294 C56.5877692,227.792848 56.4305589,227.918647 56.2560042,227.899273 C56.0814496,227.879899 55.9556509,227.722689 55.9750249,227.548134 C56.2190829,225.349243 57.7626045,223.686455 59.9317051,222.911845 Z M58.6761958,221.753346 C58.8404797,221.691254 59.0239941,221.774096 59.0860868,221.93838 C59.1481796,222.102664 59.0653373,222.286178 58.9010534,222.348271 C57.0040557,223.06526 55.6906088,224.516535 55.480361,226.41155 C55.4609944,226.586106 55.3037896,226.711911 55.1292341,226.692545 C54.9546786,226.673178 54.8288731,226.515973 54.8482396,226.341418 C55.0871277,224.188261 56.5705191,222.549208 58.6761958,221.753346 Z"></path><path id="[color]color-copy-3--globalStyle1/animals/dashboard/5" fill="#233a48" fill-rule="nonzero" d="M54.8827057,159.121106 C54.8827057,159.121106 56.8651381,167.371106 62.9640571,169.84489 C77.3032463,175.659214 82.7178409,172.264349 93.0986517,182.602187 C100.574327,190.04543 105.470814,212.482187 96.9735165,224.019214 C94.3535799,227.57752 86.2694247,228.422775 80.2664169,226.966366 C79.7521757,227.091481 79.2153762,227.158056 78.6631381,227.159008 C75.7949911,227.163939 73.3367096,225.397806 72.3239702,222.891632 C65.188266,217.768446 61.4629068,212.192336 57.0889219,208.598403 C42.9889219,197.011106 40.6375706,191.470836 37.1535165,176.670295 C35.9445976,171.534619 26.5456787,156.442187 40.6221652,151.257863 C52.7243273,146.801646 53.690003,153.789214 54.8827057,159.121106 Z" opacity="1.00"></path><path id="Fill-29-Copy-2--globalStyle1/animals/dashboard/5" fill="#EDEDED" d="M78.1892355,198.280327 C46.699776,210.427084 38.4708571,187.446273 39.3051814,175.066813 C39.5905868,170.832759 41.5341003,169.636813 42.705722,166.102489 C44.8089652,159.755462 41.9549111,151.040057 40.2132895,151.681408 C26.136803,156.865732 35.535722,171.958165 36.7446409,177.09384 C40.2286949,191.89357 42.5800463,197.434651 56.6800463,209.021949 C61.785722,213.217084 66.0076138,220.11303 75.8013976,225.835732 C75.8013976,225.835732 92.3784247,192.807354 78.1892355,198.280327"></path><path id="[color]color-copy-4--globalStyle1/animals/dashboard/5" fill="#233a48" fill-rule="nonzero" d="M31.6460841,148.896944 L36.5441922,139.550727 C36.7752733,139.108836 37.3217598,138.937754 37.7644625,139.169646 C37.9258138,139.253971 38.0571652,139.384511 38.1423003,139.544241 L44.4358138,151.3237 L31.6460841,148.896944 Z" opacity="1.00"></path><path id="shadow-copy-2--globalStyle1/animals/dashboard/5" fill="#000" fill-opacity=".08" d="M31.6460841,148.896944 L36.5441922,139.550727 C36.7752733,139.108836 37.3217598,138.937754 37.7644625,139.169646 C37.9258138,139.253971 38.0571652,139.384511 38.1423003,139.544241 L44.4358138,151.3237 L31.6460841,148.896944 Z"></path><path id="[color]color-copy-5--globalStyle1/animals/dashboard/5" fill="#233a48" fill-rule="nonzero" d="M34.3738138,166.317052 L33.2646246,165.364349 C29.7416517,164.948403 26.44003,162.218403 24.9481381,158.048403 L24.4203003,156.147863 C24.0027327,155.547863 23.885976,154.757322 24.2103003,154.102998 C24.498949,153.520025 24.7332733,153.516781 25.6324625,153.040836 L29.2965165,150.888133 C29.0005706,147.269484 33.5743544,145.672998 37.1703003,145.055971 C45.0473273,143.70516 53.3419219,147.352187 54.7040841,158.817052 C55.313003,163.939754 49.8546246,167.752998 44.2965165,168.948133 C44.2697598,168.953808 44.2421922,168.959484 44.2154354,168.96516 C40.7184084,169.693268 37.0835436,168.64489 34.3738138,166.317052" opacity="1.00"></path><path id="Fill-37-Copy-2--globalStyle1/animals/dashboard/5" fill="#EDEDED" d="M43.6494895,157.444511 C39.9708409,155.025052 37.8270571,157.116944 35.0970571,160.610727 C32.8251652,163.516673 27.1705706,159.861538 25.5740841,158.265052 C25.1281381,157.819106 24.9586787,158.081808 24.9586787,158.081808 C26.478949,162.339376 29.7440841,164.968025 33.2646246,165.364511 L34.4167868,166.368295 C36.8613814,168.565592 39.9627327,169.196403 41.3370571,169.164781 C43.2813814,166.298565 46.9770571,159.634511 43.6494895,157.444511"></path><path id="Fill-39-Copy-2--globalStyle1/animals/dashboard/5" fill="#1D3143" d="M26.120003,153.905079 C26.1256787,153.360214 25.2427057,153.82643 24.7505436,153.939944 C24.5948679,153.97643 24.4748679,153.895349 24.3727057,153.789944 C24.3167598,153.842646 24.2373003,153.973998 24.2016246,154.04616 C23.8156787,154.824538 24.0102733,155.703457 24.5064895,156.416972 C24.5064895,156.416972 24.9021652,156.422646 24.9362192,155.76589 C24.9873003,154.753998 26.1143273,154.449944 26.120003,153.905079"></path><path id="[color]color-copy-6--globalStyle1/animals/dashboard/5" fill="#233a48" fill-rule="nonzero" d="M7.2124289,157.210438 C11.4808076,156.035451 15.3403724,163.280823 24.3958933,167.424665 C25.8489072,168.089531 27.4035245,168.806761 28.7832629,169.662325 C32.0612711,170.229506 36.5564581,171.121216 42.2033954,172.500816 C46.8580184,173.638565 55.9367291,174.272695 55.437524,181.180118 C54.8613699,189.155419 45.1084176,187.898856 39.8526928,186.945016 C35.2580419,186.111643 27.7525341,184.73066 23.1312856,182.300358 C22.6398281,182.08577 22.180109,181.817945 21.759905,181.504693 C20.3039636,180.624656 18.8569358,179.387767 17.5103716,177.874409 C13.9421363,173.864085 9.12016177,169.192703 5.18477163,163.318005 C3.40220134,160.656249 4.76216396,157.884927 7.2124289,157.210438 Z M45.983003,139.125376 C46.1175976,139.246998 46.2124625,139.406727 46.2546246,139.582673 L49.3908409,152.563754 L37.6194895,147.005646 L44.705976,139.187808 C45.0408409,138.818079 45.6132733,138.7897 45.983003,139.125376 Z" opacity="1.00"></path><polygon id="shadow-copy-3--globalStyle1/animals/dashboard/5" fill="#000" fill-opacity=".08" points="42.0211381 145.316403 44.2516787 142.067484 44.5387057 147.199917"></polygon><path id="Fill-53-Copy-2--globalStyle1/animals/dashboard/5" fill="#EDEDED" d="M11.1317368,162.795591 L4.59092597,162.806957 C2.34822327,162.810996 0.758223268,161.979105 0.507682727,159.750186 C0.403898943,158.826672 3.06092597,154.651807 7.92498002,154.658286 C7.92498002,154.658286 17.25498,162.129915 11.1317368,162.795591" transform="rotate(65 6.86 158.733)"></path><path id="Combined-Shape-Copy-6--globalStyle1/animals/dashboard/5" fill="#B9B6B4" fill-rule="nonzero" d="M6.34302784,153.369889 C6.50844758,153.310889 6.69037569,153.397159 6.74937564,153.562579 C6.80837559,153.727998 6.72210531,153.909927 6.55668557,153.968927 C4.60116761,154.666397 3.23318322,156.140084 3.01834969,158.076367 C2.9989825,158.250922 2.84177716,158.376727 2.66722173,158.35736 C2.49266631,158.337993 2.36686138,158.180788 2.38622858,158.006232 C2.6302926,155.806496 4.17399594,154.143513 6.34302784,153.369889 Z M5.10909319,152.06026 C5.27335228,151.998102 5.45689973,152.080871 5.51905788,152.245131 C5.58121603,152.40939 5.49844687,152.592937 5.33418778,152.655095 C3.43653872,153.373195 2.12359019,154.823715 1.91337685,156.71842 C1.8940103,156.892975 1.73680541,157.018781 1.56224991,156.999414 C1.38769442,156.980048 1.26188892,156.822843 1.28125547,156.648287 C1.52010776,154.495453 3.00292204,152.857268 5.10909319,152.06026 Z" transform="rotate(65 4.024 155.2)"></path><path id="[color]color-copy-7--globalStyle1/animals/dashboard/5" fill="#233a48" fill-rule="nonzero" d="M146.279929,157.958073 C146.701586,161.660352 135.086606,160.466338 129.815707,175.558453 C125.978517,186.54372 127.169644,199.848287 115.296623,218.033277 C105.557193,232.948014 95.1149919,226.712058 90.1072006,222.152857 C88.4801089,222.601247 86.7804741,222.7852 85.0803909,222.685525 L85.0801763,222.644005 C85.2134548,225.209325 82.9806069,227.89632 76.2637057,227.883422 C71.4191111,227.873646 63.743976,227.374187 63.743976,227.374187 C60.8655976,226.958241 59.7272192,224.113917 60.5753273,221.811214 C61.296949,219.851484 64.8134354,219.808511 71.0428949,219.571754 C71.3207079,219.561162 71.5998864,219.539725 71.8800982,219.509531 C70.6566571,217.909575 69.1288085,216.102993 67.0516787,214.164863 C66.8338544,213.961587 66.6106195,213.740115 66.3842227,213.502288 C63.5096537,211.099356 61.679922,207.76953 61.0821627,204.212818 C60.6762745,202.561045 60.5969918,200.920403 61.024816,199.438912 C61.2965287,197.568136 61.9186807,195.718727 62.9179219,193.987998 C67.1511652,186.655836 76.6133273,184.12043 83.9463003,188.352863 L93.7246787,193.998538 C101.056841,198.231781 103.592246,207.694754 99.359003,215.026917 C98.3032477,216.855733 96.9222109,218.386148 95.3300699,219.587573 C98.1512025,222.051848 102.399261,223.81589 107.383254,219.559447 C112.851933,214.889585 119.379816,200.193042 123.067571,179.409786 C126.061631,162.531608 145.339534,149.711111 146.279929,157.958073 Z" opacity="1.00"></path><path id="Combined-Shape-Copy-7--globalStyle1/animals/dashboard/5" fill="#EDEDED" d="M63.2301652,219.851314 C63.2301652,219.851314 72.5601652,227.322944 66.4369219,227.988619 L59.8961111,227.999985 C57.6534084,228.004025 56.0634084,227.171322 55.8128679,224.943214 C55.7090841,224.0197 58.3661111,219.844836 63.2301652,219.851314 Z M146.413956,157.912838 C146.574708,159.277267 145.100067,159.974145 142.913175,161.057055 C142.024692,159.425537 140.544926,157.994692 138.996765,156.825265 C142.880223,154.6725 146.034719,154.696431 146.413956,157.912838 Z"></path><path id="Combined-Shape-Copy-8--globalStyle1/animals/dashboard/5" fill="#B9B6B4" fill-rule="nonzero" d="M59.9658769,222.913344 C60.1312966,222.854344 60.3132247,222.940614 60.3722247,223.106034 C60.4312246,223.271453 60.3449543,223.453382 60.1795346,223.512381 C58.2241335,224.209811 56.8560329,225.683418 56.6411973,227.619023 C56.6218233,227.793578 56.464613,227.919377 56.2900583,227.900003 C56.1155036,227.880629 55.9897049,227.723418 56.009079,227.548864 C56.253156,225.349801 57.796978,223.686921 59.9658769,222.913344 Z M58.7101314,221.754202 C58.8743905,221.692044 59.0579379,221.774813 59.1200961,221.939072 C59.1822542,222.103331 59.0994851,222.286879 58.935226,222.349037 C57.0375769,223.067136 55.7246284,224.517657 55.5144151,226.412361 C55.4950485,226.586917 55.3378436,226.712722 55.1632881,226.693356 C54.9887326,226.673989 54.8629271,226.516784 54.8822937,226.342229 C55.121146,224.189395 56.6039602,222.551209 58.7101314,221.754202 Z"></path><path id="Path-88--globalStyle1/animals/dashboard/5" fill="#000" fill-rule="nonzero" d="M30.7723617,150.540537 C31.9313123,149.597059 33.5981744,149.613842 34.7378928,150.580464 C34.9484914,150.759078 34.9744202,151.074597 34.7958065,151.285195 C34.6171928,151.495794 34.301674,151.521723 34.0910754,151.343109 C33.3641381,150.726576 32.320755,150.680235 31.5457228,151.209973 L31.3625495,151.349544 C31.1483972,151.523881 30.8334644,151.491604 30.6591274,151.277452 C30.5041611,151.087094 30.5124452,150.817108 30.6666053,150.637018 L30.7312194,150.57403 L30.7723617,150.540537 Z"></path></g></g></svg></g>
</g></g></svg>