<?xml version="1.0" encoding="UTF-8"?>
<svg id="illustration-builder" width="938" height="826" viewBox="-10 -30 1008 886" version="1.1" xmlns="http://www.w3.org/2000/svg" xmlns:xlink="http://www.w3.org/1999/xlink" style="pointer-events: none;"><g transform="translate(0,1)">
<g><svg xmlns="http://www.w3.org/2000/svg" width="938" height="825" viewBox="0 0 938 825"><g id="Symbols--globalStyle1/bg2/builders/bg1" fill="none" fill-rule="evenodd" stroke="none" stroke-width="1"><g id="globalStyle1/bg2/builders/bg1--globalStyle1/bg2/builders/bg1"><path id="[color:background]background--globalStyle1/bg2/builders/bg1" fill="#ffeddf" d="M747.543321 450.770492C745.540462 513.668112 694.31609 564.894266 631.41847 566.895343 561.997302 569.108467 505.202701 512.351286 507.433644 442.912299 509.436503 380.014679 560.662657 328.788525 623.560277 326.787448 692.999263 324.574324 749.756445 381.331506 747.543321 450.770492M854.286452 499.954585C858.80714 483.019377 861.228747 465.244892 861.228747 446.898417 861.228747 429.849167 859.131447 413.295286 855.220169 397.464857L817.650522 401.641639C813.035392 382.455887 805.597728 364.339277 795.756277 347.785396L825.603156 323.925711C816.830846 308.783098 805.959454 294.517181 792.990763 281.548489 787.937285 276.495011 782.673543 271.746239 777.256557 267.341375 775.84529 266.158191 774.396603 265.03381 772.946133 263.907647 766.768275 259.141056 760.360551 254.773611 753.779982 250.805313L729.9595 280.634373C728.072465 279.47079 726.164046 278.326808 724.237809 277.220246 722.083488 275.962222 719.889965 274.759438 717.659022 273.595855 704.747351 266.806804 690.996404 261.448621 676.616445 257.672768L680.850247 219.777032C663.93464 215.256343 646.140554 212.854338 627.81368 212.854338 610.782249 212.854338 594.208767 214.914218 578.36052 218.861134L582.576503 256.584025C563.331948 261.104713 545.195737 268.465755 528.622255 278.212766L504.860575 248.479929C489.698361 257.232638 475.412843 268.104029 462.444151 281.05312 450.391358 293.125514 440.168579 306.30447 431.740177 320.2639L461.31977 343.91332C451.136193 360.296138 443.335021 378.279105 438.338564 397.407837L400.692295 393.193635C396.171606 410.128844 393.75 427.903328 393.75 446.231985 393.75 463.281235 395.8473 479.854717 399.756796 495.683363L437.214183 491.506582C441.752691 510.749355 449.170754 528.924768 458.974786 545.53567L429.375591 569.185089C438.147901 584.365123 449.019292 598.63104 461.987984 611.599732 474.040777 623.652525 487.217952 633.894905 501.198764 642.323307L524.73236 612.896957C541.132997 623.100135 559.137348 630.956546 578.283898 635.972604L574.126718 673.35337C591.044107 677.872276 608.79899 680.295665 627.165067 680.295665 644.194716 680.295665 660.750379 678.216184 676.598626 674.287087L672.459265 637.098767C691.77866 632.540658 709.991493 625.120813 726.641596 615.298963L750.118171 644.670073C765.260785 635.915583 779.564122 625.044191 792.532814 612.0755 804.585607 600.022706 814.808386 586.845532 823.23857 572.864719L793.88706 549.407745C804.033217 532.987507 811.814788 514.945737 816.773825 495.759985L854.286452 499.954585M161.790004 346.172532C139.359407 351.587736 116.807639 337.777986 111.390654 315.345606 105.982577 292.948864 119.74778 270.370369 142.180159 264.953383 164.612539 259.538179 187.164306 273.347929 192.572383 295.744671 197.989368 318.17705 184.222384 340.755546 161.790004 346.172532zM218.661228 300.764292L213.502618 279.39749 204.555682 281.558939C201.269852 274.336885 196.615521 268.009347 190.957978 262.854301L195.74417 255.021054 176.987857 243.561635 172.205229 251.389536C165.036632 248.704207 157.280007 247.447966 149.350538 247.81682L147.194435 238.882357 125.827634 244.040967 127.985518 252.975429C120.759901 256.264823 114.430581 260.920936 109.275535 266.582042L101.451197 261.801196 89.9917779 280.555728 97.8196787 285.338356C95.1379144 292.508734 93.8834545 300.265359 94.2540904 308.191265L85.3125 310.350931 90.4711098 331.715951 99.4144821 329.556284C102.703875 336.778338 107.359989 343.105876 113.015749 348.25914L108.229557 356.092387 126.985871 367.551807 131.772063 359.716778C138.938877 362.396761 146.691938 363.645875 154.617844 363.275239L156.779293 372.231085 178.146094 367.072475 175.982864 358.116629C183.203135 354.8308 189.530674 350.17825 194.683938 344.524271L202.52253 349.314027 213.98195 330.557714 206.145139 325.771522C208.828686 318.604707 210.081364 310.851646 209.71251 302.925741L218.661228 300.764292 218.661228 300.764292z" opacity="1.00"></path><path id="[color:background]background--globalStyle1/bg2/builders/bg1" fill="#ffeddf" d="M158.251145 331.512814C143.917515 334.97327 129.507264 326.149285 126.045026 311.813874 122.589915 297.503409 131.38539 283.075339 145.719019 279.613101 160.054431 276.152645 174.464682 284.976629 177.921574 299.288876 181.38203 313.624288 172.584774 328.052358 158.251145 331.512814M754.50924 181.928739C727.889815 188.357198 701.125619 171.967246 694.697161 145.344741 688.281023 118.768439 704.61553 91.9703606 731.238035 85.5419019 757.85746 79.1165235 784.621656 95.5064749 791.040874 122.082776 797.469333 148.705282 781.131746 175.50028 754.50924 181.928739zM822.000356 128.039959L815.879921 102.686512 805.262337 105.249271C801.359675 96.6800459 795.839886 89.1704234 789.124966 83.0499886L794.801846 73.7569077 772.54712 60.1576528 766.870239 69.4476535C758.362619 66.2596062 749.155785 64.7687705 739.745655 65.2061645L737.185977 54.603982 711.82945 60.7244168 714.392208 71.3265992C705.816823 75.229262 698.307201 80.7582909 692.186766 87.476292L682.902926 81.8024919 669.300591 104.060298 678.593671 109.734099C675.408704 118.244799 673.920949 127.448553 674.361423 136.855602L663.75 139.418361 669.870435 164.771808 680.484938 162.209049C684.390681 170.781354 689.91355 178.290977 696.62539 184.405251L690.94543 193.701412 713.203236 207.300667 718.886277 198.001426C727.390817 201.183312 736.59149 202.664907 745.99546 202.227513L748.564379 212.854338 773.917826 206.733903 771.351987 196.103998C779.921212 192.204416 787.430834 186.684628 793.545108 179.972787L802.84743 185.655828 816.446685 163.398021 807.147444 157.718061C810.332411 149.213521 811.820166 140.012847 811.379692 130.605798L822.000356 128.039959 822.000356 128.039959z" opacity="1.00"></path><path id="[color:background]background--globalStyle1/bg2/builders/bg1" fill="#ffeddf" d="M750.307794,164.531549 C733.298715,168.640588 716.197228,158.167776 712.08819,141.155616 C707.988392,124.171178 718.427321,107.04813 735.436401,102.942172 C752.448561,98.833133 769.550047,109.305945 773.652925,126.290383 C777.758884,143.302543 767.319954,160.425591 750.307794,164.531549" opacity="1.00"></path><g id="Group-33--globalStyle1/bg2/builders/bg1" transform="matrix(-1 0 0 1 534.763 54.244)"><polygon id="[color:background]background--globalStyle1/bg2/builders/bg1" fill="#ffeddf" points="0.61020127 228.526328 195.553643 228.526328 195.553643 217.071938 0.61020127 217.071938" opacity="1.00"></polygon><polygon id="shadow--globalStyle1/bg2/builders/bg1" fill="#000" fill-opacity=".04" points="0.61020127 228.526328 195.553643 228.526328 195.553643 217.071938 0.61020127 217.071938"></polygon><path id="[color:background]background--globalStyle1/bg2/builders/bg1" fill="#ffeddf" d="M356.562776,50.2549904 L415.519018,50.2549904 L356.562776,114.799352 L356.562776,50.2549904 M353.418527,115.4668 L325.036963,84.0897654 L353.418527,52.7127307 L353.418527,115.4668 M295.064409,117.227543 L322.813979,86.5475057 L350.563549,117.227543 L295.064409,117.227543 M292.211003,52.7127307 L320.590995,84.0897654 L292.211003,115.4668 L292.211003,52.7127307 M351.195543,50.2549904 L322.813979,81.6320251 L294.433987,50.2549904 L351.195543,50.2549904 M289.066754,115.011406 L260.837686,83.801233 L289.066754,52.5910604 L289.066754,115.011406 M289.066754,185.460253 L260.837686,154.25008 L289.066754,123.03817 L289.066754,185.460253 M289.066754,255.909101 L260.837686,224.698928 L289.066754,193.487017 L289.066754,255.909101 M289.066754,326.35621 L260.837686,295.146037 L289.066754,263.935865 L289.066754,326.35621 M289.066754,396.805057 L260.837686,365.594885 L289.066754,334.382974 L289.066754,396.805057 M289.066754,467.253905 L260.837686,436.043732 L289.066754,404.83356 L289.066754,467.253905 M289.066754,537.701014 L260.837686,506.490842 L289.066754,475.280669 L289.066754,537.701014 M289.066754,542.785095 L228.271126,542.785095 L228.271126,542.496563 L258.614702,508.948582 L289.066754,542.616495 L289.066754,542.785095 M228.271126,475.402339 L256.391718,506.490842 L228.271126,537.581082 L228.271126,475.402339 M228.271126,404.95523 L256.391718,436.043732 L228.271126,467.132235 L228.271126,404.95523 M228.271126,334.506382 L256.391718,365.594885 L228.271126,396.685125 L228.271126,334.506382 M228.271126,264.057535 L256.391718,295.146037 L228.271126,326.236278 L228.271126,264.057535 M228.271126,193.610426 L256.391718,224.698928 L228.271126,255.789168 L228.271126,193.610426 M228.271126,123.161578 L256.391718,154.25008 L228.271126,185.340321 L228.271126,123.161578 M228.271126,52.7127307 L256.391718,83.801233 L228.271126,114.891473 L228.271126,52.7127307 M230.604159,117.227543 L258.614702,86.2589732 L286.623673,117.227543 L230.604159,117.227543 M230.49411,120.703838 L286.733721,120.703838 L258.614702,151.79234 L230.49411,120.703838 M230.604159,187.674653 L258.614702,156.707821 L286.623673,187.674653 L230.604159,187.674653 M230.49411,191.152685 L286.733721,191.152685 L258.614702,222.241188 L230.49411,191.152685 M230.456379,258.288624 L258.614702,227.156668 L286.773024,258.288624 L230.456379,258.288624 M230.643462,261.764919 L286.584369,261.764919 L258.614702,292.688297 L230.643462,261.764919 M230.604159,328.572348 L258.614702,297.603778 L286.623673,328.572348 L230.604159,328.572348 M230.49411,332.048642 L286.733721,332.048642 L258.614702,363.137144 L230.49411,332.048642 M230.753511,398.856071 L258.614702,368.052625 L286.474321,398.856071 L230.753511,398.856071 M230.344759,402.332366 L286.881501,402.332366 L258.614702,433.585992 L230.344759,402.332366 M287.030853,472.616089 L258.614702,504.033101 L230.196979,472.616089 L287.030853,472.616089 M230.902863,469.139795 L258.614702,438.501472 L286.326541,469.139795 L230.902863,469.139795 M286.733721,50.2549904 L258.614702,81.3434927 L230.49411,50.2549904 L286.733721,50.2549904 M258.576971,6.0747628 L287.205359,46.7786958 L230.784954,46.7786958 L258.576971,6.0747628 M225.126877,115.4668 L196.746885,84.0897654 L225.126877,52.7127307 L225.126877,115.4668 M166.775903,117.227543 L194.523901,86.5475057 L222.273471,117.227543 L166.775903,117.227543 M163.920925,52.7127307 L192.300917,84.0897654 L163.920925,115.4668 L163.920925,52.7127307 M222.903893,50.2549904 L194.523901,81.6320251 L166.143909,50.2549904 L222.903893,50.2549904 M160.776676,115.013144 L132.807009,84.0897654 L160.776676,53.1663871 L160.776676,115.013144 M102.836027,117.227543 L130.584025,86.5475057 L158.333595,117.227543 L102.836027,117.227543 M99.9810485,52.7127307 L128.36104,84.0897654 L99.9810485,115.4668 L99.9810485,52.7127307 M158.964017,50.2549904 L130.584025,81.6320251 L102.205605,50.2549904 L158.964017,50.2549904 M37.8821296,117.227543 L96.8383716,52.6831822 L96.8383716,117.227543 L37.8821296,117.227543 M292.211003,46.7786958 L291.18755,46.7786958 L258.540812,0.359734532 L226.846782,46.7786958 L97.7627808,46.7786958 L30.236888,120.703838 L96.8383716,120.703838 L96.8383716,194.276136 L18.950606,215.712706 L18.950606,228.526328 L22.0948551,228.526328 L22.0948551,218.429431 L98.408924,197.425659 L174.068989,218.425954 L174.068989,228.526328 L177.211666,228.526328 L177.211666,215.716183 L99.9810485,194.279612 L99.9810485,120.703838 L161.477844,120.703838 L161.647633,120.891558 L161.818995,120.703838 L163.290503,120.703838 L163.461865,120.891558 L163.631654,120.703838 L225.126877,120.703838 L225.126877,546.26139 L292.211003,546.26139 L292.211003,120.703838 L353.707798,120.703838 L353.877588,120.891558 L354.048949,120.703838 L355.636795,120.703838 L423.161116,46.7786958 L292.211003,46.7786958" opacity="1.00"></path></g><g id="Group-33-Copy--globalStyle1/bg2/builders/bg1" fill="#000" fill-opacity=".02" transform="matrix(-1 0 0 1 515.527 54)"><path id="[color:background]background--globalStyle1/bg2/builders/bg1" d="M337.612917,50.7903043 L396.547571,50.7903043 L337.612917,115.334665 L337.612917,50.7903043 M334.46982,116.002114 L306.098648,84.6250793 L334.46982,53.2480446 L334.46982,116.002114 M276.137069,117.762857 L303.876478,87.0828196 L331.615887,117.762857 L276.137069,117.762857 M273.284708,53.2480446 L301.654308,84.6250793 L273.284708,116.002114 L273.284708,53.2480446 M332.24765,50.7903043 L303.876478,82.1673391 L275.506878,50.7903043 L332.24765,50.7903043 M270.14161,115.546719 L241.922879,84.3365469 L270.14161,53.1263743 L270.14161,115.546719 M270.14161,185.995567 L241.922879,154.785394 L270.14161,123.573484 L270.14161,185.995567 M270.14161,256.444414 L241.922879,225.234242 L270.14161,194.022331 L270.14161,256.444414 M270.14161,326.891524 L241.922879,295.681351 L270.14161,264.471179 L270.14161,326.891524 M270.14161,397.340371 L241.922879,366.130199 L270.14161,334.918288 L270.14161,397.340371 M270.14161,467.789219 L241.922879,436.579046 L270.14161,405.368874 L270.14161,467.789219 M270.14161,538.236328 L241.922879,507.026155 L270.14161,475.815983 L270.14161,538.236328 M270.14161,543.320409 L209.368244,543.320409 L209.368244,543.031876 L239.700708,509.483896 L270.14161,543.151809 L270.14161,543.320409 M209.368244,475.937653 L237.478538,507.026155 L209.368244,538.116396 L209.368244,475.937653 M209.368244,405.490544 L237.478538,436.579046 L209.368244,467.667548 L209.368244,405.490544 M209.368244,335.041696 L237.478538,366.130199 L209.368244,397.220439 L209.368244,335.041696 M209.368244,264.592849 L237.478538,295.681351 L209.368244,326.771592 L209.368244,264.592849 M209.368244,194.14574 L237.478538,225.234242 L209.368244,256.324482 L209.368244,194.14574 M209.368244,123.696892 L237.478538,154.785394 L209.368244,185.875635 L209.368244,123.696892 M209.368244,53.2480446 L237.478538,84.3365469 L209.368244,115.426787 L209.368244,53.2480446 M211.700422,117.762857 L239.700708,86.7942871 L267.699423,117.762857 L211.700422,117.762857 M211.590414,121.239152 L267.809431,121.239152 L239.700708,152.327654 L211.590414,121.239152 M211.700422,188.209967 L239.700708,157.243135 L267.699423,188.209967 L211.700422,188.209967 M211.590414,191.687999 L267.809431,191.687999 L239.700708,222.776502 L211.590414,191.687999 M211.552697,258.823938 L239.700708,227.691982 L267.84872,258.823938 L211.552697,258.823938 M211.739711,262.300233 L267.660134,262.300233 L239.700708,293.223611 L211.739711,262.300233 M211.700422,329.107662 L239.700708,298.139091 L267.699423,329.107662 L211.700422,329.107662 M211.590414,332.583956 L267.809431,332.583956 L239.700708,363.672458 L211.590414,332.583956 M211.84972,399.391385 L239.700708,368.587939 L267.550126,399.391385 L211.84972,399.391385 M211.441117,402.86768 L267.957157,402.86768 L239.700708,434.121306 L211.441117,402.86768 M268.106454,473.151403 L239.700708,504.568415 L211.293391,473.151403 L268.106454,473.151403 M211.999017,469.675109 L239.700708,439.036786 L267.4024,469.675109 L211.999017,469.675109 M267.809431,50.7903043 L239.700708,81.8788066 L211.590414,50.7903043 L267.809431,50.7903043 M239.662991,6.61007672 L268.280896,47.3140098 L211.881151,47.3140098 L239.662991,6.61007672 M206.225146,116.002114 L177.855546,84.6250793 L206.225146,53.2480446 L206.225146,116.002114 M147.895539,117.762857 L175.633376,87.0828196 L203.372785,117.762857 L147.895539,117.762857 M145.041606,53.2480446 L173.411206,84.6250793 L145.041606,116.002114 L145.041606,53.2480446 M204.002976,50.7903043 L175.633376,82.1673391 L147.263776,50.7903043 L204.002976,50.7903043 M141.898508,115.548458 L113.939082,84.6250793 L141.898508,53.701701 L141.898508,115.548458 M83.9790747,117.762857 L111.716912,87.0828196 L139.456321,117.762857 L83.9790747,117.762857 M81.1251419,53.2480446 L109.494742,84.6250793 L81.1251419,116.002114 L81.1251419,53.2480446 M140.086512,50.7903043 L111.716912,82.1673391 L83.3488836,50.7903043 L140.086512,50.7903043 M19.0489618,117.762857 L77.9836157,53.2184961 L77.9836157,117.762857 L19.0489618,117.762857 M273.284708,47.3140098 L272.261629,47.3140098 L239.626846,0.895048453 L207.944421,47.3140098 L78.9076865,47.3140098 L11.4065197,121.239152 L77.9836157,121.239152 L77.9836157,194.81145 L0.124370361,216.24802 L0.124370361,229.061642 L3.26746809,229.061642 L3.26746809,218.964745 L79.5535931,197.960973 L155.185954,218.961268 L155.185954,229.061642 L158.32748,229.061642 L158.32748,216.251497 L81.1251419,194.814926 L81.1251419,121.239152 L142.599419,121.239152 L142.769146,121.426872 L142.940445,121.239152 L144.411415,121.239152 L144.582713,121.426872 L144.752441,121.239152 L206.225146,121.239152 L206.225146,546.796703 L273.284708,546.796703 L273.284708,121.239152 L334.758985,121.239152 L334.928712,121.426872 L335.100011,121.239152 L336.687275,121.239152 L404.18687,47.3140098 L273.284708,47.3140098" fill="#ffeddf" opacity="1.00"></path></g><path id="[color:background]background--globalStyle1/bg2/builders/bg1" fill="#ffeddf" d="M300.794055,528.256817 C299.717128,561.932189 272.291538,589.360032 238.616166,590.434706 C201.42839,591.624282 171.028859,561.233763 172.216183,524.045987 C173.290857,490.363857 200.723206,462.93376 234.405337,461.856833 C271.593112,460.66951 301.981379,491.069041 300.794055,528.256817 M357.954546,554.58295 C360.376505,545.521443 361.669719,536.000327 361.669719,526.179564 C361.669719,517.052721 360.554491,508.182718 358.452456,499.700228 L338.331044,501.944201 C335.873037,491.668335 331.883,481.969233 326.624532,473.096977 L342.593692,460.333815 C337.898471,452.214056 332.07901,444.567424 325.135309,437.623723 C318.680506,431.16892 311.621903,425.685154 304.137486,421.174677 L291.381083,437.132572 C282.623729,431.698372 273.019252,427.519084 262.822241,424.851549 L265.086491,404.552151 C256.024984,402.130192 246.501615,400.839232 236.683105,400.839232 C227.554008,400.839232 218.686258,401.952206 210.203768,404.054242 L212.456754,424.261267 C202.156105,426.683226 192.445738,430.625951 183.568976,435.841612 L170.837356,419.913005 C162.717596,424.608227 155.070964,430.427688 148.127263,437.371389 C141.672461,443.826192 136.188694,450.884795 131.678218,458.369212 L147.516704,471.03099 C142.073492,479.797355 137.891951,489.426615 135.222164,499.670939 L115.055692,497.420207 C112.633733,506.481714 111.340519,516.005083 111.340519,525.823593 C111.340519,534.950436 112.455747,543.82044 114.557782,552.302929 L134.613857,550.065715 C137.047082,560.37087 141.019095,570.101513 146.268551,579.000805 L130.416546,591.669342 C135.111767,599.789101 140.931228,607.435733 147.874929,614.379434 C154.329732,620.834237 161.388335,626.318003 168.872752,630.82848 L181.475952,615.062089 C190.264848,620.536843 199.909878,624.747673 210.156456,627.430978 L207.923747,647.451006 C216.985254,649.872965 226.508623,651.166179 236.327133,651.166179 C245.45623,651.166179 254.32398,650.050951 262.80647,647.948915 L260.585026,628.025766 C270.932988,625.588036 280.690667,621.616023 289.601224,616.359808 L302.172882,632.090152 C310.292641,627.39493 317.939274,621.575469 324.882974,614.631768 C331.337777,608.176965 336.821544,601.118362 341.33202,593.633945 L325.615195,581.069046 C331.049395,572.273391 335.217418,562.614843 337.864676,552.34123 L357.954546,554.58295" opacity="1.00"></path><path id="shape--globalStyle1/bg2/builders/bg1" fill="#FFF" d="M300.794055,528.256817 C299.717128,561.932189 272.291538,589.360032 238.616166,590.434706 C201.42839,591.624282 171.028859,561.233763 172.216183,524.045987 C173.290857,490.363857 200.723206,462.93376 234.405337,461.856833 C271.593112,460.66951 301.981379,491.069041 300.794055,528.256817 M357.954546,554.58295 C360.376505,545.521443 361.669719,536.000327 361.669719,526.179564 C361.669719,517.052721 360.554491,508.182718 358.452456,499.700228 L338.331044,501.944201 C335.873037,491.668335 331.883,481.969233 326.624532,473.096977 L342.593692,460.333815 C337.898471,452.214056 332.07901,444.567424 325.135309,437.623723 C318.680506,431.16892 311.621903,425.685154 304.137486,421.174677 L291.381083,437.132572 C282.623729,431.698372 273.019252,427.519084 262.822241,424.851549 L265.086491,404.552151 C256.024984,402.130192 246.501615,400.839232 236.683105,400.839232 C227.554008,400.839232 218.686258,401.952206 210.203768,404.054242 L212.456754,424.261267 C202.156105,426.683226 192.445738,430.625951 183.568976,435.841612 L170.837356,419.913005 C162.717596,424.608227 155.070964,430.427688 148.127263,437.371389 C141.672461,443.826192 136.188694,450.884795 131.678218,458.369212 L147.516704,471.03099 C142.073492,479.797355 137.891951,489.426615 135.222164,499.670939 L115.055692,497.420207 C112.633733,506.481714 111.340519,516.005083 111.340519,525.823593 C111.340519,534.950436 112.455747,543.82044 114.557782,552.302929 L134.613857,550.065715 C137.047082,560.37087 141.019095,570.101513 146.268551,579.000805 L130.416546,591.669342 C135.111767,599.789101 140.931228,607.435733 147.874929,614.379434 C154.329732,620.834237 161.388335,626.318003 168.872752,630.82848 L181.475952,615.062089 C190.264848,620.536843 199.909878,624.747673 210.156456,627.430978 L207.923747,647.451006 C216.985254,649.872965 226.508623,651.166179 236.327133,651.166179 C245.45623,651.166179 254.32398,650.050951 262.80647,647.948915 L260.585026,628.025766 C270.932988,625.588036 280.690667,621.616023 289.601224,616.359808 L302.172882,632.090152 C310.292641,627.39493 317.939274,621.575469 324.882974,614.631768 C331.337777,608.176965 336.821544,601.118362 341.33202,593.633945 L325.615195,581.069046 C331.049395,572.273391 335.217418,562.614843 337.864676,552.34123 L357.954546,554.58295" opacity=".53"></path></g></g></svg></g></g></svg>