<?xml version="1.0" encoding="UTF-8"?>
<svg id="illustration-builder" width="938" height="826" viewBox="-10 -30 1008 886" version="1.1" xmlns="http://www.w3.org/2000/svg" xmlns:xlink="http://www.w3.org/1999/xlink" style="pointer-events: none;"><g transform="translate(0,1)">
<g><svg xmlns="http://www.w3.org/2000/svg" width="938" height="825" viewBox="0 0 938 825"><g id="Symbols--globalStyle1/bg2/builders/bg3" fill="none" fill-rule="evenodd" stroke="none" stroke-width="1"><g id="globalStyle1/bg2/builders/bg3--globalStyle1/bg2/builders/bg3"><path id="[color:background]background--globalStyle1/bg2/builders/bg3" fill="#ffeddf" d="M0.926994288,689.0625 L0.926994288,309.481003 L70.7751789,341.876287 L70.7749943,434.564 L108.617994,434.564 L108.618934,306.306763 L106.889508,306.306763 L106.889508,296.592903 L74.4502084,296.592903 L74.4502084,296.732501 L43.9263482,296.732501 L43.9263482,296.592903 L39.024633,296.592903 L39.024633,276.952564 L43.9263482,276.952564 L43.9263482,272.790401 L47.1866172,272.790401 L47.1866172,254.243221 L71.1924531,254.243221 L71.1924531,272.790401 L74.4502084,272.790401 L74.4502084,276.952564 L102.721793,276.952564 L106.889508,281.726809 L106.889508,262.369961 L108.618934,262.369961 L108.618934,227.092519 L131.611749,227.092519 L131.611749,263.418019 L141.204028,276.591757 L141.204028,281.786944 L145.422017,276.952564 L270.174439,276.952564 L270.174439,296.592903 L263.581004,296.592903 L263.581004,334.075991 C264.591511,335.52566 265.179717,337.215868 265.179717,339.026344 C265.179717,343.270118 261.984804,346.871741 257.535555,348.181813 L257.535555,348.181813 L257.535555,357.479028 L255.972034,357.479028 L255.972034,360.48575 C260.856153,360.606019 264.769984,364.020796 264.769984,368.219469 C264.769984,372.491162 260.715386,375.957483 255.715636,375.957483 C251.060264,375.957483 247.234412,372.961499 246.719104,369.104304 C246.719104,369.104304 246.515494,367.820004 248.689844,367.820004 C250.634755,367.820004 250.769275,368.852331 250.776293,369.065916 L250.776215,369.104304 C251.256332,371.060821 253.282374,372.531968 255.715636,372.531968 C258.500816,372.531968 260.758119,370.601222 260.758119,368.219469 C260.758119,362.719315 252.611217,363.922004 252.611217,363.922004 L252.611217,363.922004 L252.611217,357.479028 L250.504736,357.479028 L250.504736,348.295639 C245.866959,347.077916 242.488546,343.390386 242.488546,339.026344 C242.488546,337.215868 243.081779,335.52566 244.094801,334.075991 L244.094801,334.075991 L244.094801,296.592903 L141.204028,296.592903 L141.204028,299.66835 L136.302313,299.66835 L136.302313,306.306763 L131.611749,306.306763 L131.610994,365.141 L195.685964,365.141874 L195.684994,434.564 L263.82986,434.564942 L263.828994,489.955 L331.978783,489.955208 L331.977994,498.47 L427.466709,498.470675 L427.466709,397.822797 L437.659763,397.822797 L437.659763,320.696077 L447.531063,320.696077 L447.531063,262.717882 L461.471994,262.717 L461.472044,98.6389037 L454.531718,98.6389037 L454.531718,88.8176604 L447.282207,88.8176604 L447.282207,84.2667716 L446.807118,84.2667716 L446.807118,81.4619293 L447.282207,81.4619293 L447.282207,67.5 L498.04638,67.5 L498.04638,81.4619293 L502.10852,81.4619293 L502.10852,84.2667716 L498.04638,84.2667716 L498.04638,98.6389037 L495.482406,98.6389037 L495.481994,262.717 L503.900788,262.717882 L503.900788,320.696077 L513.774602,320.696077 L513.774602,397.822797 L523.965142,397.822797 L523.964994,448.81 L617.768889,448.810362 L617.767994,459.698 L674.783994,459.698 L674.784634,309.481003 L744.635333,341.876287 L744.634994,434.564 L755.883994,434.564 L755.88414,204.973782 L748.943814,204.973782 L748.943814,195.154686 L741.694303,195.154686 L741.694303,190.603798 L589.482221,190.603798 L589.482221,246.05205 C590.980387,248.199709 591.855154,250.695289 591.855154,253.375567 C591.855154,259.831429 586.862946,265.28863 579.998031,267.088368 L579.998031,267.088368 L579.998031,280.674457 L576.883557,280.674457 L576.883557,290.205766 C576.883557,290.205766 564.830365,288.429652 564.830365,296.564983 C564.830365,300.087144 568.168558,302.94353 572.29354,302.94353 C575.890645,302.94353 578.886975,300.767952 579.598353,297.872908 C579.598353,297.872908 579.477695,295.970082 582.68769,295.970082 C585.902712,295.970082 585.601068,297.872908 585.601068,297.872908 C584.836904,303.577089 579.176051,308.012004 572.29354,308.012004 C564.895721,308.012004 558.895519,302.885543 558.895519,296.564983 C558.895519,290.351807 564.687084,285.302661 571.911458,285.126553 L571.911458,285.126553 L571.911458,280.674457 L569.598854,280.674457 L569.598854,266.92085 C563.017987,264.981514 558.287203,259.655321 558.287203,253.375567 C558.287203,250.695289 559.159457,248.199709 560.655109,246.05205 L560.655109,246.05205 L560.655109,190.603798 L550.901952,190.603798 L550.901952,161.548123 L735.452786,161.548123 L741.694303,168.699826 L741.694303,161.013356 L755.88414,141.525501 L755.88414,87.7889319 L789.894503,87.7889319 L789.894503,139.974891 L792.458477,139.974891 L792.458477,168.611772 L798.619556,161.548123 L840.445012,161.548123 L840.445012,155.390785 L845.266289,155.390785 L845.266289,127.952298 L880.782357,127.952298 L880.782357,155.390785 L885.603634,155.390785 L885.603634,161.548123 L892.853145,161.548123 L892.853145,190.603798 L885.603634,190.603798 L885.603634,190.809973 L840.445012,190.809973 L840.445012,190.603798 L792.458477,190.603798 L792.458477,204.973782 L789.894503,204.973782 L789.893994,434.564 L799.694994,434.564 L799.695419,365.141874 L869.543604,365.141874 L869.542994,434.564 L937.6875,434.564942 L937.6875,689.0625 L0.926994288,689.0625 Z M759.17206,422.757114 L759.171994,434.564 L767.810994,434.564 L770.541526,432.277685 L759.17206,422.757114 Z M772.889322,434.240646 L772.501994,434.564 L773.275994,434.564 L772.889322,434.240646 Z M125.836994,434.023 L111.967182,434.023732 L112.613994,434.564 L125.836994,434.564 L125.836994,434.023 Z M786.609097,422.757114 L775.234604,432.277685 L777.965994,434.564 L786.608994,434.564 L786.609097,422.757114 Z M120.116598,425.710145 L112.447299,432.127349 L125.836994,432.127 L125.836994,430.5 L120.116598,425.710145 Z M110.843558,417.944211 L110.843558,430.819425 L118.532967,424.380744 L110.843558,417.944211 Z M784.942514,420.227172 L760.841157,420.227172 L772.889322,430.312578 L784.942514,420.227172 Z M125.836994,420.918 L121.702743,424.380744 L125.836994,427.844 L125.836994,420.918 Z M125.836994,416.638 L112.447299,416.638435 L120.116598,423.053491 L125.836994,418.264 L125.836994,416.638 Z M772.889322,407.927531 L761.55002,417.420182 L784.231136,417.420182 L772.889322,407.927531 Z M786.609097,396.444 L775.234604,405.960276 L786.609097,415.482994 L786.609097,396.444 Z M759.17206,396.441852 L759.17206,415.482994 L770.541526,405.960276 L759.17206,396.441852 Z M120.116598,407.47867 L111.441819,414.739904 L125.836994,414.739 L125.836994,412.266 L120.116598,407.47867 Z M110.843558,399.714884 L110.843558,412.58795 L118.532967,406.153565 L110.843558,399.714884 Z M125.836994,402.689 L121.702743,406.153565 L125.836994,409.614 L125.836994,402.689 Z M125.836994,398.406 L112.447299,398.40696 L120.116598,404.822016 L125.836994,400.033 L125.836994,398.406 Z M784.942514,393.909762 L760.841157,393.909762 L772.889322,403.997315 L784.942514,393.909762 Z M120.116598,389.249343 L111.441819,396.510577 L125.836994,396.51 L125.836994,394.037 L120.116598,389.249343 Z M110.843558,381.485557 L110.843558,394.356475 L118.532967,387.919942 L110.843558,381.485557 Z M125.836994,384.458 L121.702743,387.919942 L125.836994,391.382 L125.836994,384.458 Z M772.889322,381.610121 L761.55002,391.10492 L784.231136,391.10492 L772.889322,381.610121 Z M786.609097,370.12659 L775.234604,379.647161 L786.609097,389.16988 L786.609097,370.12659 Z M759.17206,370.12659 L759.17206,389.16988 L770.541526,379.647161 L759.17206,370.12659 Z M125.836994,379.331 L111.441819,379.331455 L120.116598,386.594837 L125.836994,381.804 L125.836994,379.331 Z M784.231136,368.191549 L761.55002,368.191549 L772.889322,377.684201 L784.231136,368.191549 Z M120.116598,371.020016 L112.447299,377.435072 L125.836994,377.435 L125.836994,375.809 L120.116598,371.020016 Z M110.843558,363.25623 L110.843558,376.129296 L118.532967,369.692763 L110.843558,363.25623 Z M125.836994,366.23 L121.702743,369.692763 L125.836994,373.155 L125.836994,366.23 Z M128.791377,361.104276 L111.441819,361.104276 L120.116598,368.363362 L128.791377,361.104276 Z M772.889322,354.644118 L760.054369,365.386707 L785.721761,365.386707 L772.889322,354.644118 Z M129.389638,363.25623 L127.137994,365.141 L129.388994,365.141 L129.389638,363.25623 Z M786.609097,343.158439 L775.234604,352.681158 L786.609097,362.199582 L786.609097,343.158439 Z M759.17206,343.158439 L759.17206,362.199582 L770.541526,352.681158 L759.17206,343.158439 Z M120.116598,352.788541 L112.447299,359.205745 L127.78087,359.205745 L120.116598,352.788541 Z M129.389638,345.024755 L121.702743,351.461288 L129.389638,357.897821 L129.389638,345.024755 Z M110.843558,345.024755 L110.843558,357.895673 L118.532967,351.461288 L110.843558,345.024755 Z M784.231136,341.221251 L761.55002,341.221251 L772.889322,350.713903 L784.231136,341.221251 Z M128.791377,342.872801 L111.441819,342.872801 L120.116598,350.131887 L128.791377,342.872801 Z M120.116598,334.559214 L112.447299,340.97427 L127.78087,340.97427 L120.116598,334.559214 Z M129.389638,326.79328 L121.702743,333.231961 L129.389638,339.666346 L129.389638,326.79328 Z M110.843558,326.79328 L110.843558,339.666346 L118.532967,333.231961 L110.843558,326.79328 Z M772.889322,327.67382 L760.054369,338.416409 L785.721761,338.416409 L772.889322,327.67382 Z M759.17206,316.188141 L759.17206,335.231431 L770.541526,325.708712 L759.17206,316.188141 Z M786.609097,316.188141 L775.234604,325.708712 L786.609097,335.231431 L786.609097,316.188141 Z M262.839462,296.592903 L244.831315,296.592903 L244.831315,333.141759 C246.907631,330.830878 250.165386,329.331813 253.837902,329.331813 C257.510418,329.331813 260.76566,330.830878 262.839462,333.141759 L262.839462,333.141759 L262.839462,296.592903 Z M128.791377,324.641326 L111.441819,324.641326 L120.116598,331.90256 L128.791377,324.641326 Z M785.721761,313.003163 L760.054369,313.003163 L772.889322,323.745752 L785.721761,313.003163 Z M120.116598,316.327739 L112.447299,322.742796 L127.78087,322.742796 L120.116598,316.327739 Z M129.389638,308.5661 L121.702743,315.000486 L129.389638,321.437019 L129.389638,308.5661 Z M110.843558,308.5661 L110.843558,321.437019 L118.532967,315.000486 L110.843558,308.5661 Z M127.78087,307.256029 L112.447299,307.256029 L120.116598,313.67538 L127.78087,307.256029 Z M772.889322,300.705669 L761.55002,310.196173 L784.231136,310.196173 L772.889322,300.705669 Z M786.609097,289.219991 L775.234604,298.740562 L786.609097,308.26328 L786.609097,289.219991 Z M759.17206,289.219991 L759.17206,308.26328 L770.541526,298.740562 L759.17206,289.219991 Z M785.721761,286.035013 L760.054369,286.035013 L772.889322,296.777602 L785.721761,286.035013 Z M156.153003,288.126832 L148.621957,294.69652 L163.684048,294.69652 L156.153003,288.126832 Z M197.840205,288.126832 L190.304132,294.69652 L205.371251,294.69652 L197.840205,288.126832 Z M177.491803,288.126832 L169.95573,294.69652 L185.025362,294.69652 L177.491803,288.126832 Z M238.539523,288.126832 L231.005964,294.69652 L238.539523,294.69652 L238.539523,289.290863 L239.871784,289.290863 L238.539523,288.126832 Z M43.9263482,293.691416 L42.7725598,294.69652 L43.9263482,294.69652 L43.9263482,293.691416 Z M218.188607,288.126832 L210.660076,294.69652 L225.722167,294.69652 L218.188607,288.126832 Z M103.277321,280.758215 L103.277321,294.69652 L106.889508,294.69652 L106.889508,284.901049 L103.277321,280.758215 Z M91.9933214,288.126832 L84.4597622,294.69652 L99.5268806,294.69652 L91.9933214,288.126832 Z M74.4502084,291.434227 L74.4502084,294.69652 L78.1880805,294.69652 L74.4502084,291.434227 Z M144.866489,280.758215 L141.204028,284.956888 L141.204028,294.69652 L144.866489,294.69652 L144.866489,280.758215 Z M81.9410347,279.362237 L81.9410347,294.18323 L90.4398548,286.773807 L81.9410347,279.362237 Z M166.202776,279.362237 L157.706469,286.773807 L166.202776,294.18323 L166.202776,279.362237 Z M188.773289,280.223448 L188.773289,293.324166 L196.286738,286.773807 L188.773289,280.223448 Z M79.7164101,280.223448 L74.4502084,284.819438 L74.4502084,288.723881 L79.7164101,293.324166 L79.7164101,280.223448 Z M101.057724,280.223448 L93.5467881,286.773807 L101.057724,293.324166 L101.057724,280.223448 Z M209.126719,280.223448 L209.126719,293.324166 L216.635141,286.773807 L209.126719,280.223448 Z M41.2392028,280.223448 L41.2392028,293.324166 L43.9263482,290.985366 L43.9263482,282.562249 L41.2392028,280.223448 Z M147.091114,280.223448 L147.091114,293.324166 L154.60205,286.773807 L147.091114,280.223448 Z M227.25301,280.223448 L219.742074,286.773807 L227.25301,293.324166 L227.25301,280.223448 Z M168.422373,280.223448 L168.422373,293.322019 L175.933309,286.773807 L168.422373,280.223448 Z M206.904608,280.223448 L199.393672,286.773807 L206.904608,293.322019 L206.904608,280.223448 Z M186.558719,280.223448 L179.045269,286.773807 L186.558719,293.322019 L186.558719,280.223448 Z M229.475121,280.223448 L229.475121,293.322019 L236.986057,286.773807 L229.475121,280.223448 Z M267.954842,280.223448 L260.443906,286.773807 L263.332147,289.290863 L267.954842,289.290863 L267.954842,280.223448 Z M247.603926,280.223448 L240.09299,286.773807 L242.978718,289.290863 L247.603926,289.290863 L247.603926,280.223448 Z M249.826037,280.223448 L249.826037,289.290863 L254.448731,289.290863 L257.334459,286.773807 L249.826037,280.223448 Z M258.887926,288.126832 L257.555665,289.290863 L260.2227,289.290863 L258.887926,288.126832 Z M266.421485,278.848947 L251.35688,278.848947 L258.887926,285.418635 L266.421485,278.848947 Z M163.684048,278.848947 L148.621957,278.848947 L156.153003,285.418635 L163.684048,278.848947 Z M185.025362,278.848947 L169.95573,278.848947 L177.491803,285.418635 L185.025362,278.848947 Z M205.371251,278.848947 L190.304132,278.848947 L197.840205,285.418635 L205.371251,278.848947 Z M225.722167,278.848947 L210.660076,278.848947 L218.188607,285.418635 L225.722167,278.848947 Z M246.073083,278.848947 L231.010992,278.848947 L238.539523,285.418635 L246.073083,278.848947 Z M99.5268806,278.848947 L84.4597622,278.848947 L91.9933214,285.418635 L99.5268806,278.848947 Z M772.889322,273.737519 L761.55002,283.23017 L784.231136,283.23017 L772.889322,273.737519 Z M78.1880805,278.848947 L74.4502084,278.848947 L74.4502084,282.11124 L78.1880805,278.848947 Z M759.17206,262.25184 L759.17206,281.29513 L770.541526,271.774559 L759.17206,262.25184 Z M786.609097,262.25184 L775.234604,271.774559 L786.609097,281.290835 L786.609097,262.25184 Z M43.9263482,278.848947 L42.7725598,278.848947 L43.9263482,279.854051 L43.9263482,278.848947 Z M785.721761,259.06901 L760.054369,259.06901 L772.889322,269.807304 L785.721761,259.06901 Z M489.81904,261.856671 L467.137924,261.856671 L468.165994,262.717 L488.789994,262.717 L489.81904,261.856671 Z M120.116598,256.292087 L112.859546,262.369961 L127.371137,262.369961 L120.116598,256.292087 Z M129.389638,248.530449 L121.702743,254.966982 L129.389638,261.401367 L129.389638,248.530449 Z M110.843558,248.530449 L110.843558,261.401367 L118.532967,254.966982 L110.843558,248.530449 Z M478.477225,248.307092 L465.642272,259.049681 L491.309664,259.049681 L478.477225,248.307092 Z M772.889322,246.767221 L761.55002,256.259872 L784.231136,256.259872 L772.889322,246.767221 Z M492.197,236.821413 L480.822507,246.344132 L492.197,255.864703 L492.197,236.821413 Z M464.759964,236.821413 L464.759964,255.864703 L476.129429,246.344132 L464.759964,236.821413 Z M759.17206,235.281542 L759.17206,254.324832 L770.541526,244.804261 L759.17206,235.281542 Z M786.609097,235.281542 L775.234604,244.804261 L786.609097,254.324832 L786.609097,235.281542 Z M128.791377,246.378495 L111.441819,246.378495 L120.116598,253.637581 L128.791377,246.378495 Z M588.391276,190.603798 L561.751082,190.603798 L561.751082,244.673254 C564.817796,241.252033 569.636559,239.035649 575.071179,239.035649 C580.503285,239.035649 585.319534,241.252033 588.391276,244.673254 L588.391276,244.673254 L588.391276,190.603798 Z M120.116598,238.064908 L112.447299,244.479964 L127.78087,244.479964 L120.116598,238.064908 Z M489.81904,234.884225 L467.137924,234.884225 L478.477225,244.376877 L489.81904,234.884225 Z M129.389638,230.296826 L121.702743,236.733359 L129.389638,243.169892 L129.389638,230.296826 Z M110.843558,230.298974 L110.843558,243.169892 L118.532967,236.733359 L110.843558,230.298974 Z M785.721761,232.096564 L760.054369,232.096564 L772.889322,242.839153 L785.721761,232.096564 Z M127.78087,228.988902 L112.447299,228.988902 L120.116598,235.406106 L127.78087,228.988902 Z M478.477225,221.336794 L465.642272,232.079383 L491.309664,232.079383 L478.477225,221.336794 Z M772.889322,219.79907 L761.55002,229.291722 L784.231136,229.291722 L772.889322,219.79907 Z M492.197,209.851115 L480.822507,219.371686 L492.197,228.894405 L492.197,209.851115 Z M464.759964,209.851115 L464.759964,228.894405 L476.129429,219.371686 L464.759964,209.851115 Z M786.609097,208.313391 L775.234604,217.83611 L786.609097,227.356681 L786.609097,208.313391 Z M759.17206,208.313391 L759.17206,227.356681 L770.541526,217.83611 L759.17206,208.313391 Z M491.309664,206.666137 L465.642272,206.666137 L478.477225,217.408726 L491.309664,206.666137 Z M784.231136,206.378351 L761.55002,206.378351 L772.889322,215.87315 L784.231136,206.378351 Z M478.477225,194.368643 L467.137924,203.861295 L489.81904,203.861295 L478.477225,194.368643 Z M464.759964,182.882965 L464.759964,201.926254 L476.129429,192.405683 L464.759964,182.882965 Z M492.197,182.882965 L480.822507,192.405683 L492.197,201.926254 L492.197,182.882965 Z M491.309664,179.700134 L465.642272,179.700134 L478.477225,190.442723 L491.309664,179.700134 Z M840.445012,182.973166 L834.917385,187.796808 L840.445012,187.796808 L840.445012,182.973166 Z M688.011724,178.0808 L676.868492,187.796808 L699.15747,187.796808 L688.011724,178.0808 Z M657.907652,178.0808 L646.764419,187.796808 L669.053398,187.796808 L657.907652,178.0808 Z M885.603634,186.312776 L885.603634,187.796808 L887.305409,187.796808 L885.603634,186.312776 Z M597.702021,178.0808 L595.728766,179.801074 L597.702021,179.801074 L597.702021,187.796808 L608.847767,187.796808 L597.702021,178.0808 Z M627.806093,178.0808 L616.660347,187.796808 L638.946812,187.796808 L627.806093,178.0808 Z M814.493572,178.0808 L803.350339,187.796808 L825.639318,187.796808 L814.493572,178.0808 Z M797.80009,167.181432 L792.458477,173.306554 L792.458477,187.796808 L797.80009,187.796808 L797.80009,167.181432 Z M719.576256,178.0808 L708.435537,187.796808 L730.719489,187.796808 L719.576256,178.0808 Z M736.272252,167.181432 L736.272252,187.796808 L741.694303,187.796808 L741.694303,173.392461 L736.272252,167.181432 Z M704.710234,165.113236 L704.710234,187.040832 L717.278734,176.077034 L704.710234,165.113236 Z M829.364622,165.113236 L816.791094,176.077034 L829.364622,187.040832 L829.364622,165.113236 Z M889.57528,166.388946 L885.603634,169.848824 L885.603634,182.307392 L889.57528,185.76727 L889.57528,166.388946 Z M614.395503,166.388946 L614.395503,185.76727 L625.508571,176.077034 L614.395503,166.388946 Z M641.214169,166.388946 L630.103615,176.077034 L641.214169,185.76727 L641.214169,166.388946 Z M732.986846,166.388946 L721.873778,176.077034 L732.986846,185.76727 L732.986846,166.388946 Z M671.320755,166.388946 L660.207687,176.077034 L671.320755,185.76727 L671.320755,166.388946 Z M832.652541,166.388946 L832.652541,185.76727 L840.445012,178.965635 L840.445012,173.188433 L832.652541,166.388946 Z M801.085496,166.388946 L801.085496,185.76727 L812.19605,176.077034 L801.085496,166.388946 Z M644.499575,166.388946 L644.499575,185.765123 L655.61013,176.077034 L644.499575,166.388946 Z M701.424828,166.388946 L690.31176,176.077034 L701.424828,185.765123 L701.424828,166.388946 Z M674.59862,166.388946 L674.59862,185.765123 L685.714202,176.077034 L674.59862,166.388946 Z M611.107583,166.388946 L600.002056,176.077034 L611.107583,185.765123 L611.107583,166.388946 Z M581.003511,166.388946 L569.892957,176.077034 L574.166247,179.801074 L581.003511,179.801074 L581.003511,166.388946 Z M567.595435,178.0808 L565.627207,179.801074 L569.568689,179.801074 L567.595435,178.0808 Z M554.187358,166.388946 L554.187358,179.801074 L561.024623,179.801074 L565.297913,176.077034 L554.187358,166.388946 Z M584.291431,166.388946 L584.291431,179.801074 L591.133722,179.801074 L595.401985,176.077034 L584.291431,166.388946 Z M478.477225,167.400493 L467.137924,176.893144 L489.81904,176.893144 L478.477225,167.400493 Z M464.759964,155.916962 L464.759964,174.960252 L476.129429,165.437533 L464.759964,155.916962 Z M492.197,155.916962 L480.822507,165.437533 L492.197,174.955956 L492.197,155.916962 Z M730.719489,164.352965 L708.435537,164.352965 L719.576256,174.073269 L730.719489,164.352965 Z M699.15747,164.352965 L676.868492,164.352965 L688.011724,174.073269 L699.15747,164.352965 Z M608.840226,164.352965 L586.558788,164.352965 L597.702021,174.073269 L608.840226,164.352965 Z M578.738667,164.352965 L556.452202,164.352965 L567.595435,174.073269 L578.738667,164.352965 Z M825.639318,164.352965 L803.350339,164.352965 L814.493572,174.073269 L825.639318,164.352965 Z M638.946812,164.352965 L616.660347,164.352965 L627.806093,174.073269 L638.946812,164.352965 Z M669.053398,164.352965 L646.764419,164.352965 L657.907652,174.073269 L669.053398,164.352965 Z M840.445012,164.352965 L834.917385,164.352965 L840.445012,169.180902 L840.445012,164.352965 Z M887.305409,164.352965 L885.603634,164.352965 L885.603634,165.839145 L887.305409,164.352965 Z M491.309664,152.731984 L465.642272,152.731984 L478.477225,163.470277 L491.309664,152.731984 Z M478.477225,140.432342 L467.137924,149.922846 L489.81904,149.922846 L478.477225,140.432342 Z M492.197,128.944516 L480.822507,138.469382 L492.197,147.987806 L492.197,128.944516 Z M464.759964,128.944516 L464.759964,147.987806 L476.129429,138.469382 L464.759964,128.944516 Z M772.889322,130.984792 L762.155822,139.974891 L783.625335,139.974891 L772.889322,130.984792 Z M786.609097,119.501261 L775.234604,129.021832 L786.609097,138.542403 L786.609097,119.501261 Z M759.17206,119.501261 L759.17206,138.542403 L770.541526,129.021832 L759.17206,119.501261 Z M491.309664,125.761686 L465.642272,125.761686 L478.477225,136.502127 L491.309664,125.761686 Z M785.721761,116.316283 L760.054369,116.316283 L772.889322,127.056724 L785.721761,116.316283 Z M478.477225,113.462044 L467.137924,122.954696 L489.81904,122.954696 L478.477225,113.462044 Z M492.197,101.976365 L480.822507,111.499084 L492.197,121.019655 L492.197,101.976365 Z M464.759964,101.976365 L464.759964,121.019655 L476.129429,111.499084 L464.759964,101.976365 Z M772.889322,104.016641 L761.55002,113.509293 L784.231136,113.509293 L772.889322,104.016641 Z M786.609097,92.53311 L775.234604,102.049386 L786.609097,111.572105 L786.609097,92.53311 Z M759.17206,92.5309623 L759.17206,111.572105 L770.541526,102.049386 L759.17206,92.5309623 Z M489.81904,100.041325 L467.137924,100.041325 L478.477225,109.536124 L489.81904,100.041325 Z M784.231136,90.5937742 L761.55002,90.5937742 L772.889322,100.086426 L784.231136,90.5937742 Z" opacity="1.00"></path><path id="shadow--globalStyle1/bg2/builders/bg3" fill="#000" fill-opacity=".08" d="M937.6875,689.0625 C922.320505,640.849109 890.22483,616.742414 841.400473,616.742414 C768.163939,616.742414 702.779004,667.71664 662.134844,587.980079 C621.490684,508.243517 561.92093,517.409236 509.550895,587.980079 C457.180859,658.550921 444.439607,516.305083 357.689805,610.3125 C270.940002,704.319917 249.120339,551.497332 211.01998,551.497332 C172.919622,551.497332 192.801959,699.584698 133.889373,587.980079 C94.6143152,513.576999 50.0470243,547.271139 0.1875,689.0625 L937.6875,689.0625 Z"></path></g></g></svg></g></g></svg>