<?xml version="1.0" encoding="UTF-8"?>
<svg id="illustration-builder" width="938" height="826" viewBox="-10 -30 1008 886" version="1.1" xmlns="http://www.w3.org/2000/svg" xmlns:xlink="http://www.w3.org/1999/xlink" style="pointer-events: none;"><g transform="translate(0,1)">
<g><svg xmlns="http://www.w3.org/2000/svg" width="937" height="825" viewBox="0 0 937 825"><g id="Symbols--globalStyle1/bg2/builders/bg4" fill="none" fill-rule="evenodd" stroke="none" stroke-width="1"><g id="globalStyle1/bg2/builders/bg4--globalStyle1/bg2/builders/bg4"><path id="Combined-Shape-Copy--globalStyle1/bg2/builders/bg4" fill="#000" fill-opacity=".04" d="M700.959347,31.875 L701.3285,32.132 L701.438337,32.0692656 L701.5705,32.3 L851.1925,136.147 L861.2775,136.147 L861.277962,118.772671 L886.65656,118.772671 L886.65656,160.160359 L873.9665,160.16 L873.967261,207.599335 L846.440277,207.599335 L846.4395,179.013 L739.5235,179.013 L739.523509,690 L734.056746,690 L734.0565,684.858 L692.4735,684.858 L692.474164,690 L687.0074,690 L687.0065,179.013 L537.3835,179.013 L521.8855,409.131 L527.52898,409.131474 L527.52898,420.101121 L521.7654,441.410663 L519.878634,441.410443 C519.8843,441.436728 519.88975,441.463419 519.894985,441.490757 C520.336284,443.775773 521.755978,444.832691 523.728473,445.873904 C527.353089,447.793004 531.057799,449.708962 533.576813,453.204801 C535.049903,455.244826 535.806864,457.451319 535.831991,458.932261 C536.007882,462.534891 535.571295,465.429245 534.658859,467.755093 C532.669089,472.833954 528.41786,475.199063 523.346851,476.295243 C517.795283,477.498213 512.711711,476.365913 508.436925,472.439769 C504.40713,468.741341 502.075,464.055094 500.738541,458.831752 C500.718125,458.748518 500.707132,458.663713 500.703991,458.575767 C500.678863,457.677465 501.62742,457.030437 502.445628,457.405776 C502.541426,457.448178 502.624661,457.501574 502.698472,457.570674 C504.259507,459.007643 505.731026,460.543551 507.194693,462.082599 C509.321093,464.318931 511.493036,466.347963 514.831829,466.662054 C519.467821,467.097071 522.947955,464.095926 523.004491,459.448942 C523.024907,457.69317 522.322913,456.304885 520.988024,455.262101 C519.361029,453.991601 517.620962,452.864012 515.998679,451.58723 C512.422489,448.774241 511.23361,444.871897 513.021946,441.410606 L510.139301,441.410663 L504.377291,420.101121 L504.377291,409.131474 L510.7245,409.131 L495.2265,179.013 L335.5625,179.013862 L335.5625,174.552191 L336.5825,174.552 L403.481659,135.928038 L403.6075,136.147 L521.1695,136.147 L700.4135,32.66 L700.959347,31.875 Z M712.9795,660.345 L694.8685,680.434 L731.0905,680.434 L712.9795,660.345 Z M734.0565,636.966 L715.4325,657.624 L734.0565,678.282 L734.0565,636.966 Z M692.4735,637.601 L692.4735,677.647 L710.5255,657.624 L692.4735,637.601 Z M731.3815,634.49 L694.5775,634.49 L712.9795,654.902 L731.3815,634.49 Z M712.9795,609.977 L694.8685,630.066 L731.0905,630.066 L712.9795,609.977 Z M734.0565,586.598 L715.4325,607.256 L734.0565,627.914 L734.0565,586.598 Z M692.4735,587.233 L692.4735,627.279 L710.5255,607.256 L692.4735,587.233 Z M731.3825,584.122 L694.5765,584.122 L712.9795,604.534 L731.3825,584.122 Z M712.9795,559.609 L694.8685,579.697 L731.0905,579.697 L712.9795,559.609 Z M734.0565,536.23 L715.4325,556.888 L734.0565,577.546 L734.0565,536.23 Z M692.4735,536.865 L692.4735,576.911 L710.5255,556.888 L692.4735,536.865 Z M731.3815,533.755 L694.5775,533.755 L712.9795,554.166 L731.3815,533.755 Z M712.9795,509.241 L694.8685,529.329 L731.0905,529.329 L712.9795,509.241 Z M734.0565,485.863 L715.4325,506.52 L734.0565,527.177 L734.0565,485.863 Z M692.4735,486.498 L692.4735,526.542 L710.5255,506.52 L692.4735,486.498 Z M731.3815,483.387 L694.5775,483.387 L712.9795,503.798 L731.3815,483.387 Z M712.9795,458.874 L694.8695,478.961 L731.0895,478.961 L712.9795,458.874 Z M734.0565,435.495 L715.4335,456.152 L734.0565,476.809 L734.0565,435.495 Z M692.4735,436.13 L692.4735,476.174 L710.5255,456.152 L692.4735,436.13 Z M731.3815,433.019 L694.5775,433.019 L712.9795,453.43 L731.3815,433.019 Z M712.9795,408.506 L694.8685,428.594 L731.0905,428.594 L712.9795,408.506 Z M734.0565,385.127 L715.4325,405.784 L734.0565,426.441 L734.0565,385.127 Z M692.4735,385.762 L692.4735,425.806 L710.5255,405.784 L692.4735,385.762 Z M534.8385,179.013 L497.7715,179.013 L513.2685,409.131 L519.3405,409.131 L534.8385,179.013 Z M731.3825,382.651 L694.5765,382.651 L712.9795,403.062 L731.3825,382.651 Z M712.9795,358.137 L694.8685,378.226 L731.0905,378.226 L712.9795,358.137 Z M734.0565,334.758 L715.4325,355.416 L734.0565,376.074 L734.0565,334.758 Z M692.4735,335.393 L692.4735,375.439 L710.5255,355.416 L692.4735,335.393 Z M731.3835,332.282 L694.5755,332.282 L712.9795,352.695 L731.3835,332.282 Z M712.9795,307.77 L694.8695,327.858 L731.0895,327.858 L712.9795,307.77 Z M734.0565,284.39 L715.4325,305.048 L734.0565,325.706 L734.0565,284.39 Z M692.4735,285.025 L692.4735,325.071 L710.5255,305.048 L692.4735,285.025 Z M731.3825,281.914 L694.5765,281.914 L712.9795,302.326 L731.3825,281.914 Z M712.9795,257.402 L694.8695,277.49 L731.0895,277.49 L712.9795,257.402 Z M734.0565,234.022 L715.4325,254.68 L734.0565,275.338 L734.0565,234.022 Z M692.4735,234.657 L692.4735,274.703 L710.5255,254.68 L692.4735,234.657 Z M731.3815,231.547 L694.5775,231.547 L712.9795,251.958 L731.3815,231.547 Z M712.9795,206.042 L693.9765,227.121 L731.9825,227.121 L712.9795,206.042 Z M734.0565,182.662 L715.4335,203.32 L734.0565,223.978 L734.0565,182.662 Z M692.4735,183.297 L692.4735,223.343 L710.5255,203.32 L692.4735,183.297 Z M732.4395,179.013 L693.5195,179.013 L712.9795,200.598 L732.4395,179.013 Z M837.4615,159.35 L820.5995,174.552 L846.4395,174.552 L846.4395,167.444 L837.4615,159.35 Z M713.3095,159.35 L696.4485,174.552 L730.1705,174.552 L713.3095,159.35 Z M754.4245,159.35 L737.5635,174.552 L771.2855,174.552 L754.4245,159.35 Z M403.2815,141.196 L345.5065,174.552 L403.2815,174.552 L403.2815,141.196 Z M795.5375,159.35 L778.6765,174.552 L812.3985,174.552 L795.5375,159.35 Z M672.1955,159.35 L655.3345,174.552 L689.0575,174.552 L672.1955,159.35 Z M631.0815,159.35 L614.2215,174.552 L647.9435,174.552 L631.0815,159.35 Z M589.9675,159.35 L573.1065,174.552 L606.8285,174.552 L589.9675,159.35 Z M565.7155,174.552 L549.7395,160.149 L549.739965,174.552191 L565.7155,174.552 Z M466.6255,159.35 L449.7645,174.552 L482.632733,174.552191 L482.6325,173.781 L466.6255,159.35 Z M425.5115,159.35 L408.6515,174.552 L442.3735,174.552 L425.5115,159.35 Z M818.0335,141.834 L818.0335,172.86 L835.2405,157.347 L818.0335,141.834 Z M649.9645,142.325 L633.3035,157.347 L649.9645,172.369 L649.9645,142.325 Z M567.7365,142.325 L551.0755,157.347 L567.7365,172.369 L567.7365,142.325 Z M608.8515,142.325 L592.1895,157.347 L608.8515,172.369 L608.8515,142.325 Z M691.0795,142.325 L674.4175,157.347 L691.0795,172.369 L691.0795,142.325 Z M814.4215,142.325 L797.7595,157.347 L814.4215,172.369 L814.4215,142.325 Z M773.3065,142.325 L756.6455,157.347 L773.3065,172.369 L773.3065,142.325 Z M444.3945,142.325 L427.7335,157.347 L444.3945,172.369 L444.3945,142.325 Z M732.1925,142.326 L715.5315,157.347 L732.1925,172.368 L732.1925,142.326 Z M571.3485,142.562 L571.3485,172.132 L587.7465,157.347 L571.3485,142.562 Z M735.8045,142.563 L735.8045,172.131 L752.2025,157.347 L735.8045,142.563 Z M448.0065,142.563 L448.0065,172.131 L464.4045,157.347 L448.0065,142.563 Z M776.9185,142.563 L776.9185,172.131 L793.3165,157.347 L776.9185,142.563 Z M694.6915,142.563 L694.6915,172.131 L711.0885,157.347 L694.6915,142.563 Z M653.5765,142.563 L653.5765,172.131 L669.9745,157.347 L653.5765,142.563 Z M406.8935,142.564 L406.8935,172.13 L423.2905,157.347 L406.8935,142.564 Z M612.4635,142.564 L612.4635,172.13 L628.8605,157.347 L612.4635,142.564 Z M485.5095,142.325 L468.8475,157.347 L482.6325,169.775 L482.632733,157.527957 L485.5095,157.527 L485.5095,142.325 Z M846.4395,151.255 L839.6825,157.347 L846.4395,163.439 L846.4395,151.255 Z M489.1215,142.563 L489.1215,157.527 L505.3195,157.527 L505.5195,157.347 L489.1215,142.563 Z M526.6235,142.325 L509.9615,157.347 L510.1615,157.527 L526.6235,157.527 L526.6235,142.325 Z M530.2355,142.564 L530.2355,157.527 L546.4325,157.527 L546.6325,157.347 L530.2355,142.564 Z M846.4395,140.609 L821.1165,140.609 L837.4615,155.345 L846.4395,147.251 L846.4395,140.609 Z M688.5405,140.609 L655.8515,140.609 L672.1965,155.345 L688.5405,140.609 Z M524.0845,140.609 L491.3955,140.609 L507.7405,155.345 L524.0845,140.609 Z M482.9705,140.609 L450.2815,140.609 L466.6265,155.345 L482.9705,140.609 Z M606.3115,140.609 L573.6235,140.609 L589.9685,155.344 L606.3115,140.609 Z M811.8815,140.609 L779.1935,140.609 L795.5375,155.344 L811.8815,140.609 Z M441.8565,140.609 L409.1685,140.609 L425.5125,155.344 L441.8565,140.609 Z M729.6535,140.609 L696.9655,140.609 L713.3105,155.344 L729.6535,140.609 Z M770.7685,140.609 L738.0805,140.609 L754.4245,155.344 L770.7685,140.609 Z M565.1985,140.609 L532.5105,140.609 L548.8545,155.344 L565.1985,140.609 Z M647.4265,140.609 L614.7385,140.609 L631.0825,155.344 L647.4265,140.609 Z M705.8935,40.731 L718.9065,136.147 L843.3665,136.147 L705.8935,40.731 Z M696.6135,40.005 L530.0915,136.147 L683.5015,136.147 L696.6135,40.005 Z M714.7355,126.666 L687.6725,126.666 L686.3795,136.147 L716.0285,136.147 L714.7355,126.666 Z M712.2475,108.425 L690.1605,108.425 L688.1655,123.054 L714.2425,123.054 L712.2475,108.425 Z M709.7595,90.185 L692.6485,90.185 L690.6535,104.813 L711.7545,104.813 L709.7595,90.185 Z M707.2715,71.944 L695.1365,71.944 L693.1415,86.572 L709.2665,86.572 L707.2715,71.944 Z M704.7845,53.703 L697.6235,53.703 L695.6285,68.332 L706.7795,68.332 L704.7845,53.703 Z M701.1085,37.41 L699.7375,38.202 L698.1165,50.091 L704.2915,50.091 L702.7145,38.525 L701.1085,37.41 Z"></path><path id="Combined-Shape-Copy-2--globalStyle1/bg2/builders/bg4" fill="#000" fill-opacity=".04" d="M380.938119,276.5625 L381.170945,276.7235 L381.239023,276.684539 L381.322945,276.8295 L475.314945,342.0665 L481.650945,342.0665 L481.651095,331.152062 L497.59406,331.152062 L497.59406,357.15202 L489.621945,357.1515 L489.622577,386.953428 L472.329985,386.953428 L472.329945,368.9955 L405.163945,368.9955 L405.164323,690 L401.730074,690 L401.729945,686.7695 L375.606945,686.7695 L375.607683,690 L372.173434,690 L372.172945,368.9955 L278.178945,368.9955 L268.442945,513.5565 L271.988273,513.556951 L271.988273,520.44814 L268.367562,533.834904 L267.182206,533.834396 C267.185794,533.851027 267.189245,533.867917 267.192558,533.885219 C267.469784,535.320678 268.361643,535.984639 269.600774,536.638735 C271.877777,537.844323 274.205095,539.047938 275.787553,541.244042 C276.712955,542.525596 277.188482,543.911726 277.204267,544.842061 C277.314762,547.105252 277.040496,548.9235 276.467299,550.38461 C275.217315,553.575176 272.546671,555.06095 269.361038,555.749575 C265.873514,556.505288 262.679988,555.793971 259.994546,553.327547 C257.463008,551.004175 255.997952,548.060252 255.158381,544.778921 C255.145556,544.726633 255.13865,544.673358 255.136677,544.61811 C255.120892,544.053792 255.71678,543.647326 256.230783,543.883116 C256.290963,543.909753 256.343251,543.943297 256.38962,543.986706 C257.37027,544.889417 258.294686,545.854282 259.214169,546.82112 C260.549984,548.225995 261.91441,549.500643 264.011857,549.697957 C266.924211,549.971237 269.110449,548.085902 269.145966,545.166643 C269.158791,544.063658 268.717795,543.19153 267.87921,542.536448 C266.857124,541.738313 265.764005,541.029956 264.744879,540.227875 C262.498283,538.460731 261.751428,536.009239 262.8749,533.834828 L261.063987,533.834904 L257.444263,520.44814 L257.444263,513.556951 L261.431945,513.5565 L251.695945,368.9955 L151.393945,368.995887 L151.393945,366.193043 L152.034945,366.1925 L194.06111,341.929152 L194.140945,342.0665 L267.992945,342.0665 L380.594945,277.0565 L380.938119,276.5625 Z M388.487945,671.3705 L377.110945,683.9905 L399.865945,683.9905 L388.487945,671.3705 Z M401.729945,656.6835 L390.029945,669.6605 L401.729945,682.6385 L401.729945,656.6835 Z M375.606945,657.0825 L375.606945,682.2395 L386.946945,669.6615 L375.606945,657.0825 Z M400.048945,655.1285 L376.927945,655.1285 L388.488945,667.9515 L400.048945,655.1285 Z M388.487945,639.7295 L377.110945,652.3495 L399.865945,652.3495 L388.487945,639.7295 Z M401.729945,625.0425 L390.029945,638.0195 L401.729945,650.9975 L401.729945,625.0425 Z M375.606945,625.4415 L375.606945,650.5985 L386.946945,638.0195 L375.606945,625.4415 Z M400.048945,623.4865 L376.927945,623.4865 L388.488945,636.3095 L400.048945,623.4865 Z M388.487945,608.0875 L377.111945,620.7065 L399.864945,620.7065 L388.487945,608.0875 Z M401.729945,593.4005 L390.029945,606.3775 L401.729945,619.3555 L401.729945,593.4005 Z M375.606945,593.7995 L375.606945,618.9565 L386.946945,606.3785 L375.606945,593.7995 Z M400.048945,591.8455 L376.927945,591.8455 L388.488945,604.6685 L400.048945,591.8455 Z M388.487945,576.4465 L377.110945,589.0655 L399.865945,589.0655 L388.487945,576.4465 Z M401.729945,561.7595 L390.029945,574.7365 L401.729945,587.7135 L401.729945,561.7595 Z M375.606945,562.1585 L375.606945,587.3145 L386.946945,574.7365 L375.606945,562.1585 Z M400.048945,560.2045 L376.927945,560.2045 L388.488945,573.0265 L400.048945,560.2045 Z M388.487945,544.8055 L377.110945,557.4245 L399.865945,557.4245 L388.487945,544.8055 Z M401.729945,530.1185 L390.029945,543.0955 L401.729945,556.0725 L401.729945,530.1185 Z M375.606945,530.5175 L375.606945,555.6735 L386.946945,543.0955 L375.606945,530.5175 Z M400.048945,528.5635 L376.927945,528.5635 L388.488945,541.3855 L400.048945,528.5635 Z M388.487945,513.1635 L377.110945,525.7835 L399.865945,525.7835 L388.487945,513.1635 Z M401.729945,498.4765 L390.029945,511.4535 L401.729945,524.4315 L401.729945,498.4765 Z M375.606945,498.8755 L375.606945,524.0325 L386.946945,511.4545 L375.606945,498.8755 Z M276.579945,368.9955 L253.293945,368.9955 L263.028945,513.5565 L266.844945,513.5565 L276.579945,368.9955 Z M400.048945,496.9215 L376.927945,496.9215 L388.488945,509.7445 L400.048945,496.9215 Z M388.487945,481.5225 L377.111945,494.1415 L399.864945,494.1415 L388.487945,481.5225 Z M401.729945,466.8345 L390.029945,479.8125 L401.729945,492.7895 L401.729945,466.8345 Z M375.606945,467.2335 L375.606945,492.3905 L386.946945,479.8125 L375.606945,467.2335 Z M400.049945,465.2795 L376.926945,465.2795 L388.488945,478.1025 L400.049945,465.2795 Z M388.487945,449.8805 L377.110945,462.5005 L399.865945,462.5005 L388.487945,449.8805 Z M401.729945,435.1935 L390.029945,448.1705 L401.729945,461.1485 L401.729945,435.1935 Z M375.606945,435.5925 L375.606945,460.7495 L386.946945,448.1715 L375.606945,435.5925 Z M400.048945,433.6385 L376.927945,433.6385 L388.488945,446.4615 L400.048945,433.6385 Z M388.487945,418.2395 L377.110945,430.8595 L399.865945,430.8595 L388.487945,418.2395 Z M401.729945,403.5525 L390.029945,416.5295 L401.729945,429.5075 L401.729945,403.5525 Z M375.606945,403.9515 L375.606945,429.1085 L386.946945,416.5305 L375.606945,403.9515 Z M400.048945,401.9975 L376.927945,401.9975 L388.488945,414.8205 L400.048945,401.9975 Z M388.487945,385.9745 L376.549945,399.2165 L400.426945,399.2165 L388.487945,385.9745 Z M401.729945,371.2875 L390.029945,384.2645 L401.729945,397.2425 L401.729945,371.2875 Z M375.606945,371.6865 L375.606945,396.8435 L386.946945,384.2655 L375.606945,371.6865 Z M400.712945,368.9955 L376.263945,368.9955 L388.488945,382.5555 L400.712945,368.9955 Z M466.688945,356.6435 L456.096945,366.1925 L472.329945,366.1925 L472.329945,361.7295 L466.688945,356.6435 Z M388.696945,356.6435 L378.104945,366.1925 L399.287945,366.1925 L388.696945,356.6435 Z M414.524945,356.6435 L403.932945,366.1925 L425.116945,366.1925 L414.524945,356.6435 Z M193.934945,345.2385 L157.640945,366.1925 L193.934945,366.1925 L193.934945,345.2385 Z M440.352945,356.6435 L429.760945,366.1925 L450.943945,366.1925 L440.352945,356.6435 Z M362.868945,356.6435 L352.276945,366.1925 L373.460945,366.1925 L362.868945,356.6435 Z M337.039945,356.6435 L326.448945,366.1925 L347.631945,366.1925 L337.039945,356.6435 Z M311.212945,356.6435 L300.620945,366.1925 L321.803945,366.1925 L311.212945,356.6435 Z M295.976945,366.1925 L285.940945,357.1445 L285.941327,366.193043 L295.976945,366.1925 Z M233.728945,356.6435 L223.136945,366.1925 L243.78422,366.193043 L243.783945,365.7085 L233.728945,356.6435 Z M207.899945,356.6435 L197.308945,366.1925 L218.491945,366.1925 L207.899945,356.6435 Z M454.483945,345.6395 L454.483945,365.1305 L465.293945,355.3855 L454.483945,345.6395 Z M219.762945,345.9475 L209.295945,355.3855 L219.762945,364.8225 L219.762945,345.9475 Z M348.902945,345.9475 L338.435945,355.3855 L348.902945,364.8225 L348.902945,345.9475 Z M323.074945,345.9485 L312.607945,355.3855 L323.074945,364.8215 L323.074945,345.9485 Z M426.386945,345.9485 L415.919945,355.3855 L426.386945,364.8215 L426.386945,345.9485 Z M400.558945,345.9485 L390.091945,355.3855 L400.558945,364.8215 L400.558945,345.9485 Z M374.730945,345.9485 L364.263945,355.3855 L374.730945,364.8215 L374.730945,345.9485 Z M297.246945,345.9485 L286.779945,355.3855 L297.246945,364.8215 L297.246945,345.9485 Z M452.214945,345.9485 L441.747945,355.3855 L452.214945,364.8215 L452.214945,345.9485 Z M428.655945,346.0975 L428.655945,364.6725 L438.956945,355.3855 L428.655945,346.0975 Z M222.031945,346.0975 L222.031945,364.6725 L232.333945,355.3855 L222.031945,346.0975 Z M351.171945,346.0975 L351.171945,364.6725 L361.473945,355.3855 L351.171945,346.0975 Z M376.999945,346.0975 L376.999945,364.6725 L387.300945,355.3855 L376.999945,346.0975 Z M299.515945,346.0975 L299.515945,364.6725 L309.816945,355.3855 L299.515945,346.0975 Z M196.203945,346.0985 L196.203945,364.6715 L206.504945,355.3855 L196.203945,346.0985 Z M402.827945,346.0985 L402.827945,364.6715 L413.128945,355.3855 L402.827945,346.0985 Z M325.343945,346.0985 L325.343945,364.6715 L335.644945,355.3855 L325.343945,346.0985 Z M245.590945,345.9485 L235.123945,355.3855 L243.783945,363.1925 L243.78422,355.498332 L245.590945,355.4975 L245.590945,345.9485 Z M472.329945,351.5575 L468.083945,355.3855 L472.329945,359.2135 L472.329945,351.5575 Z M247.859945,346.0975 L247.859945,355.4975 L258.036945,355.4975 L258.160945,355.3855 L247.859945,346.0975 Z M271.419945,345.9475 L260.951945,355.3855 L261.075945,355.4975 L271.419945,355.4975 L271.419945,345.9475 Z M273.688945,346.0995 L273.688945,355.4975 L283.864945,355.4975 L283.988945,355.3855 L273.688945,346.0995 Z M218.168945,344.8695 L197.631945,344.8695 L207.899945,354.1275 L218.168945,344.8695 Z M243.997945,344.8695 L223.459945,344.8695 L233.728945,354.1275 L243.997945,344.8695 Z M424.792945,344.8695 L404.255945,344.8695 L414.524945,354.1275 L424.792945,344.8695 Z M295.652945,344.8695 L275.115945,344.8695 L285.384945,354.1275 L295.652945,344.8695 Z M398.964945,344.8695 L378.427945,344.8695 L388.696945,354.1275 L398.964945,344.8695 Z M321.480945,344.8695 L300.943945,344.8695 L311.212945,354.1275 L321.480945,344.8695 Z M472.329945,344.8695 L456.419945,344.8695 L466.688945,354.1275 L472.329945,349.0415 L472.329945,344.8695 Z M347.308945,344.8695 L326.771945,344.8695 L337.039945,354.1275 L347.308945,344.8695 Z M450.620945,344.8695 L430.083945,344.8695 L440.352945,354.1275 L450.620945,344.8695 Z M373.137945,344.8695 L352.599945,344.8695 L362.868945,354.1275 L373.137945,344.8695 Z M269.824945,344.8695 L249.287945,344.8695 L259.556945,354.1275 L269.824945,344.8695 Z M384.037945,282.1255 L392.212945,342.0665 L470.397945,342.0665 L384.037945,282.1255 Z M378.206945,281.6705 L273.597945,342.0665 L369.970945,342.0665 L378.206945,281.6705 Z M389.592945,336.1105 L372.589945,336.1105 L371.777945,342.0665 L390.404945,342.0665 L389.592945,336.1105 Z M388.029945,324.6515 L374.152945,324.6515 L372.899945,333.8415 L389.282945,333.8415 L388.029945,324.6515 Z M386.466945,313.1925 L375.715945,313.1925 L374.462945,322.3825 L387.719945,322.3825 L386.466945,313.1925 Z M384.903945,301.7335 L377.278945,301.7335 L376.025945,310.9235 L386.156945,310.9235 L384.903945,301.7335 Z M383.340945,290.2745 L378.841945,290.2745 L377.588945,299.4645 L384.593945,299.4645 L383.340945,290.2745 Z M381.031945,280.0395 L380.169945,280.5375 L379.151945,288.0055 L383.031945,288.0055 L382.040945,280.7395 L381.031945,280.0395 Z" transform="matrix(-1 0 0 1 648.988 0)"></path><path id="shadow--globalStyle1/bg2/builders/bg4" fill="#000" fill-opacity=".04" d="M-0.0625,690 L937.4375,690 C899.968191,469.072833 817.444851,366.100942 689.867481,381.084325 C498.501426,403.5594 399.42668,609.371393 329.542822,609.371393 C259.658965,609.371393 249.513857,417.623082 145.442143,444.834947 C76.061001,462.976191 27.5594532,544.697875 -0.0625,690 Z"></path><path id="[color:background]background--globalStyle1/bg2/builders/bg4" fill="#ffeddf" d="M937.4375,690 C922.070505,662.7023 889.97483,649.05345 841.150473,649.05345 C767.913939,649.05345 702.529004,677.914294 661.884844,632.768647 C621.240684,587.623 561.67093,592.812493 509.300895,632.768647 C456.930859,672.724801 444.189607,592.187338 357.439805,645.412929 C270.690002,698.638521 248.870339,612.112662 210.76998,612.112662 C172.669622,612.112662 192.551959,695.957511 133.639373,632.768647 C94.3643152,590.642738 49.7970243,609.719855 -0.0625,690 L937.4375,690 Z" opacity="1.00"></path></g></g></svg></g></g></svg>