<?xml version="1.0" encoding="UTF-8"?>
<svg id="illustration-builder" width="1000" height="880" viewBox="-10 -30 1070 940" version="1.1" xmlns="http://www.w3.org/2000/svg" xmlns:xlink="http://www.w3.org/1999/xlink" style="pointer-events: none;"><g transform="translate(121.5,166.5)">
<g><svg xmlns="http://www.w3.org/2000/svg" width="757" height="547" viewBox="0 0 757 547"><g id="Symbols--globalStyle1/bgelements/phone/4" fill="none" fill-rule="evenodd" stroke="none" stroke-width="1"><g id="globalStyle1/bgelements/phone/4--globalStyle1/bgelements/phone/4"><g id="Group-13--globalStyle1/bgelements/phone/4" transform="translate(72.5)"><g id="Group-4--globalStyle1/bgelements/phone/4" transform="translate(369.081 174.577)"><path id="Path-68-Copy-3--globalStyle1/bgelements/phone/4" fill="#FFF4BD" d="M173.972206,281.6141 C157.303036,234.115111 141.080076,204.842117 125.303328,193.795119 C101.638205,177.224622 97.7062743,132.563303 109.544166,99.5054597 C121.382057,66.4476162 62.8441732,53.0022359 45.6697689,20.7305503 C28.4953646,-11.5411354 20.4784292,66.054113 41.9931519,91.498609 C63.5078746,116.943105 65.6991264,125.173528 40.7010223,160.874521 C24.0356195,184.675183 68.4593474,224.921709 173.972206,281.6141 Z" transform="scale(-1 1) rotate(-13 0 1038.04)"></path><path id="Path-79-Copy-3--globalStyle1/bgelements/phone/4" fill="#FFE978" fill-rule="nonzero" d="M117.756856,50.5295274 C117.391005,49.9295486 117.580804,49.146589 118.180783,48.7807382 C118.780761,48.4148874 119.563721,48.6046857 119.929572,49.2046646 C147.186231,93.9043633 157.107372,124.947258 149.479736,142.578872 C136.143562,173.406022 138.815326,212.973704 161.696889,242.268393 C162.12946,242.822202 162.031176,243.621821 161.477368,244.054391 C160.923559,244.486961 160.12394,244.388678 159.69137,243.834869 C136.432076,214.056582 133.51567,174.012666 146.738507,142.520147 L147.144135,141.568465 C154.322422,124.975541 144.597749,94.5473878 117.756856,50.5295274 Z" transform="scale(-1 1) rotate(-13 0 1373.193)"></path></g><g id="Group-3--globalStyle1/bgelements/phone/4" transform="translate(394.144 284.055)"><path id="Path-67-Copy-3--globalStyle1/bgelements/phone/4" fill="#EDF3F7" d="M126.152781,249.162044 C111.472351,236.554162 105.509955,224.282227 108.265595,212.34624 C112.399054,194.44226 120.678111,187.482052 111.299828,173.198576 C101.921545,158.915099 78.1474653,178.593363 68.1196581,157.543213 C58.0918508,136.493063 85.2682736,110.536913 70.7008188,96.6880387 C56.1333639,82.8391641 18.564704,61.1972331 45.4395448,26.9806503 C72.3143857,-7.23593241 92.1831699,67.1224047 106.048373,70.323439 C119.913575,73.5244732 148.325228,57.9356784 164.334281,83.7798011 C180.343333,109.623924 142.85313,174.796794 160.836073,178.948484 C178.819015,183.100173 184.769458,199.67576 179.5233,222.399368 C176.025861,237.54844 158.235688,246.469332 126.152781,249.162044 Z" transform="scale(-1 1) rotate(-20 0 749.925)"></path><path id="Combined-Shape-Copy-3--globalStyle1/bgelements/phone/4" fill="#BEDEF4" fill-rule="nonzero" d="M133.278921,192.693036 L133.392056,192.70038 L176.777995,198.039263 C177.309994,198.104728 177.688195,198.589069 177.622729,199.121068 C177.56194,199.615067 177.139977,199.976454 176.654059,199.973145 L176.540924,199.965802 L133.154985,194.626919 C132.622986,194.561453 132.244786,194.077113 132.310251,193.545113 C132.37104,193.051114 132.793003,192.689727 133.278921,192.693036 Z M58.2185746,42.9515643 L61.2057425,45.9623874 C92.6423645,77.714496 110.432893,97.8423191 114.765453,106.588352 L115.023321,107.122037 C116.563642,110.302197 119.497317,115.444096 123.821071,122.542134 L136.088478,82.4578635 C136.24533,81.9453146 136.787986,81.656965 137.300535,81.8138166 C137.776473,81.9594645 138.059097,82.4377705 137.971459,82.9157322 L137.944582,83.0258733 L125.174401,124.753829 C132.195916,136.180183 142.448926,152.153705 155.921826,172.654539 L160.53581,179.661541 C160.830749,180.108612 160.707326,180.710599 160.259907,181.005768 C159.812488,181.300937 159.210501,181.177514 158.915332,180.730095 L153.6485,172.729447 C147.834784,163.877947 142.630569,155.883693 138.034946,148.745152 L94.9606099,144.964921 C94.4266501,144.918062 94.031777,144.447215 94.0786361,143.913256 C94.1221481,143.417436 94.5312413,143.041543 95.0169792,143.027892 L95.1303016,143.031282 L136.706707,146.679391 C124.194817,127.195334 116.435908,114.394041 113.410094,108.242039 L113.017431,107.432295 C110.018416,101.383796 100.109809,89.4190896 83.3597039,71.6263763 L83.3135667,71.6319023 L83.3135667,71.6319023 L83.2386116,71.6285119 L54.4359784,67.8070287 C54.0828,67.7601696 53.8216181,67.2893229 53.8526122,66.7553631 C53.8813925,66.2595434 54.15198,65.8836504 54.4732629,65.8699991 L54.548218,65.8733894 L81.2759765,69.4201322 C75.0071553,62.803645 67.8412183,55.4231012 59.7814009,47.2826915 L56.8417944,44.3198596 C56.4641182,43.9399708 56.465913,43.3254643 56.8460361,42.9475553 C57.2261592,42.5696463 57.8406656,42.5714412 58.2185746,42.9515643 Z" transform="scale(-1 1) rotate(-20 0 777.714)"></path></g><g id="Group-2--globalStyle1/bgelements/phone/4" transform="rotate(-13 931.799 -89.127)"><path id="Path-68-Copy-2--globalStyle1/bgelements/phone/4" fill="#FFF4BD" d="M144.972206,268.6141 C128.303036,221.115111 112.080076,191.842117 96.3033277,180.795119 C72.638205,164.224622 68.7062743,119.563303 80.5441656,86.5054597 C92.3820569,53.4476162 33.8441732,40.0022359 16.6697689,7.73055026 C-0.50463538,-24.5411354 -8.52157077,53.054113 12.9931519,78.498609 C34.5078746,103.943105 36.6991264,112.173528 11.7010223,147.874521 C-4.96438049,171.675183 39.4593474,211.921709 144.972206,268.6141 Z"></path><path id="Path-79-Copy-2--globalStyle1/bgelements/phone/4" fill="#FFE978" fill-rule="nonzero" d="M13.3637259,28.9395653 C12.9978751,28.3395864 13.1876734,27.5566268 13.7876523,27.190776 C14.3876312,26.8249253 15.1705908,27.0147236 15.5364415,27.6147024 C42.7931005,72.3144011 52.7142416,103.357296 45.0866056,120.98891 C31.7504315,151.81606 34.4221958,191.383742 57.3037592,220.678431 C57.7363295,221.23224 57.6380463,222.031859 57.0842373,222.464429 C56.5304284,222.896999 55.73081,222.798716 55.2982397,222.244907 C32.0389462,192.46662 29.1225394,152.422704 42.3453769,120.930185 L42.7510046,119.978503 C49.9292914,103.385579 40.2046183,72.9574256 13.3637259,28.9395653 Z"></path></g><g id="Group--globalStyle1/bgelements/phone/4" transform="rotate(-10 1762.996 153.626)"><path id="Path-67-Copy-2--globalStyle1/bgelements/phone/4" fill="#EDF3F7" d="M109.22185,242.603485 C94.5414196,229.995603 88.5790241,217.723669 91.3346638,205.787682 C95.4681234,187.883701 103.74718,180.923494 94.3688969,166.640017 C84.9906138,152.35654 61.2165344,172.034804 51.1887271,150.984654 C41.1609199,129.934504 68.3373427,103.978355 53.7698878,90.1294802 C39.202433,76.2806055 1.63377308,54.6386745 28.5086139,20.4220918 C55.3834547,-13.794491 75.2522389,60.5638461 89.1174416,63.7648804 C102.982644,66.9659147 131.394297,51.3771198 147.40335,77.2212426 C163.412403,103.065365 125.922199,168.238235 143.905142,172.389925 C161.888084,176.541614 167.838527,193.117201 162.592369,215.840809 C159.09493,230.989881 141.304757,239.910773 109.22185,242.603485 Z" transform="rotate(-10 91.747 127.022)"></path><path id="Combined-Shape-Copy-2--globalStyle1/bgelements/phone/4" fill="#BEDEF4" fill-rule="nonzero" d="M104.460558,185.094462 L104.573693,185.101805 L147.959632,190.440688 C148.491631,190.506154 148.869831,190.990495 148.804366,191.522494 C148.743576,192.016493 148.321614,192.37788 147.835695,192.374571 L147.72256,192.367228 L104.336622,187.028345 C103.804622,186.962879 103.426422,186.478538 103.491888,185.946539 C103.552677,185.45254 103.974639,185.091153 104.460558,185.094462 Z M29.4002112,35.3529901 L32.387379,38.3638132 C63.824001,70.1159219 81.6145299,90.2437449 85.9470898,98.9897778 L86.2049572,99.5234631 C87.7452787,102.703623 90.6789532,107.845522 95.0027077,114.94356 L107.270115,74.8592894 C107.426966,74.3467405 107.969623,74.0583908 108.482172,74.2152424 C108.95811,74.3608903 109.240733,74.8391964 109.153096,75.317158 L109.126218,75.4272992 L96.3560379,117.155255 C103.377553,128.581609 113.630563,144.555131 127.103463,165.055965 L131.717446,172.062967 C132.012386,172.510038 131.888963,173.112025 131.441544,173.407194 C130.994124,173.702363 130.392138,173.57894 130.096968,173.131521 L124.830136,165.130873 C119.01642,156.279373 113.812206,148.285119 109.216582,141.146577 L66.1422464,137.366347 C65.6082867,137.319488 65.2134136,136.848641 65.2602727,136.314682 C65.3037847,135.818862 65.7128779,135.442969 66.1986158,135.429317 L66.3119382,135.432708 L107.888344,139.080817 C95.3764537,119.59676 87.6175445,106.795467 84.5917307,100.643465 L84.1990678,99.8337204 C81.2000525,93.7852214 71.2914458,81.8205154 54.5413405,64.0278022 L54.4952033,64.0333281 L54.4952033,64.0333281 L54.4202482,64.0299378 L25.6176149,60.2084545 C25.2644366,60.1615954 25.0032546,59.6907487 25.0342488,59.156789 C25.063029,58.6609692 25.3336166,58.2850762 25.6548995,58.2714249 L25.7298546,58.2748153 L52.4576131,61.8215581 C46.1887918,55.2050709 39.0228549,47.8245271 30.9630374,39.6841173 L28.023431,36.7212854 C27.6457547,36.3413966 27.6475496,35.7268902 28.0276727,35.3489812 C28.4077958,34.9710722 29.0223022,34.972867 29.4002112,35.3529901 Z" transform="rotate(-10 86.922 113.72)"></path></g><path id="[color:bgelement]phone--globalStyle1/bgelements/phone/4" fill="#6161ae" d="M421.537107,534.291986 L193.593007,534.291986 C173.472359,534.291986 157.162103,517.981731 157.162103,497.861083 L157.162103,36.8479739 C157.162103,16.7290331 173.472359,0.417070478 193.593007,0.417070478 L421.537107,0.417070478 C441.657755,0.417070478 457.96801,16.7290331 457.96801,36.8479739 L457.96801,497.861083 C457.96801,517.981731 441.657755,534.291986 421.537107,534.291986" opacity="1.00"></path><path id="shadow--globalStyle1/bgelements/phone/4" fill="#000" fill-opacity=".3" d="M418.951264,521.146644 L196.178167,521.146644 C181.665556,521.146644 169.901482,509.38257 169.901482,494.869959 L169.901482,38.2818219 C169.901482,23.7692113 181.665556,12.0051365 196.178167,12.0051365 L418.951264,12.0051365 C433.463874,12.0051365 445.227949,23.7692113 445.227949,38.2818219 L445.227949,494.869959 C445.227949,509.38257 433.463874,521.146644 418.951264,521.146644"></path><path id="Fill-9--globalStyle1/bgelements/phone/4" fill="#FFF" d="M200.49149,517.925565 C185.97888,517.925565 174.214805,506.159783 174.214805,491.64888 L174.214805,41.5035839 C174.214805,26.9909733 185.97888,15.2268985 200.49149,15.2268985 L414.638282,15.2268985 C429.150892,15.2268985 440.914967,26.9909733 440.914967,41.5035839 L440.914967,491.64888 C440.914967,506.159783 429.150892,517.925565 414.638282,517.925565 L200.49149,517.925565 Z" opacity=".933"></path><path id="[color:bgelement]phone--globalStyle1/bgelements/phone/4" fill="#6161ae" d="M307.5,462 C316.324977,462 323.479035,469.154057 323.479035,477.979035 C323.479035,486.804012 316.324977,493.958069 307.5,493.958069 C298.675023,493.958069 291.520965,486.804012 291.520965,477.979035 C291.520965,469.154057 298.675023,462 307.5,462 Z M370.15212,10.5972375 L357.158886,32.1997047 C354.893478,35.965711 349.58078,38.4189072 343.69106,38.4189072 L273.891908,38.4189072 C268.002188,38.4189072 262.68949,35.965711 260.424082,32.1997047 L247.430849,10.5972375 L370.15212,10.5972375 Z" opacity="1.00"></path></g><path id="Combined-Shape-Copy-2--globalStyle1/bgelements/phone/4" fill="#FFE978" d="M238.952369,298.621899 C247.73235,295.080718 258.141888,294.771371 270.180986,297.693856 C254.554417,303.364703 244.070247,307.800908 238.728475,311.002469 C233.386703,314.20403 222.414186,315.746117 205.810924,315.628729 C219.125241,307.832023 230.172389,302.16308 238.952369,298.621899 Z M186.902413,154.829408 C194.025644,169.827463 197.265225,180.423654 196.621156,186.617982 C196.001733,192.575266 196.357468,203.325882 197.688359,218.869827 C205.004324,226.265326 211.059371,232.945088 215.855045,238.912862 C212.099575,232.317682 210.050301,225.774786 209.706218,219.284232 C209.205038,209.8303 209.674119,197.422384 211.113461,182.060485 C218.236692,197.058541 221.476273,207.654732 220.832203,213.84906 C220.20488,219.88233 220.577749,230.83199 221.950809,246.698039 C226.451049,252.191109 231.478846,257.455921 236.549034,262.07299 C231.818728,254.617123 229.260067,247.227796 228.87187,239.905093 C228.37069,230.451161 228.83977,218.043245 230.279112,202.681346 C237.402344,217.679402 240.641924,228.275593 239.997855,234.469921 C239.388753,240.327948 239.722584,250.820909 240.999347,265.948805 C247.000832,270.940049 252.861472,274.843297 257.768161,276.956367 C257.768161,276.956367 260.246293,281.277072 260.246293,281.277072 C259.217244,280.987311 258.14211,280.609413 257.02817,280.150011 C241.531623,279.097355 230.819286,278.932211 224.890101,279.653515 C218.707958,280.405592 208.056842,277.351434 192.936753,270.49104 C208.271192,268.783815 220.669031,268.098258 230.130271,268.434368 C233.8893,268.567907 237.675824,269.272124 241.48984,270.54702 C238.18388,267.960498 234.825655,265.031341 231.531639,261.867412 C217.20367,257.819611 207.141806,255.539171 201.345572,255.025555 C195.142157,254.475858 185.358789,249.273948 171.995466,239.419827 C187.349763,240.938118 199.619215,242.845198 208.803823,245.141065 C212.893092,246.163256 216.867134,247.893613 220.725948,250.332136 C219.395772,248.752696 218.103931,247.149943 216.861038,245.534001 L216.067618,244.491782 C214.241363,242.067801 212.176824,239.507007 209.874115,236.809632 C195.566597,232.768757 185.518765,230.49228 179.728208,229.979166 C173.524793,229.429469 163.741425,224.22756 150.378102,214.373439 C165.732399,215.89173 178.001851,217.798809 187.186459,220.094677 C191.534174,221.181471 195.751637,223.068774 199.838846,225.756585 C194.168702,219.826648 187.596502,213.379246 180.12347,206.417273 C168.17459,200.482613 157.762786,194.621755 148.887455,188.834518 C138.450706,182.029145 128.569626,174.302512 119.244215,165.654619 C141.980199,169.752718 158.086099,177.081099 167.561914,187.639763 C172.926401,193.617277 177.284773,198.552141 180.63703,202.444355 L179.945625,201.804747 C184.796615,206.280689 189.29141,210.55427 193.430221,214.625916 C188.535222,207.032299 185.890384,199.508199 185.495171,192.053154 C184.99399,182.599222 185.463071,170.191307 186.902413,154.829408 Z" transform="rotate(29 194.713 235.232)"></path><path id="Combined-Shape-Copy-4--globalStyle1/bgelements/phone/4" fill="#FFE978" d="M609.86663,298.621899 C618.64661,295.080718 629.056149,294.771371 641.095246,297.693856 C625.468678,303.364703 614.984508,307.800908 609.642736,311.002469 C604.300964,314.20403 593.328447,315.746117 576.725185,315.628729 C590.039501,307.832023 601.08665,302.16308 609.86663,298.621899 Z M557.816674,154.829408 C564.939905,169.827463 568.179486,180.423654 567.535416,186.617982 C566.915994,192.575266 567.271728,203.325882 568.60262,218.869827 C575.918585,226.265326 581.973632,232.945088 586.769306,238.912862 C583.013836,232.317682 580.964562,225.774786 580.620479,219.284232 C580.119299,209.8303 580.588379,197.422384 582.027721,182.060485 C589.150953,197.058541 592.390533,207.654732 591.746464,213.84906 C591.119141,219.88233 591.492009,230.83199 592.86507,246.698039 C597.36531,252.191109 602.393107,257.455921 607.463295,262.07299 C602.732989,254.617123 600.174328,247.227796 599.786131,239.905093 C599.28495,230.451161 599.754031,218.043245 601.193373,202.681346 C608.316604,217.679402 611.556185,228.275593 610.912116,234.469921 C610.303014,240.327948 610.636844,250.820909 611.913607,265.948805 C617.915093,270.940049 623.775733,274.843297 628.682422,276.956367 C628.682422,276.956367 631.160553,281.277072 631.160553,281.277072 C630.131505,280.987311 629.05637,280.609413 627.94243,280.150011 C612.445883,279.097355 601.733547,278.932211 595.804362,279.653515 C589.622218,280.405592 578.971102,277.351434 563.851014,270.49104 C579.185453,268.783815 591.583292,268.098258 601.044531,268.434368 C604.803561,268.567907 608.590084,269.272124 612.404101,270.54702 C609.098141,267.960498 605.739916,265.031341 602.4459,261.867412 C588.117931,257.819611 578.056067,255.539171 572.259833,255.025555 C566.056418,254.475858 556.273049,249.273948 542.909727,239.419827 C558.264024,240.938118 570.533476,242.845198 579.718083,245.141065 C583.807353,246.163256 587.781395,247.893613 591.640208,250.332136 C590.310032,248.752696 589.018192,247.149943 587.775299,245.534001 L586.981879,244.491782 C585.155624,242.067801 583.091085,239.507007 580.788376,236.809632 C566.480858,232.768757 556.433025,230.49228 550.642469,229.979166 C544.439054,229.429469 534.655685,224.22756 521.292363,214.373439 C536.64666,215.89173 548.916112,217.798809 558.100719,220.094677 C562.448435,221.181471 566.665898,223.068774 570.753107,225.756585 C565.082963,219.826648 558.510763,213.379246 551.037731,206.417273 C539.088851,200.482613 528.677046,194.621755 519.801716,188.834518 C509.364967,182.029145 499.483887,174.302512 490.158476,165.654619 C512.89446,169.752718 529.000359,177.081099 538.476175,187.639763 C543.840662,193.617277 548.199034,198.552141 551.551291,202.444355 L550.859885,201.804747 C555.710876,206.280689 560.205671,210.55427 564.344482,214.625916 C559.449483,207.032299 556.804645,199.508199 556.409431,192.053154 C555.908251,182.599222 556.377332,170.191307 557.816674,154.829408 Z" transform="scale(-1 1) rotate(29 0 -1951.885)"></path></g></g></svg></g></g></svg>