<?xml version="1.0" encoding="UTF-8"?>
<svg id="illustration-builder" width="1000" height="880" viewBox="-10 -30 1070 940" version="1.1" xmlns="http://www.w3.org/2000/svg" xmlns:xlink="http://www.w3.org/1999/xlink" style="pointer-events: inherit;"><g transform="translate(74.5,223)">
<g><svg xmlns="http://www.w3.org/2000/svg" width="588" height="547" viewBox="0 0 588 547"><g id="Symbols--globalStyle1/bgelements/notfound2/1" fill="none" fill-rule="evenodd" stroke="none" stroke-width="1"><g id="globalStyle1/bgelements/notfound2/1--globalStyle1/bgelements/notfound2/1"><g id="Group-13--globalStyle1/bgelements/notfound2/1" transform="translate(-5.5)"><g id="Group-4--globalStyle1/bgelements/notfound2/1" transform="translate(369.081 174.577)"><path id="Path-68-Copy-3--globalStyle1/bgelements/notfound2/1" fill="#FFF4BD" d="M173.972206,281.6141 C157.303036,234.115111 141.080076,204.842117 125.303328,193.795119 C101.638205,177.224622 97.7062743,132.563303 109.544166,99.5054597 C121.382057,66.4476162 62.8441732,53.0022359 45.6697689,20.7305503 C28.4953646,-11.5411354 20.4784292,66.054113 41.9931519,91.498609 C63.5078746,116.943105 65.6991264,125.173528 40.7010223,160.874521 C24.0356195,184.675183 68.4593474,224.921709 173.972206,281.6141 Z" transform="scale(-1 1) rotate(-13 0 1038.04)"></path><path id="Path-79-Copy-3--globalStyle1/bgelements/notfound2/1" fill="#FFE978" fill-rule="nonzero" d="M117.756856,50.5295274 C117.391005,49.9295486 117.580804,49.146589 118.180783,48.7807382 C118.780761,48.4148874 119.563721,48.6046857 119.929572,49.2046646 C147.186231,93.9043633 157.107372,124.947258 149.479736,142.578872 C136.143562,173.406022 138.815326,212.973704 161.696889,242.268393 C162.12946,242.822202 162.031176,243.621821 161.477368,244.054391 C160.923559,244.486961 160.12394,244.388678 159.69137,243.834869 C136.432076,214.056582 133.51567,174.012666 146.738507,142.520147 L147.144135,141.568465 C154.322422,124.975541 144.597749,94.5473878 117.756856,50.5295274 Z" transform="scale(-1 1) rotate(-13 0 1373.193)"></path></g><g id="Group-3--globalStyle1/bgelements/notfound2/1" transform="translate(394.144 284.055)"><path id="Path-67-Copy-3--globalStyle1/bgelements/notfound2/1" fill="#EDF3F7" d="M126.152781,249.162044 C111.472351,236.554162 105.509955,224.282227 108.265595,212.34624 C112.399054,194.44226 120.678111,187.482052 111.299828,173.198576 C101.921545,158.915099 78.1474653,178.593363 68.1196581,157.543213 C58.0918508,136.493063 85.2682736,110.536913 70.7008188,96.6880387 C56.1333639,82.8391641 18.564704,61.1972331 45.4395448,26.9806503 C72.3143857,-7.23593241 92.1831699,67.1224047 106.048373,70.323439 C119.913575,73.5244732 148.325228,57.9356784 164.334281,83.7798011 C180.343333,109.623924 142.85313,174.796794 160.836073,178.948484 C178.819015,183.100173 184.769458,199.67576 179.5233,222.399368 C176.025861,237.54844 158.235688,246.469332 126.152781,249.162044 Z" transform="scale(-1 1) rotate(-20 0 749.925)"></path><path id="Combined-Shape-Copy-3--globalStyle1/bgelements/notfound2/1" fill="#BEDEF4" fill-rule="nonzero" d="M133.278921,192.693036 L133.392056,192.70038 L176.777995,198.039263 C177.309994,198.104728 177.688195,198.589069 177.622729,199.121068 C177.56194,199.615067 177.139977,199.976454 176.654059,199.973145 L176.540924,199.965802 L133.154985,194.626919 C132.622986,194.561453 132.244786,194.077113 132.310251,193.545113 C132.37104,193.051114 132.793003,192.689727 133.278921,192.693036 Z M58.2185746,42.9515643 L61.2057425,45.9623874 C92.6423645,77.714496 110.432893,97.8423191 114.765453,106.588352 L115.023321,107.122037 C116.563642,110.302197 119.497317,115.444096 123.821071,122.542134 L136.088478,82.4578635 C136.24533,81.9453146 136.787986,81.656965 137.300535,81.8138166 C137.776473,81.9594645 138.059097,82.4377705 137.971459,82.9157322 L137.944582,83.0258733 L125.174401,124.753829 C132.195916,136.180183 142.448926,152.153705 155.921826,172.654539 L160.53581,179.661541 C160.830749,180.108612 160.707326,180.710599 160.259907,181.005768 C159.812488,181.300937 159.210501,181.177514 158.915332,180.730095 L153.6485,172.729447 C147.834784,163.877947 142.630569,155.883693 138.034946,148.745152 L94.9606099,144.964921 C94.4266501,144.918062 94.031777,144.447215 94.0786361,143.913256 C94.1221481,143.417436 94.5312413,143.041543 95.0169792,143.027892 L95.1303016,143.031282 L136.706707,146.679391 C124.194817,127.195334 116.435908,114.394041 113.410094,108.242039 L113.017431,107.432295 C110.018416,101.383796 100.109809,89.4190896 83.3597039,71.6263763 L83.3135667,71.6319023 L83.3135667,71.6319023 L83.2386116,71.6285119 L54.4359784,67.8070287 C54.0828,67.7601696 53.8216181,67.2893229 53.8526122,66.7553631 C53.8813925,66.2595434 54.15198,65.8836504 54.4732629,65.8699991 L54.548218,65.8733894 L81.2759765,69.4201322 C75.0071553,62.803645 67.8412183,55.4231012 59.7814009,47.2826915 L56.8417944,44.3198596 C56.4641182,43.9399708 56.465913,43.3254643 56.8460361,42.9475553 C57.2261592,42.5696463 57.8406656,42.5714412 58.2185746,42.9515643 Z" transform="scale(-1 1) rotate(-20 0 777.714)"></path></g><g id="Group-2--globalStyle1/bgelements/notfound2/1" transform="rotate(-13 931.799 -89.127)"><path id="Path-68-Copy-2--globalStyle1/bgelements/notfound2/1" fill="#FFF4BD" d="M144.972206,268.6141 C128.303036,221.115111 112.080076,191.842117 96.3033277,180.795119 C72.638205,164.224622 68.7062743,119.563303 80.5441656,86.5054597 C92.3820569,53.4476162 33.8441732,40.0022359 16.6697689,7.73055026 C-0.50463538,-24.5411354 -8.52157077,53.054113 12.9931519,78.498609 C34.5078746,103.943105 36.6991264,112.173528 11.7010223,147.874521 C-4.96438049,171.675183 39.4593474,211.921709 144.972206,268.6141 Z"></path><path id="Path-79-Copy-2--globalStyle1/bgelements/notfound2/1" fill="#FFE978" fill-rule="nonzero" d="M13.3637259,28.9395653 C12.9978751,28.3395864 13.1876734,27.5566268 13.7876523,27.190776 C14.3876312,26.8249253 15.1705908,27.0147236 15.5364415,27.6147024 C42.7931005,72.3144011 52.7142416,103.357296 45.0866056,120.98891 C31.7504315,151.81606 34.4221958,191.383742 57.3037592,220.678431 C57.7363295,221.23224 57.6380463,222.031859 57.0842373,222.464429 C56.5304284,222.896999 55.73081,222.798716 55.2982397,222.244907 C32.0389462,192.46662 29.1225394,152.422704 42.3453769,120.930185 L42.7510046,119.978503 C49.9292914,103.385579 40.2046183,72.9574256 13.3637259,28.9395653 Z"></path></g><g id="Group--globalStyle1/bgelements/notfound2/1" transform="rotate(-10 1762.996 153.626)"><path id="Path-67-Copy-2--globalStyle1/bgelements/notfound2/1" fill="#EDF3F7" d="M109.22185,242.603485 C94.5414196,229.995603 88.5790241,217.723669 91.3346638,205.787682 C95.4681234,187.883701 103.74718,180.923494 94.3688969,166.640017 C84.9906138,152.35654 61.2165344,172.034804 51.1887271,150.984654 C41.1609199,129.934504 68.3373427,103.978355 53.7698878,90.1294802 C39.202433,76.2806055 1.63377308,54.6386745 28.5086139,20.4220918 C55.3834547,-13.794491 75.2522389,60.5638461 89.1174416,63.7648804 C102.982644,66.9659147 131.394297,51.3771198 147.40335,77.2212426 C163.412403,103.065365 125.922199,168.238235 143.905142,172.389925 C161.888084,176.541614 167.838527,193.117201 162.592369,215.840809 C159.09493,230.989881 141.304757,239.910773 109.22185,242.603485 Z" transform="rotate(-10 91.747 127.022)"></path><path id="Combined-Shape-Copy-2--globalStyle1/bgelements/notfound2/1" fill="#BEDEF4" fill-rule="nonzero" d="M104.460558,185.094462 L104.573693,185.101805 L147.959632,190.440688 C148.491631,190.506154 148.869831,190.990495 148.804366,191.522494 C148.743576,192.016493 148.321614,192.37788 147.835695,192.374571 L147.72256,192.367228 L104.336622,187.028345 C103.804622,186.962879 103.426422,186.478538 103.491888,185.946539 C103.552677,185.45254 103.974639,185.091153 104.460558,185.094462 Z M29.4002112,35.3529901 L32.387379,38.3638132 C63.824001,70.1159219 81.6145299,90.2437449 85.9470898,98.9897778 L86.2049572,99.5234631 C87.7452787,102.703623 90.6789532,107.845522 95.0027077,114.94356 L107.270115,74.8592894 C107.426966,74.3467405 107.969623,74.0583908 108.482172,74.2152424 C108.95811,74.3608903 109.240733,74.8391964 109.153096,75.317158 L109.126218,75.4272992 L96.3560379,117.155255 C103.377553,128.581609 113.630563,144.555131 127.103463,165.055965 L131.717446,172.062967 C132.012386,172.510038 131.888963,173.112025 131.441544,173.407194 C130.994124,173.702363 130.392138,173.57894 130.096968,173.131521 L124.830136,165.130873 C119.01642,156.279373 113.812206,148.285119 109.216582,141.146577 L66.1422464,137.366347 C65.6082867,137.319488 65.2134136,136.848641 65.2602727,136.314682 C65.3037847,135.818862 65.7128779,135.442969 66.1986158,135.429317 L66.3119382,135.432708 L107.888344,139.080817 C95.3764537,119.59676 87.6175445,106.795467 84.5917307,100.643465 L84.1990678,99.8337204 C81.2000525,93.7852214 71.2914458,81.8205154 54.5413405,64.0278022 L54.4952033,64.0333281 L54.4952033,64.0333281 L54.4202482,64.0299378 L25.6176149,60.2084545 C25.2644366,60.1615954 25.0032546,59.6907487 25.0342488,59.156789 C25.063029,58.6609692 25.3336166,58.2850762 25.6548995,58.2714249 L25.7298546,58.2748153 L52.4576131,61.8215581 C46.1887918,55.2050709 39.0228549,47.8245271 30.9630374,39.6841173 L28.023431,36.7212854 C27.6457547,36.3413966 27.6475496,35.7268902 28.0276727,35.3489812 C28.4077958,34.9710722 29.0223022,34.972867 29.4002112,35.3529901 Z" transform="rotate(-10 86.922 113.72)"></path></g><path id="[color:bgelement]phone--globalStyle1/bgelements/notfound2/1" fill="#6161ae" d="M421.537107,534.291986 L193.593007,534.291986 C173.472359,534.291986 157.162103,517.981731 157.162103,497.861083 L157.162103,36.8479739 C157.162103,16.7290331 173.472359,0.417070478 193.593007,0.417070478 L421.537107,0.417070478 C441.657755,0.417070478 457.96801,16.7290331 457.96801,36.8479739 L457.96801,497.861083 C457.96801,517.981731 441.657755,534.291986 421.537107,534.291986" opacity="1.00"></path><path id="shadow--globalStyle1/bgelements/notfound2/1" fill="#000" fill-opacity=".3" d="M418.951264,521.146644 L196.178167,521.146644 C181.665556,521.146644 169.901482,509.38257 169.901482,494.869959 L169.901482,38.2818219 C169.901482,23.7692113 181.665556,12.0051365 196.178167,12.0051365 L418.951264,12.0051365 C433.463874,12.0051365 445.227949,23.7692113 445.227949,38.2818219 L445.227949,494.869959 C445.227949,509.38257 433.463874,521.146644 418.951264,521.146644"></path><path id="Fill-9--globalStyle1/bgelements/notfound2/1" fill="#FFF" d="M200.49149,517.925565 C185.97888,517.925565 174.214805,506.159783 174.214805,491.64888 L174.214805,41.5035839 C174.214805,26.9909733 185.97888,15.2268985 200.49149,15.2268985 L414.638282,15.2268985 C429.150892,15.2268985 440.914967,26.9909733 440.914967,41.5035839 L440.914967,491.64888 C440.914967,506.159783 429.150892,517.925565 414.638282,517.925565 L200.49149,517.925565 Z" opacity=".933"></path><path id="Oval--globalStyle1/bgelements/notfound2/1" fill="#CAC8C8" fill-rule="nonzero" d="M307.5,231.298336 C335.388807,231.298336 359.143604,251.224743 364.21517,278.322594 C364.51997,279.951171 363.446837,281.518483 361.81826,281.823283 C360.189684,282.128083 358.622372,281.05495 358.317571,279.426373 C353.774954,255.154745 332.487857,237.298336 307.5,237.298336 C282.430851,237.298336 261.09586,255.269298 256.642244,279.643661 C256.344439,281.273531 254.781749,282.353383 253.151878,282.055578 C251.522008,281.757773 250.442156,280.195082 250.739961,278.565212 C255.712175,251.352594 279.520439,231.298336 307.5,231.298336 Z"></path><path id="[color:bgelement]phone--globalStyle1/bgelements/notfound2/1" fill="#6161ae" d="M307.5,462 C316.324977,462 323.479035,469.154057 323.479035,477.979035 C323.479035,486.804012 316.324977,493.958069 307.5,493.958069 C298.675023,493.958069 291.520965,486.804012 291.520965,477.979035 C291.520965,469.154057 298.675023,462 307.5,462 Z M370.15212,10.5972375 L357.158886,32.1997047 C354.893478,35.965711 349.58078,38.4189072 343.69106,38.4189072 L273.891908,38.4189072 C268.002188,38.4189072 262.68949,35.965711 260.424082,32.1997047 L247.430849,10.5972375 L370.15212,10.5972375 Z" opacity="1.00"></path></g><circle id="Oval--globalStyle1/bgelements/notfound2/1" cx="259.5" cy="168" r="12" fill="#CAC8C8"></circle><circle id="Oval-Copy--globalStyle1/bgelements/notfound2/1" cx="344.5" cy="168" r="12" fill="#CAC8C8"></circle><path id="Combined-Shape-Copy-2--globalStyle1/bgelements/notfound2/1" fill="#FFE978" d="M160.952369,298.621899 C169.73235,295.080718 180.141888,294.771371 192.180986,297.693856 C176.554417,303.364703 166.070247,307.800908 160.728475,311.002469 C155.386703,314.20403 144.414186,315.746117 127.810924,315.628729 C141.125241,307.832023 152.172389,302.16308 160.952369,298.621899 Z M108.902413,154.829408 C116.025644,169.827463 119.265225,180.423654 118.621156,186.617982 C118.001733,192.575266 118.357468,203.325882 119.688359,218.869827 C127.004324,226.265326 133.059371,232.945088 137.855045,238.912862 C134.099575,232.317682 132.050301,225.774786 131.706218,219.284232 C131.205038,209.8303 131.674119,197.422384 133.113461,182.060485 C140.236692,197.058541 143.476273,207.654732 142.832203,213.84906 C142.20488,219.88233 142.577749,230.83199 143.950809,246.698039 C148.451049,252.191109 153.478846,257.455921 158.549034,262.07299 C153.818728,254.617123 151.260067,247.227796 150.87187,239.905093 C150.37069,230.451161 150.83977,218.043245 152.279112,202.681346 C159.402344,217.679402 162.641924,228.275593 161.997855,234.469921 C161.388753,240.327948 161.722584,250.820909 162.999347,265.948805 C169.000832,270.940049 174.861472,274.843297 179.768161,276.956367 C179.768161,276.956367 182.246293,281.277072 182.246293,281.277072 C181.217244,280.987311 180.14211,280.609413 179.02817,280.150011 C163.531623,279.097355 152.819286,278.932211 146.890101,279.653515 C140.707958,280.405592 130.056842,277.351434 114.936753,270.49104 C130.271192,268.783815 142.669031,268.098258 152.130271,268.434368 C155.8893,268.567907 159.675824,269.272124 163.48984,270.54702 C160.18388,267.960498 156.825655,265.031341 153.531639,261.867412 C139.20367,257.819611 129.141806,255.539171 123.345572,255.025555 C117.142157,254.475858 107.358789,249.273948 93.9954664,239.419827 C109.349763,240.938118 121.619215,242.845198 130.803823,245.141065 C134.893092,246.163256 138.867134,247.893613 142.725948,250.332136 C141.395772,248.752696 140.103931,247.149943 138.861038,245.534001 L138.067618,244.491782 C136.241363,242.067801 134.176824,239.507007 131.874115,236.809632 C117.566597,232.768757 107.518765,230.49228 101.728208,229.979166 C95.5247931,229.429469 85.7414246,224.22756 72.3781025,214.373439 C87.7323993,215.89173 100.001851,217.798809 109.186459,220.094677 C113.534174,221.181471 117.751637,223.068774 121.838846,225.756585 C116.168702,219.826648 109.596502,213.379246 102.12347,206.417273 C90.17459,200.482613 79.7627857,194.621755 70.8874554,188.834518 C60.4507059,182.029145 50.5696258,174.302512 41.2442149,165.654619 C63.9801989,169.752718 80.0860986,177.081099 89.5619139,187.639763 C94.926401,193.617277 99.2847731,198.552141 102.63703,202.444355 L101.945625,201.804747 C106.796615,206.280689 111.29141,210.55427 115.430221,214.625916 C110.535222,207.032299 107.890384,199.508199 107.495171,192.053154 C106.99399,182.599222 107.463071,170.191307 108.902413,154.829408 Z" transform="rotate(29 116.713 235.232)"></path><path id="Combined-Shape-Copy-4--globalStyle1/bgelements/notfound2/1" fill="#FFE978" d="M531.86663,298.621899 C540.64661,295.080718 551.056149,294.771371 563.095246,297.693856 C547.468678,303.364703 536.984508,307.800908 531.642736,311.002469 C526.300964,314.20403 515.328447,315.746117 498.725185,315.628729 C512.039501,307.832023 523.08665,302.16308 531.86663,298.621899 Z M479.816674,154.829408 C486.939905,169.827463 490.179486,180.423654 489.535416,186.617982 C488.915994,192.575266 489.271728,203.325882 490.60262,218.869827 C497.918585,226.265326 503.973632,232.945088 508.769306,238.912862 C505.013836,232.317682 502.964562,225.774786 502.620479,219.284232 C502.119299,209.8303 502.588379,197.422384 504.027721,182.060485 C511.150953,197.058541 514.390533,207.654732 513.746464,213.84906 C513.119141,219.88233 513.492009,230.83199 514.86507,246.698039 C519.36531,252.191109 524.393107,257.455921 529.463295,262.07299 C524.732989,254.617123 522.174328,247.227796 521.786131,239.905093 C521.28495,230.451161 521.754031,218.043245 523.193373,202.681346 C530.316604,217.679402 533.556185,228.275593 532.912116,234.469921 C532.303014,240.327948 532.636844,250.820909 533.913607,265.948805 C539.915093,270.940049 545.775733,274.843297 550.682422,276.956367 C550.682422,276.956367 553.160553,281.277072 553.160553,281.277072 C552.131505,280.987311 551.05637,280.609413 549.94243,280.150011 C534.445883,279.097355 523.733547,278.932211 517.804362,279.653515 C511.622218,280.405592 500.971102,277.351434 485.851014,270.49104 C501.185453,268.783815 513.583292,268.098258 523.044531,268.434368 C526.803561,268.567907 530.590084,269.272124 534.404101,270.54702 C531.098141,267.960498 527.739916,265.031341 524.4459,261.867412 C510.117931,257.819611 500.056067,255.539171 494.259833,255.025555 C488.056418,254.475858 478.273049,249.273948 464.909727,239.419827 C480.264024,240.938118 492.533476,242.845198 501.718083,245.141065 C505.807353,246.163256 509.781395,247.893613 513.640208,250.332136 C512.310032,248.752696 511.018192,247.149943 509.775299,245.534001 L508.981879,244.491782 C507.155624,242.067801 505.091085,239.507007 502.788376,236.809632 C488.480858,232.768757 478.433025,230.49228 472.642469,229.979166 C466.439054,229.429469 456.655685,224.22756 443.292363,214.373439 C458.64666,215.89173 470.916112,217.798809 480.100719,220.094677 C484.448435,221.181471 488.665898,223.068774 492.753107,225.756585 C487.082963,219.826648 480.510763,213.379246 473.037731,206.417273 C461.088851,200.482613 450.677046,194.621755 441.801716,188.834518 C431.364967,182.029145 421.483887,174.302512 412.158476,165.654619 C434.89446,169.752718 451.000359,177.081099 460.476175,187.639763 C465.840662,193.617277 470.199034,198.552141 473.551291,202.444355 L472.859885,201.804747 C477.710876,206.280689 482.205671,210.55427 486.344482,214.625916 C481.449483,207.032299 478.804645,199.508199 478.409431,192.053154 C477.908251,182.599222 478.377332,170.191307 479.816674,154.829408 Z" transform="scale(-1 1) rotate(29 0 -1650.281)"></path><path id="[color:bgelement]phone-copy--globalStyle1/bgelements/notfound2/1" fill="#6161ae" d="M212.808219,376.69863 L212.808219,365.917808 L212.780822,364.712329 L213.410959,365.917808 L220.328767,376.69863 L222.246575,376.69863 L222.246575,361.60274 L220.438356,361.60274 L220.438356,372.342466 L220.479452,373.534247 L219.849315,372.328767 L212.945205,361.60274 L211,361.60274 L211,376.69863 L212.808219,376.69863 Z M229.662267,377 C231.077792,377 232.285554,376.518265 233.285554,375.554795 C234.285554,374.591324 234.785554,373.159817 234.785554,371.260274 C234.785554,369.369863 234.285554,367.942922 233.285554,366.979452 C232.285554,366.015982 231.077792,365.534247 229.662267,365.534247 C228.237609,365.534247 227.02528,366.015982 226.02528,366.979452 C225.02528,367.942922 224.52528,369.369863 224.52528,371.260274 C224.52528,373.159817 225.02528,374.591324 226.02528,375.554795 C227.02528,376.518265 228.237609,377 229.662267,377 Z M229.662267,375.493151 C228.685098,375.493151 227.899709,375.105023 227.306102,374.328767 C226.712495,373.552511 226.415691,372.52968 226.415691,371.260274 C226.415691,370 226.712495,368.981735 227.306102,368.205479 C227.899709,367.429224 228.685098,367.041096 229.662267,367.041096 C230.630303,367.041096 231.411125,367.429224 232.004732,368.205479 C232.59834,368.981735 232.895143,370 232.895143,371.260274 C232.895143,372.52968 232.59834,373.552511 232.004732,374.328767 C231.411125,375.105023 230.630303,375.493151 229.662267,375.493151 Z M249.822416,377 C251.237941,377 252.313284,376.650685 253.048443,375.952055 C253.783603,375.253425 254.151183,374.388128 254.151183,373.356164 C254.151183,372.917808 254.078124,372.534247 253.932005,372.205479 C253.785886,371.876712 253.562142,371.593607 253.260772,371.356164 C253.041594,371.191781 252.822416,371.059361 252.603238,370.958904 C252.38406,370.858447 251.836115,370.680365 250.959402,370.424658 L250.959402,370.424658 L250.315567,370.246575 L249.452553,370 C248.858946,369.826484 248.436571,369.634703 248.18543,369.424658 C247.934288,369.214612 247.808717,368.940639 247.808717,368.60274 C247.808717,368.164384 248.002781,367.794521 248.390909,367.493151 C248.779037,367.191781 249.333831,367.041096 250.055293,367.041096 C250.667165,367.041096 251.155749,367.143836 251.521046,367.349315 C251.886343,367.554795 252.068991,367.840183 252.068991,368.205479 L252.068991,368.205479 L252.068991,368.246575 L253.890909,368.246575 L253.890909,368.205479 C253.890909,367.52968 253.605521,366.915525 253.034745,366.363014 C252.463968,365.810502 251.502781,365.534247 250.151183,365.534247 C248.790452,365.534247 247.763055,365.858447 247.068991,366.506849 C246.374927,367.155251 246.027895,367.908676 246.027895,368.767123 C246.027895,369.981735 246.74479,370.853881 248.17858,371.383562 L248.17858,371.383562 L249.425156,371.767123 L250.041594,371.958904 L250.959402,372.246575 C251.872644,372.520548 252.329265,372.990868 252.329265,373.657534 C252.329265,374.150685 252.096389,374.579909 251.630635,374.945205 C251.164882,375.310502 250.562142,375.493151 249.822416,375.493151 C248.973101,375.493151 248.368078,375.340183 248.007347,375.034247 C247.646617,374.728311 247.466252,374.3379 247.466252,373.863014 L247.466252,373.863014 L247.466252,373.835616 L245.658032,373.835616 L245.658032,373.863014 C245.658032,374.484018 245.833831,375.02968 246.18543,375.5 C246.537028,375.97032 247.007347,376.3379 247.596389,376.60274 C248.18543,376.86758 248.927439,377 249.822416,377 Z M261.073724,377 C261.886509,377 262.60797,376.869863 263.238107,376.609589 C263.868244,376.349315 264.375093,375.97032 264.758655,375.472603 C265.142217,374.974886 265.333998,374.484018 265.333998,374 L265.333998,374 L265.333998,373.90411 L263.525778,373.90411 L263.525778,374 C263.525778,374.383562 263.340847,374.728311 262.970984,375.034247 C262.601121,375.340183 262.018929,375.493151 261.224408,375.493151 C260.119386,375.493151 259.254089,375.116438 258.628518,374.363014 C258.002947,373.609589 257.690162,372.652968 257.690162,371.493151 L257.690162,371.493151 L265.402491,371.493151 L265.402491,370.890411 C265.402491,369.538813 265.208427,368.486301 264.820299,367.732877 C264.432171,366.979452 263.902491,366.424658 263.231258,366.068493 C262.560025,365.712329 261.81345,365.534247 260.991532,365.534247 C259.493815,365.534247 258.270071,366.084475 257.320299,367.184932 C256.370527,368.285388 255.895641,369.671233 255.895641,371.342466 C255.895641,372.977169 256.345413,374.328767 257.244956,375.39726 C258.1445,376.465753 259.420756,377 261.073724,377 Z M263.662765,370.136986 L257.799751,370.136986 C257.982399,369.159817 258.359112,368.399543 258.929888,367.856164 C259.500664,367.312785 260.123952,367.041096 260.799751,367.041096 C261.365961,367.041096 261.863678,367.155251 262.292902,367.383562 C262.722125,367.611872 263.057742,367.965753 263.299751,368.445205 C263.54176,368.924658 263.662765,369.415525 263.662765,369.917808 L263.662765,369.917808 L263.662765,370.136986 Z M270.599004,377 C271.119552,377 271.658364,376.894977 272.215442,376.684932 C272.77252,376.474886 273.448319,375.977169 274.242839,375.191781 C274.242839,375.611872 274.33873,376.114155 274.530511,376.69863 L274.530511,376.69863 L276.43462,376.69863 C276.224575,376.022831 276.108136,375.431507 276.085305,374.924658 C276.062474,374.417808 276.051059,373.931507 276.051059,373.465753 L276.051059,373.465753 L276.051059,369.246575 C276.051059,368.09589 275.902657,367.310502 275.605853,366.890411 C275.309049,366.47032 274.836447,366.136986 274.188045,365.890411 C273.539643,365.643836 272.818182,365.520548 272.023661,365.520548 C271.229141,365.520548 270.496264,365.650685 269.825031,365.910959 C269.153798,366.171233 268.614985,366.557078 268.208593,367.068493 C267.8022,367.579909 267.599004,368.077626 267.599004,368.561644 L267.599004,368.561644 L267.599004,368.69863 L269.557908,368.69863 L269.557908,368.547945 C269.557908,368.109589 269.770237,367.723744 270.194894,367.390411 C270.619552,367.057078 271.20631,366.890411 271.955168,366.890411 C272.585305,366.890411 273.124118,367.025114 273.571606,367.294521 C274.019095,367.563927 274.242839,368.031963 274.242839,368.69863 L274.242839,368.69863 L274.242839,369.931507 L273.270237,370.109589 C271.13325,370.52968 269.628684,371.025114 268.756538,371.59589 C267.884392,372.166667 267.448319,372.977169 267.448319,374.027397 C267.448319,374.949772 267.758821,375.675799 268.379826,376.205479 C269.00083,376.73516 269.740556,377 270.599004,377 Z M271.201743,375.643836 C270.909506,375.643836 270.612702,375.575342 270.311333,375.438356 C270.009963,375.30137 269.783935,375.109589 269.63325,374.863014 C269.482565,374.616438 269.407223,374.351598 269.407223,374.068493 C269.407223,373.511416 269.662931,373.02968 270.174346,372.623288 C270.685762,372.216895 271.859278,371.789954 273.694894,371.342466 L273.694894,371.342466 L274.242839,371.219178 L274.242839,372.287671 C274.242839,372.945205 274.105853,373.520548 273.83188,374.013699 C273.557908,374.506849 273.176629,374.901826 272.688045,375.19863 C272.19946,375.495434 271.704027,375.643836 271.201743,375.643836 Z M280.576339,376.69863 L280.576339,371.328767 C280.576339,369.812785 280.895973,368.755708 281.535243,368.157534 C282.174512,367.559361 282.836613,367.260274 283.521544,367.260274 C283.99643,367.260274 284.448485,367.365297 284.877709,367.575342 L284.877709,367.575342 L284.877709,365.69863 C284.603736,365.589041 284.279535,365.534247 283.905106,365.534247 C283.494147,365.534247 283.087754,365.614155 282.685928,365.773973 C282.284101,365.93379 281.907389,366.164384 281.555791,366.465753 C281.204193,366.767123 280.877709,367.196347 280.576339,367.753425 L280.576339,367.753425 L280.576339,365.835616 L278.76812,365.835616 L278.76812,376.69863 L280.576339,376.69863 Z M290.882441,377 C291.722623,377 292.437235,376.86758 293.026276,376.60274 C293.615318,376.3379 294.09477,375.961187 294.464633,375.472603 C294.834496,374.984018 295.019427,374.493151 295.019427,374 L295.019427,374 L295.019427,373.90411 L293.197509,373.90411 L293.197509,374 C293.197509,374.401826 293.019427,374.751142 292.663263,375.047945 C292.307098,375.344749 291.745455,375.493151 290.978331,375.493151 C290.074222,375.493151 289.313948,375.159817 288.697509,374.493151 C288.081071,373.826484 287.772852,372.748858 287.772852,371.260274 C287.772852,369.780822 288.081071,368.707763 288.697509,368.041096 C289.313948,367.374429 290.074222,367.041096 290.978331,367.041096 C291.745455,367.041096 292.311665,367.189498 292.676961,367.486301 C293.042258,367.783105 293.215774,368.13242 293.197509,368.534247 L293.197509,368.630137 L295.019427,368.630137 L295.019427,368.534247 C295.019427,367.977169 294.834496,367.468037 294.464633,367.006849 C294.09477,366.545662 293.615318,366.184932 293.026276,365.924658 C292.437235,365.664384 291.722623,365.534247 290.882441,365.534247 C289.284267,365.534247 288.051391,366.041096 287.183811,367.054795 C286.316231,368.068493 285.882441,369.47032 285.882441,371.260274 C285.882441,373.059361 286.316231,374.465753 287.183811,375.479452 C288.051391,376.493151 289.284267,377 290.882441,377 Z M299.010461,376.69863 L299.010461,371.356164 C299.010461,370.324201 299.156579,369.527397 299.448817,368.965753 C299.741054,368.40411 300.126899,367.968037 300.606351,367.657534 C301.085803,367.347032 301.590369,367.191781 302.12005,367.191781 C302.585803,367.191781 303.001328,367.308219 303.366625,367.541096 C303.731922,367.773973 303.978497,368.091324 304.106351,368.493151 C304.234205,368.894977 304.298132,369.584475 304.298132,370.561644 L304.298132,370.561644 L304.298132,376.69863 L306.106351,376.69863 L306.106351,369.780822 C306.106351,368.593607 305.957949,367.728311 305.661146,367.184932 C305.364342,366.641553 304.944251,366.230594 304.400872,365.952055 C303.857493,365.673516 303.247904,365.534247 302.572105,365.534247 C302.088086,365.534247 301.64973,365.607306 301.257036,365.753425 C300.864342,365.899543 300.48763,366.114155 300.126899,366.39726 C299.766169,366.680365 299.394022,367.118721 299.010461,367.712329 L299.010461,367.712329 L299.010461,361 L297.202242,361 L297.202242,376.69863 L299.010461,376.69863 Z M319.841843,376.69863 L319.841843,371.328767 C319.841843,369.812785 320.161478,368.755708 320.800747,368.157534 C321.440017,367.559361 322.102117,367.260274 322.787049,367.260274 C323.261934,367.260274 323.713989,367.365297 324.143213,367.575342 L324.143213,367.575342 L324.143213,365.69863 C323.86924,365.589041 323.545039,365.534247 323.17061,365.534247 C322.759651,365.534247 322.353259,365.614155 321.951432,365.773973 C321.549606,365.93379 321.172893,366.164384 320.821295,366.465753 C320.469697,366.767123 320.143213,367.196347 319.841843,367.753425 L319.841843,367.753425 L319.841843,365.835616 L318.033624,365.835616 L318.033624,376.69863 L319.841843,376.69863 Z M330.326027,377 C331.138813,377 331.860274,376.869863 332.490411,376.609589 C333.120548,376.349315 333.627397,375.97032 334.010959,375.472603 C334.394521,374.974886 334.586301,374.484018 334.586301,374 L334.586301,374 L334.586301,373.90411 L332.778082,373.90411 L332.778082,374 C332.778082,374.383562 332.593151,374.728311 332.223288,375.034247 C331.853425,375.340183 331.271233,375.493151 330.476712,375.493151 C329.371689,375.493151 328.506393,375.116438 327.880822,374.363014 C327.255251,373.609589 326.942466,372.652968 326.942466,371.493151 L326.942466,371.493151 L334.654795,371.493151 L334.654795,370.890411 C334.654795,369.538813 334.460731,368.486301 334.072603,367.732877 C333.684475,366.979452 333.154795,366.424658 332.483562,366.068493 C331.812329,365.712329 331.065753,365.534247 330.243836,365.534247 C328.746119,365.534247 327.522374,366.084475 326.572603,367.184932 C325.622831,368.285388 325.147945,369.671233 325.147945,371.342466 C325.147945,372.977169 325.597717,374.328767 326.49726,375.39726 C327.396804,376.465753 328.673059,377 330.326027,377 Z M332.915068,370.136986 L327.052055,370.136986 C327.234703,369.159817 327.611416,368.399543 328.182192,367.856164 C328.752968,367.312785 329.376256,367.041096 330.052055,367.041096 C330.618265,367.041096 331.115982,367.155251 331.545205,367.383562 C331.974429,367.611872 332.310046,367.965753 332.552055,368.445205 C332.794064,368.924658 332.915068,369.415525 332.915068,369.917808 L332.915068,369.917808 L332.915068,370.136986 Z M340.563636,377 C341.979161,377 343.054504,376.650685 343.789664,375.952055 C344.524824,375.253425 344.892403,374.388128 344.892403,373.356164 C344.892403,372.917808 344.819344,372.534247 344.673225,372.205479 C344.527107,371.876712 344.303362,371.593607 344.001993,371.356164 C343.782814,371.191781 343.563636,371.059361 343.344458,370.958904 C343.12528,370.858447 342.577335,370.680365 341.700623,370.424658 L341.700623,370.424658 L341.056787,370.246575 L340.193773,370 C339.600166,369.826484 339.177792,369.634703 338.92665,369.424658 C338.675509,369.214612 338.549938,368.940639 338.549938,368.60274 C338.549938,368.164384 338.744002,367.794521 339.13213,367.493151 C339.520257,367.191781 340.075052,367.041096 340.796513,367.041096 C341.408385,367.041096 341.89697,367.143836 342.262267,367.349315 C342.627563,367.554795 342.810212,367.840183 342.810212,368.205479 L342.810212,368.205479 L342.810212,368.246575 L344.63213,368.246575 L344.63213,368.205479 C344.63213,367.52968 344.346741,366.915525 343.775965,366.363014 C343.205189,365.810502 342.244002,365.534247 340.892403,365.534247 C339.531673,365.534247 338.504276,365.858447 337.810212,366.506849 C337.116148,367.155251 336.769116,367.908676 336.769116,368.767123 C336.769116,369.981735 337.486011,370.853881 338.919801,371.383562 L338.919801,371.383562 L340.166376,371.767123 L340.782814,371.958904 L341.700623,372.246575 C342.613865,372.520548 343.070486,372.990868 343.070486,373.657534 C343.070486,374.150685 342.837609,374.579909 342.371856,374.945205 C341.906102,375.310502 341.303362,375.493151 340.563636,375.493151 C339.714321,375.493151 339.109298,375.340183 338.748568,375.034247 C338.387837,374.728311 338.207472,374.3379 338.207472,373.863014 L338.207472,373.863014 L338.207472,373.835616 L336.399253,373.835616 L336.399253,373.863014 C336.399253,374.484018 336.575052,375.02968 336.92665,375.5 C337.278248,375.97032 337.748568,376.3379 338.337609,376.60274 C338.92665,376.86758 339.668659,377 340.563636,377 Z M350.623163,377 C351.079784,377 351.499875,376.924658 351.883437,376.773973 C352.266999,376.623288 352.639145,376.401826 352.999875,376.109589 C353.360606,375.817352 353.728186,375.383562 354.102615,374.808219 L354.102615,374.808219 L354.102615,376.69863 L355.910834,376.69863 L355.910834,365.835616 L354.102615,365.835616 L354.102615,371.178082 C354.102615,372.182648 353.963346,372.97032 353.684807,373.541096 C353.406268,374.111872 353.027273,374.554795 352.547821,374.869863 C352.068369,375.184932 351.559236,375.342466 351.020423,375.342466 C350.399419,375.342466 349.878871,375.175799 349.45878,374.842466 C349.038688,374.509132 348.828643,373.547945 348.828643,371.958904 L348.828643,371.958904 L348.828643,365.835616 L347.020423,365.835616 L347.020423,372.726027 C347.020423,374.442922 347.369738,375.584475 348.068369,376.150685 C348.766999,376.716895 349.618597,377 350.623163,377 Z M360.518306,376.69863 L360.518306,361 L358.710087,361 L358.710087,376.69863 L360.518306,376.69863 Z M367.961395,377 C368.427148,377 369.098381,376.894977 369.975093,376.684932 L369.975093,376.684932 L369.975093,375.164384 C369.253632,375.383562 368.714819,375.493151 368.358655,375.493151 C367.911166,375.493151 367.527605,375.406393 367.20797,375.232877 C366.888335,375.059361 366.655459,374.785388 366.50934,374.410959 C366.363221,374.03653 366.290162,373.369863 366.290162,372.410959 L366.290162,372.410959 L366.290162,367.342466 L369.454545,367.342466 L369.454545,365.835616 L366.290162,365.835616 L366.290162,363.260274 L364.468244,363.260274 L364.468244,365.835616 L362.591532,365.835616 L362.591532,367.342466 L364.468244,367.342466 L364.468244,372.931507 C364.468244,374.063927 364.609797,374.888128 364.892902,375.40411 C365.176007,375.920091 365.589249,376.315068 366.132628,376.589041 C366.676007,376.863014 367.285596,377 367.961395,377 Z M375.596264,377 C377.011789,377 378.087132,376.650685 378.822291,375.952055 C379.557451,375.253425 379.925031,374.388128 379.925031,373.356164 C379.925031,372.917808 379.851972,372.534247 379.705853,372.205479 C379.559734,371.876712 379.33599,371.593607 379.03462,371.356164 C378.815442,371.191781 378.596264,371.059361 378.377086,370.958904 C378.157908,370.858447 377.609963,370.680365 376.73325,370.424658 L376.73325,370.424658 L376.089415,370.246575 L375.226401,370 C374.632794,369.826484 374.210419,369.634703 373.959278,369.424658 C373.708136,369.214612 373.582565,368.940639 373.582565,368.60274 C373.582565,368.164384 373.776629,367.794521 374.164757,367.493151 C374.552885,367.191781 375.10768,367.041096 375.829141,367.041096 C376.441013,367.041096 376.929597,367.143836 377.294894,367.349315 C377.660191,367.554795 377.842839,367.840183 377.842839,368.205479 L377.842839,368.205479 L377.842839,368.246575 L379.664757,368.246575 L379.664757,368.205479 C379.664757,367.52968 379.379369,366.915525 378.808593,366.363014 C378.237817,365.810502 377.276629,365.534247 375.925031,365.534247 C374.564301,365.534247 373.536903,365.858447 372.842839,366.506849 C372.148775,367.155251 371.801743,367.908676 371.801743,368.767123 C371.801743,369.981735 372.518638,370.853881 373.952428,371.383562 L373.952428,371.383562 L375.199004,371.767123 L375.815442,371.958904 L376.73325,372.246575 C377.646492,372.520548 378.103113,372.990868 378.103113,373.657534 C378.103113,374.150685 377.870237,374.579909 377.404483,374.945205 C376.93873,375.310502 376.33599,375.493151 375.596264,375.493151 C374.746949,375.493151 374.141926,375.340183 373.781196,375.034247 C373.420465,374.728311 373.2401,374.3379 373.2401,373.863014 L373.2401,373.863014 L373.2401,373.835616 L371.43188,373.835616 L371.43188,373.863014 C371.43188,374.484018 371.60768,375.02968 371.959278,375.5 C372.310876,375.97032 372.781196,376.3379 373.370237,376.60274 C373.959278,376.86758 374.701287,377 375.596264,377 Z M393.696887,376.684932 C394.107846,376.684932 394.450311,376.550228 394.724284,376.280822 C394.998257,376.011416 395.135243,375.680365 395.135243,375.287671 C395.135243,374.885845 395.005106,374.554795 394.744832,374.294521 C394.484558,374.034247 394.16264,373.90411 393.779078,373.90411 C393.36812,373.90411 393.027937,374.034247 392.758531,374.294521 C392.489124,374.554795 392.354421,374.885845 392.354421,375.287671 C392.354421,375.680365 392.484558,376.011416 392.744832,376.280822 C393.005106,376.550228 393.322457,376.684932 393.696887,376.684932 Z M385.998257,376.712329 C386.409215,376.712329 386.751681,376.582192 387.025654,376.321918 C387.299626,376.061644 387.436613,375.73516 387.436613,375.342466 C387.436613,374.940639 387.30191,374.60274 387.032503,374.328767 C386.763097,374.054795 386.432046,373.917808 386.039352,373.917808 C385.664923,373.917808 385.338439,374.057078 385.0599,374.335616 C384.781362,374.614155 384.642092,374.945205 384.642092,375.328767 C384.642092,375.703196 384.776795,376.027397 385.046202,376.30137 C385.315608,376.575342 385.63296,376.712329 385.998257,376.712329 Z M401.477709,376.712329 C401.86127,376.712329 402.187754,376.579909 402.457161,376.315068 C402.726567,376.050228 402.86127,375.726027 402.86127,375.342466 C402.86127,374.949772 402.719718,374.614155 402.436613,374.335616 C402.153508,374.057078 401.820174,373.926941 401.436613,373.945205 C401.062183,373.96347 400.744832,374.105023 400.484558,374.369863 C400.224284,374.634703 400.094147,374.954338 400.094147,375.328767 C400.094147,375.721461 400.224284,376.050228 400.484558,376.315068 C400.744832,376.579909 401.075882,376.712329 401.477709,376.712329 Z" opacity="1.00"></path></g></g></svg></g></g><g transform="translate(422,210)">
<g><svg xmlns="http://www.w3.org/2000/svg" width="578" height="540" viewBox="0 0 578 540"><g id="Symbols--globalStyle1/cats/notfound/2" fill="none" fill-rule="evenodd" stroke="none" stroke-width="1"><g id="globalStyle1/cats/notfound/2--globalStyle1/cats/notfound/2"><path id="[color]color--globalStyle1/cats/notfound/2" fill="#545454" fill-rule="nonzero" d="M210.192953,273.920121 C214.524091,264.711769 219.299892,259.749821 225.14513,265.317966 C235.327635,275.01768 221.914165,297.380283 225.446384,328.816333 C225.854032,332.444706 226.273888,336.260881 226.450388,340.036801 C234.677875,345.481421 245.005667,352.646812 257.211035,361.754017 C269.409087,370.857995 295.16832,383.980436 285.135341,403.558254 C273.549833,426.16158 246.593763,410.383763 232.407709,401.069986 C218.5588,391.979704 196.510832,375.93829 187.59641,361.817006 C186.294003,359.753808 185.346695,357.333768 184.799814,354.792851 C184.282351,352.931991 184.003885,350.971581 184,348.946457 C183.99754,347.499379 184.135428,346.084827 184.400828,344.715685 C184.773483,340.050013 185.848384,334.920135 187.533658,329.524691 C192.615293,313.247984 200.633202,294.247548 210.192953,273.920121 Z" opacity="1.00"></path><path id="shadow--globalStyle1/cats/notfound/2" fill="#000" fill-opacity=".15" d="M210.192953,273.920121 C214.524091,264.711769 219.299892,259.749821 225.14513,265.317966 C235.327635,275.01768 221.914165,297.380283 225.446384,328.816333 C225.854032,332.444706 226.273888,336.260881 226.450388,340.036801 C234.677875,345.481421 245.005667,352.646812 257.211035,361.754017 C269.409087,370.857995 295.16832,383.980436 285.135341,403.558254 C273.549833,426.16158 246.593763,410.383763 232.407709,401.069986 C218.5588,391.979704 196.510832,375.93829 187.59641,361.817006 C186.294003,359.753808 185.346695,357.333768 184.799814,354.792851 C184.282351,352.931991 184.003885,350.971581 184,348.946457 C183.99754,347.499379 184.135428,346.084827 184.400828,344.715685 C184.773483,340.050013 185.848384,334.920135 187.533658,329.524691 C192.615293,313.247984 200.633202,294.247548 210.192953,273.920121 Z"></path><path id="[color]color--globalStyle1/cats/notfound/2" fill="#545454" fill-rule="nonzero" d="M395.589092,521.532412 C383.595807,533.664138 335.344269,519.194552 315.468909,507.528953 C284.655731,489.443534 273.602303,471.513046 260.508985,455.10627 C224.351289,409.790955 228.537632,376.326283 227.487108,328.038218 C227.122651,311.282638 229.596703,283.112848 253.098985,280.675886 C293.698213,276.466134 298.641,288.964177 298.641,309.182942 C298.641,329.401708 289.33576,339.606929 299.979682,358.364392 C326.823966,405.671269 350.774684,396.077463 387.412621,434.514249 C424.050557,472.951035 407.582377,509.400686 395.589092,521.532412 Z" opacity="1.00"></path><path id="Fill-29-Copy--globalStyle1/cats/notfound/2" fill="#E7E7E7" d="M236.869823,361.101204 C240.552946,348.133981 243.57057,347.382981 249.545144,337.175194 C260.271997,318.843281 260.961253,288.366493 255.136054,289.039685 C227.882144,292.189294 222.647626,345.853233 222.647626,364.184167 C222.647626,390.27968 217.501385,423.303656 247.628064,461.689003 C277.754742,500.074349 291.971734,519.194552 330.549438,519.194552 C330.549438,519.194552 380.581877,441.364286 332.884656,436.982231 C227.020927,453.926805 226.101602,399.014654 236.869823,361.101204 Z"></path><path id="[color]color--globalStyle1/cats/notfound/2" fill="#545454" fill-rule="nonzero" d="M228.653331,273.878485 L244.212344,244.1899 C244.946381,242.786215 246.682315,242.24277 248.088576,242.979382 C248.601114,243.247242 249.018356,243.661908 249.288791,244.169295 L269.280358,281.587164 L228.653331,273.878485 Z" opacity="1.00"></path><path id="shadow--globalStyle1/cats/notfound/2" fill="#000" fill-opacity=".08" d="M228.653331,273.878485 L244.212344,244.1899 C244.946381,242.786215 246.682315,242.24277 248.088576,242.979382 C248.601114,243.247242 249.018356,243.661908 249.288791,244.169295 L269.280358,281.587164 L228.653331,273.878485 Z"></path><path id="[color]color--globalStyle1/cats/notfound/2" fill="#545454" fill-rule="nonzero" d="M233.794682,326.187779 C222.603834,324.866512 212.116117,316.194571 207.377069,302.948419 L205.700374,296.911285 C204.373956,295.005364 204.003074,292.494184 205.033301,290.4157 C205.950204,288.563865 206.694544,288.553563 209.55085,287.041704 L221.189847,280.203568 C220.249764,268.708803 234.778549,263.637507 246.201199,261.677499 C271.222853,257.386601 294.134001,268.142267 298.460957,304.560814 C300.395209,320.83326 286.493402,333.775406 268.837876,337.571795 C268.752882,337.589824 268.665312,337.607853 268.580319,337.625882 C257.471889,339.938743 245.925613,336.608532 237.318061,329.214073 L233.794682,326.187779 Z" opacity="1.00"></path><path id="Fill-11-Copy--globalStyle1/cats/notfound/2" fill="#D8D5D5" d="M240.089752,264.508038 C246.665765,267.507109 249.235936,273.566149 246.924915,280.319366 C245.967316,283.117412 233.461706,292.716897 220.24076,284.546831 C213.851197,280.598312 210.156342,275.863588 211.794178,269.643245 C213.196655,264.316767 217.362083,257.284291 226.056898,260.192193 C231.028125,261.070042 235.705743,262.508657 240.089752,264.508038 Z" transform="rotate(-11 229.582 273.642)"></path><path id="Combined-Shape-Copy-5--globalStyle1/cats/notfound/2" fill="#B9B6B4" fill-rule="nonzero" d="M247.379842,271.239362 C247.822192,270.89922 248.462668,270.987169 248.810386,271.435802 C249.158105,271.884434 249.081391,272.523862 248.639042,272.864004 C243.183446,277.059053 236.110462,277.225861 229.559804,274.087013 C229.048922,273.842216 228.825887,273.23277 229.061642,272.725776 C229.297397,272.218783 229.902666,272.006231 230.413548,272.251028 C236.315656,275.079114 242.578385,274.931415 247.379842,271.239362 Z M248.055318,265.720519 C248.497668,265.380379 249.138144,265.46833 249.485861,265.916964 C249.833578,266.365597 249.756862,267.005025 249.314512,267.345165 C243.740042,271.631589 236.473666,271.711529 229.835281,268.374913 C229.329009,268.120448 229.117611,267.507041 229.36311,267.004831 C229.608609,266.502621 230.218039,266.301783 230.724311,266.556248 C236.70923,269.564416 243.148479,269.493576 248.055318,265.720519 Z" transform="rotate(-156 239.336 270.835)"></path><path id="Fill-37-Copy--globalStyle1/cats/notfound/2" fill="#E7E7E7" d="M239.615468,311.087733 C232.398724,320.318572 214.436704,308.707907 209.365409,303.636611 C207.948846,302.220048 207.410552,303.054532 207.410552,303.054532 C212.239744,316.578846 222.611561,324.928841 233.794682,326.188294 L237.454566,329.376849 C245.219907,336.356641 245.179554,337.275641 249.545144,337.175194 C258.444771,329.376849 277.352707,307.986747 266.782571,301.030135 C255.097214,293.344637 248.28741,299.989605 239.615468,311.087733 Z"></path><path id="Fill-39-Copy--globalStyle1/cats/notfound/2" fill="#000" d="M211.099539,289.787003 C211.117568,288.056221 208.312774,289.537173 206.749403,289.897753 C206.254894,290.013653 205.87371,289.756096 205.549188,289.421272 C205.371474,289.588684 205.119068,290.005927 205.005743,290.235152 C203.779772,292.707699 204.397909,295.499616 205.974157,297.766122 C205.974157,297.766122 207.231035,297.784145 207.339209,295.697934 C207.501469,292.483624 211.08151,291.517786 211.099539,289.787003"></path><path id="[color]color--globalStyle1/cats/notfound/2" fill="#545454" fill-rule="nonzero" d="M248.34829,361.187101 C273.640624,355.375242 278.948214,386.272059 280.942783,403.122465 C282.655415,417.577907 285.374069,441.03802 282.462491,457.316465 C282.766666,460.967893 282.731172,464.863035 282.353657,468.903564 C280.767185,485.881117 280.361052,507.203433 275.238722,529.072914 C272.916754,538.980536 263.898391,540.47058 257.023202,536.239405 C245.046525,528.868715 253.151331,505.56027 243.160377,475.545563 C241.193665,469.637617 239.078772,463.203739 238.290192,457.085884 L238.273252,456.991596 C238.235486,456.768848 238.201539,456.546053 238.171486,456.323312 C236.733856,445.657598 232.002451,432.246082 232.002451,411.982896 C232.002451,393.418357 232.664149,364.791119 248.34829,361.187101 Z M274.195059,242.838756 C274.622604,243.225092 274.923945,243.732479 275.057875,244.291377 L285.020177,285.526239 L247.628064,267.870713 L270.138538,243.037075 C271.202248,241.862616 273.0206,241.772471 274.195059,242.838756 Z" opacity="1.00"></path><polygon id="shadow--globalStyle1/cats/notfound/2" fill="#000" fill-opacity=".08" points="263.916856 258.963469 271.002247 248.643163 271.913998 264.946516"></polygon><path id="Fill-53-Copy--globalStyle1/cats/notfound/2" fill="#E7E7E7" d="M245.675854,539.13639 C238.55183,539.149233 233.501139,535.612512 232.705288,528.532273 C232.375615,525.598699 233.695763,516.806447 249.087826,514.256197 C249.087826,514.256197 285.903668,536.985755 266.45297,539.100297 L245.675854,539.13639 Z"></path><path id="Combined-Shape-Copy-2--globalStyle1/cats/notfound/2" fill="#B9B6B4" fill-rule="nonzero" d="M246.270925,522.909273 C246.796386,522.721857 247.374287,522.995898 247.561703,523.52136 C247.749118,524.046821 247.475078,524.624722 246.949616,524.812138 C240.737844,527.027679 236.392394,531.708897 235.709967,537.859567 C235.648447,538.414048 235.149078,538.813672 234.594597,538.752152 C234.040116,538.690631 233.640492,538.191263 233.702012,537.636781 C234.47729,530.649243 239.380918,525.366719 246.270925,522.909273 Z M242.351288,518.749193 C242.873063,518.551745 243.456108,518.814664 243.653555,519.336439 C243.851003,519.858214 243.588083,520.441259 243.066309,520.638706 C237.03836,522.919775 232.867732,527.527405 232.199982,533.546 C232.138464,534.100482 231.639097,534.500107 231.084615,534.438589 C230.530133,534.37707 230.130508,533.877703 230.192026,533.323222 C230.950749,526.484668 235.660961,521.280915 242.351288,518.749193 Z"></path><path id="[color]color--globalStyle1/cats/notfound/2" fill="#545454" fill-rule="nonzero" d="M517.618454,291.291669 C521.373724,302.516618 484.496009,306.477657 478.086109,356.851778 C473.418596,393.518556 485.906422,434.07078 461.02559,498.415138 C442.175403,547.15298 409.54916,540.237106 390.041315,530.341274 C389.424246,530.802247 388.792648,531.250496 388.147349,531.685754 C376.422989,539.594721 362.417473,541.703086 349.585158,538.682471 C346.855888,539.011529 343.791412,539.162326 340.369337,539.100297 C323.528838,538.795044 301.769569,539.087998 300.905935,539.099838 L300.879387,539.100205 L300.879387,538.788814 C291.787798,537.149256 290.099849,528.985958 293.047529,521.769818 C295.406649,515.993288 302.471677,517.612684 319.78145,517.774698 L300.208294,488.754894 C285.16708,466.457593 291.106757,435.913211 313.402928,420.874312 C335.6991,405.835412 366.244611,411.772774 381.286954,434.06776 L401.343112,463.802857 C412.52812,480.385377 412.109549,501.532274 401.987934,517.468525 C412.178107,522.482464 425.555367,523.87819 437.445741,508.383426 C451.353429,490.261875 461.930178,440.286679 459.662407,373.275065 C457.81831,318.855141 509.249919,266.288439 517.618454,291.291669 Z" opacity="1.00"></path><path id="Combined-Shape-Copy-3--globalStyle1/cats/notfound/2" fill="#E7E7E7" d="M305.737607,517.244838 C305.737607,517.244838 332.79254,536.949558 313.341842,539.0641 L292.564726,539.100251 C285.440702,539.113036 280.39001,536.467926 279.59416,529.390262 C279.264487,526.456689 286.085069,514.370975 305.737607,517.244838 Z M517.617248,291.256642 C518.9964,295.379461 514.891017,298.526585 508.834716,303.347057 C505.034391,298.882968 499.537009,295.436605 493.997388,292.846509 C504.603502,283.574051 514.365233,281.538003 517.617248,291.256642 Z"></path><path id="Combined-Shape-Copy-4--globalStyle1/cats/notfound/2" fill="#B9B6B4" fill-rule="nonzero" d="M291.69777,522.942261 C292.223232,522.754846 292.801133,523.028886 292.988548,523.554348 C293.175964,524.07981 292.901923,524.657711 292.376462,524.845126 C286.165061,527.060535 281.819241,531.7415 281.136809,537.890019 C281.075266,538.444498 280.575882,538.844102 280.021403,538.78256 C279.466924,538.721018 279.06732,538.221634 279.128862,537.667155 C279.904182,530.681753 284.808187,525.399556 291.69777,522.942261 Z M287.708851,519.260207 C288.230625,519.062759 288.81367,519.325678 289.011118,519.847453 C289.208565,520.369228 288.945646,520.952273 288.423872,521.14972 C282.395922,523.430789 278.225295,528.038419 277.557545,534.057014 C277.496026,534.611496 276.99666,535.011121 276.442178,534.949603 C275.887696,534.888084 275.488071,534.388717 275.549589,533.834236 C276.308312,526.995682 281.018524,521.791929 287.708851,519.260207 Z"></path></g></g></svg></g></g></svg>