<?xml version="1.0" encoding="UTF-8"?>
<svg id="illustration-builder" width="508" height="519" viewBox="-10 -30 578 579" version="1.1" xmlns="http://www.w3.org/2000/svg" xmlns:xlink="http://www.w3.org/1999/xlink" style="pointer-events: inherit;"><g transform="translate(0,0)">
<g><svg xmlns="http://www.w3.org/2000/svg" width="508" height="519" viewBox="0 0 508 519"><g id="Symbols--globalStyle1/bubbles/bg1" fill="none" fill-rule="evenodd" stroke="none" stroke-width="1"><g id="globalStyle1/bubbles/bg1--globalStyle1/bubbles/bg1" fill="#F5F5F5"><circle id="[color:background]background--globalStyle1/bubbles/bg1" cx="254" cy="242" r="205" fill="#f5f5f5" opacity="1.00"></circle></g></g></svg></g></g><g transform="translate(128,73)">
<g transform="translate(53,90)">

<g><svg xmlns="http://www.w3.org/2000/svg" width="120" height="150" viewBox="0 0 120 150"><g id="Symbols--globalStyle1/peoplechair/womansitting/head/2" fill="none" fill-rule="evenodd" stroke="none" stroke-width="1"><g id="globalStyle1/peoplechair/womansitting/head/2--globalStyle1/peoplechair/womansitting/head/2"><path id="[hair]hair--globalStyle1/peoplechair/womansitting/head/2" fill="#2a4862" d="M94.0540717,79.6463918 C87.1176963,124.672304 67.5098558,145.292691 55.2034762,131.518032 C54.8966675,131.174617 43.1261951,108.246693 52.3489613,64.5646643 C57.6947611,39.2452125 62.6664326,28.7346159 79.0682835,28.7346159 C96.0633366,28.7346159 96.0633366,66.6037025 94.0540717,79.6463918 Z" opacity="1.00"></path><path id="shadow--globalStyle1/peoplechair/womansitting/head/2" fill="#000" fill-opacity=".2" d="M94.0540717,79.6463918 C87.1176963,124.672304 67.5098558,145.292691 55.2034762,131.518032 C54.8966675,131.174617 43.1261951,108.246693 52.3489613,64.5646643 C57.6947611,39.2452125 62.6664326,28.7346159 79.0682835,28.7346159 C96.0633366,28.7346159 96.0633366,66.6037025 94.0540717,79.6463918 Z"></path><g id="Group--globalStyle1/peoplechair/womansitting/head/2" transform="translate(35.216 19.964)"><polygon id="[skin]skin--globalStyle1/peoplechair/womansitting/head/2" fill="#9a6059" points="5.57059381 71.1663914 39.598495 20.4386873 48.9854646 31.9638476 31.3316378 76.6420703" transform="rotate(-12 27.278 48.54)" opacity="1.00"></polygon><polygon id="shadow--globalStyle1/peoplechair/womansitting/head/2" fill="#000" fill-opacity=".04" points="5.57059381 71.1663914 39.598495 20.4386873 48.9854646 31.9638476 31.3316378 76.6420703" transform="rotate(-12 27.278 48.54)"></polygon><ellipse id="[skin]skin--globalStyle1/peoplechair/womansitting/head/2" cx="45.328" cy="19.336" fill="#9a6059" rx="10.236" ry="17.511" transform="rotate(-12 45.328 19.336)" opacity="1.00"></ellipse><path id="smile--globalStyle1/peoplechair/womansitting/head/2" fill="#FFF" fill-rule="nonzero" d="M50.6623358,30.3469927 C51.3403309,30.3466344 52.7288499,29.8862396 52.7297211,28.2396809 C52.7297211,28.2396809 48.5971791,28.2418639 48.5971791,28.2418639 C48.5963727,29.766537 49.9843407,30.3473507 50.6623358,30.3469927 Z" transform="rotate(4 50.663 29.293)"></path></g><path id="[hair]hair--globalStyle1/peoplechair/womansitting/head/2" fill="#2a4862" d="M48.8269456,108.189973 C46.4339456,141.080573 14.6487474,178.25258 7.79465594,117.67372 C4.79837481,91.1915385 21.4614205,75.1463918 36.9734762,53.1463918 C45.7378733,40.7162703 49.2556389,32.463705 53.2496389,25.0608613 C59.5546389,13.3734679 69.0176389,5.8196268 88.1016389,19.4232958 C93.3146389,23.1386253 90.5826389,26.2062557 79.9056389,28.6251935 C79.5616389,30.1907976 76.4096394,30.5341987 74.5508546,36.258276 C74.2253771,36.7641865 69.3434196,50.6731706 59.9107807,64.8336977 C49.0932933,81.0731959 49.0932933,104.525519 48.8269456,108.189973 Z" opacity="1.00"></path></g></g></svg></g>
</g>
<g transform="translate(68,247)">

<g><svg xmlns="http://www.w3.org/2000/svg" xmlns:xlink="http://www.w3.org/1999/xlink" width="251" height="180" viewBox="0 0 251 180"><defs><path id="path-1--globalStyle1/peoplechair/womansitting/bottom/2" d="M165.992373,25.945352 C178.126919,25.9242876 187.978128,35.7597017 187.999964,47.9146047 C188.001661,48.8620258 187.943546,49.7955731 187.829188,50.7116613 L183.178733,125.994253 L134.971374,126 L141.356963,71.2192434 C95.8514268,73.3766057 55.613511,74.428915 52.1256455,74.1880452 C43.5720978,73.5984031 35.452251,67.3238295 31.6935089,56.6815367 C28.5623712,47.8173654 29.7521806,37.5026516 35.4373354,30.230399 C43.8574216,19.4588729 165.485626,25.9183906 165.992373,25.945352 Z"></path><path id="path-3--globalStyle1/peoplechair/womansitting/bottom/2" d="M84.9703356,26.9080846 C125.795986,29.3724991 158.239234,29.3247755 158.926052,29.3234785 L158.936819,29.3230799 C169.224677,29.3056376 177.872744,36.3401219 180.285287,45.8576947 L223,125.906088 L168.866871,126 L146.358516,73.6746845 C93.5453465,76.0980983 32.009024,75.560645 28.1417427,75.2956807 C19.5823829,74.7070127 14.3242071,68.6732015 10.5634154,58.0691601 C7.43171829,49.236849 11.2867947,33.1910583 16.9750496,25.9449442 C25.4173151,15.1908725 51.9164666,24.9107362 84.9703356,26.9080846 Z"></path></defs><g id="Symbols--globalStyle1/peoplechair/womansitting/bottom/2" fill="none" fill-rule="evenodd" stroke="none" stroke-width="1"><g id="globalStyle1/peoplechair/womansitting/bottom/2--globalStyle1/peoplechair/womansitting/bottom/2"><path id="[skin]skin--globalStyle1/peoplechair/womansitting/bottom/2" fill="#9a6059" d="M178,50.4232907 L161.130618,171 C156.615281,170.339113 153,169.821245 153,169.821245 C153,169.821245 157.728477,68.5186781 158.062089,50 C158.062089,50 162.622602,50 178,50.4232907" opacity="1.00"></path><path id="shadow--globalStyle1/peoplechair/womansitting/bottom/2" fill="#000" fill-opacity=".04" d="M178,50.4232907 L161.130618,171 C156.615281,170.339113 153,169.821245 153,169.821245 C153,169.821245 157.728477,68.5186781 158.062089,50 C158.062089,50 162.622602,50 178,50.4232907"></path><path id="shape--globalStyle1/peoplechair/womansitting/bottom/2" fill="#C9C8C8" d="M152,160 L152.524999,178 L183,177.979391 C182.910033,176.102792 182.731237,175.03912 179.105213,174.968132 C173.665038,174.860505 161.185776,175.816551 161.182359,170.595509 C161.18122,169.481458 160.923846,172.156097 163.764079,160 L152,160 Z"></path><path id="shadow--globalStyle1/peoplechair/womansitting/bottom/2" fill="#000" fill-opacity=".04" d="M152,160 L152.524999,178 L183,177.979391 C182.910033,176.102792 182.731237,175.03912 179.105213,174.968132 C173.665038,174.860505 161.185776,175.816551 161.182359,170.595509 C161.18122,169.481458 160.923846,172.156097 163.764079,160 L152,160 Z"></path><path id="[clothes]clothes--globalStyle1/peoplechair/womansitting/bottom/2" fill="#dcdbdb" d="M152,180 L183,180 L183,178.011866 C172.297881,177.996045 172.29904,177.996045 152,178.011866 L152,180 Z" opacity="1.00"></path><path id="[skin]skin--globalStyle1/peoplechair/womansitting/bottom/2" fill="#9a6059" d="M217,168.158568 C213.220618,169.821817 210.593642,171 210.593642,171 C210.593642,171 154.595748,75.4511163 149,56.8829588 C149,56.8829588 153.095773,55.1277541 168.741004,46 L217,168.158568 Z" opacity="1.00"></path><path id="shape--globalStyle1/peoplechair/womansitting/bottom/2" fill="#C9C8C8" d="M202,161 L212.901242,178 L244,177.980497 C243.90935,176.100148 243.726888,175.033203 240.025347,174.96322 C234.473616,174.855379 223.256261,174.576596 219.512881,170.870968 C217.190846,168.574167 216.94214,167.845661 214.928083,161.009178 L202,161 Z"></path><path id="[clothes]clothes--globalStyle1/peoplechair/womansitting/bottom/2" fill="#dcdbdb" d="M213,180 L244,180 L244,178.007048 C244,178.007048 233.297881,177.991189 213,178.007048 L213,180 Z" opacity="1.00"></path><mask id="mask-2--globalStyle1/peoplechair/womansitting/bottom/2" fill="#fff"><use xlink:href="#path-1--globalStyle1/peoplechair/womansitting/bottom/2"></use></mask><use id="[clothes]clothes--globalStyle1/peoplechair/womansitting/bottom/2" fill="#dcdbdb" xlink:href="#path-1--globalStyle1/peoplechair/womansitting/bottom/2" opacity="1.00"></use><path id="Stroke-19--globalStyle1/peoplechair/womansitting/bottom/2" fill="#CEE0F4" fill-rule="nonzero" d="M136.655845,112 L178.346448,111.947194 C178.708027,111.946736 179.000632,111.734329 179,111.472768 C178.999366,111.211208 178.705735,110.999543 178.344155,111 L136.653552,111.052806 C136.291973,111.053264 135.999368,111.265671 136,111.527232 C136.000634,111.788792 136.294265,112.000457 136.655845,112 Z" mask="url(#mask-2--globalStyle1/peoplechair/womansitting/bottom/2)"></path><path id="shadow--globalStyle1/peoplechair/womansitting/bottom/2" fill="#000" fill-opacity=".04" d="M165.992373,25.945352 C178.126919,25.9242876 187.978128,35.7597017 187.999964,47.9146047 C188.001661,48.8620258 187.943546,49.7955731 187.829188,50.7116613 L183.178733,125.994253 L134.971374,126 L141.356963,71.2192434 C95.8514268,73.3766057 55.613511,74.428915 52.1256455,74.1880452 C43.5720978,73.5984031 35.452251,67.3238295 31.6935089,56.6815367 C28.5623712,47.8173654 29.7521806,37.5026516 35.4373354,30.230399 C43.8574216,19.4588729 165.485626,25.9183906 165.992373,25.945352 Z"></path><mask id="mask-4--globalStyle1/peoplechair/womansitting/bottom/2" fill="#fff"><use xlink:href="#path-3--globalStyle1/peoplechair/womansitting/bottom/2"></use></mask><use id="[clothes]clothes--globalStyle1/peoplechair/womansitting/bottom/2" fill="#dcdbdb" xlink:href="#path-3--globalStyle1/peoplechair/womansitting/bottom/2" opacity="1.00"></use><polygon id="Stroke-28--globalStyle1/peoplechair/womansitting/bottom/2" fill="#CEE0F4" fill-rule="nonzero" points="162.002285 112 216 111.933337 215.997715 111 162 111.066663" mask="url(#mask-4--globalStyle1/peoplechair/womansitting/bottom/2)"></polygon></g></g></svg></g>
</g>
<g transform="translate(67,154)">

<g><svg xmlns="http://www.w3.org/2000/svg" xmlns:xlink="http://www.w3.org/1999/xlink" width="193" height="178" viewBox="0 0 193 178"><defs><polygon id="path-1--globalStyle1/peoplechair/womansitting/top/1" points="0.9688 0.262043258 45.003 0.262043258 45.003 54.4044309 0.9688 54.4044309"></polygon></defs><g id="Symbols--globalStyle1/peoplechair/womansitting/top/1" fill="none" fill-rule="evenodd" stroke="none" stroke-width="1"><g id="globalStyle1/peoplechair/womansitting/top/1--globalStyle1/peoplechair/womansitting/top/1"><g id="globalStyle1/people/womansitting/top/1--globalStyle1/peoplechair/womansitting/top/1" transform="translate(12.256 5)"><g id="mac1--globalStyle1/peoplechair/womansitting/top/1" transform="translate(68 112.04)"><polygon id="Fill-18--globalStyle1/peoplechair/womansitting/top/1" fill="#888889" points="1.49213975e-13 16.0177882 0.003 17.8420242 47.439 20.1726534 47.439 18.4856927"></polygon><polygon id="Fill-20--globalStyle1/peoplechair/womansitting/top/1" fill="#C7C7C9" points="47.439 18.4853876 9.9475983e-14 16.0174831 36.464 4.4408921e-14 72.501 1.88016292"></polygon><polygon id="Fill-22--globalStyle1/peoplechair/womansitting/top/1" fill="#B4B4B5" points="48.2334 16.8876051 24.2284 15.7233073 51.0234 1.96832416 70.0344 2.95772303"></polygon><polyline id="Fill-24--globalStyle1/peoplechair/womansitting/top/1" fill="#939396" points="47.4361 18.4853876 47.4391 20.1723483 72.5031 3.34443258 72.5011 1.88016292"></polyline><polygon id="Fill-26--globalStyle1/peoplechair/womansitting/top/1" fill="#B4B4B5" points="29.4444 9.7001764 19.9644 9.22327191 28.5554 5.4314236 37.3794 5.87578876"></polygon></g><path id="[skin]hand--globalStyle1/peoplechair/womansitting/top/1" fill="#9a6059" d="M67.4777624 118.140449L76.1319946 123.274743 85.0072407 123.065116 90.8160423 125.72769C91.2729366 125.952961 91.1549964 126.227249 91.0737267 126.235592 89.3710273 126.405588 88.0191752 126.15633 86.2817875 125.354325 84.4760144 126.120871 82.9150414 125.283406 83.5384395 127.0741 83.6117805 127.284769 86.6722785 128.291187 89.8229661 128.508114 90.2709406 128.540445 92.4374719 128.852278 92.7070495 128.874179 94.2610848 128.996201 94.5068761 128.930497 95.604017 128.826205 95.940989 128.794917 96.3701326 128.91381 96.8944213 129.183926 96.9687534 129.222514 97.0331745 129.275703 97.0787648 129.33515 97.2036426 129.499931 97.1540879 129.676184 96.9697445 129.72833 96.5554672 129.84618 96.099564 129.954644 95.6010438 130.05685 94.8725897 130.204945 92.5831627 130.345739 90.6138591 130.24979 89.2788556 130.185129 87.6237287 130.120468 87.4324476 130.173657 87.1371016 130.257091 89.79026 130.604383 91.8923703 131.068482 93.9954716 131.534667 95.3413771 130.758735 97.2512151 130.509477 97.513855 130.475061 98.0014733 130.563709 98.7130787 130.773336 98.7507403 130.784808 99.0867211 130.978791 98.9786919 131.167559 98.8696715 131.356328 96.6942204 132.156247 95.4365222 132.431578 93.3403585 132.890463 92.8993217 132.792428 91.8884059 132.632862 90.6287255 132.43575 88.3799334 132.177106 87.7634729 132.134346 87.1470125 132.092629 90.5335805 133.106347 93.0687988 133.307631 93.4632541 133.338918 94.273969 133.294073 94.6476114 133.281558 95.7685386 133.240884 97.2214823 132.729853 97.7388334 133.021871 97.8131654 133.06463 97.8815509 133.114691 97.9400254 133.172051 98.2086119 133.432781 98.2056386 133.760258 97.9340789 133.900009 97.2294111 134.266074 96.1729049 134.549748 94.7645605 134.75416 94.432544 134.802135 93.1262822 134.950229 92.6475838 134.892869 90.6257522 134.647782 88.1410797 133.911481 87.9111459 133.987614 87.6802211 134.063747 89.1599243 134.334907 90.9488488 134.778147 91.3561884 134.879311 93.0301461 135.119182 93.3423407 135.189058 93.7546358 135.279792 94.0479996 135.277706 94.7625783 135.360097 96.1897535 135.523835 96.3076937 136.121428 95.5336494 136.379029 94.7586139 136.635587 88.4681407 136.088055 85.7029887 135.476904 84.1895882 135.142126 81.1548586 134.755203 77.4620426 133.353519L63 126.960421 67.4777624 118.140449zM100.148056 102.887647C100.624331 102.886781 101.082067 102.969511 101.508468 103.12257L101.511211 103.114402 108.533907 104.375746C112.994784 105.60574 115.421244 106.787662 117.028523 107.296588 119.963336 108.227705 126.23002 111.123466 126.842651 111.779741 127.455282 112.434971 127.050204 112.922998 125.609368 112.303298 124.886443 111.992926 124.608704 111.831993 124.17154 111.693004 123.839656 111.587457 122.127097 110.905056 121.687928 110.777563 119.76581 110.219521 118.222702 109.669838 118.405188 109.864212 118.587674 110.059632 121.31694 110.722177 123.364391 111.589547 123.84868 111.796462 125.021803 112.639796 125.314583 112.863431 126.557893 113.812313 127.426205 114.646242 127.919518 115.365219 128.109023 115.641105 127.952606 115.944162 127.568584 116.040304 127.486365 116.061205 127.396125 116.07061 127.303879 116.069565 126.668187 116.06016 125.533165 114.802996 124.48337 114.159261 124.133438 113.945031 123.381436 113.465365 122.991398 113.281441 120.4757 112.096384 116.749781 111.200798 117.358401 111.495495 117.968024 111.790192 120.23907 112.766244 121.536524 113.26472 122.577295 113.66601 123.045542 113.813358 124.820267 115.370444 125.885102 116.302605 127.568584 118.219179 127.579613 118.45222 127.58964 118.684215 127.175537 118.68108 127.133425 118.671675 126.352346 118.480435 125.844995 118.298601 125.61037 118.124082 123.911848 116.862738 123.00744 115.418515 120.775498 114.711034 118.542554 114.003552 115.84437 112.889557 116.085011 113.125732 116.241427 113.279351 117.849709 114.11328 119.155185 114.775825 121.08031 115.751878 123.193937 117.119814 123.815592 117.650686 124.241727 118.014354 124.622741 118.362347 124.960641 118.69362 125.111041 118.842013 125.071937 119.030118 124.872406 119.11581 124.800213 119.14716 124.712981 119.160746 124.621738 119.156566 123.991059 119.121035 123.522813 118.998767 123.216998 118.787672 122.22235 118.099001 122.019811 117.903582 120.478708 117.17729 120.210995 117.050842 117.992088 116.167797 117.549911 115.954612 114.43963 114.452913 111.028549 113.725576 110.857092 113.881285 109.386176 115.19697 111.285232 115.268031 112.630815 116.951565 114.679268 117.151165 116.091027 117.652776 117.631127 118.729151 117.704322 118.781402 117.682263 119.098044 117.137814 119.058333L117.137814 119.058333 110.2966 118.375933 103.27992 112.657562 98.5703812 111.316796 98.5993385 111.235218C97.0776363 110.594585 96.0030564 109.041906 96.0000065 107.226594 95.9960023 104.834534 97.852946 102.891834 100.148056 102.887647z" opacity="1.00"></path><path id="Combined-Shape--globalStyle1/peoplechair/womansitting/top/1" fill="#E8E8E8" d="M51.0403008,2.29008038 C57.3476026,1.6178496 64.2502704,5.75307742 63.9724962,13.3116174 C63.3744647,29.5425627 59.9552845,76.5399173 59.433257,79.020438 C59.4051771,79.153835 59.3768422,79.286181 59.3482558,79.4174827 C67.7974502,83.3832431 82.4535393,90.9312201 102,101.900463 L102,101.900463 L97.957787,113.05618 C68.3922771,106.516039 50.0812237,99.7420203 42.5541979,93.2252373 C41.3215726,92.4582283 40.2397083,91.3824946 39.4255027,90.0267929 C37.4474719,86.7332516 37.5899438,82.6858878 39.4689672,79.6140258 C37.9584248,60.6841798 40.4348245,23.1381946 41.1032912,12.7743242 C41.5050709,8.87123586 49.1952592,17.1868363 51.4847337,15.4758151 C52.5325177,14.6927618 52.8833109,9.37861331 52.3460105,5.75212556 C52.0476639,3.73844699 50.3281934,2.36597662 51.0403008,2.29008038 Z"></path><path id="shadow--globalStyle1/peoplechair/womansitting/top/1" fill="#000" fill-opacity=".04" d="M51.0403008,2.29008038 C57.3476026,1.6178496 64.2502704,5.75307742 63.9724962,13.3116174 C63.3744647,29.5425627 59.9552845,76.5399173 59.433257,79.020438 C59.4051771,79.153835 59.3768422,79.286181 59.3482558,79.4174827 C67.7974502,83.3832431 82.4535393,90.9312201 102,101.900463 L102,101.900463 L97.957787,113.05618 C68.3922771,106.516039 50.0812237,99.7420203 42.5541979,93.2252373 C41.3215726,92.4582283 40.2397083,91.3824946 39.4255027,90.0267929 C37.4474719,86.7332516 37.5899438,82.6858878 39.4689672,79.6140258 C37.9584248,60.6841798 40.4348245,23.1381946 41.1032912,12.7743242 C41.5050709,8.87123586 49.1952592,17.1868363 51.4847337,15.4758151 C52.5325177,14.6927618 52.8833109,9.37861331 52.3460105,5.75212556 C52.0476639,3.73844699 50.3281934,2.36597662 51.0403008,2.29008038 Z"></path><path id="[clothes]bluse--globalStyle1/peoplechair/womansitting/top/1" fill="#b5c7fc" d="M31.3189523,0.185814923 C-5.57744702,1.82298334 0.350589887,31.62094 0.350589887,65.0059704 C0.350589887,74.0082635 -1.28625613,110.355378 2.99286957,115.713595 C18.8133683,135.521897 50.5006159,128.583902 61.1562019,117.894951 C65.2593767,113.77857 64.6752197,113.256388 64.5244047,77.0436364 C64.4389428,56.4189798 68.9261933,43.2239634 66.0184791,33.8419942 C63.920139,27.0729701 59.3324413,2.20545087 50.290681,1.12642439 C50.1299267,1.10724028 47.9505856,6.28651685 47.3729215,6.28651685 C44.5114573,5.93635982 32.5626738,0.131236269 31.3189523,0.185814923 Z" opacity="1.00"></path><path id="shadow--globalStyle1/peoplechair/womansitting/top/1" fill="#000" fill-opacity=".04" d="M101.897899,103.904494 L99,111.702931 L103.640788,112.977665 L110.555038,118.414414 L117.296382,119.063208 C117.832883,119.100963 117.85462,118.799915 117.782494,118.750237 C116.264876,117.726872 114.873727,117.249964 112.855177,117.060195 C111.529237,115.459573 109.657904,115.392011 111.107348,114.141122 C111.276301,113.993082 114.637587,114.684598 117.702463,116.112341 C118.138185,116.315026 120.324701,117.154583 120.588505,117.274803 C122.107111,117.965326 122.306693,118.151121 123.286821,118.805876 C123.588171,119.006575 124.049582,119.122821 124.671055,119.156602 C124.760966,119.160576 124.846924,119.14766 124.918063,119.117853 C125.114681,119.036382 125.153214,118.857541 125.00501,118.716456 C124.672043,118.401498 124.29659,118.070643 123.876677,117.724885 C123.264097,117.220158 121.181325,115.91959 119.284303,114.991607 C117.997885,114.361692 116.413081,113.568832 116.258948,113.422779 C116.02182,113.198235 118.680615,114.257368 120.880963,114.930007 C123.080323,115.602645 123.971528,116.975742 125.645255,118.174967 C125.876454,118.340891 126.376398,118.51377 127.146076,118.695591 C127.187573,118.704533 127.59563,118.707514 127.58575,118.486944 C127.574882,118.265381 125.915975,116.443195 124.866685,115.556942 C123.117868,114.07654 122.656457,113.936449 121.630879,113.554922 C120.352366,113.080995 118.114472,112.153012 117.513749,111.872829 C116.914013,111.592646 120.585541,112.444125 123.064514,113.570819 C123.448859,113.745686 124.189883,114.201729 124.534706,114.405408 C125.569176,115.01744 126.687629,116.21269 127.314041,116.221632 C127.40494,116.222625 127.493863,116.213683 127.574882,116.193812 C127.953298,116.102405 128.107431,115.814273 127.920693,115.551974 C127.434581,114.868406 126.578945,114.075547 125.353785,113.173396 C125.06528,112.960775 123.909282,112.158974 123.432062,111.962249 C121.4145,111.137596 118.725076,110.50768 118.545255,110.321885 C118.365433,110.137083 119.886014,110.659695 121.780072,111.190255 C122.21283,111.311469 123.90039,111.960262 124.227428,112.060611 C124.65821,112.192755 124.931895,112.345762 125.644267,112.640849 C127.064069,113.230029 127.463234,112.766037 126.859546,112.143077 C126.255858,111.519122 120.080657,108.765973 117.188686,107.880713 C115.604871,107.39685 113.213832,106.273136 108.818077,105.103719 L101.897899,103.904494 Z"></path><g id="mac2--globalStyle1/peoplechair/womansitting/top/1" transform="translate(114 75.433)"><mask id="mask-2--globalStyle1/peoplechair/womansitting/top/1" fill="#fff"><use xlink:href="#path-1--globalStyle1/peoplechair/womansitting/top/1"></use></mask><polygon id="Fill-35--globalStyle1/peoplechair/womansitting/top/1" fill="#9F9FA0" points="0.9688 54.4044309 26.0308 37.7992062 45.0038 0.262043258 19.6588 16.8032062" mask="url(#mask-2--globalStyle1/peoplechair/womansitting/top/1)"></polygon><path id="Fill-38--globalStyle1/peoplechair/womansitting/top/1" fill="#BEBEBF" d="M25.6685,28.9632539 C24.7305,30.9562876 23.6495,32.248709 22.8355,31.8531528 C22.0225,31.4565798 22.1235,29.5204899 23.0615,27.5274562 C24.0005,25.5354393 25.4205,24.2399674 26.2335,24.6365404 C27.0475,25.0331135 26.6065,26.9702202 25.6685,28.9632539" mask="url(#mask-2--globalStyle1/peoplechair/womansitting/top/1)"></path></g><path id="Combined-Shape--globalStyle1/peoplechair/womansitting/top/1" fill="#E8E8E8" d="M29.1985812,15.4362657 C32.9065009,26.2769342 36.1525995,69.5506235 36.5459764,84.9847919 C40.0730204,88.21474 45.2606117,90.8110184 71.207361,118.114423 L72,118.949387 L67.1084898,129.325843 C37.9787529,112.601079 24.76174,102.945182 20.1366331,95.7831551 C19.9659292,95.6081112 19.8124275,95.4302955 19.6781449,95.2507905 C13.5582238,87.0715948 3.7882822,27.9350169 6.4493362,15.8222297 C9.11139628,3.7094426 24.828215,2.6558925 29.1985812,15.4362657 Z"></path><path id="shadow--globalStyle1/peoplechair/womansitting/top/1" fill="#000" fill-opacity=".04" d="M29.1985812,15.4362657 C32.9065009,26.2769342 36.1525995,69.5506235 36.5459764,84.9847919 C40.0730204,88.21474 45.2606117,90.8110184 71.207361,118.114423 L72,118.949387 L67.1084898,129.325843 C37.9787529,112.601079 24.76174,102.945182 20.1366331,95.7831551 C19.9659292,95.6081112 19.8124275,95.4302955 19.6781449,95.2507905 C13.5582238,87.0715948 3.7882822,27.9350169 6.4493362,15.8222297 C9.11139628,3.7094426 24.828215,2.6558925 29.1985812,15.4362657 Z"></path></g></g></g></svg></g>
</g>
<g transform="translate(0.5,150)">

<g><svg xmlns="http://www.w3.org/2000/svg" width="198" height="277" viewBox="0 0 198 277"><g id="Symbols--globalStyle1/peoplechair/womansitting/chair/2" fill="none" fill-rule="evenodd" stroke="none" stroke-width="1"><g id="globalStyle1/peoplechair/womansitting/chair/2--globalStyle1/peoplechair/womansitting/chair/2" fill-rule="nonzero"><g id="chair--globalStyle1/peoplechair/womansitting/chair/2" transform="rotate(-4 920.027 162.622)"><path id="Path-199-Copy--globalStyle1/peoplechair/womansitting/chair/2" fill="#545252" d="M194.163835,113.866907 L169.16547,209.203547 C167.800532,214.373315 163.413434,217.954072 158.402067,217.988656 L44.3760114,218.82207 C38.1565072,218.864992 33.0821489,213.494265 33.0421148,206.826216 C33.0358286,205.779192 33.1566026,204.735739 33.4013971,203.722119 L63.2390564,32.9992888 L61.4220354,32.4948919 L31.5843761,203.217722 C31.2987825,204.400279 31.1578795,205.617641 31.1640275,206.839169 C31.2119198,214.618559 37.1320045,220.884407 44.3880927,220.835216 L158.414149,220.000918 C164.260743,219.96057 169.379024,215.78302 170.971452,209.751623 L194.163835,118.935314 L194.163835,113.866907 Z" transform="rotate(4 112.664 126.665)"></path><path id="Path-199--globalStyle1/peoplechair/womansitting/chair/2" fill="#828282" d="M184.838556,125.21838 L161.449614,208.145158 C159.995185,213.301917 155.320452,216.873664 149.980519,216.90816 L21.2969534,217.739477 C14.6696737,217.782291 9.26262009,212.425079 9.2199612,205.773811 C9.21326285,204.729421 9.34195529,203.688594 9.60279951,202.677525 L44.0932893,15.0585444 L42.1571371,14.5554168 L7.66664733,202.174397 C7.36232907,203.353978 7.21218789,204.568277 7.2197126,205.786731 C7.26977134,213.546544 13.5780005,219.796624 21.3098268,219.746972 L149.993393,218.915358 C156.223314,218.875112 161.677169,214.708075 163.374003,208.691856 L187.407451,123.6166 L184.838556,125.21838 Z" transform="rotate(4 97.313 117.151)"></path><path id="[chair]chair--globalStyle1/peoplechair/womansitting/chair/2" fill="#cee0f4" d="M61.2872062,0.984723398 L63.2188102,1.07286342 C70.8035022,1.41895656 77.0983189,7.00150753 78.2860826,14.4352566 L90.0363083,88.034232 C93.8866633,107.932772 116.191431,108.42312 186.57153,112.389504 L186.57153,112.389504 L187.097382,112.37339 C192.149375,112.37339 196.244824,116.738023 196.244824,122.122072 C196.244824,122.240929 196.242845,122.359777 196.238887,122.478559 C196.054147,128.022905 191.687004,132.35788 186.4846,132.160997 C136.977543,139.070525 104.186387,137.450012 88.1111347,127.299457 C87.0258548,126.711756 85.9420589,125.924445 84.860869,124.943326 C83.0740997,123.449597 81.5745399,121.810502 80.3618372,120.025025 C76.5932977,114.476559 74.2139118,109.92312 72.9691468,106.169058 C64.5309181,87.0976351 56.4037304,56.2366227 48.9041002,15.0025025 C47.7260922,8.52584117 52.0677932,2.32887006 58.6015242,1.16118663 L61.2872062,0.984723398 Z" opacity="1.00"></path></g></g></g></svg></g>
</g></g><g transform="translate(92,124)">
<g><svg xmlns="http://www.w3.org/2000/svg" width="91" height="92" viewBox="0 0 91 92"><g id="Symbols--globalStyle1/objects/bubbles2/13 Copy" fill="none" fill-rule="evenodd" stroke="none" stroke-width="1"><g id="globalStyle1/objects/bubbles2/13-Copy--globalStyle1/objects/bubbles2/13 Copy" fill-rule="nonzero"><path id="[color:objects]shape--globalStyle1/objects/bubbles2/13 Copy" fill="#ffeb92" d="M23.5344748,14.7153473 L23.5509456,14.7173697 L23.5509456,14.7173697 L73.9675609,20.9551123 C78.8940809,21.5646408 82.3968342,26.0479921 81.7963905,30.9756275 L77.4880629,66.3325903 C76.8868355,71.2666575 72.3995925,74.7791182 67.4655252,74.1778907 L67.4490544,74.1758683 L67.4490544,74.1758683 L65.012,73.874 L60.7593358,81.9913789 C59.8916349,83.6471907 58.3997997,84.8835884 56.6206347,85.4317932 L56.3516471,85.5088289 C52.6145633,86.498833 48.7825013,84.2718849 47.7924972,80.534801 L47.7924972,80.534801 L45.384,71.445 L17.0324391,67.9381257 C12.1059191,67.3285972 8.60316578,62.8452459 9.20360954,57.9176104 L13.5119371,22.5606476 C14.1131645,17.6265804 18.6004075,14.1141198 23.5344748,14.7153473 Z" opacity="1.00"></path><path id="bubbles--globalStyle1/objects/bubbles2/13 Copy" fill="#FFF" d="M45.1856315,58.7787768 C44.6137255,58.7787768 44.1031027,58.5677194 43.653748,58.1455983 C43.2043932,57.7234771 42.9797192,57.226471 42.9797192,56.6545649 C42.9797192,56.0554253 43.1975849,55.5516108 43.6333228,55.1431065 C44.0690608,54.7346022 44.5864918,54.5303531 45.1856315,54.5303531 C45.7847712,54.5303531 46.2885857,54.7346022 46.69709,55.1431065 C47.1055943,55.5516108 47.3098434,56.0554253 47.3098434,56.6545649 C47.3098434,57.1992374 47.0919777,57.6894352 46.6562398,58.1251732 C46.2205018,58.5609111 45.730304,58.7787768 45.1856315,58.7787768 Z M43.306521,48.7296206 L43.306521,43.1739895 C43.306521,42.27528 43.8920351,41.6489161 45.0630808,41.294879 L46.3039102,40.9042476 C47.3966548,40.5519142 48.0451465,40.3144741 48.2493987,40.1919228 C49.4204444,39.4293814 50.0059585,38.1085706 50.0059585,36.2294507 C50.0059585,34.8133023 49.5293773,33.7239738 48.5762005,32.9614324 C47.7319582,32.2533582 46.5745466,31.8993265 45.1039311,31.8993265 C43.5516146,31.8993265 42.3942031,32.3214413 41.6316616,33.1656835 C41.3593254,33.4652534 40.9372106,34.2550166 40.3653046,35.5349968 C39.9568002,36.3792391 39.4393692,36.8013539 38.8129959,36.8013539 C37.6147165,36.8013539 37.0155858,36.2566896 37.0155858,35.1673447 C37.0155858,33.2882248 37.9551317,31.6814652 39.8342516,30.3470178 C41.5772034,29.0942712 43.4154453,28.4679073 45.3490324,28.4679073 C47.827292,28.4679073 49.869783,29.1215044 51.4765667,30.4287182 C53.2195185,31.8721002 54.0909813,33.8056583 54.0909813,36.2294507 C54.0909813,38.4353741 53.4578091,40.2327661 52.1914457,41.6216808 C50.9250823,43.0105956 49.1889649,43.9365248 46.9830416,44.3994964 L46.9830416,48.7296206 C46.9830416,49.2470594 46.7992174,49.6895991 46.4315635,50.057253 C46.0639096,50.4249069 45.6213699,50.6087311 45.1039311,50.6087311 C44.6137259,50.6087311 44.1916111,50.4180986 43.837574,50.0368279 C43.4835369,49.6555572 43.306521,49.2198258 43.306521,48.7296206 Z" transform="rotate(6 45.553 43.623)"></path></g></g></svg></g></g><g transform="translate(202.6549021814915,63.31782715153099)">
<g><svg xmlns="http://www.w3.org/2000/svg" width="91" height="92" viewBox="0 0 91 92"><g id="Symbols--globalStyle1/objects/bubbles2/1" fill="none" fill-rule="evenodd" stroke="none" stroke-width="1"><g id="globalStyle1/objects/bubbles2/1--globalStyle1/objects/bubbles2/1"><rect id="[color:objects]bubbles--globalStyle1/objects/bubbles2/1" width="56.271" height="39" x="17.364" y="26.5" fill="#b5cee1" fill-rule="nonzero" opacity="1.00"></rect><rect id="shadow--globalStyle1/objects/bubbles2/1" width="56.271" height="39" x="17.364" y="26.5" fill="#000" fill-opacity=".04"></rect><polygon id="[color:objects]bubbles--globalStyle1/objects/bubbles2/1" fill="#b5cee1" fill-rule="nonzero" points="17.3642857 26.5 73.6357143 26.5 45.5 46" opacity="1.00"></polygon><polygon id="shadow--globalStyle1/objects/bubbles2/1" fill="#000" fill-opacity=".2" points="45.5 46 17.3642857 26.5 45.5 52.9097839 73.6357143 26.5"></polygon></g></g></svg></g></g><g transform="translate(320,128.7232403333795)">
<g><svg xmlns="http://www.w3.org/2000/svg" width="91" height="92" viewBox="0 0 91 92"><g id="Symbols--globalStyle1/objects/bubbles2/6" fill="none" fill-rule="evenodd" stroke="none" stroke-width="1"><g id="globalStyle1/objects/bubbles2/6--globalStyle1/objects/bubbles2/6"><path id="[color:objects]bubbles--globalStyle1/objects/bubbles2/6" fill="#b5cee1" fill-rule="nonzero" d="M22.1541496,36.713413 C20.3552946,31.0856698 27.9874246,28.2717982 45.0505398,28.2717982 C62.113655,28.2717982 70.117115,30.9285409 69.0609198,36.2420263 L89.6014602,44.0298404 C91.7984377,36.6893277 89.8960341,31.2496575 83.8942495,27.7108299 C74.8915725,22.4025886 60.4815179,17.5 45.0505398,17.5 C29.6195617,17.5 16.4519693,22.7716217 7.03473703,27.7108299 C0.756582196,31.0036354 -1.00181944,36.4433056 1.75953211,44.0298404 L22.1541496,36.713413 Z" opacity="1.00"></path><path id="shadow--globalStyle1/objects/bubbles2/6" fill="#000" fill-opacity=".08" d="M22.1318384,36.713413 C20.3329834,31.0856698 27.9651135,28.2717982 45.0282287,28.2717982 C62.0913439,28.2717982 70.0948039,30.9285409 69.0386087,36.2420263 L89.579149,44.0298404 C91.7761266,36.6893277 89.873723,31.2496575 83.8719383,27.7108299 C74.8692613,22.4025886 60.4592068,17.5 45.0282287,17.5 C29.5972506,17.5 16.4296581,22.7716217 7.01242587,27.7108299 C0.734271044,31.0036354 -1.0241306,36.4433056 1.73722096,44.0298404 L22.1318384,36.713413 Z"></path><path id="[color:objects]bubbles--globalStyle1/objects/bubbles2/6" fill="#b5cee1" fill-rule="nonzero" d="M58.7891843,24.3020474 C60.9250965,24.5268674 61.9930526,26.2051357 61.9930526,29.3368523 C61.9930526,34.0344272 63.4235395,48.0089551 68.0449495,57.2495189 C70.2786217,61.7157727 72.1678137,64.9522364 73.7125256,66.95891 C76.3702476,67.8437122 78.2855719,70.3516325 78.2855719,73.3069007 C78.2855719,77.0033974 75.2889693,80 71.5924726,80 L19.3862981,80 C15.6898015,80 12.6931989,77.0033974 12.6931989,73.3069007 C12.6931989,70.207486 14.7999241,67.6001234 17.6595137,66.8386735 C21.8159885,61.6670108 25.0536568,54.3431678 27.3732529,44.8681667 C31.2958266,28.845381 27.3732529,24.3876934 32.6372079,24.3876934 C34.3022405,24.3876934 35.3493186,25.4059391 35.3493186,28.0205091 C35.3493186,31.4284084 38.4000336,32.7762342 45.8194994,32.7762342 C53.2389652,32.7762342 56.2219257,31.2528466 56.2219257,28.0205091 C56.2219257,25.8656174 57.0776786,24.6261302 58.7891843,24.3020474 Z" opacity="1.00"></path><rect id="shadow--globalStyle1/objects/bubbles2/6" width="65.592" height="13.386" x="12.693" y="66.614" fill="#000" fill-opacity=".08"></rect><path id="[color:objects]bubbles--globalStyle1/objects/bubbles2/6" fill="#b5cee1" fill-rule="nonzero" d="M2.81907786 43.4250769L20.5776985 36.9614676C22.1346322 36.3947901 23.8561593 37.1975513 24.4228368 38.754485L25.1635092 40.7894656C25.7301867 42.3463994 24.9274255 44.0679264 23.3704918 44.6346039L5.61187109 51.0982133C4.05493738 51.6648908 2.33341033 50.8621295 1.7667328 49.3051958L1.02606043 47.2702152C.459382902 45.7132815 1.26214415 43.9917544 2.81907786 43.4250769zM88.1150723 43.00378L70.3564516 36.5401707C68.7995179 35.9734932 67.0779908 36.7762544 66.5113133 38.3331881L65.7706409 40.3681687C65.2039634 41.9251024 66.0067247 43.6466295 67.5636584 44.213307L85.322279 50.6769163C86.8792127 51.2435939 88.6007398 50.4408326 89.1674173 48.8838989L89.9080897 46.8489183C90.4747672 45.2919846 89.672006 43.5704575 88.1150723 43.00378z" opacity="1.00"></path><circle id="Oval--globalStyle1/objects/bubbles2/6" cx="45.358" cy="52.151" r="13.163" fill="#FFF"></circle><path id="[color:objects]bubbles--globalStyle1/objects/bubbles2/6" fill="#b5cee1" fill-rule="nonzero" d="M45.4893854,60.0313728 C46.5983344,60.0313728 47.4973152,60.9303536 47.4973152,62.0393026 C47.4973152,63.1482516 46.5983344,64.0472324 45.4893854,64.0472324 C44.3804364,64.0472324 43.4814556,63.1482516 43.4814556,62.0393026 C43.4814556,60.9303536 44.3804364,60.0313728 45.4893854,60.0313728 Z M40.6731955,58.844123 C41.7821445,58.844123 42.6811253,59.7431038 42.6811253,60.8520528 C42.6811253,61.9610018 41.7821445,62.8599826 40.6731955,62.8599826 C39.5642465,62.8599826 38.6652657,61.9610018 38.6652657,60.8520528 C38.6652657,59.7431038 39.5642465,58.844123 40.6731955,58.844123 Z M37.179665,55.0291255 C38.288614,55.0291255 39.1875948,55.9281063 39.1875948,57.0370553 C39.1875948,58.1460043 38.288614,59.0449851 37.179665,59.0449851 C36.070716,59.0449851 35.1717352,58.1460043 35.1717352,57.0370553 C35.1717352,55.9281063 36.070716,55.0291255 37.179665,55.0291255 Z M45.358365,45.4579244 C49.0548617,45.4579244 52.0514643,48.454527 52.0514643,52.1510237 C52.0514643,55.8475204 49.0548617,58.844123 45.358365,58.844123 C41.6618684,58.844123 38.6652657,55.8475204 38.6652657,52.1510237 C38.6652657,48.454527 41.6618684,45.4579244 45.358365,45.4579244 Z M35.5189334,50.1430939 C36.6278824,50.1430939 37.5268632,51.0420747 37.5268632,52.1510237 C37.5268632,53.2599727 36.6278824,54.1589535 35.5189334,54.1589535 C34.4099844,54.1589535 33.5110036,53.2599727 33.5110036,52.1510237 C33.5110036,51.0420747 34.4099844,50.1430939 35.5189334,50.1430939 Z M36.6573359,44.9646139 C37.7662849,44.9646139 38.6652657,45.8635947 38.6652657,46.9725437 C38.6652657,48.0814927 37.7662849,48.9804735 36.6573359,48.9804735 C35.5483869,48.9804735 34.6494061,48.0814927 34.6494061,46.9725437 C34.6494061,45.8635947 35.5483869,44.9646139 36.6573359,44.9646139 Z M53.6959897,44.9646139 C54.8049387,44.9646139 55.7039194,45.8635947 55.7039194,46.9725437 C55.7039194,48.0814927 54.8049387,48.9804735 53.6959897,48.9804735 C52.5870407,48.9804735 51.6880599,48.0814927 51.6880599,46.9725437 C51.6880599,45.8635947 52.5870407,44.9646139 53.6959897,44.9646139 Z M40.6731955,41.6006137 C41.7821445,41.6006137 42.6811253,42.4995945 42.6811253,43.6085435 C42.6811253,44.7174925 41.7821445,45.6164733 40.6731955,45.6164733 C39.5642465,45.6164733 38.6652657,44.7174925 38.6652657,43.6085435 C38.6652657,42.4995945 39.5642465,41.6006137 40.6731955,41.6006137 Z M50.0435345,41.6006137 C51.1524835,41.6006137 52.0514643,42.4995945 52.0514643,43.6085435 C52.0514643,44.7174925 51.1524835,45.6164733 50.0435345,45.6164733 C48.9345855,45.6164733 48.0356047,44.7174925 48.0356047,43.6085435 C48.0356047,42.4995945 48.9345855,41.6006137 50.0435345,41.6006137 Z M45.358365,40.254815 C46.467314,40.254815 47.3662948,41.1537958 47.3662948,42.2627448 C47.3662948,43.3716938 46.467314,44.2706746 45.358365,44.2706746 C44.249416,44.2706746 43.3504352,43.3716938 43.3504352,42.2627448 C43.3504352,41.1537958 44.249416,40.254815 45.358365,40.254815 Z" opacity="1.00"></path></g></g></svg></g></g></svg>