<?xml version="1.0" encoding="UTF-8"?>
<svg id="illustration-builder" width="600" height="528" viewBox="-10 -30 670 588" version="1.1" xmlns="http://www.w3.org/2000/svg" xmlns:xlink="http://www.w3.org/1999/xlink" style="pointer-events: none;"><g transform="translate(0,0)">
<g><svg xmlns="http://www.w3.org/2000/svg" width="600" height="528" viewBox="0 0 600 528"><g id="Symbols--globalStyle1/plants/7" fill="none" fill-rule="evenodd" stroke="none" stroke-width="1"><g id="globalStyle1/plants/7--globalStyle1/plants/7"><g id="Group-2--globalStyle1/plants/7" transform="translate(202 99.5)"><path id="[color:plant]plant--globalStyle1/plants/7" fill="#587267" fill-rule="nonzero" d="M50.2852246,169.445877 C59.119855,139.501941 82.8162716,133.208028 121.374474,150.564139 C98.6971417,177.832149 75.000725,184.126062 50.2852246,169.445877 Z" transform="scale(-1 1) rotate(-22 0 600.638)" opacity="1.00"></path><g id="Group--globalStyle1/plants/7" fill="#2E4038" fill-rule="nonzero" transform="translate(67.927 14.47)"><path id="Path-38-Copy-2--globalStyle1/plants/7" d="M46.2959054,78.801631 L46.7891208,72.03437 L46.2959054,113.59998 C46.2959054,146.175393 46.2959054,168.137762 46.2959054,179.487088 C46.2959054,196.511077 46.7891208,222.539084 46.5425131,228.203134 C46.378108,231.979168 46.0860281,249.893018 45.6662735,281.944684 L44.7577307,281.944684 C45.4348607,254.775959 45.7734257,236.406977 45.7734257,226.837738 C45.7734257,212.48388 45.880578,190.288985 45.7734257,174.911784 C45.6662735,159.534583 45.7734257,120.64214 45.7734257,105.164313 C45.7734257,94.8457612 45.9475856,86.0582006 46.2959054,78.801631 Z" transform="rotate(-9 45.773 176.99)"></path><path id="Path-38-Copy-4--globalStyle1/plants/7" d="M34.27448,113.094876 L35.9172047,106.865946 L34.298481,145.131365 C34.3209488,175.121347 34.3360966,195.340617 34.3439244,205.789174 C34.3556661,221.46201 36.0210102,245.425468 35.2012207,250.639362 C34.7903345,253.252614 34.1439215,263.222497 33.2619816,280.549009 C32.970839,286.268769 30.4840373,286.276724 30.9455004,280.382867 C32.0741481,265.967656 32.6361296,255.633506 32.6314449,249.380416 C32.6215449,236.165789 32.9641366,215.732716 32.5956308,201.575698 C32.227125,187.418681 32.5582001,151.613304 32.5475248,137.363914 C32.540408,127.86432 33.1160597,119.774641 34.27448,113.094876 Z" transform="rotate(-20 33.403 195.844)"></path><path id="Path-38-Copy-5--globalStyle1/plants/7" d="M17.8693197,50.5387362 L19.5233571,44.3055178 L17.8334923,82.5815136 C17.7999536,112.577382 17.7773418,132.80062 17.7656568,143.251229 C17.7481294,158.927141 19.3684017,182.892237 18.5390352,188.108687 C18.1233489,190.723221 17.458444,200.696277 16.5443204,218.027855 C16.2425536,223.749287 13.7562198,223.761872 14.2285993,217.865991 C15.3839463,203.44583 15.9651163,193.108591 15.9721093,186.854274 C15.9868876,173.637053 16.3675687,153.199304 16.0255708,139.040173 C15.6835728,124.881043 16.0814452,89.0679717 16.0973808,74.8157847 C16.1080045,65.3143267 16.6986508,57.2219772 17.8693197,50.5387362 Z" transform="scale(-1 1) rotate(8 0 -107.608)"></path><path id="Path-38-Copy-3--globalStyle1/plants/7" d="M19.3817071,8.52401482 L21.2540153,0.98904822 L19.3817071,47.2700303 C19.3817071,83.5409305 19.3817071,107.9948 19.3817071,120.63164 C19.3817071,139.586899 21.2540153,168.567629 20.3178612,174.874233 C19.6937584,179.078635 18.5849863,199.024705 16.9915446,234.712443 L13.5426009,234.712443 C16.1130723,204.461586 17.3983081,184.008752 17.3983081,173.35394 C17.3983081,157.371722 17.8050715,132.658949 17.3983081,115.537295 C16.9915446,98.4156412 17.3983081,55.1110818 17.3983081,37.8773866 C17.3983081,26.3882565 18.0594411,16.6037992 19.3817071,8.52401482 Z" transform="matrix(-1 0 0 1 34.797 0)"></path></g><path id="shadow--globalStyle1/plants/7" fill="#000" fill-opacity=".3" d="M50.2852246,169.445877 C59.119855,139.501941 82.8162716,133.208028 121.374474,150.564139 C98.6971417,177.832149 75.000725,184.126062 50.2852246,169.445877 Z" transform="scale(-1 1) rotate(-22 0 600.638)"></path><path id="Path-12--globalStyle1/plants/7" fill="#979797" fill-rule="nonzero" d="M49.1754836,176.136844 C64.0185824,162.984431 89.0005877,156.148118 125.874144,151.947915 L125.792068,151.227368 C88.7729472,155.444152 63.687632,162.308736 48.6945302,175.594066 L49.1754836,176.136844 Z" transform="scale(-1 1) rotate(-22 0 612.721)"></path><path id="[color:plant]plant--globalStyle1/plants/7" fill="#587267" fill-rule="nonzero" d="M79.3143661,96.1606283 C85.7411758,74.5473439 102.979289,70.00445 131.028706,82.5319467 C114.531932,102.21377 97.2938187,106.756664 79.3143661,96.1606283 Z" transform="scale(-1 1) rotate(-9 0 1425.01)" opacity="1.00"></path><path id="shadow--globalStyle1/plants/7" fill="#000" fill-opacity=".3" d="M79.3143661,96.1606283 C85.7411758,74.5473439 102.979289,70.00445 131.028706,82.5319467 C114.531932,102.21377 97.2938187,106.756664 79.3143661,96.1606283 Z" transform="scale(-1 1) rotate(-9 0 1425.01)"></path><path id="Path-12--globalStyle1/plants/7" fill="#979797" fill-rule="nonzero" d="M79.5986888,100.698901 C90.3609594,91.1964316 108.495165,86.2516751 135.262136,83.213546 L135.180348,82.4929665 C108.268055,85.54759 90.0309048,90.5204171 79.1186964,100.155273 L79.5986888,100.698901 Z" transform="scale(-1 1) rotate(-9 0 1453.58)"></path><path id="[color:plant]plant--globalStyle1/plants/7" fill="#587267" fill-rule="nonzero" d="M71.0956515,121.382461 C78.4864901,96.2386974 98.3103406,90.9537326 130.567203,105.527566 C111.595893,128.424369 91.7720429,133.709333 71.0956515,121.382461 Z" transform="scale(-1 1) rotate(-29 0 502.566)" opacity="1.00"></path><path id="shadow--globalStyle1/plants/7" fill="#000" fill-opacity=".3" d="M71.0956515,121.382461 C78.4864901,96.2386974 98.3103406,90.9537326 130.567203,105.527566 C111.595893,128.424369 91.7720429,133.709333 71.0956515,121.382461 Z" transform="scale(-1 1) rotate(-29 0 502.566)"></path><path id="Path-12-Copy--globalStyle1/plants/7" fill="#979797" fill-rule="nonzero" d="M70.1619781,127.631258 C82.5365481,116.582415 103.375902,110.836161 134.135778,107.305584 L134.053083,106.585108 C103.147127,110.132452 82.2036818,115.907408 69.6789764,127.090302 L70.1619781,127.631258 Z" transform="scale(-1 1) rotate(-29 0 511.155)"></path><path id="[color:plant]plant--globalStyle1/plants/7" fill="#587267" fill-rule="nonzero" d="M132.493043,92.0962117 C139.883881,66.9524484 159.707732,61.6674836 191.964594,76.2413173 C172.993285,99.1381197 153.169434,104.423085 132.493043,92.0962117 Z" transform="rotate(-29 162.229 83.393)" opacity="1.00"></path><path id="Path-12-Copy--globalStyle1/plants/7" fill="#4B4B4B" fill-rule="nonzero" d="M129.407469,98.3450093 C141.782039,87.2961658 162.621394,81.5499124 193.381269,78.0193353 L193.298574,77.2988593 C162.392618,80.8462033 141.449173,86.6211588 128.924467,97.8040532 L129.407469,98.3450093 Z" transform="rotate(-29 161.153 87.822)"></path><path id="[color:plant]plant--globalStyle1/plants/7" fill="#587267" fill-rule="nonzero" d="M126.21564,154.13165 C132.635829,132.426485 149.856185,127.864279 177.876707,140.445032 C161.396927,160.210524 144.176571,164.772731 126.21564,154.13165 Z" transform="rotate(-19 152.046 146.62)" opacity="1.00"></path><path id="Path-12-Copy--globalStyle1/plants/7" fill="#4B4B4B" fill-rule="nonzero" d="M122.930942,159.246229 C133.68225,149.661401 151.79771,144.673863 178.537417,141.609402 L178.454846,140.888912 C151.569163,143.970102 133.349769,148.986255 122.448351,158.704907 L122.930942,159.246229 Z" transform="rotate(-19 150.493 150.068)"></path><path id="[color:plant]plant--globalStyle1/plants/7" fill="#587267" fill-rule="nonzero" d="M84.5157679,134.92748 C94.3674776,101.617594 120.791924,94.6161932 163.789107,113.923276 C138.501066,144.256439 112.076619,151.25784 84.5157679,134.92748 Z" transform="rotate(-13 124.152 123.398)" opacity="1.00"></path><path id="Path-12--globalStyle1/plants/7" fill="#4B4B4B" fill-rule="nonzero" d="M78.9853678,142.031761 C95.5459224,127.393255 123.410032,119.786825 164.537087,115.113522 L164.455208,114.392953 C123.182754,119.082778 95.2155849,126.717341 78.5050715,141.488401 L78.9853678,142.031761 Z" transform="rotate(-13 121.521 128.212)"></path><path id="[color:plant]plant--globalStyle1/plants/7" fill="#587267" fill-rule="nonzero" d="M4.98228198,164.770794 C15.4261209,130.310083 42.146632,122.733269 85.1438153,142.040352 C59.8557738,172.373515 33.1352627,179.950329 4.98228198,164.770794 Z" transform="scale(-1 1) rotate(-20 0 407.568)" opacity="1.00"></path><path id="shadow--globalStyle1/plants/7" fill="#000" fill-opacity=".3" d="M4.98228198,164.770794 C15.4261209,130.310083 42.146632,122.733269 85.1438153,142.040352 C59.8557738,172.373515 33.1352627,179.950329 4.98228198,164.770794 Z" transform="scale(-1 1) rotate(-20 0 407.568)"></path><path id="Path-12--globalStyle1/plants/7" fill="#979797" fill-rule="nonzero" d="M4.54307653,170.394597 C21.1036312,155.756091 48.9677403,148.149661 90.0947955,143.476359 L90.0129166,142.755789 C48.7404628,147.445614 20.7732936,155.080177 4.06278027,169.851237 L4.54307653,170.394597 Z" transform="scale(-1 1) rotate(-20 0 423.572)"></path><path id="[color:plant]plant--globalStyle1/plants/7" fill="#587267" fill-rule="nonzero" d="M86.4045959,50.9795664 C93.5729605,26.8235426 112.800087,21.7461906 144.085975,35.7475105 C125.685727,57.7448424 106.458601,62.8221944 86.4045959,50.9795664 Z" opacity="1.00"></path><path id="shadow--globalStyle1/plants/7" fill="#000" fill-opacity=".3" d="M86.4045959,50.9795664 C93.5729605,26.8235426 112.800087,21.7461906 144.085975,35.7475105 C125.685727,57.7448424 106.458601,62.8221944 86.4045959,50.9795664 Z"></path><path id="Path-12--globalStyle1/plants/7" fill-rule="nonzero" stroke="#979797" stroke-width=".535" d="M81.4692907,55.3548576 C95.6967348,42.7673574 122.044807,38.1852469 143.777519,35.7135173"></path><path id="[color:plant]plant--globalStyle1/plants/7" fill="#587267" fill-rule="nonzero" d="M82.5651295,79.4855738 C90.8068322,51.515441 112.912887,45.6364019 148.883293,61.8484565 C127.727927,87.3190513 105.621873,93.1980904 82.5651295,79.4855738 Z" transform="rotate(-20 115.724 69.805)" opacity="1.00"></path><path id="Path-12-Copy--globalStyle1/plants/7" fill="#4B4B4B" fill-rule="nonzero" d="M78.3364093,86.1573664 C92.1442539,73.8588245 115.388838,67.4649615 149.69841,63.5365458 L149.615913,62.816047 C115.160427,66.7611699 91.8120018,73.1835962 77.8540631,85.6158257 L78.3364093,86.1573664 Z" transform="rotate(-20 113.776 74.487)"></path><path id="[color:plant]plant--globalStyle1/plants/7" fill="#587267" fill-rule="nonzero" d="M19.7430181,37.3834367 C27.9847208,9.41330388 50.0907753,3.53426476 86.0611815,19.7463193 C64.9058161,45.2169142 42.7997616,51.0959533 19.7430181,37.3834367 Z" transform="scale(-1 1) rotate(-20 0 327.725)" opacity="1.00"></path><path id="[color:plant]plant--globalStyle1/plants/7" fill="#587267" fill-rule="nonzero" d="M35.0230141,72.0038915 C39.9499778,55.1910563 53.1651751,51.6571684 74.6686062,61.4022276 C62.0217392,76.7125915 48.8065419,80.2464795 35.0230141,72.0038915 Z" transform="scale(-1 1) rotate(-20 0 377.23)" opacity="1.00"></path><path id="shadow--globalStyle1/plants/7" fill="#000" fill-opacity=".3" d="M35.0230141,72.0038915 C39.9499778,55.1910563 53.1651751,51.6571684 74.6686062,61.4022276 C62.0217392,76.7125915 48.8065419,80.2464795 35.0230141,72.0038915 Z" transform="scale(-1 1) rotate(-20 0 377.23)"></path><path id="Path-12-Copy--globalStyle1/plants/7" fill="#4B4B4B" fill-rule="nonzero" d="M18.9825552,43.9219658 C32.7903999,31.6234239 56.0349842,25.2295609 90.3445556,21.3011451 L90.2620591,20.5806464 C55.8065727,24.5257693 32.4581478,30.9481956 18.500209,43.3804251 L18.9825552,43.9219658 Z" transform="scale(-1 1) rotate(-20 0 340.896)"></path><path id="Path-12-Copy-2--globalStyle1/plants/7" fill="#979797" fill-rule="nonzero" d="M34.7349918,77.9236362 C38.0280818,74.9730927 40.5485274,73.0477263 42.9781878,71.9375118 C47.769532,69.748144 53.5471892,68.0265611 61.0914558,66.3349671 C66.5900666,65.1020551 72.5204383,64.1764819 79.4977634,63.3728414 L79.4147835,62.6523982 C72.4141189,63.4587269 66.459996,64.388007 60.932788,65.6273311 C53.3435212,67.3290152 47.5235946,69.0631932 42.6767856,71.2779052 C40.1591652,72.4283124 37.597512,74.3851572 34.2510551,77.3835163 L34.7349918,77.9236362 Z" transform="scale(-1 1) rotate(-20 0 392.839)"></path><path id="[color:plant]plant--globalStyle1/plants/7" fill="#587267" fill-rule="nonzero" d="M24.2800432,107.251586 C31.437657,83.107047 50.6401138,78.0333395 81.8874135,92.0304635 C63.51197,114.016512 44.3095132,119.09022 24.2800432,107.251586 Z" transform="scale(-1 1) rotate(-11 0 650.192)" opacity="1.00"></path><path id="Path-12-Copy--globalStyle1/plants/7" fill="#4B4B4B" fill-rule="nonzero" d="M24.3583164,112.572497 C36.5151786,101.761007 58.0252177,95.5561952 86.4920772,92.3017419 C86.6910414,92.2789954 86.8338941,92.0992635 86.8111477,91.9002993 C86.7884012,91.7013351 86.6086693,91.5584824 86.4097051,91.5812289 C57.8018075,94.8518063 36.1795443,101.08899 23.8763813,112.030591 C23.726738,112.163673 23.7133129,112.392868 23.8463956,112.542512 C23.9794783,112.692155 24.208673,112.70558 24.3583164,112.572497 Z" transform="scale(-1 1) rotate(-10 0 734.022)"></path><path id="[color:plant]plant--globalStyle1/plants/7" fill="#587267" fill-rule="nonzero" d="M86.4705014,186.12584 C93.6298094,161.980832 112.832644,156.905796 144.079004,170.90073 C125.702004,192.88803 106.499169,197.963067 86.4705014,186.12584 Z" transform="rotate(-10 115.275 177.769)" opacity="1.00"></path><path id="Path-12-Copy--globalStyle1/plants/7" fill="#4B4B4B" fill-rule="nonzero" d="M82.1987237,191.466801 C94.1964288,180.796854 114.403523,175.246998 144.230101,171.837095 L144.147729,171.116582 C114.175339,174.543154 93.8645614,180.121487 81.7167886,190.924894 L82.1987237,191.466801 Z" transform="rotate(-10 112.973 181.292)"></path><polygon id="Rectangle-Copy-20--globalStyle1/plants/7" fill="#E5E7ED" fill-rule="nonzero" points="64.003149 243.267912 136.276309 243.267912 130.769977 328.925863 69.5094812 328.925863"></polygon><polygon id="Rectangle-Copy-21--globalStyle1/plants/7" fill="#D1D4DD" fill-rule="nonzero" points="59.9435035 230.10537 140.335954 230.10537 140.335954 257.527333 59.9435035 257.527333" transform="matrix(1 0 0 -1 0 487.633)"></polygon></g></g></g></svg></g></g></svg>