<?xml version="1.0" encoding="UTF-8"?>
<svg id="illustration-builder" width="600" height="528" viewBox="-10 -30 670 588" version="1.1" xmlns="http://www.w3.org/2000/svg" xmlns:xlink="http://www.w3.org/1999/xlink" style="pointer-events: none;"><g transform="translate(0,0)">
<g><svg xmlns="http://www.w3.org/2000/svg" width="600" height="528" viewBox="0 0 600 528"><g id="Symbols--globalStyle1/plants/1" fill="none" fill-rule="evenodd" stroke="none" stroke-width="1"><g id="globalStyle1/plants/1--globalStyle1/plants/1"><g id="Group-2--globalStyle1/plants/1" transform="translate(210 125.538)"><path id="[color:plant]plant--globalStyle1/plants/1" fill="#587267" fill-rule="nonzero" d="M46.1097322,155.385783 C54.2107687,127.928277 75.9395257,122.156986 111.296003,138.071912 C90.5017091,163.075691 68.7729522,168.846982 46.1097322,155.385783 Z" transform="scale(-1 1) rotate(-22 0 550.773)" opacity="1.00"></path><g id="Group--globalStyle1/plants/1" fill="#2E4038" fill-rule="nonzero" transform="translate(62.286 14.185)"><path id="Path-38-Copy-2--globalStyle1/plants/1" d="M42.4516708,71.351324 L42.9039315,65.1459905 L42.4516708,103.260152 C42.4516708,133.130627 42.4516708,153.269325 42.4516708,163.676246 C42.4516708,179.286628 42.9039315,203.153369 42.6778011,208.347099 C42.5270476,211.809585 42.2592209,228.235938 41.8743211,257.626156 L41.0412202,257.626156 C41.6621239,232.713418 41.9725758,215.869725 41.9725758,207.09508 C41.9725758,193.933111 42.0708305,173.581196 41.9725758,159.480858 C41.8743211,145.380521 41.9725758,109.717558 41.9725758,95.5249497 C41.9725758,86.0632111 42.1322741,78.0053359 42.4516708,71.351324 Z" transform="rotate(-9 41.973 161.386)"></path><path id="Path-38-Copy-4--globalStyle1/plants/1" d="M31.4284585,102.796989 L32.9347776,97.0852854 L31.4504665,132.173291 C31.4710687,159.67302 31.4849586,178.213359 31.4921365,187.794308 C31.5029032,202.165732 33.0299635,224.139356 32.2782462,228.920308 C31.9014784,231.316566 31.308741,240.458588 30.500034,256.346372 C30.2330669,261.591186 27.9527596,261.59848 28.3759046,256.194026 C29.4108337,242.975799 29.9261504,233.499757 29.9218548,227.7659 C29.9127767,215.648565 30.226921,196.912176 29.8890145,183.930703 C29.551108,170.94923 29.8546919,138.116994 29.8449031,125.050819 C29.8383771,116.340035 30.366229,108.922092 31.4284585,102.796989 Z" transform="rotate(-20 30.63 178.675)"></path><path id="Path-38-Copy-5--globalStyle1/plants/1" d="M16.3855199,45.4352717 L17.9022123,39.7196359 L16.3526674,74.8173396 C16.3219136,102.322466 16.3011794,120.866444 16.2904647,130.449274 C16.2743927,144.823519 17.7601238,166.798645 16.9996247,171.581941 C16.6184554,173.979374 16.0087617,183.124305 15.1705435,199.016736 C14.8938342,204.263082 12.613956,204.274622 13.0471109,198.868312 C14.1065223,185.645546 14.6394342,176.166672 14.6458465,170.43169 C14.6593977,158.311976 15.0084685,139.571299 14.6948688,126.587888 C14.381269,113.604478 14.7461036,80.7651871 14.7607159,67.6964471 C14.7704575,58.9839538 15.3120588,51.563562 16.3855199,45.4352717 Z" transform="scale(-1 1) rotate(8 0 -99.58)"></path><path id="Path-38-Copy-3--globalStyle1/plants/1" d="M17.7723244,6.90929184 L19.4891632,0 L17.7723244,42.4379866 C17.7723244,75.6970903 17.7723244,98.1204044 17.7723244,109.707929 C17.7723244,127.089216 19.4891632,153.663497 18.6307438,159.446425 C18.0584642,163.30171 17.0417602,181.591535 15.5806319,214.315899 L12.4180752,214.315899 C14.7751045,186.576958 15.9536192,167.822449 15.9536192,158.052372 C15.9536192,143.397256 16.3266066,120.736536 15.9536192,105.036599 C15.5806319,89.336662 15.9536192,49.6279472 15.9536192,33.8252721 C15.9536192,23.2901553 16.5598543,14.3181619 17.7723244,6.90929184 Z" transform="matrix(-1 0 0 1 31.907 0)"></path></g><path id="shadow--globalStyle1/plants/1" fill="#000" fill-opacity=".3" d="M46.1097322,155.385783 C54.2107687,127.928277 75.9395257,122.156986 111.296003,138.071912 C90.5017091,163.075691 68.7729522,168.846982 46.1097322,155.385783 Z" transform="scale(-1 1) rotate(-22 0 550.773)"></path><path id="Path-12--globalStyle1/plants/1" fill="#979797" fill-rule="nonzero" d="M45.0921398,161.521157 C58.7027246,149.460871 81.6103199,143.192219 115.422037,139.340784 L115.346776,138.680069 C81.4015817,142.546708 58.399255,148.841283 44.6511229,161.02345 L45.0921398,161.521157 Z" transform="scale(-1 1) rotate(-22 0 561.853)"></path><path id="[color:plant]plant--globalStyle1/plants/1" fill="#587267" fill-rule="nonzero" d="M72.728405,88.1858605 C78.6215571,68.3672604 94.4282835,64.2015911 120.148584,75.6888524 C105.021639,93.7363725 89.2149127,97.9020419 72.728405,88.1858605 Z" transform="scale(-1 1) rotate(-9 0 1306.694)" opacity="1.00"></path><path id="shadow--globalStyle1/plants/1" fill="#000" fill-opacity=".3" d="M72.728405,88.1858605 C78.6215571,68.3672604 94.4282835,64.2015911 120.148584,75.6888524 C105.021639,93.7363725 89.2149127,97.9020419 72.728405,88.1858605 Z" transform="scale(-1 1) rotate(-9 0 1306.694)"></path><path id="Path-12--globalStyle1/plants/1" fill="#979797" fill-rule="nonzero" d="M72.9891186,92.3472924 C82.8577314,83.6338717 99.4861422,79.0997088 124.030486,76.3138543 L123.95549,75.6531089 C99.2778907,78.4540882 82.5550833,83.0139908 72.5489829,91.8488052 L72.9891186,92.3472924 Z" transform="scale(-1 1) rotate(-9 0 1332.89)"></path><path id="[color:plant]plant--globalStyle1/plants/1" fill="#587267" fill-rule="nonzero" d="M65.1921409,111.313368 C71.9692726,88.257447 90.1470265,83.4113254 119.725403,96.7750038 C102.329398,117.770543 84.151644,122.616665 65.1921409,111.313368 Z" transform="scale(-1 1) rotate(-29 0 460.845)" opacity="1.00"></path><path id="shadow--globalStyle1/plants/1" fill="#000" fill-opacity=".3" d="M65.1921409,111.313368 C71.9692726,88.257447 90.1470265,83.4113254 119.725403,96.7750038 C102.329398,117.770543 84.151644,122.616665 65.1921409,111.313368 Z" transform="scale(-1 1) rotate(-29 0 460.845)"></path><path id="Path-12-Copy--globalStyle1/plants/1" fill="#979797" fill-rule="nonzero" d="M64.3359963,117.04329 C75.6830294,106.9119 94.7919636,101.642794 122.997657,98.405382 L122.921828,97.7447316 C94.5821849,100.997518 75.377803,106.292943 63.8931011,116.547253 L64.3359963,117.04329 Z" transform="scale(-1 1) rotate(-29 0 468.72)"></path><path id="[color:plant]plant--globalStyle1/plants/1" fill="#587267" fill-rule="nonzero" d="M121.491328,84.4589375 C128.26846,61.403016 146.446214,56.5568944 176.02459,69.9205727 C158.628585,90.9161124 140.450831,95.762234 121.491328,84.4589375 Z" transform="rotate(-29 148.758 76.479)" opacity="1.00"></path><path id="Path-12-Copy--globalStyle1/plants/1" fill="#979797" fill-rule="nonzero" d="M118.661969,90.1888588 C130.009002,80.057469 149.117936,74.7883625 177.323629,71.550951 L177.247801,70.8903006 C148.908157,74.1430867 129.703775,79.438512 118.219074,89.6928217 L118.661969,90.1888588 Z" transform="rotate(-29 147.771 80.54)"></path><path id="[color:plant]plant--globalStyle1/plants/1" fill="#587267" fill-rule="nonzero" d="M115.735177,141.343191 C121.622258,121.44034 137.412701,117.256962 163.106506,128.793057 C147.995144,146.917299 132.204701,151.100677 115.735177,141.343191 Z" transform="rotate(-19 139.42 134.454)" opacity="1.00"></path><path id="Path-12-Copy--globalStyle1/plants/1" fill="#979797" fill-rule="nonzero" d="M112.723228,146.033075 C122.581788,137.244134 139.19301,132.670742 163.712354,129.860742 L163.636639,129.200078 C138.98344,132.025419 122.276915,136.625049 112.280709,145.536702 L112.723228,146.033075 Z" transform="rotate(-19 137.997 137.617)"></path><path id="[color:plant]plant--globalStyle1/plants/1" fill="#587267" fill-rule="nonzero" d="M77.4979023,123.733661 C86.5315637,93.189701 110.761825,86.7696694 150.188687,104.473566 C127.000468,132.28798 102.770206,138.708011 77.4979023,123.733661 Z" transform="rotate(-13 113.843 113.162)" opacity="1.00"></path><path id="Path-12--globalStyle1/plants/1" fill="#979797" fill-rule="nonzero" d="M72.4267254,130.24803 C87.6121551,116.825049 113.162535,109.850228 150.874557,105.564979 L150.799477,104.904243 C112.95413,109.204642 87.3092474,116.205261 71.9863111,129.749789 L72.4267254,130.24803 Z" transform="rotate(-13 111.43 117.576)"></path><path id="[color:plant]plant--globalStyle1/plants/1" fill="#587267" fill-rule="nonzero" d="M4.56857238,151.098901 C14.1451949,119.499675 38.6469371,112.552011 78.073799,130.255908 C54.8855796,158.070321 30.3838374,165.017985 4.56857238,151.098901 Z" transform="scale(-1 1) rotate(-20 0 373.735)" opacity="1.00"></path><path id="shadow--globalStyle1/plants/1" fill="#000" fill-opacity=".3" d="M4.56857238,151.098901 C14.1451949,119.499675 38.6469371,112.552011 78.073799,130.255908 C54.8855796,158.070321 30.3838374,165.017985 4.56857238,151.098901 Z" transform="scale(-1 1) rotate(-20 0 373.735)"></path><path id="Path-12--globalStyle1/plants/1" fill="#979797" fill-rule="nonzero" d="M4.16583686,156.255724 C19.3512665,142.832744 44.9016468,135.857923 82.6136688,131.572674 L82.5385888,130.911938 C44.6932415,135.212337 19.0483589,142.212955 3.72542256,155.757483 L4.16583686,156.255724 Z" transform="scale(-1 1) rotate(-20 0 388.41)"></path><path id="[color:plant]plant--globalStyle1/plants/1" fill="#587267" fill-rule="nonzero" d="M79.2298892,46.7564609 C85.8030203,24.6062608 103.4336,19.9505127 132.121628,32.7892166 C115.249266,52.9599743 97.6186863,57.6157224 79.2298892,46.7564609 Z" opacity="1.00"></path><path id="shadow--globalStyle1/plants/1" fill="#000" fill-opacity=".3" d="M79.2298892,46.7564609 C85.8030203,24.6062608 103.4336,19.9505127 132.121628,32.7892166 C115.249266,52.9599743 97.6186863,57.6157224 79.2298892,46.7564609 Z"></path><path id="Path-12--globalStyle1/plants/1" fill-rule="nonzero" stroke="#979797" stroke-width=".535" d="M74.7043929,50.7684447 C87.7504445,39.2261623 111.910674,35.0245326 131.838784,32.7580461"></path><path id="[color:plant]plant--globalStyle1/plants/1" fill="#587267" fill-rule="nonzero" d="M75.7092374,72.8954387 C83.2665807,47.2478385 103.537033,41.8569723 136.520595,56.72284 C117.12189,80.0784542 96.8514373,85.4693204 75.7092374,72.8954387 Z" transform="rotate(-20 106.115 64.018)" opacity="1.00"></path><path id="Path-12-Copy--globalStyle1/plants/1" fill="#979797" fill-rule="nonzero" d="M71.8316539,79.0132311 C84.4929481,67.735913 105.807391,61.872972 137.268027,58.2707568 L137.192381,57.6100855 C105.597946,61.2276205 84.1882849,67.1167531 71.3893599,78.5166579 L71.8316539,79.0132311 Z" transform="rotate(-20 104.329 68.312)"></path><path id="[color:plant]plant--globalStyle1/plants/1" fill="#587267" fill-rule="nonzero" d="M18.1036335,34.2893017 C25.6609768,8.64170157 45.9314292,3.25083534 78.9149907,18.116703 C59.5162858,41.4723172 39.2458334,46.8631835 18.1036335,34.2893017 Z" transform="scale(-1 1) rotate(-20 0 300.522)" opacity="1.00"></path><path id="[color:plant]plant--globalStyle1/plants/1" fill="#587267" fill-rule="nonzero" d="M32.1148372,66.0350066 C36.6326847,50.6182448 48.7505427,47.3777974 68.4684112,56.3136642 C56.8716916,70.3527142 44.7538336,73.5931616 32.1148372,66.0350066 Z" transform="scale(-1 1) rotate(-20 0 345.917)" opacity="1.00"></path><path id="shadow--globalStyle1/plants/1" fill="#000" fill-opacity=".3" d="M32.1148372,66.0350066 C36.6326847,50.6182448 48.7505427,47.3777974 68.4684112,56.3136642 C56.8716916,70.3527142 44.7538336,73.5931616 32.1148372,66.0350066 Z" transform="scale(-1 1) rotate(-20 0 345.917)"></path><path id="Path-12-Copy--globalStyle1/plants/1" fill="#979797" fill-rule="nonzero" d="M17.4063165,40.2848964 C30.0676107,29.0075783 51.3820538,23.1446372 82.8426898,19.542422 L82.7670435,18.8817507 C51.1726087,22.4992857 29.7629475,28.3884183 16.9640226,39.7883231 L17.4063165,40.2848964 Z" transform="scale(-1 1) rotate(-20 0 312.6)"></path><path id="Path-12-Copy-2--globalStyle1/plants/1" fill="#979797" fill-rule="nonzero" d="M31.8507311,71.4631983 C34.8703755,68.7576567 37.181533,66.9921654 39.4094437,65.9741388 C43.8029331,63.9665677 49.1008358,62.3879384 56.0186554,60.8368079 C61.0606826,59.7062722 66.4986189,58.8575551 72.8965737,58.1206458 L72.8204841,57.4600254 C66.4011279,58.1993997 60.9414125,59.0515159 55.8731627,60.1879314 C48.9140795,61.7483141 43.5774174,63.3384926 39.1330688,65.3693034 C36.8245019,66.4241852 34.4755587,68.2185411 31.4069787,70.967928 L31.8507311,71.4631983 Z" transform="scale(-1 1) rotate(-20 0 360.229)"></path><path id="[color:plant]plant--globalStyle1/plants/1" fill="#587267" fill-rule="nonzero" d="M22.2639215,98.3558675 C28.8271944,76.2161986 46.4351527,71.5637923 75.0877964,84.3986488 C58.2381793,104.55906 40.630221,109.211467 22.2639215,98.3558675 Z" transform="scale(-1 1) rotate(-11 0 596.212)" opacity="1.00"></path><path id="Path-12-Copy--globalStyle1/plants/1" fill="#979797" fill-rule="nonzero" d="M22.3356951,103.234951 C33.483098,93.3212053 53.2070259,87.6316172 79.3101065,84.6474012 C79.4925494,84.6265435 79.6235402,84.4617358 79.6026825,84.2792929 C79.5818249,84.0968499 79.4170172,83.9658592 79.2345742,83.9867169 C53.0021668,86.985718 33.1753336,92.7049904 21.8937781,102.738042 C21.7565605,102.860074 21.7442502,103.070237 21.8662822,103.207455 C21.9883142,103.344672 22.1984775,103.356983 22.3356951,103.234951 Z" transform="scale(-1 1) rotate(-10 0 673.082)"></path><path id="[color:plant]plant--globalStyle1/plants/1" fill="#587267" fill-rule="nonzero" d="M79.2903223,170.680705 C85.8551487,148.540607 103.463453,143.886982 132.115236,156.719831 C115.264191,176.88139 97.6558864,181.535014 79.2903223,170.680705 Z" transform="rotate(-10 105.703 163.018)" opacity="1.00"></path><path id="Path-12-Copy--globalStyle1/plants/1" fill="#979797" fill-rule="nonzero" d="M75.3732566,175.578173 C86.3747182,165.794218 104.903893,160.705201 132.253786,157.578444 L132.178254,156.917759 C104.694657,160.059802 86.0704078,165.174931 74.9313396,175.081265 L75.3732566,175.578173 Z" transform="rotate(-10 103.593 166.248)"></path><polygon id="Rectangle-Copy-20--globalStyle1/plants/1" fill="#E5E7ED" fill-rule="nonzero" points="58.6885727 197.39289 124.960446 197.39289 119.911339 275.938133 63.7376801 275.938133"></polygon><polygon id="Rectangle-Copy-21--globalStyle1/plants/1" fill="#D1D4DD" fill-rule="nonzero" points="54.9660246 185.323315 128.682994 185.323315 128.682994 210.468263 54.9660246 210.468263" transform="matrix(1 0 0 -1 0 395.792)"></polygon></g></g></g></svg></g></g></svg>