<?xml version="1.0" encoding="UTF-8"?>
<svg id="illustration-builder" width="600" height="528" viewBox="-10 -30 670 588" version="1.1" xmlns="http://www.w3.org/2000/svg" xmlns:xlink="http://www.w3.org/1999/xlink" style="pointer-events: none;"><g transform="translate(0,0)">
<g><svg xmlns="http://www.w3.org/2000/svg" width="600" height="528" viewBox="0 0 600 528"><g id="Symbols--globalStyle1/plants/4" fill="none" fill-rule="evenodd" stroke="none" stroke-width="1"><g id="globalStyle1/plants/4--globalStyle1/plants/4"><g id="Group--globalStyle1/plants/4" transform="translate(220 64.5)"><path id="[color:plant]plant--globalStyle1/plants/4" fill="#a26ba2" fill-rule="nonzero" d="M62.2376211,161.297047 C62.2376211,161.297047 39.9962705,155.879208 31.7265302,129.075975 C23.457756,102.271776 22.8877622,72.9026048 10.6270993,74.8985491 C-1.63452963,76.8944934 0.361414702,129.360972 8.06019513,153.027307 C15.7589756,176.694608 31.7265302,200.361909 56.8197819,201.501897 C81.9120675,202.642851 62.2376211,161.297047 62.2376211,161.297047" opacity="1.00"></path><path id="shadow--globalStyle1/plants/4" fill="#000" fill-opacity=".2" d="M13.5555787,86.356919 C14.1985806,88.9076251 14.784566,91.9256659 15.2982469,95.4472707 C15.4871176,96.7427037 16.2457469,102.338468 16.2934376,102.682814 C16.7697439,106.121932 17.2055011,109.024815 17.7057097,111.991482 C19.0489774,119.958213 20.6773376,127.207888 22.8057957,134.084301 C28.6315249,152.905494 37.5541284,166.73099 50.7256472,174.043365 C63.4309891,181.097524 74.5680792,181.986741 83.4550482,179.208389 C85.1777182,178.669827 86.397356,178.11741 87.0785608,177.719604 L85.2021566,174.506439 C85.1150807,174.557289 84.8940385,174.672132 84.5439873,174.830683 C83.9288732,175.10929 83.1941906,175.39141 82.3447602,175.656969 C74.4028241,178.139874 64.3193464,177.33478 52.531779,170.79018 C40.3534949,164.029215 31.9294746,150.97627 26.3603413,132.984061 C24.2861271,126.282894 22.6926557,119.188548 21.3748501,111.37283 C20.8815217,108.446968 20.4508886,105.578221 19.9791869,102.17235 C19.9338408,101.844933 19.1722964,96.2276657 18.980231,94.9103215 C18.4489238,91.2678764 17.8389386,88.1262278 17.1636318,85.4473727 C16.2504058,81.8247225 15.2554665,79.1817903 14.2305481,77.3546568 C13.5362519,76.116927 12.9133385,75.3951788 12.4144341,75.0506199 L11.118035,74.1552862 L10.0213832,75.2864926 C9.21746591,76.1157405 8.16102928,77.8737321 7.16046783,80.8045886 C4.35627108,89.0186751 3.6248657,101.849557 6.15084568,120.351685 C7.45924571,129.935801 11.6242674,144.374062 17.0216424,156.701592 C23.9460843,172.51692 32.2867872,184.004693 41.6716806,188.80865 C54.8421436,195.550275 66.5158257,196.676952 75.8483689,194.520959 C77.4037774,194.16163 78.5080385,193.793153 79.1248583,193.528527 L77.6578248,190.109004 C77.5748896,190.144585 77.3685283,190.22346 77.0434918,190.33192 C76.473786,190.522023 75.7946667,190.714433 75.0108232,190.895515 C66.5014289,192.861346 55.7229608,191.82107 43.3671313,185.496435 C27.7669677,177.510993 13.1527706,144.132372 9.83757806,119.84837 C7.38444362,101.879816 8.08340138,89.6181555 10.68185,82.0067489 C10.9304228,81.2786266 11.1853425,80.6322607 11.4416196,80.0630843 C12.1484081,81.5556472 12.8666526,83.6240379 13.5555787,86.356919 Z"></path><path id="[color:plant]plant--globalStyle1/plants/4" fill="#a26ba2" fill-rule="nonzero" d="M108.489235,112.807097 C108.489235,112.807097 124.996835,108.724395 131.069684,88.7929687 C137.143499,68.8596099 137.491292,47.0414072 146.60443,48.4924761 C155.717568,49.943545 154.370836,88.9224249 148.713407,106.52364 C143.055011,124.124855 131.254207,141.747323 112.617343,142.659313 C93.9804783,143.571303 108.489235,112.807097 108.489235,112.807097" opacity="1.00"></path><path id="shadow--globalStyle1/plants/4" fill="#000" fill-opacity=".2" d="M146.598202,53.8225733 C148.534743,59.478682 149.07626,68.5720871 147.306623,81.8810762 C144.905815,99.9304167 134.136972,124.762563 122.569813,130.734566 C113.389771,135.473557 105.37473,136.26783 99.048761,134.820549 C98.0719392,134.597068 97.4158708,134.380282 97.108331,134.24964 L96.0273962,136.794217 C96.4803689,136.98664 97.290861,137.254452 98.4321834,137.515568 C105.371086,139.103079 114.052416,138.242778 123.838052,133.191162 C136.451831,126.6788 147.536933,101.117383 150.047145,82.2455371 C151.869242,68.5420135 151.302685,59.0281248 149.213794,52.9270454 C148.458392,50.7207219 147.660994,49.3999568 147.054587,48.7789057 L146.236974,47.941547 L145.27621,48.6098244 C144.912469,48.8628319 144.459251,49.3888019 143.954769,50.2870152 C143.211194,51.6109262 142.489731,53.5216348 141.827773,56.1365421 C141.312358,58.172566 140.849706,60.576437 140.451021,63.3795749 C140.31186,64.3580868 139.761888,68.5241054 139.726483,68.7864129 C139.384296,71.3216429 139.070956,73.4585968 138.711002,75.6378348 C137.749649,81.4580732 136.580366,86.742009 135.051318,91.7329475 C130.960296,105.086389 124.740411,114.786287 115.723578,119.834039 C106.970177,124.734026 99.4736239,125.351962 93.5675045,123.519072 C92.5052288,123.189408 91.7944502,122.86993 91.4642725,122.678641 L90.0783608,125.070826 C90.5806251,125.361812 91.4793057,125.765747 92.7480816,126.159496 C99.3579034,128.210772 107.638585,127.528201 117.074025,122.246422 C126.826551,116.786818 133.414963,106.512203 137.694699,92.5427857 C139.263809,87.421077 140.458736,82.0212604 141.438694,76.0883789 C141.803677,73.8786932 142.120754,71.7162575 142.466291,69.1562128 C142.503385,68.8813825 143.051271,64.7311675 143.188128,63.7688534 C143.573496,61.0593521 144.017685,58.75141 144.507882,56.815006 C144.99971,54.8721552 145.512005,53.3949463 146.016317,52.3221929 C146.200919,52.7383204 146.397392,53.2360632 146.598202,53.8225733 Z"></path><g id="Group-2--globalStyle1/plants/4" transform="translate(0 61.89)"><g id="Group-26--globalStyle1/plants/4" fill="#FFE190"><path id="Fill-24--globalStyle1/plants/4" d="M20.5720697,7.25362043 C20.6928311,6.87587879 20.7585253,6.47495096 20.7575592,6.05759958 C20.7536948,3.89645366 18.9992733,2.14782866 16.8390934,2.15169303 C16.2758623,2.15265912 15.74258,2.2753527 15.2595344,2.48982493 C14.588101,1.29670236 13.3099624,0.49098233 11.8434361,0.492911045 C10.2938258,0.495812786 8.96062004,1.4010402 8.32976252,2.70816154 C7.74431128,2.36133481 7.06321701,2.15845567 6.3328521,2.16038785 C4.17170618,2.16328612 2.42404728,3.91770766 2.42791164,6.07885358 C2.42887773,6.60923763 2.53611385,7.11353721 2.7273999,7.57436269 C1.42800729,8.21198286 0.5314747,9.54615474 0.534365967,11.0919006 C0.538237338,13.2511143 2.2907267,14.9987732 4.44994043,14.9968427 L4.45283871,14.9968427 L19.6813336,14.9707566 C21.8415134,14.9668922 23.5901384,13.2115046 23.5862805,11.0513248 C23.5833758,9.20222629 22.2965424,7.65937871 20.5720697,7.25362043"></path></g><path id="Fill-27--globalStyle1/plants/4" fill="#DABC6A" d="M17.2189605,14.9658295 C17.446958,14.345599 17.5773803,13.67803 17.5764195,12.97858 C17.5706177,9.80786884 14.9959847,7.24193073 11.8252735,7.24771747 C8.65456237,7.25352382 6.08862425,9.82815675 6.0934479,12.9988679 C6.09538689,13.6983179 6.22774138,14.3649208 6.45767107,14.9841853 L17.2189605,14.9658295 Z"></path></g><path id="[color:plant]plant--globalStyle1/plants/4" fill="#a26ba2" fill-rule="nonzero" d="M121.974902,309.9949 C105.192932,310.124356 54.8557186,310.904958 54.8508881,310.855288 C48.2524855,239.884699 57.4206906,128.571675 60.8184332,62.3693129 C62.268536,34.1130787 72.2646812,21.4669455 86.3415955,21.4427561 C100.419476,21.4176748 109.257278,34.1594511 112.007739,62.2794664 C118.563634,129.317498 121.974902,309.898291 121.974902,309.898291 C121.974902,309.951426 122.000986,309.9949 121.974902,309.9949" opacity="1.00"></path><path id="shadow--globalStyle1/plants/4" fill="#000" fill-opacity=".3" d="M97.6444972,62.4044078 C98.0846944,70.432119 98.6165323,79.2584568 99.3962059,91.6490942 C99.4035442,91.7657158 101.001466,116.960847 101.474477,124.57991 C103.138678,151.386121 104.281062,172.130801 105.13677,192.396788 C107.209884,241.494926 107.182567,280.437024 104.484203,310.598027 L108.190331,310.929597 C110.906403,280.570655 110.933819,241.487576 108.854388,192.239816 C107.997456,171.944857 106.853849,151.177973 105.188258,124.349349 C104.715063,116.727339 103.116992,91.5298559 103.109791,91.415419 C102.330694,79.0339391 101.799379,70.2162737 101.359847,62.2006909 C100.257222,42.0899241 96.0244224,29.2403804 87.8326508,21.7987747 L86.5773239,20.6584051 L85.3259411,21.8031014 C76.5234399,29.8551462 71.2229186,43.4220444 70.2564339,62.2555118 C69.8495019,70.1843797 69.3541755,78.9213083 68.6328116,91.0707673 C68.5498653,92.4677776 67.1270004,116.21011 66.6976038,123.526866 C65.0956588,150.823398 64.0136521,171.748108 63.2186956,192.260666 C61.3087417,241.54391 61.4714699,280.644627 64.2944337,311.006574 L67.9993843,310.662099 C65.1948227,280.498074 65.0326812,241.538336 66.9368347,192.404761 C67.7306596,171.921404 68.8115189,151.018882 70.4121428,123.74486 C70.8413775,116.430864 72.264132,92.690373 72.3472004,91.291306 C73.0691053,79.1327359 73.5649243,70.3871181 73.9724737,62.4462194 C74.8432645,45.4774988 79.3155456,33.2406587 86.5772382,25.7714882 C93.0948416,32.6200029 96.6518248,44.2990624 97.6444972,62.4044078 Z"></path><polygon id="shadow--globalStyle1/plants/4" fill="#000" fill-opacity=".3" points="84.720917 23.1794958 85.1604885 275.183408 88.8814131 275.176918 88.4418416 23.1730053"></polygon><g id="Group-17--globalStyle1/plants/4" fill="#E5E7ED" transform="translate(16.424 258.972)"><polygon id="Fill-15--globalStyle1/plants/4" points="124.198554 137.96429 17.2928385 138.150746 0.463530537 0.988987517 141.830683 0.741668181"></polygon></g><polygon id="Fill-18--globalStyle1/plants/4" fill="#D1D4DD" points="158.166512 297.427213 16.7993591 297.673567 16.7336649 259.961232 158.101784 259.714879"></polygon><path id="Fill-20--globalStyle1/plants/4" fill="#FFE190" d="M100.190705,10.8028448 C100.381991,10.200004 100.488262,9.55755335 100.487295,8.89095045 C100.481499,5.43814065 97.6769362,2.64420503 94.2250925,2.65096767 C93.3256617,2.65193376 92.4735693,2.84708417 91.7006964,3.19004653 C90.6283352,1.28394868 88.5860185,-0.00481692322 86.2422813,-1.07407623e-13 C83.7671558,0.00387789719 81.6359587,1.45011636 80.6273595,3.53880544 C79.6921833,2.98426912 78.6033985,2.66159467 77.4363604,2.66352685 C73.9845167,2.6693234 71.1905811,5.47291994 71.1963776,8.92572973 C71.1973437,9.77299168 71.369308,10.5796778 71.6765249,11.3158393 C69.5984629,12.3340993 68.1667158,14.4662625 68.1705723,16.9355915 C68.1773428,20.3864691 70.978041,23.1794387 74.4279526,23.1755743 L74.4279526,23.1765404 L74.432783,23.1765404 L74.4337491,23.1765404 L98.7666871,23.1340324 C102.219497,23.1272697 105.013432,20.3236732 105.006682,16.8718295 C105.001839,13.9175227 102.945997,11.451092 100.190705,10.8028448"></path><path id="Fill-22--globalStyle1/plants/4" fill="#DABC6A" d="M94.8328605,23.126207 C95.1970769,22.1349975 95.4047865,21.069399 95.4028676,19.9516315 C95.3931934,14.8854495 91.2786111,10.7853586 86.2133952,10.7940396 C81.1462471,10.8027482 77.0461562,14.9173305 77.0548372,19.9835125 C77.0567832,21.10128 77.2683572,22.1668785 77.6364379,23.1561559 L94.8328605,23.126207 Z"></path><g id="Group-2--globalStyle1/plants/4" transform="translate(134 35)"><g id="Group-26--globalStyle1/plants/4" fill="#FFE190"><path id="Fill-24--globalStyle1/plants/4" d="M20.5720697,7.25362043 C20.6928311,6.87587879 20.7585253,6.47495096 20.7575592,6.05759958 C20.7536948,3.89645366 18.9992733,2.14782866 16.8390934,2.15169303 C16.2758623,2.15265912 15.74258,2.2753527 15.2595344,2.48982493 C14.588101,1.29670236 13.3099624,0.49098233 11.8434361,0.492911045 C10.2938258,0.495812786 8.96062004,1.4010402 8.32976252,2.70816154 C7.74431128,2.36133481 7.06321701,2.15845567 6.3328521,2.16038785 C4.17170618,2.16328612 2.42404728,3.91770766 2.42791164,6.07885358 C2.42887773,6.60923763 2.53611385,7.11353721 2.7273999,7.57436269 C1.42800729,8.21198286 0.5314747,9.54615474 0.534365967,11.0919006 C0.538237338,13.2511143 2.2907267,14.9987732 4.44994043,14.9968427 L4.45283871,14.9968427 L19.6813336,14.9707566 C21.8415134,14.9668922 23.5901384,13.2115046 23.5862805,11.0513248 C23.5833758,9.20222629 22.2965424,7.65937871 20.5720697,7.25362043"></path></g><path id="Fill-27--globalStyle1/plants/4" fill="#DABC6A" d="M17.2189605,14.9658295 C17.446958,14.345599 17.5773803,13.67803 17.5764195,12.97858 C17.5706177,9.80786884 14.9959847,7.24193073 11.8252735,7.24771747 C8.65456237,7.25352382 6.08862425,9.82815675 6.0934479,12.9988679 C6.09538689,13.6983179 6.22774138,14.3649208 6.45767107,14.9841853 L17.2189605,14.9658295 Z"></path></g></g></g></g></svg></g></g></svg>