<?xml version="1.0" encoding="UTF-8"?>
<svg id="illustration-builder" width="600" height="528" viewBox="-10 -30 670 588" version="1.1" xmlns="http://www.w3.org/2000/svg" xmlns:xlink="http://www.w3.org/1999/xlink" style="pointer-events: none;"><g transform="translate(0,0)">
<g><svg xmlns="http://www.w3.org/2000/svg" width="600" height="528" viewBox="0 0 600 528"><g id="Symbols--globalStyle1/plants/10" fill="none" fill-rule="evenodd" stroke="none" stroke-width="1"><g id="globalStyle1/plants/10--globalStyle1/plants/10"><path id="[color:plant]plant--globalStyle1/plants/10" fill="#587267" fill-rule="nonzero" d="M313.224334,98.5 C318.619284,105.148174 322.184543,111.225765 323.920111,116.732771 C325.655678,122.239777 326.999771,127.866445 327.95239,133.612772 L317.67376,145.490917 L326.806752,139.775863 C324.882324,151.426554 323.920111,159.717814 323.920111,164.649642 C323.920111,169.58147 323.727825,173.984912 323.343255,177.85997 L315.45067,175.490889 L322.429868,181.955261 C321.948191,185.495773 321.334356,188.719569 320.588362,191.626649 C319.842368,194.533729 319.200314,196.326183 318.662202,197.004012 L312.627527,194.517998 L317.67376,201.412349 C313.693365,210.880983 309.008507,214.941491 303.619187,213.593873 L303.443995,213.546 L303.442304,275.782127 C303.678853,272.647125 303.946467,269.521469 304.245144,266.40516 C305.408551,254.266528 308.737579,240.453376 314.228122,224.959643 C317.192447,208.889479 320.858002,194.938336 325.224928,183.105204 C330.098786,169.898432 340.523964,154.323035 356.500463,136.379011 C356.762469,141.922858 356.523373,147.150936 355.783176,152.063247 C355.04298,156.975558 353.480326,164.478119 351.095214,174.570932 C350.184037,173.469511 349.14032,172.520554 347.964062,171.724062 C346.787805,170.927571 345.130281,170.187656 342.991491,169.50432 C347.482796,174.78622 349.728448,177.859032 349.728448,178.722755 C349.728448,180.01834 346.600526,185.615641 344.606423,189.155216 C343.729462,190.711842 342.091066,194.00819 339.691236,199.044259 C344.367813,194.875085 349.516314,191.85998 356.264743,188.088546 C365.736052,182.7954 382.82114,182.175052 407.520005,186.227502 C406.138919,189.026185 404.030929,192.120776 401.196036,195.511274 C398.447049,198.79903 393.843011,202.370966 387.383924,206.227082 L386.772949,206.589426 L380.859204,201.857876 L382.997961,208.183316 C377.071474,210.197121 372.44496,212.183822 369.11842,214.14342 C365.862658,216.061324 360.743941,220.295194 353.76227,226.845028 L353.304303,227.275474 L346.970078,219.690293 L349.797824,229.213538 C347.480682,231.239223 344.238673,233.76539 340.071796,236.792037 C336.088861,239.685077 328.504102,242.775882 317.31752,246.064454 C315.580123,250.366835 313.773263,255.131038 311.896112,260.355364 C308.382859,270.133149 305.701738,288.00099 303.870847,313.913814 L303.80876,314.800323 L303.615788,317.659542 L303.429478,320.581721 C303.367093,325.255662 303.145095,329.589712 302.763288,333.584218 L302.672341,334.5 L301.024323,334.323312 C301.252344,329.504056 301.502532,324.892597 301.77496,320.488747 C301.858472,314.081522 301.638985,307.017279 301.11598,299.296939 L301.026002,298.004141 L300.976947,297.348538 C299.969636,284.457162 295.866434,263.512161 288.668329,234.546851 L288.429908,233.589045 L287.2848,229.031294 L285.646995,223.827 L285.629094,223.824505 C280.63694,222.876934 275.879761,221.69464 271.357555,220.277622 C266.577987,218.779961 261.109678,214.92003 254.952626,208.697828 L254.489556,208.226734 L256.515538,194.968423 L249.666807,205.68415 C243.00961,199.340096 238.015472,194.529664 234.684394,191.252853 C231.438728,188.060063 226.792796,186.687075 220.746596,187.13389 L220.266355,187.172946 L223.595884,177.625763 L216.566776,185.255734 C213.177432,184.091708 209.704718,182.318528 206.148634,179.936192 C202.59255,177.553857 198.036337,172.36909 192.479995,164.381893 C195.218496,164.390779 199.774709,163.795584 206.148634,162.596309 C215.709522,160.797395 237.124127,162.596309 258.87438,172.668337 C259.298179,172.864588 259.717566,173.069736 260.132542,173.28378 C258.716126,169.762904 256.881092,165.045868 254.627163,159.133442 L260.500559,148.584332 L252.965653,152.90639 C250.583566,146.892565 248.874018,141.383438 247.837007,136.379011 C246.799997,131.374584 246.799997,124.903542 247.837007,116.965884 C260.788169,128.772111 270.510529,142.827964 277.004085,159.133442 C283.042058,174.294937 287.258957,189.507403 289.654782,204.77084 C293.4623,216.311996 295.869248,225.702402 296.874507,232.954718 C297.658269,238.609075 298.961939,251.191794 300.787006,270.715265 L300.857458,271.46959 L301.788995,281.64 L301.789132,212.874047 C295.44895,209.358794 294.983488,197.120194 294.983488,190.214534 C294.983488,185.202304 294.761835,180.294422 294.318529,175.490889 L300.36242,169.56871 L294.318529,170.357879 L294.318529,143.956625 L301.591828,142.984452 L294.318529,139.775863 C294.921016,130.584793 296.283854,124.114478 298.407044,120.364919 C300.530233,116.615359 305.46933,109.327053 313.224334,98.5 Z M323.647872,221.038131 C321.260942,223.30471 318.189556,226.14042 314.434386,229.545001 C309.784632,243.332778 306.937929,255.695771 305.889941,266.630157 C305.083819,275.040986 304.505108,283.520586 304.153815,292.068987 C305.805384,277.35404 307.876613,266.527954 310.374806,259.575197 C312.177932,254.556891 313.91771,249.957825 315.59442,245.77764 C314.775928,240.710394 317.460568,232.463707 323.647872,221.038131 Z M280.969245,199.930582 C283.509083,206.788085 285.475694,214.801605 286.869077,223.97114 C292.748396,246.904484 297.45996,265.954862 300.182982,280.258938 C298.614251,259.854167 297.831829,246.078179 296.912372,238.181618 L296.874507,237.860409 L296.49735,234.854833 L296.304341,233.480273 C295.300423,226.753972 292.200496,217.42382 288.575276,206.790586 L280.969245,199.930582 Z M329.513425,200.465544 L331.626575,208.090211 C332.404207,207.01981 333.175953,206.017332 333.947579,205.073013 L333.707821,204.649329 C333.075871,203.571788 331.677739,202.177193 329.513425,200.465544 Z M273.777762,179.385244 L272.529704,183.97341 C272.953692,184.532462 273.369694,185.107622 273.777708,185.698889 L273.777762,179.385244 Z" opacity="1.00"></path><path id="shadow--globalStyle1/plants/10" fill="#000" fill-opacity=".15" d="M356.44059,136.085517 C356.702595,141.590028 356.4635,146.781012 355.723303,151.658468 C354.983107,156.535925 353.420452,163.985254 351.03534,174.006455 C350.124163,172.912848 349.080446,171.970625 347.904189,171.179785 C346.727931,170.388944 345.070408,169.65428 342.931618,168.975792 C347.422923,174.220215 349.668575,177.271225 349.668575,178.128819 C349.668575,179.415212 346.540653,184.972798 344.54655,188.487259 C343.659363,190.050861 341.992883,193.382357 339.547109,198.481746 C344.260707,194.278085 349.443412,191.26273 356.257173,187.481803 C365.728483,182.226213 382.81357,181.610267 407.512436,185.633964 C383.830273,183.852613 364.525132,188.045122 349.597011,198.211491 C334.66889,208.377859 323.382233,224.140695 315.737039,245.5 C314.498954,240.519549 317.17204,232.01465 323.756297,219.985304 C321.097658,222.496099 317.566814,225.727114 313.16446,229.678073 C316.290999,211.325873 320.291197,195.59324 325.165055,182.480174 C330.038913,169.367108 340.464091,153.902222 356.44059,136.085517 Z M258.927984,172.176277 C273.428153,178.843319 282.764036,195.851171 286.935631,223.199833 C283.549008,201.772256 274.213126,186.261627 258.927984,176.667945 C243.97878,167.285113 222.480885,163.02344 194.434301,163.882926 L194.322599,163.886 L194.521647,163.873278 C197.180474,163.687191 200.882524,163.156869 205.627798,162.282312 L206.202238,162.175712 C215.763126,160.389563 237.177731,162.175712 258.927984,172.176277 Z M313.240919,98.5 C318.63587,105.101004 322.201129,111.135472 323.936696,116.603404 C325.672263,122.071337 327.016356,127.658081 327.968975,133.363637 L317.690345,145.157503 L326.823337,139.482998 C324.89891,151.051025 323.936696,159.283456 323.936696,164.180291 C323.936696,169.077126 323.744411,173.449325 323.359841,177.296887 L315.467256,174.944616 L322.446454,181.363121 C321.964777,184.878513 321.350941,188.079435 320.604947,190.965888 C319.858953,193.852341 319.2169,195.632078 318.678787,196.305097 L312.644112,193.836722 L317.690345,200.682156 C313.70995,210.083607 309.025092,214.115304 303.635773,212.777248 C303.635773,212.777248 306.837488,174.684832 313.240919,98.5 Z M329.453551,199.717337 L331.592597,207.377667 C332.374965,206.307034 333.151311,205.304755 333.927505,204.360959 C333.836141,204.19563 333.742928,204.03224 333.647947,203.871437 C333.015997,202.801541 331.617865,201.416841 329.453551,199.717337 L329.453551,199.717337 Z M194.322599,163.886 L194.207596,163.893956 C193.589507,163.932008 193.031508,163.950232 192.533599,163.948627 L193.48643,163.913837 L194.322599,163.886 Z"></path><polygon id="Rectangle--globalStyle1/plants/10" fill="#B6B4B4" points="274.623182 323.5 332.572374 323.5 322.928293 429.5 283.548706 429.5"></polygon></g></g></svg></g></g></svg>