<?xml version="1.0" encoding="UTF-8"?>
<svg id="illustration-builder" width="600" height="528" viewBox="-10 -30 670 588" version="1.1" xmlns="http://www.w3.org/2000/svg" xmlns:xlink="http://www.w3.org/1999/xlink" style="pointer-events: none;"><g transform="translate(0,0)">
<g><svg xmlns="http://www.w3.org/2000/svg" width="600" height="528" viewBox="0 0 600 528"><g id="Symbols--globalStyle1/plants/8" fill="none" fill-rule="evenodd" stroke="none" stroke-width="1"><g id="globalStyle1/plants/8--globalStyle1/plants/8"><g id="Group--globalStyle1/plants/8" transform="translate(193.5 76)"><path id="Combined-Shape--globalStyle1/plants/8" fill="#A5A5A5" d="M100.413811,15.3278094 L103.357905,124.117809 L132.508905,98.9718094 L137.571975,74.1307905 L139.55224,74.145103 L136.607905,95.4348094 L156.190351,78.5443569 L156.190351,83.2346941 L119.561905,121.623809 L158.028939,132.747918 L156.627492,135.957857 L114.734905,126.683809 L103.738905,138.208809 L106.326905,233.785809 L144.843905,215.180809 L160.315069,188.522815 L162.554013,190.246156 L151.806905,211.817809 L183.977424,196.279314 L182.386227,202.217743 L145.351905,224.774809 L144.841911,225.79943 L144.774905,225.125809 L106.719905,248.305809 L109.52728,352 L90.5817042,352 L93.299905,227.745809 L66.566905,211.462809 L31.5381931,215.443254 L30.6845462,212.749919 L60.062905,207.501809 L19.2381023,182.635232 L17.646905,176.696802 L37.587905,186.327809 L26.7710938,168.930549 L28.5743346,168.112027 L43.673905,189.267809 L93.613905,213.389809 L94.518905,172.038809 L37.9103892,120.234035 L37.9103892,116.279119 L56.850905,130.755809 L54.1030053,110.87772 L56.0832704,110.863407 L60.742905,133.729809 L94.786905,159.749809 L96.675905,73.4198094 L72.7529201,51.5273984 L72.7529201,47.8891946 L96.789905,68.2048094 L97.947256,15.3278094 L100.413811,15.3278094 Z"></path><path id="[color:plant]plant--globalStyle1/plants/8" fill="#587267" fill-rule="nonzero" d="M57.7280181,242.265733 C40.5185094,237.424358 32.7638809,227.811509 34.4641328,213.427187 C50.0705601,211.349885 57.8251886,220.962734 57.7280181,242.265733 Z M187.749665,163.916522 C193.94828,178.318084 192.718145,189.377623 184.059259,197.09514 C194.078361,193.224294 203.448273,198.921288 212.168076,214.184794 C204.254448,216.200137 197.55152,216.366876 192.059294,214.685012 C193.381432,220.743632 191.586719,228.538722 186.675854,238.069119 C173.862598,226.240275 171.126126,214.450454 178.466439,202.699654 C178.165108,202.100974 177.876691,201.481639 177.601688,200.841823 C178.196689,200.383911 178.789519,199.957951 179.380177,199.563943 C168.639472,188.89198 171.429557,177.009482 187.749665,163.916522 Z M32.98231,213.896377 C32.4816305,214.204178 31.9843207,214.492646 31.4903807,214.761783 C31.7844278,214.835206 32.0799693,214.914344 32.3769786,214.99806 C31.9873224,230.737308 21.2797327,236.892683 0.254209673,233.464186 C4.25891455,224.762271 9.19202402,218.955796 15.0535381,216.04476 C9.40301927,213.329391 4.38535377,206.985159 6.67910172e-13,197.013329 C17.6908331,194.436407 28.6849365,200.06409 32.98231,213.896377 Z M163.895335,225.924045 C152.893017,233.140595 145.304923,232.357391 141.131051,223.57443 C148.010209,217.854886 155.598303,218.638091 163.895335,225.924045 Z M159.430134,193.299407 C150.015117,200.03538 141.662257,196.471362 134.371554,182.607354 C147.215658,179.809785 155.568518,183.373803 159.430134,193.299407 Z M47.0360615,160.228831 C60.5871197,171.88966 63.5526345,183.879107 55.9326058,196.197172 C40.9104734,191.484286 37.9449586,179.494839 47.0360615,160.228831 Z M163.829322,166.188897 C172.190554,179.434835 171.100654,188.450633 160.559622,193.23629 C153.894604,184.929231 154.984504,175.913433 163.829322,166.188897 Z M1.46317555,149.65456 C17.954392,156.557159 24.479707,167.043407 21.0391207,181.113302 C5.2958619,181.273175 -1.22945317,170.786927 1.46317555,149.65456 Z M37.6192425,158.369067 C42.5064846,167.082427 41.7722128,173.945149 35.416427,178.957233 C28.4287384,173.611228 29.1630102,166.748505 37.6192425,158.369067 Z M124.993504,123.635678 C139.842008,128.869958 142.38729,140.955597 132.629352,159.892594 C119.493505,147.765943 116.948223,135.680305 124.993504,123.635678 Z M175.016789,152.357244 C159.359867,151.881984 152.494897,145.936846 154.421877,134.521829 C165.035772,133.641527 171.900743,139.586665 175.016789,152.357244 Z M55.9101295,134.685417 C54.5638464,143.960517 48.1072449,148.669975 36.540325,148.813791 C40.04723,135.482912 46.5038316,130.773454 55.9101295,134.685417 Z M74.08202,125.926303 C74.4707343,135.770062 71.0420205,140.337856 63.7958783,139.629687 C62.7779486,133.009314 66.2066625,128.44152 74.08202,125.926303 Z M177.877846,118.754562 C173.014804,130.967188 165.38924,135.89905 155.001152,133.550146 C154.681589,121.978035 162.307153,117.046174 177.877846,118.754562 Z M15.6549213,92.882805 C33.1602258,96.5119121 41.5665227,105.560409 40.8738122,120.028295 C40.2978407,120.146334 39.731655,120.247347 39.1752553,120.331334 C39.4265236,120.500421 39.6774495,120.676055 39.9281887,120.856503 C34.1788918,135.513288 22.0117865,137.635238 3.42687284,127.222351 C10.1659617,120.415252 16.7871785,116.646209 23.2905232,115.915222 C18.910738,111.431786 16.3652797,103.75376 15.6549213,92.882805 Z M72.8631382,92.3045886 C73.4812083,107.956523 68.0294282,115.219483 56.5077979,114.093468 C54.8892526,103.566834 60.3410327,96.3038747 72.8631382,92.3045886 Z M38.1308643,90.0442859 C50.6529699,94.0435719 56.10475,101.306532 54.4862047,111.833165 C42.9645744,112.95918 37.5127943,105.69622 38.1308643,90.0442859 Z M126.02668,83.8223049 C132.053224,95.5046929 130.772526,104.495372 122.184588,110.794341 C113.241352,103.443531 114.52205,94.4528523 126.02668,83.8223049 Z M183.638685,84.9641576 C177.889388,99.6209425 165.722283,101.742892 147.137369,91.3300057 C159.715067,78.6253755 171.882172,76.5034261 183.638685,84.9641576 Z M98.933875,77.4455194 C93.1845781,92.1023043 81.0174728,94.2242536 62.4325591,83.8113675 C75.0102566,71.1067372 87.1773619,68.9847879 98.933875,77.4455194 Z M161.172081,47.0966543 C172.978579,57.5121418 170.811164,69.6712303 154.669837,83.5739197 C147.033215,67.4095108 149.20063,55.2504223 161.172081,47.0966543 Z M137.555298,76.8386455 C128.140281,83.574618 119.787421,80.0106004 112.496718,66.1465926 C125.340823,63.3490231 133.693683,66.9130408 137.555298,76.8386455 Z M141.954487,49.7281353 C150.315718,62.9740731 149.225818,71.9898708 138.684786,76.7755286 C132.019768,68.4684692 133.109668,59.4526714 141.954487,49.7281353 Z M76.432212,52.0610383 C70.6829151,66.7178232 58.5158098,68.8397725 39.9308961,58.4268864 C52.5085936,45.7222561 64.6756988,43.6003068 76.432212,52.0610383 Z M92.2886668,37.4886593 C95.1434907,48.6986683 92.2655951,56.1541638 83.6549799,59.855146 C77.4417853,51.7818503 80.3196809,44.3263547 92.2886668,37.4886593 Z M58.6516716,15.6346838 C74.3310293,24.2232718 79.7244867,35.3341556 74.8320437,48.967335 C59.1583168,47.4807136 53.7648595,36.3698298 58.6516716,15.6346838 Z M119.544497,37.1786575 C108.046268,38.4455668 101.063855,34.5580742 98.5972561,25.5161798 C107.456693,20.4870371 114.439106,24.3745297 119.544497,37.1786575 Z M129.873974,0.217308333 C123.843917,17.0471783 113.71355,24.1123584 99.4828705,21.4128487 C98.4992781,5.69953257 108.629646,-1.36564756 129.873974,0.217308333 Z M98.7826261,20.8890951 C89.5745397,22.6358367 83.0195959,18.0642495 79.1177947,7.17433369 C92.8641245,6.15006811 99.4190683,10.7216553 98.7826261,20.8890951 Z" opacity="1.00"></path><path id="shadow--globalStyle1/plants/8" fill="#000" fill-opacity=".2" d="M179.040006,201.812204 C193.88851,207.046484 196.433792,219.132122 186.675854,238.069119 C173.540007,225.942469 170.994725,213.856831 179.040006,201.812204 Z M32.3769786,214.99806 C31.9873224,230.737308 21.2797327,236.892683 0.254209673,233.464186 C7.72813968,217.223913 18.4357293,211.068538 32.3769786,214.99806 Z M175.016789,152.357244 C159.359867,151.881984 152.494897,145.936846 154.421877,134.521829 C165.035772,133.641527 171.900743,139.586665 175.016789,152.357244 Z M15.6549213,92.882805 C33.1602258,96.5119121 41.5665227,105.560409 40.8738122,120.028295 C25.4503066,123.189186 17.0440096,114.140689 15.6549213,92.882805 Z M126.02668,83.8223049 C132.053224,95.5046929 130.772526,104.495372 122.184588,110.794341 C113.241352,103.443531 114.52205,94.4528523 126.02668,83.8223049 Z M98.7826261,20.8890951 C89.5745397,22.6358367 83.0195959,18.0642495 79.1177947,7.17433369 C92.8641245,6.15006811 99.4190683,10.7216553 98.7826261,20.8890951 Z"></path><polygon id="Rectangle--globalStyle1/plants/8" fill="#D1D4DD" points="51.8121645 280 149.812165 280 133.502706 376 66.9064454 376"></polygon></g></g></g></svg></g></g></svg>