<?xml version="1.0" encoding="UTF-8"?>
<svg id="illustration-builder" width="600" height="528" viewBox="-10 -30 670 588" version="1.1" xmlns="http://www.w3.org/2000/svg" xmlns:xlink="http://www.w3.org/1999/xlink" style="pointer-events: none;"><g transform="translate(0,0)">
<g><svg xmlns="http://www.w3.org/2000/svg" width="600" height="528" viewBox="0 0 600 528"><g id="Symbols--globalStyle1/plants/9" fill="none" fill-rule="evenodd" stroke="none" stroke-width="1"><g id="globalStyle1/plants/9--globalStyle1/plants/9"><g id="Group--globalStyle1/plants/9" transform="translate(219.5 91)"><path id="[color:plant]plant--globalStyle1/plants/9" fill="#587267" fill-rule="nonzero" d="M80.3493092,137.312258 C74.1392289,137.57483 68.388923,139.399827 63.0983915,142.787251 L63.0983915,142.787251 L63.0981829,293.910441 L56.6314374,293.910441 L56.6314374,142.302898 L57.0205584,142.302375 C52.4027136,132.99302 44.5118542,127.03223 33.3479802,124.420006 C21.9965049,121.763886 10.8805115,121.763886 5.50528512e-11,124.420006 C14.8325785,114.660147 27.335103,110.638083 37.5075734,112.353812 C47.5718261,114.051289 54.1206199,123.994983 57.1539549,142.184893 L57.1539549,142.184893 L57.173124,142.301938 L57.8132591,142.302443 C57.7334129,130.165532 52.4701743,119.850653 42.0235435,111.357808 C30.8027488,102.235588 18.2034806,96.2506947 4.22573884,93.4031286 C27.0834228,90.3268691 43.745769,92.4995227 54.2127776,99.9210895 C59.8840334,103.942258 62.8281906,110.198965 63.0437995,118.690819 C65.5809708,111.715986 69.822215,107.037631 75.7675319,104.655755 C77.2269174,104.07108 78.7541368,103.581101 80.3491903,103.185817 L80.3497907,64.849996 C69.9165699,58.1696652 58.0844171,56.2432488 44.8533321,59.0707469 C30.2723435,62.1867209 17.6127864,68.2002526 6.87466074,77.1113418 C17.6920525,57.9721013 29.4272181,46.6279165 42.0801575,43.0787874 C54.1072893,39.7051962 67.1766349,46.7558209 81.2881943,64.2306613 L81.6223255,64.2305389 C76.9875696,50.8917656 67.3908724,40.7512107 52.8322338,33.8088744 C35.8904901,25.7301462 18.2797455,21.9397289 3.84687837e-10,22.4376224 C27.3278794,12.0330895 48.7132298,9.92425703 64.1560512,16.111125 C71.754702,19.1553776 77.1755339,25.1345481 80.418547,34.0486366 C80.6951874,23.1953874 84.4583112,15.1988594 91.7067379,10.059408 C105.085377,0.573368096 126.382723,-2.20365724 155.598778,1.72833198 C137.732818,5.36801154 121.628785,13.0177354 107.286677,24.6775035 C93.9339681,35.5329163 87.2066424,48.7172417 87.1047,64.2304799 L87.922,64.23 L87.9399084,64.1248371 C91.8137324,40.8463921 100.186718,28.1216357 113.058864,25.9505679 C126.061033,23.7575701 142.041411,28.8984611 161,41.3732408 C147.092833,37.9782616 132.88468,37.9782616 118.375541,41.3732408 C104.106149,44.7121218 94.0202557,52.3310699 88.1178618,64.2300853 L88.6152741,64.2306545 L88.6151349,102.011278 C98.8887846,101.506359 111.337448,104.037732 125.961124,109.605399 C113.088619,109.254785 100.640148,111.622246 88.6157136,116.707782 L88.6154338,125.114994 C90.1094485,125.133113 91.5839665,125.346239 93.0389878,125.75437 C102.938233,128.531092 112.119442,137.406411 120.582615,152.380325 C112.181457,145.408581 102.277034,140.703791 90.8693468,138.265955 C90.1120401,138.104118 89.3605912,137.962187 88.6150003,137.840162 L88.6152741,327 L80.3496603,327 Z M80.3492785,120.76595 C71.3362112,126.055204 65.254133,133.233626 62.1030438,142.301217 L62.1030438,142.301217 L62.3648116,142.30178 C68.6215812,134.554024 74.6164722,129.425576 80.3494846,126.916435 Z M60.2142302,137.382688 C59.7605063,138.977939 59.2524927,140.617694 58.6901892,142.301954 L58.6901892,142.301954 L60.2988456,142.301049 C60.2316616,140.650735 60.2028522,139.052136 60.2124173,137.505253 L60.2124173,137.505253 Z M84.0362226,57.9430959 L84.0381722,58.0995226 C84.0503803,60.0767619 84.0135376,62.1201043 83.927644,64.2295496 L85.9841872,64.2305031 C85.2654811,62.0778227 84.6161596,59.9820203 84.0362226,57.9430959 Z" opacity="1.00"></path><path id="shadow--globalStyle1/plants/9" fill="#000" fill-opacity=".08" d="M3.91473029,93.0526299 C22.970455,92.8645107 37.6984294,96.4575579 48.0986535,103.831772 C58.4988776,111.205985 61.4970338,124.712338 57.093122,144.350829 C57.8278196,131.10946 52.6205681,119.956767 41.4713673,110.89275 C30.3221665,101.828734 17.8032875,95.8820272 3.91473029,93.0526299 Z M59.3353516,22.9987353 C74.5049913,29.2321097 82.1712773,45.2935231 82.3342095,71.1829756 C79.4233988,54.3735097 69.6692949,41.9014483 53.0718979,33.7667914 C36.4745008,25.6321345 19.062399,21.8010919 0.835592521,22.2736637 C24.6657922,16.5236703 44.1657119,16.7653608 59.3353516,22.9987353 Z M155.830256,1.72833198 C137.964296,5.36801154 121.860262,13.0177354 107.518155,24.6775035 C93.1760477,36.3372717 86.4775442,50.6838709 87.4226445,67.7173013 C81.7575411,42.454742 85.6143088,25.0804424 98.9929475,15.5944025 C112.371586,6.10836264 131.317356,1.48633912 155.830256,1.72833198 Z"></path><polygon id="Rectangle--globalStyle1/plants/9" fill="#D8D8D8" points="22.1715406 258.647059 132.171541 258.647059 113.865006 346 39.1141007 346"></polygon></g></g></g></svg></g></g></svg>