<?xml version="1.0" encoding="UTF-8"?>
<svg id="illustration-builder" width="600" height="528" viewBox="-10 -30 670 588" version="1.1" xmlns="http://www.w3.org/2000/svg" xmlns:xlink="http://www.w3.org/1999/xlink" style="pointer-events: none;"><g transform="translate(0,0)">
<g><svg xmlns="http://www.w3.org/2000/svg" xmlns:xlink="http://www.w3.org/1999/xlink" width="600" height="528" viewBox="0 0 600 528"><defs><path id="path-11--globalStyle1/plants/6" d="M6.51083628,101.330889 C-1.32440388,80.2130328 -2.08785798,65.3421575 4.22047401,56.7182629 C10.528806,48.0943683 13.682972,29.5026874 13.682972,0.943220054 C23.8746447,21.3984172 28.0801762,34.1531428 26.2995663,39.207397 C23.6286516,46.7887784 20.1613954,60.1678636 20.1613954,75.5149787 C20.1613954,85.7463888 16.8980403,96.7261766 10.37133,108.454342 L6.51083628,101.330889 Z"></path><path id="path-1--globalStyle1/plants/6" d="M11.2030644,173.01429 C-2.27887499,136.618477 -3.59253502,110.989094 7.26208431,96.1261433 C18.1167036,81.2631924 23.5440133,49.2211446 23.5440133,2.63915873e-13 C41.0806186,35.2537463 48.3169916,57.2360259 45.2531322,65.9468388 C40.6573431,79.0130582 34.6913056,102.071398 34.6913056,128.521561 C34.6913056,146.155003 29.0761164,165.078245 17.8457379,185.291288 L11.2030644,173.01429 Z"></path><path id="path-5--globalStyle1/plants/6" d="M7.09913564,101.329467 C-0.736104529,80.2116103 -1.49955862,65.3407349 4.80877336,56.7168404 C11.1171053,48.0929458 14.2712713,29.5012649 14.2712713,0.941797518 C24.4629441,21.3969946 28.6684755,34.1517203 26.8878657,39.2059745 C24.2169509,46.7873558 20.7496948,60.1664411 20.7496948,75.5135562 C20.7496948,85.7449662 17.4863396,96.7247541 10.9596293,108.45292 L7.09913564,101.329467 Z"></path><path id="path-7--globalStyle1/plants/6" d="M7.09913564,101.329467 C-0.736104529,80.2116103 -1.49955862,65.3407349 4.80877336,56.7168404 C11.1171053,48.0929458 14.2712713,29.5012649 14.2712713,0.941797518 C24.4629441,21.3969946 28.6684755,34.1517203 26.8878657,39.2059745 C24.2169509,46.7873558 20.7496948,60.1664411 20.7496948,75.5135562 C20.7496948,85.7449662 17.4863396,96.7247541 10.9596293,108.45292 L7.09913564,101.329467 Z"></path><path id="path-9--globalStyle1/plants/6" d="M6.51083628,101.330889 C-1.32440388,80.2130328 -2.08785798,65.3421575 4.22047401,56.7182629 C10.528806,48.0943683 13.682972,29.5026874 13.682972,0.943220054 C23.8746447,21.3984172 28.0801762,34.1531428 26.2995663,39.207397 C23.6286516,46.7887784 20.1613954,60.1678636 20.1613954,75.5149787 C20.1613954,85.7463888 16.8980403,96.7261766 10.37133,108.454342 L6.51083628,101.330889 Z"></path><path id="path-3--globalStyle1/plants/6" d="M11.2030644,173.01429 C-2.27887499,136.618477 -3.59253502,110.989094 7.26208431,96.1261433 C18.1167036,81.2631924 23.5440133,49.2211446 23.5440133,2.63915873e-13 C41.0806186,35.2537463 48.3169916,57.2360259 45.2531322,65.9468388 C40.6573431,79.0130582 34.6913056,102.071398 34.6913056,128.521561 C34.6913056,146.155003 29.0761164,165.078245 17.8457379,185.291288 L11.2030644,173.01429 Z"></path><path id="path-13--globalStyle1/plants/6" d="M11.7913637,173.331023 C-1.69057564,136.935209 -3.00423566,111.305827 7.85038367,96.4428762 C18.705003,81.5799253 20.2496652,49.7462324 12.4843702,0.941797518 C31.1293189,39.2806172 38.9198635,62.8054335 35.8560041,71.5162464 C31.2602151,84.5824658 45.9107828,105.130149 45.9107828,131.580312 C45.9107828,149.213755 36.7518676,167.222991 18.4340372,185.608021 L11.7913637,173.331023 Z"></path><path id="path-15--globalStyle1/plants/6" d="M11.2030644,154.26235 C-2.27887499,117.866537 -3.59253502,92.2371543 7.26208431,77.3742034 C18.1167036,62.5112525 23.7255031,36.846627 24.0884828,0.380327043 C36.6011432,33.9455895 41.3255437,55.0836272 38.2616843,63.7944401 C33.6658952,76.8606595 34.6913056,83.3194577 34.6913056,109.769621 C34.6913056,127.403063 29.0761164,146.326305 17.8457379,166.539349 L11.2030644,154.26235 Z"></path><path id="path-17--globalStyle1/plants/6" d="M11.2030644,154.26235 C-2.27887499,117.866537 -3.59253502,92.2371543 7.26208431,77.3742034 C18.1167036,62.5112525 23.7255031,36.846627 24.0884828,0.380327043 C36.6011432,33.9455895 41.3255437,55.0836272 38.2616843,63.7944401 C33.6658952,76.8606595 34.6913056,83.3194577 34.6913056,109.769621 C34.6913056,127.403063 29.0761164,146.326305 17.8457379,166.539349 L11.2030644,154.26235 Z"></path><path id="path-19--globalStyle1/plants/6" d="M4.62655541,154.94253 C-1.75876212,111.142895 0.475888773,81.811602 11.3305081,66.9486511 C22.1851274,52.0857002 24.245616,30.1229854 17.5119738,1.06050667 C33.4641252,32.3726624 36.0006728,60.5261118 25.1216167,85.520855 C8.80303249,123.01297 23.7500849,106.24604 23.7500849,132.696203 C23.7500849,150.329645 19.5897996,161.83742 11.2692289,167.219528 L4.62655541,154.94253 Z"></path><path id="path-21--globalStyle1/plants/6" d="M4.62655541,154.94253 C-1.75876212,111.142895 0.475888773,81.811602 11.3305081,66.9486511 C22.1851274,52.0857002 24.245616,30.1229854 17.5119738,1.06050667 C33.4641252,32.3726624 36.0006728,60.5261118 25.1216167,85.520855 C8.80303249,123.01297 23.7500849,106.24604 23.7500849,132.696203 C23.7500849,150.329645 19.5897996,161.83742 11.2692289,167.219528 L4.62655541,154.94253 Z"></path></defs><g id="Symbols--globalStyle1/plants/6" fill="none" fill-rule="evenodd" stroke="none" stroke-width="1"><g id="globalStyle1/plants/6--globalStyle1/plants/6"><g id="pant_2-copy--globalStyle1/plants/6" transform="translate(225 114.714)"><g id="plant+shadow--globalStyle1/plants/6" transform="translate(48.907)"><mask id="mask-2--globalStyle1/plants/6" fill="#fff"><use xlink:href="#path-1--globalStyle1/plants/6"></use></mask><use id="[color:plant]plant--globalStyle1/plants/6" fill="#587267" fill-rule="nonzero" xlink:href="#path-1--globalStyle1/plants/6" opacity="1.00"></use><mask id="mask-4--globalStyle1/plants/6" fill="#fff"><use xlink:href="#path-3--globalStyle1/plants/6"></use></mask><use id="shadow--globalStyle1/plants/6" fill="#000" fill-opacity=".04" xlink:href="#path-3--globalStyle1/plants/6"></use><path id="shadow--globalStyle1/plants/6" fill="#000" fill-opacity=".2" d="M-3.10427969,144.305131 L-3.1022126,144.39994 C-2.96564995,149.143612 3.9507537,142.304765 21.6050591,144.63229 C33.4934802,146.199646 39.6604066,146.85677 40.1058384,146.603661 L40.1058384,146.603661 L40.1058384,153.040113 C28.1753118,151.436141 19.2909281,150.896879 13.452687,151.422328 C7.61444604,151.947776 2.09545713,153.783359 -3.10427969,156.929075 L-3.10427969,156.929075 L-3.10427969,144.305131 Z M-3.10427969,141.302459 L-3.10427969,128.626009 C-3.10427969,133.656089 3.87064873,128.626009 21.7032804,130.977044 C33.4168718,132.521352 39.5442259,132.544062 40.0853426,131.045176 L40.1058384,130.977044 L40.1058384,137.413497 C28.1753118,135.809524 19.2909281,135.270263 13.452687,135.795711 C7.82295465,136.302394 2.49007784,138.0273 -2.5459434,140.970431 L-3.10427969,141.302459 L-3.10427969,128.626009 Z M24.8075601,111.60004 C24.8075601,115.735248 30.7930441,115.785677 42.7640121,111.751328 L43.2101181,111.60004 L43.2101181,118.036492 C31.2795915,116.43252 22.3952077,115.893258 16.5569667,116.418707 C10.9272343,116.925389 5.59435752,118.650296 0.558336287,121.593426 L-2.37587727e-13,121.925454 L0.000476814946,109.388868 C0.0234460155,112.591219 0.904417552,108.19901 8.69198312,107.823655 C12.253295,107.652002 24.8075601,109.249005 24.8075601,111.60004 Z M2.48342375,86.7466769 C2.48342375,91.7767569 6.25585113,86.6533782 24.0884828,89.0044132 C27.6807029,89.4780076 33.1483365,91.3013601 35.8847456,91.4944296 C39.9474181,91.7810747 43.13274,91.0484519 45.4407111,89.296561 L45.6935419,89.0977119 L45.6935419,95.5341641 C33.7630153,93.9301919 24.8786315,93.3909301 19.0403905,93.9163787 C13.4106581,94.4230613 8.07778127,96.1479678 3.04176004,99.0910983 L2.48342375,99.423126 L2.48342375,86.7466769 Z M30.2970422,67.3853126 C41.9873229,68.9265467 49.1457916,69.7049662 51.772448,69.7205713 L51.9021012,69.7207073 L51.9021012,76.1571595 C43.3369695,73.6279299 36.1352832,72.6260393 30.2970422,73.1514879 C24.6209745,73.6623407 17.6561565,75.8488372 9.40258797,79.7109772 L8.69198312,80.0461214 L8.69172031,67.470131 L8.69312514,67.5168782 C8.76883769,72.2534145 12.6427368,65.0577879 30.2970422,67.3853126 Z M14.2796866,53.6182497 C14.2796866,58.6483297 21.254615,53.6182497 39.0872466,55.9692847 C50.800838,57.513592 56.9281921,57.5363024 57.4693088,56.0374159 L57.4898047,55.9692847 L57.4898047,62.4057369 C45.5592781,60.8017647 36.6748943,60.2625029 30.8366533,60.7879515 C25.2069209,61.2946341 19.8740441,63.0195406 14.8380228,65.962671 L14.2796866,66.2946988 L14.2796866,53.6182497 Z M14.2787203,36.353131 L14.2796866,39.5076912 C12.2461868,38.1176824 12.2162157,37.0762158 14.1897733,36.3832916 L14.2787203,36.353131 Z M14.2796866,26.8312421 C14.2796866,31.8613221 18.0521139,30.2620227 35.8847456,32.6130577 C47.5874101,34.1559245 54.7486562,33.0718963 57.3684836,29.3609733 L57.4898047,29.1822771 L57.4898047,35.6187293 C37.3353621,35.0932807 24.3390204,35.0932807 18.5007794,35.6187293 C16.6889115,35.7817996 15.3038307,36.0191156 14.3455372,36.3306772 L14.2787203,36.353131 L14.2796866,26.8312421 Z M55.9417203,23.851131 L56.0317785,23.8819983 C57.9472903,24.5545424 57.9753949,25.5554278 56.1160923,26.8846546 L55.9418653,27.0063979 L55.9417203,23.851131 Z M55.9418653,14.3299488 L55.9417203,23.851131 L55.8760146,23.8293839 C54.9177211,23.5178223 53.5326404,23.2805063 51.7207725,23.117436 C45.8825315,22.5919874 32.8861897,22.5919874 12.7317472,23.117436 L12.7317472,16.6809838 C15.2466988,20.5355276 22.4483851,21.6791211 34.3368062,20.1117644 C52.1694379,17.7607294 55.9418653,19.3600288 55.9418653,14.3299488 Z" mask="url(#mask-4--globalStyle1/plants/6)"></path></g><g id="plant+shadow--globalStyle1/plants/6" transform="rotate(-15 306.69 37.219)"><mask id="mask-6--globalStyle1/plants/6" fill="#fff"><use xlink:href="#path-5--globalStyle1/plants/6"></use></mask><use id="[color:plant]plant--globalStyle1/plants/6" fill="#587267" fill-rule="nonzero" xlink:href="#path-5--globalStyle1/plants/6" opacity="1.00"></use><mask id="mask-8--globalStyle1/plants/6" fill="#fff"><use xlink:href="#path-7--globalStyle1/plants/6"></use></mask><use id="shadow--globalStyle1/plants/6" fill="#000" fill-opacity=".2" xlink:href="#path-7--globalStyle1/plants/6"></use><path id="shadow--globalStyle1/plants/6" fill="#000" fill-opacity=".2" d="M-1.27426846,84.7644141 L-1.27184187,84.8538989 C-1.16006159,87.5785728 2.82440919,83.5892551 12.9269792,84.9548984 C19.7596352,85.8785219 23.3039651,86.2657566 23.559969,86.1166026 L23.559969,86.1166026 L23.559969,89.9095225 C16.7031137,88.964322 11.596974,88.6465418 8.24155011,88.956182 C4.88612619,89.2658222 1.71418667,90.3475078 -1.27426846,92.2012386 L-1.27426846,92.2012386 L-1.27426846,84.7644141 Z M-1.27426846,82.8252686 L-1.27426846,75.3551974 C-1.27426846,78.31936 2.73444609,75.3551974 12.9834301,76.7406326 C19.679433,77.6457836 23.1992557,77.6638867 23.5428983,76.7949417 L23.559969,76.7406326 L23.559969,80.5335525 C16.7031137,79.588352 11.596974,79.2705718 8.24155011,79.5802121 C5.06272745,79.8735554 2.04858331,80.8598148 -0.800882319,82.5389901 L-1.27426846,82.8252686 L-1.27426846,75.3551974 Z M14.8459979,65.6296368 C14.8459979,67.9966811 18.2467239,68.0389497 25.0481759,65.7564427 L25.4225368,65.6296368 L25.4225368,69.3351815 C18.5656815,68.4117549 13.4595418,68.1012953 10.1041179,68.4038025 C6.92529526,68.6903883 3.91115112,69.6539278 1.06168549,71.294421 L0.588299356,71.5741046 L0.587731544,64.3294141 L0.588831898,64.3862154 C0.607013011,66.1379088 1.11195059,63.7669392 5.32650933,63.470757 L5.58386018,63.4555254 C7.63066009,63.3567029 14.8459979,64.276117 14.8459979,65.6296368 Z M2.45086717,50.9776755 C2.45086717,53.9418381 4.61900189,50.9226957 14.8679859,52.3081309 C16.9325498,52.5872142 20.0749737,53.6616927 21.6476756,53.7754661 C23.9480317,53.94188 25.758976,53.5253171 27.0805087,52.5257775 L27.2851047,52.3631107 L27.2851047,56.1560306 C20.4282493,55.2108301 15.3221096,54.8930499 11.9666857,55.2026901 C8.78786308,55.4960335 5.77371893,56.4822929 2.9242533,58.1614682 L2.45086717,58.4477467 L2.45086717,50.9776755 Z M17.9722656,39.7357282 C24.6460226,40.637872 28.7499909,41.096503 30.2841705,41.1116212 L30.3893843,41.1119468 L30.3893843,44.9048667 C25.4667291,43.4144236 21.3276895,42.8240222 17.9722656,43.1336624 C14.7411166,43.4318344 10.7833227,44.6987234 6.09888379,46.9343292 L5.55514685,47.1965827 L5.55473154,39.8164141 L5.55628643,39.8397537 C5.61360207,42.5774448 7.85813663,38.3685224 17.9722656,39.7357282 Z M9.28028248,32.2257356 C9.28028248,35.1898981 13.288997,32.2257356 23.537981,33.6111708 C30.2339839,34.5163218 33.7538067,34.5344248 34.0974492,33.6654798 L34.11452,33.6111708 L34.11452,37.4040907 C27.2576646,36.4588901 22.151525,36.14111 18.796101,36.4507502 C15.6172784,36.7440936 12.6031342,37.7303529 9.75366862,39.4095283 L9.28028248,39.6958067 L9.28028248,32.2257356 Z M8.93973154,30.3354141 L8.9403968,32.1950308 C7.7658099,31.3829171 7.73860682,30.7726991 8.85878756,30.3643766 L8.93973154,30.3354141 Z M8.9403968,24.7249596 C8.9403968,27.6891221 11.138205,26.7466752 21.5274584,28.1321104 C28.306262,29.0360823 32.4695386,28.4097823 34.017288,26.2532104 L34.11452,26.1103948 L34.11452,29.9033147 C22.3725845,29.5936745 14.8009433,29.5936745 11.3995965,29.9033147 C10.3467987,29.9991557 9.54133233,30.1385176 8.98319742,30.3214004 L8.93973154,30.3354141 L8.9403968,24.7249596 Z M33.2117315,22.8354141 L33.294303,22.8636007 C34.3696765,23.2555902 34.3876211,23.8336467 33.3481368,24.5977702 L33.2126938,24.6942548 L33.2117315,22.8354141 Z M33.2126938,17.2241836 L33.2117315,22.8354141 L33.1698932,22.8206244 C32.6117582,22.6377416 31.8062919,22.4983797 30.7534941,22.4025387 C27.3521472,22.0928985 19.7805061,22.0928985 8.0385706,22.4025387 L8.0385706,18.6096188 C9.50377607,20.8810527 13.6994633,21.5549579 20.6256322,20.6313345 C31.0148856,19.2458993 33.2126938,20.1883462 33.2126938,17.2241836 Z" mask="url(#mask-8--globalStyle1/plants/6)"></path></g><g id="plant+shadow--globalStyle1/plants/6" transform="scale(-1 1) rotate(-30 122.738 330.978)"><mask id="mask-10--globalStyle1/plants/6" fill="#fff"><use xlink:href="#path-9--globalStyle1/plants/6"></use></mask><use id="[color:plant]plant--globalStyle1/plants/6" fill="#587267" fill-rule="nonzero" xlink:href="#path-9--globalStyle1/plants/6" opacity="1.00"></use><mask id="mask-12--globalStyle1/plants/6" fill="#fff"><use xlink:href="#path-11--globalStyle1/plants/6"></use></mask><use id="Mask-Copy-3--globalStyle1/plants/6" fill="#000" fill-opacity=".04" xlink:href="#path-11--globalStyle1/plants/6"></use><path id="shadow--globalStyle1/plants/6" fill="#000" fill-opacity=".2" d="M-1.86256781,84.7658367 L-1.86014122,84.8553214 C-1.74836095,87.5799953 2.23610984,83.5906777 12.3386798,84.9563209 C19.1713358,85.8799444 22.7156658,86.2671791 22.9716697,86.1180252 L22.9716697,86.1180252 L22.9716697,89.910945 C16.1148143,88.9657445 11.0086747,88.6479643 7.65325075,88.9576046 C4.29782684,89.2672448 1.12588732,90.3489303 -1.86256781,92.2026611 L-1.86256781,92.2026611 L-1.86256781,84.7658367 Z M-1.86256781,82.8266911 L-1.86256781,75.35662 C-1.86256781,78.3207825 2.14614673,75.35662 12.3951308,76.7420552 C19.0911336,77.6472062 22.6109564,77.6653092 22.9545989,76.7963642 L22.9716697,76.7420552 L22.9716697,80.5349751 C16.1148143,79.5897745 11.0086747,79.2719944 7.65325075,79.5816346 C4.4744281,79.874978 1.46028395,80.8612373 -1.38918167,82.5404127 L-1.86256781,82.8266911 L-1.86256781,75.35662 Z M14.2576986,65.6310593 C14.2576986,67.9981036 17.6584246,68.0403722 24.4598766,65.7578653 L24.8342375,65.6310593 L24.8342375,69.336604 C17.9773821,68.4131775 12.8712425,68.1027178 9.51581856,68.4052251 C6.33699591,68.6918108 3.32285177,69.6553503 0.473386137,71.2958435 L-1.86695104e-12,71.5755272 L-0.000567811935,64.3308367 L0.000532541927,64.387638 C0.0187136549,66.1393313 0.523651238,63.7683617 4.73820997,63.4721795 L4.99556082,63.4569479 C7.04236073,63.3581254 14.2576986,64.2775396 14.2576986,65.6310593 Z M1.86256781,50.9790981 C1.86256781,53.9432606 4.03070254,50.9241183 14.2796866,52.3095535 C16.3442504,52.5886367 19.4866744,53.6631152 21.0593762,53.7768887 C23.3597323,53.9433026 25.1706767,53.5267397 26.4922094,52.5272 L26.6968053,52.3645333 L26.6968053,56.1574532 C19.8399499,55.2122526 14.7338103,54.8944724 11.3783864,55.2041127 C8.19956372,55.497456 5.18541958,56.4837154 2.33595395,58.1628908 L1.86256781,58.4491692 L1.86256781,50.9790981 Z M17.3839662,39.7371507 C24.0577233,40.6392946 28.1616916,41.0979256 29.6958711,41.1130437 L29.801085,41.1133693 L29.801085,44.9062892 C24.8784297,43.4158461 20.7393902,42.8254447 17.3839662,43.1350849 C14.1528173,43.433257 10.1950234,44.7001459 5.51058444,46.9357517 L4.9668475,47.1980052 L4.96643219,39.8178367 L4.96798708,39.8411763 C5.02530271,42.5788674 7.26983728,38.3699449 17.3839662,39.7371507 Z M8.69198312,32.2271581 C8.69198312,35.1913207 12.7006977,32.2271581 22.9496817,33.6125933 C29.6456846,34.5177443 33.1655073,34.5358473 33.5091498,33.6669024 L33.5262206,33.6125933 L33.5262206,37.4055132 C26.6693652,36.4603127 21.5632256,36.1425325 18.2078017,36.4521727 C15.028979,36.7455161 12.0148349,37.7317755 9.16536926,39.4109508 L8.69198312,39.6972293 L8.69198312,32.2271581 Z M8.35143219,30.3368367 L8.35209745,32.1964533 C7.17751055,31.3843396 7.15030747,30.7741216 8.2704882,30.3657992 L8.35143219,30.3368367 Z M8.35209745,24.7263821 C8.35209745,27.6905447 10.5499056,26.7480978 20.939159,28.133533 C27.7179627,29.0375049 31.8812392,28.4112049 33.4289886,26.2546329 L33.5262206,26.1118173 L33.5262206,29.9047372 C21.7842851,29.595097 14.212644,29.595097 10.8112972,29.9047372 C9.75849934,30.0005783 8.95303297,30.1399401 8.39489806,30.3228229 L8.35143219,30.3368367 L8.35209745,24.7263821 Z M32.6234322,22.8368367 L32.7060037,22.8650232 C33.7813772,23.2570127 33.7993217,23.8350693 32.7598374,24.5991928 L32.6243944,24.6956773 L32.6234322,22.8368367 Z M32.6243944,17.2256062 L32.6234322,22.8368367 L32.5815938,22.8220469 C32.0234589,22.6391642 31.2179925,22.4998023 30.1651947,22.4039613 C26.7638479,22.094321 19.1922067,22.094321 7.45027125,22.4039613 L7.45027125,18.6110414 C8.91547671,20.8824753 13.1111639,21.5563805 20.0373328,20.632757 C30.4265862,19.2473218 32.6243944,20.1897687 32.6243944,17.2256062 Z" mask="url(#mask-12--globalStyle1/plants/6)"></path></g><g id="plant+shadow--globalStyle1/plants/6" transform="scale(-1 1) rotate(-15 49.84 506.89)"><mask id="mask-14--globalStyle1/plants/6" fill="#fff"><use xlink:href="#path-13--globalStyle1/plants/6"></use></mask><use id="[color:plant]plant--globalStyle1/plants/6" fill="#587267" fill-rule="nonzero" xlink:href="#path-13--globalStyle1/plants/6" opacity="1.00"></use><path id="shadow--globalStyle1/plants/6" fill="#000" fill-opacity=".2" d="M-2.51598033,144.621578 L-2.51391324,144.716673 C-2.3773506,149.460345 4.53905306,142.621498 22.1933584,144.949023 C34.0817795,146.516379 40.248706,147.173503 40.6941378,146.920394 L40.6941378,146.920394 L40.6941378,153.356846 C28.7636112,151.752874 19.8792274,151.213612 14.0409864,151.739061 C8.2027454,152.264509 2.68375649,154.100092 -2.51598033,157.245808 L-2.51598033,157.245808 L-2.51598033,144.621578 Z M-2.51598033,141.619191 L-2.51598033,128.942742 C-2.51598033,133.972822 4.45894809,128.942742 22.2915798,131.293777 C34.0051711,132.838085 40.1325252,132.860795 40.673642,131.361909 L40.6941378,131.293777 L40.6941378,137.73023 C28.7636112,136.126257 19.8792274,135.586996 14.0409864,136.112444 C8.41125401,136.619127 3.07837719,138.344033 -1.95764404,141.287164 L-2.51598033,141.619191 L-2.51598033,128.942742 Z M25.3958594,111.916773 C25.3958594,116.051981 31.3813434,116.10241 43.3523114,112.068061 L43.7984175,111.916773 L43.7984175,118.353225 C31.8678909,116.749253 22.9835071,116.209991 17.1452661,116.73544 C11.5155337,117.242122 6.18265688,118.967029 1.14663564,121.910159 L0.588299356,122.242187 L0.588776171,109.7056 C0.611745371,112.907952 1.49271691,108.515743 9.28028248,108.140388 C12.8415944,107.968735 25.3958594,109.565738 25.3958594,111.916773 Z M3.0717231,87.0634098 C3.0717231,92.0934898 6.84415049,86.970111 24.6767822,89.321146 C28.2690023,89.7947405 33.7366359,91.6180929 36.473045,91.8111625 C40.5357175,92.0978076 43.7210393,91.3651847 46.0290105,89.6132939 L46.2818412,89.4144448 L46.2818412,95.850897 C34.3513146,94.2469248 25.4669308,93.707663 19.6286898,94.2331116 C13.9989574,94.7397942 8.66608063,96.4647007 3.63005939,99.4078311 L3.0717231,99.7398589 L3.0717231,87.0634098 Z M30.8853415,67.7020455 C42.5756223,69.2432795 49.7340909,70.0216991 52.3607474,70.0373041 L52.4904006,70.0374402 L52.4904006,76.4738924 C43.9252689,73.9446627 36.7235825,72.9427722 30.8853415,73.4682208 C25.2092739,73.9790736 18.2444558,76.16557 9.99088733,80.0277101 L9.28028248,80.3628543 L9.28001967,67.7865781 L9.28142449,67.833611 C9.35713705,72.5701473 13.2310362,65.3745208 30.8853415,67.7020455 Z M14.8670197,50.9555781 L14.8679859,53.9349825 C14.8679859,58.9147617 21.7041133,54.0345781 39.1438205,56.2176834 L39.675546,56.2860176 C51.3891374,57.8303249 57.5164915,57.8530353 58.0576082,56.3541488 L58.078104,56.2860176 L58.078104,62.7224698 C46.1475774,61.1184976 37.2631937,60.5792357 31.4249526,61.1046844 C25.7952203,61.611367 20.4623434,63.3362735 15.4263222,66.2794039 L14.8679859,66.6114316 L14.8679859,54.1101383 C12.8344862,52.7201295 12.8045151,51.678663 14.7780727,50.9857388 L14.8670197,50.9555781 Z M14.8679859,41.4336893 C14.8679859,46.4637693 18.6404133,44.8644699 36.473045,47.2155049 C48.1757095,48.7583716 55.3369555,47.6743435 57.956783,43.9634205 L58.078104,43.7847243 L58.078104,50.2211765 C37.9236615,49.6957279 24.9273197,49.6957279 19.0890787,50.2211765 C17.2772108,50.3842467 15.8921301,50.6215627 14.9338366,50.9331244 L14.8670197,50.9555781 L14.8679859,41.4336893 Z M56.5300197,38.4535781 L56.6200779,38.4844455 C58.5355897,39.1569896 58.5636942,40.157875 56.7043916,41.4871017 L56.5301646,41.6088451 L56.5300197,38.4535781 Z M56.5301646,28.932396 L56.5300197,38.4535781 L56.464314,38.4318311 C55.5060205,38.1202694 54.1209397,37.8829534 52.3090718,37.7198832 C46.4708308,37.1944346 33.4744891,37.1944346 13.3200465,37.7198832 L13.3200465,31.283431 C15.8349981,35.1379747 23.0366845,36.2815683 34.9251056,34.7142116 C52.7577373,32.3631766 56.5301646,33.962476 56.5301646,28.932396 Z" mask="url(#mask-14--globalStyle1/plants/6)"></path></g><g id="plant+shadow--globalStyle1/plants/6" transform="translate(32.144 43.13)"><mask id="mask-16--globalStyle1/plants/6" fill="#fff"><use xlink:href="#path-15--globalStyle1/plants/6"></use></mask><use id="[color:plant]plant--globalStyle1/plants/6" fill="#587267" fill-rule="nonzero" xlink:href="#path-15--globalStyle1/plants/6" opacity="1.00"></use><mask id="mask-18--globalStyle1/plants/6" fill="#fff"><use xlink:href="#path-17--globalStyle1/plants/6"></use></mask><use id="shadow--globalStyle1/plants/6" fill="#000" fill-opacity=".2" xlink:href="#path-17--globalStyle1/plants/6"></use><path id="shadow--globalStyle1/plants/6" fill="#000" fill-opacity=".2" d="M-3.10427969,125.552905 L-3.1022126,125.648 C-2.96564995,130.391672 3.9507537,123.552825 21.6050591,125.88035 C33.4934802,127.447706 39.6604066,128.10483 40.1058384,127.851721 L40.1058384,127.851721 L40.1058384,134.288173 C28.1753118,132.684201 19.2909281,132.144939 13.452687,132.670388 C7.61444604,133.195837 2.09545713,135.031419 -3.10427969,138.177135 L-3.10427969,138.177135 L-3.10427969,125.552905 Z M-3.10427969,122.550519 L-3.10427969,109.87407 C-3.10427969,114.90415 3.87064873,109.87407 21.7032804,112.225105 C33.4168718,113.769412 39.5442259,113.792122 40.0853426,112.293236 L40.1058384,112.225105 L40.1058384,118.661557 C28.1753118,117.057585 19.2909281,116.518323 13.452687,117.043771 C7.82295465,117.550454 2.49007784,119.27536 -2.5459434,122.218491 L-3.10427969,122.550519 L-3.10427969,109.87407 Z M24.8075601,92.8480999 C24.8075601,96.9833081 30.7930441,97.0337375 42.7640121,92.999388 L43.2101181,92.8480999 L43.2101181,99.2845521 C31.2795915,97.6805799 22.3952077,97.1413181 16.5569667,97.6667667 C10.9272343,98.1734493 5.59435752,99.8983558 0.558336287,102.841486 L1.04094511e-12,103.173514 L0.000476814947,90.6369276 C0.0234460155,93.839279 0.904417552,89.4470698 8.69198312,89.0717147 C12.253295,88.900062 24.8075601,90.4970649 24.8075601,92.8480999 Z M2.48342375,67.994737 C2.48342375,73.024817 6.25585113,67.9014382 24.0884828,70.2524732 C27.6807029,70.7260677 33.1483365,72.5494201 35.8847456,72.7424897 C39.9474181,73.0291348 43.13274,72.2965119 45.4407111,70.5446211 L45.6935419,70.345772 L45.6935419,76.7822242 C33.7630153,75.178252 24.8786315,74.6389902 19.0403905,75.1644388 C13.4106581,75.6711214 8.07778127,77.3960279 3.04176004,80.3391583 L2.48342375,80.6711861 L2.48342375,67.994737 Z M30.2970422,48.6333727 C41.9873229,50.1746067 49.1457916,50.9530263 51.772448,50.9686313 L51.9021012,50.9687674 L51.9021012,57.4052196 C43.3369695,54.8759899 36.1352832,53.8740994 30.2970422,54.399548 C24.6209745,54.9104008 17.6561565,57.0968972 9.40258797,60.9590373 L8.69198312,61.2941815 L8.69172031,48.7179053 L8.69312514,48.7649382 C8.76883769,53.5014745 12.6427368,46.305848 30.2970422,48.6333727 Z M14.2787203,31.8869053 L14.2796866,34.8663098 C14.2796866,39.846089 21.1158139,34.9659053 38.5555211,37.1490106 L39.0872466,37.2173448 C50.800838,38.7616521 56.9281921,38.7843625 57.4693088,37.285476 L57.4898047,37.2173448 L57.4898047,43.653797 C45.5592781,42.0498248 36.6748943,41.510563 30.8366533,42.0360116 C25.2069209,42.5426942 19.8740441,44.2676007 14.8380228,47.2107311 L14.2796866,47.5427588 L14.2796866,35.0414655 C12.2461868,33.6514567 12.2162157,32.6099902 14.1897733,31.917066 L14.2787203,31.8869053 Z M14.2796866,22.3650165 C14.2796866,27.3950965 18.0521139,25.7957971 35.8847456,28.1468321 C47.5874101,29.6896988 54.7486562,28.6056707 57.3684836,24.8947477 L57.4898047,24.7160515 L57.4898047,31.1525037 C37.3353621,30.6270551 24.3390204,30.6270551 18.5007794,31.1525037 C16.6889115,31.3155739 15.3038307,31.5528899 14.3455372,31.8644516 L14.2787203,31.8869053 L14.2796866,22.3650165 Z M55.9417203,19.3849053 L56.0317785,19.4157727 C57.9472903,20.0883168 57.9753949,21.0892022 56.1160923,22.4184289 L55.9418653,22.5401723 L55.9417203,19.3849053 Z M55.9418653,9.86372317 L55.9417203,19.3849053 L55.8760146,19.3631583 C54.9177211,19.0515966 53.5326404,18.8142807 51.7207725,18.6512104 C45.8825315,18.1257618 32.8861897,18.1257618 12.7317472,18.6512104 L12.7317472,12.2147582 C15.2466988,16.0693019 22.4483851,17.2128955 34.3368062,15.6455388 C52.1694379,13.2945038 55.9418653,14.8938032 55.9418653,9.86372317 Z" mask="url(#mask-18--globalStyle1/plants/6)"></path></g><g id="plant+shadow--globalStyle1/plants/6" transform="scale(-1 1) rotate(-20 54.671 432.51)"><mask id="mask-20--globalStyle1/plants/6" fill="#fff"><use xlink:href="#path-19--globalStyle1/plants/6"></use></mask><use id="[color:plant]plant--globalStyle1/plants/6" fill="#587267" fill-rule="nonzero" xlink:href="#path-19--globalStyle1/plants/6" opacity="1.00"></use><mask id="mask-22--globalStyle1/plants/6" fill="#fff"><use xlink:href="#path-21--globalStyle1/plants/6"></use></mask><use id="shadow--globalStyle1/plants/6" fill="#000" fill-opacity=".2" xlink:href="#path-21--globalStyle1/plants/6"></use><path id="shadow--globalStyle1/plants/6" fill="#000" fill-opacity=".2" d="M-1.03428415,129.245266 L-1.03221705,129.340361 C-0.895654411,134.084033 6.02074924,127.245186 23.6750546,129.572711 C35.5634757,131.140067 41.7304022,131.797191 42.175834,131.544082 L42.175834,131.544082 L42.175834,137.980534 C30.2453074,136.376562 21.3609236,135.8373 15.5226826,136.362749 C9.68444159,136.888197 4.16545267,138.72378 -1.03428415,141.869496 L-1.03428415,141.869496 L-1.03428415,129.245266 Z M-1.03428415,126.242879 L-1.03428415,113.56643 C-1.03428415,118.59651 5.94064428,113.56643 23.7732759,115.917465 C35.4868673,117.461773 41.6142214,117.484483 42.1553381,115.985596 L42.175834,115.917465 L42.175834,122.353918 C30.2453074,120.749945 21.3609236,120.210683 15.5226826,120.736132 C9.89295019,121.242815 4.56007338,122.967721 -0.475947858,125.910852 L-1.03428415,126.242879 L-1.03428415,113.56643 Z M26.8775556,96.5404607 C26.8775556,100.675669 32.8630396,100.726098 44.8340076,96.6917488 L45.2801136,96.5404607 L45.2801136,102.976913 C33.3495871,101.372941 24.4652033,100.833679 18.6269623,101.359127 C12.9972299,101.86581 7.66435306,103.590717 2.62833183,106.533847 L2.06999554,106.865875 L2.07047236,94.3292884 C2.09344156,97.5316397 2.97441309,93.1394305 10.7619787,92.7640755 C14.3232906,92.5924228 26.8775556,94.1894257 26.8775556,96.5404607 Z M4.55341929,71.6870977 C4.55341929,76.7171777 8.32584668,71.593799 26.1584783,73.944834 C29.7506985,74.4184285 35.2183321,76.2417809 37.9547412,76.4348504 C42.0174137,76.7214956 45.2027355,75.9888727 47.5107067,74.2369818 L47.7635374,74.0381328 L47.7635374,80.474585 C35.8330108,78.8706127 26.948627,78.3313509 21.110386,78.8567996 C15.4806536,79.3634821 10.1477768,81.0883887 5.11175558,84.0315191 L4.55341929,84.3635468 L4.55341929,71.6870977 Z M32.3670377,52.3257334 C44.0573185,53.8669675 51.2157871,54.6453871 53.8424436,54.6609921 L53.9720968,54.6611282 L53.9720968,61.0975804 C45.4069651,58.5683507 38.2052787,57.5664601 32.3670377,58.0919088 C26.6909701,58.6027616 19.726152,60.789258 11.4725835,64.651398 L10.7619787,64.9865422 L10.7617159,52.4102661 L10.7631207,52.457299 C10.8388332,57.1938353 14.7127324,49.9982088 32.3670377,52.3257334 Z M16.3487159,35.5792661 L16.3496821,38.5586705 C16.3496821,43.5384497 23.1858094,38.6582661 40.6255167,40.8413714 L41.1572422,40.9097055 C52.8708336,42.4540129 58.9981876,42.4767233 59.5393044,40.9778367 L59.5598002,40.9097055 L59.5598002,47.3461577 C47.6292736,45.7421855 38.7448898,45.2029237 32.9066488,45.7283723 C27.2769164,46.2350549 21.9440396,47.9599614 16.9080184,50.9030918 L16.3496821,51.2351196 L16.3496821,38.7338263 C14.3161823,37.3438175 14.2862113,36.3023509 16.2597689,35.6094267 L16.3487159,35.5792661 Z M16.3496821,26.0573772 C16.3496821,31.0874572 20.1221095,29.4881578 37.9547412,31.8391928 C49.6574057,33.3820596 56.8186517,32.2980314 59.4384792,28.5871084 L59.5598002,28.4084122 L59.5598002,34.8448645 C39.4053577,34.3194158 26.4090159,34.3194158 20.5707749,34.8448645 C18.758907,35.0079347 17.3738263,35.2452507 16.4155327,35.5568123 L16.3487159,35.5792661 L16.3496821,26.0573772 Z M58.0117159,23.0772661 L58.101774,23.1081334 C60.0172858,23.7806775 60.0453904,24.781563 58.1860878,26.1107897 L58.0118608,26.232533 L58.0117159,23.0772661 Z M58.0118608,13.5560839 L58.0117159,23.0772661 L57.9460102,23.055519 C56.9877166,22.7439574 55.6026359,22.5066414 53.790768,22.3435712 C47.952527,21.8181225 34.9561852,21.8181225 14.8017427,22.3435712 L14.8017427,15.907119 C17.3166943,19.7616627 24.5183807,20.9052562 36.4068018,19.3378995 C54.2394334,16.9868645 58.0118608,18.5861639 58.0118608,13.5560839 Z" mask="url(#mask-22--globalStyle1/plants/6)"></path></g><polygon id="Rectangle-Copy-45--globalStyle1/plants/6" fill="#D1D4DD" fill-rule="nonzero" points="29.0522465 184.478544 106.431704 184.478544 106.431704 205.640975 29.0522465 205.640975"></polygon><polygon id="Rectangle-Copy-46--globalStyle1/plants/6" fill="#E5E7ED" fill-rule="nonzero" points="37.8817304 205.640975 96.4746885 205.640975 102.695451 298.16406 32.7884995 298.16406" transform="matrix(1 0 0 -1 0 503.805)"></polygon></g></g></g></svg></g></g></svg>