<?xml version="1.0" encoding="utf-8"?>
<!-- Generator: Adobe Illustrator 26.0.1, SVG Export Plug-In . SVG Version: 6.00 Build 0)  -->
<svg version="1.1" id="illustration-builder" xmlns="http://www.w3.org/2000/svg" xmlns:xlink="http://www.w3.org/1999/xlink"
	 x="0px" y="0px" viewBox="0 0 1000 880" style="enable-background:new 0 0 1000 880;" xml:space="preserve">
<style type="text/css">
	.st0{fill-rule:evenodd;clip-rule:evenodd;fill:#FFF4BD;}
	.st1{fill:#FFE978;}
	.st2{fill-rule:evenodd;clip-rule:evenodd;fill:#EDF3F7;}
	.st3{fill:#BEDEF4;}
	.st4{fill-rule:evenodd;clip-rule:evenodd;fill:#6161AE;}
	.st5{fill-rule:evenodd;clip-rule:evenodd;fill-opacity:0.3;}
	.st6{opacity:0.933;fill-rule:evenodd;clip-rule:evenodd;fill:#FFFFFF;enable-background:new    ;}
	.st7{fill:#CAC8C8;}
	.st8{fill-rule:evenodd;clip-rule:evenodd;fill:#CAC8C8;}
	.st9{fill-rule:evenodd;clip-rule:evenodd;fill:#FFE978;}
	.st10{fill:#545454;}
	.st11{fill-rule:evenodd;clip-rule:evenodd;fill-opacity:0.15;}
	.st12{fill-rule:evenodd;clip-rule:evenodd;fill:#E7E7E7;}
	.st13{fill-rule:evenodd;clip-rule:evenodd;fill-opacity:8.000000e-02;}
	.st14{fill-rule:evenodd;clip-rule:evenodd;fill:#D8D5D5;}
	.st15{fill:#B9B6B4;}
	.st16{fill-rule:evenodd;clip-rule:evenodd;}
</style>
<g transform="translate(74.5,223)">
	<g>
		<g id="Symbols--globalStyle1_x2F_bgelements_x2F_notfound2_x2F_1">
			<g id="globalStyle1_x2F_bgelements_x2F_notfound2_x2F_1--globalStyle1_x2F_bgelements_x2F_notfound2_x2F_1">
				<g id="Group-13--globalStyle1_x2F_bgelements_x2F_notfound2_x2F_1" transform="translate(-5.5)">
					<g id="Group-4--globalStyle1_x2F_bgelements_x2F_notfound2_x2F_1" transform="translate(369.081 174.577)">
						<path id="Path-68-Copy-3--globalStyle1_x2F_bgelements_x2F_notfound2_x2F_1" class="st0" d="M-18.7,247.5
							c25.2-39.7,46.1-63,62.8-69.7c25-10.1,38-50,34.2-82.5s52.3-32.5,74.7-58.3s13.4,46.6-11.5,65.2s-28.7,25.7-13.4,63.4
							C138.2,190.8,89.3,218.1-18.7,247.5z"/>
						<path id="Path-79-Copy-3--globalStyle1_x2F_bgelements_x2F_notfound2_x2F_1" class="st1" d="M151.5,56.9
							c0.5-0.5,0.5-1.2,0-1.7c-0.5-0.5-1.2-0.5-1.7,0c-34.2,35-49.8,61.2-46.5,78.8c5.7,30.9-5.1,66.3-32.1,88.2
							c-0.5,0.4-0.6,1.2-0.2,1.7c0.4,0.5,1.2,0.6,1.7,0.2c27.4-22.2,38.5-58.1,33.1-89.5l-0.2-1C102.6,117,117.8,91.4,151.5,56.9z"
							/>
					</g>
					<g id="Group-3--globalStyle1_x2F_bgelements_x2F_notfound2_x2F_1" transform="translate(394.144 284.055)">
						<path id="Path-67-Copy-3--globalStyle1_x2F_bgelements_x2F_notfound2_x2F_1" class="st2" d="M28.3,216.4
							c16.9-6.4,26.1-15.3,27.5-26.6c2.1-17-3-25.8,9.8-35.4s27.4,15.3,42.9,0.1s0-46.8,17.2-54.3c17.2-7.5,57.1-14.5,44.5-53.1
							s-53.9,20.3-67.1,18.7C89.9,64.1,70,41.3,47.7,58.9s-10.2,86.8-27.3,84.7C3.2,141.5-7.3,154.2-10,175.8
							C-11.8,190.2,1,203.8,28.3,216.4z"/>
						<path id="Combined-Shape-Copy-3--globalStyle1_x2F_bgelements_x2F_notfound2_x2F_1" class="st3" d="M49,166.1l-0.1,0
							l-39.8-9.2c-0.5-0.1-1,0.2-1.1,0.7c-0.1,0.5,0.2,0.9,0.6,1.1l0.1,0l39.8,9.2c0.5,0.1,1-0.2,1.1-0.7
							C49.7,166.7,49.4,166.2,49,166.1z M162.8,58.6l-3.6,1.7c-37.8,17.8-59.8,29.8-66.4,36.1l-0.4,0.4c-2.4,2.3-6.6,5.9-12.7,10.7
							l2-39.1c0-0.5-0.4-0.9-0.9-1c-0.5,0-0.9,0.3-0.9,0.8l0,0.1L77.8,109c-9.8,7.8-23.9,18.5-42.3,32.2l-6.3,4.7
							c-0.4,0.3-0.5,0.9-0.2,1.3s0.9,0.5,1.3,0.2l7.2-5.3c7.9-5.9,15.1-11.3,21.4-16.1l39,10.4c0.5,0.1,1-0.2,1.1-0.6
							c0.1-0.4-0.1-0.9-0.5-1.1l-0.1,0l-37.7-10.1c17.2-13.1,28.1-21.9,32.7-26.3l0.6-0.6c4.6-4.4,17.1-11.7,37.5-22l0,0l0,0l0.1,0
							l26.5,5.9c0.3,0.1,0.7-0.3,0.8-0.7c0.1-0.4,0-0.9-0.3-1l-0.1,0l-24.6-5.4c7.6-3.8,16.3-8,26-12.6l3.5-1.7
							c0.5-0.2,0.6-0.8,0.4-1.2S163.2,58.3,162.8,58.6z"/>
					</g>
					<g id="Group-2--globalStyle1_x2F_bgelements_x2F_notfound2_x2F_1" transform="rotate(-13 931.799 -89.127)">
						<path id="Path-68-Copy-2--globalStyle1_x2F_bgelements_x2F_notfound2_x2F_1" class="st0" d="M137.3,252.1
							c-15.6-44.4-30.7-71.7-45.5-82.1C69.7,154.5,66,112.8,77,81.9S33.4,38.4,17.3,8.3s-23.5,42.4-3.4,66.1s22.2,31.5-1.2,64.8
							C-2.9,161.5,38.6,199.1,137.3,252.1z"/>
						<path id="Path-79-Copy-2--globalStyle1_x2F_bgelements_x2F_notfound2_x2F_1" class="st1" d="M14.3,28.1
							c-0.3-0.6-0.2-1.3,0.4-1.6c0.6-0.3,1.3-0.2,1.6,0.4C41.8,68.6,51,97.7,43.9,114.1c-12.5,28.8-10,65.8,11.4,93.2
							c0.4,0.5,0.3,1.3-0.2,1.7c-0.5,0.4-1.3,0.3-1.7-0.2c-21.7-27.8-24.5-65.3-12.1-94.7l0.4-0.9C48.4,97.7,39.3,69.2,14.3,28.1z"
							/>
					</g>
					<g id="Group--globalStyle1_x2F_bgelements_x2F_notfound2_x2F_1" transform="rotate(-10 1762.996 153.626)">
						<path id="Path-67-Copy-2--globalStyle1_x2F_bgelements_x2F_notfound2_x2F_1" class="st2" d="M126.4,217.2
							c-15.6-9.2-23-19.5-22.4-31c0.9-17.1,7.4-24.9-3.6-36.5s-29.6,10.3-42.3-7.4s8.2-46-7.5-56.4S-3.1,61.7,16,25.8
							s49.5,29.4,62.8,30.1c13.3,0.7,36.9-18.3,55.8,2.9s-5,87.3,12.2,88.2s25.4,15.2,24.3,37C170.4,198.4,155.5,209.5,126.4,217.2z
							"/>
						<path id="Combined-Shape-Copy-2--globalStyle1_x2F_bgelements_x2F_notfound2_x2F_1" class="st3" d="M114.8,164.1l0.1,0
							l40.8-2.1c0.5,0,0.9,0.4,1,0.9c0,0.5-0.3,0.9-0.8,0.9l-0.1,0l-40.8,2.1c-0.5,0-0.9-0.4-1-0.9
							C114,164.5,114.3,164.1,114.8,164.1z M21.4,38.4l3.2,2.3c34.1,24.1,53.7,39.8,59.1,47.1l0.3,0.4C86,91,89.5,95.2,94.7,101
							l4.8-38.9c0.1-0.5,0.5-0.9,1-0.8c0.5,0.1,0.8,0.5,0.8,0.9l0,0.1l-5,40.5c8.3,9.4,20.3,22.4,36.1,39.1l5.4,5.7
							c0.3,0.4,0.3,0.9,0,1.3c-0.4,0.3-0.9,0.3-1.3,0l-6.1-6.5c-6.8-7.2-12.9-13.7-18.3-19.5l-40.3,3.5c-0.5,0-0.9-0.3-1-0.8
							c0-0.5,0.3-0.9,0.7-1l0.1,0l38.9-3.4c-14.7-15.9-23.9-26.4-27.7-31.6l-0.5-0.7c-3.7-5.1-14.8-14.5-33.1-28.1l0,0l0,0l-0.1,0
							l-27.1,1.2c-0.3,0-0.6-0.4-0.7-0.9c-0.1-0.5,0.1-0.9,0.4-0.9l0.1,0l25.2-1.1C40,54,32.2,48.3,23.5,42.2l-3.2-2.2
							c-0.4-0.3-0.5-0.9-0.2-1.3C20.4,38.2,21,38.1,21.4,38.4z"/>
					</g>
					<path id="_x5B_color:bgelement_x5D_phone--globalStyle1_x2F_bgelements_x2F_notfound2_x2F_1" class="st4" d="M398.8,513.5h-213
						c-18.8,0-34-15.2-34-34V48.6c0-18.8,15.2-34,34-34h213c18.8,0,34,15.2,34,34v430.9C432.8,498.3,417.6,513.5,398.8,513.5"/>
					<path id="shadow--globalStyle1_x2F_bgelements_x2F_notfound2_x2F_1" class="st5" d="M396.4,501.2H188.2
						c-13.6,0-24.6-11-24.6-24.6V50c0-13.6,11-24.6,24.6-24.6h208.2c13.6,0,24.6,11,24.6,24.6v426.7
						C420.9,490.3,409.9,501.2,396.4,501.2"/>
					<path id="Fill-9--globalStyle1_x2F_bgelements_x2F_notfound2_x2F_1" class="st6" d="M192.2,498.2c-13.6,0-24.6-11-24.6-24.6V53
						c0-13.6,11-24.6,24.6-24.6h200.1c13.6,0,24.6,11,24.6,24.6v420.7c0,13.6-11,24.6-24.6,24.6H192.2z"/>
					<path id="Oval--globalStyle1_x2F_bgelements_x2F_notfound2_x2F_1" class="st7" d="M292.2,230.4c26.1,0,48.3,18.6,53,43.9
						c0.3,1.5-0.7,3-2.2,3.3c-1.5,0.3-3-0.7-3.3-2.2c-4.2-22.7-24.1-39.4-47.5-39.4c-23.4,0-43.4,16.8-47.5,39.6
						c-0.3,1.5-1.7,2.5-3.3,2.3c-1.5-0.3-2.5-1.7-2.3-3.3C243.8,249.1,266.1,230.4,292.2,230.4z"/>
					
						<path id="_x5B_color:bgelement_x5D_phone--globalStyle1_x2F_bgelements_x2F_notfound2_x2F_1_00000044877711819037017370000017316648512208083121_" class="st4" d="
						M292.2,446c8.2,0,14.9,6.7,14.9,14.9s-6.7,14.9-14.9,14.9c-8.2,0-14.9-6.7-14.9-14.9S284,446,292.2,446z M350.8,24.1
						l-12.1,20.2c-2.1,3.5-7.1,5.8-12.6,5.8h-65.2c-5.5,0-10.5-2.3-12.6-5.8l-12.1-20.2H350.8z"/>
				</g>
				
					<circle id="Oval--globalStyle1_x2F_bgelements_x2F_notfound2_x2F_1_00000017489524499258025980000012169120045375870088_" class="st8" cx="247" cy="171.2" r="11.2"/>
				<circle id="Oval-Copy--globalStyle1_x2F_bgelements_x2F_notfound2_x2F_1" class="st8" cx="326.4" cy="171.2" r="11.2"/>
				
					<path id="Combined-Shape-Copy-2--globalStyle1_x2F_bgelements_x2F_notfound2_x2F_1_00000150813298786326374460000015932869677834244493_" class="st9" d="
					M121,305.9c8.8,1.1,17.4,5.5,25.9,13.4c-15.3-2.4-25.9-3.6-31.7-3.4c-5.8,0.2-15.5-3.5-29-11.1
					C100.6,304.4,112.2,304.8,121,305.9z M143.6,164.8c-1,15.5-3.1,25.6-6.5,30.4c-3.2,4.6-7.8,13.5-13.7,26.8
					c2.6,9.4,4.6,17.6,5.8,24.6c-0.1-7.1,1.2-13.4,3.9-18.8c3.9-8,9.9-17.9,18-29.8c-1,15.5-3.1,25.6-6.5,30.4
					c-3.2,4.6-7.9,13.8-14,27.4c1.2,6.5,2.9,13.1,5,19.2c-0.5-8.2,0.8-15.4,3.8-21.6c3.9-8,9.9-17.9,18-29.8
					c-1,15.5-3.1,25.6-6.5,30.4c-3.2,4.5-7.6,13.2-13.4,26.2c2.6,6.8,5.7,12.6,8.7,16.6l0.1,4.7c-0.7-0.7-1.4-1.5-2.1-2.4
					c-12.2-7.9-20.9-12.9-26-15c-5.4-2.2-12.7-9.5-22-22c13.3,5.6,23.8,10.6,31.3,15.2c3,1.8,5.8,4.1,8.3,6.9
					c-1.5-3.6-2.9-7.5-4.2-11.6c-9.9-9.8-17.1-16.2-21.6-19.3c-4.8-3.3-10.5-11.9-16.9-26.1c11.9,8.2,21,15.3,27.5,21.4
					c2.9,2.7,5.3,5.9,7.4,9.6c-0.4-1.9-0.7-3.8-1-5.7l-0.2-1.2c-0.4-2.8-0.9-5.8-1.6-9.1c-9.9-9.8-17-16.2-21.5-19.2
					c-4.8-3.3-10.5-11.9-16.9-26.1c11.9,8.2,21,15.3,27.5,21.4c3.1,2.9,5.7,6.3,7.8,10.4c-1.9-7.4-4.4-15.7-7.4-24.7
					c-7.1-10.3-12.9-19.8-17.6-28.5c-5.4-10.3-10-21.1-13.7-32.4c16.7,13.7,26.6,26.9,29.5,39.9c1.7,7.3,3,13.3,4,18l-0.3-0.8
					c1.9,5.9,3.7,11.4,5.2,16.6c-0.6-8.4,0.7-15.8,3.7-22C129.5,186.6,135.5,176.7,143.6,164.8z"/>
				<path id="Combined-Shape-Copy-4--globalStyle1_x2F_bgelements_x2F_notfound2_x2F_1" class="st9" d="M452.8,305.9
					c-8.8,1.1-17.4,5.5-25.9,13.4c15.3-2.4,25.9-3.6,31.7-3.4c5.8,0.2,15.5-3.5,29-11.1C473.1,304.4,461.5,304.8,452.8,305.9z
					 M430.2,164.8c1,15.5,3.1,25.6,6.5,30.4c3.2,4.6,7.8,13.5,13.7,26.8c-2.6,9.4-4.6,17.6-5.8,24.6c0.1-7.1-1.2-13.4-3.9-18.8
					c-3.9-8-9.9-17.9-18-29.8c1,15.5,3.1,25.6,6.5,30.4c3.2,4.6,7.9,13.8,14,27.4c-1.2,6.5-2.9,13.1-5,19.2
					c0.5-8.2-0.8-15.4-3.8-21.6c-3.9-8-9.9-17.9-18-29.8c1,15.5,3.1,25.6,6.5,30.4c3.2,4.5,7.6,13.2,13.4,26.2
					c-2.6,6.8-5.7,12.6-8.7,16.6l-0.1,4.7c0.7-0.7,1.4-1.5,2.1-2.4c12.2-7.9,20.9-12.9,26-15c5.4-2.2,12.7-9.5,22-22
					c-13.3,5.6-23.8,10.6-31.3,15.2c-3,1.8-5.8,4.1-8.3,6.9c1.5-3.6,2.9-7.5,4.2-11.6c9.9-9.8,17.1-16.2,21.6-19.3
					c4.8-3.3,10.5-11.9,16.9-26.1c-11.9,8.2-21,15.3-27.5,21.4c-2.9,2.7-5.3,5.9-7.4,9.6c0.4-1.9,0.7-3.8,1-5.7l0.2-1.2
					c0.4-2.8,0.9-5.8,1.6-9.1c9.9-9.8,17-16.2,21.5-19.2c4.8-3.3,10.5-11.9,16.9-26.1c-11.9,8.2-21,15.3-27.5,21.4
					c-3.1,2.9-5.7,6.3-7.8,10.4c1.9-7.4,4.4-15.7,7.4-24.7c7.1-10.3,12.9-19.8,17.6-28.5c5.4-10.3,10-21.1,13.7-32.4
					c-16.7,13.7-26.6,26.9-29.5,39.9c-1.7,7.3-3,13.3-4,18l0.3-0.8c-1.9,5.9-3.7,11.4-5.2,16.6c0.6-8.4-0.7-15.8-3.7-22
					C444.3,186.6,438.3,176.7,430.2,164.8z"/>
			</g>
		</g>
	</g>
</g>
<g transform="translate(422,210)">
	<g>
		<g id="Symbols--globalStyle1_x2F_cats_x2F_notfound_x2F_2">
			<g id="globalStyle1_x2F_cats_x2F_notfound_x2F_2--globalStyle1_x2F_cats_x2F_notfound_x2F_2">
				<path id="_x5B_color_x5D_color--globalStyle1_x2F_cats_x2F_notfound_x2F_2" class="st10" d="M178.2,271c4-8.6,8.5-13.2,14-8
					c9.5,9.1-3,30,0.3,59.3c0.4,3.4,0.8,7,0.9,10.5c7.7,5.1,17.3,11.8,28.7,20.3c11.4,8.5,35.5,20.8,26.1,39.1
					c-10.8,21.1-36,6.4-49.3-2.3c-12.9-8.5-33.5-23.5-41.9-36.7c-1.2-1.9-2.1-4.2-2.6-6.6c-0.5-1.7-0.7-3.6-0.7-5.5
					c0-1.4,0.1-2.7,0.4-4c0.3-4.4,1.4-9.2,2.9-14.2C161.8,307.8,169.2,290,178.2,271z"/>
				<path id="shadow--globalStyle1_x2F_cats_x2F_notfound_x2F_2" class="st11" d="M178.2,271c4-8.6,8.5-13.2,14-8
					c9.5,9.1-3,30,0.3,59.3c0.4,3.4,0.8,7,0.9,10.5c7.7,5.1,17.3,11.8,28.7,20.3c11.4,8.5,35.5,20.8,26.1,39.1
					c-10.8,21.1-36,6.4-49.3-2.3c-12.9-8.5-33.5-23.5-41.9-36.7c-1.2-1.9-2.1-4.2-2.6-6.6c-0.5-1.7-0.7-3.6-0.7-5.5
					c0-1.4,0.1-2.7,0.4-4c0.3-4.4,1.4-9.2,2.9-14.2C161.8,307.8,169.2,290,178.2,271z"/>
				
					<path id="_x5B_color_x5D_color--globalStyle1_x2F_cats_x2F_notfound_x2F_2_00000034805977356246175900000015514243727308622503_" class="st10" d="
					M351.4,502.5c-11.2,11.3-56.3-2.2-74.9-13.1c-28.8-16.9-39.1-33.7-51.4-49c-33.8-42.4-29.9-73.6-30.9-118.8
					c-0.3-15.7,2-42,23.9-44.3c37.9-3.9,42.6,7.7,42.6,26.6c0,18.9-8.7,28.4,1.3,46c25.1,44.2,47.5,35.2,81.7,71.2
					S362.7,491.1,351.4,502.5z"/>
				<path id="Fill-29-Copy--globalStyle1_x2F_cats_x2F_notfound_x2F_2" class="st12" d="M203.1,352.5c3.4-12.1,6.3-12.8,11.8-22.4
					c10-17.1,10.7-45.6,5.2-45c-25.5,2.9-30.4,53.1-30.4,70.2c0,24.4-4.8,55.3,23.3,91.1s41.4,53.7,77.5,53.7
					c0,0,46.8-72.7,2.2-76.8C193.9,439.3,193,388,203.1,352.5z"/>
				
					<path id="_x5B_color_x5D_color--globalStyle1_x2F_cats_x2F_notfound_x2F_2_00000178169847653911263020000009774430601629481344_" class="st10" d="
					M195.4,271l14.5-27.7c0.7-1.3,2.3-1.8,3.6-1.1c0.5,0.3,0.9,0.6,1.1,1.1l18.7,35L195.4,271z"/>
				
					<path id="shadow--globalStyle1_x2F_cats_x2F_notfound_x2F_2_00000077307303268840206410000016258412359065842849_" class="st13" d="
					M195.4,271l14.5-27.7c0.7-1.3,2.3-1.8,3.6-1.1c0.5,0.3,0.9,0.6,1.1,1.1l18.7,35L195.4,271z"/>
				
					<path id="_x5B_color_x5D_color--globalStyle1_x2F_cats_x2F_notfound_x2F_2_00000001645716007147862920000012726127594494095241_" class="st10" d="
					M200.2,319.9c-10.5-1.2-20.3-9.3-24.7-21.7l-1.6-5.6c-1.2-1.8-1.6-4.1-0.6-6.1c0.9-1.7,1.6-1.7,4.2-3.2l10.9-6.4
					c-0.9-10.7,12.7-15.5,23.4-17.3c23.4-4,44.8,6,48.8,40.1c1.8,15.2-11.2,27.3-27.7,30.9c-0.1,0-0.2,0-0.2,0.1
					c-10.4,2.2-21.2-1-29.2-7.9L200.2,319.9z"/>
				<path id="Fill-11-Copy--globalStyle1_x2F_cats_x2F_notfound_x2F_2" class="st14" d="M204.3,260.5c6.6,1.6,10,6.7,9.1,13.3
					c-0.4,2.7-10.1,13.8-23.7,8.6c-6.6-2.5-10.8-6.2-10.4-12.2c0.3-5.1,2.9-12.3,11.4-11.2C195.4,259,199.9,259.5,204.3,260.5z"/>
				<path id="Combined-Shape-Copy-5--globalStyle1_x2F_cats_x2F_notfound_x2F_2" class="st15" d="M198.7,264.8
					c-0.5,0.1-1-0.2-1.1-0.7c-0.1-0.5,0.2-1,0.7-1.2c6.3-1.5,12.4,1,16.8,6.2c0.3,0.4,0.3,1-0.1,1.4c-0.4,0.3-1,0.3-1.3-0.1
					C209.6,265.7,204.2,263.4,198.7,264.8z M196,269.2c-0.5,0.1-1-0.2-1.1-0.7c-0.1-0.5,0.2-1,0.7-1.2c6.4-1.5,12.6,1.2,17,6.5
					c0.3,0.4,0.3,1-0.1,1.3c-0.4,0.3-1,0.3-1.3-0.1C207.2,270.2,201.7,267.9,196,269.2z"/>
				<path id="Fill-37-Copy--globalStyle1_x2F_cats_x2F_notfound_x2F_2" class="st12" d="M205.7,305.8c-6.7,8.6-23.5-2.2-28.3-7
					c-1.3-1.3-1.8-0.5-1.8-0.5c4.5,12.6,14.2,20.4,24.7,21.6l3.4,3c7.3,6.5,7.2,7.4,11.3,7.3c8.3-7.3,26-27.3,16.1-33.8
					C220.1,289.2,213.8,295.4,205.7,305.8z"/>
				<path id="Fill-39-Copy--globalStyle1_x2F_cats_x2F_notfound_x2F_2" class="st16" d="M179,285.9c0-1.6-2.6-0.2-4.1,0.1
					c-0.5,0.1-0.8-0.1-1.1-0.4c-0.2,0.2-0.4,0.5-0.5,0.8c-1.1,2.3-0.6,4.9,0.9,7c0,0,1.2,0,1.3-1.9C175.7,288.4,179,287.5,179,285.9
					"/>
				
					<path id="_x5B_color_x5D_color--globalStyle1_x2F_cats_x2F_notfound_x2F_2_00000085954783551326136490000009674904693522902932_" class="st10" d="
					M213.8,352.6c23.6-5.4,28.6,23.4,30.5,39.2c1.6,13.5,4.1,35.4,1.4,50.6c0.3,3.4,0.3,7.1-0.1,10.8c-1.5,15.9-1.9,35.8-6.6,56.2
					c-2.2,9.3-10.6,10.7-17,6.7c-11.2-6.9-3.6-28.7-13-56.7c-1.8-5.5-3.8-11.5-4.6-17.3l0-0.1c0-0.2-0.1-0.4-0.1-0.6
					c-1.3-10-5.8-22.5-5.8-41.4C198.6,382.7,199.2,356,213.8,352.6z M238,242c0.4,0.4,0.7,0.8,0.8,1.4l9.3,38.5l-34.9-16.5l21-23.2
					C235.2,241.1,236.9,241,238,242z"/>
				
					<polygon id="shadow--globalStyle1_x2F_cats_x2F_notfound_x2F_2_00000048482143040516273530000009368404996962366105_" class="st13" points="
					228.4,257.1 235,247.4 235.9,262.7 				"/>
				<path id="Fill-53-Copy--globalStyle1_x2F_cats_x2F_notfound_x2F_2" class="st12" d="M211.3,518.9c-6.7,0-11.4-3.3-12.1-9.9
					c-0.3-2.7,0.9-11,15.3-13.3c0,0,34.4,21.2,16.2,23.2L211.3,518.9z"/>
				<path id="Combined-Shape-Copy-2--globalStyle1_x2F_cats_x2F_notfound_x2F_2" class="st15" d="M211.9,503.7
					c0.5-0.2,1,0.1,1.2,0.6c0.2,0.5-0.1,1-0.6,1.2c-5.8,2.1-9.9,6.4-10.5,12.2c-0.1,0.5-0.5,0.9-1,0.8c-0.5-0.1-0.9-0.5-0.8-1
					C200.9,511,205.5,506,211.9,503.7z M208.2,499.9c0.5-0.2,1,0.1,1.2,0.5c0.2,0.5-0.1,1-0.5,1.2c-5.6,2.1-9.5,6.4-10.2,12.1
					c-0.1,0.5-0.5,0.9-1,0.8c-0.5-0.1-0.9-0.5-0.8-1C197.6,507.1,202,502.2,208.2,499.9z"/>
				
					<path id="_x5B_color_x5D_color--globalStyle1_x2F_cats_x2F_notfound_x2F_2_00000163765459999495578530000006584934364020107711_" class="st10" d="
					M465.5,287.3c3.5,10.5-31,14.2-36.9,61.3c-4.4,34.3,7.3,72.2-15.9,132.3c-17.6,45.5-48.1,39.1-66.3,29.8
					c-0.6,0.4-1.2,0.8-1.8,1.3c-11,7.4-24,9.4-36,6.5c-2.6,0.3-5.4,0.4-8.6,0.4c-15.7-0.3-36.1,0-36.9,0l0,0v-0.3
					c-8.5-1.5-10.1-9.2-7.3-15.9c2.2-5.4,8.8-3.9,25-3.7l-18.3-27.1c-14.1-20.8-8.5-49.4,12.3-63.4c20.8-14.1,49.4-8.5,63.4,12.3
					l18.7,27.8c10.5,15.5,10.1,35.3,0.6,50.2c9.5,4.7,22,6,33.1-8.5c13-16.9,22.9-63.6,20.8-126.3
					C409.6,313,457.7,263.9,465.5,287.3z"/>
				<path id="Combined-Shape-Copy-3--globalStyle1_x2F_cats_x2F_notfound_x2F_2" class="st12" d="M267.5,498.5
					c0,0,25.3,18.4,7.1,20.4l-19.4,0c-6.7,0-11.4-2.5-12.1-9.1C242.7,507.1,249.1,495.8,267.5,498.5z M465.5,287.2
					c1.3,3.9-2.5,6.8-8.2,11.3c-3.6-4.2-8.7-7.4-13.9-9.8C453.3,280.1,462.5,278.2,465.5,287.2z"/>
				<path id="Combined-Shape-Copy-4--globalStyle1_x2F_cats_x2F_notfound_x2F_2" class="st15" d="M254.4,503.8
					c0.5-0.2,1,0.1,1.2,0.6c0.2,0.5-0.1,1-0.6,1.2c-5.8,2.1-9.9,6.4-10.5,12.2c-0.1,0.5-0.5,0.9-1,0.8c-0.5-0.1-0.9-0.5-0.8-1
					C243.3,511,247.9,506.1,254.4,503.8z M250.6,500.3c0.5-0.2,1,0.1,1.2,0.5c0.2,0.5-0.1,1-0.5,1.2c-5.6,2.1-9.5,6.4-10.2,12.1
					c-0.1,0.5-0.5,0.9-1,0.8c-0.5-0.1-0.9-0.5-0.8-1C240,507.6,244.4,502.7,250.6,500.3z"/>
			</g>
		</g>
	</g>
</g>
</svg>
