<?xml version="1.0" encoding="UTF-8"?>
<svg id="illustration-builder" width="1172" height="1053" viewBox="-10 -30 1242 1113" version="1.1" xmlns="http://www.w3.org/2000/svg" xmlns:xlink="http://www.w3.org/1999/xlink" style="pointer-events: inherit;"><g transform="translate(-13,32)">
<g><svg xmlns="http://www.w3.org/2000/svg" width="1180" height="1000" viewBox="0 0 1180 1000"><g id="Symbols--globalStyle1/growth2/bg3" fill="none" fill-rule="evenodd" stroke="none" stroke-width="1"><g id="globalStyle1/growth2/bg3--globalStyle1/growth2/bg3" fill="#DBF2FF"><path id="[color:background]background--globalStyle1/growth2/bg3" d="M178.882092,282.752017 C288.236754,266.614525 349.812715,348.351133 469.311285,193.935739 C559.822038,76.9782411 836.297161,58.2088386 998.207257,173.456991 C1114.83805,256.47518 1170.33981,411.419473 1180.62934,507.557287 C1197.01184,660.623282 1149.51619,796.426877 1038.14238,914.96807 L153.406919,914.96807 C127.851445,917.67731 114.54323,917.67731 113.482274,914.96807 C4.67661785,637.12372 -60.0497675,318.011246 178.882092,282.752017 Z" transform="matrix(-1 0 0 1 1199.561 0)" fill="#ffe7e7" opacity="1.00"></path></g></g></svg></g></g><g transform="translate(-41,369)">
<g><svg xmlns="http://www.w3.org/2000/svg" width="1182" height="609" viewBox="0 0 1182 609"><g id="Symbols--globalStyle1/bgelements/growth2/1" fill="none" fill-rule="evenodd" stroke="none" stroke-width="1"><g id="globalStyle1/bgelements/growth2/1--globalStyle1/bgelements/growth2/1"><path id="shadow--globalStyle1/bgelements/growth2/1" fill="#000" fill-opacity=".04" d="M95.9225069,570.990717 C142.735099,586.998969 168.982909,592.335052 174.665937,586.998969 C183.190478,578.994843 138.470687,558.374807 144.707968,551.076134 C150.94525,543.777461 199.460865,577.425885 215.389448,557.678349 C231.318031,537.930812 180.990597,535.75406 190.998003,526.301765 C195.162137,522.368615 223.274804,519.825284 238.429097,509.262961 C259.694177,494.441509 268.119716,470.276394 260.178629,460.834724 C252.850988,452.122419 231.667717,451.329714 215.389448,460.834724 C201.455024,468.971145 192.150366,487.511843 186.631649,483.136796 C174.665937,473.650795 178.364102,448.018652 166.138825,460.834724 C153.913548,473.650795 142.962968,521.678415 134.083773,509.262961 C125.204577,496.847507 127.039525,478.87067 113.333954,494.066816 C104.196906,504.197579 95.130104,525.401424 86.1335472,557.678349 L95.9225069,570.990717 Z" transform="matrix(-1 0 0 1 349.254 0)"></path><path id="shadow---globalStyle1/bgelements/growth2/1" fill="#000" fill-opacity=".04" d="M953.256906,569.294634 C1000.0695,585.302885 1026.31731,590.638969 1032.00034,585.302885 C1040.52488,577.29876 995.805086,556.678723 1002.04237,549.38005 C1008.27965,542.081377 1056.79526,575.729802 1072.72385,555.982266 C1088.65243,536.234729 1038.325,534.057977 1048.3324,524.605681 C1052.49654,520.672531 1080.6092,518.129201 1095.7635,507.566878 C1117.02858,492.745426 1125.45412,468.580311 1117.51303,459.138641 C1110.18539,450.426336 1089.00212,449.633631 1072.72385,459.138641 C1058.78942,467.275061 1049.48477,485.81576 1043.96605,481.440713 C1032.00034,471.954712 1035.6985,446.322569 1023.47322,459.138641 C1011.24795,471.954712 1000.29737,519.982332 991.418172,507.566878 C982.538977,495.151424 984.373925,477.174587 970.668353,492.370732 C961.531306,502.501496 952.464503,523.70534 943.467947,555.982266 L953.256906,569.294634 Z"></path><path id="shadow--globalStyle1/bgelements/growth2/1" fill="#000" fill-opacity=".08" d="M94.7305582,537.157688 C150.905669,556.36759 182.403041,562.77089 189.222674,556.36759 C199.452124,546.762639 145.788374,522.018595 153.273112,513.260188 C160.757849,504.50178 218.976588,544.87989 238.090888,521.182846 C257.205187,497.485802 196.812266,494.8737 208.821153,483.530945 C213.818114,478.811165 247.553315,475.759168 265.738467,463.084381 C291.256562,445.298639 301.367209,416.3005 291.837905,404.970496 C283.044736,394.51573 257.62481,393.564484 238.090888,404.970496 C221.369578,414.734201 210.203989,436.983039 203.581528,431.732982 C189.222674,420.349782 193.660473,389.59121 178.99014,404.970496 C164.319807,420.349782 151.179112,477.982926 140.524077,463.084381 C129.869043,448.185836 132.070981,426.613631 115.624295,444.849006 C104.659837,457.005923 93.7796748,482.450536 82.9838066,521.182846 L94.7305582,537.157688 Z" transform="scale(-1 1) rotate(-33 0 1116.417)"></path><path id="shadow---globalStyle1/bgelements/growth2/1" fill="#000" fill-opacity=".08" d="M916.260117,529.157688 C972.435228,548.36759 1003.9326,554.77089 1010.75223,548.36759 C1020.98168,538.762639 967.317933,514.018595 974.80267,505.260188 C982.287408,496.50178 1040.50615,536.87989 1059.62045,513.182846 C1078.73475,489.485802 1018.34182,486.8737 1030.35071,475.530945 C1035.34767,470.811165 1069.08287,467.759168 1087.26803,455.084381 C1112.78612,437.298639 1122.89677,408.3005 1113.36746,396.970496 C1104.57429,386.51573 1079.15437,385.564484 1059.62045,396.970496 C1042.89914,406.734201 1031.73355,428.983039 1025.11109,423.732982 C1010.75223,412.349782 1015.19003,381.59121 1000.5197,396.970496 C985.849366,412.349782 972.708671,469.982926 962.053636,455.084381 C951.398602,440.185836 953.600539,418.613631 937.153854,436.849006 C926.189396,449.005923 915.309234,474.450536 904.513365,513.182846 L916.260117,529.157688 Z" transform="rotate(-33 1010.706 469.769)"></path><path id="[color:objects]progress--globalStyle1/bgelements/growth2/1" fill="#b5cee1" fill-rule="nonzero" d="M237.722306,580 L237.722306,387 L452.722306,387 L452.722306,308 L715.722306,308 L715.722306,57 L905.722306,57 L905.722306,56 L968.722306,56 L968.722306,580 L237.722306,580 Z" opacity="1.00"></path><path id="Combined-Shape--globalStyle1/bgelements/growth2/1" fill="#FFF" fill-rule="nonzero" d="M635.722306,308 L635.722306,580 L451.722306,580 L451.722306,308 L635.722306,308 Z M385.722306,387 L385.722306,580 L237.722306,580 L237.722306,387 L385.722306,387 Z M908.722306,57 L908.722306,580 L715.722306,580 L715.722306,57 L908.722306,57 Z" opacity=".739"></path></g></g></svg></g></g><g transform="translate(725,103)">
<g transform="translate(70,90)">

<g><svg xmlns="http://www.w3.org/2000/svg" width="120" height="150" viewBox="0 0 120 150"><g id="Symbols--globalStyle1/sittingpeople/womansitting/head/4" fill="none" fill-rule="evenodd" stroke="none" stroke-width="1"><g id="globalStyle1/sittingpeople/womansitting/head/4--globalStyle1/sittingpeople/womansitting/head/4"><g id="Group--globalStyle1/sittingpeople/womansitting/head/4" transform="translate(35.389 24.001)"><polygon id="[skin]neck--globalStyle1/sittingpeople/womansitting/head/4" fill="#ffbcba" points="5.47189499 66.9530613 40.1342975 18.8968343 48.8867657 27.7505175 31.2329389 72.4287402" transform="rotate(-12 27.18 45.663)" opacity="1.00"></polygon><polygon id="shadow--globalStyle1/sittingpeople/womansitting/head/4" fill="#000" fill-opacity=".04" points="5.47189499 66.9530613 40.1342975 18.8968343 48.8867657 27.7505175 31.2329389 72.4287402" transform="rotate(-12 27.18 45.663)"></polygon><path id="[skin]face--globalStyle1/sittingpeople/womansitting/head/4" fill="#ffbcba" d="M44.0822231,34.223105 C49.5732231,35.120105 55.2682231,28.204105 56.8022231,18.776105 C58.3362231,9.34710502 55.1282231,0.976105019 49.6382231,0.0781050191 C44.1472231,-0.817894981 38.4522231,6.09810502 36.9182231,15.527105 C35.3842231,24.955105 38.5912231,33.327105 44.0822231,34.223105" opacity="1.00"></path><path id="smile--globalStyle1/sittingpeople/womansitting/head/4" fill="#FFF" d="M51.4386231,29.503305 C52.0826231,29.679305 53.5196231,29.602305 53.9466231,28.032305 L50.0226231,26.959305 C49.6276231,28.412305 50.7946231,29.327305 51.4386231,29.503305"></path></g><path id="[hair]hair--globalStyle1/sittingpeople/womansitting/head/4" fill="#ffdd38" d="M69.6021723,60.1796335 C64.1511723,64.8706335 54.6632489,61.1286911 51.6112489,57.8356911 C43.6602489,49.2556911 35.8699231,51.0545829 43.0969231,48.0845829 C53.4679231,43.8235829 56.2669231,32.4915829 60.4149231,26.0045829 C66.9639231,15.7615829 76.1359231,9.47958287 92.7379231,23.0545829 C96.1921807,25.8795469 97.1626347,33.1004907 92.2118905,34.6636099 C90.6643716,35.1522146 86.0960876,33.0613847 83.7272746,33.4266968 C83.3282535,33.6162726 83.7429231,33.3525829 83.2439231,34.0135829 C82.3969231,35.1365829 89.1201723,43.3796335 69.6021723,60.1796335 Z" opacity="1.00"></path></g></g></svg></g>
</g>
<g transform="translate(85,247)">

<g><svg xmlns="http://www.w3.org/2000/svg" xmlns:xlink="http://www.w3.org/1999/xlink" width="251" height="180" viewBox="0 0 251 180"><defs><path id="path-1--globalStyle1/sittingpeople/womansitting/bottom/2" d="M165.992373,25.945352 C178.126919,25.9242876 187.978128,35.7597017 187.999964,47.9146047 C188.001661,48.8620258 187.943546,49.7955731 187.829188,50.7116613 L183.178733,125.994253 L134.971374,126 L141.356963,71.2192434 C95.8514268,73.3766057 55.613511,74.428915 52.1256455,74.1880452 C43.5720978,73.5984031 35.452251,67.3238295 31.6935089,56.6815367 C28.5623712,47.8173654 29.7521806,37.5026516 35.4373354,30.230399 C43.8574216,19.4588729 165.485626,25.9183906 165.992373,25.945352 Z"></path><path id="path-3--globalStyle1/sittingpeople/womansitting/bottom/2" d="M89.4703356,27.4080846 C117.821775,29.1195012 142.130691,29.6194065 154.568927,29.7646851 C155.979207,29.477597 157.440434,29.3257666 158.936819,29.3230799 C169.134351,29.3057907 177.720759,36.2171408 180.220302,45.6075809 L180.28356,45.8552523 L223,125.906088 L168.866871,126 L146.653806,74.360696 C94.8327469,76.5698782 36.4068094,76.0536418 32.6417427,75.7956807 C24.0823829,75.2070127 15.9581086,68.9549917 12.1973169,58.3509502 C9.06561978,49.5186392 10.2434501,32.3900028 15.931705,25.1438887 C24.3739705,14.389817 56.4164666,25.4107362 89.4703356,27.4080846 Z"></path></defs><g id="Symbols--globalStyle1/sittingpeople/womansitting/bottom/2" fill="none" fill-rule="evenodd" stroke="none" stroke-width="1"><g id="globalStyle1/sittingpeople/womansitting/bottom/2--globalStyle1/sittingpeople/womansitting/bottom/2"><path id="[skin]skin--globalStyle1/sittingpeople/womansitting/bottom/2" fill="#ffbcba" d="M178,50.4232907 L161.130618,171 C156.615281,170.339113 153,169.821245 153,169.821245 C153,169.821245 157.728477,68.5186781 158.062089,50 C158.062089,50 162.622602,50 178,50.4232907" opacity="1.00"></path><path id="shadow--globalStyle1/sittingpeople/womansitting/bottom/2" fill="#000" fill-opacity=".04" d="M178,50.4232907 L161.130618,171 C156.615281,170.339113 153,169.821245 153,169.821245 C153,169.821245 157.728477,68.5186781 158.062089,50 C158.062089,50 162.622602,50 178,50.4232907"></path><path id="shape--globalStyle1/sittingpeople/womansitting/bottom/2" fill="#C9C8C8" d="M152,160 L152.524999,178 L183,177.979391 C182.910033,176.102792 182.731237,175.03912 179.105213,174.968132 C173.665038,174.860505 161.185776,175.816551 161.182359,170.595509 C161.18122,169.481458 160.923846,172.156097 163.764079,160 L152,160 Z"></path><path id="shadow--globalStyle1/sittingpeople/womansitting/bottom/2" fill="#000" fill-opacity=".04" d="M152,160 L152.524999,178 L183,177.979391 C182.910033,176.102792 182.731237,175.03912 179.105213,174.968132 C173.665038,174.860505 161.185776,175.816551 161.182359,170.595509 C161.18122,169.481458 160.923846,172.156097 163.764079,160 L152,160 Z"></path><path id="[clothes]clothes--globalStyle1/sittingpeople/womansitting/bottom/2" fill="#b5c7fc" d="M152,180 L183,180 L183,178.011866 C172.297881,177.996045 172.29904,177.996045 152,178.011866 L152,180 Z" opacity="1.00"></path><path id="[skin]skin--globalStyle1/sittingpeople/womansitting/bottom/2" fill="#ffbcba" d="M217,168.158568 C213.220618,169.821817 210.593642,171 210.593642,171 C210.593642,171 154.595748,75.4511163 149,56.8829588 C149,56.8829588 153.095773,55.1277541 168.741004,46 L217,168.158568 Z" opacity="1.00"></path><path id="shape--globalStyle1/sittingpeople/womansitting/bottom/2" fill="#C9C8C8" d="M202,161 L212.901242,178 L244,177.980497 C243.90935,176.100148 243.726888,175.033203 240.025347,174.96322 C234.473616,174.855379 223.256261,174.576596 219.512881,170.870968 C217.190846,168.574167 216.94214,167.845661 214.928083,161.009178 L202,161 Z"></path><path id="[clothes]clothes--globalStyle1/sittingpeople/womansitting/bottom/2" fill="#b5c7fc" d="M213,180 L244,180 L244,178.007048 C244,178.007048 233.297881,177.991189 213,178.007048 L213,180 Z" opacity="1.00"></path><mask id="mask-2--globalStyle1/sittingpeople/womansitting/bottom/2" fill="#fff"><use xlink:href="#path-1--globalStyle1/sittingpeople/womansitting/bottom/2"></use></mask><use id="[clothes]clothes--globalStyle1/sittingpeople/womansitting/bottom/2" fill="#b5c7fc" xlink:href="#path-1--globalStyle1/sittingpeople/womansitting/bottom/2" opacity="1.00"></use><path id="Stroke-19--globalStyle1/sittingpeople/womansitting/bottom/2" fill="#5CFDD8" fill-rule="nonzero" d="M136.655845,112 L178.346448,111.947194 C178.708027,111.946736 179.000632,111.734329 179,111.472768 C178.999366,111.211208 178.705735,110.999543 178.344155,111 L136.653552,111.052806 C136.291973,111.053264 135.999368,111.265671 136,111.527232 C136.000634,111.788792 136.294265,112.000457 136.655845,112 Z" mask="url(#mask-2--globalStyle1/sittingpeople/womansitting/bottom/2)"></path><path id="shadow--globalStyle1/sittingpeople/womansitting/bottom/2" fill="#000" fill-opacity=".04" d="M165.992373,25.945352 C178.126919,25.9242876 187.978128,35.7597017 187.999964,47.9146047 C188.001661,48.8620258 187.943546,49.7955731 187.829188,50.7116613 L183.178733,125.994253 L134.971374,126 L141.356963,71.2192434 C95.8514268,73.3766057 55.613511,74.428915 52.1256455,74.1880452 C43.5720978,73.5984031 35.452251,67.3238295 31.6935089,56.6815367 C28.5623712,47.8173654 29.7521806,37.5026516 35.4373354,30.230399 C43.8574216,19.4588729 165.485626,25.9183906 165.992373,25.945352 Z"></path><mask id="mask-4--globalStyle1/sittingpeople/womansitting/bottom/2" fill="#fff"><use xlink:href="#path-3--globalStyle1/sittingpeople/womansitting/bottom/2"></use></mask><use id="[clothes]clothes--globalStyle1/sittingpeople/womansitting/bottom/2" fill="#b5c7fc" xlink:href="#path-3--globalStyle1/sittingpeople/womansitting/bottom/2" opacity="1.00"></use><polygon id="Stroke-28--globalStyle1/sittingpeople/womansitting/bottom/2" fill="#5CFDD8" fill-rule="nonzero" points="162.002285 112 216 111.933337 215.997715 111 162 111.066663" mask="url(#mask-4--globalStyle1/sittingpeople/womansitting/bottom/2)"></polygon></g></g></svg></g>
</g>
<g transform="translate(84,154)">

<g><svg xmlns="http://www.w3.org/2000/svg" xmlns:xlink="http://www.w3.org/1999/xlink" width="193" height="178" viewBox="0 0 193 178"><defs><polygon id="path-1--globalStyle1/sittingpeople/womansitting/top/1" points="0.9688 0.262043258 45.003 0.262043258 45.003 54.4044309 0.9688 54.4044309"></polygon></defs><g id="Symbols--globalStyle1/sittingpeople/womansitting/top/1" fill="none" fill-rule="evenodd" stroke="none" stroke-width="1"><g id="globalStyle1/sittingpeople/womansitting/top/1--globalStyle1/sittingpeople/womansitting/top/1"><g id="globalStyle1/people/womansitting/top/1--globalStyle1/sittingpeople/womansitting/top/1" transform="translate(12.256 5)"><g id="mac1--globalStyle1/sittingpeople/womansitting/top/1" transform="translate(68 112.04)"><polygon id="Fill-18--globalStyle1/sittingpeople/womansitting/top/1" fill="#888889" points="1.49213975e-13 16.0177882 0.003 17.8420242 47.439 20.1726534 47.439 18.4856927"></polygon><polygon id="Fill-20--globalStyle1/sittingpeople/womansitting/top/1" fill="#C7C7C9" points="47.439 18.4853876 9.9475983e-14 16.0174831 36.464 4.4408921e-14 72.501 1.88016292"></polygon><polygon id="Fill-22--globalStyle1/sittingpeople/womansitting/top/1" fill="#B4B4B5" points="48.2334 16.8876051 24.2284 15.7233073 51.0234 1.96832416 70.0344 2.95772303"></polygon><polyline id="Fill-24--globalStyle1/sittingpeople/womansitting/top/1" fill="#939396" points="47.4361 18.4853876 47.4391 20.1723483 72.5031 3.34443258 72.5011 1.88016292"></polyline><polygon id="Fill-26--globalStyle1/sittingpeople/womansitting/top/1" fill="#B4B4B5" points="29.4444 9.7001764 19.9644 9.22327191 28.5554 5.4314236 37.3794 5.87578876"></polygon></g><path id="[skin]hand--globalStyle1/sittingpeople/womansitting/top/1" fill="#ffbcba" d="M67.4777624 118.140449L76.1319946 123.274743 85.0072407 123.065116 90.8160423 125.72769C91.2729366 125.952961 91.1549964 126.227249 91.0737267 126.235592 89.3710273 126.405588 88.0191752 126.15633 86.2817875 125.354325 84.4760144 126.120871 82.9150414 125.283406 83.5384395 127.0741 83.6117805 127.284769 86.6722785 128.291187 89.8229661 128.508114 90.2709406 128.540445 92.4374719 128.852278 92.7070495 128.874179 94.2610848 128.996201 94.5068761 128.930497 95.604017 128.826205 95.940989 128.794917 96.3701326 128.91381 96.8944213 129.183926 96.9687534 129.222514 97.0331745 129.275703 97.0787648 129.33515 97.2036426 129.499931 97.1540879 129.676184 96.9697445 129.72833 96.5554672 129.84618 96.099564 129.954644 95.6010438 130.05685 94.8725897 130.204945 92.5831627 130.345739 90.6138591 130.24979 89.2788556 130.185129 87.6237287 130.120468 87.4324476 130.173657 87.1371016 130.257091 89.79026 130.604383 91.8923703 131.068482 93.9954716 131.534667 95.3413771 130.758735 97.2512151 130.509477 97.513855 130.475061 98.0014733 130.563709 98.7130787 130.773336 98.7507403 130.784808 99.0867211 130.978791 98.9786919 131.167559 98.8696715 131.356328 96.6942204 132.156247 95.4365222 132.431578 93.3403585 132.890463 92.8993217 132.792428 91.8884059 132.632862 90.6287255 132.43575 88.3799334 132.177106 87.7634729 132.134346 87.1470125 132.092629 90.5335805 133.106347 93.0687988 133.307631 93.4632541 133.338918 94.273969 133.294073 94.6476114 133.281558 95.7685386 133.240884 97.2214823 132.729853 97.7388334 133.021871 97.8131654 133.06463 97.8815509 133.114691 97.9400254 133.172051 98.2086119 133.432781 98.2056386 133.760258 97.9340789 133.900009 97.2294111 134.266074 96.1729049 134.549748 94.7645605 134.75416 94.432544 134.802135 93.1262822 134.950229 92.6475838 134.892869 90.6257522 134.647782 88.1410797 133.911481 87.9111459 133.987614 87.6802211 134.063747 89.1599243 134.334907 90.9488488 134.778147 91.3561884 134.879311 93.0301461 135.119182 93.3423407 135.189058 93.7546358 135.279792 94.0479996 135.277706 94.7625783 135.360097 96.1897535 135.523835 96.3076937 136.121428 95.5336494 136.379029 94.7586139 136.635587 88.4681407 136.088055 85.7029887 135.476904 84.1895882 135.142126 81.1548586 134.755203 77.4620426 133.353519L63 126.960421 67.4777624 118.140449zM100.148056 102.887647C100.624331 102.886781 101.082067 102.969511 101.508468 103.12257L101.511211 103.114402 108.533907 104.375746C112.994784 105.60574 115.421244 106.787662 117.028523 107.296588 119.963336 108.227705 126.23002 111.123466 126.842651 111.779741 127.455282 112.434971 127.050204 112.922998 125.609368 112.303298 124.886443 111.992926 124.608704 111.831993 124.17154 111.693004 123.839656 111.587457 122.127097 110.905056 121.687928 110.777563 119.76581 110.219521 118.222702 109.669838 118.405188 109.864212 118.587674 110.059632 121.31694 110.722177 123.364391 111.589547 123.84868 111.796462 125.021803 112.639796 125.314583 112.863431 126.557893 113.812313 127.426205 114.646242 127.919518 115.365219 128.109023 115.641105 127.952606 115.944162 127.568584 116.040304 127.486365 116.061205 127.396125 116.07061 127.303879 116.069565 126.668187 116.06016 125.533165 114.802996 124.48337 114.159261 124.133438 113.945031 123.381436 113.465365 122.991398 113.281441 120.4757 112.096384 116.749781 111.200798 117.358401 111.495495 117.968024 111.790192 120.23907 112.766244 121.536524 113.26472 122.577295 113.66601 123.045542 113.813358 124.820267 115.370444 125.885102 116.302605 127.568584 118.219179 127.579613 118.45222 127.58964 118.684215 127.175537 118.68108 127.133425 118.671675 126.352346 118.480435 125.844995 118.298601 125.61037 118.124082 123.911848 116.862738 123.00744 115.418515 120.775498 114.711034 118.542554 114.003552 115.84437 112.889557 116.085011 113.125732 116.241427 113.279351 117.849709 114.11328 119.155185 114.775825 121.08031 115.751878 123.193937 117.119814 123.815592 117.650686 124.241727 118.014354 124.622741 118.362347 124.960641 118.69362 125.111041 118.842013 125.071937 119.030118 124.872406 119.11581 124.800213 119.14716 124.712981 119.160746 124.621738 119.156566 123.991059 119.121035 123.522813 118.998767 123.216998 118.787672 122.22235 118.099001 122.019811 117.903582 120.478708 117.17729 120.210995 117.050842 117.992088 116.167797 117.549911 115.954612 114.43963 114.452913 111.028549 113.725576 110.857092 113.881285 109.386176 115.19697 111.285232 115.268031 112.630815 116.951565 114.679268 117.151165 116.091027 117.652776 117.631127 118.729151 117.704322 118.781402 117.682263 119.098044 117.137814 119.058333L117.137814 119.058333 110.2966 118.375933 103.27992 112.657562 98.5703812 111.316796 98.5993385 111.235218C97.0776363 110.594585 96.0030564 109.041906 96.0000065 107.226594 95.9960023 104.834534 97.852946 102.891834 100.148056 102.887647z" opacity="1.00"></path><path id="Combined-Shape--globalStyle1/sittingpeople/womansitting/top/1" fill="#E8E8E8" d="M51.0403008,2.29008038 C57.3476026,1.6178496 64.2502704,5.75307742 63.9724962,13.3116174 C63.3744647,29.5425627 59.9552845,76.5399173 59.433257,79.020438 C59.4051771,79.153835 59.3768422,79.286181 59.3482558,79.4174827 C67.7974502,83.3832431 82.4535393,90.9312201 102,101.900463 L102,101.900463 L97.957787,113.05618 C68.3922771,106.516039 50.0812237,99.7420203 42.5541979,93.2252373 C41.3215726,92.4582283 40.2397083,91.3824946 39.4255027,90.0267929 C37.4474719,86.7332516 37.5899438,82.6858878 39.4689672,79.6140258 C37.9584248,60.6841798 40.4348245,23.1381946 41.1032912,12.7743242 C41.5050709,8.87123586 49.1952592,17.1868363 51.4847337,15.4758151 C52.5325177,14.6927618 52.8833109,9.37861331 52.3460105,5.75212556 C52.0476639,3.73844699 50.3281934,2.36597662 51.0403008,2.29008038 Z"></path><path id="shadow--globalStyle1/sittingpeople/womansitting/top/1" fill="#000" fill-opacity=".04" d="M51.0403008,2.29008038 C57.3476026,1.6178496 64.2502704,5.75307742 63.9724962,13.3116174 C63.3744647,29.5425627 59.9552845,76.5399173 59.433257,79.020438 C59.4051771,79.153835 59.3768422,79.286181 59.3482558,79.4174827 C67.7974502,83.3832431 82.4535393,90.9312201 102,101.900463 L102,101.900463 L97.957787,113.05618 C68.3922771,106.516039 50.0812237,99.7420203 42.5541979,93.2252373 C41.3215726,92.4582283 40.2397083,91.3824946 39.4255027,90.0267929 C37.4474719,86.7332516 37.5899438,82.6858878 39.4689672,79.6140258 C37.9584248,60.6841798 40.4348245,23.1381946 41.1032912,12.7743242 C41.5050709,8.87123586 49.1952592,17.1868363 51.4847337,15.4758151 C52.5325177,14.6927618 52.8833109,9.37861331 52.3460105,5.75212556 C52.0476639,3.73844699 50.3281934,2.36597662 51.0403008,2.29008038 Z"></path><path id="[clothes]bluse--globalStyle1/sittingpeople/womansitting/top/1" fill="#b5c7fc" d="M31.3189523,0.185814923 C-5.57744702,1.82298334 0.350589887,31.62094 0.350589887,65.0059704 C0.350589887,74.0082635 -1.28625613,110.355378 2.99286957,115.713595 C18.8133683,135.521897 50.5006159,128.583902 61.1562019,117.894951 C65.2593767,113.77857 64.6752197,113.256388 64.5244047,77.0436364 C64.4389428,56.4189798 68.9261933,43.2239634 66.0184791,33.8419942 C63.920139,27.0729701 59.3324413,2.20545087 50.290681,1.12642439 C50.1299267,1.10724028 47.9505856,6.28651685 47.3729215,6.28651685 C44.5114573,5.93635982 32.5626738,0.131236269 31.3189523,0.185814923 Z" opacity="1.00"></path><path id="shadow--globalStyle1/sittingpeople/womansitting/top/1" fill="#000" fill-opacity=".04" d="M101.897899,103.904494 L99,111.702931 L103.640788,112.977665 L110.555038,118.414414 L117.296382,119.063208 C117.832883,119.100963 117.85462,118.799915 117.782494,118.750237 C116.264876,117.726872 114.873727,117.249964 112.855177,117.060195 C111.529237,115.459573 109.657904,115.392011 111.107348,114.141122 C111.276301,113.993082 114.637587,114.684598 117.702463,116.112341 C118.138185,116.315026 120.324701,117.154583 120.588505,117.274803 C122.107111,117.965326 122.306693,118.151121 123.286821,118.805876 C123.588171,119.006575 124.049582,119.122821 124.671055,119.156602 C124.760966,119.160576 124.846924,119.14766 124.918063,119.117853 C125.114681,119.036382 125.153214,118.857541 125.00501,118.716456 C124.672043,118.401498 124.29659,118.070643 123.876677,117.724885 C123.264097,117.220158 121.181325,115.91959 119.284303,114.991607 C117.997885,114.361692 116.413081,113.568832 116.258948,113.422779 C116.02182,113.198235 118.680615,114.257368 120.880963,114.930007 C123.080323,115.602645 123.971528,116.975742 125.645255,118.174967 C125.876454,118.340891 126.376398,118.51377 127.146076,118.695591 C127.187573,118.704533 127.59563,118.707514 127.58575,118.486944 C127.574882,118.265381 125.915975,116.443195 124.866685,115.556942 C123.117868,114.07654 122.656457,113.936449 121.630879,113.554922 C120.352366,113.080995 118.114472,112.153012 117.513749,111.872829 C116.914013,111.592646 120.585541,112.444125 123.064514,113.570819 C123.448859,113.745686 124.189883,114.201729 124.534706,114.405408 C125.569176,115.01744 126.687629,116.21269 127.314041,116.221632 C127.40494,116.222625 127.493863,116.213683 127.574882,116.193812 C127.953298,116.102405 128.107431,115.814273 127.920693,115.551974 C127.434581,114.868406 126.578945,114.075547 125.353785,113.173396 C125.06528,112.960775 123.909282,112.158974 123.432062,111.962249 C121.4145,111.137596 118.725076,110.50768 118.545255,110.321885 C118.365433,110.137083 119.886014,110.659695 121.780072,111.190255 C122.21283,111.311469 123.90039,111.960262 124.227428,112.060611 C124.65821,112.192755 124.931895,112.345762 125.644267,112.640849 C127.064069,113.230029 127.463234,112.766037 126.859546,112.143077 C126.255858,111.519122 120.080657,108.765973 117.188686,107.880713 C115.604871,107.39685 113.213832,106.273136 108.818077,105.103719 L101.897899,103.904494 Z"></path><g id="mac2--globalStyle1/sittingpeople/womansitting/top/1" transform="translate(114 75.433)"><mask id="mask-2--globalStyle1/sittingpeople/womansitting/top/1" fill="#fff"><use xlink:href="#path-1--globalStyle1/sittingpeople/womansitting/top/1"></use></mask><polygon id="Fill-35--globalStyle1/sittingpeople/womansitting/top/1" fill="#9F9FA0" points="0.9688 54.4044309 26.0308 37.7992062 45.0038 0.262043258 19.6588 16.8032062" mask="url(#mask-2--globalStyle1/sittingpeople/womansitting/top/1)"></polygon><path id="Fill-38--globalStyle1/sittingpeople/womansitting/top/1" fill="#BEBEBF" d="M25.6685,28.9632539 C24.7305,30.9562876 23.6495,32.248709 22.8355,31.8531528 C22.0225,31.4565798 22.1235,29.5204899 23.0615,27.5274562 C24.0005,25.5354393 25.4205,24.2399674 26.2335,24.6365404 C27.0475,25.0331135 26.6065,26.9702202 25.6685,28.9632539" mask="url(#mask-2--globalStyle1/sittingpeople/womansitting/top/1)"></path></g><path id="Combined-Shape--globalStyle1/sittingpeople/womansitting/top/1" fill="#E8E8E8" d="M29.1985812,15.4362657 C32.9065009,26.2769342 36.1525995,69.5506235 36.5459764,84.9847919 C40.0730204,88.21474 45.2606117,90.8110184 71.207361,118.114423 L72,118.949387 L67.1084898,129.325843 C37.9787529,112.601079 24.76174,102.945182 20.1366331,95.7831551 C19.9659292,95.6081112 19.8124275,95.4302955 19.6781449,95.2507905 C13.5582238,87.0715948 3.7882822,27.9350169 6.4493362,15.8222297 C9.11139628,3.7094426 24.828215,2.6558925 29.1985812,15.4362657 Z"></path><path id="shadow--globalStyle1/sittingpeople/womansitting/top/1" fill="#000" fill-opacity=".04" d="M29.1985812,15.4362657 C32.9065009,26.2769342 36.1525995,69.5506235 36.5459764,84.9847919 C40.0730204,88.21474 45.2606117,90.8110184 71.207361,118.114423 L72,118.949387 L67.1084898,129.325843 C37.9787529,112.601079 24.76174,102.945182 20.1366331,95.7831551 C19.9659292,95.6081112 19.8124275,95.4302955 19.6781449,95.2507905 C13.5582238,87.0715948 3.7882822,27.9350169 6.4493362,15.8222297 C9.11139628,3.7094426 24.828215,2.6558925 29.1985812,15.4362657 Z"></path></g></g></g></svg></g>
</g></g><g transform="translate(186,527)">
<g transform="translate(223,0) scale(-1, 1)">
<g><svg xmlns="http://www.w3.org/2000/svg" width="223" height="228" viewBox="0 0 223 228"><g id="Symbols--globalStyle1/animals/dogvscat/5" fill="none" fill-rule="evenodd" stroke="none" stroke-width="1"><g id="globalStyle1/animals/dogvscat/5--globalStyle1/animals/dogvscat/5"><path id="[color]color--globalStyle1/animals/dogvscat/5" fill="#545454" fill-rule="nonzero" d="M55.388324,129.04407 C55.8542585,128.84439 56.4314995,128.87469 57.1448039,129.186462 L57.0811371,129.15958 C58.6764461,129.633474 59.8411242,131.108982 59.8437879,132.857842 C59.8439529,132.944876 59.8412408,133.031243 59.8357413,133.116852 C60.8423523,136.696253 61.1888423,142.135352 64.0708426,147.938312 C64.4440658,148.689825 64.8299892,149.470245 65.1896495,150.264029 C66.3981424,151.246321 67.2676712,152.628105 67.5963788,154.208383 C69.559249,156.518458 71.9567583,159.465552 74.7150301,163.090102 C77.6163434,166.903547 84.2727558,173.109777 79.5378181,178.163693 C74.0705324,183.99845 67.2823559,176.884816 63.7976517,172.835378 C60.8833386,169.44951 56.5909449,163.997987 54.4945564,159.331946 C53.5765756,157.511776 53.0624885,155.052795 52.9316507,152.229954 C52.7113936,147.491725 52.9403825,141.877499 53.437766,135.775952 C52.6280038,135.069825 52.1160791,134.03085 52.1143142,132.871626 C52.1106467,130.936905 53.5286912,129.331809 55.3835723,129.045441 Z" opacity="1.00"></path><path id="shadow--globalStyle1/animals/dogvscat/5" fill="#000" fill-opacity=".04" d="M55.3733592,129.04407 C55.8392937,128.84439 56.4165347,128.87469 57.1298392,129.186462 L57.0661723,129.15958 C58.6614813,129.633474 59.8261594,131.108982 59.8288231,132.857842 C59.8289881,132.944876 59.826276,133.031243 59.8207765,133.116852 C60.8273876,136.696253 61.1738776,142.135352 64.0558778,147.938312 C64.3927863,148.616703 64.697947,149.344072 64.9607581,150.098082 C66.2798979,151.085797 67.2335329,152.535927 67.581414,154.208383 C69.5442842,156.518458 71.9417935,159.465552 74.7000653,163.090102 C77.6013786,166.903547 84.257791,173.109777 79.5228533,178.163693 C74.0555676,183.99845 67.2673911,176.884816 63.7826869,172.835378 C60.380614,168.882827 55.1155324,162.115315 53.6432555,157.068496 C53.6202029,156.98947 53.598725,156.909558 53.5788145,156.828851 C53.2870248,155.843255 53.0996863,154.720587 53.0411622,153.457921 C52.820453,148.709968 52.9532428,142.11966 53.4303922,135.783028 C52.6163876,135.076609 52.1011201,134.034635 52.0993494,132.871626 C52.0956819,130.936905 53.5137264,129.331809 55.3686075,129.045441 Z"></path><path id="Fill-11-Copy--globalStyle1/animals/dogvscat/5" fill="#D8D5D5" d="M53.3572285,136.352042 C51.1145258,136.356044 49.5878183,134.963336 49.3372777,132.734417 C49.2334939,131.810903 51.4624983,127.437095 56.2561872,128.039655 C58.5729334,128.330867 60.238773,129.198692 60.6071566,131.187565 C60.9226034,132.890636 60.6903837,135.441671 57.865769,135.748743 C56.3552105,136.148205 54.8523636,136.349304 53.3572285,136.352042 Z" transform="rotate(42 55.024 132.167)"></path><path id="[color]color--globalStyle1/animals/dogvscat/5" fill="#545454" fill-rule="nonzero" d="M132.028816,216.616639 C129.129784,221.137338 113.324664,219.839909 106.440922,217.54862 C95.7689149,213.996389 91.1916503,209.198543 86.0859746,205.003407 C71.9859746,193.41611 71.0847302,182.837358 67.6006762,168.036818 C66.3917573,162.901142 65.3098107,154.064912 72.3873422,151.776221 C84.6134872,147.822601 86.9535414,151.347595 88.2769071,157.573541 C89.6002727,163.799487 87.4028744,167.551021 91.9081673,172.63032 C103.27065,185.440462 110.017835,180.918619 123.815499,190.356384 C137.613163,199.79415 134.927847,212.095939 132.028816,216.616639 Z" transform="rotate(12 100.542 184.873)" opacity="1.00"></path><path id="Fill-29-Copy--globalStyle1/animals/dogvscat/5" fill="#E7E7E7" d="M72.3088099,175.635307 C72.5942153,171.401253 73.4742746,170.972488 74.6458962,167.438163 C76.7491395,161.091136 74.9666043,151.661334 73.216918,152.249902 C65.0307957,155.003591 66.9313663,171.87089 68.131169,177.515518 C69.8391815,185.551085 70.416001,196.056961 82.2052926,205.905064 C93.9945842,215.753167 99.6238716,220.710298 111.503069,218.185297 C111.503069,218.185297 121.815338,190.944353 106.841161,192.716887 C75.3517016,204.863643 71.4744856,188.014767 72.3088099,175.635307 Z" transform="rotate(12 91.005 185.53)"></path><path id="[color]color--globalStyle1/animals/dogvscat/5" fill="#545454" fill-rule="nonzero" d="M72.1880722,144.505974 L77.0861803,135.159757 C77.3172614,134.717866 77.8637478,134.546784 78.3064505,134.778676 C78.4678019,134.863001 78.5991532,134.993541 78.6842884,135.153271 L84.9778019,146.93273 L72.1880722,144.505974 Z" opacity="1.00"></path><path id="shadow--globalStyle1/animals/dogvscat/5" fill="#000" fill-opacity=".08" d="M72.1880722,144.505974 L77.0861803,135.159757 C77.3172614,134.717866 77.8637478,134.546784 78.3064505,134.778676 C78.4678019,134.863001 78.5991532,134.993541 78.6842884,135.153271 L84.9778019,146.93273 L72.1880722,144.505974 Z"></path><path id="[color]color--globalStyle1/animals/dogvscat/5" fill="#545454" fill-rule="nonzero" d="M73.8066127,160.973379 C70.2836397,160.557433 66.9820181,157.827433 65.4901262,153.657433 L64.9622884,151.756893 C64.5447208,151.156893 64.4279641,150.366352 64.7522884,149.712028 C65.040937,149.129055 65.2752614,149.125811 66.1744505,148.649866 L69.8385046,146.497163 C69.5425586,142.878514 74.1163424,141.282028 77.7122884,140.665001 C85.5893154,139.31419 92.8019374,142.700164 94.1640995,154.165029 C94.7730185,159.287731 90.3966127,163.362028 84.8385046,164.557163 C84.8117478,164.562838 84.7841803,164.568514 84.7574235,164.57419 C81.2603965,165.302298 77.6255316,164.25392 74.9158019,161.926082 L73.8066127,160.973379 Z" opacity="1.00"></path><path id="Stroke-35-Copy--globalStyle1/animals/dogvscat/5" fill="#000" fill-rule="nonzero" d="M74.7252522,147.462914 C75.3630689,146.607933 75.7522633,146.59858 76.468638,147.43324 C76.7551372,147.767045 77.2579929,147.805393 77.5917978,147.518894 C77.9256026,147.232395 77.9639514,146.729539 77.6774523,146.395735 C76.3016024,144.792709 74.7010992,144.831174 73.4484056,146.510385 C73.185372,146.862976 73.2579729,147.362039 73.6105643,147.625073 C73.9631558,147.888106 74.4622185,147.815505 74.7252522,147.462914 Z"></path><path id="Fill-37-Copy--globalStyle1/animals/dogvscat/5" fill="#E7E7E7" d="M75.6390451,156.219757 C73.3671532,159.125703 67.7125586,155.470568 66.1160722,153.874082 C65.6701262,153.428136 65.5006668,153.690838 65.5006668,153.690838 C67.020937,157.948406 70.2860722,160.577055 73.8066127,160.973541 L74.9587749,161.977325 C77.4033695,164.174622 77.3906662,164.463931 78.7649905,164.432309 C81.566668,161.977325 87.5190451,155.243541 84.1914776,153.053541 C80.5128289,150.634082 78.3690451,152.725974 75.6390451,156.219757 Z"></path><path id="Fill-39-Copy--globalStyle1/animals/dogvscat/5" fill="#000" d="M66.6619911,149.514109 C66.6676668,148.969244 65.7846938,149.43546 65.2925316,149.548974 C65.1368559,149.58546 65.0168559,149.504379 64.9146938,149.398974 C64.8587478,149.451676 64.7792884,149.583028 64.7436127,149.65519 C64.3576668,150.433568 64.5522614,151.312487 65.0484776,152.026002 C65.0484776,152.026002 65.4441532,152.031676 65.4782073,151.37492 C65.5292884,150.363028 66.6563154,150.058974 66.6619911,149.514109"></path><path id="[color]color--globalStyle1/animals/dogvscat/5" fill="#545454" fill-rule="nonzero" d="M78.3882108,171.99146 C86.3504502,170.161838 88.0213242,179.888415 88.6492313,185.193065 C89.1882375,189.74254 90.0437786,197.125242 89.1283844,202.249671 C89.2234363,203.399825 89.212399,204.627717 89.0933861,205.901508 C88.5939516,211.246184 88.4660974,217.958628 86.8535449,224.843325 C86.1225698,227.962327 83.2835132,228.431406 81.119146,227.099396 C77.3487875,224.779041 79.9002484,217.441347 76.7550123,207.992465 C76.1359389,206.132786 75.4702265,204.107574 75.2219141,202.1818 C75.2077215,202.101617 75.195292,202.021367 75.1844674,201.941138 C74.7318893,198.583482 73.2424032,194.361424 73.2424032,187.982403 C73.2424032,182.13813 73.4507113,173.126035 78.3882108,171.99146 Z M86.5249911,134.734406 C86.6595857,134.856028 86.7544505,135.015757 86.7966127,135.191703 L89.9328289,148.172784 L78.1614776,142.614676 L85.2479641,134.796838 C85.5828289,134.427109 86.1552614,134.39873 86.5249911,134.734406 Z" opacity="1.00"></path><polygon id="shadow--globalStyle1/animals/dogvscat/5" fill="#000" fill-opacity=".08" points="83.2893262 139.810601 85.5198668 136.561682 85.8068938 141.694115"></polygon><path id="Fill-53-Copy--globalStyle1/animals/dogvscat/5" fill="#E7E7E7" d="M77.5469055,228.011392 C75.3042028,228.015435 73.7142028,226.902045 73.4636622,224.673126 C73.3598784,223.749613 73.7754721,220.981738 78.621023,220.178898 C78.621023,220.178898 90.2109595,227.334353 84.0877163,228.000029 L77.5469055,228.011392 Z"></path><path id="Combined-Shape-Copy-2--globalStyle1/animals/dogvscat/5" fill="#B9B6B4" fill-rule="nonzero" d="M77.7342388,222.902959 C77.8996585,222.843959 78.0815866,222.930229 78.1405866,223.095649 C78.1995865,223.261068 78.1133162,223.442997 77.9478965,223.501996 C75.9923785,224.199467 74.6243941,225.673154 74.4095606,227.609437 C74.3901934,227.783992 74.2329881,227.909797 74.0584327,227.89043 C73.8838772,227.871063 73.7580723,227.713857 73.7774395,227.539302 C74.0215035,225.339566 75.5652069,223.676583 77.7342388,222.902959 Z M76.5003041,221.59333 C76.6645632,221.531172 76.8481107,221.613941 76.9102688,221.778201 C76.972427,221.94246 76.8896578,222.126007 76.7253987,222.188165 C74.8277497,222.906265 73.5148011,224.356785 73.3045878,226.25149 C73.2852212,226.426045 73.1280163,226.551851 72.9534608,226.532484 C72.7789053,226.513118 72.6530999,226.355913 72.6724664,226.181357 C72.9113187,224.028523 74.394133,222.390338 76.5003041,221.59333 Z"></path><path id="Combined-Shape-Copy-5--globalStyle1/animals/dogvscat/5" fill="#B9B6B4" fill-rule="nonzero" d="M56.21422,127.692418 C56.3796398,127.633418 56.5615679,127.719688 56.6205678,127.885108 C56.6795678,128.050528 56.5932975,128.232456 56.4278777,128.291456 C54.4723598,128.988927 53.1043754,130.462613 52.8895419,132.398896 C52.8701747,132.573451 52.7129693,132.699256 52.5384139,132.679889 C52.3638585,132.660522 52.2380536,132.503317 52.2574208,132.328761 C52.5014848,130.129026 54.0451881,128.466042 56.21422,127.692418 Z M54.9802854,126.38279 C55.1445445,126.320631 55.3280919,126.403401 55.3902501,126.56766 C55.4524082,126.731919 55.369639,126.915466 55.20538,126.977624 C53.3077309,127.695724 51.9947824,129.146245 51.784569,131.040949 C51.7652025,131.215504 51.6079976,131.34131 51.4334421,131.321943 C51.2588866,131.302577 51.1330811,131.145372 51.1524477,130.970816 C51.3912999,128.817982 52.8741142,127.179797 54.9802854,126.38279 Z" transform="rotate(63 53.895 129.522)"></path><path id="[color]color--globalStyle1/animals/dogvscat/5" fill="#545454" fill-rule="nonzero" d="M142.910854,138.56067 C145.522475,141.218508 135.634637,147.428508 140.772745,162.566345 C144.512205,173.585264 153.641935,183.336075 155.481664,204.975805 C156.87401,221.367484 146.688036,223.91315 139.802677,223.805275 C139.69178,224.02077 139.574906,224.234811 139.45236,224.447067 C137.2267,228.302433 133.555433,230.831651 129.508269,231.748144 C128.780793,232.217788 127.934183,232.683585 126.956899,233.138502 C122.226871,235.340288 116.229291,238.363161 115.806926,238.576272 L115.783287,238.588204 L115.740315,238.500097 C112.941605,239.290853 111.337444,237.214006 111.175636,234.765426 C111.04598,232.805628 113.267972,232.288732 118.186912,229.946462 L108.645603,224.435716 C101.31263,220.202472 98.7780354,210.74031 103.011279,203.408148 C107.244522,196.075986 116.706684,193.54058 124.039657,197.773013 L133.818035,203.418689 C139.271437,206.567224 142.071342,212.608771 141.406436,218.51491 C144.980761,218.527054 148.959264,217.076252 150.185448,211.050399 C151.619772,204.003643 147.715718,188.403643 137.826259,169.755805 C129.794367,154.612291 137.092475,132.64094 142.910854,138.56067 Z" transform="rotate(26 128.286 188.121)" opacity="1.00"></path><path id="Combined-Shape-Copy-3--globalStyle1/animals/dogvscat/5" fill="#E7E7E7" d="M96.4548501,221.119747 C96.4548501,221.119747 104.97197,227.322958 98.8487272,227.988634 L92.3079164,228.000015 C90.0652137,228.004039 88.4752137,227.171337 88.2246732,224.943229 C88.1208894,224.019715 90.268066,220.215031 96.4548501,221.119747 Z M163.156342,149.976763 C163.590511,151.274661 162.298101,152.265403 160.391527,153.782928 C159.195153,152.377595 157.464531,151.292651 155.720612,150.477267 C159.059505,147.558219 162.13258,146.917254 163.156342,149.976763 Z"></path><path id="Combined-Shape-Copy-4--globalStyle1/animals/dogvscat/5" fill="#B9B6B4" fill-rule="nonzero" d="M92.0349916,222.913344 C92.2004113,222.854344 92.3823394,222.940614 92.4413394,223.106034 C92.5003393,223.271453 92.4140691,223.453382 92.2486493,223.512381 C90.2932482,224.209811 88.9251476,225.683418 88.7103121,227.619023 C88.690938,227.793578 88.5337277,227.919377 88.359173,227.900003 C88.1846184,227.880629 88.0588196,227.723418 88.0781937,227.548864 C88.3222708,225.349801 89.8660927,223.686921 92.0349916,222.913344 Z M90.7792461,221.754202 C90.9435052,221.692044 91.1270527,221.774813 91.1892108,221.939072 C91.251369,222.103331 91.1685998,222.286879 91.0043407,222.349037 C89.1066917,223.067136 87.7937431,224.517657 87.5835298,226.412361 C87.5641632,226.586917 87.4069584,226.712722 87.2324029,226.693356 C87.0578474,226.673989 86.9320419,226.516784 86.9514084,226.342229 C87.1902607,224.189395 88.673075,222.551209 90.7792461,221.754202 Z"></path></g></g></svg></g>
</g></g><g transform="translate(386,249)">
<g transform="translate(30.25,179)">

<g><svg xmlns="http://www.w3.org/2000/svg" width="251" height="250" viewBox="0 0 251 250"><g id="Symbols--globalStyle1/people/man/bottom/2" fill="none" fill-rule="evenodd" stroke="none" stroke-width="1"><g id="globalStyle1/people/man/bottom/2--globalStyle1/people/man/bottom/2"><path id="Fill-1--globalStyle1/people/man/bottom/2" fill="#E9E9E9" d="M127.4056,223.8179 L123.6646,247.5249 L151.8426,247.5289 C151.9246,245.5429 150.5936,245.6079 147.1436,245.5429 C141.9686,245.4439 131.0006,246.5969 131.5346,243.0979 C131.6886,242.0849 133.6986,235.1189 137.2276,224.0469 L127.4056,223.8179 Z"></path><path id="shadow--globalStyle1/people/man/bottom/2" fill="#000" fill-opacity=".04" d="M127.405848,223.8179 L123.664848,247.5249 L151.842848,247.5289 C151.924848,245.5429 150.593848,245.6079 147.143848,245.5429 C141.968848,245.4439 131.000848,246.5969 131.534848,243.0979 C131.688848,242.0849 133.698848,235.1189 137.227848,224.0469 L127.405848,223.8179 Z"></path><path id="[clothes]shoes--globalStyle1/people/man/bottom/2" fill="#294b67" d="M123.6644,249.5269 L151.8464,249.5289 L151.8424,247.5289 C151.8424,247.5289 142.6464,247.5239 123.6644,247.5409 L123.6644,249.5269 Z" opacity="1.00"></path><path id="Fill-5--globalStyle1/people/man/bottom/2" fill="#E9E9E9" d="M106.1136,222.897 L106.5066,247.539 L134.9246,247.529 C134.9246,247.529 133.9556,245.574 130.5056,245.508 C125.3306,245.411 113.0006,245.95 113.4906,242.659 C113.6416,241.644 114.0316,236.319 114.8106,223.818 L106.1136,222.897 Z"></path><path id="[clothes]shoes--globalStyle1/people/man/bottom/2" fill="#294b67" d="M106.5061,249.5249 L134.9241,249.5279 L134.9241,247.5289 C134.9241,247.5289 125.4871,247.5219 106.5061,247.5389 L106.5061,249.5249 Z" opacity="1.00"></path><path id="[clothes]pants--globalStyle1/people/man/bottom/2" fill="#294b67" d="M157.810092,16.6362677 L163.50789,137.904519 C163.553638,138.406771 163.577,138.915282 163.577,139.4291 C163.577,139.447433 163.57697,139.46576 163.576911,139.48408 L163.5775,139.4839 C163.569755,141.575972 163.176569,143.576387 162.463116,145.4243 L145.9995,233.1879 L115.4355,233.1929 L128.4565,139.6059 L128.5345,139.605268 L128.5335,139.527268 L128.4562,139.527861 L118,16.6362677 L157.810092,16.6362677 Z" opacity="1.00"></path><path id="shadow--globalStyle1/people/man/bottom/2" fill="#000" fill-opacity=".04" d="M157.809592,17.6362677 L163.506018,137.889533 C163.552671,138.396656 163.5765,138.910171 163.5765,139.4291 C163.5765,139.447433 163.57647,139.46576 163.576411,139.48408 L163.577,139.4839 C163.568635,141.57728 163.176209,143.574255 162.464544,145.419304 L145.999,233.1879 L115.435,233.1929 L128.456,139.6059 L128.534,139.605268 L128.533,139.527268 L128.4557,139.527861 L117.9995,17.6362677 L157.809592,17.6362677 Z"></path><path id="[clothes]pants--globalStyle1/people/man/bottom/2" fill="#294b67" d="M131.0003,17.0745 L127.543204,138.361534 C127.565624,138.71459 127.577,139.070553 127.577,139.4291 C127.577,140.185026 127.526445,140.92946 127.428445,141.659375 L123.9671,233.1927 L94.0081,233.1927 L92.4751,139.4837 L92.5333,139.4835 L92.5323,139.4725 L92.4753,139.472726 L92.0003,17.0745 L131.0003,17.0745 Z" opacity="1.00"></path></g></g></svg></g>
</g>
<g transform="translate(83.75,15)">

<g><svg xmlns="http://www.w3.org/2000/svg" width="120" height="150" viewBox="0 0 120 150"><g id="Symbols--globalStyle1/people/man/head/6" fill="none" fill-rule="evenodd" stroke="none" stroke-width="1"><g id="globalStyle1/people/man/head/6--globalStyle1/people/man/head/6"><polygon id="[skin]neck--globalStyle1/people/man/head/6" fill="#c3786f" points="69.0765532 92.0485 88.5735532 92.0485 85.8989543 40.509 74.5815532 37.4535" opacity="1.00"></polygon><polygon id="shadow--globalStyle1/people/man/head/6" fill="#000" fill-opacity=".04" points="69.0765532 92.0485 88.5735532 92.0485 85.8989543 40.509 74.5815532 37.4535"></polygon><path id="[skin]face--globalStyle1/people/man/head/6" fill="#c3786f" d="M85.7290118,50.1722562 C91.2372406,50.4117241 93.3515741,42.3634794 92.9533352,31.0442262 C92.5550963,19.7249731 87.7669582,10.3547783 82.2587294,10.1153103 C76.7505006,9.87584241 72.6080353,18.857783 73.0062742,30.1770361 C73.4045131,41.4962892 80.220783,49.9327882 85.7290118,50.1722562 Z" transform="rotate(8 82.99 30.144)" opacity="1.00"></path><path id="[hair]hair--globalStyle1/people/man/head/6" fill="#ff9147" d="M72.4338723,31.3664443 C73.5578318,31.4056938 74.6564689,30.1486967 75.7297837,27.5954528 C75.8828387,20.8159651 76.3608986,17.250382 77.1639634,16.8987038 C81.2751017,15.0983538 86.2738927,19.8174037 87.6712555,18.6935493 C90.4774651,16.4366044 91.0045913,16.8866843 91.894379,20.2188353 C92.0555114,20.8222572 96.9844208,12.5692665 93.5629859,8.97014298 C90.1415509,5.37101943 91.5913452,7.46695574 86.1482278,7.27687789 C84.2052561,7.20902782 83.4689291,4.3090842 80.1017038,4.64279765 C76.7344784,4.97651109 77.9219752,8.73060511 76.3882591,8.73918275 C73.3119666,8.75638759 72.1050961,7.07226764 70.9297965,8.17977459 C69.0982587,9.9056672 70.4156924,12.1791316 68.190487,15.2845707 C66.4281047,17.7441058 69.6676081,18.0241229 68.9082271,20.4069332 C67.9012726,23.5665883 66.7045841,26.182649 68.6658127,27.3487735 C69.8620516,28.0600438 70.7479331,31.30757 72.4338723,31.3664443 Z" transform="rotate(-2 81.191 17.992)" opacity="1.00"></path><path id="smile--globalStyle1/people/man/head/6" fill="#FFF" fill-rule="nonzero" d="M89.2777577,41.8888747 C89.9340077,41.8888747 91.2777577,41.4523947 91.2777577,39.8888747 C91.2777577,39.8888747 87.2777577,39.8888747 87.2777577,39.8888747 C87.2777577,41.336656 88.6215077,41.8888747 89.2777577,41.8888747 Z" transform="rotate(-2 89.278 40.889)"></path></g></g></svg></g>
</g>
<g transform="translate(112.75,82)">

<g><svg xmlns="http://www.w3.org/2000/svg" width="193" height="193" viewBox="0 0 193 193"><g id="Symbols--globalStyle1/people/man/top/6" fill="none" fill-rule="evenodd" stroke="none" stroke-width="1"><g id="globalStyle1/people/man/top/6--globalStyle1/people/man/top/6"><path id="[skin]hand--globalStyle1/people/man/top/6" fill="#c3786f" d="M52.4318421,22.8787581 C52.4318421,22.8787581 66.5866421,22.0265524 74.4318421,22.8787581 C73.9635884,27.4790196 73.4737071,68.9499758 73.1771337,84.6039259 C81.5101289,86.0023652 96.2694714,88.8200867 122.417538,93.4983086 L122.417538,93.4983086 C122.419664,93.5000115 122.422342,93.5000044 122.42502,93.5 C122.596279,93.4997183 122.765044,93.5102062 122.930675,93.5308255 L131.64322,90.993875 L137.158775,88.26475 L143.870775,88.312875 C144.404109,88.330375 144.394331,88.627 144.317886,88.668125 C142.718775,89.515125 141.300109,89.840625 139.290331,89.8205 C137.821886,91.251125 135.970331,91.12775 137.272553,92.497125 C137.425442,92.65725 140.807664,92.323 143.973886,91.238 C144.423664,91.084 146.663664,90.4855 146.936553,90.3945 C148.502775,89.873 148.717886,89.712875 149.751664,89.172125 C150.068109,89.005875 150.534775,88.9385 151.150775,88.97 C151.238775,88.974375 151.32322,88.99625 151.389886,89.032125 C151.575664,89.131 151.596109,89.310375 151.43522,89.432875 C151.076109,89.7085 150.672553,89.992875 150.223664,90.28775 C149.568553,90.719125 147.383664,91.77875 145.420998,92.4945 C144.089442,92.97925 142.446775,93.594375 142.280553,93.720375 C142.023664,93.9155 144.752553,93.15075 146.988998,92.715875 C149.225442,92.281 150.241442,91.02975 152.012998,90.027 C152.256553,89.88875 152.767664,89.770625 153.544553,89.670875 C153.586331,89.665625 153.988998,89.705 153.956109,89.919375 C153.924109,90.134625 152.104553,91.74725 150.980998,92.507625 C149.108998,93.776375 148.639664,93.867375 147.589886,94.135125 C146.281442,94.469375 143.980998,95.150125 143.361442,95.36275 C142.741886,95.575375 146.446775,95.116 149.004998,94.2655 C149.402331,94.133375 150.177442,93.762375 150.538331,93.59875 C151.620109,93.106125 152.84322,92.05175 153.460998,92.105125 C153.551664,92.113875 153.637886,92.131375 153.716109,92.159375 C154.079664,92.28625 154.20322,92.58375 153.991664,92.82175 C153.444109,93.4395 152.520553,94.128125 151.221886,94.885875 C150.916109,95.064375 149.695664,95.732 149.204998,95.874625 C147.132998,96.47575 144.41922,96.819625 144.222775,96.982375 C144.026331,97.145125 145.578331,96.789 147.498331,96.46175 C147.938331,96.387375 149.66722,95.923625 149.999664,95.858875 C150.437886,95.774 150.72322,95.652375 151.454775,95.43625 C152.914331,95.004 153.260998,95.4975 152.60322,96.04525 C151.944553,96.593875 145.57922,98.65975 142.639664,99.231125 C141.028998,99.544375 137.910775,100.429 133.756998,100.66175 L123.969789,101.193674 C123.498384,101.390198 122.981251,101.499105 122.438664,101.5 L122.431842,101.5 L122.431842,101.533205 C80.6078384,103.774407 60.1127756,105.606413 56.7733153,98.1284652 L56.6773664,97.8990018 C56.0692289,96.5871934 55.6997869,95.3212592 55.5345432,94.1209684 L55.5224714,94.0278413 C52.0283885,81.6421175 52.7812901,35.4262069 52.4318421,22.8787581 Z" opacity="1.00"></path><path id="shadow--globalStyle1/people/man/top/6" fill="#000" fill-opacity=".04" d="M122.846775,101.49025 L122.832553,93.7955 L131.64322,91.229125 L137.158775,88.5 L143.870775,88.548125 C144.404109,88.565625 144.394331,88.86225 144.317886,88.903375 C142.718775,89.750375 141.300109,90.075875 139.290331,90.05575 C137.821886,91.486375 135.970331,91.363 137.272553,92.732375 C137.425442,92.8925 140.807664,92.55825 143.973886,91.47325 C144.423664,91.31925 146.663664,90.72075 146.936553,90.62975 C148.502775,90.10825 148.717886,89.948125 149.751664,89.407375 C150.068109,89.241125 150.534775,89.17375 151.150775,89.20525 C151.238775,89.209625 151.32322,89.2315 151.389886,89.267375 C151.575664,89.36625 151.596109,89.545625 151.43522,89.668125 C151.076109,89.94375 150.672553,90.228125 150.223664,90.523 C149.568553,90.954375 147.383664,92.014 145.420998,92.72975 C144.089442,93.2145 142.446775,93.829625 142.280553,93.955625 C142.023664,94.15075 144.752553,93.386 146.988998,92.951125 C149.225442,92.51625 150.241442,91.265 152.012998,90.26225 C152.256553,90.124 152.767664,90.005875 153.544553,89.906125 C153.586331,89.900875 153.988998,89.94025 153.956109,90.154625 C153.924109,90.369875 152.104553,91.9825 150.980998,92.742875 C149.108998,94.011625 148.639664,94.102625 147.589886,94.370375 C146.281442,94.704625 143.980998,95.385375 143.361442,95.598 C142.741886,95.810625 146.446775,95.35125 149.004998,94.50075 C149.402331,94.368625 150.177442,93.997625 150.538331,93.834 C151.620109,93.341375 152.84322,92.287 153.460998,92.340375 C153.551664,92.349125 153.637886,92.366625 153.716109,92.394625 C154.079664,92.5215 154.20322,92.819 153.991664,93.057 C153.444109,93.67475 152.520553,94.363375 151.221886,95.121125 C150.916109,95.299625 149.695664,95.96725 149.204998,96.109875 C147.132998,96.711 144.41922,97.054875 144.222775,97.217625 C144.026331,97.380375 145.578331,97.02425 147.498331,96.697 C147.938331,96.622625 149.66722,96.158875 149.999664,96.094125 C150.437886,96.00925 150.72322,95.887625 151.454775,95.6715 C152.914331,95.23925 153.260998,95.73275 152.60322,96.2805 C151.944553,96.829125 145.57922,98.895 142.639664,99.466375 C141.028998,99.779625 137.910775,100.66425 133.756998,100.897 L122.846775,101.49025 Z"></path><path id="[clothes]jacket--globalStyle1/people/man/top/6" fill="#b5c7fc" d="M44.1092037,16.2611621 C50.8553405,7.64829841 63.4338791,6.79401418 71.1021102,16.2611621 C76.2142643,22.572594 78.3362567,44.1793336 77.4680874,81.0813807 L122.431842,88.26475 L122.832553,106.257828 C85.6723596,108.455316 64.0971994,104.202707 58.1070725,93.5 C49.1218821,77.4459395 37.363067,24.8740258 44.1092037,16.2611621 Z" opacity="1.00"></path><path id="shadow--globalStyle1/people/man/top/6" fill="#000" fill-opacity=".04" d="M44.1092037,16.2611621 C50.8553405,7.64829841 63.4338791,6.79401418 71.1021102,16.2611621 C76.2142643,22.572594 78.3362567,44.1793336 77.4680874,81.0813807 L122.431842,88.26475 L122.832553,106.257828 C85.6723596,108.455316 64.0971994,104.202707 58.1070725,93.5 C49.1218821,77.4459395 37.363067,24.8740258 44.1092037,16.2611621 Z"></path><path id="tshirt--globalStyle1/people/man/top/6" fill="#F7F8F9" d="M40.7459306,1.416099 C40.2156817,2.24663763 24.9174165,5.12848441 19.9725296,6.46155335 C2.8309801,11.0826635 1.72047076,20.7574629 2.35691926,44.5450435 C2.45729662,48.2852699 1.5133652,72.0243983 2.76628973,99.8733668 C3.10147841,107.333279 3.46265766,114.960197 3.83996898,122.3826 C5.25242181,150.168159 84.4725,147.614676 83,119.773745 C82.695283,114.01962 80.5435107,58.9660512 80.4986994,56.4502399 C80.132375,37.4645962 78.9517128,25.3761811 76.9567128,20.1849946 C72.9362411,9.72700714 70.9628463,4.42614672 58.5465256,2.89719074 C58.5465256,2.89719074 58.9722331,8.80046118 54.4068558,8.7995681 C49.8414784,8.79867502 42.4760659,-1.29384354 40.7459306,1.416099 Z"></path><path id="[clothes]jacket--globalStyle1/people/man/top/6" fill="#b5c7fc" d="M41.4756742,0.776981132 L68.8609379,71.39035 L71,155.969994 C44.096205,156.632097 28.3434321,156.632097 23.7416812,155.969994 C19.1399302,155.307891 12.6427492,151.581225 4.25013805,144.789997 C1.41671268,95.7005353 0.149371069,63.3147011 0.448113208,47.6324944 C0.896226415,24.1091842 0.896226415,17 12.3086568,9.47737773 C15.3680564,7.4607426 20.611781,5.25243374 24.6429736,4.1262782 C27.9327226,3.20725261 33.5436228,2.09082026 41.4756742,0.776981132 Z" opacity="1.00"></path><path id="[skin]hand--globalStyle1/people/man/top/6" fill="#c3786f" d="M6.30028455,17.5629889 C6.30028455,17.5629889 26.0493549,16.2962638 33.9450592,17.5629889 C33.0862877,23.0554019 33.5954866,86.2551712 33.1594126,88.6619489 C34.5940872,92.5662275 37.2033972,106.526965 45.2649702,147.799902 L45.2649702,147.799902 C45.2696798,147.81945 45.2743156,147.840201 45.2787851,147.861014 L49.3202803,154.453866 L53.3127208,159.229955 L54.8795553,165.863312 C54.9910262,166.394088 54.6985266,166.456532 54.6414536,166.391412 C53.4277588,165.020316 52.768743,163.700067 52.305916,161.711665 C50.5544857,160.611756 50.2298826,158.755379 49.2043506,160.374468 C49.0839621,160.564476 50.224532,163.819603 52.0464118,166.678655 C52.305916,167.085434 53.4286505,169.149661 53.5829262,169.39587 C54.4693425,170.814245 54.678016,170.988197 55.454745,171.875796 C55.6928468,172.146982 55.8712001,172.591228 55.9880216,173.20675 C56.0049652,173.295064 56.0040734,173.383377 55.9844545,173.458311 C55.9336238,173.664376 55.7624046,173.729497 55.6045618,173.600148 C55.2487468,173.312905 54.873313,172.984627 54.4773684,172.61353 C53.8995035,172.072049 52.3380196,170.174638 51.1671296,168.41282 C50.3734571,167.217459 49.3764616,165.747345 49.2132683,165.613536 C48.9608982,165.408362 50.3645394,167.913266 51.3276477,170.014067 C52.2898642,172.114868 53.7568208,172.811567 55.1631372,174.314688 C55.3557589,174.521646 55.5956442,174.997114 55.879226,175.7402 C55.8943861,175.77945 55.9532427,176.187122 55.7347598,176.206747 C55.5171687,176.227265 53.5044507,174.824946 52.4905117,173.902556 C50.8006134,172.363753 50.5981823,171.923075 50.0845246,170.952514 C49.4442359,169.743773 48.2251905,167.640296 47.8684838,167.080974 C47.511777,166.521653 48.8512109,170.064023 50.2976569,172.380702 C50.5223821,172.740202 51.0717106,173.415492 51.31873,173.731281 C52.0597883,174.677756 53.3840622,175.628692 53.480373,176.25135 C53.4946413,176.341448 53.4964248,176.431546 53.4892907,176.5154 C53.4518365,176.90523 53.1914405,177.099699 52.9069669,176.948941 C52.1721509,176.560003 51.2777087,175.816917 50.224532,174.719683 C49.9766208,174.461878 49.0313478,173.420844 48.774519,172.971246 C47.6883468,171.072942 46.6984856,168.478832 46.4924874,168.324506 C46.2864892,168.171071 47.0079287,169.615316 47.7891165,171.43155 C47.9674699,171.844574 48.8369426,173.439577 48.9796253,173.750906 C49.1677882,174.162146 49.355951,174.414599 49.7429778,175.082752 C50.5161398,176.418165 50.1166282,176.881144 49.4228335,176.365534 C48.7299306,175.849923 45.1798065,170.072943 43.9143892,167.311126 C43.2214863,165.799084 41.6064964,162.938248 40.3812087,158.897216 L38.1690877,150.732182 C37.9116227,150.317706 37.7298956,149.851213 37.6432605,149.351996 C21.1170934,117.427946 13.8536604,100.296054 13.9036079,91.4886411 C11.5792895,80.3202587 4.46079335,29.3242082 6.30028455,17.5629889 Z" opacity="1.00"></path><path id="[clothes]jacket--globalStyle1/people/man/top/6" fill="#b5c7fc" d="M6,16.2611621 C12.7461367,7.64829841 25.3246754,6.79401418 32.9929065,16.2611621 C38.1050606,22.572594 39.6360189,46.8188733 37.5857814,89 L52.4318421,147.57876 L33.3047807,152.572339 L11.3079642,98.9460577 C3.27189692,49.5647031 1.5025755,22.0030712 6,16.2611621 Z" opacity="1.00"></path><path id="shadow--globalStyle1/people/man/top/6" fill="#000" fill-opacity=".04" d="M6,16.2611621 C12.7461367,7.64829841 25.3246754,6.79401418 32.9929065,16.2611621 C38.1050606,22.572594 39.6360189,46.8188733 37.5857814,89 L52.4318421,147.57876 L33.3047807,152.572339 L11.3079642,98.9460577 C3.27189692,49.5647031 1.5025755,22.0030712 6,16.2611621 Z"></path><polygon id="shadow--globalStyle1/people/man/top/6" fill="#000" fill-opacity=".04" points="41.6884705 0.717256537 68.8609379 71.39035 45.2649702 47.288809 49.1209799 36.0538033 41.6884705 31.762816"></polygon><path id="[clothes]jacket--globalStyle1/people/man/top/6" fill="#b5c7fc" d="M60.1195998,3.00745083 L68.8609379,71.39035 L71,155.969994 C75.2540219,153.266413 78.3505406,151.033676 80.289556,149.271784 C82.2285715,147.509892 83.1980792,145.891677 83.1980792,144.417141 C83.6491022,113.469324 83.2688949,87.7336438 82.0574573,67.2101016 C80.2403009,36.4247882 80.289556,19.5349195 75.8121637,12 C72.8272355,6.97672035 67.5963808,3.97920396 60.1195998,3.00745083 Z" opacity="1.00"></path><path id="shadow--globalStyle1/people/man/top/6" fill="#000" fill-opacity=".04" d="M60.1195998,3.00745083 L68.8609379,71.39035 L71,155.969994 C75.2540219,153.266413 78.3505406,151.033676 80.289556,149.271784 C82.2285715,147.509892 83.1980792,145.891677 83.1980792,144.417141 C83.6491022,113.469324 83.2688949,87.7336438 82.0574573,67.2101016 C80.2403009,36.4247882 80.289556,19.5349195 75.8121637,12 C72.8272355,6.97672035 67.5963808,3.97920396 60.1195998,3.00745083 Z"></path><polygon id="shadow---globalStyle1/people/man/top/6" fill="#000" fill-opacity=".04" points="49.9140425 5.31467328 78.8078097 68.5381304 60.1125 49.1321222 60.0822928 38.5710392 54.2243632 33.2329735" transform="scale(-1 1) rotate(32 0 -187.527)"></polygon></g></g></svg></g>
</g></g></svg>