<?xml version="1.0" encoding="UTF-8"?>
<svg id="illustration-builder" width="1000" height="880" viewBox="-10 -30 1070 940" version="1.1" xmlns="http://www.w3.org/2000/svg" xmlns:xlink="http://www.w3.org/1999/xlink" style="pointer-events: inherit;"><g transform="translate(0,0)">
<g><svg xmlns="http://www.w3.org/2000/svg" width="1000" height="880" viewBox="0 0 1000 880"><g id="Symbols--globalStyle1/clinic/bg1" fill="none" fill-rule="evenodd" stroke="none" stroke-width="1"><g id="globalStyle1/clinic/bg1--globalStyle1/clinic/bg1" fill="#DBF2FF"><circle id="[color:background]background--globalStyle1/clinic/bg1" cx="495.977" cy="402.5" r="340.977" fill="#dbf2ff" opacity="1.00"></circle></g></g></svg></g></g><g transform="translate(240.5,181)">
<g><svg xmlns="http://www.w3.org/2000/svg" width="519" height="281" viewBox="0 0 519 281"><g id="Symbols--globalStyle1/wallclinic/1" fill="none" fill-rule="evenodd" stroke="none" stroke-width="1"><g id="globalStyle1/wallclinic/1--globalStyle1/wallclinic/1"><rect id="Rectangle--globalStyle1/wallclinic/1" width="322.193" height="272.573" x="99.517" y=".5" fill="#FFFDFD" opacity=".723"></rect><path id="shadow--globalStyle1/wallclinic/1" fill="#000" fill-opacity=".02" d="M402.974436,139.45489 C391.068918,100.484963 363.13981,81 319.18711,81 C253.25806,81 245.27915,152.960817 193.638264,152.960817 C159.211006,152.960817 134.082812,173.038352 118.253681,213.193422 L118.253681,257 L402.974436,257 L402.974436,139.45489 Z" transform="matrix(-1 0 0 1 521.228 0)"></path><path id="shadow--globalStyle1/wallclinic/1" fill="#000" fill-opacity=".02" d="M402.974436,146.187668 C401.905604,112.440098 376.548946,95.566313 326.904462,95.566313 C252.437735,95.566313 243.425572,161.462431 185.097296,161.462431 C146.211779,161.462431 120.757814,181.72144 108.7354,222.239457 L108.7354,264.53183 L402.974436,256.733422 L402.974436,146.187668 Z"></path><path id="shadow--globalStyle1/wallclinic/1" fill="#000" fill-opacity=".04" d="M402.974436,182.94222 C391.068918,158.439185 363.13981,146.187668 319.18711,146.187668 C253.25806,146.187668 245.27915,191.434311 193.638264,191.434311 C159.211006,191.434311 134.082812,204.058418 118.253681,229.306632 L118.253681,256.850798 L402.974436,256.850798 L402.974436,182.94222 Z"></path><path id="[color:objects]window--globalStyle1/wallclinic/1" fill="#b5cee1" fill-rule="nonzero" d="M99.8183024,0.5 L422.011758,0.5 L422.011758,273.072944 L442.948276,273.072944 L442.948276,280.5 L76.0517241,280.5 L76.0517241,273.072944 L99.8183024,273.072944 L99.8183024,0.5 Z M257.642724,164.637 L118.252724,164.637 L118.253681,256.850798 L257.642724,256.85 L257.642724,164.637 Z M402.973724,164.637 L263.584724,164.637 L263.584724,256.85 L402.974436,256.850798 L402.973724,164.637 Z M257.642724,63.629 L118.252724,63.629 L118.252724,160.924 L257.642724,160.924 L257.642724,63.629 Z M402.973724,63.629 L263.584724,63.629 L263.584724,160.924 L402.973724,160.924 L402.973724,63.629 Z M173.159724,15.979 L118.253681,15.9794412 L118.252724,59.916 L173.159724,59.916 L173.159724,15.979 Z M289.764724,15.979 L231.833724,15.979 L231.833724,59.916 L289.765252,59.9164456 L289.764724,15.979 Z M228.119724,15.979 L176.873724,15.979 L176.873724,59.916 L228.119724,59.916 L228.119724,15.979 Z M344.724724,15.979 L293.478724,15.979 L293.47878,59.9164456 L344.725464,59.9164456 L344.724724,15.979 Z M402.974436,15.9794412 L348.438724,15.979 L348.438992,59.9164456 L402.973724,59.916 L402.974436,15.9794412 Z" opacity="1.00"></path><path id="shadow--globalStyle1/wallclinic/1" fill="#000" fill-opacity=".08" d="M422.011758,0.5 L422.011758,273.072944 L99.8183024,273.072944 L99.8183024,0.5 L422.011758,0.5 Z M411.915778,9.04111406 L109.914283,9.04111406 L109.914283,264.53183 L411.915778,264.53183 L411.915778,9.04111406 Z"></path></g></g></svg></g></g><g transform="translate(736,375)">
<g><svg xmlns="http://www.w3.org/2000/svg" width="215" height="416" viewBox="0 0 215 416"><g id="Symbols--globalStyle1/objects/bigplant/4" fill="none" fill-rule="evenodd" stroke="none" stroke-width="1"><g id="globalStyle1/objects/bigplant/4--globalStyle1/objects/bigplant/4"><g id="Group-2--globalStyle1/objects/bigplant/4" transform="translate(9.5 87)"><path id="[color]tree--globalStyle1/objects/bigplant/4" fill="#7d9d79" fill-rule="nonzero" d="M50.2852246,169.445877 C59.119855,139.501941 82.8162716,133.208028 121.374474,150.564139 C98.6971417,177.832149 75.000725,184.126062 50.2852246,169.445877 Z" transform="scale(-1 1) rotate(-22 0 600.638)" opacity="1.00"></path><g id="Group--globalStyle1/objects/bigplant/4" fill="#2E4038" fill-rule="nonzero" transform="translate(67.927 14.47)"><path id="Path-38-Copy-2--globalStyle1/objects/bigplant/4" d="M46.2959054,78.801631 L46.7891208,72.03437 L46.2959054,113.59998 C46.2959054,146.175393 46.2959054,168.137762 46.2959054,179.487088 C46.2959054,196.511077 46.7891208,222.539084 46.5425131,228.203134 C46.378108,231.979168 46.0860281,249.893018 45.6662735,281.944684 L44.7577307,281.944684 C45.4348607,254.775959 45.7734257,236.406977 45.7734257,226.837738 C45.7734257,212.48388 45.880578,190.288985 45.7734257,174.911784 C45.6662735,159.534583 45.7734257,120.64214 45.7734257,105.164313 C45.7734257,94.8457612 45.9475856,86.0582006 46.2959054,78.801631 Z" transform="rotate(-9 45.773 176.99)"></path><path id="Path-38-Copy-4--globalStyle1/objects/bigplant/4" d="M34.27448,113.094876 L35.9172047,106.865946 L34.298481,145.131365 C34.3209488,175.121347 34.3360966,195.340617 34.3439244,205.789174 C34.3556661,221.46201 36.0210102,245.425468 35.2012207,250.639362 C34.7903345,253.252614 34.1439215,263.222497 33.2619816,280.549009 C32.970839,286.268769 30.4840373,286.276724 30.9455004,280.382867 C32.0741481,265.967656 32.6361296,255.633506 32.6314449,249.380416 C32.6215449,236.165789 32.9641366,215.732716 32.5956308,201.575698 C32.227125,187.418681 32.5582001,151.613304 32.5475248,137.363914 C32.540408,127.86432 33.1160597,119.774641 34.27448,113.094876 Z" transform="rotate(-20 33.403 195.844)"></path><path id="Path-38-Copy-5--globalStyle1/objects/bigplant/4" d="M17.8693197,50.5387362 L19.5233571,44.3055178 L17.8334923,82.5815136 C17.7999536,112.577382 17.7773418,132.80062 17.7656568,143.251229 C17.7481294,158.927141 19.3684017,182.892237 18.5390352,188.108687 C18.1233489,190.723221 17.458444,200.696277 16.5443204,218.027855 C16.2425536,223.749287 13.7562198,223.761872 14.2285993,217.865991 C15.3839463,203.44583 15.9651163,193.108591 15.9721093,186.854274 C15.9868876,173.637053 16.3675687,153.199304 16.0255708,139.040173 C15.6835728,124.881043 16.0814452,89.0679717 16.0973808,74.8157847 C16.1080045,65.3143267 16.6986508,57.2219772 17.8693197,50.5387362 Z" transform="scale(-1 1) rotate(8 0 -107.608)"></path><path id="Path-38-Copy-3--globalStyle1/objects/bigplant/4" d="M19.3817071,8.52401482 L21.2540153,0.98904822 L19.3817071,47.2700303 C19.3817071,83.5409305 19.3817071,107.9948 19.3817071,120.63164 C19.3817071,139.586899 21.2540153,168.567629 20.3178612,174.874233 C19.6937584,179.078635 18.5849863,199.024705 16.9915446,234.712443 L13.5426009,234.712443 C16.1130723,204.461586 17.3983081,184.008752 17.3983081,173.35394 C17.3983081,157.371722 17.8050715,132.658949 17.3983081,115.537295 C16.9915446,98.4156412 17.3983081,55.1110818 17.3983081,37.8773866 C17.3983081,26.3882565 18.0594411,16.6037992 19.3817071,8.52401482 Z" transform="matrix(-1 0 0 1 34.797 0)"></path></g><path id="shadow--globalStyle1/objects/bigplant/4" fill="#000" fill-opacity=".3" d="M50.2852246,169.445877 C59.119855,139.501941 82.8162716,133.208028 121.374474,150.564139 C98.6971417,177.832149 75.000725,184.126062 50.2852246,169.445877 Z" transform="scale(-1 1) rotate(-22 0 600.638)"></path><path id="Path-12--globalStyle1/objects/bigplant/4" fill="#979797" fill-rule="nonzero" d="M49.1754836,176.136844 C64.0185824,162.984431 89.0005877,156.148118 125.874144,151.947915 L125.792068,151.227368 C88.7729472,155.444152 63.687632,162.308736 48.6945302,175.594066 L49.1754836,176.136844 Z" transform="scale(-1 1) rotate(-22 0 612.721)"></path><path id="[color]tree--globalStyle1/objects/bigplant/4" fill="#7d9d79" fill-rule="nonzero" d="M79.3143661,96.1606283 C85.7411758,74.5473439 102.979289,70.00445 131.028706,82.5319467 C114.531932,102.21377 97.2938187,106.756664 79.3143661,96.1606283 Z" transform="scale(-1 1) rotate(-9 0 1425.01)" opacity="1.00"></path><path id="shadow--globalStyle1/objects/bigplant/4" fill="#000" fill-opacity=".3" d="M79.3143661,96.1606283 C85.7411758,74.5473439 102.979289,70.00445 131.028706,82.5319467 C114.531932,102.21377 97.2938187,106.756664 79.3143661,96.1606283 Z" transform="scale(-1 1) rotate(-9 0 1425.01)"></path><path id="Path-12--globalStyle1/objects/bigplant/4" fill="#979797" fill-rule="nonzero" d="M79.5986888,100.698901 C90.3609594,91.1964316 108.495165,86.2516751 135.262136,83.213546 L135.180348,82.4929665 C108.268055,85.54759 90.0309048,90.5204171 79.1186964,100.155273 L79.5986888,100.698901 Z" transform="scale(-1 1) rotate(-9 0 1453.58)"></path><path id="[color]tree--globalStyle1/objects/bigplant/4" fill="#7d9d79" fill-rule="nonzero" d="M71.0956515,121.382461 C78.4864901,96.2386974 98.3103406,90.9537326 130.567203,105.527566 C111.595893,128.424369 91.7720429,133.709333 71.0956515,121.382461 Z" transform="scale(-1 1) rotate(-29 0 502.566)" opacity="1.00"></path><path id="shadow--globalStyle1/objects/bigplant/4" fill="#000" fill-opacity=".3" d="M71.0956515,121.382461 C78.4864901,96.2386974 98.3103406,90.9537326 130.567203,105.527566 C111.595893,128.424369 91.7720429,133.709333 71.0956515,121.382461 Z" transform="scale(-1 1) rotate(-29 0 502.566)"></path><path id="Path-12-Copy--globalStyle1/objects/bigplant/4" fill="#979797" fill-rule="nonzero" d="M70.1619781,127.631258 C82.5365481,116.582415 103.375902,110.836161 134.135778,107.305584 L134.053083,106.585108 C103.147127,110.132452 82.2036818,115.907408 69.6789764,127.090302 L70.1619781,127.631258 Z" transform="scale(-1 1) rotate(-29 0 511.155)"></path><path id="[color]tree--globalStyle1/objects/bigplant/4" fill="#7d9d79" fill-rule="nonzero" d="M132.493043,92.0962117 C139.883881,66.9524484 159.707732,61.6674836 191.964594,76.2413173 C172.993285,99.1381197 153.169434,104.423085 132.493043,92.0962117 Z" transform="rotate(-29 162.229 83.393)" opacity="1.00"></path><path id="Path-12-Copy--globalStyle1/objects/bigplant/4" fill="#4B4B4B" fill-rule="nonzero" d="M129.407469,98.3450093 C141.782039,87.2961658 162.621394,81.5499124 193.381269,78.0193353 L193.298574,77.2988593 C162.392618,80.8462033 141.449173,86.6211588 128.924467,97.8040532 L129.407469,98.3450093 Z" transform="rotate(-29 161.153 87.822)"></path><path id="[color]tree--globalStyle1/objects/bigplant/4" fill="#7d9d79" fill-rule="nonzero" d="M126.21564,154.13165 C132.635829,132.426485 149.856185,127.864279 177.876707,140.445032 C161.396927,160.210524 144.176571,164.772731 126.21564,154.13165 Z" transform="rotate(-19 152.046 146.62)" opacity="1.00"></path><path id="Path-12-Copy--globalStyle1/objects/bigplant/4" fill="#4B4B4B" fill-rule="nonzero" d="M122.930942,159.246229 C133.68225,149.661401 151.79771,144.673863 178.537417,141.609402 L178.454846,140.888912 C151.569163,143.970102 133.349769,148.986255 122.448351,158.704907 L122.930942,159.246229 Z" transform="rotate(-19 150.493 150.068)"></path><path id="[color]tree--globalStyle1/objects/bigplant/4" fill="#7d9d79" fill-rule="nonzero" d="M84.5157679,134.92748 C94.3674776,101.617594 120.791924,94.6161932 163.789107,113.923276 C138.501066,144.256439 112.076619,151.25784 84.5157679,134.92748 Z" transform="rotate(-13 124.152 123.398)" opacity="1.00"></path><path id="Path-12--globalStyle1/objects/bigplant/4" fill="#4B4B4B" fill-rule="nonzero" d="M78.9853678,142.031761 C95.5459224,127.393255 123.410032,119.786825 164.537087,115.113522 L164.455208,114.392953 C123.182754,119.082778 95.2155849,126.717341 78.5050715,141.488401 L78.9853678,142.031761 Z" transform="rotate(-13 121.521 128.212)"></path><path id="[color]tree--globalStyle1/objects/bigplant/4" fill="#7d9d79" fill-rule="nonzero" d="M4.98228198,164.770794 C15.4261209,130.310083 42.146632,122.733269 85.1438153,142.040352 C59.8557738,172.373515 33.1352627,179.950329 4.98228198,164.770794 Z" transform="scale(-1 1) rotate(-20 0 407.568)" opacity="1.00"></path><path id="shadow--globalStyle1/objects/bigplant/4" fill="#000" fill-opacity=".3" d="M4.98228198,164.770794 C15.4261209,130.310083 42.146632,122.733269 85.1438153,142.040352 C59.8557738,172.373515 33.1352627,179.950329 4.98228198,164.770794 Z" transform="scale(-1 1) rotate(-20 0 407.568)"></path><path id="Path-12--globalStyle1/objects/bigplant/4" fill="#979797" fill-rule="nonzero" d="M4.54307653,170.394597 C21.1036312,155.756091 48.9677403,148.149661 90.0947955,143.476359 L90.0129166,142.755789 C48.7404628,147.445614 20.7732936,155.080177 4.06278027,169.851237 L4.54307653,170.394597 Z" transform="scale(-1 1) rotate(-20 0 423.572)"></path><path id="[color]tree--globalStyle1/objects/bigplant/4" fill="#7d9d79" fill-rule="nonzero" d="M86.4045959,50.9795664 C93.5729605,26.8235426 112.800087,21.7461906 144.085975,35.7475105 C125.685727,57.7448424 106.458601,62.8221944 86.4045959,50.9795664 Z" opacity="1.00"></path><path id="shadow--globalStyle1/objects/bigplant/4" fill="#000" fill-opacity=".3" d="M86.4045959,50.9795664 C93.5729605,26.8235426 112.800087,21.7461906 144.085975,35.7475105 C125.685727,57.7448424 106.458601,62.8221944 86.4045959,50.9795664 Z"></path><path id="Path-12--globalStyle1/objects/bigplant/4" fill-rule="nonzero" stroke="#979797" stroke-width=".535" d="M81.4692907,55.3548576 C95.6967348,42.7673574 122.044807,38.1852469 143.777519,35.7135173"></path><path id="[color]tree--globalStyle1/objects/bigplant/4" fill="#7d9d79" fill-rule="nonzero" d="M82.5651295,79.4855738 C90.8068322,51.515441 112.912887,45.6364019 148.883293,61.8484565 C127.727927,87.3190513 105.621873,93.1980904 82.5651295,79.4855738 Z" transform="rotate(-20 115.724 69.805)" opacity="1.00"></path><path id="Path-12-Copy--globalStyle1/objects/bigplant/4" fill="#4B4B4B" fill-rule="nonzero" d="M78.3364093,86.1573664 C92.1442539,73.8588245 115.388838,67.4649615 149.69841,63.5365458 L149.615913,62.816047 C115.160427,66.7611699 91.8120018,73.1835962 77.8540631,85.6158257 L78.3364093,86.1573664 Z" transform="rotate(-20 113.776 74.487)"></path><path id="[color]tree--globalStyle1/objects/bigplant/4" fill="#7d9d79" fill-rule="nonzero" d="M19.7430181,37.3834367 C27.9847208,9.41330388 50.0907753,3.53426476 86.0611815,19.7463193 C64.9058161,45.2169142 42.7997616,51.0959533 19.7430181,37.3834367 Z" transform="scale(-1 1) rotate(-20 0 327.725)" opacity="1.00"></path><path id="[color]tree--globalStyle1/objects/bigplant/4" fill="#7d9d79" fill-rule="nonzero" d="M35.0230141,72.0038915 C39.9499778,55.1910563 53.1651751,51.6571684 74.6686062,61.4022276 C62.0217392,76.7125915 48.8065419,80.2464795 35.0230141,72.0038915 Z" transform="scale(-1 1) rotate(-20 0 377.23)" opacity="1.00"></path><path id="shadow--globalStyle1/objects/bigplant/4" fill="#000" fill-opacity=".3" d="M35.0230141,72.0038915 C39.9499778,55.1910563 53.1651751,51.6571684 74.6686062,61.4022276 C62.0217392,76.7125915 48.8065419,80.2464795 35.0230141,72.0038915 Z" transform="scale(-1 1) rotate(-20 0 377.23)"></path><path id="Path-12-Copy--globalStyle1/objects/bigplant/4" fill="#4B4B4B" fill-rule="nonzero" d="M18.9825552,43.9219658 C32.7903999,31.6234239 56.0349842,25.2295609 90.3445556,21.3011451 L90.2620591,20.5806464 C55.8065727,24.5257693 32.4581478,30.9481956 18.500209,43.3804251 L18.9825552,43.9219658 Z" transform="scale(-1 1) rotate(-20 0 340.896)"></path><path id="Path-12-Copy-2--globalStyle1/objects/bigplant/4" fill="#979797" fill-rule="nonzero" d="M34.7349918,77.9236362 C38.0280818,74.9730927 40.5485274,73.0477263 42.9781878,71.9375118 C47.769532,69.748144 53.5471892,68.0265611 61.0914558,66.3349671 C66.5900666,65.1020551 72.5204383,64.1764819 79.4977634,63.3728414 L79.4147835,62.6523982 C72.4141189,63.4587269 66.459996,64.388007 60.932788,65.6273311 C53.3435212,67.3290152 47.5235946,69.0631932 42.6767856,71.2779052 C40.1591652,72.4283124 37.597512,74.3851572 34.2510551,77.3835163 L34.7349918,77.9236362 Z" transform="scale(-1 1) rotate(-20 0 392.839)"></path><path id="[color]tree--globalStyle1/objects/bigplant/4" fill="#7d9d79" fill-rule="nonzero" d="M24.2800432,107.251586 C31.437657,83.107047 50.6401138,78.0333395 81.8874135,92.0304635 C63.51197,114.016512 44.3095132,119.09022 24.2800432,107.251586 Z" transform="scale(-1 1) rotate(-11 0 650.192)" opacity="1.00"></path><path id="Path-12-Copy--globalStyle1/objects/bigplant/4" fill="#4B4B4B" fill-rule="nonzero" d="M24.3583164,112.572497 C36.5151786,101.761007 58.0252177,95.5561952 86.4920772,92.3017419 C86.6910414,92.2789954 86.8338941,92.0992635 86.8111477,91.9002993 C86.7884012,91.7013351 86.6086693,91.5584824 86.4097051,91.5812289 C57.8018075,94.8518063 36.1795443,101.08899 23.8763813,112.030591 C23.726738,112.163673 23.7133129,112.392868 23.8463956,112.542512 C23.9794783,112.692155 24.208673,112.70558 24.3583164,112.572497 Z" transform="scale(-1 1) rotate(-10 0 734.022)"></path><path id="[color]tree--globalStyle1/objects/bigplant/4" fill="#7d9d79" fill-rule="nonzero" d="M86.4705014,186.12584 C93.6298094,161.980832 112.832644,156.905796 144.079004,170.90073 C125.702004,192.88803 106.499169,197.963067 86.4705014,186.12584 Z" transform="rotate(-10 115.275 177.769)" opacity="1.00"></path><path id="Path-12-Copy--globalStyle1/objects/bigplant/4" fill="#4B4B4B" fill-rule="nonzero" d="M82.1987237,191.466801 C94.1964288,180.796854 114.403523,175.246998 144.230101,171.837095 L144.147729,171.116582 C114.175339,174.543154 93.8645614,180.121487 81.7167886,190.924894 L82.1987237,191.466801 Z" transform="rotate(-10 112.973 181.292)"></path><polygon id="Rectangle-Copy-20--globalStyle1/objects/bigplant/4" fill="#E5E7ED" fill-rule="nonzero" points="64.003149 243.267912 136.276309 243.267912 130.769977 328.925863 69.5094812 328.925863"></polygon><polygon id="Rectangle-Copy-21--globalStyle1/objects/bigplant/4" fill="#D1D4DD" fill-rule="nonzero" points="59.9435035 230.10537 140.335954 230.10537 140.335954 257.527333 59.9435035 257.527333" transform="matrix(1 0 0 -1 0 487.633)"></polygon></g></g></g></svg></g></g><g transform="translate(346,604)">
<g><svg xmlns="http://www.w3.org/2000/svg" width="308" height="187" viewBox="0 0 308 187"><g id="Symbols--globalStyle1/objects/table/narrow/1" fill="none" fill-rule="evenodd" stroke="none" stroke-width="1"><g id="globalStyle1/objects/table/narrow/1--globalStyle1/objects/table/narrow/1"><polygon id="Fill-1--globalStyle1/objects/table/narrow/1" fill="#587267" points="-4.54747351e-13 1.11279345 0.353 187.0127 8.353 186.999816 8 1.0999093"></polygon><polygon id="Fill-2--globalStyle1/objects/table/narrow/1" fill="#587267" points="307 1.0999093 299 1.11279352 299.352 187.0127 307.352 187.000736"></polygon><polygon id="[color:table]table--globalStyle1/objects/table/narrow/1" fill="#d1d4dd" points="307.48589 0.0127 0.002 0.739612278 0.0181096343 13.0592116 307.502 12.3341948" opacity="1.00"></polygon></g></g></svg></g></g><g transform="translate(378.9999999999999,380)">
<g><svg xmlns="http://www.w3.org/2000/svg" xmlns:xlink="http://www.w3.org/1999/xlink" width="223" height="228" viewBox="0 0 223 228"><defs><path id="path-1--globalStyle1/dinoanimals/3" d="M104.374875,34.1617016 L104.374867,34.1739961 C104.368077,39.4348353 100.248185,43.6942423 94.9873461,43.6877242 L3.77270735,43.5697588 C2.8480955,43.5685654 1.95682558,43.2242826 1.27151603,42.60359 C-0.256598756,41.2195592 -0.373401877,38.8587987 1.01062896,37.3306839 C4.50458923,33.4729864 9.78214461,31.7573101 14.8766426,32.8229927 L24.1877179,34.7707118 L45.0648791,31.874703 L55.8662199,38.9985199 C69.8045993,33.8337359 77.9019389,31.2664037 80.1582385,31.2965234 C86.8908932,31.3863985 92.5851624,32.8695277 97.2410461,35.745911 C105.597329,14.1158979 110.300681,4.57955699 111.351102,7.13688816 C114.256072,14.2092616 107.279845,21.1497519 104.374875,33.9450095 L104.374875,34.1617016 Z"></path></defs><g id="Symbols--globalStyle1/dinoanimals/3" fill="none" fill-rule="evenodd" stroke="none" stroke-width="1"><g id="globalStyle1/dinoanimals/3--globalStyle1/dinoanimals/3"><g id="Group-2--globalStyle1/dinoanimals/3" transform="translate(0 167)"><g id="Group--globalStyle1/dinoanimals/3"><g id="Group-21-Copy--globalStyle1/dinoanimals/3"><path id="Rectangle--globalStyle1/dinoanimals/3" fill="#E9E9E9" fill-rule="nonzero" d="M114.566358,14.8146815 C114.566358,14.8146815 114.566358,14.8146815 114.566358,14.8146815 C117.471328,21.8870549 117.471328,31.8208705 114.566358,44.6161281 L94.8815549,44.6161281 L94.8815549,18.6999475 C94.8815495,13.0523781 99.4598091,8.47411852 105.107378,8.47411852 C109.254364,8.47411852 112.990726,10.9786848 114.566358,14.8146815 Z"></path><path id="Rectangle-Copy-23--globalStyle1/dinoanimals/3" fill="#E9E9E9" fill-rule="nonzero" d="M62.1783177,-7.55521983 L72.1495518,-7.55521983 L72.1495518,-7.55521983 L61.5693075,72.6319368 L63.5170266,81.9430122 C64.5827091,87.0375102 62.8670329,92.3150655 59.0093354,95.8090258 C57.4812206,97.1930566 55.1204601,97.0762535 53.7364293,95.5481387 C53.1157367,94.8628292 52.7714539,93.9715593 52.7702605,93.0469474 L52.6527256,1.98267467 C52.6459356,-3.27816456 56.905184,-7.54842183 62.1660232,-7.55521189 C62.1701214,-7.55521718 62.1742195,-7.55521983 62.1783177,-7.55521983 Z" transform="scale(1 -1) rotate(90 107.011 0)"></path><path id="shadow--globalStyle1/dinoanimals/3" fill="#000" fill-opacity=".08" d="M105.37128,8.47411852 C109.419528,8.47411852 113.076473,10.8608395 114.714063,14.5429619 L114.830259,14.8146815 L114.830259,14.8146815 C117.735229,21.8870549 117.735229,31.8208705 114.830259,44.6161281 L114.830251,44.8451146 C114.823461,50.1059539 110.553204,54.3652023 105.292365,54.3584122 L105.292365,54.3584122 L14.2280921,54.2408773 C13.3034802,54.239684 12.4122103,53.8954011 11.7269008,53.2747085 C10.198786,51.8906777 10.0819828,49.5299172 11.4660137,48.0018024 C14.959974,44.1441049 20.2375293,42.4284287 25.3320273,43.4941112 L25.3320273,43.4941112 L34.6431027,45.4418303 L95.145,37.458757 L95.1454566,18.6999475 C95.1454512,13.0523781 99.7237108,8.47411852 105.37128,8.47411852 Z"></path><path id="[color:animals]dog--globalStyle1/dinoanimals/3" fill="#545454" fill-rule="nonzero" d="M141,12.9329572 C162.258473,1.85450401 180.938812,-0.804535093 197.041016,4.95583988 C221.194322,13.5964023 230.481723,44.7579805 216.203752,54.1678409 C207.266324,60.0580302 204.677104,55.1649051 208.436093,39.4884658 C208.872491,37.6684821 207.853163,35.8151375 206.08244,35.2090631 L141,12.9329572 L141,12.9329572 Z" opacity="1.00"></path><path id="shadow--globalStyle1/dinoanimals/3" fill="#000" fill-opacity=".08" d="M141,12.9329572 C162.258473,1.85450401 180.938812,-0.804535093 197.041016,4.95583988 C221.194322,13.5964023 230.481723,44.7579805 216.203752,54.1678409 C207.266324,60.0580302 204.677104,55.1649051 208.436093,39.4884658 C208.872491,37.6684821 207.853163,35.8151375 206.08244,35.2090631 L141,12.9329572 L141,12.9329572 Z"></path><g id="Group-20--globalStyle1/dinoanimals/3" transform="translate(3.81)"><g id="Group-17--globalStyle1/dinoanimals/3" transform="translate(29.526 3.582)"><path id="[color:animals]dog--globalStyle1/dinoanimals/3" fill="#545454" fill-rule="nonzero" d="M0.239944862,12.836363 L11.5212496,1.78893106 C12.0582118,1.26310064 12.9197755,1.27212472 13.4456059,1.80908691 C13.6350721,2.00256409 13.762505,2.24817001 13.8115994,2.51447922 L17.420856,22.0926364 L17.420856,22.0926364 L0.239944862,12.836363 Z" opacity="1.00"></path><path id="shadow--globalStyle1/dinoanimals/3" fill="#000" fill-opacity=".08" d="M0.239944862,12.836363 L11.5212496,1.78893106 C12.0582118,1.26310064 12.9197755,1.27212472 13.4456059,1.80908691 C13.6350721,2.00256409 13.762505,2.24817001 13.8115994,2.51447922 L17.420856,22.0926364 L17.420856,22.0926364 L0.239944862,12.836363 Z"></path></g><g id="Oval--globalStyle1/dinoanimals/3" transform="translate(0 .243)"><path id="[color:animals]dog--globalStyle1/dinoanimals/3" fill="#545454" fill-rule="nonzero" d="M144.799926,7.67989798 C158.264947,3.28165871 154.124754,1.70507812 174.167909,0.462551321 C194.211064,-0.779975483 206.337764,15.4943137 206,25.4321992 C205.662236,35.3700847 202.491368,46.6478412 190.806767,53.6208351 C183.017033,58.2694976 149.293973,58.4648747 89.6375859,54.2069662 C74.6628848,54.2069662 45.5230981,62.3364629 45.5230981,47.395941 L39.3467457,47.395941 L31.8091566,47.395941 L14.7093088,45.536901 C8.89767219,43.6555648 5.162344,40.9795353 3.50332427,37.5088125 L1.09480799,32.4701187 C0.514660137,31.2564307 1.03049675,29.8033128 2.24696131,29.2244891 C2.57504149,29.0683805 2.93393134,28.987367 3.29741191,28.987367 L19.4769137,28.2089552 C19.8565538,23.676401 27.2064278,15.8225252 31.8091566,15.924101 L42.451078,14.3910436 C56.1909332,14.3910436 53.1053162,24.7601645 67.7217409,15.924101 C73.0196065,12.7213837 75.7192533,8.6080484 92.9603149,3.7574732 C114.078666,-2.18393305 131.334906,12.0781372 144.799926,7.67989798 Z" opacity="1.00"></path><path id="shadow--globalStyle1/dinoanimals/3" fill="#000" fill-opacity=".08" d="M144.799926,7.67989798 C158.264947,3.28165871 154.124754,1.70507812 174.167909,0.462551321 C194.211064,-0.779975483 206.337764,15.4943137 206,25.4321992 C205.662236,35.3700847 202.491368,46.6478412 190.806767,53.6208351 C183.017033,58.2694976 149.293973,58.4648747 89.6375859,54.2069662 C74.6628848,54.2069662 45.5230981,62.3364629 45.5230981,47.395941 L39.3467457,47.395941 L31.8091566,47.395941 L14.7093088,45.536901 C8.89767219,43.6555648 5.162344,40.9795353 3.50332427,37.5088125 L1.09480799,32.4701187 C0.514660137,31.2564307 1.03049675,29.8033128 2.24696131,29.2244891 C2.57504149,29.0683805 2.93393134,28.987367 3.29741191,28.987367 L19.4769137,28.2089552 C19.8565538,23.676401 27.2064278,15.8225252 31.8091566,15.924101 L42.451078,14.3910436 C56.1909332,14.3910436 53.1053162,24.7601645 67.7217409,15.924101 C73.0196065,12.7213837 75.7192533,8.6080484 92.9603149,3.7574732 C114.078666,-2.18393305 131.334906,12.0781372 144.799926,7.67989798 Z"></path><path id="Path-48--globalStyle1/dinoanimals/3" fill="#E9E9E9" fill-rule="nonzero" d="M31.1302468,30.3426086 C32.0291963,29.1962152 32.6565343,29.1967672 33.6022667,30.3577519 C33.8870605,30.7073658 34.4013495,30.7599129 34.7509634,30.4751192 C35.1005773,30.1903254 35.1531244,29.6760364 34.8683307,29.3264225 C33.266369,27.3598481 31.3953392,27.3582017 29.8452472,29.3349706 C29.5669957,29.6898134 29.6290852,30.2030378 29.983928,30.4812894 C30.3387708,30.759541 30.8519953,30.6974515 31.1302468,30.3426086 Z" transform="rotate(8 32.362 29.255)"></path><path fill="#444343" d="M2.15688755,34.6190592 L6.42549128,28.8278188 C2.82925978,28.7293866 0.779047286,29.0700339 0.274853785,29.8497608 C-0.229339717,30.6294878 0.398004873,32.2192539 2.15688755,34.6190592 Z"></path></g><path id="[color:animals]dog--globalStyle1/dinoanimals/3" fill="#545454" fill-rule="nonzero" d="M34.9152433,18.2094974 L45.7104504,7.63808578 C46.2474126,7.11225536 47.1089762,7.12127944 47.6348067,7.65824163 C47.8838656,7.91257313 48.0233506,8.25437152 48.0233506,8.61034184 L48.0233506,25.674726 L48.0233506,25.674726 L34.9152433,18.2094974 Z" opacity="1.00"></path><path id="shadow--globalStyle1/dinoanimals/3" fill="#000" fill-opacity=".04" d="M34.9152433,18.2094974 L45.7104504,7.63808578 C46.2474126,7.11225536 47.1089762,7.12127944 47.6348067,7.65824163 C47.8838656,7.91257313 48.0233506,8.25437152 48.0233506,8.61034184 L48.0233506,25.674726 L48.0233506,25.674726 L34.9152433,18.2094974 Z"></path><polygon id="shadow--globalStyle1/dinoanimals/3" fill="#000" fill-opacity=".3" points="41.2028539 17.1881806 44.8198878 12.5373134 44.8198878 20.2021057"></polygon></g><g id="Path-47-Copy-2--globalStyle1/dinoanimals/3" transform="translate(0 15.06)"><g id="Path-47--globalStyle1/dinoanimals/3" transform="translate(1.149 .57)"><path id="[color:animals]dog--globalStyle1/dinoanimals/3" fill="#545454" fill-rule="nonzero" d="M104.374875,34.1618521 L104.374867,34.1741465 C104.368077,39.4349858 100.097819,43.6942342 94.8369801,43.6874522 L3.77270735,43.5699093 C2.8480955,43.5687159 1.95682558,43.2244331 1.27151603,42.6037405 C-0.256598756,41.2197096 -0.373401877,38.8589491 1.01062896,37.3308344 C4.50458923,33.4731368 9.78214461,31.7574606 14.8766426,32.8231432 L24.1877179,34.7708622 L84.6900704,26.7879171 L91.6662936,11.0223046 C91.6662936,5.37473518 96.2445532,0.796475602 101.892123,0.796475602 C106.039108,0.796475602 109.77547,3.30104185 111.351102,7.1370386 C114.256072,14.209412 107.279845,21.1499024 104.374875,33.94516 L104.374875,34.1618521 Z" opacity="1.00"></path><mask id="mask-2--globalStyle1/dinoanimals/3" fill="#fff"><use xlink:href="#path-1--globalStyle1/dinoanimals/3"></use></mask><use id="shape--globalStyle1/dinoanimals/3" fill="#F5F5F5" fill-rule="nonzero" xlink:href="#path-1--globalStyle1/dinoanimals/3"></use></g><path id="Path-50--globalStyle1/dinoanimals/3" fill="#D8D8D8" fill-rule="nonzero" d="M1.07813665,44.3821671 C2.15767425,39.7240626 5.67430115,36.7142144 10.0912326,35.9561415 C14.081349,35.2713225 17.7034419,36.6794404 18.5684207,39.2927192 C18.6628838,39.5781117 18.9708177,39.7328905 19.2562102,39.6384274 C19.5416027,39.5439643 19.6963815,39.2360305 19.6019184,38.950638 C18.5384111,35.7375639 14.3702926,34.1171741 9.90708311,34.8831895 C5.07703863,35.7121645 1.20114858,39.0295027 0.0176048705,44.1363839 C-0.050266292,44.4292417 0.132121386,44.7216702 0.42497915,44.7895414 C0.717836915,44.8574126 1.01026549,44.6750249 1.07813665,44.3821671 Z"></path></g><g id="Path-47-Copy--globalStyle1/dinoanimals/3" fill-rule="nonzero" transform="translate(108.065 10.264)"><g id="Path-47--globalStyle1/dinoanimals/3"><path id="[color:animals]dog--globalStyle1/dinoanimals/3" fill="#545454" d="M79.6566543,10.0055432 L94.584157,39.2434221 C94.584157,44.5126196 89.8126745,48.7841482 83.9267527,48.7841482 L7.84122067,48.7841482 C6.78470134,48.7841482 5.74464363,48.5497933 4.8140177,48.1020323 C1.70327964,46.6053329 0.536853117,43.1344949 2.20873115,40.3496986 L3.52750727,38.1530534 C7.45807641,31.6060242 12.5079068,39.3130994 20.8105541,39.3130994 L46.4735889,33.5189864 C39.3900806,24.7840626 40.7288173,11.9606896 49.4637411,4.87718125 C58.1986649,-2.20632713 71.0220379,-0.867590413 78.1055463,7.8673334 C78.4198215,8.25487723 78.7197463,8.6538413 79.0047135,9.0634177 C79.2222341,9.37599224 79.4395379,9.69004087 79.6566543,10.0055432 Z" opacity="1.00"></path><path id="shape--globalStyle1/dinoanimals/3" fill="#F5F5F5" d="M79.6566543,10.3275319 L94.584157,39.5654108 C94.584157,44.8346083 89.8126745,49.1061369 83.9267527,49.1061369 L7.84122067,49.1061369 C6.78470134,49.1061369 5.74464363,48.871782 4.8140177,48.4240209 C1.70327964,46.9273216 0.536853117,43.4564835 2.20873115,40.6716873 L3.52750727,38.4750421 C7.45807641,31.9280128 12.5079068,39.635088 20.8105541,39.635088 L25.9867565,43.7037653 C46.0375222,31.8592746 72.2312805,44.4862264 78.1055463,40.6716873 C79.7445231,39.607394 73.2648451,37.6642453 71.1133284,31.2744543 C68.9992758,24.995928 73.1351289,23.6482719 73.9128458,18.7721702 C75.0179432,11.843471 73.9479582,3.06245375 78.1055463,8.18932207 C78.4198215,8.57686589 78.7197463,8.97582996 79.0047135,9.38540636 C79.2222341,9.69798091 79.4395379,10.0120295 79.6566543,10.3275319 Z"></path><path id="Path-50--globalStyle1/dinoanimals/3" fill="#D8D8D8" d="M1.97156159,47.5714626 C3.01420831,43.6517752 6.43492321,41.100966 10.7467997,40.4562041 C14.6469789,39.873004 18.1920984,41.0737554 19.0218661,43.2578911 C19.1286286,43.5389141 19.4429909,43.6801801 19.7240139,43.5734176 C20.0050369,43.4666551 20.146303,43.1522928 20.0395404,42.8712698 C18.9878584,40.1030056 14.9327715,38.7295254 10.5858035,39.3795346 C5.87624008,40.0837633 2.08474332,42.9110626 0.919505836,47.2916131 C0.842227535,47.5821303 1.0150918,47.8802874 1.30560897,47.9575657 C1.59612615,48.034844 1.89428329,47.8619798 1.97156159,47.5714626 Z"></path></g></g></g><path id="[color:animals]dog--globalStyle1/dinoanimals/3" fill="#545454" fill-rule="nonzero" d="M210.81042,18.7900391 C198.991489,44.710707 201.307617,31.9268163 201.307617,37.6679688 C201.307617,39.4589671 196.634563,39.7435378 195.908203,41.6933594 C195.148985,43.7313836 189.662845,42.816017 187.605469,44.3076172 C181.97833,48.3872994 181.117579,46.1512504 179.886719,47.0309657 C177.988994,48.3872994 180.739223,49.4111956 179.886719,50.0634766 C174.189817,54.4223777 166.513899,49.6818938 161.904502,50.0634766 C160.587523,50.1725009 157.143796,50.6711981 158.197471,51.46875 C169.968506,60.3785316 192.283813,61.5590784 207.052833,55.9898199 C208.042114,55.6167713 208.042114,57.0596149 209.913664,54.7801133 C211.785214,52.5006116 211.484246,54.0001654 212.220934,53.5760593 C223.189752,47.261384 226.707351,35.9166159 210.81042,20.1894531 L210.81042,18.7900391 Z" opacity="1.00"></path><path id="shadow--globalStyle1/dinoanimals/3" fill="#000" fill-opacity=".08" d="M210.81042,18.7900391 C198.991489,44.710707 201.307617,31.9268163 201.307617,37.6679688 C201.307617,39.4589671 196.634563,39.7435378 195.908203,41.6933594 C195.148985,43.7313836 189.662845,42.816017 187.605469,44.3076172 C181.97833,48.3872994 181.117579,46.1512504 179.886719,47.0309657 C177.988994,48.3872994 180.739223,49.4111956 179.886719,50.0634766 C174.189817,54.4223777 166.513899,49.6818938 161.904502,50.0634766 C160.587523,50.1725009 157.143796,50.6711981 158.197471,51.46875 C169.968506,60.3785316 192.283813,61.5590784 207.052833,55.9898199 C208.042114,55.6167713 208.042114,57.0596149 209.913664,54.7801133 C211.785214,52.5006116 211.484246,54.0001654 212.220934,53.5760593 C223.189752,47.261384 226.707351,35.9166159 210.81042,20.1894531 L210.81042,18.7900391 Z"></path></g></g><path id="[color:animals]dog--globalStyle1/dinoanimals/3" fill="#545454" fill-rule="nonzero" d="M210.81042,185.790039 C198.991489,211.710707 201.307617,198.926816 201.307617,204.667969 C201.307617,206.458967 196.634563,206.743538 195.908203,208.693359 C195.148985,210.731384 189.662845,209.816017 187.605469,211.307617 C181.97833,215.387299 181.117579,213.15125 179.886719,214.030966 C177.988994,215.387299 180.739223,216.411196 179.886719,217.063477 C174.189817,221.422378 166.513899,216.681894 161.904502,217.063477 C160.587523,217.172501 157.143796,217.671198 158.197471,218.46875 C169.968506,227.378532 192.283813,228.559078 207.052833,222.98982 C208.042114,222.616771 208.042114,224.059615 209.913664,221.780113 C211.785214,219.500612 211.484246,221.000165 212.220934,220.576059 C223.189752,214.261384 226.707351,202.916616 210.81042,187.189453 L210.81042,185.790039 Z" opacity="1.00"></path><path id="shadow--globalStyle1/dinoanimals/3" fill="#000" fill-opacity=".08" d="M210.81042,185.790039 C198.991489,211.710707 201.307617,198.926816 201.307617,204.667969 C201.307617,206.458967 196.634563,206.743538 195.908203,208.693359 C195.148985,210.731384 189.662845,209.816017 187.605469,211.307617 C181.97833,215.387299 181.117579,213.15125 179.886719,214.030966 C177.988994,215.387299 180.739223,216.411196 179.886719,217.063477 C174.189817,221.422378 166.513899,216.681894 161.904502,217.063477 C160.587523,217.172501 157.143796,217.671198 158.197471,218.46875 C169.968506,227.378532 192.283813,228.559078 207.052833,222.98982 C208.042114,222.616771 208.042114,224.059615 209.913664,221.780113 C211.785214,219.500612 211.484246,221.000165 212.220934,220.576059 C223.189752,214.261384 226.707351,202.916616 210.81042,187.189453 L210.81042,185.790039 Z"></path></g></g></svg></g></g><g transform="translate(591.5,364)">
<g transform="translate(336,0) scale(-1, 1)">
<g transform="translate(30.25,179)">

<g><svg xmlns="http://www.w3.org/2000/svg" width="251" height="250" viewBox="0 0 251 250"><g id="Symbols--globalStyle1/people/mnurse/bottom/3" fill="none" fill-rule="evenodd" stroke="none" stroke-width="1"><g id="globalStyle1/people/mnurse/bottom/3--globalStyle1/people/mnurse/bottom/3"><path id="[clothes]shoes--globalStyle1/people/mnurse/bottom/3" fill="#294b67" d="M137,249.5269 L165.182,249.5289 L165.178,247.5289 C165.178,247.5289 155.982,247.5239 137,247.5409 L137,249.5269 Z" opacity="1.00"></path><path id="Fill-5--globalStyle1/people/mnurse/bottom/3" fill="#E9E9E9" d="M106.1136,222.897 L106.5066,247.539 L134.9246,247.529 C134.9246,247.529 133.9556,245.574 130.5056,245.508 C125.3306,245.411 113.0006,245.95 113.4906,242.659 C113.6416,241.644 114.0316,236.319 114.8106,223.818 L106.1136,222.897 Z"></path><path id="Fill-5-Copy--globalStyle1/people/mnurse/bottom/3" fill="#E9E9E9" d="M136.601004,222.897 L136.994004,247.539 L165.412004,247.529 C165.412004,247.529 164.443004,245.574 160.993004,245.508 C155.818004,245.411 143.488004,245.95 143.978004,242.659 C144.129004,241.644 144.519004,236.319 145.298004,223.818 L136.601004,222.897 Z"></path><path id="shadow--globalStyle1/people/mnurse/bottom/3" fill="#000" fill-opacity=".04" d="M136.601004,222.897 L136.994004,247.539 L165.412004,247.529 C165.412004,247.529 164.443004,245.574 160.993004,245.508 C155.818004,245.411 143.488004,245.95 143.978004,242.659 C144.129004,241.644 144.519004,236.319 145.298004,223.818 L136.601004,222.897 Z"></path><path id="[clothes]shoes--globalStyle1/people/mnurse/bottom/3" fill="#294b67" d="M106.5061,249.5249 L134.9241,249.5279 L134.9241,247.5289 C134.9241,247.5289 125.4871,247.5219 106.5061,247.5389 L106.5061,249.5249 Z" opacity="1.00"></path><path id="[clothes]pants--globalStyle1/people/mnurse/bottom/3" fill="#294b67" d="M157.810092,16.6362677 L163.508344,137.909515 C163.553792,138.410144 163.577,138.916986 163.577,139.4291 L163.575,139.350268 L163.5772,139.387396 L163.576,139.387268 L163.577,139.4291 C163.577,139.447433 163.57697,139.46576 163.576911,139.48408 L163.5775,139.4839 L163.57674,139.523041 C163.573979,140.020964 163.549284,140.513834 163.503547,141.000783 L159.02,233.1879 L128.456,233.1929 L128.4565,139.6059 L128.534,139.605268 L128.533,139.527268 L128.4562,139.527861 L118,16.6362677 L157.810092,16.6362677 Z" opacity="1.00"></path><path id="shadow--globalStyle1/people/mnurse/bottom/3" fill="#000" fill-opacity=".02" d="M157.809592,17.6362677 L163.506385,137.893529 C163.552796,138.399353 163.5765,138.911534 163.5765,139.4291 L163.5745,139.351268 L163.5767,139.387396 L163.5755,139.387268 L163.5765,139.4291 C163.5765,139.447433 163.57647,139.46576 163.576411,139.48408 L163.577,139.4839 L163.57624,139.523041 C163.573545,140.009052 163.549953,140.49025 163.506294,140.965826 L159.097,233.1879 L128.533,233.1929 L128.456,139.6059 L128.5335,139.605268 L128.5325,139.527268 L128.4557,139.527861 L117.9995,17.6362677 L157.809592,17.6362677 Z"></path><path id="[clothes]pants--globalStyle1/people/mnurse/bottom/3" fill="#294b67" d="M131.0003,17.0745 L127.543204,138.361534 C127.565624,138.71459 127.577,139.070553 127.577,139.4291 C127.577,140.185026 127.526445,140.92946 127.428445,141.659375 L123.9671,233.1927 L94.0081,233.1927 L92.4751,139.4837 L92.5333,139.4835 L92.5323,139.4725 L92.4753,139.472726 L92.0003,17.0745 L131.0003,17.0745 Z" opacity="1.00"></path></g></g></svg></g>
</g>
<g transform="translate(83.75,15)">

<g><svg xmlns="http://www.w3.org/2000/svg" width="120" height="150" viewBox="0 0 120 150"><g id="Symbols--globalStyle1/people/mnurse/head/1" fill="none" fill-rule="evenodd" stroke="none" stroke-width="1"><g id="globalStyle1/people/mnurse/head/1--globalStyle1/people/mnurse/head/1"><path id="[skin]neck--globalStyle1/people/mnurse/head/1" fill="#c3786f" d="M74.3091332,31.9573405 C75.5142366,20.6962128 80.615421,12.3429263 85.7029474,13.2997528 C90.7904738,14.2565794 93.9377994,24.1611882 92.732696,35.4223159 C91.9205293,43.0116335 89.3387848,49.2802261 86.1842314,52.2683621 L88.2485,92.0485 L68.7515,92.0485 L74.1089634,38.9105993 C73.9929496,36.7039259 74.0518481,34.3615487 74.3091332,31.9573405 Z" opacity="1.00"></path><polygon id="shadow--globalStyle1/people/mnurse/head/1" fill="#000" fill-opacity=".04" points="68.7515 92.0485 88.2485 92.0485 85.5739012 40.509 74.2565 37.4535"></polygon><path id="[hair]hair--globalStyle1/people/mnurse/head/1" fill="#ffdd38" d="M80.9935363,7.69177273 C95.9863414,5.98062769 95.670895,5.48069524 95.7567405,6.97962248 C95.8905852,9.31665372 95.3836929,24.2441008 91.1232358,23.8521417 C88.4178228,23.6032456 81.5187993,19.718292 78.0049348,21.3428627 C77.266691,21.6841762 76.6877328,24.8960053 76.2680605,30.97835 L76.2910761,30.6426547 L78.5370248,39.1687717 L85.7988346,39.1687717 C88.8794649,37.7707387 90.8242658,38.0536568 91.6332373,40.017526 C92.8466944,42.9633298 87.6831727,58.4950302 80.0899892,54.410355 C75.0278669,51.6872381 72.6056863,45.5385085 72.8234475,35.9641661 L72.9215306,35.7665222 C68.3683495,18.1838598 71.059018,8.82561003 80.9935363,7.69177273 Z" transform="rotate(-2 83.275 30.59)" opacity="1.00"></path><path id="smile--globalStyle1/people/mnurse/head/1" fill="#FFF" fill-rule="nonzero" d="M89.2777577,44.8888747 C89.9340077,44.8888747 91.2777577,44.4523947 91.2777577,42.8888747 C91.2777577,42.8888747 87.2777577,42.8888747 87.2777577,42.8888747 C87.2777577,44.336656 88.6215077,44.8888747 89.2777577,44.8888747 Z" transform="rotate(-2 89.278 43.889)"></path><path id="Rectangle--globalStyle1/people/mnurse/head/1" fill="#FAFAFA" d="M69.2550925,4.04070202 C73.7479858,5.25556483 78.0904435,5.86299623 82.2824657,5.86299623 C86.474488,5.86299623 90.8169457,5.25556483 95.309839,4.04070202 L95.309839,17.8622422 C91.1312946,19.4580327 86.7888368,20.255928 82.2824657,20.255928 C77.7760947,20.255928 73.4336369,19.4580327 69.2550925,17.8622422 L69.2550925,4.04070202 Z"></path><path id="Combined-Shape--globalStyle1/people/mnurse/head/1" fill="#B11313" fill-rule="nonzero" d="M92.8110246,8.60295363 C93.0871669,8.60295363 93.3110246,8.85429638 93.3110246,9.16434338 L93.3110246,9.16434338 L93.3102986,11.4149536 L94.4375477,11.3343998 C94.6429524,11.3197075 94.821689,11.5057974 94.8675367,11.7647783 L94.878293,11.8650631 C94.8906297,12.1746692 94.7133029,12.4390539 94.4822226,12.4555827 L94.4822226,12.4555827 L93.3102986,12.5389536 L93.3110246,15.1322866 C93.3110246,15.4113289 93.1296999,15.6428208 92.8921272,15.6863287 L92.8110246,15.6936764 C92.5348822,15.6936764 92.3110246,15.4423336 92.3110246,15.1322866 L92.3110246,15.1322866 L92.3102986,12.6099536 L90.9406505,12.7089064 C90.7352458,12.7235988 90.5565092,12.5375089 90.5106615,12.278528 L90.4999052,12.1782431 C90.4875686,11.868637 90.6648954,11.6042524 90.8959757,11.5877236 L90.8959757,11.5877236 L92.3102986,11.4859536 L92.3110246,9.16434338 C92.3110246,8.88530108 92.4923492,8.65380922 92.729922,8.61030127 Z"></path></g></g></svg></g>
</g>
<g transform="translate(112.75,82)">

<g><svg xmlns="http://www.w3.org/2000/svg" width="193" height="193" viewBox="0 0 193 193"><g id="Symbols--globalStyle1/people/mnurse/top/4" fill="none" fill-rule="evenodd" stroke="none" stroke-width="1"><g id="globalStyle1/people/mnurse/top/4--globalStyle1/people/mnurse/top/4"><path id="[skin]hand--globalStyle1/people/mnurse/top/4" fill="#c3786f" d="M52.4318421,22.8787581 C52.4318421,22.8787581 66.5866421,22.0265524 74.4318421,22.8787581 C73.9635884,27.4790196 73.4737071,68.9499758 73.1771337,84.6039259 C81.5101289,86.0023652 96.2694714,88.8200867 122.417538,93.4983086 L122.417538,93.4983086 C122.419664,93.5000115 122.422342,93.5000044 122.42502,93.5 C122.596279,93.4997183 122.765044,93.5102062 122.930675,93.5308255 L131.64322,90.993875 L137.158775,88.26475 L143.870775,88.312875 C144.404109,88.330375 144.394331,88.627 144.317886,88.668125 C142.718775,89.515125 141.300109,89.840625 139.290331,89.8205 C137.821886,91.251125 135.970331,91.12775 137.272553,92.497125 C137.425442,92.65725 140.807664,92.323 143.973886,91.238 C144.423664,91.084 146.663664,90.4855 146.936553,90.3945 C148.502775,89.873 148.717886,89.712875 149.751664,89.172125 C150.068109,89.005875 150.534775,88.9385 151.150775,88.97 C151.238775,88.974375 151.32322,88.99625 151.389886,89.032125 C151.575664,89.131 151.596109,89.310375 151.43522,89.432875 C151.076109,89.7085 150.672553,89.992875 150.223664,90.28775 C149.568553,90.719125 147.383664,91.77875 145.420998,92.4945 C144.089442,92.97925 142.446775,93.594375 142.280553,93.720375 C142.023664,93.9155 144.752553,93.15075 146.988998,92.715875 C149.225442,92.281 150.241442,91.02975 152.012998,90.027 C152.256553,89.88875 152.767664,89.770625 153.544553,89.670875 C153.586331,89.665625 153.988998,89.705 153.956109,89.919375 C153.924109,90.134625 152.104553,91.74725 150.980998,92.507625 C149.108998,93.776375 148.639664,93.867375 147.589886,94.135125 C146.281442,94.469375 143.980998,95.150125 143.361442,95.36275 C142.741886,95.575375 146.446775,95.116 149.004998,94.2655 C149.402331,94.133375 150.177442,93.762375 150.538331,93.59875 C151.620109,93.106125 152.84322,92.05175 153.460998,92.105125 C153.551664,92.113875 153.637886,92.131375 153.716109,92.159375 C154.079664,92.28625 154.20322,92.58375 153.991664,92.82175 C153.444109,93.4395 152.520553,94.128125 151.221886,94.885875 C150.916109,95.064375 149.695664,95.732 149.204998,95.874625 C147.132998,96.47575 144.41922,96.819625 144.222775,96.982375 C144.026331,97.145125 145.578331,96.789 147.498331,96.46175 C147.938331,96.387375 149.66722,95.923625 149.999664,95.858875 C150.437886,95.774 150.72322,95.652375 151.454775,95.43625 C152.914331,95.004 153.260998,95.4975 152.60322,96.04525 C151.944553,96.593875 145.57922,98.65975 142.639664,99.231125 C141.028998,99.544375 137.910775,100.429 133.756998,100.66175 L123.969789,101.193674 C123.498384,101.390198 122.981251,101.499105 122.438664,101.5 L122.431842,101.5 L122.431842,101.533205 C80.6078384,103.774407 60.1127756,105.606413 56.7733153,98.1284652 L56.6773664,97.8990018 C56.0692289,96.5871934 55.6997869,95.3212592 55.5345432,94.1209684 L55.5224714,94.0278413 C52.0283885,81.6421175 52.7812901,35.4262069 52.4318421,22.8787581 Z" opacity="1.00"></path><path id="shadow--globalStyle1/people/mnurse/top/4" fill="#000" fill-opacity=".04" d="M122.846775,101.49025 L122.832553,93.7955 L131.64322,91.229125 L137.158775,88.5 L143.870775,88.548125 C144.404109,88.565625 144.394331,88.86225 144.317886,88.903375 C142.718775,89.750375 141.300109,90.075875 139.290331,90.05575 C137.821886,91.486375 135.970331,91.363 137.272553,92.732375 C137.425442,92.8925 140.807664,92.55825 143.973886,91.47325 C144.423664,91.31925 146.663664,90.72075 146.936553,90.62975 C148.502775,90.10825 148.717886,89.948125 149.751664,89.407375 C150.068109,89.241125 150.534775,89.17375 151.150775,89.20525 C151.238775,89.209625 151.32322,89.2315 151.389886,89.267375 C151.575664,89.36625 151.596109,89.545625 151.43522,89.668125 C151.076109,89.94375 150.672553,90.228125 150.223664,90.523 C149.568553,90.954375 147.383664,92.014 145.420998,92.72975 C144.089442,93.2145 142.446775,93.829625 142.280553,93.955625 C142.023664,94.15075 144.752553,93.386 146.988998,92.951125 C149.225442,92.51625 150.241442,91.265 152.012998,90.26225 C152.256553,90.124 152.767664,90.005875 153.544553,89.906125 C153.586331,89.900875 153.988998,89.94025 153.956109,90.154625 C153.924109,90.369875 152.104553,91.9825 150.980998,92.742875 C149.108998,94.011625 148.639664,94.102625 147.589886,94.370375 C146.281442,94.704625 143.980998,95.385375 143.361442,95.598 C142.741886,95.810625 146.446775,95.35125 149.004998,94.50075 C149.402331,94.368625 150.177442,93.997625 150.538331,93.834 C151.620109,93.341375 152.84322,92.287 153.460998,92.340375 C153.551664,92.349125 153.637886,92.366625 153.716109,92.394625 C154.079664,92.5215 154.20322,92.819 153.991664,93.057 C153.444109,93.67475 152.520553,94.363375 151.221886,95.121125 C150.916109,95.299625 149.695664,95.96725 149.204998,96.109875 C147.132998,96.711 144.41922,97.054875 144.222775,97.217625 C144.026331,97.380375 145.578331,97.02425 147.498331,96.697 C147.938331,96.622625 149.66722,96.158875 149.999664,96.094125 C150.437886,96.00925 150.72322,95.887625 151.454775,95.6715 C152.914331,95.23925 153.260998,95.73275 152.60322,96.2805 C151.944553,96.829125 145.57922,98.895 142.639664,99.466375 C141.028998,99.779625 137.910775,100.66425 133.756998,100.897 L122.846775,101.49025 Z"></path><path id="[clothes]jacket--globalStyle1/people/mnurse/top/4" fill="#fafafa" d="M44.1092037,16.2611621 C50.8553405,7.64829841 63.4338791,6.79401418 71.1021102,16.2611621 C76.2142643,22.572594 78.3362567,44.1793336 77.4680874,81.0813807 L122.431842,88.26475 L122.832553,106.257828 C85.6723596,108.455316 64.0971994,104.202707 58.1070725,93.5 C49.1218821,77.4459395 37.363067,24.8740258 44.1092037,16.2611621 Z" opacity="1.00"></path><path id="shadow--globalStyle1/people/mnurse/top/4" fill="#000" fill-opacity=".04" d="M44.1092037,16.2611621 C50.8553405,7.64829841 63.4338791,6.79401418 71.1021102,16.2611621 C76.2142643,22.572594 78.3362567,44.1793336 77.4680874,81.0813807 L122.431842,88.26475 L122.832553,106.257828 C85.6723596,108.455316 64.0971994,104.202707 58.1070725,93.5 C49.1218821,77.4459395 37.363067,24.8740258 44.1092037,16.2611621 Z"></path><path id="tshirt--globalStyle1/people/mnurse/top/4" fill="#E4E4E4" d="M40.7459306,1.416099 C40.2156817,2.24663763 24.9174165,5.12848441 19.9725296,6.46155335 C2.8309801,11.0826635 1.72047076,20.7574629 2.35691926,44.5450435 C2.45729662,48.2852699 1.5133652,72.0243983 2.76628973,99.8733668 C3.10147841,107.333279 3.46265766,114.960197 3.83996898,122.3826 C5.25242181,150.168159 84.4725,147.614676 83,119.773745 C82.695283,114.01962 80.5435107,58.9660512 80.4986994,56.4502399 C80.132375,37.4645962 78.9517128,25.3761811 76.9567128,20.1849946 C72.9362411,9.72700714 70.9628463,4.42614672 58.5465256,2.89719074 C58.5465256,2.89719074 58.9722331,8.80046118 54.4068558,8.7995681 C49.8414784,8.79867502 42.4760659,-1.29384354 40.7459306,1.416099 Z"></path><path id="[clothes]jacket--globalStyle1/people/mnurse/top/4" fill="#fafafa" d="M41.4756742,0.776981132 C53.9049579,23.2053752 61.2236805,48.1005841 63.4318421,75.4626079 C65.6400036,102.824632 64.5359228,142.003762 60.1195998,193 C43.9136459,191.714793 31.787673,189.665208 23.7416812,186.851246 C15.6956893,184.037284 9.19850827,180.310618 4.25013805,175.671249 C1.41671268,105.994286 0.149371069,63.3147011 0.448113208,47.6324944 C0.896226415,24.1091842 0.896226415,17 12.3086568,9.47737773 C15.3680564,7.4607426 20.611781,5.25243374 24.6429736,4.1262782 C27.9327226,3.20725261 33.5436228,2.09082026 41.4756742,0.776981132 Z" opacity="1.00"></path><polygon id="shadow--globalStyle1/people/mnurse/top/4" fill="#FFF" points="42.1098728 39.4871735 54.5173146 36 55.4772103 40.7712637 43.1277581 44.7713374"></polygon><path id="[skin]hand--globalStyle1/people/mnurse/top/4" fill="#c3786f" d="M6.30028455,17.5629889 C6.30028455,17.5629889 26.0493549,16.2962638 33.9450592,17.5629889 C33.0862877,23.0554019 33.5954866,86.2551712 33.1594126,88.6619489 C34.5940872,92.5662275 37.2033972,106.526965 45.2649702,147.799902 L45.2649702,147.799902 C45.2696798,147.81945 45.2743156,147.840201 45.2787851,147.861014 L49.3202803,154.453866 L53.3127208,159.229955 L54.8795553,165.863312 C54.9910262,166.394088 54.6985266,166.456532 54.6414536,166.391412 C53.4277588,165.020316 52.768743,163.700067 52.305916,161.711665 C50.5544857,160.611756 50.2298826,158.755379 49.2043506,160.374468 C49.0839621,160.564476 50.224532,163.819603 52.0464118,166.678655 C52.305916,167.085434 53.4286505,169.149661 53.5829262,169.39587 C54.4693425,170.814245 54.678016,170.988197 55.454745,171.875796 C55.6928468,172.146982 55.8712001,172.591228 55.9880216,173.20675 C56.0049652,173.295064 56.0040734,173.383377 55.9844545,173.458311 C55.9336238,173.664376 55.7624046,173.729497 55.6045618,173.600148 C55.2487468,173.312905 54.873313,172.984627 54.4773684,172.61353 C53.8995035,172.072049 52.3380196,170.174638 51.1671296,168.41282 C50.3734571,167.217459 49.3764616,165.747345 49.2132683,165.613536 C48.9608982,165.408362 50.3645394,167.913266 51.3276477,170.014067 C52.2898642,172.114868 53.7568208,172.811567 55.1631372,174.314688 C55.3557589,174.521646 55.5956442,174.997114 55.879226,175.7402 C55.8943861,175.77945 55.9532427,176.187122 55.7347598,176.206747 C55.5171687,176.227265 53.5044507,174.824946 52.4905117,173.902556 C50.8006134,172.363753 50.5981823,171.923075 50.0845246,170.952514 C49.4442359,169.743773 48.2251905,167.640296 47.8684838,167.080974 C47.511777,166.521653 48.8512109,170.064023 50.2976569,172.380702 C50.5223821,172.740202 51.0717106,173.415492 51.31873,173.731281 C52.0597883,174.677756 53.3840622,175.628692 53.480373,176.25135 C53.4946413,176.341448 53.4964248,176.431546 53.4892907,176.5154 C53.4518365,176.90523 53.1914405,177.099699 52.9069669,176.948941 C52.1721509,176.560003 51.2777087,175.816917 50.224532,174.719683 C49.9766208,174.461878 49.0313478,173.420844 48.774519,172.971246 C47.6883468,171.072942 46.6984856,168.478832 46.4924874,168.324506 C46.2864892,168.171071 47.0079287,169.615316 47.7891165,171.43155 C47.9674699,171.844574 48.8369426,173.439577 48.9796253,173.750906 C49.1677882,174.162146 49.355951,174.414599 49.7429778,175.082752 C50.5161398,176.418165 50.1166282,176.881144 49.4228335,176.365534 C48.7299306,175.849923 45.1798065,170.072943 43.9143892,167.311126 C43.2214863,165.799084 41.6064964,162.938248 40.3812087,158.897216 L38.1690877,150.732182 C37.9116227,150.317706 37.7298956,149.851213 37.6432605,149.351996 C21.1170934,117.427946 13.8536604,100.296054 13.9036079,91.4886411 C11.5792895,80.3202587 4.46079335,29.3242082 6.30028455,17.5629889 Z" opacity="1.00"></path><path id="[clothes]jacket--globalStyle1/people/mnurse/top/4" fill="#fafafa" d="M6,16.2611621 C12.7461367,7.64829841 25.3246754,6.79401418 32.9929065,16.2611621 C38.1050606,22.572594 39.6360189,46.8188733 37.5857814,89 L52.4318421,147.57876 L33.3047807,152.572339 L11.3079642,98.9460577 C3.27189692,49.5647031 1.5025755,22.0030712 6,16.2611621 Z" opacity="1.00"></path><path id="shadow--globalStyle1/people/mnurse/top/4" fill="#000" fill-opacity=".02" d="M6,16.2611621 C12.7461367,7.64829841 25.3246754,6.79401418 32.9929065,16.2611621 C38.1050606,22.572594 39.6360189,46.8188733 37.5857814,89 L52.4318421,147.57876 L33.3047807,152.572339 L11.3079642,98.9460577 C3.27189692,49.5647031 1.5025755,22.0030712 6,16.2611621 Z"></path><path id="[clothes]jacket--globalStyle1/people/mnurse/top/4" fill="#fafafa" d="M60.1195998,3.00745083 C67.9476428,30.5928115 72.7183902,55.8558833 74.4318421,78.796666 C76.1452939,101.737449 76.6054011,139.515478 75.8121637,192.130752 C76.9766126,190.408763 78.4690767,188.176027 80.289556,185.432542 C82.1100353,182.689058 83.6592955,179.87821 84.9373365,177 C84.2288547,124.330277 83.2688949,87.7336438 82.0574573,67.2101016 C80.2403009,36.4247882 80.289556,19.5349195 75.8121637,12 C72.8272355,6.97672035 67.5963808,3.97920396 60.1195998,3.00745083 Z" opacity="1.00"></path><path id="Path-357--globalStyle1/people/mnurse/top/4" fill="#979797" fill-rule="nonzero" d="M30.9255434,4.60473381 L31.6694328,5.61526414 L32.3836156,6.60882397 C37.2789449,13.5042798 39.9915603,19.1503161 40.5366678,23.5030769 L40.6909517,24.7695317 C41.2063527,29.126373 41.4635617,32.6876497 41.4635617,35.4476477 C41.4635617,35.9999324 41.911277,36.4476477 42.4635617,36.4476477 C43.0158465,36.4476477 43.4635617,35.9999324 43.4635617,35.4476477 C43.4635617,32.3297504 43.1489996,28.2678879 42.5211667,23.2545529 C41.8719966,18.0708375 38.5348473,11.4752894 32.5296962,3.41029093 C32.1998599,2.96731637 31.5733729,2.87559968 31.1303984,3.20543597 C30.6874238,3.53527227 30.5957071,4.16175925 30.9255434,4.60473381 Z"></path><path id="Combined-Shape--globalStyle1/people/mnurse/top/4" fill="#979797" fill-rule="nonzero" d="M63.0853898,3.20543597 C63.5283644,2.87559968 64.1548514,2.96731637 64.4846877,3.41029093 C70.4898388,11.4752894 73.8269881,18.0708375 74.4761582,23.2545529 C75.1039911,28.2678879 75.4185532,32.3297504 75.4185532,35.4476477 C75.4185532,35.5000135 75.4145281,35.5514392 75.4067705,35.6016323 C77.9742256,36.38313 79.4167148,40.1902521 79.8795168,46.8453078 C79.9028984,47.1815337 79.6600352,47.4738312 79.3370667,47.4981727 C79.3047698,47.5006068 79.272895,47.5002692 79.2416572,47.4973536 L79.2028433,47.4899277 L79.2028433,47.4899277 L76.3289799,49.2581817 C76.0937909,49.4028907 75.7858226,49.3295421 75.6411135,49.094353 C75.4964045,48.859164 75.5697531,48.5511957 75.8049421,48.4064866 L78.6788055,46.6382327 L78.6882273,46.6329693 C78.1836764,39.9095096 76.6718826,36.6689756 74.3547133,36.6689756 C72.0528698,36.6689756 70.8705586,40.1198542 71.0763764,47.3196607 L71.0665617,46.9724508 L73.741951,48.6181773 C73.951008,48.7468076 74.032191,49.0044328 73.9460169,49.2252756 L73.9057796,49.3060437 C73.7610706,49.5412328 73.4531023,49.6145814 73.2179132,49.4698723 L73.2179132,49.4698723 L70.6862664,47.9132804 C70.6302838,47.9339246 70.5703123,47.9459938 70.5077602,47.9479318 C70.1840897,47.9579596 69.9138943,47.6929314 69.9042619,47.3559747 C69.7026072,40.3018006 70.811172,36.3008494 73.425674,35.5703 C73.4211292,35.5308313 73.4185532,35.4895403 73.4185532,35.4476477 C73.4185532,32.6876497 73.1613441,29.126373 72.6459432,24.7695317 L72.6459432,24.7695317 L72.4916593,23.5030769 C71.9465518,19.1503161 69.2339364,13.5042798 64.3386071,6.60882397 L64.3386071,6.60882397 L63.6244243,5.61526414 L62.8805349,4.60473381 C62.5506986,4.16175925 62.6424152,3.53527227 63.0853898,3.20543597 Z M42.4635617,32.9476477 C44.3965583,32.9476477 45.9635617,34.5146511 45.9635617,36.4476477 C45.9635617,38.3806443 44.3965583,39.9476477 42.4635617,39.9476477 C40.5305651,39.9476477 38.9635617,38.3806443 38.9635617,36.4476477 C38.9635617,34.5146511 40.5305651,32.9476477 42.4635617,32.9476477 Z"></path></g></g></svg></g>
</g>
</g></g><g transform="translate(42.99999999999994,364)">
<g transform="translate(24.5,177.0000000000018)">

<g><svg xmlns="http://www.w3.org/2000/svg" width="251" height="250" viewBox="0 0 251 250"><g id="Symbols--globalStyle1/people/nurse/bottom/3" fill="none" fill-rule="evenodd" stroke="none" stroke-width="1"><g id="globalStyle1/people/nurse/bottom/3--globalStyle1/people/nurse/bottom/3"><path id="[skin]leg---globalStyle1/people/nurse/bottom/3" fill="#f0a19e" d="M129.1521,15.3267653 C142.0721,15.3048 152.5651,25.7598 152.587135,38.6798 C152.589914,40.3145683 152.424959,41.9104647 152.108498,43.4511983 L134.343976,136.128686 C134.316087,136.298914 134.283706,136.467636 134.246958,136.634726 L133.8315,138.7977 L133.7635,138.775731 L118.269269,233.575153 C114.452441,232.783893 112.690729,232.415741 112.267258,232.556486 L112.231457,232.571174 C112.231457,232.571174 112.517232,213.396718 115.27291,133.129484 L115.27291,133.129484 L115.431782,133.157219 C115.43198,133.155883 115.432177,133.154547 115.432376,133.153211 L115.3245,133.1207 L105.7615,40.3067 L105.853302,40.3107808 C105.818912,39.7988014 105.80099,39.2822997 105.800062,38.7618 C105.7771,25.8418 116.2331,15.3498 129.1521,15.3267653 Z" opacity="1.00"></path><path id="[skin]leg---globalStyle1/people/nurse/bottom/3" fill="#f0a19e" d="M154.75,17.7076667 C166.999,17.6867 176.947,27.5987 176.968033,39.8477 C176.972429,42.4158946 176.540175,44.882894 175.741282,47.1784385 L160.945825,136.996972 C160.901716,137.712021 160.774125,138.404515 160.572669,139.064816 L144.809455,240.146601 L139.620861,244.322382 L139.031776,237.589102 C139.031776,237.589102 143.132534,150.506794 142.990803,137.202146 C142.968678,136.957812 142.957549,136.704463 142.957085,136.4486 C142.956895,136.343294 142.958514,136.238406 142.961914,136.133965 C142.961068,136.102335 142.959624,136.07651 142.958133,136.051517 C142.979569,135.700539 143.01431,135.354539 143.068063,135.01484 L134.089428,47.8663049 C133.138919,45.4019069 132.615771,42.7248233 132.610963,39.9257 C132.589,27.6767 142.501,17.7287 154.75,17.7076667 Z" opacity="1.00"></path><path id="Fill-15--globalStyle1/people/nurse/bottom/3" fill="#E9E9E9" d="M138.489405,221.7623 L138.489405,247.2283 L165.248405,247.2103 C165.170405,245.5713 165.012405,244.6423 161.828405,244.5793 C157.051405,244.4873 145.532405,245.0063 145.529405,240.4463 C145.528405,239.4733 147.409405,233.7153 149.902405,223.0983 L138.489405,221.7623 Z"></path><path id="Fill-15-Copy--globalStyle1/people/nurse/bottom/3" fill="#E9E9E9" d="M110.5,221.7623 L110.5,247.2283 L137.259,247.2103 C137.181,245.5713 137.023,244.6423 133.839,244.5793 C129.062,244.4873 117.543,245.0063 117.54,240.4463 C117.539,239.4733 119.42,233.7153 121.913,223.0983 L110.5,221.7623 Z"></path><path id="shadow--globalStyle1/people/nurse/bottom/3" fill="#000" fill-opacity=".04" d="M138.489405,221.7623 L138.489405,247.2283 L165.248405,247.2103 C165.170405,245.5713 165.012405,244.6423 161.828405,244.5793 C157.051405,244.4873 145.532405,245.0063 145.529405,240.4463 C145.528405,239.4733 147.409405,233.7153 149.902405,223.0983 L138.489405,221.7623 Z"></path><path id="[clothes]shoes--globalStyle1/people/nurse/bottom/3" fill="#6b8fff" d="M138.489405 249.0396L165.248405 249.0396 165.248405 247.1556C165.248405 247.1556 156.010405 247.1406 138.489405 247.1556L138.489405 249.0396zM110.5 249.0396L137.259 249.0396 137.259 247.1556C137.259 247.1556 128.021 247.1406 110.5 247.1556L110.5 249.0396z" opacity="1.00"></path><polygon id="[clothes]pants--globalStyle1/people/nurse/bottom/3" fill="#6b8fff" points="181.775642 15.3267308 154.688473 225.409031 134.949973 225.409031 132.610927 15.3267308" opacity="1.00"></polygon><polygon id="shadow--globalStyle1/people/nurse/bottom/3" fill="#000" fill-opacity=".02" points="181.775642 15.3267308 154.688473 225.409031 134.949973 225.409031 132.610927 15.3267308"></polygon><polygon id="[clothes]pants--globalStyle1/people/nurse/bottom/3" fill="#6b8fff" points="152.587169 15.3267308 125.5 225.409031 105.7615 225.409031 103.422454 15.3267308" opacity="1.00"></polygon></g></g></svg></g>
</g>
<g transform="translate(105.5,30)">

<g><svg xmlns="http://www.w3.org/2000/svg" width="120" height="150" viewBox="0 0 120 150"><g id="Symbols--globalStyle1/people/nurse/head/2" fill="none" fill-rule="evenodd" stroke="none" stroke-width="1"><g id="globalStyle1/people/nurse/head/2--globalStyle1/people/nurse/head/2"><path id="[hair]hair--globalStyle1/people/nurse/head/2" fill="#ff93d4" d="M94.0540717,79.6463918 C87.1176963,124.672304 67.5098558,145.292691 55.2034762,131.518032 C54.8966675,131.174617 43.1261951,108.246693 52.3489613,64.5646643 C57.6947611,39.2452125 62.6664326,28.7346159 79.0682835,28.7346159 C96.0633366,28.7346159 96.0633366,66.6037025 94.0540717,79.6463918 Z" opacity="1.00"></path><path id="shadow--globalStyle1/people/nurse/head/2" fill="#000" fill-opacity=".2" d="M94.0540717,79.6463918 C87.1176963,124.672304 67.5098558,145.292691 55.2034762,131.518032 C54.8966675,131.174617 43.1261951,108.246693 52.3489613,64.5646643 C57.6947611,39.2452125 62.6664326,28.7346159 79.0682835,28.7346159 C96.0633366,28.7346159 96.0633366,66.6037025 94.0540717,79.6463918 Z"></path><g id="Group--globalStyle1/people/nurse/head/2" transform="translate(35.216 19.964)"><polygon id="[skin]skin--globalStyle1/people/nurse/head/2" fill="#f0a19e" points="5.57059381 71.1663914 39.598495 20.4386873 48.9854646 31.9638476 31.3316378 76.6420703" transform="rotate(-12 27.278 48.54)" opacity="1.00"></polygon><polygon id="shadow--globalStyle1/people/nurse/head/2" fill="#000" fill-opacity=".04" points="5.57059381 71.1663914 39.598495 20.4386873 48.9854646 31.9638476 31.3316378 76.6420703" transform="rotate(-12 27.278 48.54)"></polygon><ellipse id="[skin]skin--globalStyle1/people/nurse/head/2" cx="45.328" cy="19.336" fill="#f0a19e" rx="10.236" ry="17.511" transform="rotate(-12 45.328 19.336)" opacity="1.00"></ellipse><path id="smile--globalStyle1/people/nurse/head/2" fill="#FFF" fill-rule="nonzero" d="M50.6623358,30.3469927 C51.3403309,30.3466344 52.7288499,29.8862396 52.7297211,28.2396809 C52.7297211,28.2396809 48.5971791,28.2418639 48.5971791,28.2418639 C48.5963727,29.766537 49.9843407,30.3473507 50.6623358,30.3469927 Z" transform="rotate(4 50.663 29.293)"></path></g><path id="[hair]hair--globalStyle1/people/nurse/head/2" fill="#ff93d4" d="M48.8269456,108.189973 C46.4339456,141.080573 14.6487474,178.25258 7.79465594,117.67372 C4.79837481,91.1915385 21.4614205,75.1463918 36.9734762,53.1463918 C45.7378733,40.7162703 49.2556389,32.463705 53.2496389,25.0608613 C59.5546389,13.3734679 69.0176389,5.8196268 88.1016389,19.4232958 C93.3146389,23.1386253 90.5826389,26.2062557 79.9056389,28.6251935 C79.5616389,30.1907976 76.4096394,30.5341987 74.5508546,36.258276 C74.2253771,36.7641865 69.4326389,50.5222061 60,64.6827332 C49.1825126,80.9222314 49.0932933,104.525519 48.8269456,108.189973 Z" opacity="1.00"></path><path id="Rectangle--globalStyle1/people/nurse/head/2" fill="#FAFAFA" d="M56.922644,7.00043856 C62.2840438,8.08245226 67.465928,8.62345911 72.4682964,8.62345911 C77.4706648,8.62345911 82.652549,8.08245226 88.0139488,7.00043856 L88.0139488,19.3105495 C83.0276636,20.7318352 77.8457794,21.4424781 72.4682964,21.4424781 C67.0908134,21.4424781 61.9089292,20.7318352 56.922644,19.3105495 L56.922644,7.00043856 Z"></path><path id="Combined-Shape--globalStyle1/people/nurse/head/2" fill="#B11313" fill-rule="nonzero" d="M84.9354433,11.0637935 C85.2115857,11.0637935 85.4354433,11.2876511 85.4354433,11.5637935 L85.4354433,11.5637935 L85.4344985,13.5777935 L86.9730378,13.4965474 C87.2181486,13.4834617 87.4314361,13.649202 87.4861466,13.8798626 L87.4989821,13.969181 C87.5137035,14.2449306 87.3020982,14.480404 87.0263486,14.4951253 L87.0263486,14.4951253 L85.4344985,14.5797935 L85.4354433,16.8791232 C85.4354433,17.1245831 85.2585682,17.3287315 85.025319,17.3710675 L84.9354433,17.3791232 C84.659301,17.3791232 84.4354433,17.1552656 84.4354433,16.8791232 L84.4354433,16.8791232 L84.4344985,14.6327935 L82.8001667,14.7207473 C82.5550559,14.733833 82.3417684,14.5680926 82.2870579,14.3374321 L82.2742224,14.2481137 C82.259501,13.972364 82.4711063,13.7368907 82.7468559,13.7221693 L82.7468559,13.7221693 L84.4344985,13.6317935 L84.4354433,11.5637935 C84.4354433,11.3183336 84.6123185,11.1141851 84.8455677,11.0718491 Z"></path></g></g></svg></g>
</g>
<g transform="translate(118.5,97)">

<g><svg xmlns="http://www.w3.org/2000/svg" width="193" height="178" viewBox="0 0 193 178"><g id="Symbols--globalStyle1/people/nurse/top/4" fill="none" fill-rule="evenodd" stroke="none" stroke-width="1"><g id="globalStyle1/people/nurse/top/4--globalStyle1/people/nurse/top/4"><path id="[skin]hand--globalStyle1/people/nurse/top/4" fill="#f0a19e" d="M88.7970472,27.0902324 C89.217937,31.9431782 90.3995272,76.0987729 90.7113917,89.5548537 C99.3710124,91.6418072 114.386432,95.7730084 137.33411,101.604404 L137.062023,101.535232 L144.281859,99.8209865 L150.215869,97.8121828 L156.968021,98.8010242 C157.5025,98.893383 157.450744,99.194553 157.368134,99.2256739 C155.640284,99.8641542 154.165241,99.996669 152.144771,99.695499 C150.465691,100.947362 148.6194,100.561865 149.740113,102.139995 C149.871494,102.324713 153.323213,102.457228 156.662462,101.794654 C157.137223,101.701291 159.477186,101.406145 159.763834,101.35093 C161.41405,101.038717 161.652924,100.906202 162.768661,100.498619 C163.111046,100.374135 163.589788,100.371124 164.205882,100.490588 C164.294464,100.50665 164.376079,100.540783 164.438784,100.586962 C164.610971,100.713454 164.605995,100.899175 164.427835,101.000569 C164.027722,101.231466 163.581826,101.464371 163.088154,101.703299 C162.368548,102.049644 160.020623,102.824655 157.943421,103.277414 C156.536059,103.585611 154.79527,103.981148 154.610143,104.087561 C154.32449,104.250193 157.179026,103.852649 159.492116,103.722142 C161.80421,103.592639 163.002558,102.460239 164.926483,101.687236 C165.191234,101.579819 165.721732,101.531632 166.518972,101.538659 C166.560775,101.538659 166.961883,101.635034 166.898183,101.849868 C166.835479,102.064703 164.779178,103.453096 163.541018,104.070495 C161.47775,105.099492 160.993036,105.127602 159.8982,105.254093 C158.534632,105.409697 156.123007,105.78114 155.470087,105.911647 C154.816171,106.042154 158.610275,106.092349 161.304567,105.584376 C161.72359,105.505068 162.556661,105.236023 162.94284,105.11957 C164.10038,104.768205 165.478878,103.865699 166.093976,104.007249 C166.183554,104.028331 166.268155,104.058448 166.342803,104.0976 C166.692155,104.278302 166.774765,104.597542 166.52793,104.811373 C165.889939,105.364522 164.864774,105.935741 163.450445,106.526034 C163.118013,106.665576 161.796248,107.174554 161.28267,107.25085 C159.111909,107.573102 156.33003,107.543989 156.110068,107.682527 C155.890106,107.820061 157.5025,107.674496 159.482163,107.610246 C159.934031,107.596192 161.740511,107.366298 162.083891,107.347224 C162.536755,107.321123 162.841318,107.236795 163.607704,107.119339 C165.138483,106.883423 165.418164,107.434564 164.679647,107.900373 C163.93914,108.367187 157.24173,109.579898 154.202068,109.750561 C152.535926,109.844927 149.274311,110.309733 145.059192,109.964391 L136.559023,108.595232 C107.685983,109.123333 86.3264706,109.453275 78.5770008,104.673177 L78.3835009,104.550476 C77.3709494,103.990217 76.4942251,103.244806 75.8580771,102.382727 C75.7762208,102.271778 75.6949456,102.152352 75.6142481,102.02467 C74.670135,100.771054 74.1380534,99.4068281 73.9507798,98.0364976 C69.2228606,82.670984 66.8487972,38.9761883 65.9050231,28.0941324 C65.9050231,28.0941324 80.5897589,27.8150482 88.7970472,27.0902324 Z" transform="rotate(-10 116.405 68.59)" opacity="1.00"></path><path id="shadow--globalStyle1/people/nurse/top/4" fill="#000" fill-opacity=".04" d="M88.7970472,27.0902324 C89.217937,31.9431782 90.3995272,76.0987729 90.7113917,89.5548537 C99.3710124,91.6418072 114.386432,95.7730084 137.33411,101.604404 L137.062023,101.535232 L144.281859,99.8209865 L150.215869,97.8121828 L156.968021,98.8010242 C157.5025,98.893383 157.450744,99.194553 157.368134,99.2256739 C155.640284,99.8641542 154.165241,99.996669 152.144771,99.695499 C150.465691,100.947362 148.6194,100.561865 149.740113,102.139995 C149.871494,102.324713 153.323213,102.457228 156.662462,101.794654 C157.137223,101.701291 159.477186,101.406145 159.763834,101.35093 C161.41405,101.038717 161.652924,100.906202 162.768661,100.498619 C163.111046,100.374135 163.589788,100.371124 164.205882,100.490588 C164.294464,100.50665 164.376079,100.540783 164.438784,100.586962 C164.610971,100.713454 164.605995,100.899175 164.427835,101.000569 C164.027722,101.231466 163.581826,101.464371 163.088154,101.703299 C162.368548,102.049644 160.020623,102.824655 157.943421,103.277414 C156.536059,103.585611 154.79527,103.981148 154.610143,104.087561 C154.32449,104.250193 157.179026,103.852649 159.492116,103.722142 C161.80421,103.592639 163.002558,102.460239 164.926483,101.687236 C165.191234,101.579819 165.721732,101.531632 166.518972,101.538659 C166.560775,101.538659 166.961883,101.635034 166.898183,101.849868 C166.835479,102.064703 164.779178,103.453096 163.541018,104.070495 C161.47775,105.099492 160.993036,105.127602 159.8982,105.254093 C158.534632,105.409697 156.123007,105.78114 155.470087,105.911647 C154.816171,106.042154 158.610275,106.092349 161.304567,105.584376 C161.72359,105.505068 162.556661,105.236023 162.94284,105.11957 C164.10038,104.768205 165.478878,103.865699 166.093976,104.007249 C166.183554,104.028331 166.268155,104.058448 166.342803,104.0976 C166.692155,104.278302 166.774765,104.597542 166.52793,104.811373 C165.889939,105.364522 164.864774,105.935741 163.450445,106.526034 C163.118013,106.665576 161.796248,107.174554 161.28267,107.25085 C159.111909,107.573102 156.33003,107.543989 156.110068,107.682527 C155.890106,107.820061 157.5025,107.674496 159.482163,107.610246 C159.934031,107.596192 161.740511,107.366298 162.083891,107.347224 C162.536755,107.321123 162.841318,107.236795 163.607704,107.119339 C165.138483,106.883423 165.418164,107.434564 164.679647,107.900373 C163.93914,108.367187 157.24173,109.579898 154.202068,109.750561 C152.535926,109.844927 149.274311,110.309733 145.059192,109.964391 L136.559023,108.595232 C107.685983,109.123333 86.3264706,109.453275 78.5770008,104.673177 L78.3835009,104.550476 C77.3709494,103.990217 76.4942251,103.244806 75.8580771,102.382727 C75.7762208,102.271778 75.6949456,102.152352 75.6142481,102.02467 C74.670135,100.771054 74.1380534,99.4068281 73.9507798,98.0364976 C69.2228606,82.670984 66.8487972,38.9761883 65.9050231,28.0941324 C65.9050231,28.0941324 80.5897589,27.8150482 88.7970472,27.0902324 Z" transform="rotate(-10 116.405 68.59)"></path><path id="[clothes]jacket--globalStyle1/people/nurse/top/4" fill="#fafafa" d="M65.0221378,21.4466277 C68.8649743,14.4016222 83.0943324,13.005507 87.1569169,17.7921348 C93.7667349,25.5799702 89.3667889,83.937312 90.6053297,88.8005081 C91.8438705,93.6637043 131.988031,101.926247 134.678564,103.468564 C134.678564,103.468564 134.540305,113.807755 134.540305,113.807755 C116.435679,122.729441 82.9622762,117.308799 75.4570071,112.955398 C66.4792783,107.747904 61.9627734,85.9946381 61.9074924,47.6956016 C61.4220317,34.8929559 62.4602468,26.143298 65.0221378,21.4466277 Z" transform="rotate(-11 98.235 66.799)" opacity="1.00"></path><path id="shadow--globalStyle1/people/nurse/top/4" fill="#000" fill-opacity=".02" d="M65.0221378,21.4466277 C68.8649743,14.4016222 83.0943324,13.005507 87.1569169,17.7921348 C93.7667349,25.5799702 89.3667889,83.937312 90.6053297,88.8005081 C91.8438705,93.6637043 131.988031,101.926247 134.678564,103.468564 C134.678564,103.468564 134.540305,113.807755 134.540305,113.807755 C116.435679,122.729441 82.9622762,117.308799 75.4570071,112.955398 C66.4792783,107.747904 61.9627734,85.9946381 61.9074924,47.6956016 C61.4220317,34.8929559 62.4602468,26.143298 65.0221378,21.4466277 Z" transform="rotate(-11 98.235 66.799)"></path><path id="tshirt--globalStyle1/people/nurse/top/4" fill="#ECECEC" d="M40.6224951,9.79368109 C6.01424675,9.79368109 1.44516813,34.837227 2.35985658,68.33448 C2.66006716,79.3046261 3.13615485,103.537576 6.61719198,109.310078 C15.2212207,123.580932 40.4959292,124.14424 82.4413174,111 C84.8405427,104.719593 85.3135586,84.9885091 83.8603654,51.8067478 L76.9513084,26.2522101 C69.1935125,18.0382742 64.2223551,12.9392595 62.0378361,10.9551661 C61.2873685,12.983153 58.3916639,15.2478964 56.2620764,15.2478964 C53.3684078,14.9081616 42.7778134,10.4835845 40.6224951,9.79368109 Z"></path><path id="[clothes]jacket--globalStyle1/people/nurse/top/4" fill="#fafafa" d="M40.6224951,9.79368109 C49.4521324,23.599262 54.907952,45.3202572 56.9899538,74.9566665 C59.0719556,104.593076 60.754583,138.940854 62.0378361,178 L4.65946439,178 L1,57.3415823 C0.890894076,37.4574443 4.22422741,24.2430608 11,17.6984319 C17.7757726,11.1538031 27.6499376,8.51888612 40.6224951,9.79368109 Z" opacity="1.00"></path><path id="[clothes]jacket--globalStyle1/people/nurse/top/4" fill="#fafafa" d="M86.8556417,10.0868979 C79.5113702,19.8918621 75.8910337,39.4041596 75.9946322,68.6237903 C76.0982306,97.843421 78.6422438,134.224505 83.6266718,177.767041 L75.1693207,177.682833 C70.7928788,121.514849 68.370974,81.4477389 67.9036062,57.4815031 C67.2025544,21.5321493 75.7845315,16.6529087 77.4237998,14.8890043 C78.5166454,13.713068 81.6605927,12.1123658 86.8556417,10.0868979 Z" transform="scale(-1 1) rotate(4 0 -2121.354)" opacity="1.00"></path><path id="[skin]hand--globalStyle1/people/nurse/top/4" fill="#f0a19e" d="M31.5158666,148.424484 C21.2126053,124.491658 15.6016351,107.79982 14.5910392,97.5417565 C11.8770268,81.1201837 11,39.7138203 11,29 C11,29 23.1117102,30.8517008 31.2999504,30.8517008 C31.2999504,36.4537194 33.668278,93.4162273 33.668278,95.880836 C33.668278,96.4384358 33.6514212,96.9723993 33.6187392,97.4835018 C34.1834952,104.599267 35.4339941,117.08699 38.3418733,146.46198 L38.3418733,146.46198 L38.1751684,146.509118 C38.1752539,146.509452 38.1753393,146.509785 38.1754247,146.510119 L38.3412798,146.46228 L42.480412,152.3438 L46.4483994,157.179185 L47.9530887,163.850299 C48.0599305,164.383349 47.7651262,164.443242 47.7067589,164.376362 C46.500831,162.987836 45.8518657,161.656208 45.4076807,159.657769 C43.6556723,158.533772 43.3489966,156.668096 42.2993744,158.281221 C42.1767041,158.469885 43.2886507,161.749043 45.0921015,164.635899 C45.3473348,165.046168 46.4563136,167.129456 46.6086621,167.378013 C47.4861502,168.811459 47.6938983,168.988145 48.4665231,169.886544 C48.7039494,170.162053 48.878062,170.609256 48.9898503,171.228153 C49.0056787,171.316995 49.0027109,171.404839 48.9829253,171.480703 C48.9285151,171.687335 48.7563811,171.748227 48.5980968,171.618458 C48.2439359,171.325979 47.8690002,170.991575 47.4742789,170.615246 C46.8975308,170.067222 45.3463455,168.146644 44.1869137,166.365817 C43.400439,165.157969 42.4141305,163.670619 42.2508999,163.535859 C41.9986344,163.326233 43.3846105,165.854727 44.331348,167.972953 C45.2770962,170.091179 46.7471608,170.806904 48.1459976,172.33019 C48.3379172,172.539816 48.5733649,173.018963 48.8513516,173.767629 C48.8661907,173.807558 48.9206009,174.21583 48.7019709,174.2328 C48.4813622,174.251766 46.4701634,172.823311 45.459123,171.885981 C43.7743854,170.323765 43.5765302,169.879556 43.0690314,168.901299 C42.4378731,167.680474 41.2339238,165.557258 40.8797629,164.992264 C40.5265912,164.427271 41.8373824,167.995912 43.2678759,170.335744 C43.4904631,170.698098 44.0355544,171.38188 44.2808949,171.70131 C45.0169165,172.658605 46.3405682,173.62688 46.4305924,174.253763 C46.443453,174.344601 46.4454315,174.434441 46.436528,174.518291 C46.3939892,174.908596 46.1298524,175.101253 45.8459301,174.946528 C45.1099085,174.548238 44.2165919,173.792584 43.1689483,172.680566 C42.9216292,172.419032 41.9818167,171.363912 41.7275727,170.909721 C40.6542079,168.994134 39.6876849,166.38079 39.4809261,166.225068 C39.2751566,166.068347 39.9864463,167.52575 40.7521462,169.354492 C40.9282374,169.772747 41.7849507,171.379883 41.9254279,171.695321 C42.1104226,172.110581 42.2973959,172.364129 42.6802458,173.039925 C43.4439671,174.387524 43.0373746,174.846706 42.3438918,174.321642 C41.6513984,173.796577 38.1404567,167.962971 36.8969363,165.178932 C36.2153249,163.654647 34.6216008,160.766793 33.4315013,156.700039 L31.5162623,148.424783 Z" opacity="1.00"></path><path id="[clothes]jacket--globalStyle1/people/nurse/top/4" fill="#fafafa" d="M8.23550365,27.2622386 C13.0968516,16.8001997 27.7958096,18.7844722 31.0250389,28.2712221 C32.312567,32.0536905 35.6049127,64.7384159 38.2855566,105.055163 C38.9444388,114.964719 39.5913598,128.767091 40.2263194,146.46228 L28.5741074,150.881227 C18.9295007,130.721324 13.0714649,115.44597 11,105.055163 C2.82818528,64.0640041 5.88742363,32.3155088 8.23550365,27.2622386 Z" opacity="1.00"></path><path id="shadow--globalStyle1/people/nurse/top/4" fill="#000" fill-opacity=".02" d="M8.23550365,27.2622386 C13.0968516,16.8001997 27.7958096,18.7844722 31.0250389,28.2712221 C32.312567,32.0536905 35.6049127,64.7384159 38.2855566,105.055163 C38.9444388,114.964719 39.5913598,128.767091 40.2263194,146.46228 L28.5741074,150.881227 C18.9295007,130.721324 13.0714649,115.44597 11,105.055163 C2.82818528,64.0640041 5.88742363,32.3155088 8.23550365,27.2622386 Z"></path><polygon id="shadow--globalStyle1/people/nurse/top/4" fill="#FFF" points="37.7206501 52.9191913 50.1280919 49.4320178 51.0879875 54.2032816 38.7385354 58.2033552"></polygon><path id="Path-357--globalStyle1/people/nurse/top/4" fill="#979797" fill-rule="nonzero" d="M32.8663005,10.2259189 L33.6101899,11.2364492 L34.3243727,12.2300091 C39.219702,19.1254649 41.9323175,24.7715012 42.4774249,29.124262 L42.6317088,30.3907168 C43.1471098,34.7475581 43.4043188,38.3088348 43.4043188,41.0688328 C43.4043188,41.6211175 43.8520341,42.0688328 44.4043188,42.0688328 C44.9566036,42.0688328 45.4043188,41.6211175 45.4043188,41.0688328 C45.4043188,37.9509355 45.0897567,33.889073 44.4619238,28.875738 C43.8127537,23.6920226 40.4756044,17.0964745 34.4704533,9.03147602 C34.140617,8.58850146 33.51413,8.49678477 33.0711555,8.82662106 C32.6281809,9.15645736 32.5364642,9.78294434 32.8663005,10.2259189 Z"></path><path id="Combined-Shape--globalStyle1/people/nurse/top/4" fill="#979797" fill-rule="nonzero" d="M65.0261469,8.82662106 C65.4691215,8.49678477 66.0956085,8.58850146 66.4254448,9.03147602 C72.4305959,17.0964745 75.7677452,23.6920226 76.4169153,28.875738 C77.0447482,33.889073 77.3593103,37.9509355 77.3593103,41.0688328 C77.3593103,41.1211986 77.3552852,41.1726243 77.3475276,41.2228174 C79.9149827,42.0043151 81.3574719,45.8114372 81.8202739,52.4664928 C81.8436555,52.8027188 81.6007923,53.0950163 81.2778238,53.1193577 C81.245527,53.1217919 81.2136521,53.1214543 81.1824143,53.1185387 L81.1436004,53.1111128 L81.1436004,53.1111128 L78.2697371,54.8793667 C78.034548,55.0240758 77.7265797,54.9507272 77.5818706,54.7155381 C77.4371616,54.4803491 77.5105102,54.1723808 77.7456993,54.0276717 L80.6195626,52.2594178 L80.6289844,52.2541544 C80.1244336,45.5306946 78.6126397,42.2901606 76.2954704,42.2901606 C73.9936269,42.2901606 72.8113157,45.7410393 73.0171335,52.9408458 L73.0073188,52.5936359 L75.6827081,54.2393624 C75.8917651,54.3679927 75.9729481,54.6256179 75.886774,54.8464607 L75.8465367,54.9272288 C75.7018277,55.1624179 75.3938594,55.2357665 75.1586703,55.0910574 L75.1586703,55.0910574 L72.6270236,53.5344655 C72.5710409,53.5551097 72.5110694,53.5671789 72.4485173,53.5691168 C72.1248468,53.5791447 71.8546514,53.3141165 71.845019,52.9771598 C71.6433643,45.9229857 72.7519291,41.9220345 75.3664311,41.1914851 C75.3618863,41.1520164 75.3593103,41.1107254 75.3593103,41.0688328 C75.3593103,38.3088348 75.1021012,34.7475581 74.5867003,30.3907168 L74.5867003,30.3907168 L74.4324164,29.124262 C73.8873089,24.7715012 71.1746935,19.1254649 66.2793642,12.2300091 L66.2793642,12.2300091 L65.5651814,11.2364492 L64.821292,10.2259189 C64.4914557,9.78294434 64.5831724,9.15645736 65.0261469,8.82662106 Z M44.4043188,38.5688328 C46.3373154,38.5688328 47.9043188,40.1358361 47.9043188,42.0688328 C47.9043188,44.0018294 46.3373154,45.5688328 44.4043188,45.5688328 C42.4713222,45.5688328 40.9043188,44.0018294 40.9043188,42.0688328 C40.9043188,40.1358361 42.4713222,38.5688328 44.4043188,38.5688328 Z"></path></g></g></svg></g>
</g></g></svg>