<?xml version="1.0" encoding="UTF-8"?>
<svg id="illustration-builder" width="1000" height="880" viewBox="-10 -30 1070 940" version="1.1" xmlns="http://www.w3.org/2000/svg" xmlns:xlink="http://www.w3.org/1999/xlink" style="pointer-events: none;"><g transform="translate(194.5,165)">
<g><svg xmlns="http://www.w3.org/2000/svg" width="582" height="550" viewBox="0 0 582 550"><g id="Symbols--globalStyle1/objects/money/1" fill="none" fill-rule="evenodd" stroke="none" stroke-width="1"><g id="globalStyle1/objects/money/1--globalStyle1/objects/money/1" fill-rule="nonzero"><path id="[color:objects]progress--globalStyle1/objects/money/1" fill="#7d9d79" d="M303.5,75 C413.680808,75 503,164.54305 503,275 C503,385.45695 413.680808,475 303.5,475 C299.301702,475 295.133693,474.869993 290.99976,474.613776 C286.866978,474.869972 282.698636,475 278.5,475 C168.319192,475 79,385.45695 79,275 C79,164.54305 168.319192,75 278.5,75 C282.698636,75 286.866978,75.1300279 291.001238,75.3862859 C295.133693,75.1300069 299.301702,75 303.5,75 Z" opacity="1.00"></path><path id="Combined-Shape--globalStyle1/objects/money/1" fill="#FFF" d="M279,75 C389.45695,75 479,164.54305 479,275 C479,385.45695 389.45695,475 279,475 C168.54305,475 79,385.45695 79,275 C79,164.54305 168.54305,75 279,75 Z M279,122.28137 C194.655829,122.28137 126.28137,190.655829 126.28137,275 C126.28137,341.896307 169.293213,398.74666 229.170501,419.404661 C178.87655,396.05416 144,345.100007 144,286 C144,204.814142 209.814142,139 291,139 C345.57366,139 393.201432,168.73888 418.561719,212.895043 C394.766183,159.501636 341.229721,122.28137 279,122.28137 Z" opacity=".689"></path></g></g></svg></g></g></svg>