<?xml version="1.0" encoding="UTF-8"?>
<svg id="illustration-builder" width="600" height="528" viewBox="-10 -30 670 588" version="1.1" xmlns="http://www.w3.org/2000/svg" xmlns:xlink="http://www.w3.org/1999/xlink" style="pointer-events: none;"><g transform="translate(132,50.5)">
<g transform="translate(53,34)">

<g><svg xmlns="http://www.w3.org/2000/svg" width="120" height="205" viewBox="0 0 120 205"><g id="Symbols--globalStyle1/people/womansitting/head/8" fill="none" fill-rule="evenodd" stroke="none" stroke-width="1"><g id="globalStyle1/people/womansitting/head/8--globalStyle1/people/womansitting/head/8"><path id="[hair]hair--globalStyle1/people/womansitting/head/8" fill="#cac9c9" d="M94.0540717,137.646392 C87.1176963,182.672304 67.5098558,203.292691 55.2034762,189.518032 C54.8966675,189.174617 43.1261951,166.246693 52.3489613,122.564664 C57.6947611,97.2452125 62.6664326,86.7346159 79.0682835,86.7346159 C96.0633366,86.7346159 96.0633366,124.603703 94.0540717,137.646392 Z" opacity="1.00"></path><path id="shadow--globalStyle1/people/womansitting/head/8" fill="#000" fill-opacity=".2" d="M94.0540717,137.646392 C87.1176963,182.672304 67.5098558,203.292691 55.2034762,189.518032 C54.8966675,189.174617 43.1261951,166.246693 52.3489613,122.564664 C57.6947611,97.2452125 62.6664326,86.7346159 79.0682835,86.7346159 C96.0633366,86.7346159 96.0633366,124.603703 94.0540717,137.646392 Z"></path><g id="Group--globalStyle1/people/womansitting/head/8" transform="translate(35.216 77.964)"><polygon id="[skin]neck--globalStyle1/people/womansitting/head/8" fill="#ffbcba" points="5.57059381 71.1663914 39.598495 20.4386873 48.9854646 31.9638476 31.3316378 76.6420703" transform="rotate(-12 27.278 48.54)" opacity="1.00"></polygon><polygon id="shadow--globalStyle1/people/womansitting/head/8" fill="#000" fill-opacity=".04" points="5.57059381 71.1663914 39.598495 20.4386873 48.9854646 31.9638476 31.3316378 76.6420703" transform="rotate(-12 27.278 48.54)"></polygon><ellipse id="[skin]face--globalStyle1/people/womansitting/head/8" cx="45.328" cy="19.336" fill="#ffbcba" rx="10.236" ry="17.511" transform="rotate(-12 45.328 19.336)" opacity="1.00"></ellipse><path id="smile--globalStyle1/people/womansitting/head/8" fill="#FFF" fill-rule="nonzero" d="M50.6623358,30.3469927 C51.3403309,30.3466344 52.7288499,29.8862396 52.7297211,28.2396809 C52.7297211,28.2396809 48.5971791,28.2418639 48.5971791,28.2418639 C48.5963727,29.766537 49.9843407,30.3473507 50.6623358,30.3469927 Z" transform="rotate(4 50.663 29.293)"></path></g><path id="[hair]hair--globalStyle1/people/womansitting/head/8" fill="#cac9c9" d="M48.8269456,166.189973 C47.3830709,186.035316 35.2733889,204.620908 24.3613511,205.170735 C17.188367,205.532162 10.5131646,199.700851 7.79465594,175.67372 C4.79837481,149.191539 21.4614205,133.146392 36.9734762,111.146392 C45.7378733,98.7162703 49.2556389,90.463705 53.2496389,83.0608613 C59.5546389,71.3734679 69.0176389,63.8196268 88.1016389,77.4232958 C93.3146389,81.1386253 90.5826389,84.2062557 79.9056389,86.6251935 C79.5616389,88.1907976 76.4096394,88.5341987 74.5508546,94.258276 C74.2253771,94.7641865 69.3434196,108.673171 59.9107807,122.833698 C49.0932933,139.073196 49.0932933,162.525519 48.8269456,166.189973 Z" opacity="1.00"></path><g id="Group-4--globalStyle1/people/womansitting/head/8" transform="translate(48.827 60.724)"><path id="Path-152--globalStyle1/people/womansitting/head/8" fill="#FF8334" d="M0.493764496,25.7689432 C-1.815991,10.8292292 3.97776815,2.36146161 17.8750419,0.365640498 C31.7723157,-1.63018062 39.6295811,4.54452767 41.4468382,18.8897653 C38.0177244,20.7669694 32.3368481,22.3718222 24.4042091,23.7043237 C16.4715701,25.0368253 8.50142188,25.7250318 0.493764496,25.7689432 Z"></path><path id="Path-153--globalStyle1/people/womansitting/head/8" fill="#FF8334" d="M41.4468382,18.8897653 C45.5343755,20.2557709 46.6694926,21.6897669 44.8521895,23.1917533 C42.1262349,25.4447329 35.5467315,28.3170316 27.234621,28.3170316 C23.5558303,28.3170316 20.1480283,27.1131472 17.0112151,24.7053784 L41.4468382,18.8897653 Z"></path><path id="Path-154--globalStyle1/people/womansitting/head/8" fill="#FFF" d="M37.8005498,19.7588991 C36.1641916,9.49880318 31.2077191,2.9206307 22.9289084,-2.53599976e-14 C19.6626862,-2.53599976e-14 17.3093635,0.360894513 15.1136652,0.89280509 C23.152392,3.3138435 28.0223855,6.22837967 29.7236457,9.63641359 C31.5316535,13.2582887 32.8100782,16.9480642 33.5585359,20.772432 C33.5585359,20.772432 34.8169055,20.4797332 36.1386291,20.1541052 C36.7082064,20.0137807 37.8005498,19.7588991 37.8005498,19.7588991 Z" opacity=".321"></path></g></g></g></svg></g>
</g>
<g transform="translate(68,247)">

<g><svg xmlns="http://www.w3.org/2000/svg" width="251" height="180" viewBox="0 0 251 180"><g id="Symbols--globalStyle1/people/womansitting/bottom/5" fill="none" fill-rule="evenodd" stroke="none" stroke-width="1"><g id="globalStyle1/people/womansitting/bottom/5--globalStyle1/people/womansitting/bottom/5"><g id="Group-2--globalStyle1/people/womansitting/bottom/5" transform="translate(24.126 -8.127)"><path id="[skin]leg---globalStyle1/people/womansitting/bottom/5" fill="#ffbcba" d="M53.3560188,17.7563928 C54.883818,18.1345539 56.3453474,18.6425093 57.7317667,19.2656085 L57.7065863,19.256007 C77.1972483,26.3968185 94.9097457,33.6323515 110.844079,40.9626062 C126.778411,48.2928609 142.113254,56.2600614 156.848606,64.8642078 L156.834771,64.8821103 C160.045758,66.6395926 162.225578,70.047183 162.232879,73.9659249 C162.235062,75.2676264 162.014602,76.5222542 161.578538,77.6709997 L161.564045,77.707457 C161.566427,77.7090886 161.567436,77.7102961 161.567074,77.7110794 C161.202249,78.4994202 160.948358,79.0581449 160.757001,79.4716758 C149.701968,103.36213 133.119418,139.197813 111.009353,186.978722 C107.212281,184.984202 107.437206,183.795045 107.02467,183.874361 C107.02467,183.874361 111.998003,156.403156 129.686266,100.745555 C131.993411,93.4859297 134.98713,88.3413398 138.000285,81.5345751 L42.6789279,67.9445378 L42.708668,67.8482267 C42.1551683,67.7490855 41.601225,67.6312234 41.0475359,67.4942198 C27.3125852,64.0956712 18.9339164,50.2053518 22.3322001,36.4714637 C25.7318113,22.736778 39.621333,14.3567816 53.3560188,17.7563928 Z" transform="rotate(-16 91.905 101.99)" opacity="1.00"></path><path id="shape--globalStyle1/people/womansitting/bottom/5" fill="#000" fill-opacity=".04" d="M53.3560188,17.7563928 C54.883818,18.1345539 56.3453474,18.6425093 57.7317667,19.2656085 L57.7065863,19.256007 C77.1972483,26.3968185 94.9097457,33.6323515 110.844079,40.9626062 C126.778411,48.2928609 142.113254,56.2600614 156.848606,64.8642078 L156.834771,64.8821103 C160.045758,66.6395926 162.225578,70.047183 162.232879,73.9659249 C162.235062,75.2676264 162.014602,76.5222542 161.578538,77.6709997 L161.564045,77.707457 C161.566427,77.7090886 161.567436,77.7102961 161.567074,77.7110794 C161.202249,78.4994202 160.948358,79.0581449 160.757001,79.4716758 C149.701968,103.36213 133.119418,139.197813 111.009353,186.978722 C107.212281,184.984202 107.437206,183.795045 107.02467,183.874361 C107.02467,183.874361 111.998003,156.403156 129.686266,100.745555 C131.993411,93.4859297 134.98713,88.3413398 138.000285,81.5345751 L42.6789279,67.9445378 L42.708668,67.8482267 C42.1551683,67.7490855 41.601225,67.6312234 41.0475359,67.4942198 C27.3125852,64.0956712 18.9339164,50.2053518 22.3322001,36.4714637 C25.7318113,22.736778 39.621333,14.3567816 53.3560188,17.7563928 Z" transform="rotate(-16 91.905 101.99)"></path><path id="shape--globalStyle1/people/womansitting/bottom/5" fill="#E9E9E9" d="M127.666952,159.023026 L127.666952,186.194737 L156.218269,186.175532 C156.135044,184.426751 155.966462,183.435527 152.569197,183.368307 C147.472234,183.270145 136.962837,183.495184 136.959636,178.629756 C136.958569,177.591584 137.184413,171.776637 139.844394,160.448511 L127.666952,159.023026 Z"></path><path id="[clothes]shoes--globalStyle1/people/womansitting/bottom/5" fill="#6b8fff" d="M127.666952,188.127358 L156.218269,188.127358 L156.218269,186.117168 C156.218269,186.117168 146.361508,186.101163 127.666952,186.117168 L127.666952,188.127358 Z" opacity="1.00"></path></g><g id="Group-2--globalStyle1/people/womansitting/bottom/5" transform="translate(25.126 -9)"><path id="[skin]leg---globalStyle1/people/womansitting/bottom/5" fill="#ffbcba" d="M56.8368923,18.8954605 C58.3210226,19.4036624 59.7283306,20.0345779 61.0513608,20.7729929 L61.0402047,20.7685451 C80.049045,28.6536398 97.2101124,36.9831611 112.523407,45.7571092 C127.836701,54.5310572 142.151712,64.1966782 155.468441,74.7539721 L155.452175,74.7726629 C157.121419,75.8260331 158.50883,77.3667663 159.375404,79.3034057 C159.817776,80.2925219 160.092593,81.3141305 160.21201,82.3363542 L160.238907,82.33116 L169.084444,202.148132 C164.796488,202.244543 164.416697,201.095437 164.094338,201.36481 C164.094338,201.36481 155.346111,176.362183 141.312128,105.388636 C140.490211,101.231985 140.866566,95.9354465 140.610035,90.9739731 L41.8262459,67.9620546 L41.8645193,67.8687704 C41.321682,67.7217487 40.7800348,67.5560331 40.2403097,67.371265 C26.8538277,62.7885691 19.7176633,48.2208575 24.3000027,34.8354109 C28.8837342,21.4492854 43.4507668,14.311729 56.8368923,18.8954605 Z" transform="rotate(-16 95.998 109.83)" opacity="1.00"></path><path id="shape--globalStyle1/people/womansitting/bottom/5" fill="#E9E9E9" d="M184.893785,154.76387 L184.893785,181.935581 L210.354333,195.819317 C210.271109,194.070537 210.403479,193.081337 207.190495,191.300351 C199.917439,187.26883 194.18967,179.236029 194.186469,174.3706 C194.185402,173.332429 194.411246,167.517481 197.071227,156.189355 L184.893785,154.76387 Z" transform="rotate(-29 197.624 175.292)"></path><path id="[clothes]shoes--globalStyle1/people/womansitting/bottom/5" fill="#6b8fff" d="M190.158929,189.091089 L218.710245,189.091089 L218.710245,187.080899 C218.710245,187.080899 208.853485,187.064894 190.158929,187.080899 L190.158929,189.091089 Z" opacity="1.00"></path></g><path id="[clothes]skirt--globalStyle1/people/womansitting/bottom/5" fill="#6b8fff" d="M85.2175014,-1.0944977 L93.0845296,43.090224 L79.5654232,44.5111393 L79.8981206,76.1871079 C75.7940623,82.7113919 71.8213596,86.5697086 67.9800126,87.7620578 C54.4473275,91.9625863 42.6820028,92.0638995 32.6840388,88.0659973 C30.1818889,67.1387163 28.374679,51.6638553 27.2624089,41.6414144 C25.5940037,26.607753 22.5760453,14.6280353 38.3909227,3.82717404 C48.9341743,-3.37340012 64.5430339,-5.01395737 85.2175014,-1.0944977 Z" transform="rotate(-84 59.481 43.912)" opacity="1.00"></path></g></g></svg></g>
</g>
<g transform="translate(42,55)">

<g><svg xmlns="http://www.w3.org/2000/svg" xmlns:xlink="http://www.w3.org/1999/xlink" width="218" height="277" viewBox="0 0 218 277"><defs><polygon id="path-1--globalStyle1/people/womansitting/top/1" points="0.9688 0.262043258 45.003 0.262043258 45.003 54.4044309 0.9688 54.4044309"></polygon></defs><g id="Symbols--globalStyle1/people/womansitting/top/1" fill="none" fill-rule="evenodd" stroke="none" stroke-width="1"><g id="globalStyle1/people/womansitting/top/1--globalStyle1/people/womansitting/top/1" transform="translate(37.256 104)"><g id="mac1--globalStyle1/people/womansitting/top/1" transform="translate(68 112.04)"><polygon id="Fill-18--globalStyle1/people/womansitting/top/1" fill="#888889" points="1.49213975e-13 16.0177882 0.003 17.8420242 47.439 20.1726534 47.439 18.4856927"></polygon><polygon id="Fill-20--globalStyle1/people/womansitting/top/1" fill="#C7C7C9" points="47.439 18.4853876 9.9475983e-14 16.0174831 36.464 4.4408921e-14 72.501 1.88016292"></polygon><polygon id="Fill-22--globalStyle1/people/womansitting/top/1" fill="#B4B4B5" points="48.2334 16.8876051 24.2284 15.7233073 51.0234 1.96832416 70.0344 2.95772303"></polygon><polyline id="Fill-24--globalStyle1/people/womansitting/top/1" fill="#939396" points="47.4361 18.4853876 47.4391 20.1723483 72.5031 3.34443258 72.5011 1.88016292"></polyline><polygon id="Fill-26--globalStyle1/people/womansitting/top/1" fill="#B4B4B5" points="29.4444 9.7001764 19.9644 9.22327191 28.5554 5.4314236 37.3794 5.87578876"></polygon></g><path id="[skin]hand--globalStyle1/people/womansitting/top/1" fill="#ffbcba" d="M67.4777624 118.140449L76.1319946 123.274743 85.0072407 123.065116 90.8160423 125.72769C91.2729366 125.952961 91.1549964 126.227249 91.0737267 126.235592 89.3710273 126.405588 88.0191752 126.15633 86.2817875 125.354325 84.4760144 126.120871 82.9150414 125.283406 83.5384395 127.0741 83.6117805 127.284769 86.6722785 128.291187 89.8229661 128.508114 90.2709406 128.540445 92.4374719 128.852278 92.7070495 128.874179 94.2610848 128.996201 94.5068761 128.930497 95.604017 128.826205 95.940989 128.794917 96.3701326 128.91381 96.8944213 129.183926 96.9687534 129.222514 97.0331745 129.275703 97.0787648 129.33515 97.2036426 129.499931 97.1540879 129.676184 96.9697445 129.72833 96.5554672 129.84618 96.099564 129.954644 95.6010438 130.05685 94.8725897 130.204945 92.5831627 130.345739 90.6138591 130.24979 89.2788556 130.185129 87.6237287 130.120468 87.4324476 130.173657 87.1371016 130.257091 89.79026 130.604383 91.8923703 131.068482 93.9954716 131.534667 95.3413771 130.758735 97.2512151 130.509477 97.513855 130.475061 98.0014733 130.563709 98.7130787 130.773336 98.7507403 130.784808 99.0867211 130.978791 98.9786919 131.167559 98.8696715 131.356328 96.6942204 132.156247 95.4365222 132.431578 93.3403585 132.890463 92.8993217 132.792428 91.8884059 132.632862 90.6287255 132.43575 88.3799334 132.177106 87.7634729 132.134346 87.1470125 132.092629 90.5335805 133.106347 93.0687988 133.307631 93.4632541 133.338918 94.273969 133.294073 94.6476114 133.281558 95.7685386 133.240884 97.2214823 132.729853 97.7388334 133.021871 97.8131654 133.06463 97.8815509 133.114691 97.9400254 133.172051 98.2086119 133.432781 98.2056386 133.760258 97.9340789 133.900009 97.2294111 134.266074 96.1729049 134.549748 94.7645605 134.75416 94.432544 134.802135 93.1262822 134.950229 92.6475838 134.892869 90.6257522 134.647782 88.1410797 133.911481 87.9111459 133.987614 87.6802211 134.063747 89.1599243 134.334907 90.9488488 134.778147 91.3561884 134.879311 93.0301461 135.119182 93.3423407 135.189058 93.7546358 135.279792 94.0479996 135.277706 94.7625783 135.360097 96.1897535 135.523835 96.3076937 136.121428 95.5336494 136.379029 94.7586139 136.635587 88.4681407 136.088055 85.7029887 135.476904 84.1895882 135.142126 81.1548586 134.755203 77.4620426 133.353519L63 126.960421 67.4777624 118.140449zM100.148056 102.887647C100.624331 102.886781 101.082067 102.969511 101.508468 103.12257L101.511211 103.114402 108.533907 104.375746C112.994784 105.60574 115.421244 106.787662 117.028523 107.296588 119.963336 108.227705 126.23002 111.123466 126.842651 111.779741 127.455282 112.434971 127.050204 112.922998 125.609368 112.303298 124.886443 111.992926 124.608704 111.831993 124.17154 111.693004 123.839656 111.587457 122.127097 110.905056 121.687928 110.777563 119.76581 110.219521 118.222702 109.669838 118.405188 109.864212 118.587674 110.059632 121.31694 110.722177 123.364391 111.589547 123.84868 111.796462 125.021803 112.639796 125.314583 112.863431 126.557893 113.812313 127.426205 114.646242 127.919518 115.365219 128.109023 115.641105 127.952606 115.944162 127.568584 116.040304 127.486365 116.061205 127.396125 116.07061 127.303879 116.069565 126.668187 116.06016 125.533165 114.802996 124.48337 114.159261 124.133438 113.945031 123.381436 113.465365 122.991398 113.281441 120.4757 112.096384 116.749781 111.200798 117.358401 111.495495 117.968024 111.790192 120.23907 112.766244 121.536524 113.26472 122.577295 113.66601 123.045542 113.813358 124.820267 115.370444 125.885102 116.302605 127.568584 118.219179 127.579613 118.45222 127.58964 118.684215 127.175537 118.68108 127.133425 118.671675 126.352346 118.480435 125.844995 118.298601 125.61037 118.124082 123.911848 116.862738 123.00744 115.418515 120.775498 114.711034 118.542554 114.003552 115.84437 112.889557 116.085011 113.125732 116.241427 113.279351 117.849709 114.11328 119.155185 114.775825 121.08031 115.751878 123.193937 117.119814 123.815592 117.650686 124.241727 118.014354 124.622741 118.362347 124.960641 118.69362 125.111041 118.842013 125.071937 119.030118 124.872406 119.11581 124.800213 119.14716 124.712981 119.160746 124.621738 119.156566 123.991059 119.121035 123.522813 118.998767 123.216998 118.787672 122.22235 118.099001 122.019811 117.903582 120.478708 117.17729 120.210995 117.050842 117.992088 116.167797 117.549911 115.954612 114.43963 114.452913 111.028549 113.725576 110.857092 113.881285 109.386176 115.19697 111.285232 115.268031 112.630815 116.951565 114.679268 117.151165 116.091027 117.652776 117.631127 118.729151 117.704322 118.781402 117.682263 119.098044 117.137814 119.058333L117.137814 119.058333 110.2966 118.375933 103.27992 112.657562 98.5703812 111.316796 98.5993385 111.235218C97.0776363 110.594585 96.0030564 109.041906 96.0000065 107.226594 95.9960023 104.834534 97.852946 102.891834 100.148056 102.887647z" opacity="1.00"></path><path id="Combined-Shape--globalStyle1/people/womansitting/top/1" fill="#E8E8E8" d="M51.0403008,2.29008038 C57.3476026,1.6178496 64.2502704,5.75307742 63.9724962,13.3116174 C63.3744647,29.5425627 59.9552845,76.5399173 59.433257,79.020438 C59.4051771,79.153835 59.3768422,79.286181 59.3482558,79.4174827 C67.7974502,83.3832431 82.4535393,90.9312201 102,101.900463 L102,101.900463 L97.957787,113.05618 C68.3922771,106.516039 50.0812237,99.7420203 42.5541979,93.2252373 C41.3215726,92.4582283 40.2397083,91.3824946 39.4255027,90.0267929 C37.4474719,86.7332516 37.5899438,82.6858878 39.4689672,79.6140258 C37.9584248,60.6841798 40.4348245,23.1381946 41.1032912,12.7743242 C41.5050709,8.87123586 49.1952592,17.1868363 51.4847337,15.4758151 C52.5325177,14.6927618 52.8833109,9.37861331 52.3460105,5.75212556 C52.0476639,3.73844699 50.3281934,2.36597662 51.0403008,2.29008038 Z"></path><path id="[clothes]bluse--globalStyle1/people/womansitting/top/1" fill="#294b67" d="M31.3189523,0.185814923 C-5.57744702,1.82298334 0.350589887,31.62094 0.350589887,65.0059704 C0.350589887,74.0082635 -1.28625613,110.355378 2.99286957,115.713595 C18.8133683,135.521897 50.5006159,128.583902 61.1562019,117.894951 C65.2593767,113.77857 64.6752197,113.256388 64.5244047,77.0436364 C64.4389428,56.4189798 68.9261933,43.2239634 66.0184791,33.8419942 C63.920139,27.0729701 59.3324413,2.20545087 50.290681,1.12642439 C50.1299267,1.10724028 47.9505856,6.28651685 47.3729215,6.28651685 C44.5114573,5.93635982 32.5626738,0.131236269 31.3189523,0.185814923 Z" opacity="1.00"></path><path id="shadow--globalStyle1/people/womansitting/top/1" fill="#000" fill-opacity=".04" d="M101.897899,103.904494 L99,111.702931 L103.640788,112.977665 L110.555038,118.414414 L117.296382,119.063208 C117.832883,119.100963 117.85462,118.799915 117.782494,118.750237 C116.264876,117.726872 114.873727,117.249964 112.855177,117.060195 C111.529237,115.459573 109.657904,115.392011 111.107348,114.141122 C111.276301,113.993082 114.637587,114.684598 117.702463,116.112341 C118.138185,116.315026 120.324701,117.154583 120.588505,117.274803 C122.107111,117.965326 122.306693,118.151121 123.286821,118.805876 C123.588171,119.006575 124.049582,119.122821 124.671055,119.156602 C124.760966,119.160576 124.846924,119.14766 124.918063,119.117853 C125.114681,119.036382 125.153214,118.857541 125.00501,118.716456 C124.672043,118.401498 124.29659,118.070643 123.876677,117.724885 C123.264097,117.220158 121.181325,115.91959 119.284303,114.991607 C117.997885,114.361692 116.413081,113.568832 116.258948,113.422779 C116.02182,113.198235 118.680615,114.257368 120.880963,114.930007 C123.080323,115.602645 123.971528,116.975742 125.645255,118.174967 C125.876454,118.340891 126.376398,118.51377 127.146076,118.695591 C127.187573,118.704533 127.59563,118.707514 127.58575,118.486944 C127.574882,118.265381 125.915975,116.443195 124.866685,115.556942 C123.117868,114.07654 122.656457,113.936449 121.630879,113.554922 C120.352366,113.080995 118.114472,112.153012 117.513749,111.872829 C116.914013,111.592646 120.585541,112.444125 123.064514,113.570819 C123.448859,113.745686 124.189883,114.201729 124.534706,114.405408 C125.569176,115.01744 126.687629,116.21269 127.314041,116.221632 C127.40494,116.222625 127.493863,116.213683 127.574882,116.193812 C127.953298,116.102405 128.107431,115.814273 127.920693,115.551974 C127.434581,114.868406 126.578945,114.075547 125.353785,113.173396 C125.06528,112.960775 123.909282,112.158974 123.432062,111.962249 C121.4145,111.137596 118.725076,110.50768 118.545255,110.321885 C118.365433,110.137083 119.886014,110.659695 121.780072,111.190255 C122.21283,111.311469 123.90039,111.960262 124.227428,112.060611 C124.65821,112.192755 124.931895,112.345762 125.644267,112.640849 C127.064069,113.230029 127.463234,112.766037 126.859546,112.143077 C126.255858,111.519122 120.080657,108.765973 117.188686,107.880713 C115.604871,107.39685 113.213832,106.273136 108.818077,105.103719 L101.897899,103.904494 Z"></path><g id="mac2--globalStyle1/people/womansitting/top/1" transform="translate(114 75.433)"><mask id="mask-2--globalStyle1/people/womansitting/top/1" fill="#fff"><use xlink:href="#path-1--globalStyle1/people/womansitting/top/1"></use></mask><polygon id="Fill-35--globalStyle1/people/womansitting/top/1" fill="#9F9FA0" points="0.9688 54.4044309 26.0308 37.7992062 45.0038 0.262043258 19.6588 16.8032062" mask="url(#mask-2--globalStyle1/people/womansitting/top/1)"></polygon><path id="Fill-38--globalStyle1/people/womansitting/top/1" fill="#BEBEBF" d="M25.6685,28.9632539 C24.7305,30.9562876 23.6495,32.248709 22.8355,31.8531528 C22.0225,31.4565798 22.1235,29.5204899 23.0615,27.5274562 C24.0005,25.5354393 25.4205,24.2399674 26.2335,24.6365404 C27.0475,25.0331135 26.6065,26.9702202 25.6685,28.9632539" mask="url(#mask-2--globalStyle1/people/womansitting/top/1)"></path></g><path id="Combined-Shape--globalStyle1/people/womansitting/top/1" fill="#E8E8E8" d="M29.1985812,15.4362657 C32.9065009,26.2769342 36.1525995,69.5506235 36.5459764,84.9847919 C40.0730204,88.21474 45.2606117,90.8110184 71.207361,118.114423 L72,118.949387 L67.1084898,129.325843 C37.9787529,112.601079 24.76174,102.945182 20.1366331,95.7831551 C19.9659292,95.6081112 19.8124275,95.4302955 19.6781449,95.2507905 C13.5582238,87.0715948 3.7882822,27.9350169 6.4493362,15.8222297 C9.11139628,3.7094426 24.828215,2.6558925 29.1985812,15.4362657 Z"></path></g></g></svg></g>
</g></g></svg>